# MagicaVoxel @ Ephtracy

# group
o 

# material
mtllib Bus.mtl
usemtl palette

# normals
vn -1 0 0
vn 1 0 0
vn 0 0 1
vn 0 0 -1
vn 0 -1 0
vn 0 1 0

# texcoords
vt 0.0136719 0.5
vt 0.0683594 0.5
vt 0.736328 0.5
vt 0.771484 0.5
vt 0.958984 0.5
vt 0.974609 0.5
vt 0.982422 0.5
vt 0.994141 0.5

# verts
v -0.4 -0.2 0.1
v -0.4 -0.2 -0.1
v -0.4 -0.2 -1
v -0.4 -0.2 -1.2
v -0.4 -0.1 0.2
v -0.4 -0.1 0.1
v -0.4 -0.1 -0.1
v -0.4 -0.1 -0.2
v -0.4 -0.1 -0.9
v -0.4 -0.1 -1
v -0.4 -0.1 -1.2
v -0.4 -0.1 -1.3
v -0.4 0 0.7
v -0.4 0 0.2
v -0.4 0 -0.2
v -0.4 0 -0.9
v -0.4 0 -1.3
v -0.4 0 -1.8
v -0.4 0.1 0.7
v -0.4 0.1 0.6
v -0.4 0.1 0.5
v -0.4 0.1 0.2
v -0.4 0.1 0.1
v -0.4 0.1 -0.1
v -0.4 0.1 -0.2
v -0.4 0.1 -0.9
v -0.4 0.1 -1
v -0.4 0.1 -1.2
v -0.4 0.1 -1.3
v -0.4 0.1 -1.7
v -0.4 0.1 -1.8
v -0.4 0.2 0.7
v -0.4 0.2 0.6
v -0.4 0.2 0.5
v -0.4 0.2 0.4
v -0.4 0.2 0.1
v -0.4 0.2 -0.1
v -0.4 0.2 -1
v -0.4 0.2 -1.2
v -0.4 0.3 0.7
v -0.4 0.3 0.6
v -0.4 0.3 0.4
v -0.4 0.3 -1.7
v -0.4 0.3 -1.8
v -0.4 0.4 0.7
v -0.4 0.4 -1.8
v -0.4 0.5 0.7
v -0.4 0.5 0.6
v -0.4 0.5 0.5
v -0.4 0.5 0.2
v -0.4 0.5 0
v -0.4 0.5 -0.2
v -0.4 0.5 -0.3
v -0.4 0.5 -0.5
v -0.4 0.5 -0.6
v -0.4 0.5 -0.8
v -0.4 0.5 -0.9
v -0.4 0.5 -1.1
v -0.4 0.5 -1.3
v -0.4 0.5 -1.6
v -0.4 0.8 0.7
v -0.4 0.8 0.6
v -0.4 0.8 0.5
v -0.4 0.8 0.2
v -0.4 0.8 0
v -0.4 0.8 -0.2
v -0.4 0.8 -0.3
v -0.4 0.8 -0.5
v -0.4 0.8 -0.6
v -0.4 0.8 -0.8
v -0.4 0.8 -0.9
v -0.4 0.8 -1.1
v -0.4 0.8 -1.3
v -0.4 0.8 -1.6
v -0.4 0.8 -1.8
v -0.4 0.9 0.7
v -0.4 0.9 -1.8
v -0.3 0.9 0.6
v -0.3 0.9 -0.7
v -0.3 1 0.6
v -0.3 1 -0.7
v 0.2 -0.2 0.1
v 0.2 -0.2 -0.1
v 0.2 -0.2 -1
v 0.2 -0.2 -1.2
v 0.2 -0.1 0.2
v 0.2 -0.1 0.1
v 0.2 -0.1 -0.1
v 0.2 -0.1 -0.2
v 0.2 -0.1 -0.9
v 0.2 -0.1 -1
v 0.2 -0.1 -1.2
v 0.2 -0.1 -1.3
v 0.2 0 0.2
v 0.2 0 0.1
v 0.2 0 -0.1
v 0.2 0 -0.2
v 0.2 0 -0.9
v 0.2 0 -1
v 0.2 0 -1.2
v 0.2 0 -1.3
v -0.2 -0.2 0.1
v -0.2 -0.2 -0.1
v -0.2 -0.2 -1
v -0.2 -0.2 -1.2
v -0.2 -0.1 0.2
v -0.2 -0.1 0.1
v -0.2 -0.1 -0.1
v -0.2 -0.1 -0.2
v -0.2 -0.1 -0.9
v -0.2 -0.1 -1
v -0.2 -0.1 -1.2
v -0.2 -0.1 -1.3
v -0.2 0 0.2
v -0.2 0 0.1
v -0.2 0 -0.1
v -0.2 0 -0.2
v -0.2 0 -0.9
v -0.2 0 -1
v -0.2 0 -1.2
v -0.2 0 -1.3
v 0.3 0.9 0.6
v 0.3 0.9 -0.7
v 0.3 1 0.6
v 0.3 1 -0.7
v 0.4 -0.2 0.1
v 0.4 -0.2 -0.1
v 0.4 -0.2 -1
v 0.4 -0.2 -1.2
v 0.4 -0.1 0.2
v 0.4 -0.1 0.1
v 0.4 -0.1 -0.1
v 0.4 -0.1 -0.2
v 0.4 -0.1 -0.9
v 0.4 -0.1 -1
v 0.4 -0.1 -1.2
v 0.4 -0.1 -1.3
v 0.4 0 0.7
v 0.4 0 0.2
v 0.4 0 -0.2
v 0.4 0 -0.9
v 0.4 0 -1.3
v 0.4 0 -1.8
v 0.4 0.1 0.7
v 0.4 0.1 0.6
v 0.4 0.1 0.5
v 0.4 0.1 0.4
v 0.4 0.1 0.3
v 0.4 0.1 0.2
v 0.4 0.1 0.1
v 0.4 0.1 -0.1
v 0.4 0.1 -0.2
v 0.4 0.1 -0.9
v 0.4 0.1 -1
v 0.4 0.1 -1.2
v 0.4 0.1 -1.3
v 0.4 0.1 -1.4
v 0.4 0.1 -1.5
v 0.4 0.1 -1.6
v 0.4 0.1 -1.7
v 0.4 0.1 -1.8
v 0.4 0.2 0.7
v 0.4 0.2 0.6
v 0.4 0.2 0.1
v 0.4 0.2 -0.1
v 0.4 0.2 -1
v 0.4 0.2 -1.2
v 0.4 0.3 0.7
v 0.4 0.3 0.6
v 0.4 0.3 0.5
v 0.4 0.3 0.2
v 0.4 0.3 -1.3
v 0.4 0.3 -1.6
v 0.4 0.3 -1.7
v 0.4 0.3 -1.8
v 0.4 0.4 0.7
v 0.4 0.4 0.5
v 0.4 0.4 0.2
v 0.4 0.4 -1.3
v 0.4 0.4 -1.6
v 0.4 0.4 -1.8
v 0.4 0.5 0.7
v 0.4 0.5 0.6
v 0.4 0.5 0
v 0.4 0.5 -0.2
v 0.4 0.5 -0.3
v 0.4 0.5 -0.5
v 0.4 0.5 -0.6
v 0.4 0.5 -0.8
v 0.4 0.5 -0.9
v 0.4 0.5 -1.1
v 0.4 0.8 0.7
v 0.4 0.8 0.6
v 0.4 0.8 0.5
v 0.4 0.8 0.4
v 0.4 0.8 0.3
v 0.4 0.8 0.2
v 0.4 0.8 0
v 0.4 0.8 -0.2
v 0.4 0.8 -0.3
v 0.4 0.8 -0.5
v 0.4 0.8 -0.6
v 0.4 0.8 -0.8
v 0.4 0.8 -0.9
v 0.4 0.8 -1.1
v 0.4 0.8 -1.3
v 0.4 0.8 -1.4
v 0.4 0.8 -1.5
v 0.4 0.8 -1.6
v 0.4 0.8 -1.8
v 0.4 0.9 0.7
v 0.4 0.9 -1.8
v -0.4 0 0.7
v -0.4 0.1 0.7
v -0.4 0.2 0.7
v -0.4 0.3 0.7
v -0.4 0.4 0.7
v -0.4 0.5 0.7
v -0.4 0.8 0.7
v -0.4 0.9 0.7
v -0.3 0.1 0.7
v -0.3 0.2 0.7
v -0.3 0.3 0.7
v -0.3 0.4 0.7
v -0.3 0.5 0.7
v -0.2 0.1 0.7
v -0.2 0.2 0.7
v -0.1 0 0.7
v -0.1 0.1 0.7
v 0.1 0 0.7
v 0.1 0.1 0.7
v 0.2 0.1 0.7
v 0.2 0.2 0.7
v 0.3 0.1 0.7
v 0.3 0.2 0.7
v 0.3 0.3 0.7
v 0.3 0.4 0.7
v 0.3 0.5 0.7
v 0.4 0 0.7
v 0.4 0.1 0.7
v 0.4 0.2 0.7
v 0.4 0.3 0.7
v 0.4 0.4 0.7
v 0.4 0.5 0.7
v 0.4 0.8 0.7
v 0.4 0.9 0.7
v -0.3 0.9 0.6
v -0.3 1 0.6
v 0.3 0.9 0.6
v 0.3 1 0.6
v -0.4 -0.1 0.2
v -0.4 0 0.2
v -0.3 0 0.2
v -0.2 -0.1 0.2
v -0.2 0 0.2
v 0.2 -0.1 0.2
v 0.2 0 0.2
v 0.3 0 0.2
v 0.4 -0.1 0.2
v 0.4 0 0.2
v -0.4 -0.2 0.1
v -0.4 -0.1 0.1
v -0.2 -0.2 0.1
v -0.2 -0.1 0.1
v 0.2 -0.2 0.1
v 0.2 -0.1 0.1
v 0.4 -0.2 0.1
v 0.4 -0.1 0.1
v -0.4 -0.1 -0.9
v -0.4 0 -0.9
v -0.3 0 -0.9
v -0.2 -0.1 -0.9
v -0.2 0 -0.9
v 0.2 -0.1 -0.9
v 0.2 0 -0.9
v 0.3 0 -0.9
v 0.4 -0.1 -0.9
v 0.4 0 -0.9
v -0.4 -0.2 -1
v -0.4 -0.1 -1
v -0.2 -0.2 -1
v -0.2 -0.1 -1
v 0.2 -0.2 -1
v 0.2 -0.1 -1
v 0.4 -0.2 -1
v 0.4 -0.1 -1
v -0.4 -0.2 -0.1
v -0.4 -0.1 -0.1
v -0.2 -0.2 -0.1
v -0.2 -0.1 -0.1
v 0.2 -0.2 -0.1
v 0.2 -0.1 -0.1
v 0.4 -0.2 -0.1
v 0.4 -0.1 -0.1
v -0.4 -0.1 -0.2
v -0.4 0 -0.2
v -0.3 0 -0.2
v -0.2 -0.1 -0.2
v -0.2 0 -0.2
v 0.2 -0.1 -0.2
v 0.2 0 -0.2
v 0.3 0 -0.2
v 0.4 -0.1 -0.2
v 0.4 0 -0.2
v -0.3 0.9 -0.7
v -0.3 1 -0.7
v 0.3 0.9 -0.7
v 0.3 1 -0.7
v -0.4 -0.2 -1.2
v -0.4 -0.1 -1.2
v -0.2 -0.2 -1.2
v -0.2 -0.1 -1.2
v 0.2 -0.2 -1.2
v 0.2 -0.1 -1.2
v 0.4 -0.2 -1.2
v 0.4 -0.1 -1.2
v -0.4 -0.1 -1.3
v -0.4 0 -1.3
v -0.3 0 -1.3
v -0.2 -0.1 -1.3
v -0.2 0 -1.3
v 0.2 -0.1 -1.3
v 0.2 0 -1.3
v 0.3 0 -1.3
v 0.4 -0.1 -1.3
v 0.4 0 -1.3
v -0.4 0 -1.8
v -0.4 0.1 -1.8
v -0.4 0.3 -1.8
v -0.4 0.4 -1.8
v -0.4 0.8 -1.8
v -0.4 0.9 -1.8
v -0.3 0.1 -1.8
v -0.3 0.3 -1.8
v -0.3 0.5 -1.8
v -0.3 0.8 -1.8
v -0.2 0.1 -1.8
v -0.2 0.3 -1.8
v -0.1 0 -1.8
v -0.1 0.1 -1.8
v 0.1 0 -1.8
v 0.1 0.1 -1.8
v 0.2 0.1 -1.8
v 0.2 0.3 -1.8
v 0.3 0.1 -1.8
v 0.3 0.3 -1.8
v 0.3 0.5 -1.8
v 0.3 0.8 -1.8
v 0.4 0 -1.8
v 0.4 0.1 -1.8
v 0.4 0.3 -1.8
v 0.4 0.4 -1.8
v 0.4 0.8 -1.8
v 0.4 0.9 -1.8
v -0.4 -0.2 0.1
v -0.2 -0.2 0.1
v 0.2 -0.2 0.1
v 0.4 -0.2 0.1
v -0.4 -0.2 -0.1
v -0.2 -0.2 -0.1
v 0.2 -0.2 -0.1
v 0.4 -0.2 -0.1
v -0.4 -0.2 -1
v -0.2 -0.2 -1
v 0.2 -0.2 -1
v 0.4 -0.2 -1
v -0.4 -0.2 -1.2
v -0.2 -0.2 -1.2
v 0.2 -0.2 -1.2
v 0.4 -0.2 -1.2
v -0.4 -0.1 0.2
v -0.2 -0.1 0.2
v 0.2 -0.1 0.2
v 0.4 -0.1 0.2
v -0.4 -0.1 0.1
v -0.2 -0.1 0.1
v 0.2 -0.1 0.1
v 0.4 -0.1 0.1
v -0.4 -0.1 -0.1
v -0.2 -0.1 -0.1
v 0.2 -0.1 -0.1
v 0.4 -0.1 -0.1
v -0.4 -0.1 -0.2
v -0.2 -0.1 -0.2
v 0.2 -0.1 -0.2
v 0.4 -0.1 -0.2
v -0.4 -0.1 -0.9
v -0.2 -0.1 -0.9
v 0.2 -0.1 -0.9
v 0.4 -0.1 -0.9
v -0.4 -0.1 -1
v -0.2 -0.1 -1
v 0.2 -0.1 -1
v 0.4 -0.1 -1
v -0.4 -0.1 -1.2
v -0.2 -0.1 -1.2
v 0.2 -0.1 -1.2
v 0.4 -0.1 -1.2
v -0.4 -0.1 -1.3
v -0.2 -0.1 -1.3
v 0.2 -0.1 -1.3
v 0.4 -0.1 -1.3
v -0.4 0 0.7
v -0.1 0 0.7
v 0.1 0 0.7
v 0.4 0 0.7
v -0.3 0 0.6
v -0.1 0 0.6
v 0.1 0 0.6
v 0.3 0 0.6
v -0.4 0 0.2
v -0.3 0 0.2
v -0.2 0 0.2
v 0.2 0 0.2
v 0.3 0 0.2
v 0.4 0 0.2
v -0.2 0 0.1
v 0.2 0 0.1
v -0.2 0 -0.1
v 0.2 0 -0.1
v -0.4 0 -0.2
v -0.3 0 -0.2
v -0.2 0 -0.2
v 0.2 0 -0.2
v 0.3 0 -0.2
v 0.4 0 -0.2
v -0.4 0 -0.9
v -0.3 0 -0.9
v -0.2 0 -0.9
v 0.2 0 -0.9
v 0.3 0 -0.9
v 0.4 0 -0.9
v -0.2 0 -1
v 0.2 0 -1
v -0.2 0 -1.2
v 0.2 0 -1.2
v -0.4 0 -1.3
v -0.3 0 -1.3
v -0.2 0 -1.3
v 0.2 0 -1.3
v 0.3 0 -1.3
v 0.4 0 -1.3
v -0.3 0 -1.7
v -0.1 0 -1.7
v 0.1 0 -1.7
v 0.3 0 -1.7
v -0.4 0 -1.8
v -0.1 0 -1.8
v 0.1 0 -1.8
v 0.4 0 -1.8
v -0.4 0.9 0.7
v 0.4 0.9 0.7
v -0.3 0.9 0.6
v 0.3 0.9 0.6
v -0.3 0.9 -0.7
v 0.3 0.9 -0.7
v -0.4 0.9 -1.8
v 0.4 0.9 -1.8
v -0.3 1 0.6
v 0.3 1 0.6
v -0.3 1 -0.7
v 0.3 1 -0.7

# faces
f 6/8/1 2/8/1 1/8/1
f 7/8/1 2/8/1 6/8/1
f 10/8/1 4/8/1 3/8/1
f 11/8/1 4/8/1 10/8/1
f 14/8/1 6/8/1 5/8/1
f 15/8/1 8/8/1 7/8/1
f 16/8/1 10/8/1 9/8/1
f 17/8/1 12/8/1 11/8/1
f 19/3/1 14/3/1 13/3/1
f 20/3/1 14/3/1 19/3/1
f 21/3/1 14/3/1 20/3/1
f 22/8/1 6/8/1 14/8/1
f 22/3/1 14/3/1 21/3/1
f 23/6/1 7/6/1 6/6/1
f 23/8/1 6/8/1 22/8/1
f 24/8/1 15/8/1 7/8/1
f 24/6/1 7/6/1 23/6/1
f 25/3/1 16/3/1 15/3/1
f 25/8/1 15/8/1 24/8/1
f 26/8/1 10/8/1 16/8/1
f 26/3/1 16/3/1 25/3/1
f 27/6/1 11/6/1 10/6/1
f 27/8/1 10/8/1 26/8/1
f 28/8/1 17/8/1 11/8/1
f 28/6/1 11/6/1 27/6/1
f 29/3/1 18/3/1 17/3/1
f 29/8/1 17/8/1 28/8/1
f 30/3/1 18/3/1 29/3/1
f 31/3/1 18/3/1 30/3/1
f 32/2/1 20/2/1 19/2/1
f 33/7/1 21/7/1 20/7/1
f 33/2/1 20/2/1 32/2/1
f 34/3/1 22/3/1 21/3/1
f 34/7/1 21/7/1 33/7/1
f 34/3/1 23/3/1 22/3/1
f 35/3/1 23/3/1 34/3/1
f 36/8/1 24/8/1 23/8/1
f 36/3/1 23/3/1 35/3/1
f 37/3/1 26/3/1 25/3/1
f 37/8/1 24/8/1 36/8/1
f 37/3/1 25/3/1 24/3/1
f 37/3/1 27/3/1 26/3/1
f 38/8/1 28/8/1 27/8/1
f 38/3/1 27/3/1 37/3/1
f 39/3/1 30/3/1 29/3/1
f 39/8/1 28/8/1 38/8/1
f 39/3/1 29/3/1 28/3/1
f 40/3/1 33/3/1 32/3/1
f 41/7/1 35/7/1 34/7/1
f 41/3/1 33/3/1 40/3/1
f 41/7/1 34/7/1 33/7/1
f 42/3/1 37/3/1 36/3/1
f 42/7/1 35/7/1 41/7/1
f 42/3/1 36/3/1 35/3/1
f 42/3/1 39/3/1 38/3/1
f 42/3/1 38/3/1 37/3/1
f 43/3/1 30/3/1 39/3/1
f 43/3/1 39/3/1 42/3/1
f 43/2/1 31/2/1 30/2/1
f 44/2/1 31/2/1 43/2/1
f 45/1/1 41/1/1 40/1/1
f 45/1/1 42/1/1 41/1/1
f 45/1/1 44/1/1 43/1/1
f 45/1/1 43/1/1 42/1/1
f 46/1/1 44/1/1 45/1/1
f 47/5/1 46/5/1 45/5/1
f 48/5/1 46/5/1 47/5/1
f 49/5/1 46/5/1 48/5/1
f 50/5/1 46/5/1 49/5/1
f 51/5/1 46/5/1 50/5/1
f 52/5/1 46/5/1 51/5/1
f 53/5/1 46/5/1 52/5/1
f 54/5/1 46/5/1 53/5/1
f 55/5/1 46/5/1 54/5/1
f 56/5/1 46/5/1 55/5/1
f 57/5/1 46/5/1 56/5/1
f 58/5/1 46/5/1 57/5/1
f 59/5/1 46/5/1 58/5/1
f 60/5/1 46/5/1 59/5/1
f 61/7/1 48/7/1 47/7/1
f 62/5/1 49/5/1 48/5/1
f 62/7/1 48/7/1 61/7/1
f 63/6/1 50/6/1 49/6/1
f 63/5/1 49/5/1 62/5/1
f 64/5/1 51/5/1 50/5/1
f 64/6/1 50/6/1 63/6/1
f 65/6/1 52/6/1 51/6/1
f 65/5/1 51/5/1 64/5/1
f 66/5/1 53/5/1 52/5/1
f 66/6/1 52/6/1 65/6/1
f 67/6/1 54/6/1 53/6/1
f 67/5/1 53/5/1 66/5/1
f 68/5/1 55/5/1 54/5/1
f 68/6/1 54/6/1 67/6/1
f 69/6/1 56/6/1 55/6/1
f 69/5/1 55/5/1 68/5/1
f 70/5/1 57/5/1 56/5/1
f 70/6/1 56/6/1 69/6/1
f 71/6/1 58/6/1 57/6/1
f 71/5/1 57/5/1 70/5/1
f 72/5/1 59/5/1 58/5/1
f 72/6/1 58/6/1 71/6/1
f 73/6/1 60/6/1 59/6/1
f 73/5/1 59/5/1 72/5/1
f 74/5/1 46/5/1 60/5/1
f 74/6/1 60/6/1 73/6/1
f 75/5/1 46/5/1 74/5/1
f 76/3/1 73/3/1 72/3/1
f 76/3/1 62/3/1 61/3/1
f 76/3/1 75/3/1 74/3/1
f 76/3/1 74/3/1 73/3/1
f 76/3/1 72/3/1 71/3/1
f 76/3/1 71/3/1 70/3/1
f 76/3/1 70/3/1 69/3/1
f 76/3/1 69/3/1 68/3/1
f 76/3/1 68/3/1 67/3/1
f 76/3/1 67/3/1 66/3/1
f 76/3/1 66/3/1 65/3/1
f 76/3/1 65/3/1 64/3/1
f 76/3/1 64/3/1 63/3/1
f 76/3/1 63/3/1 62/3/1
f 77/3/1 75/3/1 76/3/1
f 80/5/1 79/5/1 78/5/1
f 81/5/1 79/5/1 80/5/1
f 87/8/1 83/8/1 82/8/1
f 88/8/1 83/8/1 87/8/1
f 91/8/1 85/8/1 84/8/1
f 92/8/1 85/8/1 91/8/1
f 94/8/1 87/8/1 86/8/1
f 95/6/1 88/6/1 87/6/1
f 95/8/1 87/8/1 94/8/1
f 96/8/1 89/8/1 88/8/1
f 96/6/1 88/6/1 95/6/1
f 97/8/1 89/8/1 96/8/1
f 98/8/1 91/8/1 90/8/1
f 99/6/1 92/6/1 91/6/1
f 99/8/1 91/8/1 98/8/1
f 100/8/1 93/8/1 92/8/1
f 100/6/1 92/6/1 99/6/1
f 101/8/1 93/8/1 100/8/1
f 102/8/2 103/8/2 107/8/2
f 107/8/2 103/8/2 108/8/2
f 104/8/2 105/8/2 111/8/2
f 111/8/2 105/8/2 112/8/2
f 106/8/2 107/8/2 114/8/2
f 107/6/2 108/6/2 115/6/2
f 114/8/2 107/8/2 115/8/2
f 108/8/2 109/8/2 116/8/2
f 115/6/2 108/6/2 116/6/2
f 116/8/2 109/8/2 117/8/2
f 110/8/2 111/8/2 118/8/2
f 111/6/2 112/6/2 119/6/2
f 118/8/2 111/8/2 119/8/2
f 112/8/2 113/8/2 120/8/2
f 119/6/2 112/6/2 120/6/2
f 120/8/2 113/8/2 121/8/2
f 122/5/2 123/5/2 124/5/2
f 124/5/2 123/5/2 125/5/2
f 126/8/2 127/8/2 131/8/2
f 131/8/2 127/8/2 132/8/2
f 128/8/2 129/8/2 135/8/2
f 135/8/2 129/8/2 136/8/2
f 130/8/2 131/8/2 139/8/2
f 132/8/2 133/8/2 140/8/2
f 134/8/2 135/8/2 141/8/2
f 136/8/2 137/8/2 142/8/2
f 138/3/2 139/3/2 144/3/2
f 144/3/2 139/3/2 145/3/2
f 145/3/2 139/3/2 146/3/2
f 146/3/2 139/3/2 147/3/2
f 147/3/2 139/3/2 148/3/2
f 139/8/2 131/8/2 149/8/2
f 148/3/2 139/3/2 149/3/2
f 131/6/2 132/6/2 150/6/2
f 149/8/2 131/8/2 150/8/2
f 132/8/2 140/8/2 151/8/2
f 150/6/2 132/6/2 151/6/2
f 140/3/2 141/3/2 152/3/2
f 151/8/2 140/8/2 152/8/2
f 141/8/2 135/8/2 153/8/2
f 152/3/2 141/3/2 153/3/2
f 135/6/2 136/6/2 154/6/2
f 153/8/2 135/8/2 154/8/2
f 136/8/2 142/8/2 155/8/2
f 154/6/2 136/6/2 155/6/2
f 142/3/2 143/3/2 156/3/2
f 155/8/2 142/8/2 156/8/2
f 156/3/2 143/3/2 157/3/2
f 157/3/2 143/3/2 158/3/2
f 158/3/2 143/3/2 159/3/2
f 159/3/2 143/3/2 160/3/2
f 160/3/2 143/3/2 161/3/2
f 144/2/2 145/2/2 162/2/2
f 145/8/2 146/8/2 163/8/2
f 162/2/2 145/2/2 163/2/2
f 150/8/2 151/8/2 164/8/2
f 149/3/2 150/3/2 164/3/2
f 152/3/2 153/3/2 165/3/2
f 164/8/2 151/8/2 165/8/2
f 151/3/2 152/3/2 165/3/2
f 153/3/2 154/3/2 165/3/2
f 154/8/2 155/8/2 166/8/2
f 165/3/2 154/3/2 166/3/2
f 155/3/2 156/3/2 167/3/2
f 166/8/2 155/8/2 167/8/2
f 162/3/2 163/3/2 168/3/2
f 163/8/2 146/8/2 169/8/2
f 168/3/2 163/3/2 169/3/2
f 146/6/2 147/6/2 170/6/2
f 169/8/2 146/8/2 170/8/2
f 164/3/2 165/3/2 171/3/2
f 148/6/2 149/6/2 171/6/2
f 149/3/2 164/3/2 171/3/2
f 166/3/2 167/3/2 171/3/2
f 165/3/2 166/3/2 171/3/2
f 167/3/2 156/3/2 172/3/2
f 171/3/2 167/3/2 172/3/2
f 156/6/2 157/6/2 172/6/2
f 158/6/2 159/6/2 173/6/2
f 159/3/2 160/3/2 173/3/2
f 160/2/2 161/2/2 174/2/2
f 173/3/2 160/3/2 174/3/2
f 174/2/2 161/2/2 175/2/2
f 169/1/2 170/1/2 176/1/2
f 168/1/2 169/1/2 176/1/2
f 170/6/2 147/6/2 177/6/2
f 176/1/2 170/1/2 177/1/2
f 148/6/2 171/6/2 178/6/2
f 171/1/2 172/1/2 178/1/2
f 172/6/2 157/6/2 179/6/2
f 178/1/2 172/1/2 179/1/2
f 158/6/2 173/6/2 180/6/2
f 174/1/2 175/1/2 180/1/2
f 173/1/2 174/1/2 180/1/2
f 180/1/2 175/1/2 181/1/2
f 176/5/2 177/5/2 182/5/2
f 182/5/2 177/5/2 183/5/2
f 178/5/2 179/5/2 184/5/2
f 184/5/2 179/5/2 185/5/2
f 185/5/2 179/5/2 186/5/2
f 186/5/2 179/5/2 187/5/2
f 187/5/2 179/5/2 188/5/2
f 188/5/2 179/5/2 189/5/2
f 189/5/2 179/5/2 190/5/2
f 190/5/2 179/5/2 191/5/2
f 182/7/2 183/7/2 192/7/2
f 183/5/2 177/5/2 193/5/2
f 192/7/2 183/7/2 193/7/2
f 177/6/2 147/6/2 194/6/2
f 193/5/2 177/5/2 194/5/2
f 147/7/2 148/7/2 195/7/2
f 194/6/2 147/6/2 195/6/2
f 148/6/2 178/6/2 196/6/2
f 195/7/2 148/7/2 196/7/2
f 178/5/2 184/5/2 197/5/2
f 196/6/2 178/6/2 197/6/2
f 184/6/2 185/6/2 198/6/2
f 197/5/2 184/5/2 198/5/2
f 185/5/2 186/5/2 199/5/2
f 198/6/2 185/6/2 199/6/2
f 186/6/2 187/6/2 200/6/2
f 199/5/2 186/5/2 200/5/2
f 187/5/2 188/5/2 201/5/2
f 200/6/2 187/6/2 201/6/2
f 188/6/2 189/6/2 202/6/2
f 201/5/2 188/5/2 202/5/2
f 189/5/2 190/5/2 203/5/2
f 202/6/2 189/6/2 203/6/2
f 190/6/2 191/6/2 204/6/2
f 203/5/2 190/5/2 204/5/2
f 191/5/2 179/5/2 205/5/2
f 204/6/2 191/6/2 205/6/2
f 179/6/2 157/6/2 206/6/2
f 205/5/2 179/5/2 206/5/2
f 157/7/2 158/7/2 207/7/2
f 206/6/2 157/6/2 207/6/2
f 158/6/2 180/6/2 208/6/2
f 207/7/2 158/7/2 208/7/2
f 180/5/2 181/5/2 209/5/2
f 208/6/2 180/6/2 209/6/2
f 209/5/2 181/5/2 210/5/2
f 192/3/2 193/3/2 211/3/2
f 194/3/2 195/3/2 211/3/2
f 209/3/2 210/3/2 211/3/2
f 208/3/2 209/3/2 211/3/2
f 202/3/2 203/3/2 211/3/2
f 201/3/2 202/3/2 211/3/2
f 200/3/2 201/3/2 211/3/2
f 199/3/2 200/3/2 211/3/2
f 198/3/2 199/3/2 211/3/2
f 197/3/2 198/3/2 211/3/2
f 196/3/2 197/3/2 211/3/2
f 195/3/2 196/3/2 211/3/2
f 203/3/2 204/3/2 211/3/2
f 193/3/2 194/3/2 211/3/2
f 207/3/2 208/3/2 211/3/2
f 206/3/2 207/3/2 211/3/2
f 205/3/2 206/3/2 211/3/2
f 204/3/2 205/3/2 211/3/2
f 211/3/2 210/3/2 212/3/2
f 221/3/3 214/3/3 213/3/3
f 221/2/3 215/2/3 214/2/3
f 222/3/3 216/3/3 215/3/3
f 222/2/3 215/2/3 221/2/3
f 223/1/3 217/1/3 216/1/3
f 223/3/3 216/3/3 222/3/3
f 224/5/3 218/5/3 217/5/3
f 224/1/3 217/1/3 223/1/3
f 225/7/3 219/7/3 218/7/3
f 225/5/3 218/5/3 224/5/3
f 226/3/3 221/3/3 213/3/3
f 226/6/3 222/6/3 221/6/3
f 227/3/3 223/3/3 222/3/3
f 227/6/3 222/6/3 226/6/3
f 228/3/3 226/3/3 213/3/3
f 228/3/3 227/3/3 226/3/3
f 229/3/3 227/3/3 228/3/3
f 230/4/3 229/4/3 228/4/3
f 231/3/3 227/3/3 229/3/3
f 231/4/3 229/4/3 230/4/3
f 232/3/3 231/3/3 230/3/3
f 232/3/3 227/3/3 231/3/3
f 233/3/3 223/3/3 227/3/3
f 233/3/3 227/3/3 232/3/3
f 234/3/3 232/3/3 230/3/3
f 234/6/3 233/6/3 232/6/3
f 235/3/3 223/3/3 233/3/3
f 235/6/3 233/6/3 234/6/3
f 236/7/3 224/7/3 223/7/3
f 236/3/3 223/3/3 235/3/3
f 236/7/3 225/7/3 224/7/3
f 237/7/3 225/7/3 236/7/3
f 238/7/3 219/7/3 225/7/3
f 238/7/3 225/7/3 237/7/3
f 239/3/3 234/3/3 230/3/3
f 240/2/3 235/2/3 234/2/3
f 240/3/3 234/3/3 239/3/3
f 241/3/3 236/3/3 235/3/3
f 241/2/3 235/2/3 240/2/3
f 242/1/3 237/1/3 236/1/3
f 242/3/3 236/3/3 241/3/3
f 243/5/3 238/5/3 237/5/3
f 243/1/3 237/1/3 242/1/3
f 244/7/3 219/7/3 238/7/3
f 244/5/3 238/5/3 243/5/3
f 245/3/3 220/3/3 219/3/3
f 245/7/3 219/7/3 244/7/3
f 246/3/3 220/3/3 245/3/3
f 249/5/3 248/5/3 247/5/3
f 250/5/3 248/5/3 249/5/3
f 253/8/3 252/8/3 251/8/3
f 254/8/3 253/8/3 251/8/3
f 255/8/3 253/8/3 254/8/3
f 258/8/3 257/8/3 256/8/3
f 259/8/3 258/8/3 256/8/3
f 260/8/3 258/8/3 259/8/3
f 263/8/3 262/8/3 261/8/3
f 264/8/3 262/8/3 263/8/3
f 267/8/3 266/8/3 265/8/3
f 268/8/3 266/8/3 267/8/3
f 271/8/3 270/8/3 269/8/3
f 272/8/3 271/8/3 269/8/3
f 273/8/3 271/8/3 272/8/3
f 276/8/3 275/8/3 274/8/3
f 277/8/3 276/8/3 274/8/3
f 278/8/3 276/8/3 277/8/3
f 281/8/3 280/8/3 279/8/3
f 282/8/3 280/8/3 281/8/3
f 285/8/3 284/8/3 283/8/3
f 286/8/3 284/8/3 285/8/3
f 287/8/4 288/8/4 289/8/4
f 289/8/4 288/8/4 290/8/4
f 291/8/4 292/8/4 293/8/4
f 293/8/4 292/8/4 294/8/4
f 295/8/4 296/8/4 297/8/4
f 295/8/4 297/8/4 298/8/4
f 298/8/4 297/8/4 299/8/4
f 300/8/4 301/8/4 302/8/4
f 300/8/4 302/8/4 303/8/4
f 303/8/4 302/8/4 304/8/4
f 305/5/4 306/5/4 307/5/4
f 307/5/4 306/5/4 308/5/4
f 309/8/4 310/8/4 311/8/4
f 311/8/4 310/8/4 312/8/4
f 313/8/4 314/8/4 315/8/4
f 315/8/4 314/8/4 316/8/4
f 317/8/4 318/8/4 319/8/4
f 317/8/4 319/8/4 320/8/4
f 320/8/4 319/8/4 321/8/4
f 322/8/4 323/8/4 324/8/4
f 322/8/4 324/8/4 325/8/4
f 325/8/4 324/8/4 326/8/4
f 327/3/4 328/3/4 333/3/4
f 328/2/4 329/2/4 333/2/4
f 329/1/4 330/1/4 334/1/4
f 333/2/4 329/2/4 334/2/4
f 330/5/4 331/5/4 335/5/4
f 331/3/4 332/3/4 336/3/4
f 335/5/4 331/5/4 336/5/4
f 327/3/4 333/3/4 337/3/4
f 333/6/4 334/6/4 337/6/4
f 334/1/4 330/1/4 338/1/4
f 337/6/4 334/6/4 338/6/4
f 327/3/4 337/3/4 339/3/4
f 337/3/4 338/3/4 339/3/4
f 339/3/4 338/3/4 340/3/4
f 339/4/4 340/4/4 341/4/4
f 340/3/4 338/3/4 342/3/4
f 341/4/4 340/4/4 342/4/4
f 341/3/4 342/3/4 343/3/4
f 342/3/4 338/3/4 343/3/4
f 338/1/4 330/1/4 344/1/4
f 343/3/4 338/3/4 344/3/4
f 341/3/4 343/3/4 345/3/4
f 343/6/4 344/6/4 345/6/4
f 344/1/4 330/1/4 346/1/4
f 345/6/4 344/6/4 346/6/4
f 330/5/4 335/5/4 347/5/4
f 335/1/4 336/1/4 347/1/4
f 336/3/4 332/3/4 348/3/4
f 347/1/4 336/1/4 348/1/4
f 341/3/4 345/3/4 349/3/4
f 345/2/4 346/2/4 350/2/4
f 349/3/4 345/3/4 350/3/4
f 346/1/4 330/1/4 351/1/4
f 350/2/4 346/2/4 351/2/4
f 330/5/4 347/5/4 352/5/4
f 351/1/4 330/1/4 352/1/4
f 347/5/4 348/5/4 352/5/4
f 348/3/4 332/3/4 353/3/4
f 352/5/4 348/5/4 353/5/4
f 353/3/4 332/3/4 354/3/4
f 359/8/5 356/8/5 355/8/5
f 360/8/5 356/8/5 359/8/5
f 361/8/5 358/8/5 357/8/5
f 362/8/5 358/8/5 361/8/5
f 367/8/5 364/8/5 363/8/5
f 368/8/5 364/8/5 367/8/5
f 369/8/5 366/8/5 365/8/5
f 370/8/5 366/8/5 369/8/5
f 375/8/5 372/8/5 371/8/5
f 376/8/5 372/8/5 375/8/5
f 377/8/5 374/8/5 373/8/5
f 378/8/5 374/8/5 377/8/5
f 383/8/5 380/8/5 379/8/5
f 384/8/5 380/8/5 383/8/5
f 385/8/5 382/8/5 381/8/5
f 386/8/5 382/8/5 385/8/5
f 391/8/5 388/8/5 387/8/5
f 392/8/5 388/8/5 391/8/5
f 393/8/5 390/8/5 389/8/5
f 394/8/5 390/8/5 393/8/5
f 399/8/5 396/8/5 395/8/5
f 400/8/5 396/8/5 399/8/5
f 401/8/5 398/8/5 397/8/5
f 402/8/5 398/8/5 401/8/5
f 407/3/5 404/3/5 403/3/5
f 408/4/5 405/4/5 404/4/5
f 408/3/5 404/3/5 407/3/5
f 409/3/5 406/3/5 405/3/5
f 409/4/5 405/4/5 408/4/5
f 410/3/5 406/3/5 409/3/5
f 411/3/5 407/3/5 403/3/5
f 412/6/5 408/6/5 407/6/5
f 412/3/5 407/3/5 411/3/5
f 412/6/5 409/6/5 408/6/5
f 412/6/5 410/6/5 409/6/5
f 413/6/5 410/6/5 412/6/5
f 414/6/5 410/6/5 413/6/5
f 415/3/5 406/3/5 410/3/5
f 415/6/5 410/6/5 414/6/5
f 416/3/5 406/3/5 415/3/5
f 417/6/5 414/6/5 413/6/5
f 418/6/5 414/6/5 417/6/5
f 419/6/5 418/6/5 417/6/5
f 420/6/5 418/6/5 419/6/5
f 423/6/5 420/6/5 419/6/5
f 424/6/5 420/6/5 423/6/5
f 427/3/5 422/3/5 421/3/5
f 428/6/5 424/6/5 423/6/5
f 428/3/5 422/3/5 427/3/5
f 428/6/5 423/6/5 422/6/5
f 428/6/5 425/6/5 424/6/5
f 429/6/5 425/6/5 428/6/5
f 430/6/5 425/6/5 429/6/5
f 431/3/5 426/3/5 425/3/5
f 431/6/5 425/6/5 430/6/5
f 432/3/5 426/3/5 431/3/5
f 433/6/5 430/6/5 429/6/5
f 434/6/5 430/6/5 433/6/5
f 435/6/5 434/6/5 433/6/5
f 436/6/5 434/6/5 435/6/5
f 439/6/5 436/6/5 435/6/5
f 440/6/5 436/6/5 439/6/5
f 443/6/5 440/6/5 439/6/5
f 443/3/5 438/3/5 437/3/5
f 443/6/5 441/6/5 440/6/5
f 443/6/5 439/6/5 438/6/5
f 444/6/5 441/6/5 443/6/5
f 445/6/5 441/6/5 444/6/5
f 446/3/5 442/3/5 441/3/5
f 446/6/5 441/6/5 445/6/5
f 447/3/5 443/3/5 437/3/5
f 447/3/5 444/3/5 443/3/5
f 448/4/5 445/4/5 444/4/5
f 448/3/5 444/3/5 447/3/5
f 449/3/5 446/3/5 445/3/5
f 449/4/5 445/4/5 448/4/5
f 450/3/5 442/3/5 446/3/5
f 450/3/5 446/3/5 449/3/5
f 451/3/6 452/3/6 453/3/6
f 453/3/6 452/3/6 454/3/6
f 451/3/6 453/3/6 455/3/6
f 454/3/6 452/3/6 456/3/6
f 451/3/6 455/3/6 457/3/6
f 455/3/6 456/3/6 457/3/6
f 456/3/6 452/3/6 458/3/6
f 457/3/6 456/3/6 458/3/6
f 459/5/6 460/5/6 461/5/6
f 461/5/6 460/5/6 462/5/6
