# MagicaVoxel @ Ephtracy

# group
o 

# material
mtllib Bus_red.mtl
usemtl palette

# normals
vn -1 0 0
vn 1 0 0
vn 0 0 1
vn 0 0 -1
vn 0 -1 0
vn 0 1 0

# texcoords
vt 0.0175781 0.5
vt 0.0917969 0.5
vt 0.845703 0.5
vt 0.958984 0.5
vt 0.962891 0.5
vt 0.974609 0.5
vt 0.986328 0.5
vt 0.994141 0.5

# verts
v -0.4 -0.2 0.1
v -0.4 -0.2 -0.1
v -0.4 -0.2 -1
v -0.4 -0.2 -1.2
v -0.4 -0.1 0.2
v -0.4 -0.1 0.1
v -0.4 -0.1 -0.1
v -0.4 -0.1 -0.2
v -0.4 -0.1 -0.9
v -0.4 -0.1 -1
v -0.4 -0.1 -1.2
v -0.4 -0.1 -1.3
v -0.4 0 0.7
v -0.4 0 0.2
v -0.4 0 -0.2
v -0.4 0 -0.9
v -0.4 0 -1.3
v -0.4 0 -1.8
v -0.4 0.1 0.2
v -0.4 0.1 0.1
v -0.4 0.1 -0.1
v -0.4 0.1 -0.2
v -0.4 0.1 -0.9
v -0.4 0.1 -1
v -0.4 0.1 -1.2
v -0.4 0.1 -1.3
v -0.4 0.2 0.1
v -0.4 0.2 -0.1
v -0.4 0.2 -1
v -0.4 0.2 -1.2
v -0.4 0.3 0.7
v -0.4 0.3 -1.8
v -0.4 0.4 0.6
v -0.4 0.4 0.3
v -0.4 0.4 0.2
v -0.4 0.4 -0.1
v -0.4 0.4 -0.2
v -0.4 0.4 -0.5
v -0.4 0.4 -0.6
v -0.4 0.4 -0.9
v -0.4 0.4 -1
v -0.4 0.4 -1.3
v -0.4 0.4 -1.4
v -0.4 0.4 -1.7
v -0.4 0.7 0.6
v -0.4 0.7 0.3
v -0.4 0.7 0.2
v -0.4 0.7 -0.1
v -0.4 0.7 -0.2
v -0.4 0.7 -0.5
v -0.4 0.7 -0.6
v -0.4 0.7 -0.9
v -0.4 0.7 -1
v -0.4 0.7 -1.3
v -0.4 0.7 -1.4
v -0.4 0.7 -1.7
v -0.4 0.8 0.7
v -0.4 0.8 -1.8
v -0.4 0.9 0.7
v -0.4 0.9 -1.8
v -0.3 0.9 0.6
v -0.3 0.9 -0.7
v -0.3 1 0.6
v -0.3 1 -0.7
v 0.4 -0.2 0.1
v 0.4 -0.2 -0.1
v 0.4 -0.2 -1
v 0.4 -0.2 -1.2
v 0.4 -0.1 0.2
v 0.4 -0.1 0.1
v 0.4 -0.1 -0.1
v 0.4 -0.1 -0.2
v 0.4 -0.1 -0.9
v 0.4 -0.1 -1
v 0.4 -0.1 -1.2
v 0.4 -0.1 -1.3
v 0.4 0 0.2
v 0.4 0 0.1
v 0.4 0 -0.1
v 0.4 0 -0.2
v 0.4 0 -0.9
v 0.4 0 -1
v 0.4 0 -1.2
v 0.4 0 -1.3
v -0.2 -0.2 0.1
v -0.2 -0.2 -0.1
v -0.2 -0.2 -1
v -0.2 -0.2 -1.2
v -0.2 -0.1 0.2
v -0.2 -0.1 0.1
v -0.2 -0.1 -0.1
v -0.2 -0.1 -0.2
v -0.2 -0.1 -0.9
v -0.2 -0.1 -1
v -0.2 -0.1 -1.2
v -0.2 -0.1 -1.3
v -0.2 0 0.2
v -0.2 0 0.1
v -0.2 0 -0.1
v -0.2 0 -0.2
v -0.2 0 -0.9
v -0.2 0 -1
v -0.2 0 -1.2
v -0.2 0 -1.3
v 0.5 0.9 0.6
v 0.5 0.9 -0.7
v 0.5 1 0.6
v 0.5 1 -0.7
v 0.6 -0.2 0.1
v 0.6 -0.2 -0.1
v 0.6 -0.2 -1
v 0.6 -0.2 -1.2
v 0.6 -0.1 0.2
v 0.6 -0.1 0.1
v 0.6 -0.1 -0.1
v 0.6 -0.1 -0.2
v 0.6 -0.1 -0.9
v 0.6 -0.1 -1
v 0.6 -0.1 -1.2
v 0.6 -0.1 -1.3
v 0.6 0 0.7
v 0.6 0 0.2
v 0.6 0 -0.2
v 0.6 0 -0.9
v 0.6 0 -1.3
v 0.6 0 -1.8
v 0.6 0.1 0.6
v 0.6 0.1 0.2
v 0.6 0.1 0.1
v 0.6 0.1 -0.1
v 0.6 0.1 -0.2
v 0.6 0.1 -0.9
v 0.6 0.1 -1
v 0.6 0.1 -1.2
v 0.6 0.1 -1.3
v 0.6 0.2 0.5
v 0.6 0.2 0.3
v 0.6 0.2 0.1
v 0.6 0.2 -0.1
v 0.6 0.2 -1
v 0.6 0.2 -1.2
v 0.6 0.3 0.7
v 0.6 0.3 0.6
v 0.6 0.3 0.2
v 0.6 0.3 -1.8
v 0.6 0.4 0.2
v 0.6 0.4 -0.1
v 0.6 0.4 -0.2
v 0.6 0.4 -0.5
v 0.6 0.4 -0.6
v 0.6 0.4 -0.9
v 0.6 0.4 -1
v 0.6 0.4 -1.3
v 0.6 0.4 -1.4
v 0.6 0.4 -1.7
v 0.6 0.7 0.5
v 0.6 0.7 0.3
v 0.6 0.7 0.2
v 0.6 0.7 -0.1
v 0.6 0.7 -0.2
v 0.6 0.7 -0.5
v 0.6 0.7 -0.6
v 0.6 0.7 -0.9
v 0.6 0.7 -1
v 0.6 0.7 -1.3
v 0.6 0.7 -1.4
v 0.6 0.7 -1.7
v 0.6 0.8 0.7
v 0.6 0.8 -1.8
v 0.6 0.9 0.7
v 0.6 0.9 -1.8
v -0.4 0 0.7
v -0.4 0.3 0.7
v -0.4 0.8 0.7
v -0.4 0.9 0.7
v -0.3 0.1 0.7
v -0.3 0.2 0.7
v -0.3 0.3 0.7
v -0.3 0.7 0.7
v -0.1 0.1 0.7
v -0.1 0.2 0.7
v 0.3 0.1 0.7
v 0.3 0.2 0.7
v 0.5 0.1 0.7
v 0.5 0.2 0.7
v 0.5 0.3 0.7
v 0.5 0.7 0.7
v 0.6 0 0.7
v 0.6 0.3 0.7
v 0.6 0.8 0.7
v 0.6 0.9 0.7
v -0.3 0.9 0.6
v -0.3 1 0.6
v 0.5 0.9 0.6
v 0.5 1 0.6
v -0.4 -0.1 0.2
v -0.4 0 0.2
v -0.3 0 0.2
v -0.2 -0.1 0.2
v -0.2 0 0.2
v 0.4 -0.1 0.2
v 0.4 0 0.2
v 0.5 0 0.2
v 0.6 -0.1 0.2
v 0.6 0 0.2
v -0.4 -0.2 0.1
v -0.4 -0.1 0.1
v -0.2 -0.2 0.1
v -0.2 -0.1 0.1
v 0.4 -0.2 0.1
v 0.4 -0.1 0.1
v 0.6 -0.2 0.1
v 0.6 -0.1 0.1
v -0.4 -0.1 -0.9
v -0.4 0 -0.9
v -0.3 0 -0.9
v -0.2 -0.1 -0.9
v -0.2 0 -0.9
v 0.4 -0.1 -0.9
v 0.4 0 -0.9
v 0.5 0 -0.9
v 0.6 -0.1 -0.9
v 0.6 0 -0.9
v -0.4 -0.2 -1
v -0.4 -0.1 -1
v -0.2 -0.2 -1
v -0.2 -0.1 -1
v 0.4 -0.2 -1
v 0.4 -0.1 -1
v 0.6 -0.2 -1
v 0.6 -0.1 -1
v -0.4 -0.2 -0.1
v -0.4 -0.1 -0.1
v -0.2 -0.2 -0.1
v -0.2 -0.1 -0.1
v 0.4 -0.2 -0.1
v 0.4 -0.1 -0.1
v 0.6 -0.2 -0.1
v 0.6 -0.1 -0.1
v -0.4 -0.1 -0.2
v -0.4 0 -0.2
v -0.3 0 -0.2
v -0.2 -0.1 -0.2
v -0.2 0 -0.2
v 0.4 -0.1 -0.2
v 0.4 0 -0.2
v 0.5 0 -0.2
v 0.6 -0.1 -0.2
v 0.6 0 -0.2
v -0.3 0.9 -0.7
v -0.3 1 -0.7
v 0.5 0.9 -0.7
v 0.5 1 -0.7
v -0.4 -0.2 -1.2
v -0.4 -0.1 -1.2
v -0.2 -0.2 -1.2
v -0.2 -0.1 -1.2
v 0.4 -0.2 -1.2
v 0.4 -0.1 -1.2
v 0.6 -0.2 -1.2
v 0.6 -0.1 -1.2
v -0.4 -0.1 -1.3
v -0.4 0 -1.3
v -0.3 0 -1.3
v -0.2 -0.1 -1.3
v -0.2 0 -1.3
v 0.4 -0.1 -1.3
v 0.4 0 -1.3
v 0.5 0 -1.3
v 0.6 -0.1 -1.3
v 0.6 0 -1.3
v -0.4 0 -1.8
v -0.4 0.3 -1.8
v -0.4 0.8 -1.8
v -0.4 0.9 -1.8
v -0.3 0.1 -1.8
v -0.3 0.2 -1.8
v -0.3 0.4 -1.8
v -0.3 0.7 -1.8
v -0.1 0.1 -1.8
v -0.1 0.2 -1.8
v 0.3 0.1 -1.8
v 0.3 0.2 -1.8
v 0.5 0.1 -1.8
v 0.5 0.2 -1.8
v 0.5 0.4 -1.8
v 0.5 0.7 -1.8
v 0.6 0 -1.8
v 0.6 0.3 -1.8
v 0.6 0.8 -1.8
v 0.6 0.9 -1.8
v -0.4 -0.2 0.1
v -0.2 -0.2 0.1
v 0.4 -0.2 0.1
v 0.6 -0.2 0.1
v -0.4 -0.2 -0.1
v -0.2 -0.2 -0.1
v 0.4 -0.2 -0.1
v 0.6 -0.2 -0.1
v -0.4 -0.2 -1
v -0.2 -0.2 -1
v 0.4 -0.2 -1
v 0.6 -0.2 -1
v -0.4 -0.2 -1.2
v -0.2 -0.2 -1.2
v 0.4 -0.2 -1.2
v 0.6 -0.2 -1.2
v -0.4 -0.1 0.2
v -0.2 -0.1 0.2
v 0.4 -0.1 0.2
v 0.6 -0.1 0.2
v -0.4 -0.1 0.1
v -0.2 -0.1 0.1
v 0.4 -0.1 0.1
v 0.6 -0.1 0.1
v -0.4 -0.1 -0.1
v -0.2 -0.1 -0.1
v 0.4 -0.1 -0.1
v 0.6 -0.1 -0.1
v -0.4 -0.1 -0.2
v -0.2 -0.1 -0.2
v 0.4 -0.1 -0.2
v 0.6 -0.1 -0.2
v -0.4 -0.1 -0.9
v -0.2 -0.1 -0.9
v 0.4 -0.1 -0.9
v 0.6 -0.1 -0.9
v -0.4 -0.1 -1
v -0.2 -0.1 -1
v 0.4 -0.1 -1
v 0.6 -0.1 -1
v -0.4 -0.1 -1.2
v -0.2 -0.1 -1.2
v 0.4 -0.1 -1.2
v 0.6 -0.1 -1.2
v -0.4 -0.1 -1.3
v -0.2 -0.1 -1.3
v 0.4 -0.1 -1.3
v 0.6 -0.1 -1.3
v -0.4 0 0.7
v 0.6 0 0.7
v -0.3 0 0.6
v 0.5 0 0.6
v -0.4 0 0.2
v -0.3 0 0.2
v -0.2 0 0.2
v 0.4 0 0.2
v 0.5 0 0.2
v 0.6 0 0.2
v -0.2 0 0.1
v 0.4 0 0.1
v -0.2 0 -0.1
v 0.4 0 -0.1
v -0.4 0 -0.2
v -0.3 0 -0.2
v -0.2 0 -0.2
v 0.4 0 -0.2
v 0.5 0 -0.2
v 0.6 0 -0.2
v -0.4 0 -0.9
v -0.3 0 -0.9
v -0.2 0 -0.9
v 0.4 0 -0.9
v 0.5 0 -0.9
v 0.6 0 -0.9
v -0.2 0 -1
v 0.4 0 -1
v -0.2 0 -1.2
v 0.4 0 -1.2
v -0.4 0 -1.3
v -0.3 0 -1.3
v -0.2 0 -1.3
v 0.4 0 -1.3
v 0.5 0 -1.3
v 0.6 0 -1.3
v -0.3 0 -1.7
v 0.5 0 -1.7
v -0.4 0 -1.8
v 0.6 0 -1.8
v -0.4 0.9 0.7
v 0.6 0.9 0.7
v -0.3 0.9 0.6
v 0.5 0.9 0.6
v -0.3 0.9 -0.7
v 0.5 0.9 -0.7
v -0.4 0.9 -1.8
v 0.6 0.9 -1.8
v -0.3 1 0.6
v 0.5 1 0.6
v -0.3 1 -0.7
v 0.5 1 -0.7

# faces
f 6/8/1 2/8/1 1/8/1
f 7/8/1 2/8/1 6/8/1
f 10/8/1 4/8/1 3/8/1
f 11/8/1 4/8/1 10/8/1
f 14/8/1 6/8/1 5/8/1
f 15/8/1 8/8/1 7/8/1
f 16/8/1 10/8/1 9/8/1
f 17/8/1 12/8/1 11/8/1
f 19/3/1 14/3/1 13/3/1
f 19/8/1 6/8/1 14/8/1
f 20/6/1 7/6/1 6/6/1
f 20/8/1 6/8/1 19/8/1
f 21/8/1 15/8/1 7/8/1
f 21/6/1 7/6/1 20/6/1
f 22/3/1 16/3/1 15/3/1
f 22/8/1 15/8/1 21/8/1
f 23/8/1 10/8/1 16/8/1
f 23/3/1 16/3/1 22/3/1
f 24/6/1 11/6/1 10/6/1
f 24/8/1 10/8/1 23/8/1
f 25/8/1 17/8/1 11/8/1
f 25/6/1 11/6/1 24/6/1
f 26/3/1 18/3/1 17/3/1
f 26/8/1 17/8/1 25/8/1
f 27/8/1 21/8/1 20/8/1
f 27/3/1 20/3/1 19/3/1
f 28/3/1 23/3/1 22/3/1
f 28/8/1 21/8/1 27/8/1
f 28/3/1 24/3/1 23/3/1
f 28/3/1 22/3/1 21/3/1
f 29/8/1 25/8/1 24/8/1
f 29/3/1 24/3/1 28/3/1
f 30/3/1 26/3/1 25/3/1
f 30/8/1 25/8/1 29/8/1
f 31/3/1 28/3/1 27/3/1
f 31/3/1 19/3/1 13/3/1
f 31/3/1 30/3/1 29/3/1
f 31/3/1 29/3/1 28/3/1
f 31/3/1 27/3/1 19/3/1
f 32/3/1 26/3/1 30/3/1
f 32/3/1 30/3/1 31/3/1
f 32/3/1 18/3/1 26/3/1
f 33/7/1 32/7/1 31/7/1
f 34/7/1 32/7/1 33/7/1
f 35/7/1 32/7/1 34/7/1
f 36/7/1 32/7/1 35/7/1
f 37/7/1 32/7/1 36/7/1
f 38/7/1 32/7/1 37/7/1
f 39/7/1 32/7/1 38/7/1
f 40/7/1 32/7/1 39/7/1
f 41/7/1 32/7/1 40/7/1
f 42/7/1 32/7/1 41/7/1
f 43/7/1 32/7/1 42/7/1
f 44/7/1 32/7/1 43/7/1
f 45/7/1 33/7/1 31/7/1
f 45/6/1 34/6/1 33/6/1
f 46/7/1 35/7/1 34/7/1
f 46/6/1 34/6/1 45/6/1
f 47/6/1 36/6/1 35/6/1
f 47/7/1 35/7/1 46/7/1
f 48/7/1 37/7/1 36/7/1
f 48/6/1 36/6/1 47/6/1
f 49/6/1 38/6/1 37/6/1
f 49/7/1 37/7/1 48/7/1
f 50/7/1 39/7/1 38/7/1
f 50/6/1 38/6/1 49/6/1
f 51/6/1 40/6/1 39/6/1
f 51/7/1 39/7/1 50/7/1
f 52/7/1 41/7/1 40/7/1
f 52/6/1 40/6/1 51/6/1
f 53/6/1 42/6/1 41/6/1
f 53/7/1 41/7/1 52/7/1
f 54/7/1 43/7/1 42/7/1
f 54/6/1 42/6/1 53/6/1
f 55/6/1 44/6/1 43/6/1
f 55/7/1 43/7/1 54/7/1
f 56/7/1 32/7/1 44/7/1
f 56/6/1 44/6/1 55/6/1
f 57/7/1 55/7/1 54/7/1
f 57/7/1 54/7/1 53/7/1
f 57/7/1 56/7/1 55/7/1
f 57/7/1 53/7/1 52/7/1
f 57/7/1 52/7/1 51/7/1
f 57/7/1 51/7/1 50/7/1
f 57/7/1 50/7/1 49/7/1
f 57/7/1 49/7/1 48/7/1
f 57/7/1 48/7/1 47/7/1
f 57/7/1 47/7/1 46/7/1
f 57/7/1 46/7/1 45/7/1
f 57/7/1 45/7/1 31/7/1
f 58/7/1 32/7/1 56/7/1
f 58/7/1 56/7/1 57/7/1
f 59/3/1 58/3/1 57/3/1
f 60/3/1 58/3/1 59/3/1
f 63/5/1 62/5/1 61/5/1
f 64/5/1 62/5/1 63/5/1
f 70/8/1 66/8/1 65/8/1
f 71/8/1 66/8/1 70/8/1
f 74/8/1 68/8/1 67/8/1
f 75/8/1 68/8/1 74/8/1
f 77/8/1 70/8/1 69/8/1
f 78/6/1 71/6/1 70/6/1
f 78/8/1 70/8/1 77/8/1
f 79/8/1 72/8/1 71/8/1
f 79/6/1 71/6/1 78/6/1
f 80/8/1 72/8/1 79/8/1
f 81/8/1 74/8/1 73/8/1
f 82/6/1 75/6/1 74/6/1
f 82/8/1 74/8/1 81/8/1
f 83/8/1 76/8/1 75/8/1
f 83/6/1 75/6/1 82/6/1
f 84/8/1 76/8/1 83/8/1
f 85/8/2 86/8/2 90/8/2
f 90/8/2 86/8/2 91/8/2
f 87/8/2 88/8/2 94/8/2
f 94/8/2 88/8/2 95/8/2
f 89/8/2 90/8/2 97/8/2
f 90/6/2 91/6/2 98/6/2
f 97/8/2 90/8/2 98/8/2
f 91/8/2 92/8/2 99/8/2
f 98/6/2 91/6/2 99/6/2
f 99/8/2 92/8/2 100/8/2
f 93/8/2 94/8/2 101/8/2
f 94/6/2 95/6/2 102/6/2
f 101/8/2 94/8/2 102/8/2
f 95/8/2 96/8/2 103/8/2
f 102/6/2 95/6/2 103/6/2
f 103/8/2 96/8/2 104/8/2
f 105/5/2 106/5/2 107/5/2
f 107/5/2 106/5/2 108/5/2
f 109/8/2 110/8/2 114/8/2
f 114/8/2 110/8/2 115/8/2
f 111/8/2 112/8/2 118/8/2
f 118/8/2 112/8/2 119/8/2
f 113/8/2 114/8/2 122/8/2
f 115/8/2 116/8/2 123/8/2
f 117/8/2 118/8/2 124/8/2
f 119/8/2 120/8/2 125/8/2
f 121/3/2 122/3/2 127/3/2
f 122/8/2 114/8/2 128/8/2
f 127/3/2 122/3/2 128/3/2
f 114/6/2 115/6/2 129/6/2
f 128/8/2 114/8/2 129/8/2
f 115/8/2 123/8/2 130/8/2
f 129/6/2 115/6/2 130/6/2
f 123/3/2 124/3/2 131/3/2
f 130/8/2 123/8/2 131/8/2
f 124/8/2 118/8/2 132/8/2
f 131/3/2 124/3/2 132/3/2
f 118/6/2 119/6/2 133/6/2
f 132/8/2 118/8/2 133/8/2
f 119/8/2 125/8/2 134/8/2
f 133/6/2 119/6/2 134/6/2
f 125/3/2 126/3/2 135/3/2
f 134/8/2 125/8/2 135/8/2
f 127/7/2 128/7/2 136/7/2
f 136/7/2 128/7/2 137/7/2
f 129/8/2 130/8/2 138/8/2
f 128/3/2 129/3/2 138/3/2
f 131/3/2 132/3/2 139/3/2
f 138/8/2 130/8/2 139/8/2
f 130/3/2 131/3/2 139/3/2
f 132/3/2 133/3/2 139/3/2
f 133/8/2 134/8/2 140/8/2
f 139/3/2 133/3/2 140/3/2
f 134/3/2 135/3/2 141/3/2
f 140/8/2 134/8/2 141/8/2
f 121/3/2 127/3/2 142/3/2
f 127/7/2 136/7/2 143/7/2
f 142/3/2 127/3/2 143/3/2
f 138/3/2 139/3/2 144/3/2
f 137/7/2 128/7/2 144/7/2
f 128/3/2 138/3/2 144/3/2
f 140/3/2 141/3/2 144/3/2
f 139/3/2 140/3/2 144/3/2
f 135/3/2 126/3/2 145/3/2
f 144/3/2 141/3/2 145/3/2
f 141/3/2 135/3/2 145/3/2
f 137/7/2 144/7/2 146/7/2
f 144/7/2 145/7/2 146/7/2
f 146/7/2 145/7/2 147/7/2
f 147/7/2 145/7/2 148/7/2
f 148/7/2 145/7/2 149/7/2
f 149/7/2 145/7/2 150/7/2
f 150/7/2 145/7/2 151/7/2
f 151/7/2 145/7/2 152/7/2
f 152/7/2 145/7/2 153/7/2
f 153/7/2 145/7/2 154/7/2
f 154/7/2 145/7/2 155/7/2
f 143/7/2 136/7/2 156/7/2
f 142/7/2 143/7/2 156/7/2
f 136/6/2 137/6/2 156/6/2
f 137/7/2 146/7/2 157/7/2
f 156/6/2 137/6/2 157/6/2
f 146/6/2 147/6/2 158/6/2
f 157/7/2 146/7/2 158/7/2
f 147/7/2 148/7/2 159/7/2
f 158/6/2 147/6/2 159/6/2
f 148/6/2 149/6/2 160/6/2
f 159/7/2 148/7/2 160/7/2
f 149/7/2 150/7/2 161/7/2
f 160/6/2 149/6/2 161/6/2
f 150/6/2 151/6/2 162/6/2
f 161/7/2 150/7/2 162/7/2
f 151/7/2 152/7/2 163/7/2
f 162/6/2 151/6/2 163/6/2
f 152/6/2 153/6/2 164/6/2
f 163/7/2 152/7/2 164/7/2
f 153/7/2 154/7/2 165/7/2
f 164/6/2 153/6/2 165/6/2
f 154/6/2 155/6/2 166/6/2
f 165/7/2 154/7/2 166/7/2
f 155/7/2 145/7/2 167/7/2
f 166/6/2 155/6/2 167/6/2
f 165/7/2 166/7/2 168/7/2
f 164/7/2 165/7/2 168/7/2
f 166/7/2 167/7/2 168/7/2
f 162/7/2 163/7/2 168/7/2
f 161/7/2 162/7/2 168/7/2
f 160/7/2 161/7/2 168/7/2
f 159/7/2 160/7/2 168/7/2
f 158/7/2 159/7/2 168/7/2
f 157/7/2 158/7/2 168/7/2
f 156/7/2 157/7/2 168/7/2
f 142/7/2 156/7/2 168/7/2
f 163/7/2 164/7/2 168/7/2
f 167/7/2 145/7/2 169/7/2
f 168/7/2 167/7/2 169/7/2
f 168/3/2 169/3/2 170/3/2
f 170/3/2 169/3/2 171/3/2
f 176/3/3 173/3/3 172/3/3
f 177/3/3 173/3/3 176/3/3
f 178/7/3 174/7/3 173/7/3
f 178/3/3 173/3/3 177/3/3
f 179/7/3 174/7/3 178/7/3
f 180/1/3 177/1/3 176/1/3
f 180/3/3 176/3/3 172/3/3
f 181/3/3 178/3/3 177/3/3
f 181/1/3 177/1/3 180/1/3
f 182/3/3 180/3/3 172/3/3
f 182/3/3 181/3/3 180/3/3
f 183/3/3 178/3/3 181/3/3
f 183/3/3 181/3/3 182/3/3
f 184/3/3 182/3/3 172/3/3
f 184/1/3 183/1/3 182/1/3
f 185/3/3 178/3/3 183/3/3
f 185/1/3 183/1/3 184/1/3
f 186/6/3 179/6/3 178/6/3
f 186/3/3 178/3/3 185/3/3
f 187/7/3 174/7/3 179/7/3
f 187/6/3 179/6/3 186/6/3
f 188/3/3 186/3/3 185/3/3
f 188/3/3 185/3/3 184/3/3
f 188/3/3 184/3/3 172/3/3
f 189/7/3 187/7/3 186/7/3
f 189/3/3 186/3/3 188/3/3
f 190/3/3 175/3/3 174/3/3
f 190/7/3 187/7/3 189/7/3
f 190/7/3 174/7/3 187/7/3
f 191/3/3 175/3/3 190/3/3
f 194/5/3 193/5/3 192/5/3
f 195/5/3 193/5/3 194/5/3
f 198/8/3 197/8/3 196/8/3
f 199/8/3 198/8/3 196/8/3
f 200/8/3 198/8/3 199/8/3
f 203/8/3 202/8/3 201/8/3
f 204/8/3 203/8/3 201/8/3
f 205/8/3 203/8/3 204/8/3
f 208/8/3 207/8/3 206/8/3
f 209/8/3 207/8/3 208/8/3
f 212/8/3 211/8/3 210/8/3
f 213/8/3 211/8/3 212/8/3
f 216/8/3 215/8/3 214/8/3
f 217/8/3 216/8/3 214/8/3
f 218/8/3 216/8/3 217/8/3
f 221/8/3 220/8/3 219/8/3
f 222/8/3 221/8/3 219/8/3
f 223/8/3 221/8/3 222/8/3
f 226/8/3 225/8/3 224/8/3
f 227/8/3 225/8/3 226/8/3
f 230/8/3 229/8/3 228/8/3
f 231/8/3 229/8/3 230/8/3
f 232/8/4 233/8/4 234/8/4
f 234/8/4 233/8/4 235/8/4
f 236/8/4 237/8/4 238/8/4
f 238/8/4 237/8/4 239/8/4
f 240/8/4 241/8/4 242/8/4
f 240/8/4 242/8/4 243/8/4
f 243/8/4 242/8/4 244/8/4
f 245/8/4 246/8/4 247/8/4
f 245/8/4 247/8/4 248/8/4
f 248/8/4 247/8/4 249/8/4
f 250/5/4 251/5/4 252/5/4
f 252/5/4 251/5/4 253/5/4
f 254/8/4 255/8/4 256/8/4
f 256/8/4 255/8/4 257/8/4
f 258/8/4 259/8/4 260/8/4
f 260/8/4 259/8/4 261/8/4
f 262/8/4 263/8/4 264/8/4
f 262/8/4 264/8/4 265/8/4
f 265/8/4 264/8/4 266/8/4
f 267/8/4 268/8/4 269/8/4
f 267/8/4 269/8/4 270/8/4
f 270/8/4 269/8/4 271/8/4
f 272/3/4 273/3/4 276/3/4
f 276/3/4 273/3/4 277/3/4
f 273/7/4 274/7/4 278/7/4
f 278/7/4 274/7/4 279/7/4
f 272/3/4 276/3/4 280/3/4
f 276/2/4 277/2/4 280/2/4
f 277/3/4 273/3/4 281/3/4
f 280/2/4 277/2/4 281/2/4
f 272/3/4 280/3/4 282/3/4
f 280/3/4 281/3/4 282/3/4
f 281/3/4 273/3/4 283/3/4
f 282/3/4 281/3/4 283/3/4
f 272/3/4 282/3/4 284/3/4
f 282/2/4 283/2/4 284/2/4
f 283/3/4 273/3/4 285/3/4
f 284/2/4 283/2/4 285/2/4
f 278/6/4 279/6/4 286/6/4
f 273/7/4 278/7/4 286/7/4
f 279/7/4 274/7/4 287/7/4
f 286/6/4 279/6/4 287/6/4
f 272/3/4 284/3/4 288/3/4
f 284/3/4 285/3/4 288/3/4
f 273/7/4 286/7/4 289/7/4
f 288/3/4 285/3/4 289/3/4
f 285/3/4 273/3/4 289/3/4
f 286/7/4 287/7/4 289/7/4
f 274/3/4 275/3/4 290/3/4
f 289/7/4 287/7/4 290/7/4
f 287/7/4 274/7/4 290/7/4
f 290/3/4 275/3/4 291/3/4
f 296/8/5 293/8/5 292/8/5
f 297/8/5 293/8/5 296/8/5
f 298/8/5 295/8/5 294/8/5
f 299/8/5 295/8/5 298/8/5
f 304/8/5 301/8/5 300/8/5
f 305/8/5 301/8/5 304/8/5
f 306/8/5 303/8/5 302/8/5
f 307/8/5 303/8/5 306/8/5
f 312/8/5 309/8/5 308/8/5
f 313/8/5 309/8/5 312/8/5
f 314/8/5 311/8/5 310/8/5
f 315/8/5 311/8/5 314/8/5
f 320/8/5 317/8/5 316/8/5
f 321/8/5 317/8/5 320/8/5
f 322/8/5 319/8/5 318/8/5
f 323/8/5 319/8/5 322/8/5
f 328/8/5 325/8/5 324/8/5
f 329/8/5 325/8/5 328/8/5
f 330/8/5 327/8/5 326/8/5
f 331/8/5 327/8/5 330/8/5
f 336/8/5 333/8/5 332/8/5
f 337/8/5 333/8/5 336/8/5
f 338/8/5 335/8/5 334/8/5
f 339/8/5 335/8/5 338/8/5
f 342/3/5 341/3/5 340/3/5
f 343/3/5 341/3/5 342/3/5
f 344/3/5 342/3/5 340/3/5
f 345/6/5 343/6/5 342/6/5
f 345/3/5 342/3/5 344/3/5
f 346/6/5 343/6/5 345/6/5
f 347/6/5 343/6/5 346/6/5
f 348/3/5 341/3/5 343/3/5
f 348/6/5 343/6/5 347/6/5
f 349/3/5 341/3/5 348/3/5
f 350/6/5 347/6/5 346/6/5
f 351/6/5 347/6/5 350/6/5
f 352/6/5 351/6/5 350/6/5
f 353/6/5 351/6/5 352/6/5
f 356/6/5 353/6/5 352/6/5
f 357/6/5 353/6/5 356/6/5
f 360/3/5 355/3/5 354/3/5
f 361/6/5 357/6/5 356/6/5
f 361/3/5 355/3/5 360/3/5
f 361/6/5 356/6/5 355/6/5
f 361/6/5 358/6/5 357/6/5
f 362/6/5 358/6/5 361/6/5
f 363/6/5 358/6/5 362/6/5
f 364/3/5 359/3/5 358/3/5
f 364/6/5 358/6/5 363/6/5
f 365/3/5 359/3/5 364/3/5
f 366/6/5 363/6/5 362/6/5
f 367/6/5 363/6/5 366/6/5
f 368/6/5 367/6/5 366/6/5
f 369/6/5 367/6/5 368/6/5
f 372/6/5 369/6/5 368/6/5
f 373/6/5 369/6/5 372/6/5
f 376/6/5 373/6/5 372/6/5
f 376/3/5 371/3/5 370/3/5
f 376/6/5 374/6/5 373/6/5
f 376/6/5 372/6/5 371/6/5
f 377/3/5 375/3/5 374/3/5
f 377/6/5 374/6/5 376/6/5
f 378/3/5 376/3/5 370/3/5
f 378/3/5 377/3/5 376/3/5
f 379/3/5 375/3/5 377/3/5
f 379/3/5 377/3/5 378/3/5
f 380/3/6 381/3/6 382/3/6
f 382/3/6 381/3/6 383/3/6
f 380/3/6 382/3/6 384/3/6
f 383/3/6 381/3/6 385/3/6
f 380/3/6 384/3/6 386/3/6
f 384/3/6 385/3/6 386/3/6
f 385/3/6 381/3/6 387/3/6
f 386/3/6 385/3/6 387/3/6
f 388/5/6 389/5/6 390/5/6
f 390/5/6 389/5/6 391/5/6
