# MagicaVoxel @ Ephtracy

# group
o 

# material
mtllib canon.mtl
usemtl palette

# normals
vn -1 0 0
vn 1 0 0
vn 0 0 1
vn 0 0 -1
vn 0 -1 0
vn 0 1 0

# texcoords
vt 0.587891 0.5
vt 0.958984 0.5
vt 0.966797 0.5
vt 0.982422 0.5
vt 0.986328 0.5

# verts
v -4.5 1.3 0.3
v -4.5 1.3 -0.3
v -4.5 1.4 0.5
v -4.5 1.4 0.3
v -4.5 1.4 0.2
v -4.5 1.4 -0.2
v -4.5 1.4 -0.3
v -4.5 1.4 -0.5
v -4.5 1.5 0.6
v -4.5 1.5 0.5
v -4.5 1.5 0.4
v -4.5 1.5 0.2
v -4.5 1.5 -0.2
v -4.5 1.5 -0.4
v -4.5 1.5 -0.5
v -4.5 1.5 -0.6
v -4.5 1.6 0.7
v -4.5 1.6 0.6
v -4.5 1.6 0.5
v -4.5 1.6 0.4
v -4.5 1.6 -0.4
v -4.5 1.6 -0.5
v -4.5 1.6 -0.6
v -4.5 1.6 -0.7
v -4.5 1.7 0.8
v -4.5 1.7 0.7
v -4.5 1.7 0.6
v -4.5 1.7 0.5
v -4.5 1.7 -0.5
v -4.5 1.7 -0.6
v -4.5 1.7 -0.7
v -4.5 1.7 -0.8
v -4.5 1.8 0.7
v -4.5 1.8 0.6
v -4.5 1.8 -0.6
v -4.5 1.8 -0.7
v -4.5 1.9 0.9
v -4.5 1.9 0.8
v -4.5 1.9 -0.8
v -4.5 1.9 -0.9
v -4.5 2 0.8
v -4.5 2 0.7
v -4.5 2 -0.7
v -4.5 2 -0.8
v -4.5 2.4 0.8
v -4.5 2.4 0.7
v -4.5 2.4 -0.7
v -4.5 2.4 -0.8
v -4.5 2.5 0.9
v -4.5 2.5 0.8
v -4.5 2.5 -0.8
v -4.5 2.5 -0.9
v -4.5 2.6 0.7
v -4.5 2.6 0.6
v -4.5 2.6 -0.6
v -4.5 2.6 -0.7
v -4.5 2.7 0.8
v -4.5 2.7 0.7
v -4.5 2.7 0.6
v -4.5 2.7 0.5
v -4.5 2.7 -0.5
v -4.5 2.7 -0.6
v -4.5 2.7 -0.7
v -4.5 2.7 -0.8
v -4.5 2.8 0.7
v -4.5 2.8 0.6
v -4.5 2.8 0.5
v -4.5 2.8 0.4
v -4.5 2.8 -0.4
v -4.5 2.8 -0.5
v -4.5 2.8 -0.6
v -4.5 2.8 -0.7
v -4.5 2.9 0.6
v -4.5 2.9 0.5
v -4.5 2.9 0.4
v -4.5 2.9 0.2
v -4.5 2.9 -0.2
v -4.5 2.9 -0.4
v -4.5 2.9 -0.5
v -4.5 2.9 -0.6
v -4.5 3 0.5
v -4.5 3 0.3
v -4.5 3 0.2
v -4.5 3 -0.2
v -4.5 3 -0.3
v -4.5 3 -0.5
v -4.5 3.1 0.3
v -4.5 3.1 -0.3
v -4.2 1.2 0.2
v -4.2 1.2 -0.2
v -4.2 1.3 0.2
v -4.2 1.3 -0.2
v -4.2 1.4 0.2
v -4.2 1.4 -0.2
v -4.2 1.5 0.4
v -4.2 1.5 0.2
v -4.2 1.5 -0.2
v -4.2 1.5 -0.4
v -4.2 1.6 0.5
v -4.2 1.6 0.4
v -4.2 1.6 -0.4
v -4.2 1.6 -0.5
v -4.2 1.7 0.6
v -4.2 1.7 0.5
v -4.2 1.7 -0.5
v -4.2 1.7 -0.6
v -4.2 1.8 0.7
v -4.2 1.8 0.6
v -4.2 1.8 -0.6
v -4.2 1.8 -0.7
v -4.2 2 1
v -4.2 2 0.9
v -4.2 2 0.8
v -4.2 2 0.7
v -4.2 2 -0.7
v -4.2 2 -0.8
v -4.2 2 -0.9
v -4.2 2 -1
v -4.2 2.4 1
v -4.2 2.4 0.9
v -4.2 2.4 0.8
v -4.2 2.4 0.7
v -4.2 2.4 -0.7
v -4.2 2.4 -0.8
v -4.2 2.4 -0.9
v -4.2 2.4 -1
v -4.2 2.6 0.7
v -4.2 2.6 0.6
v -4.2 2.6 -0.6
v -4.2 2.6 -0.7
v -4.2 2.7 0.6
v -4.2 2.7 0.5
v -4.2 2.7 -0.5
v -4.2 2.7 -0.6
v -4.2 2.8 0.5
v -4.2 2.8 0.4
v -4.2 2.8 -0.4
v -4.2 2.8 -0.5
v -4.2 2.9 0.4
v -4.2 2.9 0.2
v -4.2 2.9 -0.2
v -4.2 2.9 -0.4
v -4.2 3 0.2
v -4.2 3 -0.2
v -4.2 3.1 0.2
v -4.2 3.1 -0.2
v -4.2 3.2 0.2
v -4.2 3.2 -0.2
v -3.9 1.1 0.2
v -3.9 1.1 -0.2
v -3.9 1.2 0.2
v -3.9 1.2 -0.2
v -3.9 2 1.1
v -3.9 2 1
v -3.9 2 -1
v -3.9 2 -1.1
v -3.9 2.4 1.1
v -3.9 2.4 1
v -3.9 2.4 -1
v -3.9 2.4 -1.1
v -3.9 3.2 0.2
v -3.9 3.2 -0.2
v -3.9 3.3 0.2
v -3.9 3.3 -0.2
v -3.6 1.1 1.1
v -3.6 1.1 0.2
v -3.6 1.1 -0.2
v -3.6 1.1 -1.1
v -3.6 1.3 0.3
v -3.6 1.3 0.2
v -3.6 1.3 -0.2
v -3.6 1.3 -0.3
v -3.6 1.4 0.5
v -3.6 1.4 0.3
v -3.6 1.4 -0.3
v -3.6 1.4 -0.5
v -3.6 1.5 0.6
v -3.6 1.5 0.5
v -3.6 1.5 -0.5
v -3.6 1.5 -0.6
v -3.6 1.6 0.7
v -3.6 1.6 0.6
v -3.6 1.6 -0.6
v -3.6 1.6 -0.7
v -3.6 1.7 0.8
v -3.6 1.7 0.7
v -3.6 1.7 -0.7
v -3.6 1.7 -0.8
v -3.6 1.9 0.9
v -3.6 1.9 0.8
v -3.6 1.9 -0.8
v -3.6 1.9 -0.9
v -3.6 2 1.1
v -3.6 2 0.9
v -3.6 2 -0.9
v -3.6 2 -1.1
v -3.6 2.4 1.1
v -3.6 2.4 0.9
v -3.6 2.4 -0.9
v -3.6 2.4 -1.1
v -3.6 2.5 0.9
v -3.6 2.5 0.8
v -3.6 2.5 -0.8
v -3.6 2.5 -0.9
v -3.6 2.7 0.8
v -3.6 2.7 0.7
v -3.6 2.7 -0.7
v -3.6 2.7 -0.8
v -3.6 2.8 0.7
v -3.6 2.8 0.6
v -3.6 2.8 -0.6
v -3.6 2.8 -0.7
v -3.6 2.9 0.6
v -3.6 2.9 0.5
v -3.6 2.9 -0.5
v -3.6 2.9 -0.6
v -3.6 3 0.5
v -3.6 3 0.3
v -3.6 3 -0.3
v -3.6 3 -0.5
v -3.6 3.1 0.3
v -3.6 3.1 0.2
v -3.6 3.1 -0.2
v -3.6 3.1 -0.3
v -3.6 3.3 1.1
v -3.6 3.3 0.2
v -3.6 3.3 -0.2
v -3.6 3.3 -1.1
v -0.3 0 0.2
v -0.3 0 -0.2
v -0.3 0.3 0.2
v -0.3 0.3 -0.2
v -0.3 1.1 0.3
v -0.3 1.1 -0.3
v -0.3 1.3 0.3
v -0.3 1.3 -0.3
v -0.2 0.3 0.2
v -0.2 0.3 -0.2
v -0.2 0.5 0.2
v -0.2 0.5 -0.2
v -0.0999999 0.5 0.2
v -0.0999999 0.5 -0.2
v -0.0999999 1.1 0.2
v -0.0999999 1.1 -0.2
v 0.5 1 0.3
v 0.5 1 0.2
v 0.5 1 -0.2
v 0.5 1 -0.3
v 0.5 1.1 0.3
v 0.5 1.1 0.2
v 0.5 1.1 -0.2
v 0.5 1.1 -0.3
v 0.5 1.2 1
v 0.5 1.2 0.3
v 0.5 1.2 -0.3
v 0.5 1.2 -1
v 0.5 1.4 0.5
v 0.5 1.4 0.3
v 0.5 1.4 -0.3
v 0.5 1.4 -0.5
v 0.5 1.5 0.6
v 0.5 1.5 0.5
v 0.5 1.5 -0.5
v 0.5 1.5 -0.6
v 0.5 1.6 0.7
v 0.5 1.6 0.6
v 0.5 1.6 -0.6
v 0.5 1.6 -0.7
v 0.5 1.7 0.8
v 0.5 1.7 0.7
v 0.5 1.7 -0.7
v 0.5 1.7 -0.8
v 0.5 1.9 0.9
v 0.5 1.9 0.8
v 0.5 1.9 -0.8
v 0.5 1.9 -0.9
v 0.5 2.5 0.9
v 0.5 2.5 0.8
v 0.5 2.5 -0.8
v 0.5 2.5 -0.9
v 0.5 2.7 0.8
v 0.5 2.7 0.7
v 0.5 2.7 -0.7
v 0.5 2.7 -0.8
v 0.5 2.8 0.7
v 0.5 2.8 0.6
v 0.5 2.8 -0.6
v 0.5 2.8 -0.7
v 0.5 2.9 0.6
v 0.5 2.9 0.5
v 0.5 2.9 -0.5
v 0.5 2.9 -0.6
v 0.5 3 0.5
v 0.5 3 0.3
v 0.5 3 -0.3
v 0.5 3 -0.5
v 0.5 3.1 0.3
v 0.5 3.1 -0.3
v 0.5 3.2 1
v 0.5 3.2 -1
v 0.8 3.2 0.3
v 0.8 3.2 -0.3
v 0.8 3.3 0.3
v 0.8 3.3 -0.3
v 1 3.3 0.3
v 1 3.3 -0.3
v 1 3.4 0.3
v 1 3.4 -0.3
v 1.1 3.4 0.3
v 1.1 3.4 -0.3
v 1.1 3.5 0.3
v 1.1 3.5 -0.3
v 1.3 3.5 0.3
v 1.3 3.5 -0.3
v 1.3 3.6 0.3
v 1.3 3.6 -0.3
v 1.5 3.6 0.3
v 1.5 3.6 -0.3
v 1.5 3.7 0.3
v 1.5 3.7 -0.3
v 1.9 0.9 0.2
v 1.9 0.9 -0.2
v 1.9 1 0.2
v 1.9 1 -0.2
v 2 0.8 0.2
v 2 0.8 -0.2
v 2 0.9 0.2
v 2 0.9 -0.2
v 3.9 3.4 0.3
v 3.9 3.4 -0.3
v 3.9 3.5 0.3
v 3.9 3.5 -0.3
v 4 0 0.6
v 4 0 -0.6
v 4 1 0.3
v 4 1 -0.3
v 4 1.4 0.5
v 4 1.4 0.3
v 4 1.4 -0.3
v 4 1.4 -0.5
v 4 1.5 0.6
v 4 1.5 0.5
v 4 1.5 -0.5
v 4 1.5 -0.6
v 4.1 0 0.7
v 4.1 0 0.6
v 4.1 0 -0.6
v 4.1 0 -0.7
v 4.1 1.5 0.6
v 4.1 1.5 -0.6
v 4.1 1.6 0.7
v 4.1 1.6 0.6
v 4.1 1.6 -0.6
v 4.1 1.6 -0.7
v 4.1 3.3 0.3
v 4.1 3.3 -0.3
v 4.1 3.4 0.3
v 4.1 3.4 -0.3
v 4.2 0 0.8
v 4.2 0 0.7
v 4.2 0 -0.7
v 4.2 0 -0.8
v 4.2 1.6 0.7
v 4.2 1.6 -0.7
v 4.2 1.7 0.8
v 4.2 1.7 0.7
v 4.2 1.7 -0.7
v 4.2 1.7 -0.8
v 4.2 3.2 0.3
v 4.2 3.2 -0.3
v 4.2 3.3 0.3
v 4.2 3.3 -0.3
v 4.3 3.1 0.3
v 4.3 3.1 -0.3
v 4.3 3.2 0.3
v 4.3 3.2 -0.3
v -3.3 1.1 1.1
v -3.3 1.1 -1.1
v -3.3 1.3 0.3
v -3.3 1.3 -0.3
v -3.3 1.4 0.5
v -3.3 1.4 0.3
v -3.3 1.4 -0.3
v -3.3 1.4 -0.5
v -3.3 1.5 0.6
v -3.3 1.5 0.5
v -3.3 1.5 -0.5
v -3.3 1.5 -0.6
v -3.3 1.6 0.7
v -3.3 1.6 0.6
v -3.3 1.6 -0.6
v -3.3 1.6 -0.7
v -3.3 1.7 0.8
v -3.3 1.7 0.7
v -3.3 1.7 -0.7
v -3.3 1.7 -0.8
v -3.3 1.9 0.9
v -3.3 1.9 0.8
v -3.3 1.9 -0.8
v -3.3 1.9 -0.9
v -3.3 2.5 0.9
v -3.3 2.5 0.8
v -3.3 2.5 -0.8
v -3.3 2.5 -0.9
v -3.3 2.7 0.8
v -3.3 2.7 0.7
v -3.3 2.7 -0.7
v -3.3 2.7 -0.8
v -3.3 2.8 0.7
v -3.3 2.8 0.6
v -3.3 2.8 -0.6
v -3.3 2.8 -0.7
v -3.3 2.9 0.6
v -3.3 2.9 0.5
v -3.3 2.9 -0.5
v -3.3 2.9 -0.6
v -3.3 3 0.5
v -3.3 3 0.3
v -3.3 3 -0.3
v -3.3 3 -0.5
v -3.3 3.1 0.3
v -3.3 3.1 -0.3
v -3.3 3.3 1.1
v -3.3 3.3 -1.1
v 0.3 0 0.2
v 0.3 0 -0.2
v 0.3 0.1 0.2
v 0.3 0.1 -0.2
v 0.4 0.1 0.2
v 0.4 0.1 -0.2
v 0.4 0.5 0.2
v 0.4 0.5 -0.2
v 0.5 0.5 0.2
v 0.5 0.5 -0.2
v 0.5 1 0.2
v 0.5 1 -0.2
v 0.8 1.2 1
v 0.8 1.2 0.3
v 0.8 1.2 -0.3
v 0.8 1.2 -1
v 0.8 1.4 0.5
v 0.8 1.4 0.3
v 0.8 1.4 -0.3
v 0.8 1.4 -0.5
v 0.8 1.5 0.6
v 0.8 1.5 0.5
v 0.8 1.5 -0.5
v 0.8 1.5 -0.6
v 0.8 1.6 0.7
v 0.8 1.6 0.6
v 0.8 1.6 -0.6
v 0.8 1.6 -0.7
v 0.8 1.7 0.8
v 0.8 1.7 0.7
v 0.8 1.7 -0.7
v 0.8 1.7 -0.8
v 0.8 1.9 0.9
v 0.8 1.9 0.8
v 0.8 1.9 -0.8
v 0.8 1.9 -0.9
v 0.8 2.5 0.9
v 0.8 2.5 0.8
v 0.8 2.5 -0.8
v 0.8 2.5 -0.9
v 0.8 2.7 0.8
v 0.8 2.7 0.7
v 0.8 2.7 -0.7
v 0.8 2.7 -0.8
v 0.8 2.8 0.7
v 0.8 2.8 0.6
v 0.8 2.8 -0.6
v 0.8 2.8 -0.7
v 0.8 2.9 0.6
v 0.8 2.9 0.5
v 0.8 2.9 -0.5
v 0.8 2.9 -0.6
v 0.8 3 0.5
v 0.8 3 0.3
v 0.8 3 -0.3
v 0.8 3 -0.5
v 0.8 3.2 1
v 0.8 3.2 0.3
v 0.8 3.2 -0.3
v 0.8 3.2 -1
v 1.7 3.1 0.3
v 1.7 3.1 -0.3
v 1.7 3.3 0.3
v 1.7 3.3 -0.3
v 1.8 3.3 0.3
v 1.8 3.3 -0.3
v 1.8 3.4 0.3
v 1.8 3.4 -0.3
v 1.9 3.4 0.3
v 1.9 3.4 -0.3
v 1.9 3.5 0.3
v 1.9 3.5 -0.3
v 3.1 0.8 0.2
v 3.1 0.8 -0.2
v 3.1 0.9 0.2
v 3.1 0.9 -0.2
v 3.2 0.9 0.2
v 3.2 0.9 -0.2
v 3.2 1 0.2
v 3.2 1 -0.2
v 4 3.6 0.3
v 4 3.6 -0.3
v 4 3.7 0.3
v 4 3.7 -0.3
v 4.2 3.5 0.3
v 4.2 3.5 -0.3
v 4.2 3.6 0.3
v 4.2 3.6 -0.3
v 4.4 3.4 0.3
v 4.4 3.4 -0.3
v 4.4 3.5 0.3
v 4.4 3.5 -0.3
v 4.6 3.3 0.3
v 4.6 3.3 -0.3
v 4.6 3.4 0.3
v 4.6 3.4 -0.3
v 4.8 3.2 0.3
v 4.8 3.2 -0.3
v 4.8 3.3 0.3
v 4.8 3.3 -0.3
v 4.9 3.1 0.3
v 4.9 3.1 -0.3
v 4.9 3.2 0.3
v 4.9 3.2 -0.3
v 5.1 0 -0.7
v 5.1 0 -0.8
v 5.1 1.7 -0.7
v 5.1 1.7 -0.8
v 5.2 0 0.8
v 5.2 0 0.7
v 5.2 1.6 0.7
v 5.2 1.7 0.8
v 5.2 1.7 0.7
v 5.3 0 0.7
v 5.3 0 0.6
v 5.3 0 -0.6
v 5.3 0 -0.7
v 5.3 1.5 0.6
v 5.3 1.5 -0.6
v 5.3 1.6 0.7
v 5.3 1.6 0.6
v 5.3 1.6 -0.6
v 5.3 1.6 -0.7
v 5.4 0 0.6
v 5.4 0 -0.6
v 5.4 1.3 0.3
v 5.4 1.3 -0.3
v 5.4 1.4 0.5
v 5.4 1.4 0.3
v 5.4 1.4 -0.3
v 5.4 1.4 -0.5
v 5.4 1.5 0.6
v 5.4 1.5 0.5
v 5.4 1.5 -0.5
v 5.4 1.5 -0.6
v 5.7 1.3 0.3
v 5.7 1.3 -0.3
v 5.7 1.4 0.5
v 5.7 1.4 0.3
v 5.7 1.4 -0.3
v 5.7 1.4 -0.5
v 5.7 1.5 0.6
v 5.7 1.5 0.5
v 5.7 1.5 -0.5
v 5.7 1.5 -0.6
v 5.7 1.6 0.7
v 5.7 1.6 0.6
v 5.7 1.6 0.4
v 5.7 1.6 0.3
v 5.7 1.6 -0.3
v 5.7 1.6 -0.4
v 5.7 1.6 -0.6
v 5.7 1.6 -0.7
v 5.7 1.7 0.8
v 5.7 1.7 0.7
v 5.7 1.7 0.5
v 5.7 1.7 0.4
v 5.7 1.7 -0.4
v 5.7 1.7 -0.5
v 5.7 1.7 -0.7
v 5.7 1.7 -0.8
v 5.7 1.8 0.6
v 5.7 1.8 0.5
v 5.7 1.8 -0.5
v 5.7 1.8 -0.6
v 5.7 1.9 0.9
v 5.7 1.9 0.8
v 5.7 1.9 0.6
v 5.7 1.9 -0.6
v 5.7 1.9 -0.8
v 5.7 1.9 -0.9
v 5.7 2.5 0.9
v 5.7 2.5 0.8
v 5.7 2.5 0.6
v 5.7 2.5 -0.6
v 5.7 2.5 -0.8
v 5.7 2.5 -0.9
v 5.7 2.6 0.6
v 5.7 2.6 0.5
v 5.7 2.6 -0.5
v 5.7 2.6 -0.6
v 5.7 2.7 0.8
v 5.7 2.7 0.7
v 5.7 2.7 0.5
v 5.7 2.7 0.4
v 5.7 2.7 -0.4
v 5.7 2.7 -0.5
v 5.7 2.7 -0.7
v 5.7 2.7 -0.8
v 5.7 2.8 0.7
v 5.7 2.8 0.6
v 5.7 2.8 0.4
v 5.7 2.8 0.3
v 5.7 2.8 -0.3
v 5.7 2.8 -0.4
v 5.7 2.8 -0.6
v 5.7 2.8 -0.7
v 5.7 2.9 0.6
v 5.7 2.9 0.5
v 5.7 2.9 -0.5
v 5.7 2.9 -0.6
v 5.7 3 0.5
v 5.7 3 0.3
v 5.7 3 -0.3
v 5.7 3 -0.5
v 5.7 3.1 0.3
v 5.7 3.1 -0.3
v -3.9 2 1.1
v -3.9 2.4 1.1
v -3.6 1.1 1.1
v -3.6 2 1.1
v -3.6 2.4 1.1
v -3.6 3.3 1.1
v -3.3 1.1 1.1
v -3.3 3.3 1.1
v -4.2 2 1
v -4.2 2.4 1
v -3.9 2 1
v -3.9 2.4 1
v 0.5 1.2 1
v 0.5 3.2 1
v 0.8 1.2 1
v 0.8 3.2 1
v -4.5 1.9 0.9
v -4.5 2.5 0.9
v -4.2 2 0.9
v -4.2 2.4 0.9
v -3.6 1.9 0.9
v -3.6 2 0.9
v -3.6 2.4 0.9
v -3.6 2.5 0.9
v -3.3 1.9 0.9
v -3.3 2.5 0.9
v 0.5 1.9 0.9
v 0.5 2.5 0.9
v 0.8 1.9 0.9
v 0.8 2.5 0.9
v 5.7 1.9 0.9
v 5.7 2.5 0.9
v -4.5 1.7 0.8
v -4.5 1.9 0.8
v -4.5 2.5 0.8
v -4.5 2.7 0.8
v -3.6 1.7 0.8
v -3.6 1.9 0.8
v -3.6 2.5 0.8
v -3.6 2.7 0.8
v -3.3 1.7 0.8
v -3.3 1.9 0.8
v -3.3 2.5 0.8
v -3.3 2.7 0.8
v 0.5 1.7 0.8
v 0.5 1.9 0.8
v 0.5 2.5 0.8
v 0.5 2.7 0.8
v 0.8 1.7 0.8
v 0.8 1.9 0.8
v 0.8 2.5 0.8
v 0.8 2.7 0.8
v 4.2 0 0.8
v 4.2 1.7 0.8
v 5.2 0 0.8
v 5.2 1.7 0.8
v 5.7 1.7 0.8
v 5.7 1.9 0.8
v 5.7 2.5 0.8
v 5.7 2.7 0.8
v -4.5 1.6 0.7
v -4.5 1.7 0.7
v -4.5 2.7 0.7
v -4.5 2.8 0.7
v -3.6 1.6 0.7
v -3.6 1.7 0.7
v -3.6 2.7 0.7
v -3.6 2.8 0.7
v -3.3 1.6 0.7
v -3.3 1.7 0.7
v -3.3 2.7 0.7
v -3.3 2.8 0.7
v 0.5 1.6 0.7
v 0.5 1.7 0.7
v 0.5 2.7 0.7
v 0.5 2.8 0.7
v 0.8 1.6 0.7
v 0.8 1.7 0.7
v 0.8 2.7 0.7
v 0.8 2.8 0.7
v 4.1 0 0.7
v 4.1 1.6 0.7
v 4.2 0 0.7
v 4.2 1.6 0.7
v 4.2 1.7 0.7
v 5.2 0 0.7
v 5.2 1.6 0.7
v 5.2 1.7 0.7
v 5.3 0 0.7
v 5.3 1.6 0.7
v 5.7 1.6 0.7
v 5.7 1.7 0.7
v 5.7 2.7 0.7
v 5.7 2.8 0.7
v -4.5 1.5 0.6
v -4.5 1.6 0.6
v -4.5 2.8 0.6
v -4.5 2.9 0.6
v -3.6 1.5 0.6
v -3.6 1.6 0.6
v -3.6 2.8 0.6
v -3.6 2.9 0.6
v -3.3 1.5 0.6
v -3.3 1.6 0.6
v -3.3 2.8 0.6
v -3.3 2.9 0.6
v 0.5 1.5 0.6
v 0.5 1.6 0.6
v 0.5 2.8 0.6
v 0.5 2.9 0.6
v 0.8 1.5 0.6
v 0.8 1.6 0.6
v 0.8 2.8 0.6
v 0.8 2.9 0.6
v 4 0 0.6
v 4 1.5 0.6
v 4.1 0 0.6
v 4.1 1.5 0.6
v 4.1 1.6 0.6
v 5.3 0 0.6
v 5.3 1.5 0.6
v 5.3 1.6 0.6
v 5.4 0 0.6
v 5.4 1.5 0.6
v 5.7 1.5 0.6
v 5.7 1.6 0.6
v 5.7 2.8 0.6
v 5.7 2.9 0.6
v -4.5 1.4 0.5
v -4.5 1.5 0.5
v -4.5 2.9 0.5
v -4.5 3 0.5
v -3.6 1.4 0.5
v -3.6 1.5 0.5
v -3.6 2.9 0.5
v -3.6 3 0.5
v -3.3 1.4 0.5
v -3.3 1.5 0.5
v -3.3 2.9 0.5
v -3.3 3 0.5
v 0.5 1.4 0.5
v 0.5 1.5 0.5
v 0.5 2.9 0.5
v 0.5 3 0.5
v 0.8 1.4 0.5
v 0.8 1.5 0.5
v 0.8 2.9 0.5
v 0.8 3 0.5
v 4 1.4 0.5
v 4 1.5 0.5
v 5.4 1.4 0.5
v 5.4 1.5 0.5
v 5.7 1.4 0.5
v 5.7 1.5 0.5
v 5.7 2.9 0.5
v 5.7 3 0.5
v -4.5 1.3 0.3
v -4.5 1.4 0.3
v -4.5 3 0.3
v -4.5 3.1 0.3
v -3.6 1.3 0.3
v -3.6 1.4 0.3
v -3.6 3 0.3
v -3.6 3.1 0.3
v -3.3 1.3 0.3
v -3.3 1.4 0.3
v -3.3 3 0.3
v -3.3 3.1 0.3
v -0.3 1.1 0.3
v -0.3 1.3 0.3
v -0.3 1.4 0.3
v 0.5 1 0.3
v 0.5 1.1 0.3
v 0.5 1.2 0.3
v 0.5 1.4 0.3
v 0.5 3 0.3
v 0.5 3.1 0.3
v 0.8 1.2 0.3
v 0.8 1.4 0.3
v 0.8 3 0.3
v 0.8 3.2 0.3
v 0.8 3.3 0.3
v 1 3.3 0.3
v 1 3.4 0.3
v 1.1 3.4 0.3
v 1.1 3.5 0.3
v 1.3 3.5 0.3
v 1.3 3.6 0.3
v 1.5 3.6 0.3
v 1.5 3.7 0.3
v 1.7 3.1 0.3
v 1.7 3.3 0.3
v 1.8 3.3 0.3
v 1.8 3.4 0.3
v 1.9 3.4 0.3
v 1.9 3.5 0.3
v 3.9 3.4 0.3
v 3.9 3.5 0.3
v 4 1 0.3
v 4 1.4 0.3
v 4 3.6 0.3
v 4 3.7 0.3
v 4.1 3.3 0.3
v 4.1 3.4 0.3
v 4.2 3.2 0.3
v 4.2 3.3 0.3
v 4.2 3.5 0.3
v 4.2 3.6 0.3
v 4.3 3.1 0.3
v 4.3 3.2 0.3
v 4.4 3.4 0.3
v 4.4 3.5 0.3
v 4.6 3.3 0.3
v 4.6 3.4 0.3
v 4.8 3.2 0.3
v 4.8 3.3 0.3
v 4.9 3 0.3
v 4.9 3.1 0.3
v 4.9 3.2 0.3
v 5.4 1.3 0.3
v 5.4 1.4 0.3
v 5.7 1.3 0.3
v 5.7 1.4 0.3
v 5.7 3 0.3
v 5.7 3.1 0.3
v -4.2 1.2 0.2
v -4.2 1.3 0.2
v -4.2 3.1 0.2
v -4.2 3.2 0.2
v -3.9 1.1 0.2
v -3.9 1.2 0.2
v -3.9 3.2 0.2
v -3.9 3.3 0.2
v -3.6 1.1 0.2
v -3.6 1.3 0.2
v -3.6 3.1 0.2
v -3.6 3.3 0.2
v -0.3 0 0.2
v -0.3 0.3 0.2
v -0.2 0.3 0.2
v -0.2 0.5 0.2
v -0.0999999 0.5 0.2
v -0.0999999 1.1 0.2
v 0.3 0 0.2
v 0.3 0.1 0.2
v 0.4 0.1 0.2
v 0.4 0.5 0.2
v 0.5 0.5 0.2
v 0.5 1 0.2
v 0.5 1.1 0.2
v 1.9 0.9 0.2
v 1.9 1 0.2
v 2 0.8 0.2
v 2 0.9 0.2
v 3.1 0.8 0.2
v 3.1 0.9 0.2
v 3.2 0.9 0.2
v 3.2 1 0.2
v -4.5 1.4 -0.2
v -4.5 1.5 -0.2
v -4.5 2.9 -0.2
v -4.5 3 -0.2
v -4.2 1.4 -0.2
v -4.2 1.5 -0.2
v -4.2 2.9 -0.2
v -4.2 3 -0.2
v -4.5 1.5 -0.4
v -4.5 1.6 -0.4
v -4.5 2.8 -0.4
v -4.5 2.9 -0.4
v -4.2 1.5 -0.4
v -4.2 1.6 -0.4
v -4.2 2.8 -0.4
v -4.2 2.9 -0.4
v -4.5 1.6 -0.5
v -4.5 1.7 -0.5
v -4.5 2.7 -0.5
v -4.5 2.8 -0.5
v -4.2 1.6 -0.5
v -4.2 1.7 -0.5
v -4.2 2.7 -0.5
v -4.2 2.8 -0.5
v -4.5 1.7 -0.6
v -4.5 1.8 -0.6
v -4.5 2.6 -0.6
v -4.5 2.7 -0.6
v -4.2 1.7 -0.6
v -4.2 1.8 -0.6
v -4.2 2.6 -0.6
v -4.2 2.7 -0.6
v -4.5 1.8 -0.7
v -4.5 2 -0.7
v -4.5 2.4 -0.7
v -4.5 2.6 -0.7
v -4.2 1.8 -0.7
v -4.2 2 -0.7
v -4.2 2.4 -0.7
v -4.2 2.6 -0.7
v -4.5 2 -0.8
v -4.5 2.4 -0.8
v -4.2 2 -0.8
v -4.2 2.4 -0.8
v -4.5 2 0.8
v -4.5 2.4 0.8
v -4.2 2 0.8
v -4.2 2.4 0.8
v -4.5 1.8 0.7
v -4.5 2 0.7
v -4.5 2.4 0.7
v -4.5 2.6 0.7
v -4.2 1.8 0.7
v -4.2 2 0.7
v -4.2 2.4 0.7
v -4.2 2.6 0.7
v -4.5 1.7 0.6
v -4.5 1.8 0.6
v -4.5 2.6 0.6
v -4.5 2.7 0.6
v -4.2 1.7 0.6
v -4.2 1.8 0.6
v -4.2 2.6 0.6
v -4.2 2.7 0.6
v -4.5 1.6 0.5
v -4.5 1.7 0.5
v -4.5 2.7 0.5
v -4.5 2.8 0.5
v -4.2 1.6 0.5
v -4.2 1.7 0.5
v -4.2 2.7 0.5
v -4.2 2.8 0.5
v -4.5 1.5 0.4
v -4.5 1.6 0.4
v -4.5 2.8 0.4
v -4.5 2.9 0.4
v -4.2 1.5 0.4
v -4.2 1.6 0.4
v -4.2 2.8 0.4
v -4.2 2.9 0.4
v -4.5 1.4 0.2
v -4.5 1.5 0.2
v -4.5 2.9 0.2
v -4.5 3 0.2
v -4.2 1.4 0.2
v -4.2 1.5 0.2
v -4.2 2.9 0.2
v -4.2 3 0.2
v -4.2 1.2 -0.2
v -4.2 1.3 -0.2
v -4.2 3.1 -0.2
v -4.2 3.2 -0.2
v -3.9 1.1 -0.2
v -3.9 1.2 -0.2
v -3.9 3.2 -0.2
v -3.9 3.3 -0.2
v -3.6 1.1 -0.2
v -3.6 1.3 -0.2
v -3.6 3.1 -0.2
v -3.6 3.3 -0.2
v -0.3 0 -0.2
v -0.3 0.3 -0.2
v -0.2 0.3 -0.2
v -0.2 0.5 -0.2
v -0.0999999 0.5 -0.2
v -0.0999999 1.1 -0.2
v 0.3 0 -0.2
v 0.3 0.1 -0.2
v 0.4 0.1 -0.2
v 0.4 0.5 -0.2
v 0.5 0.5 -0.2
v 0.5 1 -0.2
v 0.5 1.1 -0.2
v 1.9 0.9 -0.2
v 1.9 1 -0.2
v 2 0.8 -0.2
v 2 0.9 -0.2
v 3.1 0.8 -0.2
v 3.1 0.9 -0.2
v 3.2 0.9 -0.2
v 3.2 1 -0.2
v -4.5 1.3 -0.3
v -4.5 1.4 -0.3
v -4.5 3 -0.3
v -4.5 3.1 -0.3
v -3.6 1.3 -0.3
v -3.6 1.4 -0.3
v -3.6 3 -0.3
v -3.6 3.1 -0.3
v -3.3 1.3 -0.3
v -3.3 1.4 -0.3
v -3.3 3 -0.3
v -3.3 3.1 -0.3
v -0.3 1.1 -0.3
v -0.3 1.3 -0.3
v -0.3 1.4 -0.3
v 0.5 1 -0.3
v 0.5 1.1 -0.3
v 0.5 1.2 -0.3
v 0.5 1.4 -0.3
v 0.5 3 -0.3
v 0.5 3.1 -0.3
v 0.8 1.2 -0.3
v 0.8 1.4 -0.3
v 0.8 3 -0.3
v 0.8 3.2 -0.3
v 0.8 3.3 -0.3
v 1 3.3 -0.3
v 1 3.4 -0.3
v 1.1 3.4 -0.3
v 1.1 3.5 -0.3
v 1.3 3.5 -0.3
v 1.3 3.6 -0.3
v 1.5 3.6 -0.3
v 1.5 3.7 -0.3
v 1.7 3.1 -0.3
v 1.7 3.3 -0.3
v 1.8 3.3 -0.3
v 1.8 3.4 -0.3
v 1.9 3.4 -0.3
v 1.9 3.5 -0.3
v 3.9 3.4 -0.3
v 3.9 3.5 -0.3
v 4 1 -0.3
v 4 1.4 -0.3
v 4 3.6 -0.3
v 4 3.7 -0.3
v 4.1 3.3 -0.3
v 4.1 3.4 -0.3
v 4.2 3.2 -0.3
v 4.2 3.3 -0.3
v 4.2 3.5 -0.3
v 4.2 3.6 -0.3
v 4.3 3.1 -0.3
v 4.3 3.2 -0.3
v 4.4 3.4 -0.3
v 4.4 3.5 -0.3
v 4.6 3.3 -0.3
v 4.6 3.4 -0.3
v 4.8 3.2 -0.3
v 4.8 3.3 -0.3
v 4.9 3 -0.3
v 4.9 3.1 -0.3
v 4.9 3.2 -0.3
v 5.4 1.3 -0.3
v 5.4 1.4 -0.3
v 5.7 1.3 -0.3
v 5.7 1.4 -0.3
v 5.7 3 -0.3
v 5.7 3.1 -0.3
v -4.5 1.4 -0.5
v -4.5 1.5 -0.5
v -4.5 2.9 -0.5
v -4.5 3 -0.5
v -3.6 1.4 -0.5
v -3.6 1.5 -0.5
v -3.6 2.9 -0.5
v -3.6 3 -0.5
v -3.3 1.4 -0.5
v -3.3 1.5 -0.5
v -3.3 2.9 -0.5
v -3.3 3 -0.5
v 0.5 1.4 -0.5
v 0.5 1.5 -0.5
v 0.5 2.9 -0.5
v 0.5 3 -0.5
v 0.8 1.4 -0.5
v 0.8 1.5 -0.5
v 0.8 2.9 -0.5
v 0.8 3 -0.5
v 4 1.4 -0.5
v 4 1.5 -0.5
v 5.4 1.4 -0.5
v 5.4 1.5 -0.5
v 5.7 1.4 -0.5
v 5.7 1.5 -0.5
v 5.7 2.9 -0.5
v 5.7 3 -0.5
v -4.5 1.5 -0.6
v -4.5 1.6 -0.6
v -4.5 2.8 -0.6
v -4.5 2.9 -0.6
v -3.6 1.5 -0.6
v -3.6 1.6 -0.6
v -3.6 2.8 -0.6
v -3.6 2.9 -0.6
v -3.3 1.5 -0.6
v -3.3 1.6 -0.6
v -3.3 2.8 -0.6
v -3.3 2.9 -0.6
v 0.5 1.5 -0.6
v 0.5 1.6 -0.6
v 0.5 2.8 -0.6
v 0.5 2.9 -0.6
v 0.8 1.5 -0.6
v 0.8 1.6 -0.6
v 0.8 2.8 -0.6
v 0.8 2.9 -0.6
v 4 0 -0.6
v 4 1.5 -0.6
v 4.1 0 -0.6
v 4.1 1.5 -0.6
v 4.1 1.6 -0.6
v 5.3 0 -0.6
v 5.3 1.5 -0.6
v 5.3 1.6 -0.6
v 5.4 0 -0.6
v 5.4 1.5 -0.6
v 5.7 1.5 -0.6
v 5.7 1.6 -0.6
v 5.7 2.8 -0.6
v 5.7 2.9 -0.6
v -4.5 1.6 -0.7
v -4.5 1.7 -0.7
v -4.5 2.7 -0.7
v -4.5 2.8 -0.7
v -3.6 1.6 -0.7
v -3.6 1.7 -0.7
v -3.6 2.7 -0.7
v -3.6 2.8 -0.7
v -3.3 1.6 -0.7
v -3.3 1.7 -0.7
v -3.3 2.7 -0.7
v -3.3 2.8 -0.7
v 0.5 1.6 -0.7
v 0.5 1.7 -0.7
v 0.5 2.7 -0.7
v 0.5 2.8 -0.7
v 0.8 1.6 -0.7
v 0.8 1.7 -0.7
v 0.8 2.7 -0.7
v 0.8 2.8 -0.7
v 4.1 0 -0.7
v 4.1 1.6 -0.7
v 4.2 0 -0.7
v 4.2 1.6 -0.7
v 4.2 1.7 -0.7
v 5.1 0 -0.7
v 5.1 1.7 -0.7
v 5.2 1.6 -0.7
v 5.2 1.7 -0.7
v 5.3 0 -0.7
v 5.3 1.6 -0.7
v 5.7 1.6 -0.7
v 5.7 1.7 -0.7
v 5.7 2.7 -0.7
v 5.7 2.8 -0.7
v -4.5 1.7 -0.8
v -4.5 1.9 -0.8
v -4.5 2.5 -0.8
v -4.5 2.7 -0.8
v -3.6 1.7 -0.8
v -3.6 1.9 -0.8
v -3.6 2.5 -0.8
v -3.6 2.7 -0.8
v -3.3 1.7 -0.8
v -3.3 1.9 -0.8
v -3.3 2.5 -0.8
v -3.3 2.7 -0.8
v 0.5 1.7 -0.8
v 0.5 1.9 -0.8
v 0.5 2.5 -0.8
v 0.5 2.7 -0.8
v 0.8 1.7 -0.8
v 0.8 1.9 -0.8
v 0.8 2.5 -0.8
v 0.8 2.7 -0.8
v 4.2 0 -0.8
v 4.2 1.7 -0.8
v 5.1 0 -0.8
v 5.1 1.7 -0.8
v 5.7 1.7 -0.8
v 5.7 1.9 -0.8
v 5.7 2.5 -0.8
v 5.7 2.7 -0.8
v -4.5 1.9 -0.9
v -4.5 2.5 -0.9
v -4.2 2 -0.9
v -4.2 2.4 -0.9
v -3.6 1.9 -0.9
v -3.6 2 -0.9
v -3.6 2.4 -0.9
v -3.6 2.5 -0.9
v -3.3 1.9 -0.9
v -3.3 2.5 -0.9
v 0.5 1.9 -0.9
v 0.5 2.5 -0.9
v 0.8 1.9 -0.9
v 0.8 2.5 -0.9
v 5.7 1.9 -0.9
v 5.7 2.5 -0.9
v -4.2 2 -1
v -4.2 2.4 -1
v -3.9 2 -1
v -3.9 2.4 -1
v 0.5 1.2 -1
v 0.5 3.2 -1
v 0.8 1.2 -1
v 0.8 3.2 -1
v -3.9 2 -1.1
v -3.9 2.4 -1.1
v -3.6 1.1 -1.1
v -3.6 2 -1.1
v -3.6 2.4 -1.1
v -3.6 3.3 -1.1
v -3.3 1.1 -1.1
v -3.3 3.3 -1.1
v 4.2 0 0.8
v 5.2 0 0.8
v 4.1 0 0.7
v 4.2 0 0.7
v 5.2 0 0.7
v 5.3 0 0.7
v 4 0 0.6
v 4.1 0 0.6
v 5.3 0 0.6
v 5.4 0 0.6
v -0.3 0 0.2
v 0.3 0 0.2
v -0.3 0 -0.2
v 0.3 0 -0.2
v 4 0 -0.6
v 4.1 0 -0.6
v 5.3 0 -0.6
v 5.4 0 -0.6
v 4.1 0 -0.7
v 4.2 0 -0.7
v 5.1 0 -0.7
v 5.3 0 -0.7
v 4.2 0 -0.8
v 5.1 0 -0.8
v 0.3 0.1 0.2
v 0.4 0.1 0.2
v 0.3 0.1 -0.2
v 0.4 0.1 -0.2
v 0.4 0.5 0.2
v 0.5 0.5 0.2
v 0.4 0.5 -0.2
v 0.5 0.5 -0.2
v 2 0.8 0.2
v 3.1 0.8 0.2
v 2 0.8 -0.2
v 3.1 0.8 -0.2
v 1.9 0.9 0.2
v 2 0.9 0.2
v 3.1 0.9 0.2
v 3.2 0.9 0.2
v 1.9 0.9 -0.2
v 2 0.9 -0.2
v 3.1 0.9 -0.2
v 3.2 0.9 -0.2
v 0.5 1 0.3
v 4 1 0.3
v 0.5 1 0.2
v 1.9 1 0.2
v 3.2 1 0.2
v 0.5 1 -0.2
v 1.9 1 -0.2
v 3.2 1 -0.2
v 0.5 1 -0.3
v 4 1 -0.3
v -3.6 1.1 1.1
v -3.3 1.1 1.1
v -0.3 1.1 0.3
v 0.5 1.1 0.3
v -3.9 1.1 0.2
v -3.6 1.1 0.2
v -0.0999999 1.1 0.2
v 0.5 1.1 0.2
v -3.9 1.1 -0.2
v -3.6 1.1 -0.2
v -0.0999999 1.1 -0.2
v 0.5 1.1 -0.2
v -0.3 1.1 -0.3
v 0.5 1.1 -0.3
v -3.6 1.1 -1.1
v -3.3 1.1 -1.1
v 0.5 1.2 1
v 0.8 1.2 1
v 0.5 1.2 0.3
v 0.8 1.2 0.3
v -4.2 1.2 0.2
v -3.9 1.2 0.2
v -4.2 1.2 -0.2
v -3.9 1.2 -0.2
v 0.5 1.2 -0.3
v 0.8 1.2 -0.3
v 0.5 1.2 -1
v 0.8 1.2 -1
v -4.5 1.3 0.3
v -3.6 1.3 0.3
v -3.3 1.3 0.3
v -0.3 1.3 0.3
v 5.4 1.3 0.3
v 5.7 1.3 0.3
v -4.2 1.3 0.2
v -3.6 1.3 0.2
v -4.2 1.3 -0.2
v -3.6 1.3 -0.2
v -4.5 1.3 -0.3
v -3.6 1.3 -0.3
v -3.3 1.3 -0.3
v -0.3 1.3 -0.3
v 5.4 1.3 -0.3
v 5.7 1.3 -0.3
v -4.5 1.4 0.5
v -3.6 1.4 0.5
v -3.3 1.4 0.5
v 0.5 1.4 0.5
v 0.8 1.4 0.5
v 4 1.4 0.5
v 5.4 1.4 0.5
v 5.7 1.4 0.5
v -4.5 1.4 0.3
v -3.6 1.4 0.3
v -3.3 1.4 0.3
v -0.3 1.4 0.3
v 0.5 1.4 0.3
v 0.8 1.4 0.3
v 4 1.4 0.3
v 5.4 1.4 0.3
v 5.7 1.4 0.3
v -4.5 1.4 -0.3
v -3.6 1.4 -0.3
v -3.3 1.4 -0.3
v -0.3 1.4 -0.3
v 0.5 1.4 -0.3
v 0.8 1.4 -0.3
v 4 1.4 -0.3
v 5.4 1.4 -0.3
v 5.7 1.4 -0.3
v -4.5 1.4 -0.5
v -3.6 1.4 -0.5
v -3.3 1.4 -0.5
v 0.5 1.4 -0.5
v 0.8 1.4 -0.5
v 4 1.4 -0.5
v 5.4 1.4 -0.5
v 5.7 1.4 -0.5
v -4.5 1.5 0.6
v -3.6 1.5 0.6
v -3.3 1.5 0.6
v 0.5 1.5 0.6
v 0.8 1.5 0.6
v 4 1.5 0.6
v 5.4 1.5 0.6
v 5.7 1.5 0.6
v -4.5 1.5 0.5
v -3.6 1.5 0.5
v -3.3 1.5 0.5
v 0.5 1.5 0.5
v 0.8 1.5 0.5
v 4 1.5 0.5
v 5.4 1.5 0.5
v 5.7 1.5 0.5
v -4.5 1.5 -0.5
v -3.6 1.5 -0.5
v -3.3 1.5 -0.5
v 0.5 1.5 -0.5
v 0.8 1.5 -0.5
v 4 1.5 -0.5
v 5.4 1.5 -0.5
v 5.7 1.5 -0.5
v -4.5 1.5 -0.6
v -3.6 1.5 -0.6
v -3.3 1.5 -0.6
v 0.5 1.5 -0.6
v 0.8 1.5 -0.6
v 4 1.5 -0.6
v 5.4 1.5 -0.6
v 5.7 1.5 -0.6
v -4.5 1.6 0.7
v -3.6 1.6 0.7
v -3.3 1.6 0.7
v 0.5 1.6 0.7
v 0.8 1.6 0.7
v 4.1 1.6 0.7
v 5.3 1.6 0.7
v 5.7 1.6 0.7
v -4.5 1.6 0.6
v -3.6 1.6 0.6
v -3.3 1.6 0.6
v 0.5 1.6 0.6
v 0.8 1.6 0.6
v 4.1 1.6 0.6
v 5.3 1.6 0.6
v 5.7 1.6 0.6
v -4.5 1.6 -0.6
v -3.6 1.6 -0.6
v -3.3 1.6 -0.6
v 0.5 1.6 -0.6
v 0.8 1.6 -0.6
v 4.1 1.6 -0.6
v 5.3 1.6 -0.6
v 5.7 1.6 -0.6
v -4.5 1.6 -0.7
v -3.6 1.6 -0.7
v -3.3 1.6 -0.7
v 0.5 1.6 -0.7
v 0.8 1.6 -0.7
v 4.1 1.6 -0.7
v 5.3 1.6 -0.7
v 5.7 1.6 -0.7
v -4.5 1.7 0.8
v -3.6 1.7 0.8
v -3.3 1.7 0.8
v 0.5 1.7 0.8
v 0.8 1.7 0.8
v 4.2 1.7 0.8
v 5.2 1.7 0.8
v 5.7 1.7 0.8
v -4.5 1.7 0.7
v -3.6 1.7 0.7
v -3.3 1.7 0.7
v 0.5 1.7 0.7
v 0.8 1.7 0.7
v 4.2 1.7 0.7
v 5.2 1.7 0.7
v 5.7 1.7 0.7
v -4.5 1.7 -0.7
v -3.6 1.7 -0.7
v -3.3 1.7 -0.7
v 0.5 1.7 -0.7
v 0.8 1.7 -0.7
v 4.2 1.7 -0.7
v 5.1 1.7 -0.7
v 5.2 1.7 -0.7
v 5.7 1.7 -0.7
v -4.5 1.7 -0.8
v -3.6 1.7 -0.8
v -3.3 1.7 -0.8
v 0.5 1.7 -0.8
v 0.8 1.7 -0.8
v 4.2 1.7 -0.8
v 5.1 1.7 -0.8
v 5.7 1.7 -0.8
v -4.5 1.9 0.9
v -3.6 1.9 0.9
v -3.3 1.9 0.9
v 0.5 1.9 0.9
v 0.8 1.9 0.9
v 5.7 1.9 0.9
v -4.5 1.9 0.8
v -3.6 1.9 0.8
v -3.3 1.9 0.8
v 0.5 1.9 0.8
v 0.8 1.9 0.8
v 5.7 1.9 0.8
v -4.5 1.9 -0.8
v -3.6 1.9 -0.8
v -3.3 1.9 -0.8
v 0.5 1.9 -0.8
v 0.8 1.9 -0.8
v 5.7 1.9 -0.8
v -4.5 1.9 -0.9
v -3.6 1.9 -0.9
v -3.3 1.9 -0.9
v 0.5 1.9 -0.9
v 0.8 1.9 -0.9
v 5.7 1.9 -0.9
v -3.9 2 1.1
v -3.6 2 1.1
v -4.2 2 1
v -3.9 2 1
v -4.2 2 0.9
v -3.6 2 0.9
v -4.2 2 -0.9
v -3.6 2 -0.9
v -4.2 2 -1
v -3.9 2 -1
v -3.9 2 -1.1
v -3.6 2 -1.1
v -4.5 2.4 0.8
v -4.2 2.4 0.8
v -4.5 2.4 0.7
v -4.2 2.4 0.7
v -4.5 2.4 -0.7
v -4.2 2.4 -0.7
v -4.5 2.4 -0.8
v -4.2 2.4 -0.8
v -4.5 2.6 0.7
v -4.2 2.6 0.7
v -4.5 2.6 0.6
v -4.2 2.6 0.6
v -4.5 2.6 -0.6
v -4.2 2.6 -0.6
v -4.5 2.6 -0.7
v -4.2 2.6 -0.7
v -4.5 2.7 0.6
v -4.2 2.7 0.6
v -4.5 2.7 0.5
v -4.2 2.7 0.5
v -4.5 2.7 -0.5
v -4.2 2.7 -0.5
v -4.5 2.7 -0.6
v -4.2 2.7 -0.6
v -4.5 2.8 0.5
v -4.2 2.8 0.5
v -4.5 2.8 0.4
v -4.2 2.8 0.4
v -4.5 2.8 -0.4
v -4.2 2.8 -0.4
v -4.5 2.8 -0.5
v -4.2 2.8 -0.5
v -4.5 2.9 0.4
v -4.2 2.9 0.4
v -4.5 2.9 0.2
v -4.2 2.9 0.2
v -4.5 2.9 -0.2
v -4.2 2.9 -0.2
v -4.5 2.9 -0.4
v -4.2 2.9 -0.4
v -4.5 3 0.2
v -4.2 3 0.2
v -4.5 3 -0.2
v -4.2 3 -0.2
v 4.2 3.2 0.3
v 4.3 3.2 0.3
v 4.2 3.2 -0.3
v 4.3 3.2 -0.3
v 1.7 3.3 0.3
v 1.8 3.3 0.3
v 4.1 3.3 0.3
v 4.2 3.3 0.3
v 1.7 3.3 -0.3
v 1.8 3.3 -0.3
v 4.1 3.3 -0.3
v 4.2 3.3 -0.3
v 1.8 3.4 0.3
v 1.9 3.4 0.3
v 3.9 3.4 0.3
v 4.1 3.4 0.3
v 1.8 3.4 -0.3
v 1.9 3.4 -0.3
v 3.9 3.4 -0.3
v 4.1 3.4 -0.3
v 1.9 3.5 0.3
v 3.9 3.5 0.3
v 1.9 3.5 -0.3
v 3.9 3.5 -0.3
v -0.3 0.3 0.2
v -0.2 0.3 0.2
v -0.3 0.3 -0.2
v -0.2 0.3 -0.2
v -0.2 0.5 0.2
v -0.0999999 0.5 0.2
v -0.2 0.5 -0.2
v -0.0999999 0.5 -0.2
v -4.5 1.4 0.2
v -4.2 1.4 0.2
v -4.5 1.4 -0.2
v -4.2 1.4 -0.2
v -4.5 1.5 0.4
v -4.2 1.5 0.4
v -4.5 1.5 0.2
v -4.2 1.5 0.2
v -4.5 1.5 -0.2
v -4.2 1.5 -0.2
v -4.5 1.5 -0.4
v -4.2 1.5 -0.4
v -4.5 1.6 0.5
v -4.2 1.6 0.5
v -4.5 1.6 0.4
v -4.2 1.6 0.4
v -4.5 1.6 -0.4
v -4.2 1.6 -0.4
v -4.5 1.6 -0.5
v -4.2 1.6 -0.5
v -4.5 1.7 0.6
v -4.2 1.7 0.6
v -4.5 1.7 0.5
v -4.2 1.7 0.5
v -4.5 1.7 -0.5
v -4.2 1.7 -0.5
v -4.5 1.7 -0.6
v -4.2 1.7 -0.6
v -4.5 1.8 0.7
v -4.2 1.8 0.7
v -4.5 1.8 0.6
v -4.2 1.8 0.6
v -4.5 1.8 -0.6
v -4.2 1.8 -0.6
v -4.5 1.8 -0.7
v -4.2 1.8 -0.7
v -4.5 2 0.8
v -4.2 2 0.8
v -4.5 2 0.7
v -4.2 2 0.7
v -4.5 2 -0.7
v -4.2 2 -0.7
v -4.5 2 -0.8
v -4.2 2 -0.8
v -3.9 2.4 1.1
v -3.6 2.4 1.1
v -4.2 2.4 1
v -3.9 2.4 1
v -4.2 2.4 0.9
v -3.6 2.4 0.9
v -4.2 2.4 -0.9
v -3.6 2.4 -0.9
v -4.2 2.4 -1
v -3.9 2.4 -1
v -3.9 2.4 -1.1
v -3.6 2.4 -1.1
v -4.5 2.5 0.9
v -3.6 2.5 0.9
v -3.3 2.5 0.9
v 0.5 2.5 0.9
v 0.8 2.5 0.9
v 5.7 2.5 0.9
v -4.5 2.5 0.8
v -3.6 2.5 0.8
v -3.3 2.5 0.8
v 0.5 2.5 0.8
v 0.8 2.5 0.8
v 5.7 2.5 0.8
v -4.5 2.5 -0.8
v -3.6 2.5 -0.8
v -3.3 2.5 -0.8
v 0.5 2.5 -0.8
v 0.8 2.5 -0.8
v 5.7 2.5 -0.8
v -4.5 2.5 -0.9
v -3.6 2.5 -0.9
v -3.3 2.5 -0.9
v 0.5 2.5 -0.9
v 0.8 2.5 -0.9
v 5.7 2.5 -0.9
v -4.5 2.7 0.8
v -3.6 2.7 0.8
v -3.3 2.7 0.8
v 0.5 2.7 0.8
v 0.8 2.7 0.8
v 5.7 2.7 0.8
v -4.5 2.7 0.7
v -3.6 2.7 0.7
v -3.3 2.7 0.7
v 0.5 2.7 0.7
v 0.8 2.7 0.7
v 5.7 2.7 0.7
v -4.5 2.7 -0.7
v -3.6 2.7 -0.7
v -3.3 2.7 -0.7
v 0.5 2.7 -0.7
v 0.8 2.7 -0.7
v 5.7 2.7 -0.7
v -4.5 2.7 -0.8
v -3.6 2.7 -0.8
v -3.3 2.7 -0.8
v 0.5 2.7 -0.8
v 0.8 2.7 -0.8
v 5.7 2.7 -0.8
v -4.5 2.8 0.7
v -3.6 2.8 0.7
v -3.3 2.8 0.7
v 0.5 2.8 0.7
v 0.8 2.8 0.7
v 5.7 2.8 0.7
v -4.5 2.8 0.6
v -3.6 2.8 0.6
v -3.3 2.8 0.6
v 0.5 2.8 0.6
v 0.8 2.8 0.6
v 5.7 2.8 0.6
v -4.5 2.8 -0.6
v -3.6 2.8 -0.6
v -3.3 2.8 -0.6
v 0.5 2.8 -0.6
v 0.8 2.8 -0.6
v 5.7 2.8 -0.6
v -4.5 2.8 -0.7
v -3.6 2.8 -0.7
v -3.3 2.8 -0.7
v 0.5 2.8 -0.7
v 0.8 2.8 -0.7
v 5.7 2.8 -0.7
v -4.5 2.9 0.6
v -3.6 2.9 0.6
v -3.3 2.9 0.6
v 0.5 2.9 0.6
v 0.8 2.9 0.6
v 5.7 2.9 0.6
v -4.5 2.9 0.5
v -3.6 2.9 0.5
v -3.3 2.9 0.5
v 0.5 2.9 0.5
v 0.8 2.9 0.5
v 5.7 2.9 0.5
v -4.5 2.9 -0.5
v -3.6 2.9 -0.5
v -3.3 2.9 -0.5
v 0.5 2.9 -0.5
v 0.8 2.9 -0.5
v 5.7 2.9 -0.5
v -4.5 2.9 -0.6
v -3.6 2.9 -0.6
v -3.3 2.9 -0.6
v 0.5 2.9 -0.6
v 0.8 2.9 -0.6
v 5.7 2.9 -0.6
v -4.5 3 0.5
v -3.6 3 0.5
v -3.3 3 0.5
v 0.5 3 0.5
v 0.8 3 0.5
v 5.7 3 0.5
v -4.5 3 0.3
v -3.6 3 0.3
v -3.3 3 0.3
v 0.5 3 0.3
v 0.8 3 0.3
v 4.9 3 0.3
v 5.7 3 0.3
v -4.5 3 -0.3
v -3.6 3 -0.3
v -3.3 3 -0.3
v 0.5 3 -0.3
v 0.8 3 -0.3
v 4.9 3 -0.3
v 5.7 3 -0.3
v -4.5 3 -0.5
v -3.6 3 -0.5
v -3.3 3 -0.5
v 0.5 3 -0.5
v 0.8 3 -0.5
v 5.7 3 -0.5
v -4.5 3.1 0.3
v -3.6 3.1 0.3
v -3.3 3.1 0.3
v 0.5 3.1 0.3
v 1.7 3.1 0.3
v 4.3 3.1 0.3
v 4.9 3.1 0.3
v 5.7 3.1 0.3
v -4.2 3.1 0.2
v -3.6 3.1 0.2
v -4.2 3.1 -0.2
v -3.6 3.1 -0.2
v -4.5 3.1 -0.3
v -3.6 3.1 -0.3
v -3.3 3.1 -0.3
v 0.5 3.1 -0.3
v 1.7 3.1 -0.3
v 4.3 3.1 -0.3
v 4.9 3.1 -0.3
v 5.7 3.1 -0.3
v 0.5 3.2 1
v 0.8 3.2 1
v 0.8 3.2 0.3
v 4.8 3.2 0.3
v 4.9 3.2 0.3
v -4.2 3.2 0.2
v -3.9 3.2 0.2
v -4.2 3.2 -0.2
v -3.9 3.2 -0.2
v 0.8 3.2 -0.3
v 4.8 3.2 -0.3
v 4.9 3.2 -0.3
v 0.5 3.2 -1
v 0.8 3.2 -1
v -3.6 3.3 1.1
v -3.3 3.3 1.1
v 0.8 3.3 0.3
v 1 3.3 0.3
v 4.6 3.3 0.3
v 4.8 3.3 0.3
v -3.9 3.3 0.2
v -3.6 3.3 0.2
v -3.9 3.3 -0.2
v -3.6 3.3 -0.2
v 0.8 3.3 -0.3
v 1 3.3 -0.3
v 4.6 3.3 -0.3
v 4.8 3.3 -0.3
v -3.6 3.3 -1.1
v -3.3 3.3 -1.1
v 1 3.4 0.3
v 1.1 3.4 0.3
v 4.4 3.4 0.3
v 4.6 3.4 0.3
v 1 3.4 -0.3
v 1.1 3.4 -0.3
v 4.4 3.4 -0.3
v 4.6 3.4 -0.3
v 1.1 3.5 0.3
v 1.3 3.5 0.3
v 4.2 3.5 0.3
v 4.4 3.5 0.3
v 1.1 3.5 -0.3
v 1.3 3.5 -0.3
v 4.2 3.5 -0.3
v 4.4 3.5 -0.3
v 1.3 3.6 0.3
v 1.5 3.6 0.3
v 4 3.6 0.3
v 4.2 3.6 0.3
v 1.3 3.6 -0.3
v 1.5 3.6 -0.3
v 4 3.6 -0.3
v 4.2 3.6 -0.3
v 1.5 3.7 0.3
v 4 3.7 0.3
v 1.5 3.7 -0.3
v 4 3.7 -0.3

# faces
f 4/1/1 2/1/1 1/1/1
f 5/1/1 2/1/1 4/1/1
f 6/1/1 2/1/1 5/1/1
f 7/1/1 2/1/1 6/1/1
f 10/3/1 4/3/1 3/3/1
f 10/3/1 5/3/1 4/3/1
f 11/3/1 5/3/1 10/3/1
f 12/3/1 5/3/1 11/3/1
f 13/3/1 7/3/1 6/3/1
f 13/3/1 8/3/1 7/3/1
f 14/3/1 8/3/1 13/3/1
f 15/3/1 8/3/1 14/3/1
f 18/3/1 11/3/1 10/3/1
f 18/3/1 10/3/1 9/3/1
f 19/3/1 11/3/1 18/3/1
f 20/3/1 11/3/1 19/3/1
f 21/3/1 16/3/1 15/3/1
f 21/3/1 15/3/1 14/3/1
f 22/3/1 16/3/1 21/3/1
f 23/3/1 16/3/1 22/3/1
f 26/3/1 19/3/1 18/3/1
f 26/3/1 18/3/1 17/3/1
f 27/3/1 19/3/1 26/3/1
f 28/3/1 19/3/1 27/3/1
f 29/3/1 24/3/1 23/3/1
f 29/3/1 23/3/1 22/3/1
f 30/3/1 24/3/1 29/3/1
f 31/3/1 24/3/1 30/3/1
f 33/3/1 27/3/1 26/3/1
f 33/3/1 26/3/1 25/3/1
f 34/3/1 27/3/1 33/3/1
f 35/3/1 32/3/1 31/3/1
f 35/3/1 31/3/1 30/3/1
f 36/3/1 32/3/1 35/3/1
f 38/3/1 33/3/1 25/3/1
f 39/3/1 32/3/1 36/3/1
f 41/1/1 38/1/1 37/1/1
f 41/3/1 33/3/1 38/3/1
f 42/3/1 33/3/1 41/3/1
f 43/3/1 39/3/1 36/3/1
f 44/1/1 40/1/1 39/1/1
f 44/3/1 39/3/1 43/3/1
f 45/1/1 41/1/1 37/1/1
f 48/1/1 40/1/1 44/1/1
f 49/1/1 45/1/1 37/1/1
f 50/3/1 46/3/1 45/3/1
f 50/1/1 45/1/1 49/1/1
f 51/3/1 48/3/1 47/3/1
f 51/1/1 40/1/1 48/1/1
f 52/1/1 40/1/1 51/1/1
f 53/3/1 46/3/1 50/3/1
f 56/3/1 51/3/1 47/3/1
f 57/3/1 54/3/1 53/3/1
f 57/3/1 53/3/1 50/3/1
f 58/3/1 54/3/1 57/3/1
f 59/3/1 54/3/1 58/3/1
f 62/3/1 56/3/1 55/3/1
f 63/3/1 51/3/1 56/3/1
f 63/3/1 56/3/1 62/3/1
f 64/3/1 51/3/1 63/3/1
f 65/3/1 60/3/1 59/3/1
f 65/3/1 59/3/1 58/3/1
f 66/3/1 60/3/1 65/3/1
f 67/3/1 60/3/1 66/3/1
f 70/3/1 62/3/1 61/3/1
f 70/3/1 63/3/1 62/3/1
f 71/3/1 63/3/1 70/3/1
f 72/3/1 63/3/1 71/3/1
f 73/3/1 68/3/1 67/3/1
f 73/3/1 67/3/1 66/3/1
f 74/3/1 68/3/1 73/3/1
f 75/3/1 68/3/1 74/3/1
f 78/3/1 71/3/1 70/3/1
f 78/3/1 70/3/1 69/3/1
f 79/3/1 71/3/1 78/3/1
f 80/3/1 71/3/1 79/3/1
f 81/3/1 76/3/1 75/3/1
f 81/3/1 75/3/1 74/3/1
f 82/3/1 76/3/1 81/3/1
f 83/3/1 76/3/1 82/3/1
f 84/3/1 79/3/1 78/3/1
f 84/3/1 78/3/1 77/3/1
f 85/3/1 79/3/1 84/3/1
f 86/3/1 79/3/1 85/3/1
f 87/1/1 83/1/1 82/1/1
f 87/1/1 85/1/1 84/1/1
f 87/1/1 84/1/1 83/1/1
f 88/1/1 85/1/1 87/1/1
f 91/5/1 90/5/1 89/5/1
f 92/5/1 90/5/1 91/5/1
f 96/5/1 94/5/1 93/5/1
f 97/5/1 94/5/1 96/5/1
f 100/5/1 97/5/1 96/5/1
f 100/5/1 98/5/1 97/5/1
f 100/5/1 96/5/1 95/5/1
f 101/5/1 98/5/1 100/5/1
f 104/5/1 100/5/1 99/5/1
f 104/5/1 102/5/1 101/5/1
f 104/5/1 101/5/1 100/5/1
f 105/5/1 102/5/1 104/5/1
f 108/5/1 104/5/1 103/5/1
f 108/5/1 106/5/1 105/5/1
f 108/5/1 105/5/1 104/5/1
f 109/5/1 106/5/1 108/5/1
f 114/5/1 108/5/1 107/5/1
f 114/5/1 109/5/1 108/5/1
f 114/5/1 110/5/1 109/5/1
f 115/5/1 110/5/1 114/5/1
f 119/5/1 112/5/1 111/5/1
f 120/5/1 112/5/1 119/5/1
f 121/5/1 114/5/1 113/5/1
f 121/5/1 115/5/1 114/5/1
f 121/5/1 116/5/1 115/5/1
f 122/5/1 116/5/1 121/5/1
f 123/5/1 116/5/1 122/5/1
f 124/5/1 116/5/1 123/5/1
f 125/5/1 118/5/1 117/5/1
f 126/5/1 118/5/1 125/5/1
f 127/5/1 123/5/1 122/5/1
f 128/5/1 123/5/1 127/5/1
f 129/5/1 123/5/1 128/5/1
f 130/5/1 123/5/1 129/5/1
f 131/5/1 129/5/1 128/5/1
f 132/5/1 129/5/1 131/5/1
f 133/5/1 129/5/1 132/5/1
f 134/5/1 129/5/1 133/5/1
f 135/5/1 133/5/1 132/5/1
f 136/5/1 133/5/1 135/5/1
f 137/5/1 133/5/1 136/5/1
f 138/5/1 133/5/1 137/5/1
f 139/5/1 137/5/1 136/5/1
f 140/5/1 137/5/1 139/5/1
f 141/5/1 137/5/1 140/5/1
f 142/5/1 137/5/1 141/5/1
f 143/5/1 141/5/1 140/5/1
f 144/5/1 141/5/1 143/5/1
f 147/5/1 146/5/1 145/5/1
f 148/5/1 146/5/1 147/5/1
f 151/5/1 150/5/1 149/5/1
f 152/5/1 150/5/1 151/5/1
f 157/5/1 154/5/1 153/5/1
f 158/5/1 154/5/1 157/5/1
f 159/5/1 156/5/1 155/5/1
f 160/5/1 156/5/1 159/5/1
f 163/5/1 162/5/1 161/5/1
f 164/5/1 162/5/1 163/5/1
f 169/5/1 166/5/1 165/5/1
f 170/5/1 166/5/1 169/5/1
f 171/5/1 168/5/1 167/5/1
f 172/5/1 168/5/1 171/5/1
f 173/5/1 169/5/1 165/5/1
f 174/5/1 169/5/1 173/5/1
f 175/5/1 168/5/1 172/5/1
f 176/5/1 168/5/1 175/5/1
f 177/5/1 173/5/1 165/5/1
f 178/5/1 173/5/1 177/5/1
f 179/5/1 168/5/1 176/5/1
f 180/5/1 168/5/1 179/5/1
f 181/5/1 177/5/1 165/5/1
f 182/5/1 177/5/1 181/5/1
f 183/5/1 168/5/1 180/5/1
f 184/5/1 168/5/1 183/5/1
f 185/5/1 181/5/1 165/5/1
f 186/5/1 181/5/1 185/5/1
f 187/5/1 168/5/1 184/5/1
f 188/5/1 168/5/1 187/5/1
f 189/5/1 185/5/1 165/5/1
f 190/5/1 185/5/1 189/5/1
f 191/5/1 168/5/1 188/5/1
f 192/5/1 168/5/1 191/5/1
f 193/5/1 189/5/1 165/5/1
f 194/5/1 189/5/1 193/5/1
f 195/5/1 168/5/1 192/5/1
f 196/5/1 168/5/1 195/5/1
f 201/5/1 198/5/1 197/5/1
f 204/5/1 200/5/1 199/5/1
f 205/5/1 202/5/1 201/5/1
f 208/5/1 204/5/1 203/5/1
f 209/5/1 206/5/1 205/5/1
f 212/5/1 208/5/1 207/5/1
f 213/5/1 210/5/1 209/5/1
f 216/5/1 212/5/1 211/5/1
f 217/5/1 214/5/1 213/5/1
f 220/5/1 216/5/1 215/5/1
f 221/5/1 218/5/1 217/5/1
f 224/5/1 220/5/1 219/5/1
f 225/5/1 222/5/1 221/5/1
f 225/5/1 201/5/1 197/5/1
f 225/5/1 205/5/1 201/5/1
f 225/5/1 209/5/1 205/5/1
f 225/5/1 221/5/1 217/5/1
f 225/5/1 213/5/1 209/5/1
f 225/5/1 217/5/1 213/5/1
f 226/5/1 222/5/1 225/5/1
f 227/5/1 224/5/1 223/5/1
f 228/5/1 220/5/1 224/5/1
f 228/5/1 224/5/1 227/5/1
f 228/5/1 200/5/1 204/5/1
f 228/5/1 204/5/1 208/5/1
f 228/5/1 212/5/1 216/5/1
f 228/5/1 216/5/1 220/5/1
f 228/5/1 208/5/1 212/5/1
f 231/5/1 230/5/1 229/5/1
f 232/5/1 230/5/1 231/5/1
f 235/5/1 234/5/1 233/5/1
f 236/5/1 234/5/1 235/5/1
f 239/5/1 238/5/1 237/5/1
f 240/5/1 238/5/1 239/5/1
f 243/5/1 242/5/1 241/5/1
f 244/5/1 242/5/1 243/5/1
f 249/5/1 246/5/1 245/5/1
f 250/5/1 246/5/1 249/5/1
f 251/5/1 248/5/1 247/5/1
f 252/5/1 248/5/1 251/5/1
f 257/5/1 254/5/1 253/5/1
f 258/5/1 254/5/1 257/5/1
f 259/5/1 256/5/1 255/5/1
f 260/5/1 256/5/1 259/5/1
f 261/5/1 257/5/1 253/5/1
f 262/5/1 257/5/1 261/5/1
f 263/5/1 256/5/1 260/5/1
f 264/5/1 256/5/1 263/5/1
f 265/5/1 261/5/1 253/5/1
f 266/5/1 261/5/1 265/5/1
f 267/5/1 256/5/1 264/5/1
f 268/5/1 256/5/1 267/5/1
f 269/5/1 265/5/1 253/5/1
f 270/5/1 265/5/1 269/5/1
f 271/5/1 256/5/1 268/5/1
f 272/5/1 256/5/1 271/5/1
f 273/5/1 269/5/1 253/5/1
f 274/5/1 269/5/1 273/5/1
f 275/5/1 256/5/1 272/5/1
f 276/5/1 256/5/1 275/5/1
f 277/5/1 273/5/1 253/5/1
f 280/5/1 256/5/1 276/5/1
f 281/5/1 278/5/1 277/5/1
f 284/5/1 280/5/1 279/5/1
f 285/5/1 282/5/1 281/5/1
f 288/5/1 284/5/1 283/5/1
f 289/5/1 286/5/1 285/5/1
f 292/5/1 288/5/1 287/5/1
f 293/5/1 290/5/1 289/5/1
f 296/5/1 292/5/1 291/5/1
f 297/5/1 294/5/1 293/5/1
f 298/5/1 296/5/1 295/5/1
f 299/5/1 297/5/1 293/5/1
f 299/5/1 298/5/1 297/5/1
f 299/5/1 277/5/1 253/5/1
f 299/5/1 281/5/1 277/5/1
f 299/5/1 285/5/1 281/5/1
f 299/5/1 289/5/1 285/5/1
f 299/5/1 293/5/1 289/5/1
f 300/5/1 296/5/1 298/5/1
f 300/5/1 298/5/1 299/5/1
f 300/5/1 256/5/1 280/5/1
f 300/5/1 292/5/1 296/5/1
f 300/5/1 288/5/1 292/5/1
f 300/5/1 284/5/1 288/5/1
f 300/5/1 280/5/1 284/5/1
f 303/3/1 302/3/1 301/3/1
f 304/3/1 302/3/1 303/3/1
f 307/3/1 306/3/1 305/3/1
f 308/3/1 306/3/1 307/3/1
f 311/3/1 310/3/1 309/3/1
f 312/3/1 310/3/1 311/3/1
f 315/3/1 314/3/1 313/3/1
f 316/3/1 314/3/1 315/3/1
f 319/3/1 318/3/1 317/3/1
f 320/3/1 318/3/1 319/3/1
f 323/5/1 322/5/1 321/5/1
f 324/5/1 322/5/1 323/5/1
f 327/5/1 326/5/1 325/5/1
f 328/5/1 326/5/1 327/5/1
f 331/3/1 330/3/1 329/3/1
f 332/3/1 330/3/1 331/3/1
f 335/5/1 334/5/1 333/5/1
f 336/5/1 334/5/1 335/5/1
f 337/5/1 335/5/1 333/5/1
f 338/5/1 335/5/1 337/5/1
f 339/5/1 334/5/1 336/5/1
f 340/5/1 334/5/1 339/5/1
f 341/5/1 337/5/1 333/5/1
f 342/5/1 337/5/1 341/5/1
f 343/5/1 334/5/1 340/5/1
f 344/5/1 334/5/1 343/5/1
f 349/5/1 346/5/1 345/5/1
f 350/5/1 348/5/1 347/5/1
f 351/5/1 349/5/1 345/5/1
f 352/5/1 349/5/1 351/5/1
f 353/5/1 348/5/1 350/5/1
f 354/5/1 348/5/1 353/5/1
f 357/3/1 356/3/1 355/3/1
f 358/3/1 356/3/1 357/3/1
f 363/5/1 360/5/1 359/5/1
f 364/5/1 362/5/1 361/5/1
f 365/5/1 363/5/1 359/5/1
f 366/5/1 363/5/1 365/5/1
f 367/5/1 362/5/1 364/5/1
f 368/5/1 362/5/1 367/5/1
f 371/3/1 370/3/1 369/3/1
f 372/3/1 370/3/1 371/3/1
f 375/3/1 374/3/1 373/3/1
f 376/3/1 374/3/1 375/3/1
f 377/5/2 378/5/2 379/5/2
f 379/5/2 378/5/2 380/5/2
f 377/5/2 379/5/2 381/5/2
f 381/5/2 379/5/2 382/5/2
f 380/5/2 378/5/2 383/5/2
f 383/5/2 378/5/2 384/5/2
f 377/5/2 381/5/2 385/5/2
f 385/5/2 381/5/2 386/5/2
f 384/5/2 378/5/2 387/5/2
f 387/5/2 378/5/2 388/5/2
f 377/5/2 385/5/2 389/5/2
f 389/5/2 385/5/2 390/5/2
f 388/5/2 378/5/2 391/5/2
f 391/5/2 378/5/2 392/5/2
f 377/5/2 389/5/2 393/5/2
f 393/5/2 389/5/2 394/5/2
f 392/5/2 378/5/2 395/5/2
f 395/5/2 378/5/2 396/5/2
f 377/5/2 393/5/2 397/5/2
f 397/5/2 393/5/2 398/5/2
f 396/5/2 378/5/2 399/5/2
f 399/5/2 378/5/2 400/5/2
f 377/5/2 397/5/2 401/5/2
f 400/5/2 378/5/2 404/5/2
f 401/5/2 402/5/2 405/5/2
f 403/5/2 404/5/2 408/5/2
f 405/5/2 406/5/2 409/5/2
f 407/5/2 408/5/2 412/5/2
f 409/5/2 410/5/2 413/5/2
f 411/5/2 412/5/2 416/5/2
f 413/5/2 414/5/2 417/5/2
f 415/5/2 416/5/2 420/5/2
f 417/5/2 418/5/2 421/5/2
f 419/5/2 420/5/2 422/5/2
f 417/5/2 421/5/2 423/5/2
f 421/5/2 422/5/2 423/5/2
f 377/5/2 401/5/2 423/5/2
f 401/5/2 405/5/2 423/5/2
f 405/5/2 409/5/2 423/5/2
f 409/5/2 413/5/2 423/5/2
f 413/5/2 417/5/2 423/5/2
f 422/5/2 420/5/2 424/5/2
f 423/5/2 422/5/2 424/5/2
f 404/5/2 378/5/2 424/5/2
f 420/5/2 416/5/2 424/5/2
f 416/5/2 412/5/2 424/5/2
f 412/5/2 408/5/2 424/5/2
f 408/5/2 404/5/2 424/5/2
f 425/5/2 426/5/2 427/5/2
f 427/5/2 426/5/2 428/5/2
f 429/5/2 430/5/2 431/5/2
f 431/5/2 430/5/2 432/5/2
f 433/5/2 434/5/2 435/5/2
f 435/5/2 434/5/2 436/5/2
f 437/5/2 438/5/2 441/5/2
f 441/5/2 438/5/2 442/5/2
f 439/5/2 440/5/2 443/5/2
f 443/5/2 440/5/2 444/5/2
f 437/5/2 441/5/2 445/5/2
f 445/5/2 441/5/2 446/5/2
f 444/5/2 440/5/2 447/5/2
f 447/5/2 440/5/2 448/5/2
f 437/5/2 445/5/2 449/5/2
f 449/5/2 445/5/2 450/5/2
f 448/5/2 440/5/2 451/5/2
f 451/5/2 440/5/2 452/5/2
f 437/5/2 449/5/2 453/5/2
f 453/5/2 449/5/2 454/5/2
f 452/5/2 440/5/2 455/5/2
f 455/5/2 440/5/2 456/5/2
f 437/5/2 453/5/2 457/5/2
f 457/5/2 453/5/2 458/5/2
f 456/5/2 440/5/2 459/5/2
f 459/5/2 440/5/2 460/5/2
f 437/5/2 457/5/2 461/5/2
f 460/5/2 440/5/2 464/5/2
f 461/5/2 462/5/2 465/5/2
f 463/5/2 464/5/2 468/5/2
f 465/5/2 466/5/2 469/5/2
f 467/5/2 468/5/2 472/5/2
f 469/5/2 470/5/2 473/5/2
f 471/5/2 472/5/2 476/5/2
f 473/5/2 474/5/2 477/5/2
f 475/5/2 476/5/2 480/5/2
f 477/5/2 478/5/2 481/5/2
f 437/5/2 461/5/2 481/5/2
f 461/5/2 465/5/2 481/5/2
f 465/5/2 469/5/2 481/5/2
f 473/5/2 477/5/2 481/5/2
f 469/5/2 473/5/2 481/5/2
f 481/5/2 478/5/2 482/5/2
f 479/5/2 480/5/2 483/5/2
f 480/5/2 476/5/2 484/5/2
f 483/5/2 480/5/2 484/5/2
f 464/5/2 440/5/2 484/5/2
f 468/5/2 464/5/2 484/5/2
f 476/5/2 472/5/2 484/5/2
f 472/5/2 468/5/2 484/5/2
f 485/3/2 486/3/2 487/3/2
f 487/3/2 486/3/2 488/3/2
f 489/3/2 490/3/2 491/3/2
f 491/3/2 490/3/2 492/3/2
f 493/3/2 494/3/2 495/3/2
f 495/3/2 494/3/2 496/3/2
f 497/5/2 498/5/2 499/5/2
f 499/5/2 498/5/2 500/5/2
f 501/5/2 502/5/2 503/5/2
f 503/5/2 502/5/2 504/5/2
f 505/3/2 506/3/2 507/3/2
f 507/3/2 506/3/2 508/3/2
f 509/3/2 510/3/2 511/3/2
f 511/3/2 510/3/2 512/3/2
f 513/3/2 514/3/2 515/3/2
f 515/3/2 514/3/2 516/3/2
f 517/3/2 518/3/2 519/3/2
f 519/3/2 518/3/2 520/3/2
f 521/3/2 522/3/2 523/3/2
f 523/3/2 522/3/2 524/3/2
f 525/3/2 526/3/2 527/3/2
f 527/3/2 526/3/2 528/3/2
f 529/5/2 530/5/2 531/5/2
f 531/5/2 530/5/2 532/5/2
f 533/5/2 534/5/2 535/5/2
f 533/5/2 535/5/2 536/5/2
f 536/5/2 535/5/2 537/5/2
f 538/5/2 539/5/2 542/5/2
f 540/5/2 541/5/2 543/5/2
f 538/5/2 542/5/2 544/5/2
f 544/5/2 542/5/2 545/5/2
f 543/5/2 541/5/2 546/5/2
f 546/5/2 541/5/2 547/5/2
f 548/5/2 549/5/2 550/5/2
f 550/5/2 549/5/2 551/5/2
f 548/5/2 550/5/2 552/5/2
f 552/5/2 550/5/2 553/5/2
f 551/5/2 549/5/2 554/5/2
f 554/5/2 549/5/2 555/5/2
f 548/5/2 552/5/2 556/5/2
f 556/5/2 552/5/2 557/5/2
f 555/5/2 549/5/2 558/5/2
f 558/5/2 549/5/2 559/5/2
f 560/1/2 561/1/2 563/1/2
f 563/1/2 561/1/2 564/1/2
f 562/3/2 563/3/2 567/3/2
f 564/3/2 565/3/2 568/3/2
f 566/3/2 567/3/2 571/3/2
f 567/3/2 563/3/2 572/3/2
f 571/3/2 567/3/2 572/3/2
f 563/1/2 564/1/2 573/1/2
f 572/3/2 563/3/2 573/3/2
f 568/3/2 569/3/2 574/3/2
f 573/1/2 564/1/2 574/1/2
f 564/3/2 568/3/2 574/3/2
f 574/3/2 569/3/2 575/3/2
f 575/3/2 569/3/2 576/3/2
f 571/3/2 572/3/2 579/3/2
f 570/3/2 571/3/2 579/3/2
f 579/3/2 572/3/2 580/3/2
f 572/1/2 573/1/2 581/1/2
f 580/3/2 572/3/2 581/3/2
f 573/1/2 574/1/2 581/1/2
f 574/1/2 575/1/2 581/1/2
f 576/3/2 577/3/2 582/3/2
f 581/1/2 575/1/2 582/1/2
f 575/3/2 576/3/2 582/3/2
f 582/3/2 577/3/2 583/3/2
f 583/3/2 577/3/2 584/3/2
f 579/3/2 580/3/2 586/3/2
f 578/3/2 579/3/2 586/3/2
f 580/1/2 581/1/2 587/1/2
f 586/3/2 580/3/2 587/3/2
f 581/1/2 582/1/2 587/1/2
f 582/1/2 583/1/2 587/1/2
f 584/3/2 585/3/2 588/3/2
f 587/1/2 583/1/2 588/1/2
f 583/3/2 584/3/2 588/3/2
f 588/3/2 585/3/2 589/3/2
f 578/3/2 586/3/2 591/3/2
f 586/1/2 587/1/2 592/1/2
f 587/1/2 588/1/2 592/1/2
f 591/3/2 586/3/2 592/3/2
f 588/1/2 589/1/2 592/1/2
f 589/3/2 585/3/2 593/3/2
f 592/1/2 589/1/2 593/1/2
f 593/3/2 585/3/2 594/3/2
f 590/1/2 591/1/2 596/1/2
f 594/1/2 595/1/2 596/1/2
f 593/1/2 594/1/2 596/1/2
f 592/1/2 593/1/2 596/1/2
f 591/1/2 592/1/2 596/1/2
f 596/1/2 595/1/2 597/1/2
f 597/1/2 595/1/2 598/1/2
f 598/1/2 595/1/2 599/1/2
f 599/1/2 595/1/2 600/1/2
f 600/1/2 595/1/2 601/1/2
f 597/3/2 598/3/2 602/3/2
f 598/1/2 599/1/2 602/1/2
f 602/1/2 599/1/2 603/1/2
f 603/1/2 599/1/2 604/1/2
f 599/3/2 600/3/2 605/3/2
f 604/1/2 599/1/2 605/1/2
f 597/3/2 602/3/2 606/3/2
f 602/3/2 603/3/2 606/3/2
f 606/3/2 603/3/2 607/3/2
f 603/1/2 604/1/2 608/1/2
f 607/3/2 603/3/2 608/3/2
f 608/1/2 604/1/2 609/1/2
f 609/1/2 604/1/2 610/1/2
f 604/3/2 605/3/2 611/3/2
f 610/1/2 604/1/2 611/1/2
f 605/3/2 600/3/2 612/3/2
f 611/3/2 605/3/2 612/3/2
f 612/3/2 600/3/2 613/3/2
f 607/3/2 608/3/2 614/3/2
f 608/3/2 609/3/2 614/3/2
f 614/3/2 609/3/2 615/3/2
f 609/1/2 610/1/2 616/1/2
f 615/3/2 609/3/2 616/3/2
f 616/1/2 610/1/2 617/1/2
f 617/1/2 610/1/2 618/1/2
f 610/3/2 611/3/2 619/3/2
f 618/1/2 610/1/2 619/1/2
f 611/3/2 612/3/2 619/3/2
f 619/3/2 612/3/2 620/3/2
f 620/3/2 612/3/2 621/3/2
f 616/3/2 617/3/2 622/3/2
f 615/3/2 616/3/2 622/3/2
f 622/3/2 617/3/2 623/3/2
f 619/3/2 620/3/2 624/3/2
f 618/3/2 619/3/2 624/3/2
f 624/3/2 620/3/2 625/3/2
f 623/3/2 617/3/2 626/3/2
f 617/1/2 618/1/2 627/1/2
f 626/3/2 617/3/2 627/3/2
f 618/3/2 624/3/2 628/3/2
f 627/1/2 618/1/2 628/1/2
f 628/3/2 624/3/2 629/3/2
f 627/1/2 628/1/2 630/1/2
f 630/1/2 628/1/2 631/1/2
f 635/5/3 633/5/3 632/5/3
f 636/5/3 633/5/3 635/5/3
f 638/5/3 635/5/3 634/5/3
f 638/5/3 637/5/3 636/5/3
f 638/5/3 636/5/3 635/5/3
f 639/5/3 637/5/3 638/5/3
f 642/5/3 641/5/3 640/5/3
f 643/5/3 641/5/3 642/5/3
f 646/5/3 645/5/3 644/5/3
f 647/5/3 645/5/3 646/5/3
f 650/1/3 649/1/3 648/1/3
f 651/1/3 649/1/3 650/1/3
f 652/1/3 650/1/3 648/1/3
f 653/1/3 650/1/3 652/1/3
f 654/1/3 649/1/3 651/1/3
f 655/1/3 649/1/3 654/1/3
f 658/1/3 657/1/3 656/1/3
f 659/1/3 657/1/3 658/1/3
f 662/1/3 661/1/3 660/1/3
f 663/1/3 661/1/3 662/1/3
f 668/3/3 665/3/3 664/3/3
f 669/3/3 665/3/3 668/3/3
f 670/3/3 667/3/3 666/3/3
f 671/3/3 667/3/3 670/3/3
f 676/3/3 673/3/3 672/3/3
f 677/3/3 673/3/3 676/3/3
f 678/3/3 675/3/3 674/3/3
f 679/3/3 675/3/3 678/3/3
f 685/3/3 681/3/3 680/3/3
f 686/5/3 685/5/3 684/5/3
f 687/3/3 681/3/3 685/3/3
f 687/5/3 685/5/3 686/5/3
f 688/3/3 681/3/3 687/3/3
f 689/3/3 681/3/3 688/3/3
f 690/3/3 683/3/3 682/3/3
f 691/3/3 683/3/3 690/3/3
f 696/3/3 693/3/3 692/3/3
f 697/3/3 693/3/3 696/3/3
f 698/3/3 695/3/3 694/3/3
f 699/3/3 695/3/3 698/3/3
f 704/3/3 701/3/3 700/3/3
f 705/3/3 701/3/3 704/3/3
f 706/3/3 703/3/3 702/3/3
f 707/3/3 703/3/3 706/3/3
f 713/3/3 709/3/3 708/3/3
f 714/5/3 713/5/3 712/5/3
f 715/3/3 709/3/3 713/3/3
f 715/5/3 713/5/3 714/5/3
f 716/3/3 709/3/3 715/3/3
f 720/5/3 718/5/3 717/5/3
f 721/3/3 719/3/3 718/3/3
f 721/5/3 718/5/3 720/5/3
f 722/3/3 719/3/3 721/3/3
f 723/3/3 719/3/3 722/3/3
f 724/3/3 711/3/3 710/3/3
f 725/3/3 711/3/3 724/3/3
f 730/3/3 727/3/3 726/3/3
f 731/3/3 727/3/3 730/3/3
f 732/3/3 729/3/3 728/3/3
f 733/3/3 729/3/3 732/3/3
f 738/3/3 735/3/3 734/3/3
f 739/3/3 735/3/3 738/3/3
f 740/3/3 737/3/3 736/3/3
f 741/3/3 737/3/3 740/3/3
f 747/3/3 743/3/3 742/3/3
f 748/5/3 747/5/3 746/5/3
f 749/3/3 743/3/3 747/3/3
f 749/5/3 747/5/3 748/5/3
f 750/3/3 743/3/3 749/3/3
f 754/5/3 752/5/3 751/5/3
f 755/3/3 753/3/3 752/3/3
f 755/5/3 752/5/3 754/5/3
f 756/3/3 753/3/3 755/3/3
f 757/3/3 753/3/3 756/3/3
f 758/3/3 745/3/3 744/3/3
f 759/3/3 745/3/3 758/3/3
f 764/3/3 761/3/3 760/3/3
f 765/3/3 761/3/3 764/3/3
f 766/3/3 763/3/3 762/3/3
f 767/3/3 763/3/3 766/3/3
f 772/3/3 769/3/3 768/3/3
f 773/3/3 769/3/3 772/3/3
f 774/3/3 771/3/3 770/3/3
f 775/3/3 771/3/3 774/3/3
f 780/3/3 777/3/3 776/3/3
f 781/3/3 777/3/3 780/3/3
f 784/3/3 783/3/3 782/3/3
f 785/3/3 783/3/3 784/3/3
f 786/3/3 779/3/3 778/3/3
f 787/3/3 779/3/3 786/3/3
f 792/1/3 789/1/3 788/1/3
f 793/1/3 789/1/3 792/1/3
f 794/1/3 791/1/3 790/1/3
f 795/1/3 791/1/3 794/1/3
f 801/1/3 797/1/3 796/1/3
f 802/1/3 797/1/3 801/1/3
f 804/5/3 801/5/3 800/5/3
f 804/5/3 802/5/3 801/5/3
f 805/5/3 802/5/3 804/5/3
f 806/5/3 802/5/3 805/5/3
f 807/1/3 799/1/3 798/1/3
f 808/1/3 799/1/3 807/1/3
f 809/5/3 805/5/3 804/5/3
f 809/5/3 804/5/3 803/5/3
f 814/3/3 812/3/3 811/3/3
f 814/3/3 813/3/3 812/3/3
f 816/3/3 815/3/3 814/3/3
f 818/3/3 817/3/3 816/3/3
f 820/3/3 819/3/3 818/3/3
f 822/3/3 814/3/3 811/3/3
f 822/3/3 821/3/3 820/3/3
f 822/3/3 820/3/3 818/3/3
f 822/3/3 818/3/3 816/3/3
f 822/3/3 816/3/3 814/3/3
f 823/3/3 821/3/3 822/3/3
f 824/3/3 821/3/3 823/3/3
f 825/3/3 821/3/3 824/3/3
f 826/3/3 821/3/3 825/3/3
f 827/3/3 821/3/3 826/3/3
f 829/3/3 821/3/3 827/3/3
f 830/5/3 810/5/3 809/5/3
f 830/5/3 809/5/3 803/5/3
f 831/5/3 810/5/3 830/5/3
f 832/3/3 829/3/3 828/3/3
f 832/3/3 821/3/3 829/3/3
f 833/3/3 821/3/3 832/3/3
f 835/3/3 832/3/3 828/3/3
f 837/3/3 835/3/3 834/3/3
f 838/3/3 832/3/3 835/3/3
f 838/3/3 835/3/3 837/3/3
f 839/3/3 832/3/3 838/3/3
f 840/3/3 822/3/3 811/3/3
f 841/3/3 837/3/3 836/3/3
f 841/3/3 838/3/3 837/3/3
f 842/3/3 838/3/3 841/3/3
f 842/3/3 841/3/3 840/3/3
f 843/3/3 838/3/3 842/3/3
f 844/3/3 842/3/3 840/3/3
f 845/3/3 842/3/3 844/3/3
f 846/3/3 844/3/3 840/3/3
f 847/3/3 844/3/3 846/3/3
f 848/3/3 840/3/3 811/3/3
f 848/3/3 846/3/3 840/3/3
f 849/3/3 846/3/3 848/3/3
f 850/3/3 846/3/3 849/3/3
f 853/1/3 852/1/3 851/1/3
f 854/1/3 852/1/3 853/1/3
f 855/1/3 849/1/3 848/1/3
f 856/1/3 849/1/3 855/1/3
f 862/5/3 858/5/3 857/5/3
f 863/5/3 860/5/3 859/5/3
f 865/5/3 862/5/3 861/5/3
f 866/5/3 858/5/3 862/5/3
f 866/5/3 862/5/3 865/5/3
f 867/5/3 864/5/3 863/5/3
f 867/5/3 863/5/3 859/5/3
f 868/5/3 864/5/3 867/5/3
f 871/5/3 870/5/3 869/5/3
f 873/5/3 872/5/3 871/5/3
f 875/5/3 871/5/3 869/5/3
f 875/5/3 874/5/3 873/5/3
f 875/5/3 873/5/3 871/5/3
f 876/5/3 874/5/3 875/5/3
f 877/5/3 874/5/3 876/5/3
f 878/5/3 874/5/3 877/5/3
f 879/5/3 874/5/3 878/5/3
f 880/5/3 874/5/3 879/5/3
f 881/5/3 874/5/3 880/5/3
f 885/5/3 883/5/3 882/5/3
f 886/5/3 885/5/3 884/5/3
f 887/5/3 883/5/3 885/5/3
f 887/5/3 885/5/3 886/5/3
f 888/5/3 883/5/3 887/5/3
f 889/5/3 883/5/3 888/5/3
f 894/3/3 891/3/3 890/3/3
f 895/3/3 891/3/3 894/3/3
f 896/3/3 893/3/3 892/3/3
f 897/3/3 893/3/3 896/3/3
f 902/3/3 899/3/3 898/3/3
f 903/3/3 899/3/3 902/3/3
f 904/3/3 901/3/3 900/3/3
f 905/3/3 901/3/3 904/3/3
f 910/3/3 907/3/3 906/3/3
f 911/3/3 907/3/3 910/3/3
f 912/3/3 909/3/3 908/3/3
f 913/3/3 909/3/3 912/3/3
f 918/3/3 915/3/3 914/3/3
f 919/3/3 915/3/3 918/3/3
f 920/3/3 917/3/3 916/3/3
f 921/3/3 917/3/3 920/3/3
f 926/3/3 923/3/3 922/3/3
f 927/3/3 923/3/3 926/3/3
f 928/3/3 925/3/3 924/3/3
f 929/3/3 925/3/3 928/3/3
f 932/1/3 931/1/3 930/1/3
f 933/1/3 931/1/3 932/1/3
f 934/1/4 935/1/4 936/1/4
f 936/1/4 935/1/4 937/1/4
f 938/3/4 939/3/4 942/3/4
f 942/3/4 939/3/4 943/3/4
f 940/3/4 941/3/4 944/3/4
f 944/3/4 941/3/4 945/3/4
f 946/3/4 947/3/4 950/3/4
f 950/3/4 947/3/4 951/3/4
f 948/3/4 949/3/4 952/3/4
f 952/3/4 949/3/4 953/3/4
f 954/3/4 955/3/4 958/3/4
f 958/3/4 955/3/4 959/3/4
f 956/3/4 957/3/4 960/3/4
f 960/3/4 957/3/4 961/3/4
f 962/3/4 963/3/4 966/3/4
f 966/3/4 963/3/4 967/3/4
f 964/3/4 965/3/4 968/3/4
f 968/3/4 965/3/4 969/3/4
f 970/3/4 971/3/4 974/3/4
f 974/3/4 971/3/4 975/3/4
f 972/3/4 973/3/4 976/3/4
f 976/3/4 973/3/4 977/3/4
f 978/5/4 979/5/4 983/5/4
f 980/5/4 981/5/4 984/5/4
f 982/5/4 983/5/4 986/5/4
f 983/5/4 979/5/4 987/5/4
f 986/5/4 983/5/4 987/5/4
f 984/5/4 985/5/4 988/5/4
f 980/5/4 984/5/4 988/5/4
f 988/5/4 985/5/4 989/5/4
f 990/5/4 991/5/4 992/5/4
f 992/5/4 993/5/4 994/5/4
f 990/5/4 992/5/4 996/5/4
f 994/5/4 995/5/4 996/5/4
f 992/5/4 994/5/4 996/5/4
f 996/5/4 995/5/4 997/5/4
f 997/5/4 995/5/4 998/5/4
f 998/5/4 995/5/4 999/5/4
f 999/5/4 995/5/4 1000/5/4
f 1000/5/4 995/5/4 1001/5/4
f 1001/5/4 995/5/4 1002/5/4
f 1003/5/4 1004/5/4 1006/5/4
f 1005/5/4 1006/5/4 1007/5/4
f 1006/5/4 1004/5/4 1008/5/4
f 1007/5/4 1006/5/4 1008/5/4
f 1008/5/4 1004/5/4 1009/5/4
f 1009/5/4 1004/5/4 1010/5/4
f 1011/1/4 1012/1/4 1015/1/4
f 1015/1/4 1012/1/4 1016/1/4
f 1013/1/4 1014/1/4 1017/1/4
f 1017/1/4 1014/1/4 1018/1/4
f 1019/1/4 1020/1/4 1024/1/4
f 1024/1/4 1020/1/4 1025/1/4
f 1023/5/4 1024/5/4 1027/5/4
f 1024/5/4 1025/5/4 1027/5/4
f 1027/5/4 1025/5/4 1028/5/4
f 1028/5/4 1025/5/4 1029/5/4
f 1021/1/4 1022/1/4 1030/1/4
f 1030/1/4 1022/1/4 1031/1/4
f 1027/5/4 1028/5/4 1032/5/4
f 1026/5/4 1027/5/4 1032/5/4
f 1034/3/4 1035/3/4 1037/3/4
f 1035/3/4 1036/3/4 1037/3/4
f 1037/3/4 1038/3/4 1039/3/4
f 1039/3/4 1040/3/4 1041/3/4
f 1041/3/4 1042/3/4 1043/3/4
f 1034/3/4 1037/3/4 1045/3/4
f 1043/3/4 1044/3/4 1045/3/4
f 1041/3/4 1043/3/4 1045/3/4
f 1039/3/4 1041/3/4 1045/3/4
f 1037/3/4 1039/3/4 1045/3/4
f 1045/3/4 1044/3/4 1046/3/4
f 1046/3/4 1044/3/4 1047/3/4
f 1047/3/4 1044/3/4 1048/3/4
f 1048/3/4 1044/3/4 1049/3/4
f 1049/3/4 1044/3/4 1050/3/4
f 1050/3/4 1044/3/4 1052/3/4
f 1032/5/4 1033/5/4 1053/5/4
f 1026/5/4 1032/5/4 1053/5/4
f 1053/5/4 1033/5/4 1054/5/4
f 1051/3/4 1052/3/4 1055/3/4
f 1052/3/4 1044/3/4 1055/3/4
f 1055/3/4 1044/3/4 1056/3/4
f 1051/3/4 1055/3/4 1058/3/4
f 1057/3/4 1058/3/4 1060/3/4
f 1058/3/4 1055/3/4 1061/3/4
f 1060/3/4 1058/3/4 1061/3/4
f 1061/3/4 1055/3/4 1062/3/4
f 1034/3/4 1045/3/4 1063/3/4
f 1059/3/4 1060/3/4 1064/3/4
f 1060/3/4 1061/3/4 1064/3/4
f 1064/3/4 1061/3/4 1065/3/4
f 1063/3/4 1064/3/4 1065/3/4
f 1065/3/4 1061/3/4 1066/3/4
f 1063/3/4 1065/3/4 1067/3/4
f 1067/3/4 1065/3/4 1068/3/4
f 1063/3/4 1067/3/4 1069/3/4
f 1069/3/4 1067/3/4 1070/3/4
f 1034/3/4 1063/3/4 1071/3/4
f 1063/3/4 1069/3/4 1071/3/4
f 1071/3/4 1069/3/4 1072/3/4
f 1072/3/4 1069/3/4 1073/3/4
f 1074/1/4 1075/1/4 1076/1/4
f 1076/1/4 1075/1/4 1077/1/4
f 1071/1/4 1072/1/4 1078/1/4
f 1078/1/4 1072/1/4 1079/1/4
f 1080/3/4 1081/3/4 1084/3/4
f 1084/3/4 1081/3/4 1085/3/4
f 1082/3/4 1083/3/4 1086/3/4
f 1086/3/4 1083/3/4 1087/3/4
f 1088/3/4 1089/3/4 1092/3/4
f 1092/3/4 1089/3/4 1093/3/4
f 1090/3/4 1091/3/4 1094/3/4
f 1094/3/4 1091/3/4 1095/3/4
f 1096/3/4 1097/3/4 1100/3/4
f 1100/3/4 1097/3/4 1101/3/4
f 1102/3/4 1103/3/4 1104/3/4
f 1104/3/4 1103/3/4 1105/3/4
f 1098/3/4 1099/3/4 1106/3/4
f 1106/3/4 1099/3/4 1107/3/4
f 1108/3/4 1109/3/4 1112/3/4
f 1112/3/4 1109/3/4 1113/3/4
f 1110/3/4 1111/3/4 1114/3/4
f 1114/3/4 1111/3/4 1115/3/4
f 1116/3/4 1117/3/4 1120/3/4
f 1120/3/4 1117/3/4 1121/3/4
f 1118/3/4 1119/3/4 1122/3/4
f 1122/3/4 1119/3/4 1123/3/4
f 1124/3/4 1125/3/4 1129/3/4
f 1128/5/4 1129/5/4 1130/5/4
f 1129/3/4 1125/3/4 1131/3/4
f 1130/5/4 1129/5/4 1131/5/4
f 1131/3/4 1125/3/4 1132/3/4
f 1133/5/4 1134/5/4 1136/5/4
f 1134/3/4 1135/3/4 1137/3/4
f 1136/5/4 1134/5/4 1137/5/4
f 1137/3/4 1135/3/4 1138/3/4
f 1138/3/4 1135/3/4 1139/3/4
f 1126/3/4 1127/3/4 1140/3/4
f 1140/3/4 1127/3/4 1141/3/4
f 1142/3/4 1143/3/4 1146/3/4
f 1146/3/4 1143/3/4 1147/3/4
f 1144/3/4 1145/3/4 1148/3/4
f 1148/3/4 1145/3/4 1149/3/4
f 1150/3/4 1151/3/4 1154/3/4
f 1154/3/4 1151/3/4 1155/3/4
f 1152/3/4 1153/3/4 1156/3/4
f 1156/3/4 1153/3/4 1157/3/4
f 1158/3/4 1159/3/4 1163/3/4
f 1162/5/4 1163/5/4 1164/5/4
f 1163/3/4 1159/3/4 1165/3/4
f 1164/5/4 1163/5/4 1165/5/4
f 1165/3/4 1159/3/4 1166/3/4
f 1167/5/4 1168/5/4 1169/5/4
f 1169/5/4 1168/5/4 1170/5/4
f 1167/5/4 1169/5/4 1171/5/4
f 1169/3/4 1170/3/4 1172/3/4
f 1171/5/4 1169/5/4 1172/5/4
f 1172/3/4 1170/3/4 1173/3/4
f 1173/3/4 1170/3/4 1174/3/4
f 1160/3/4 1161/3/4 1175/3/4
f 1175/3/4 1161/3/4 1176/3/4
f 1177/3/4 1178/3/4 1181/3/4
f 1181/3/4 1178/3/4 1182/3/4
f 1179/3/4 1180/3/4 1183/3/4
f 1183/3/4 1180/3/4 1184/3/4
f 1185/3/4 1186/3/4 1189/3/4
f 1189/3/4 1186/3/4 1190/3/4
f 1187/3/4 1188/3/4 1191/3/4
f 1191/3/4 1188/3/4 1192/3/4
f 1193/3/4 1194/3/4 1198/3/4
f 1197/5/4 1198/5/4 1199/5/4
f 1198/3/4 1194/3/4 1200/3/4
f 1199/5/4 1198/5/4 1200/5/4
f 1200/3/4 1194/3/4 1201/3/4
f 1201/3/4 1194/3/4 1202/3/4
f 1195/3/4 1196/3/4 1203/3/4
f 1203/3/4 1196/3/4 1204/3/4
f 1205/1/4 1206/1/4 1207/1/4
f 1207/1/4 1206/1/4 1208/1/4
f 1205/1/4 1207/1/4 1209/1/4
f 1209/1/4 1207/1/4 1210/1/4
f 1208/1/4 1206/1/4 1211/1/4
f 1211/1/4 1206/1/4 1212/1/4
f 1213/1/4 1214/1/4 1215/1/4
f 1215/1/4 1214/1/4 1216/1/4
f 1217/1/4 1218/1/4 1219/1/4
f 1219/1/4 1218/1/4 1220/1/4
f 1221/5/4 1222/5/4 1223/5/4
f 1223/5/4 1222/5/4 1224/5/4
f 1225/5/4 1226/5/4 1227/5/4
f 1227/5/4 1226/5/4 1228/5/4
f 1229/5/4 1230/5/4 1232/5/4
f 1232/5/4 1230/5/4 1233/5/4
f 1231/5/4 1232/5/4 1235/5/4
f 1233/5/4 1234/5/4 1235/5/4
f 1232/5/4 1233/5/4 1235/5/4
f 1235/5/4 1234/5/4 1236/5/4
f 1240/5/5 1238/5/5 1237/5/5
f 1241/5/5 1238/5/5 1240/5/5
f 1244/5/5 1240/5/5 1239/5/5
f 1244/5/5 1242/5/5 1241/5/5
f 1244/5/5 1241/5/5 1240/5/5
f 1245/5/5 1242/5/5 1244/5/5
f 1249/5/5 1248/5/5 1247/5/5
f 1250/5/5 1248/5/5 1249/5/5
f 1251/5/5 1244/5/5 1243/5/5
f 1251/5/5 1245/5/5 1244/5/5
f 1251/5/5 1246/5/5 1245/5/5
f 1252/5/5 1246/5/5 1251/5/5
f 1253/5/5 1246/5/5 1252/5/5
f 1254/5/5 1246/5/5 1253/5/5
f 1255/5/5 1253/5/5 1252/5/5
f 1256/5/5 1253/5/5 1255/5/5
f 1257/5/5 1253/5/5 1256/5/5
f 1258/5/5 1253/5/5 1257/5/5
f 1259/5/5 1257/5/5 1256/5/5
f 1260/5/5 1257/5/5 1259/5/5
f 1263/5/5 1262/5/5 1261/5/5
f 1264/5/5 1262/5/5 1263/5/5
f 1267/5/5 1266/5/5 1265/5/5
f 1268/5/5 1266/5/5 1267/5/5
f 1271/5/5 1270/5/5 1269/5/5
f 1272/5/5 1270/5/5 1271/5/5
f 1277/5/5 1274/5/5 1273/5/5
f 1278/5/5 1274/5/5 1277/5/5
f 1279/5/5 1276/5/5 1275/5/5
f 1280/5/5 1276/5/5 1279/5/5
f 1283/5/5 1282/5/5 1281/5/5
f 1284/5/5 1282/5/5 1283/5/5
f 1285/5/5 1282/5/5 1284/5/5
f 1286/5/5 1284/5/5 1283/5/5
f 1287/5/5 1284/5/5 1286/5/5
f 1288/5/5 1282/5/5 1285/5/5
f 1289/5/5 1287/5/5 1286/5/5
f 1289/5/5 1288/5/5 1287/5/5
f 1290/5/5 1282/5/5 1288/5/5
f 1290/5/5 1288/5/5 1289/5/5
f 1296/5/5 1292/5/5 1291/5/5
f 1297/5/5 1294/5/5 1293/5/5
f 1298/5/5 1294/5/5 1297/5/5
f 1299/5/5 1296/5/5 1295/5/5
f 1300/5/5 1292/5/5 1296/5/5
f 1300/5/5 1296/5/5 1299/5/5
f 1301/5/5 1297/5/5 1293/5/5
f 1303/5/5 1302/5/5 1301/5/5
f 1303/5/5 1301/5/5 1293/5/5
f 1304/5/5 1302/5/5 1303/5/5
f 1305/5/5 1292/5/5 1300/5/5
f 1306/5/5 1292/5/5 1305/5/5
f 1309/5/5 1308/5/5 1307/5/5
f 1310/5/5 1308/5/5 1309/5/5
f 1313/5/5 1312/5/5 1311/5/5
f 1314/5/5 1312/5/5 1313/5/5
f 1317/5/5 1316/5/5 1315/5/5
f 1318/5/5 1316/5/5 1317/5/5
f 1325/1/5 1320/1/5 1319/1/5
f 1326/1/5 1320/1/5 1325/1/5
f 1327/1/5 1325/1/5 1319/1/5
f 1329/1/5 1327/1/5 1319/1/5
f 1329/1/5 1328/1/5 1327/1/5
f 1330/1/5 1328/1/5 1329/1/5
f 1331/1/5 1322/1/5 1321/1/5
f 1332/1/5 1322/1/5 1331/1/5
f 1333/1/5 1324/1/5 1323/1/5
f 1334/1/5 1324/1/5 1333/1/5
f 1343/3/5 1336/3/5 1335/3/5
f 1344/3/5 1336/3/5 1343/3/5
f 1345/3/5 1338/3/5 1337/3/5
f 1346/3/5 1338/3/5 1345/3/5
f 1347/3/5 1338/3/5 1346/3/5
f 1348/3/5 1340/3/5 1339/3/5
f 1349/3/5 1340/3/5 1348/3/5
f 1350/3/5 1342/3/5 1341/3/5
f 1351/3/5 1342/3/5 1350/3/5
f 1361/3/5 1353/3/5 1352/3/5
f 1362/3/5 1353/3/5 1361/3/5
f 1363/3/5 1355/3/5 1354/3/5
f 1363/3/5 1356/3/5 1355/3/5
f 1364/3/5 1356/3/5 1363/3/5
f 1365/3/5 1358/3/5 1357/3/5
f 1366/3/5 1358/3/5 1365/3/5
f 1367/3/5 1360/3/5 1359/3/5
f 1368/3/5 1360/3/5 1367/3/5
f 1377/3/5 1370/3/5 1369/3/5
f 1378/3/5 1370/3/5 1377/3/5
f 1379/3/5 1372/3/5 1371/3/5
f 1380/3/5 1372/3/5 1379/3/5
f 1381/3/5 1374/3/5 1373/3/5
f 1382/3/5 1374/3/5 1381/3/5
f 1383/3/5 1376/3/5 1375/3/5
f 1384/3/5 1376/3/5 1383/3/5
f 1393/3/5 1386/3/5 1385/3/5
f 1394/3/5 1386/3/5 1393/3/5
f 1395/3/5 1388/3/5 1387/3/5
f 1396/3/5 1388/3/5 1395/3/5
f 1397/3/5 1390/3/5 1389/3/5
f 1398/3/5 1390/3/5 1397/3/5
f 1399/3/5 1392/3/5 1391/3/5
f 1400/3/5 1392/3/5 1399/3/5
f 1409/3/5 1402/3/5 1401/3/5
f 1410/3/5 1402/3/5 1409/3/5
f 1411/3/5 1404/3/5 1403/3/5
f 1412/3/5 1404/3/5 1411/3/5
f 1413/3/5 1406/3/5 1405/3/5
f 1414/3/5 1406/3/5 1413/3/5
f 1415/3/5 1408/3/5 1407/3/5
f 1416/3/5 1408/3/5 1415/3/5
f 1425/3/5 1418/3/5 1417/3/5
f 1426/3/5 1418/3/5 1425/3/5
f 1427/3/5 1420/3/5 1419/3/5
f 1428/3/5 1420/3/5 1427/3/5
f 1429/3/5 1422/3/5 1421/3/5
f 1430/3/5 1422/3/5 1429/3/5
f 1431/3/5 1424/3/5 1423/3/5
f 1432/3/5 1424/3/5 1431/3/5
f 1441/3/5 1434/3/5 1433/3/5
f 1442/3/5 1434/3/5 1441/3/5
f 1443/3/5 1436/3/5 1435/3/5
f 1444/3/5 1436/3/5 1443/3/5
f 1445/3/5 1438/3/5 1437/3/5
f 1446/3/5 1438/3/5 1445/3/5
f 1447/3/5 1440/3/5 1439/3/5
f 1448/3/5 1440/3/5 1447/3/5
f 1458/3/5 1450/3/5 1449/3/5
f 1459/3/5 1450/3/5 1458/3/5
f 1460/3/5 1452/3/5 1451/3/5
f 1461/3/5 1452/3/5 1460/3/5
f 1462/3/5 1454/3/5 1453/3/5
f 1463/3/5 1454/3/5 1462/3/5
f 1464/3/5 1457/3/5 1456/3/5
f 1464/3/5 1456/3/5 1455/3/5
f 1465/3/5 1457/3/5 1464/3/5
f 1472/1/5 1467/1/5 1466/1/5
f 1473/1/5 1467/1/5 1472/1/5
f 1474/1/5 1469/1/5 1468/1/5
f 1475/1/5 1469/1/5 1474/1/5
f 1476/1/5 1471/1/5 1470/1/5
f 1477/1/5 1471/1/5 1476/1/5
f 1484/1/5 1479/1/5 1478/1/5
f 1485/1/5 1479/1/5 1484/1/5
f 1486/1/5 1481/1/5 1480/1/5
f 1487/1/5 1481/1/5 1486/1/5
f 1488/1/5 1483/1/5 1482/1/5
f 1489/1/5 1483/1/5 1488/1/5
f 1493/5/5 1491/5/5 1490/5/5
f 1494/5/5 1493/5/5 1492/5/5
f 1495/5/5 1491/5/5 1493/5/5
f 1495/5/5 1493/5/5 1494/5/5
f 1498/5/5 1497/5/5 1496/5/5
f 1499/5/5 1497/5/5 1498/5/5
f 1500/5/5 1497/5/5 1499/5/5
f 1501/5/5 1497/5/5 1500/5/5
f 1504/3/5 1503/3/5 1502/3/5
f 1505/3/5 1503/3/5 1504/3/5
f 1508/3/5 1507/3/5 1506/3/5
f 1509/3/5 1507/3/5 1508/3/5
f 1512/3/5 1511/3/5 1510/3/5
f 1513/3/5 1511/3/5 1512/3/5
f 1516/3/5 1515/3/5 1514/3/5
f 1517/3/5 1515/3/5 1516/3/5
f 1520/3/5 1519/3/5 1518/3/5
f 1521/3/5 1519/3/5 1520/3/5
f 1524/3/5 1523/3/5 1522/3/5
f 1525/3/5 1523/3/5 1524/3/5
f 1528/3/5 1527/3/5 1526/3/5
f 1529/3/5 1527/3/5 1528/3/5
f 1532/3/5 1531/3/5 1530/3/5
f 1533/3/5 1531/3/5 1532/3/5
f 1536/3/5 1535/3/5 1534/3/5
f 1537/3/5 1535/3/5 1536/3/5
f 1540/3/5 1539/3/5 1538/3/5
f 1541/3/5 1539/3/5 1540/3/5
f 1544/1/5 1543/1/5 1542/1/5
f 1545/1/5 1543/1/5 1544/1/5
f 1548/3/5 1547/3/5 1546/3/5
f 1549/3/5 1547/3/5 1548/3/5
f 1554/3/5 1551/3/5 1550/3/5
f 1555/3/5 1551/3/5 1554/3/5
f 1556/3/5 1553/3/5 1552/3/5
f 1557/3/5 1553/3/5 1556/3/5
f 1562/3/5 1559/3/5 1558/3/5
f 1563/3/5 1559/3/5 1562/3/5
f 1564/3/5 1561/3/5 1560/3/5
f 1565/3/5 1561/3/5 1564/3/5
f 1568/3/5 1567/3/5 1566/3/5
f 1569/3/5 1567/3/5 1568/3/5
f 1570/5/6 1571/5/6 1572/5/6
f 1572/5/6 1571/5/6 1573/5/6
f 1574/5/6 1575/5/6 1576/5/6
f 1576/5/6 1575/5/6 1577/5/6
f 1578/1/6 1579/1/6 1580/1/6
f 1580/1/6 1579/1/6 1581/1/6
f 1582/3/6 1583/3/6 1584/3/6
f 1584/3/6 1583/3/6 1585/3/6
f 1586/3/6 1587/3/6 1588/3/6
f 1588/3/6 1587/3/6 1589/3/6
f 1590/3/6 1591/3/6 1592/3/6
f 1592/3/6 1591/3/6 1593/3/6
f 1594/3/6 1595/3/6 1596/3/6
f 1596/3/6 1595/3/6 1597/3/6
f 1598/3/6 1599/3/6 1600/3/6
f 1600/3/6 1599/3/6 1601/3/6
f 1602/3/6 1603/3/6 1604/3/6
f 1604/3/6 1603/3/6 1605/3/6
f 1606/3/6 1607/3/6 1608/3/6
f 1608/3/6 1607/3/6 1609/3/6
f 1610/3/6 1611/3/6 1612/3/6
f 1612/3/6 1611/3/6 1613/3/6
f 1614/3/6 1615/3/6 1616/3/6
f 1616/3/6 1615/3/6 1617/3/6
f 1618/3/6 1619/3/6 1620/3/6
f 1620/3/6 1619/3/6 1621/3/6
f 1622/5/6 1623/5/6 1625/5/6
f 1624/5/6 1625/5/6 1626/5/6
f 1625/5/6 1623/5/6 1627/5/6
f 1626/5/6 1625/5/6 1627/5/6
f 1628/5/6 1629/5/6 1630/5/6
f 1630/5/6 1629/5/6 1631/5/6
f 1631/5/6 1629/5/6 1632/5/6
f 1632/5/6 1629/5/6 1633/5/6
f 1634/1/6 1635/1/6 1640/1/6
f 1640/1/6 1635/1/6 1641/1/6
f 1636/1/6 1637/1/6 1642/1/6
f 1642/1/6 1637/1/6 1643/1/6
f 1638/1/6 1639/1/6 1644/1/6
f 1644/1/6 1639/1/6 1645/1/6
f 1646/1/6 1647/1/6 1652/1/6
f 1652/1/6 1647/1/6 1653/1/6
f 1648/1/6 1649/1/6 1654/1/6
f 1654/1/6 1649/1/6 1655/1/6
f 1650/1/6 1651/1/6 1656/1/6
f 1656/1/6 1651/1/6 1657/1/6
f 1658/3/6 1659/3/6 1664/3/6
f 1664/3/6 1659/3/6 1665/3/6
f 1660/3/6 1661/3/6 1666/3/6
f 1666/3/6 1661/3/6 1667/3/6
f 1662/3/6 1663/3/6 1668/3/6
f 1668/3/6 1663/3/6 1669/3/6
f 1670/3/6 1671/3/6 1676/3/6
f 1676/3/6 1671/3/6 1677/3/6
f 1672/3/6 1673/3/6 1678/3/6
f 1678/3/6 1673/3/6 1679/3/6
f 1674/3/6 1675/3/6 1680/3/6
f 1680/3/6 1675/3/6 1681/3/6
f 1682/3/6 1683/3/6 1688/3/6
f 1688/3/6 1683/3/6 1689/3/6
f 1684/3/6 1685/3/6 1690/3/6
f 1690/3/6 1685/3/6 1691/3/6
f 1686/3/6 1687/3/6 1692/3/6
f 1692/3/6 1687/3/6 1693/3/6
f 1694/3/6 1695/3/6 1700/3/6
f 1700/3/6 1695/3/6 1701/3/6
f 1696/3/6 1697/3/6 1702/3/6
f 1702/3/6 1697/3/6 1703/3/6
f 1698/3/6 1699/3/6 1704/3/6
f 1704/3/6 1699/3/6 1705/3/6
f 1706/3/6 1707/3/6 1712/3/6
f 1712/3/6 1707/3/6 1713/3/6
f 1708/3/6 1709/3/6 1714/3/6
f 1714/3/6 1709/3/6 1715/3/6
f 1710/3/6 1711/3/6 1716/3/6
f 1716/3/6 1711/3/6 1717/3/6
f 1718/3/6 1719/3/6 1724/3/6
f 1724/3/6 1719/3/6 1725/3/6
f 1720/3/6 1721/3/6 1726/3/6
f 1726/3/6 1721/3/6 1727/3/6
f 1722/3/6 1723/3/6 1728/3/6
f 1728/3/6 1723/3/6 1729/3/6
f 1730/3/6 1731/3/6 1736/3/6
f 1736/3/6 1731/3/6 1737/3/6
f 1732/3/6 1733/3/6 1738/3/6
f 1738/3/6 1733/3/6 1739/3/6
f 1734/3/6 1735/3/6 1740/3/6
f 1740/3/6 1735/3/6 1741/3/6
f 1741/3/6 1735/3/6 1742/3/6
f 1743/3/6 1744/3/6 1750/3/6
f 1750/3/6 1744/3/6 1751/3/6
f 1745/3/6 1746/3/6 1752/3/6
f 1752/3/6 1746/3/6 1753/3/6
f 1748/3/6 1749/3/6 1754/3/6
f 1747/3/6 1748/3/6 1754/3/6
f 1754/3/6 1749/3/6 1755/3/6
f 1756/1/6 1757/1/6 1764/1/6
f 1764/1/6 1757/1/6 1765/1/6
f 1756/1/6 1764/1/6 1766/1/6
f 1756/1/6 1766/1/6 1768/1/6
f 1766/1/6 1767/1/6 1768/1/6
f 1768/1/6 1767/1/6 1769/1/6
f 1758/1/6 1759/1/6 1770/1/6
f 1770/1/6 1759/1/6 1771/1/6
f 1760/3/6 1761/3/6 1772/3/6
f 1772/3/6 1761/3/6 1773/3/6
f 1762/1/6 1763/1/6 1774/1/6
f 1774/1/6 1763/1/6 1775/1/6
f 1776/5/6 1777/5/6 1778/5/6
f 1781/5/6 1782/5/6 1783/5/6
f 1783/5/6 1782/5/6 1784/5/6
f 1776/5/6 1778/5/6 1785/5/6
f 1779/3/6 1780/3/6 1786/3/6
f 1786/3/6 1780/3/6 1787/3/6
f 1776/5/6 1785/5/6 1788/5/6
f 1788/5/6 1785/5/6 1789/5/6
f 1790/5/6 1791/5/6 1797/5/6
f 1796/5/6 1797/5/6 1798/5/6
f 1797/5/6 1791/5/6 1799/5/6
f 1798/5/6 1797/5/6 1799/5/6
f 1792/3/6 1793/3/6 1800/3/6
f 1800/3/6 1793/3/6 1801/3/6
f 1794/3/6 1795/3/6 1802/3/6
f 1802/3/6 1795/3/6 1803/3/6
f 1799/5/6 1791/5/6 1804/5/6
f 1804/5/6 1791/5/6 1805/5/6
f 1806/3/6 1807/3/6 1810/3/6
f 1810/3/6 1807/3/6 1811/3/6
f 1808/3/6 1809/3/6 1812/3/6
f 1812/3/6 1809/3/6 1813/3/6
f 1814/3/6 1815/3/6 1818/3/6
f 1818/3/6 1815/3/6 1819/3/6
f 1816/3/6 1817/3/6 1820/3/6
f 1820/3/6 1817/3/6 1821/3/6
f 1822/3/6 1823/3/6 1826/3/6
f 1826/3/6 1823/3/6 1827/3/6
f 1824/3/6 1825/3/6 1828/3/6
f 1828/3/6 1825/3/6 1829/3/6
f 1830/3/6 1831/3/6 1832/3/6
f 1832/3/6 1831/3/6 1833/3/6
