# MagicaVoxel @ Ephtracy

# group
o 

# material
mtllib car.mtl
usemtl palette

# normals
vn -1 0 0
vn 1 0 0
vn 0 0 1
vn 0 0 -1
vn 0 -1 0
vn 0 1 0

# texcoords
vt 0.0214844 0.5
vt 0.0917969 0.5
vt 0.587891 0.5
vt 0.705078 0.5
vt 0.845703 0.5
vt 0.962891 0.5
vt 0.974609 0.5
vt 0.982422 0.5
vt 0.994141 0.5

# verts
v -0.4 0.1 0.7
v -0.4 0.1 0.6
v -0.4 0.1 0.3
v -0.4 0.1 -0.2
v -0.4 0.1 -0.5
v -0.4 0.1 -0.6
v -0.4 0.2 0.7
v -0.4 0.2 0.6
v -0.4 0.2 0.3
v -0.4 0.2 -0.2
v -0.4 0.2 -0.5
v -0.4 0.2 -0.6
v -0.4 0.3 0.7
v -0.4 0.3 0.6
v -0.4 0.3 -0.5
v -0.4 0.3 -0.6
v -0.4 0.4 0.7
v -0.4 0.4 -0.6
v -0.3 0 0.6
v -0.3 0 0.3
v -0.3 0 -0.2
v -0.3 0 -0.5
v -0.3 0.1 0.6
v -0.3 0.1 0.5
v -0.3 0.1 0.4
v -0.3 0.1 0.3
v -0.3 0.1 -0.2
v -0.3 0.1 -0.3
v -0.3 0.1 -0.4
v -0.3 0.1 -0.5
v -0.3 0.2 0.6
v -0.3 0.2 0.5
v -0.3 0.2 0.4
v -0.3 0.2 0.3
v -0.3 0.2 -0.2
v -0.3 0.2 -0.3
v -0.3 0.2 -0.4
v -0.3 0.2 -0.5
v -0.3 0.4 0.4
v -0.3 0.4 0.3
v -0.3 0.4 0
v -0.3 0.4 -0.1
v -0.3 0.4 -0.4
v -0.3 0.4 -0.5
v -0.3 0.6 0.3
v -0.3 0.6 0
v -0.3 0.6 -0.1
v -0.3 0.6 -0.4
v -0.3 0.7 0.4
v -0.3 0.7 -0.5
v 0.2 0 0.6
v 0.2 0 0.3
v 0.2 0 -0.2
v 0.2 0 -0.5
v 0.2 0.1 0.6
v 0.2 0.1 0.3
v 0.2 0.1 -0.2
v 0.2 0.1 -0.5
v -0.2 0 0.6
v -0.2 0 0.3
v -0.2 0 -0.2
v -0.2 0 -0.5
v -0.2 0.1 0.6
v -0.2 0.1 0.3
v -0.2 0.1 -0.2
v -0.2 0.1 -0.5
v 0.3 0 0.6
v 0.3 0 0.3
v 0.3 0 -0.2
v 0.3 0 -0.5
v 0.3 0.1 0.6
v 0.3 0.1 0.5
v 0.3 0.1 0.4
v 0.3 0.1 0.3
v 0.3 0.1 -0.2
v 0.3 0.1 -0.3
v 0.3 0.1 -0.4
v 0.3 0.1 -0.5
v 0.3 0.2 0.6
v 0.3 0.2 0.5
v 0.3 0.2 0.4
v 0.3 0.2 0.3
v 0.3 0.2 -0.2
v 0.3 0.2 -0.3
v 0.3 0.2 -0.4
v 0.3 0.2 -0.5
v 0.3 0.4 0.4
v 0.3 0.4 0.3
v 0.3 0.4 0
v 0.3 0.4 -0.1
v 0.3 0.4 -0.4
v 0.3 0.4 -0.5
v 0.3 0.6 0.3
v 0.3 0.6 0
v 0.3 0.6 -0.1
v 0.3 0.6 -0.4
v 0.3 0.7 0.4
v 0.3 0.7 -0.5
v 0.4 0.1 0.7
v 0.4 0.1 0.6
v 0.4 0.1 0.3
v 0.4 0.1 -0.2
v 0.4 0.1 -0.5
v 0.4 0.1 -0.6
v 0.4 0.2 0.7
v 0.4 0.2 0.6
v 0.4 0.2 0.3
v 0.4 0.2 -0.2
v 0.4 0.2 -0.5
v 0.4 0.2 -0.6
v 0.4 0.3 0.7
v 0.4 0.3 0.6
v 0.4 0.3 -0.5
v 0.4 0.3 -0.6
v 0.4 0.4 0.7
v 0.4 0.4 -0.6
v -0.4 0.1 0.7
v -0.4 0.2 0.7
v -0.4 0.3 0.7
v -0.4 0.4 0.7
v -0.2 0.2 0.7
v -0.2 0.3 0.7
v -0.1 0.1 0.7
v -0.1 0.2 0.7
v 0.1 0.1 0.7
v 0.1 0.2 0.7
v 0.2 0.2 0.7
v 0.2 0.3 0.7
v 0.4 0.1 0.7
v 0.4 0.2 0.7
v 0.4 0.3 0.7
v 0.4 0.4 0.7
v -0.3 0 0.6
v -0.3 0.1 0.6
v -0.2 0 0.6
v -0.2 0.1 0.6
v 0.2 0 0.6
v 0.2 0.1 0.6
v 0.3 0 0.6
v 0.3 0.1 0.6
v -0.3 0.4 0.4
v -0.3 0.7 0.4
v -0.2 0.4 0.4
v -0.2 0.6 0.4
v 0.2 0.4 0.4
v 0.2 0.6 0.4
v 0.3 0.4 0.4
v 0.3 0.7 0.4
v -0.4 0.1 0.3
v -0.4 0.2 0.3
v -0.3 0.1 0.3
v -0.3 0.2 0.3
v 0.3 0.1 0.3
v 0.3 0.2 0.3
v 0.4 0.1 0.3
v 0.4 0.2 0.3
v -0.3 0 -0.2
v -0.3 0.1 -0.2
v -0.2 0 -0.2
v -0.2 0.1 -0.2
v 0.2 0 -0.2
v 0.2 0.1 -0.2
v 0.3 0 -0.2
v 0.3 0.1 -0.2
v -0.4 0.1 -0.5
v -0.4 0.2 -0.5
v -0.3 0.1 -0.5
v -0.3 0.2 -0.5
v 0.3 0.1 -0.5
v 0.3 0.2 -0.5
v 0.4 0.1 -0.5
v 0.4 0.2 -0.5
v -0.4 0.1 0.6
v -0.4 0.2 0.6
v -0.3 0.1 0.6
v -0.3 0.2 0.6
v 0.3 0.1 0.6
v 0.3 0.2 0.6
v 0.4 0.1 0.6
v 0.4 0.2 0.6
v -0.3 0 0.3
v -0.3 0.1 0.3
v -0.2 0 0.3
v -0.2 0.1 0.3
v 0.2 0 0.3
v 0.2 0.1 0.3
v 0.3 0 0.3
v 0.3 0.1 0.3
v -0.4 0.1 -0.2
v -0.4 0.2 -0.2
v -0.3 0.1 -0.2
v -0.3 0.2 -0.2
v 0.3 0.1 -0.2
v 0.3 0.2 -0.2
v 0.4 0.1 -0.2
v 0.4 0.2 -0.2
v -0.3 0 -0.5
v -0.3 0.1 -0.5
v -0.3 0.4 -0.5
v -0.3 0.7 -0.5
v -0.2 0 -0.5
v -0.2 0.1 -0.5
v -0.2 0.4 -0.5
v -0.2 0.6 -0.5
v 0.2 0 -0.5
v 0.2 0.1 -0.5
v 0.2 0.4 -0.5
v 0.2 0.6 -0.5
v 0.3 0 -0.5
v 0.3 0.1 -0.5
v 0.3 0.4 -0.5
v 0.3 0.7 -0.5
v -0.4 0.1 -0.6
v -0.4 0.2 -0.6
v -0.4 0.3 -0.6
v -0.4 0.4 -0.6
v -0.2 0.2 -0.6
v -0.2 0.3 -0.6
v -0.1 0.1 -0.6
v -0.1 0.2 -0.6
v 0.1 0.1 -0.6
v 0.1 0.2 -0.6
v 0.2 0.2 -0.6
v 0.2 0.3 -0.6
v 0.4 0.1 -0.6
v 0.4 0.2 -0.6
v 0.4 0.3 -0.6
v 0.4 0.4 -0.6
v -0.3 0 0.6
v -0.2 0 0.6
v 0.2 0 0.6
v 0.3 0 0.6
v -0.3 0 0.3
v -0.2 0 0.3
v 0.2 0 0.3
v 0.3 0 0.3
v -0.3 0 -0.2
v -0.2 0 -0.2
v 0.2 0 -0.2
v 0.3 0 -0.2
v -0.3 0 -0.5
v -0.2 0 -0.5
v 0.2 0 -0.5
v 0.3 0 -0.5
v -0.4 0.1 0.7
v -0.1 0.1 0.7
v 0.1 0.1 0.7
v 0.4 0.1 0.7
v -0.4 0.1 0.6
v -0.3 0.1 0.6
v -0.2 0.1 0.6
v -0.1 0.1 0.6
v 0.1 0.1 0.6
v 0.2 0.1 0.6
v 0.3 0.1 0.6
v 0.4 0.1 0.6
v -0.4 0.1 0.3
v -0.3 0.1 0.3
v -0.2 0.1 0.3
v 0.2 0.1 0.3
v 0.3 0.1 0.3
v 0.4 0.1 0.3
v -0.4 0.1 -0.2
v -0.3 0.1 -0.2
v -0.2 0.1 -0.2
v 0.2 0.1 -0.2
v 0.3 0.1 -0.2
v 0.4 0.1 -0.2
v -0.4 0.1 -0.5
v -0.3 0.1 -0.5
v -0.2 0.1 -0.5
v -0.1 0.1 -0.5
v 0.1 0.1 -0.5
v 0.2 0.1 -0.5
v 0.3 0.1 -0.5
v 0.4 0.1 -0.5
v -0.4 0.1 -0.6
v -0.1 0.1 -0.6
v 0.1 0.1 -0.6
v 0.4 0.1 -0.6
v -0.4 0.2 0.6
v -0.3 0.2 0.6
v 0.3 0.2 0.6
v 0.4 0.2 0.6
v -0.3 0.2 0.5
v 0.3 0.2 0.5
v -0.3 0.2 0.4
v 0.3 0.2 0.4
v -0.4 0.2 0.3
v -0.3 0.2 0.3
v 0.3 0.2 0.3
v 0.4 0.2 0.3
v -0.4 0.2 -0.2
v -0.3 0.2 -0.2
v 0.3 0.2 -0.2
v 0.4 0.2 -0.2
v -0.3 0.2 -0.3
v 0.3 0.2 -0.3
v -0.3 0.2 -0.4
v 0.3 0.2 -0.4
v -0.4 0.2 -0.5
v -0.3 0.2 -0.5
v 0.3 0.2 -0.5
v 0.4 0.2 -0.5
v -0.4 0.4 0.7
v 0.4 0.4 0.7
v -0.3 0.4 0.4
v -0.2 0.4 0.4
v 0.2 0.4 0.4
v 0.3 0.4 0.4
v -0.3 0.4 0.3
v 0.3 0.4 0.3
v -0.3 0.4 0
v 0.3 0.4 0
v -0.3 0.4 -0.1
v 0.3 0.4 -0.1
v -0.3 0.4 -0.4
v 0.3 0.4 -0.4
v -0.3 0.4 -0.5
v -0.2 0.4 -0.5
v 0.2 0.4 -0.5
v 0.3 0.4 -0.5
v -0.4 0.4 -0.6
v 0.4 0.4 -0.6
v -0.3 0.7 0.4
v 0.3 0.7 0.4
v -0.3 0.7 -0.5
v 0.3 0.7 -0.5

# faces
f 7/8/1 2/8/1 1/8/1
f 8/8/1 2/8/1 7/8/1
f 9/5/1 4/5/1 3/5/1
f 10/5/1 4/5/1 9/5/1
f 11/8/1 6/8/1 5/8/1
f 12/8/1 6/8/1 11/8/1
f 13/6/1 8/6/1 7/6/1
f 14/5/1 10/5/1 9/5/1
f 14/6/1 8/6/1 13/6/1
f 14/5/1 9/5/1 8/5/1
f 14/5/1 11/5/1 10/5/1
f 15/2/1 12/2/1 11/2/1
f 15/5/1 11/5/1 14/5/1
f 16/2/1 12/2/1 15/2/1
f 17/5/1 14/5/1 13/5/1
f 17/5/1 15/5/1 14/5/1
f 17/5/1 16/5/1 15/5/1
f 18/5/1 16/5/1 17/5/1
f 23/9/1 20/9/1 19/9/1
f 24/9/1 20/9/1 23/9/1
f 25/9/1 20/9/1 24/9/1
f 26/9/1 20/9/1 25/9/1
f 27/9/1 22/9/1 21/9/1
f 28/9/1 22/9/1 27/9/1
f 29/9/1 22/9/1 28/9/1
f 30/9/1 22/9/1 29/9/1
f 31/9/1 24/9/1 23/9/1
f 32/8/1 25/8/1 24/8/1
f 32/9/1 24/9/1 31/9/1
f 33/9/1 26/9/1 25/9/1
f 33/8/1 25/8/1 32/8/1
f 34/9/1 26/9/1 33/9/1
f 35/9/1 28/9/1 27/9/1
f 36/8/1 29/8/1 28/8/1
f 36/9/1 28/9/1 35/9/1
f 37/9/1 30/9/1 29/9/1
f 37/8/1 29/8/1 36/8/1
f 38/9/1 30/9/1 37/9/1
f 45/5/1 40/5/1 39/5/1
f 45/4/1 41/4/1 40/4/1
f 46/5/1 42/5/1 41/5/1
f 46/4/1 41/4/1 45/4/1
f 47/4/1 43/4/1 42/4/1
f 47/5/1 42/5/1 46/5/1
f 48/5/1 44/5/1 43/5/1
f 48/4/1 43/4/1 47/4/1
f 49/5/1 47/5/1 46/5/1
f 49/5/1 46/5/1 45/5/1
f 49/5/1 48/5/1 47/5/1
f 49/5/1 45/5/1 39/5/1
f 50/5/1 44/5/1 48/5/1
f 50/5/1 48/5/1 49/5/1
f 55/9/1 52/9/1 51/9/1
f 56/9/1 52/9/1 55/9/1
f 57/9/1 54/9/1 53/9/1
f 58/9/1 54/9/1 57/9/1
f 59/9/2 60/9/2 63/9/2
f 63/9/2 60/9/2 64/9/2
f 61/9/2 62/9/2 65/9/2
f 65/9/2 62/9/2 66/9/2
f 67/9/2 68/9/2 71/9/2
f 71/9/2 68/9/2 72/9/2
f 72/9/2 68/9/2 73/9/2
f 73/9/2 68/9/2 74/9/2
f 69/9/2 70/9/2 75/9/2
f 75/9/2 70/9/2 76/9/2
f 76/9/2 70/9/2 77/9/2
f 77/9/2 70/9/2 78/9/2
f 71/9/2 72/9/2 79/9/2
f 72/8/2 73/8/2 80/8/2
f 79/9/2 72/9/2 80/9/2
f 73/9/2 74/9/2 81/9/2
f 80/8/2 73/8/2 81/8/2
f 81/9/2 74/9/2 82/9/2
f 75/9/2 76/9/2 83/9/2
f 76/8/2 77/8/2 84/8/2
f 83/9/2 76/9/2 84/9/2
f 77/9/2 78/9/2 85/9/2
f 84/8/2 77/8/2 85/8/2
f 85/9/2 78/9/2 86/9/2
f 87/5/2 88/5/2 93/5/2
f 88/3/2 89/3/2 93/3/2
f 89/5/2 90/5/2 94/5/2
f 93/3/2 89/3/2 94/3/2
f 90/3/2 91/3/2 95/3/2
f 94/5/2 90/5/2 95/5/2
f 91/5/2 92/5/2 96/5/2
f 95/3/2 91/3/2 96/3/2
f 94/5/2 95/5/2 97/5/2
f 93/5/2 94/5/2 97/5/2
f 95/5/2 96/5/2 97/5/2
f 87/5/2 93/5/2 97/5/2
f 96/5/2 92/5/2 98/5/2
f 97/5/2 96/5/2 98/5/2
f 99/8/2 100/8/2 105/8/2
f 105/8/2 100/8/2 106/8/2
f 101/5/2 102/5/2 107/5/2
f 107/5/2 102/5/2 108/5/2
f 103/8/2 104/8/2 109/8/2
f 109/8/2 104/8/2 110/8/2
f 105/6/2 106/6/2 111/6/2
f 107/5/2 108/5/2 112/5/2
f 111/6/2 106/6/2 112/6/2
f 106/5/2 107/5/2 112/5/2
f 108/5/2 109/5/2 112/5/2
f 109/2/2 110/2/2 113/2/2
f 112/5/2 109/5/2 113/5/2
f 113/2/2 110/2/2 114/2/2
f 111/5/2 112/5/2 115/5/2
f 112/5/2 113/5/2 115/5/2
f 113/5/2 114/5/2 115/5/2
f 115/5/2 114/5/2 116/5/2
f 121/8/3 118/8/3 117/8/3
f 121/6/3 119/6/3 118/6/3
f 122/5/3 120/5/3 119/5/3
f 122/6/3 119/6/3 121/6/3
f 123/8/3 121/8/3 117/8/3
f 124/5/3 122/5/3 121/5/3
f 124/8/3 121/8/3 123/8/3
f 125/1/3 124/1/3 123/1/3
f 126/5/3 122/5/3 124/5/3
f 126/1/3 124/1/3 125/1/3
f 127/8/3 126/8/3 125/8/3
f 127/5/3 122/5/3 126/5/3
f 128/5/3 120/5/3 122/5/3
f 128/5/3 122/5/3 127/5/3
f 129/8/3 127/8/3 125/8/3
f 130/6/3 128/6/3 127/6/3
f 130/8/3 127/8/3 129/8/3
f 131/5/3 120/5/3 128/5/3
f 131/6/3 128/6/3 130/6/3
f 132/5/3 120/5/3 131/5/3
f 135/9/3 134/9/3 133/9/3
f 136/9/3 134/9/3 135/9/3
f 139/9/3 138/9/3 137/9/3
f 140/9/3 138/9/3 139/9/3
f 143/5/3 142/5/3 141/5/3
f 144/5/3 142/5/3 143/5/3
f 145/3/3 144/3/3 143/3/3
f 146/5/3 142/5/3 144/5/3
f 146/3/3 144/3/3 145/3/3
f 147/5/3 146/5/3 145/5/3
f 148/5/3 142/5/3 146/5/3
f 148/5/3 146/5/3 147/5/3
f 151/5/3 150/5/3 149/5/3
f 152/5/3 150/5/3 151/5/3
f 155/5/3 154/5/3 153/5/3
f 156/5/3 154/5/3 155/5/3
f 159/9/3 158/9/3 157/9/3
f 160/9/3 158/9/3 159/9/3
f 163/9/3 162/9/3 161/9/3
f 164/9/3 162/9/3 163/9/3
f 167/8/3 166/8/3 165/8/3
f 168/8/3 166/8/3 167/8/3
f 171/8/3 170/8/3 169/8/3
f 172/8/3 170/8/3 171/8/3
f 173/8/4 174/8/4 175/8/4
f 175/8/4 174/8/4 176/8/4
f 177/8/4 178/8/4 179/8/4
f 179/8/4 178/8/4 180/8/4
f 181/9/4 182/9/4 183/9/4
f 183/9/4 182/9/4 184/9/4
f 185/9/4 186/9/4 187/9/4
f 187/9/4 186/9/4 188/9/4
f 189/5/4 190/5/4 191/5/4
f 191/5/4 190/5/4 192/5/4
f 193/5/4 194/5/4 195/5/4
f 195/5/4 194/5/4 196/5/4
f 197/9/4 198/9/4 201/9/4
f 201/9/4 198/9/4 202/9/4
f 199/5/4 200/5/4 203/5/4
f 203/5/4 200/5/4 204/5/4
f 203/3/4 204/3/4 207/3/4
f 204/5/4 200/5/4 208/5/4
f 207/3/4 204/3/4 208/3/4
f 205/9/4 206/9/4 209/9/4
f 209/9/4 206/9/4 210/9/4
f 207/5/4 208/5/4 211/5/4
f 208/5/4 200/5/4 212/5/4
f 211/5/4 208/5/4 212/5/4
f 213/8/4 214/8/4 217/8/4
f 214/2/4 215/2/4 217/2/4
f 215/5/4 216/5/4 218/5/4
f 217/2/4 215/2/4 218/2/4
f 213/8/4 217/8/4 219/8/4
f 217/5/4 218/5/4 220/5/4
f 219/8/4 217/8/4 220/8/4
f 219/1/4 220/1/4 221/1/4
f 220/5/4 218/5/4 222/5/4
f 221/1/4 220/1/4 222/1/4
f 221/8/4 222/8/4 223/8/4
f 222/5/4 218/5/4 223/5/4
f 218/5/4 216/5/4 224/5/4
f 223/5/4 218/5/4 224/5/4
f 221/8/4 223/8/4 225/8/4
f 223/2/4 224/2/4 226/2/4
f 225/8/4 223/8/4 226/8/4
f 224/5/4 216/5/4 227/5/4
f 226/2/4 224/2/4 227/2/4
f 227/5/4 216/5/4 228/5/4
f 233/9/5 230/9/5 229/9/5
f 234/9/5 230/9/5 233/9/5
f 235/9/5 232/9/5 231/9/5
f 236/9/5 232/9/5 235/9/5
f 241/9/5 238/9/5 237/9/5
f 242/9/5 238/9/5 241/9/5
f 243/9/5 240/9/5 239/9/5
f 244/9/5 240/9/5 243/9/5
f 249/8/5 246/8/5 245/8/5
f 250/8/5 246/8/5 249/8/5
f 251/8/5 246/8/5 250/8/5
f 252/1/5 247/1/5 246/1/5
f 252/8/5 246/8/5 251/8/5
f 253/8/5 248/8/5 247/8/5
f 253/1/5 247/1/5 252/1/5
f 254/8/5 248/8/5 253/8/5
f 255/8/5 248/8/5 254/8/5
f 256/8/5 248/8/5 255/8/5
f 259/7/5 252/7/5 251/7/5
f 259/7/5 254/7/5 253/7/5
f 259/7/5 253/7/5 252/7/5
f 260/7/5 254/7/5 259/7/5
f 263/5/5 258/5/5 257/5/5
f 264/7/5 259/7/5 258/7/5
f 264/5/5 258/5/5 263/5/5
f 264/7/5 260/7/5 259/7/5
f 264/7/5 261/7/5 260/7/5
f 265/7/5 261/7/5 264/7/5
f 266/7/5 261/7/5 265/7/5
f 267/5/5 262/5/5 261/5/5
f 267/7/5 261/7/5 266/7/5
f 268/5/5 262/5/5 267/5/5
f 271/7/5 266/7/5 265/7/5
f 272/7/5 266/7/5 271/7/5
f 273/7/5 266/7/5 272/7/5
f 274/7/5 266/7/5 273/7/5
f 277/8/5 270/8/5 269/8/5
f 277/8/5 271/8/5 270/8/5
f 277/8/5 272/8/5 271/8/5
f 278/1/5 273/1/5 272/1/5
f 278/8/5 272/8/5 277/8/5
f 279/8/5 276/8/5 275/8/5
f 279/1/5 273/1/5 278/1/5
f 279/8/5 275/8/5 274/8/5
f 279/8/5 274/8/5 273/8/5
f 280/8/5 276/8/5 279/8/5
f 285/5/5 282/5/5 281/5/5
f 286/5/5 284/5/5 283/5/5
f 287/5/5 285/5/5 281/5/5
f 288/5/5 284/5/5 286/5/5
f 289/5/5 287/5/5 281/5/5
f 290/5/5 287/5/5 289/5/5
f 291/5/5 284/5/5 288/5/5
f 292/5/5 284/5/5 291/5/5
f 297/5/5 294/5/5 293/5/5
f 298/5/5 296/5/5 295/5/5
f 299/5/5 297/5/5 293/5/5
f 300/5/5 296/5/5 298/5/5
f 301/5/5 299/5/5 293/5/5
f 302/5/5 299/5/5 301/5/5
f 303/5/5 296/5/5 300/5/5
f 304/5/5 296/5/5 303/5/5
f 305/5/6 306/5/6 307/5/6
f 307/5/6 306/5/6 308/5/6
f 308/5/6 306/5/6 309/5/6
f 309/5/6 306/5/6 310/5/6
f 305/5/6 307/5/6 311/5/6
f 310/5/6 306/5/6 312/5/6
f 305/5/6 311/5/6 313/5/6
f 312/5/6 306/5/6 314/5/6
f 305/5/6 313/5/6 315/5/6
f 314/5/6 306/5/6 316/5/6
f 305/5/6 315/5/6 317/5/6
f 316/5/6 306/5/6 318/5/6
f 305/5/6 317/5/6 319/5/6
f 318/5/6 306/5/6 322/5/6
f 320/5/6 321/5/6 323/5/6
f 321/5/6 322/5/6 323/5/6
f 305/5/6 319/5/6 323/5/6
f 319/5/6 320/5/6 323/5/6
f 322/5/6 306/5/6 324/5/6
f 323/5/6 322/5/6 324/5/6
f 325/5/6 326/5/6 327/5/6
f 327/5/6 326/5/6 328/5/6
