# MagicaVoxel @ Ephtracy

# group
o 

# material
mtllib car_red.mtl
usemtl palette

# normals
vn -1 0 0
vn 1 0 0
vn 0 0 1
vn 0 0 -1
vn 0 -1 0
vn 0 1 0

# texcoords
vt 0.0214844 0.5
vt 0.0917969 0.5
vt 0.587891 0.5
vt 0.845703 0.5
vt 0.962891 0.5
vt 0.974609 0.5
vt 0.982422 0.5
vt 0.994141 0.5

# verts
v -0.4 0.1 0.7
v -0.4 0.1 0.6
v -0.4 0.1 0.3
v -0.4 0.1 -0.2
v -0.4 0.1 -0.5
v -0.4 0.1 -0.6
v -0.4 0.2 0.7
v -0.4 0.2 0.6
v -0.4 0.2 0.3
v -0.4 0.2 -0.2
v -0.4 0.2 -0.5
v -0.4 0.2 -0.6
v -0.4 0.3 0.7
v -0.4 0.3 0.6
v -0.4 0.3 -0.5
v -0.4 0.3 -0.6
v -0.4 0.4 0.7
v -0.4 0.4 -0.6
v -0.3 0 0.6
v -0.3 0 0.3
v -0.3 0 -0.2
v -0.3 0 -0.5
v -0.3 0.1 0.6
v -0.3 0.1 0.5
v -0.3 0.1 0.4
v -0.3 0.1 0.3
v -0.3 0.1 -0.2
v -0.3 0.1 -0.3
v -0.3 0.1 -0.4
v -0.3 0.1 -0.5
v -0.3 0.2 0.6
v -0.3 0.2 0.5
v -0.3 0.2 0.4
v -0.3 0.2 0.3
v -0.3 0.2 -0.2
v -0.3 0.2 -0.3
v -0.3 0.2 -0.4
v -0.3 0.2 -0.5
v -0.3 0.4 0.4
v -0.3 0.4 0.3
v -0.3 0.4 0
v -0.3 0.4 -0.1
v -0.3 0.4 -0.4
v -0.3 0.4 -0.5
v -0.3 0.6 0.3
v -0.3 0.6 0
v -0.3 0.6 -0.1
v -0.3 0.6 -0.4
v -0.3 0.7 0.4
v -0.3 0.7 -0.5
v 0.2 0 0.6
v 0.2 0 0.3
v 0.2 0 -0.2
v 0.2 0 -0.5
v 0.2 0.1 0.6
v 0.2 0.1 0.3
v 0.2 0.1 -0.2
v 0.2 0.1 -0.5
v -0.2 0 0.6
v -0.2 0 0.3
v -0.2 0 -0.2
v -0.2 0 -0.5
v -0.2 0.1 0.6
v -0.2 0.1 0.3
v -0.2 0.1 -0.2
v -0.2 0.1 -0.5
v 0.3 0 0.6
v 0.3 0 0.3
v 0.3 0 -0.2
v 0.3 0 -0.5
v 0.3 0.1 0.6
v 0.3 0.1 0.5
v 0.3 0.1 0.4
v 0.3 0.1 0.3
v 0.3 0.1 -0.2
v 0.3 0.1 -0.3
v 0.3 0.1 -0.4
v 0.3 0.1 -0.5
v 0.3 0.2 0.6
v 0.3 0.2 0.5
v 0.3 0.2 0.4
v 0.3 0.2 0.3
v 0.3 0.2 -0.2
v 0.3 0.2 -0.3
v 0.3 0.2 -0.4
v 0.3 0.2 -0.5
v 0.3 0.4 0.4
v 0.3 0.4 0.3
v 0.3 0.4 0
v 0.3 0.4 -0.1
v 0.3 0.4 -0.4
v 0.3 0.4 -0.5
v 0.3 0.6 0.3
v 0.3 0.6 0
v 0.3 0.6 -0.1
v 0.3 0.6 -0.4
v 0.3 0.7 0.4
v 0.3 0.7 -0.5
v 0.4 0.1 0.7
v 0.4 0.1 0.6
v 0.4 0.1 0.3
v 0.4 0.1 -0.2
v 0.4 0.1 -0.5
v 0.4 0.1 -0.6
v 0.4 0.2 0.7
v 0.4 0.2 0.6
v 0.4 0.2 0.3
v 0.4 0.2 -0.2
v 0.4 0.2 -0.5
v 0.4 0.2 -0.6
v 0.4 0.3 0.7
v 0.4 0.3 0.6
v 0.4 0.3 -0.5
v 0.4 0.3 -0.6
v 0.4 0.4 0.7
v 0.4 0.4 -0.6
v -0.4 0.1 0.7
v -0.4 0.2 0.7
v -0.4 0.3 0.7
v -0.4 0.4 0.7
v -0.2 0.2 0.7
v -0.2 0.3 0.7
v -0.1 0.1 0.7
v -0.1 0.2 0.7
v 0.1 0.1 0.7
v 0.1 0.2 0.7
v 0.2 0.2 0.7
v 0.2 0.3 0.7
v 0.4 0.1 0.7
v 0.4 0.2 0.7
v 0.4 0.3 0.7
v 0.4 0.4 0.7
v -0.3 0 0.6
v -0.3 0.1 0.6
v -0.2 0 0.6
v -0.2 0.1 0.6
v 0.2 0 0.6
v 0.2 0.1 0.6
v 0.3 0 0.6
v 0.3 0.1 0.6
v -0.3 0.4 0.4
v -0.3 0.7 0.4
v -0.2 0.4 0.4
v -0.2 0.6 0.4
v 0.2 0.4 0.4
v 0.2 0.6 0.4
v 0.3 0.4 0.4
v 0.3 0.7 0.4
v -0.4 0.1 0.3
v -0.4 0.2 0.3
v -0.3 0.1 0.3
v -0.3 0.2 0.3
v 0.3 0.1 0.3
v 0.3 0.2 0.3
v 0.4 0.1 0.3
v 0.4 0.2 0.3
v -0.3 0 -0.2
v -0.3 0.1 -0.2
v -0.2 0 -0.2
v -0.2 0.1 -0.2
v 0.2 0 -0.2
v 0.2 0.1 -0.2
v 0.3 0 -0.2
v 0.3 0.1 -0.2
v -0.4 0.1 -0.5
v -0.4 0.2 -0.5
v -0.3 0.1 -0.5
v -0.3 0.2 -0.5
v 0.3 0.1 -0.5
v 0.3 0.2 -0.5
v 0.4 0.1 -0.5
v 0.4 0.2 -0.5
v -0.4 0.1 0.6
v -0.4 0.2 0.6
v -0.3 0.1 0.6
v -0.3 0.2 0.6
v 0.3 0.1 0.6
v 0.3 0.2 0.6
v 0.4 0.1 0.6
v 0.4 0.2 0.6
v -0.3 0 0.3
v -0.3 0.1 0.3
v -0.2 0 0.3
v -0.2 0.1 0.3
v 0.2 0 0.3
v 0.2 0.1 0.3
v 0.3 0 0.3
v 0.3 0.1 0.3
v -0.4 0.1 -0.2
v -0.4 0.2 -0.2
v -0.3 0.1 -0.2
v -0.3 0.2 -0.2
v 0.3 0.1 -0.2
v 0.3 0.2 -0.2
v 0.4 0.1 -0.2
v 0.4 0.2 -0.2
v -0.3 0 -0.5
v -0.3 0.1 -0.5
v -0.3 0.4 -0.5
v -0.3 0.7 -0.5
v -0.2 0 -0.5
v -0.2 0.1 -0.5
v -0.2 0.4 -0.5
v -0.2 0.6 -0.5
v 0.2 0 -0.5
v 0.2 0.1 -0.5
v 0.2 0.4 -0.5
v 0.2 0.6 -0.5
v 0.3 0 -0.5
v 0.3 0.1 -0.5
v 0.3 0.4 -0.5
v 0.3 0.7 -0.5
v -0.4 0.1 -0.6
v -0.4 0.2 -0.6
v -0.4 0.3 -0.6
v -0.4 0.4 -0.6
v -0.2 0.2 -0.6
v -0.2 0.3 -0.6
v -0.1 0.1 -0.6
v -0.1 0.2 -0.6
v 0.1 0.1 -0.6
v 0.1 0.2 -0.6
v 0.2 0.2 -0.6
v 0.2 0.3 -0.6
v 0.4 0.1 -0.6
v 0.4 0.2 -0.6
v 0.4 0.3 -0.6
v 0.4 0.4 -0.6
v -0.3 0 0.6
v -0.2 0 0.6
v 0.2 0 0.6
v 0.3 0 0.6
v -0.3 0 0.3
v -0.2 0 0.3
v 0.2 0 0.3
v 0.3 0 0.3
v -0.3 0 -0.2
v -0.2 0 -0.2
v 0.2 0 -0.2
v 0.3 0 -0.2
v -0.3 0 -0.5
v -0.2 0 -0.5
v 0.2 0 -0.5
v 0.3 0 -0.5
v -0.4 0.1 0.7
v -0.1 0.1 0.7
v 0.1 0.1 0.7
v 0.4 0.1 0.7
v -0.4 0.1 0.6
v -0.3 0.1 0.6
v -0.2 0.1 0.6
v -0.1 0.1 0.6
v 0.1 0.1 0.6
v 0.2 0.1 0.6
v 0.3 0.1 0.6
v 0.4 0.1 0.6
v -0.4 0.1 0.3
v -0.3 0.1 0.3
v -0.2 0.1 0.3
v 0.2 0.1 0.3
v 0.3 0.1 0.3
v 0.4 0.1 0.3
v -0.4 0.1 -0.2
v -0.3 0.1 -0.2
v -0.2 0.1 -0.2
v 0.2 0.1 -0.2
v 0.3 0.1 -0.2
v 0.4 0.1 -0.2
v -0.4 0.1 -0.5
v -0.3 0.1 -0.5
v -0.2 0.1 -0.5
v -0.1 0.1 -0.5
v 0.1 0.1 -0.5
v 0.2 0.1 -0.5
v 0.3 0.1 -0.5
v 0.4 0.1 -0.5
v -0.4 0.1 -0.6
v -0.1 0.1 -0.6
v 0.1 0.1 -0.6
v 0.4 0.1 -0.6
v -0.4 0.2 0.6
v -0.3 0.2 0.6
v 0.3 0.2 0.6
v 0.4 0.2 0.6
v -0.3 0.2 0.5
v 0.3 0.2 0.5
v -0.3 0.2 0.4
v 0.3 0.2 0.4
v -0.4 0.2 0.3
v -0.3 0.2 0.3
v 0.3 0.2 0.3
v 0.4 0.2 0.3
v -0.4 0.2 -0.2
v -0.3 0.2 -0.2
v 0.3 0.2 -0.2
v 0.4 0.2 -0.2
v -0.3 0.2 -0.3
v 0.3 0.2 -0.3
v -0.3 0.2 -0.4
v 0.3 0.2 -0.4
v -0.4 0.2 -0.5
v -0.3 0.2 -0.5
v 0.3 0.2 -0.5
v 0.4 0.2 -0.5
v -0.4 0.4 0.7
v 0.4 0.4 0.7
v -0.3 0.4 0.4
v -0.2 0.4 0.4
v 0.2 0.4 0.4
v 0.3 0.4 0.4
v -0.3 0.4 0.3
v 0.3 0.4 0.3
v -0.3 0.4 0
v 0.3 0.4 0
v -0.3 0.4 -0.1
v 0.3 0.4 -0.1
v -0.3 0.4 -0.4
v 0.3 0.4 -0.4
v -0.3 0.4 -0.5
v -0.2 0.4 -0.5
v 0.2 0.4 -0.5
v 0.3 0.4 -0.5
v -0.4 0.4 -0.6
v 0.4 0.4 -0.6
v -0.3 0.7 0.4
v 0.3 0.7 0.4
v -0.3 0.7 -0.5
v 0.3 0.7 -0.5

# faces
f 7/7/1 2/7/1 1/7/1
f 8/7/1 2/7/1 7/7/1
f 9/4/1 4/4/1 3/4/1
f 10/4/1 4/4/1 9/4/1
f 11/7/1 6/7/1 5/7/1
f 12/7/1 6/7/1 11/7/1
f 13/5/1 8/5/1 7/5/1
f 14/4/1 10/4/1 9/4/1
f 14/5/1 8/5/1 13/5/1
f 14/4/1 9/4/1 8/4/1
f 14/4/1 11/4/1 10/4/1
f 15/2/1 12/2/1 11/2/1
f 15/4/1 11/4/1 14/4/1
f 16/2/1 12/2/1 15/2/1
f 17/4/1 14/4/1 13/4/1
f 17/4/1 15/4/1 14/4/1
f 17/4/1 16/4/1 15/4/1
f 18/4/1 16/4/1 17/4/1
f 23/8/1 20/8/1 19/8/1
f 24/8/1 20/8/1 23/8/1
f 25/8/1 20/8/1 24/8/1
f 26/8/1 20/8/1 25/8/1
f 27/8/1 22/8/1 21/8/1
f 28/8/1 22/8/1 27/8/1
f 29/8/1 22/8/1 28/8/1
f 30/8/1 22/8/1 29/8/1
f 31/8/1 24/8/1 23/8/1
f 32/7/1 25/7/1 24/7/1
f 32/8/1 24/8/1 31/8/1
f 33/8/1 26/8/1 25/8/1
f 33/7/1 25/7/1 32/7/1
f 34/8/1 26/8/1 33/8/1
f 35/8/1 28/8/1 27/8/1
f 36/7/1 29/7/1 28/7/1
f 36/8/1 28/8/1 35/8/1
f 37/8/1 30/8/1 29/8/1
f 37/7/1 29/7/1 36/7/1
f 38/8/1 30/8/1 37/8/1
f 45/4/1 40/4/1 39/4/1
f 45/3/1 41/3/1 40/3/1
f 46/4/1 42/4/1 41/4/1
f 46/3/1 41/3/1 45/3/1
f 47/3/1 43/3/1 42/3/1
f 47/4/1 42/4/1 46/4/1
f 48/4/1 44/4/1 43/4/1
f 48/3/1 43/3/1 47/3/1
f 49/4/1 47/4/1 46/4/1
f 49/4/1 46/4/1 45/4/1
f 49/4/1 48/4/1 47/4/1
f 49/4/1 45/4/1 39/4/1
f 50/4/1 44/4/1 48/4/1
f 50/4/1 48/4/1 49/4/1
f 55/8/1 52/8/1 51/8/1
f 56/8/1 52/8/1 55/8/1
f 57/8/1 54/8/1 53/8/1
f 58/8/1 54/8/1 57/8/1
f 59/8/2 60/8/2 63/8/2
f 63/8/2 60/8/2 64/8/2
f 61/8/2 62/8/2 65/8/2
f 65/8/2 62/8/2 66/8/2
f 67/8/2 68/8/2 71/8/2
f 71/8/2 68/8/2 72/8/2
f 72/8/2 68/8/2 73/8/2
f 73/8/2 68/8/2 74/8/2
f 69/8/2 70/8/2 75/8/2
f 75/8/2 70/8/2 76/8/2
f 76/8/2 70/8/2 77/8/2
f 77/8/2 70/8/2 78/8/2
f 71/8/2 72/8/2 79/8/2
f 72/7/2 73/7/2 80/7/2
f 79/8/2 72/8/2 80/8/2
f 73/8/2 74/8/2 81/8/2
f 80/7/2 73/7/2 81/7/2
f 81/8/2 74/8/2 82/8/2
f 75/8/2 76/8/2 83/8/2
f 76/7/2 77/7/2 84/7/2
f 83/8/2 76/8/2 84/8/2
f 77/8/2 78/8/2 85/8/2
f 84/7/2 77/7/2 85/7/2
f 85/8/2 78/8/2 86/8/2
f 87/4/2 88/4/2 93/4/2
f 88/3/2 89/3/2 93/3/2
f 89/4/2 90/4/2 94/4/2
f 93/3/2 89/3/2 94/3/2
f 90/3/2 91/3/2 95/3/2
f 94/4/2 90/4/2 95/4/2
f 91/4/2 92/4/2 96/4/2
f 95/3/2 91/3/2 96/3/2
f 94/4/2 95/4/2 97/4/2
f 93/4/2 94/4/2 97/4/2
f 95/4/2 96/4/2 97/4/2
f 87/4/2 93/4/2 97/4/2
f 96/4/2 92/4/2 98/4/2
f 97/4/2 96/4/2 98/4/2
f 99/7/2 100/7/2 105/7/2
f 105/7/2 100/7/2 106/7/2
f 101/4/2 102/4/2 107/4/2
f 107/4/2 102/4/2 108/4/2
f 103/7/2 104/7/2 109/7/2
f 109/7/2 104/7/2 110/7/2
f 105/5/2 106/5/2 111/5/2
f 107/4/2 108/4/2 112/4/2
f 111/5/2 106/5/2 112/5/2
f 106/4/2 107/4/2 112/4/2
f 108/4/2 109/4/2 112/4/2
f 109/2/2 110/2/2 113/2/2
f 112/4/2 109/4/2 113/4/2
f 113/2/2 110/2/2 114/2/2
f 111/4/2 112/4/2 115/4/2
f 112/4/2 113/4/2 115/4/2
f 113/4/2 114/4/2 115/4/2
f 115/4/2 114/4/2 116/4/2
f 121/7/3 118/7/3 117/7/3
f 121/5/3 119/5/3 118/5/3
f 122/4/3 120/4/3 119/4/3
f 122/5/3 119/5/3 121/5/3
f 123/7/3 121/7/3 117/7/3
f 124/4/3 122/4/3 121/4/3
f 124/7/3 121/7/3 123/7/3
f 125/1/3 124/1/3 123/1/3
f 126/4/3 122/4/3 124/4/3
f 126/1/3 124/1/3 125/1/3
f 127/7/3 126/7/3 125/7/3
f 127/4/3 122/4/3 126/4/3
f 128/4/3 120/4/3 122/4/3
f 128/4/3 122/4/3 127/4/3
f 129/7/3 127/7/3 125/7/3
f 130/5/3 128/5/3 127/5/3
f 130/7/3 127/7/3 129/7/3
f 131/4/3 120/4/3 128/4/3
f 131/5/3 128/5/3 130/5/3
f 132/4/3 120/4/3 131/4/3
f 135/8/3 134/8/3 133/8/3
f 136/8/3 134/8/3 135/8/3
f 139/8/3 138/8/3 137/8/3
f 140/8/3 138/8/3 139/8/3
f 143/4/3 142/4/3 141/4/3
f 144/4/3 142/4/3 143/4/3
f 145/3/3 144/3/3 143/3/3
f 146/4/3 142/4/3 144/4/3
f 146/3/3 144/3/3 145/3/3
f 147/4/3 146/4/3 145/4/3
f 148/4/3 142/4/3 146/4/3
f 148/4/3 146/4/3 147/4/3
f 151/4/3 150/4/3 149/4/3
f 152/4/3 150/4/3 151/4/3
f 155/4/3 154/4/3 153/4/3
f 156/4/3 154/4/3 155/4/3
f 159/8/3 158/8/3 157/8/3
f 160/8/3 158/8/3 159/8/3
f 163/8/3 162/8/3 161/8/3
f 164/8/3 162/8/3 163/8/3
f 167/7/3 166/7/3 165/7/3
f 168/7/3 166/7/3 167/7/3
f 171/7/3 170/7/3 169/7/3
f 172/7/3 170/7/3 171/7/3
f 173/7/4 174/7/4 175/7/4
f 175/7/4 174/7/4 176/7/4
f 177/7/4 178/7/4 179/7/4
f 179/7/4 178/7/4 180/7/4
f 181/8/4 182/8/4 183/8/4
f 183/8/4 182/8/4 184/8/4
f 185/8/4 186/8/4 187/8/4
f 187/8/4 186/8/4 188/8/4
f 189/4/4 190/4/4 191/4/4
f 191/4/4 190/4/4 192/4/4
f 193/4/4 194/4/4 195/4/4
f 195/4/4 194/4/4 196/4/4
f 197/8/4 198/8/4 201/8/4
f 201/8/4 198/8/4 202/8/4
f 199/4/4 200/4/4 203/4/4
f 203/4/4 200/4/4 204/4/4
f 203/3/4 204/3/4 207/3/4
f 204/4/4 200/4/4 208/4/4
f 207/3/4 204/3/4 208/3/4
f 205/8/4 206/8/4 209/8/4
f 209/8/4 206/8/4 210/8/4
f 207/4/4 208/4/4 211/4/4
f 208/4/4 200/4/4 212/4/4
f 211/4/4 208/4/4 212/4/4
f 213/7/4 214/7/4 217/7/4
f 214/2/4 215/2/4 217/2/4
f 215/4/4 216/4/4 218/4/4
f 217/2/4 215/2/4 218/2/4
f 213/7/4 217/7/4 219/7/4
f 217/4/4 218/4/4 220/4/4
f 219/7/4 217/7/4 220/7/4
f 219/1/4 220/1/4 221/1/4
f 220/4/4 218/4/4 222/4/4
f 221/1/4 220/1/4 222/1/4
f 221/7/4 222/7/4 223/7/4
f 222/4/4 218/4/4 223/4/4
f 218/4/4 216/4/4 224/4/4
f 223/4/4 218/4/4 224/4/4
f 221/7/4 223/7/4 225/7/4
f 223/2/4 224/2/4 226/2/4
f 225/7/4 223/7/4 226/7/4
f 224/4/4 216/4/4 227/4/4
f 226/2/4 224/2/4 227/2/4
f 227/4/4 216/4/4 228/4/4
f 233/8/5 230/8/5 229/8/5
f 234/8/5 230/8/5 233/8/5
f 235/8/5 232/8/5 231/8/5
f 236/8/5 232/8/5 235/8/5
f 241/8/5 238/8/5 237/8/5
f 242/8/5 238/8/5 241/8/5
f 243/8/5 240/8/5 239/8/5
f 244/8/5 240/8/5 243/8/5
f 249/7/5 246/7/5 245/7/5
f 250/7/5 246/7/5 249/7/5
f 251/7/5 246/7/5 250/7/5
f 252/1/5 247/1/5 246/1/5
f 252/7/5 246/7/5 251/7/5
f 253/7/5 248/7/5 247/7/5
f 253/1/5 247/1/5 252/1/5
f 254/7/5 248/7/5 253/7/5
f 255/7/5 248/7/5 254/7/5
f 256/7/5 248/7/5 255/7/5
f 259/6/5 252/6/5 251/6/5
f 259/6/5 254/6/5 253/6/5
f 259/6/5 253/6/5 252/6/5
f 260/6/5 254/6/5 259/6/5
f 263/4/5 258/4/5 257/4/5
f 264/6/5 259/6/5 258/6/5
f 264/4/5 258/4/5 263/4/5
f 264/6/5 260/6/5 259/6/5
f 264/6/5 261/6/5 260/6/5
f 265/6/5 261/6/5 264/6/5
f 266/6/5 261/6/5 265/6/5
f 267/4/5 262/4/5 261/4/5
f 267/6/5 261/6/5 266/6/5
f 268/4/5 262/4/5 267/4/5
f 271/6/5 266/6/5 265/6/5
f 272/6/5 266/6/5 271/6/5
f 273/6/5 266/6/5 272/6/5
f 274/6/5 266/6/5 273/6/5
f 277/7/5 270/7/5 269/7/5
f 277/7/5 271/7/5 270/7/5
f 277/7/5 272/7/5 271/7/5
f 278/1/5 273/1/5 272/1/5
f 278/7/5 272/7/5 277/7/5
f 279/7/5 276/7/5 275/7/5
f 279/1/5 273/1/5 278/1/5
f 279/7/5 275/7/5 274/7/5
f 279/7/5 274/7/5 273/7/5
f 280/7/5 276/7/5 279/7/5
f 285/4/5 282/4/5 281/4/5
f 286/4/5 284/4/5 283/4/5
f 287/4/5 285/4/5 281/4/5
f 288/4/5 284/4/5 286/4/5
f 289/4/5 287/4/5 281/4/5
f 290/4/5 287/4/5 289/4/5
f 291/4/5 284/4/5 288/4/5
f 292/4/5 284/4/5 291/4/5
f 297/4/5 294/4/5 293/4/5
f 298/4/5 296/4/5 295/4/5
f 299/4/5 297/4/5 293/4/5
f 300/4/5 296/4/5 298/4/5
f 301/4/5 299/4/5 293/4/5
f 302/4/5 299/4/5 301/4/5
f 303/4/5 296/4/5 300/4/5
f 304/4/5 296/4/5 303/4/5
f 305/4/6 306/4/6 307/4/6
f 307/4/6 306/4/6 308/4/6
f 308/4/6 306/4/6 309/4/6
f 309/4/6 306/4/6 310/4/6
f 305/4/6 307/4/6 311/4/6
f 310/4/6 306/4/6 312/4/6
f 305/4/6 311/4/6 313/4/6
f 312/4/6 306/4/6 314/4/6
f 305/4/6 313/4/6 315/4/6
f 314/4/6 306/4/6 316/4/6
f 305/4/6 315/4/6 317/4/6
f 316/4/6 306/4/6 318/4/6
f 305/4/6 317/4/6 319/4/6
f 318/4/6 306/4/6 322/4/6
f 320/4/6 321/4/6 323/4/6
f 321/4/6 322/4/6 323/4/6
f 305/4/6 319/4/6 323/4/6
f 319/4/6 320/4/6 323/4/6
f 322/4/6 306/4/6 324/4/6
f 323/4/6 322/4/6 324/4/6
f 325/4/6 326/4/6 327/4/6
f 327/4/6 326/4/6 328/4/6
