# MagicaVoxel @ Ephtracy

# group
o 

# material
mtllib car_brack.mtl
usemtl palette

# normals
vn -1 0 0
vn 1 0 0
vn 0 0 1
vn 0 0 -1
vn 0 -1 0
vn 0 1 0

# texcoords
vt 0.0214844 0.5
vt 0.0917969 0.5
vt 0.587891 0.5
vt 0.705078 0.5
vt 0.962891 0.5
vt 0.970703 0.5
vt 0.974609 0.5
vt 0.982422 0.5
vt 0.994141 0.5

# verts
v -0.4 0.1 0.7
v -0.4 0.1 0.6
v -0.4 0.1 0.3
v -0.4 0.1 -0.2
v -0.4 0.1 -0.5
v -0.4 0.1 -0.6
v -0.4 0.2 0.7
v -0.4 0.2 0.6
v -0.4 0.2 0.3
v -0.4 0.2 -0.2
v -0.4 0.2 -0.5
v -0.4 0.2 -0.6
v -0.4 0.3 0.7
v -0.4 0.3 0.6
v -0.4 0.3 -0.5
v -0.4 0.3 -0.6
v -0.4 0.4 0.7
v -0.4 0.4 -0.6
v -0.3 0 0.6
v -0.3 0 0.3
v -0.3 0 -0.2
v -0.3 0 -0.5
v -0.3 0.1 0.6
v -0.3 0.1 0.5
v -0.3 0.1 0.4
v -0.3 0.1 0.3
v -0.3 0.1 -0.2
v -0.3 0.1 -0.3
v -0.3 0.1 -0.4
v -0.3 0.1 -0.5
v -0.3 0.2 0.6
v -0.3 0.2 0.5
v -0.3 0.2 0.4
v -0.3 0.2 0.3
v -0.3 0.2 -0.2
v -0.3 0.2 -0.3
v -0.3 0.2 -0.4
v -0.3 0.2 -0.5
v -0.3 0.4 0.4
v -0.3 0.4 0.3
v -0.3 0.4 0
v -0.3 0.4 -0.1
v -0.3 0.4 -0.4
v -0.3 0.4 -0.5
v -0.3 0.6 0.3
v -0.3 0.6 0
v -0.3 0.6 -0.1
v -0.3 0.6 -0.4
v -0.3 0.7 0.4
v -0.3 0.7 -0.5
v 0.2 0 0.6
v 0.2 0 0.3
v 0.2 0 -0.2
v 0.2 0 -0.5
v 0.2 0.1 0.6
v 0.2 0.1 0.3
v 0.2 0.1 -0.2
v 0.2 0.1 -0.5
v -0.2 0 0.6
v -0.2 0 0.3
v -0.2 0 -0.2
v -0.2 0 -0.5
v -0.2 0.1 0.6
v -0.2 0.1 0.3
v -0.2 0.1 -0.2
v -0.2 0.1 -0.5
v 0.3 0 0.6
v 0.3 0 0.3
v 0.3 0 -0.2
v 0.3 0 -0.5
v 0.3 0.1 0.6
v 0.3 0.1 0.5
v 0.3 0.1 0.4
v 0.3 0.1 0.3
v 0.3 0.1 -0.2
v 0.3 0.1 -0.3
v 0.3 0.1 -0.4
v 0.3 0.1 -0.5
v 0.3 0.2 0.6
v 0.3 0.2 0.5
v 0.3 0.2 0.4
v 0.3 0.2 0.3
v 0.3 0.2 -0.2
v 0.3 0.2 -0.3
v 0.3 0.2 -0.4
v 0.3 0.2 -0.5
v 0.3 0.4 0.4
v 0.3 0.4 0.3
v 0.3 0.4 0
v 0.3 0.4 -0.1
v 0.3 0.4 -0.4
v 0.3 0.4 -0.5
v 0.3 0.6 0.3
v 0.3 0.6 0
v 0.3 0.6 -0.1
v 0.3 0.6 -0.4
v 0.3 0.7 0.4
v 0.3 0.7 -0.5
v 0.4 0.1 0.7
v 0.4 0.1 0.6
v 0.4 0.1 0.3
v 0.4 0.1 -0.2
v 0.4 0.1 -0.5
v 0.4 0.1 -0.6
v 0.4 0.2 0.7
v 0.4 0.2 0.6
v 0.4 0.2 0.3
v 0.4 0.2 -0.2
v 0.4 0.2 -0.5
v 0.4 0.2 -0.6
v 0.4 0.3 0.7
v 0.4 0.3 0.6
v 0.4 0.3 -0.5
v 0.4 0.3 -0.6
v 0.4 0.4 0.7
v 0.4 0.4 -0.6
v -0.4 0.1 0.7
v -0.4 0.2 0.7
v -0.4 0.3 0.7
v -0.4 0.4 0.7
v -0.2 0.2 0.7
v -0.2 0.3 0.7
v -0.1 0.1 0.7
v -0.1 0.2 0.7
v 0.1 0.1 0.7
v 0.1 0.2 0.7
v 0.2 0.2 0.7
v 0.2 0.3 0.7
v 0.4 0.1 0.7
v 0.4 0.2 0.7
v 0.4 0.3 0.7
v 0.4 0.4 0.7
v -0.3 0 0.6
v -0.3 0.1 0.6
v -0.2 0 0.6
v -0.2 0.1 0.6
v 0.2 0 0.6
v 0.2 0.1 0.6
v 0.3 0 0.6
v 0.3 0.1 0.6
v -0.3 0.4 0.4
v -0.3 0.7 0.4
v -0.2 0.4 0.4
v -0.2 0.6 0.4
v 0.2 0.4 0.4
v 0.2 0.6 0.4
v 0.3 0.4 0.4
v 0.3 0.7 0.4
v -0.4 0.1 0.3
v -0.4 0.2 0.3
v -0.3 0.1 0.3
v -0.3 0.2 0.3
v 0.3 0.1 0.3
v 0.3 0.2 0.3
v 0.4 0.1 0.3
v 0.4 0.2 0.3
v -0.3 0 -0.2
v -0.3 0.1 -0.2
v -0.2 0 -0.2
v -0.2 0.1 -0.2
v 0.2 0 -0.2
v 0.2 0.1 -0.2
v 0.3 0 -0.2
v 0.3 0.1 -0.2
v -0.4 0.1 -0.5
v -0.4 0.2 -0.5
v -0.3 0.1 -0.5
v -0.3 0.2 -0.5
v 0.3 0.1 -0.5
v 0.3 0.2 -0.5
v 0.4 0.1 -0.5
v 0.4 0.2 -0.5
v -0.4 0.1 0.6
v -0.4 0.2 0.6
v -0.3 0.1 0.6
v -0.3 0.2 0.6
v 0.3 0.1 0.6
v 0.3 0.2 0.6
v 0.4 0.1 0.6
v 0.4 0.2 0.6
v -0.3 0 0.3
v -0.3 0.1 0.3
v -0.2 0 0.3
v -0.2 0.1 0.3
v 0.2 0 0.3
v 0.2 0.1 0.3
v 0.3 0 0.3
v 0.3 0.1 0.3
v -0.4 0.1 -0.2
v -0.4 0.2 -0.2
v -0.3 0.1 -0.2
v -0.3 0.2 -0.2
v 0.3 0.1 -0.2
v 0.3 0.2 -0.2
v 0.4 0.1 -0.2
v 0.4 0.2 -0.2
v -0.3 0 -0.5
v -0.3 0.1 -0.5
v -0.3 0.4 -0.5
v -0.3 0.7 -0.5
v -0.2 0 -0.5
v -0.2 0.1 -0.5
v -0.2 0.4 -0.5
v -0.2 0.6 -0.5
v 0.2 0 -0.5
v 0.2 0.1 -0.5
v 0.2 0.4 -0.5
v 0.2 0.6 -0.5
v 0.3 0 -0.5
v 0.3 0.1 -0.5
v 0.3 0.4 -0.5
v 0.3 0.7 -0.5
v -0.4 0.1 -0.6
v -0.4 0.2 -0.6
v -0.4 0.3 -0.6
v -0.4 0.4 -0.6
v -0.2 0.2 -0.6
v -0.2 0.3 -0.6
v -0.1 0.1 -0.6
v -0.1 0.2 -0.6
v 0.1 0.1 -0.6
v 0.1 0.2 -0.6
v 0.2 0.2 -0.6
v 0.2 0.3 -0.6
v 0.4 0.1 -0.6
v 0.4 0.2 -0.6
v 0.4 0.3 -0.6
v 0.4 0.4 -0.6
v -0.3 0 0.6
v -0.2 0 0.6
v 0.2 0 0.6
v 0.3 0 0.6
v -0.3 0 0.3
v -0.2 0 0.3
v 0.2 0 0.3
v 0.3 0 0.3
v -0.3 0 -0.2
v -0.2 0 -0.2
v 0.2 0 -0.2
v 0.3 0 -0.2
v -0.3 0 -0.5
v -0.2 0 -0.5
v 0.2 0 -0.5
v 0.3 0 -0.5
v -0.4 0.1 0.7
v -0.1 0.1 0.7
v 0.1 0.1 0.7
v 0.4 0.1 0.7
v -0.4 0.1 0.6
v -0.3 0.1 0.6
v -0.2 0.1 0.6
v -0.1 0.1 0.6
v 0.1 0.1 0.6
v 0.2 0.1 0.6
v 0.3 0.1 0.6
v 0.4 0.1 0.6
v -0.4 0.1 0.3
v -0.3 0.1 0.3
v -0.2 0.1 0.3
v 0.2 0.1 0.3
v 0.3 0.1 0.3
v 0.4 0.1 0.3
v -0.4 0.1 -0.2
v -0.3 0.1 -0.2
v -0.2 0.1 -0.2
v 0.2 0.1 -0.2
v 0.3 0.1 -0.2
v 0.4 0.1 -0.2
v -0.4 0.1 -0.5
v -0.3 0.1 -0.5
v -0.2 0.1 -0.5
v -0.1 0.1 -0.5
v 0.1 0.1 -0.5
v 0.2 0.1 -0.5
v 0.3 0.1 -0.5
v 0.4 0.1 -0.5
v -0.4 0.1 -0.6
v -0.1 0.1 -0.6
v 0.1 0.1 -0.6
v 0.4 0.1 -0.6
v -0.4 0.2 0.6
v -0.3 0.2 0.6
v 0.3 0.2 0.6
v 0.4 0.2 0.6
v -0.3 0.2 0.5
v 0.3 0.2 0.5
v -0.3 0.2 0.4
v 0.3 0.2 0.4
v -0.4 0.2 0.3
v -0.3 0.2 0.3
v 0.3 0.2 0.3
v 0.4 0.2 0.3
v -0.4 0.2 -0.2
v -0.3 0.2 -0.2
v 0.3 0.2 -0.2
v 0.4 0.2 -0.2
v -0.3 0.2 -0.3
v 0.3 0.2 -0.3
v -0.3 0.2 -0.4
v 0.3 0.2 -0.4
v -0.4 0.2 -0.5
v -0.3 0.2 -0.5
v 0.3 0.2 -0.5
v 0.4 0.2 -0.5
v -0.4 0.4 0.7
v 0.4 0.4 0.7
v -0.3 0.4 0.4
v -0.2 0.4 0.4
v 0.2 0.4 0.4
v 0.3 0.4 0.4
v -0.3 0.4 0.3
v 0.3 0.4 0.3
v -0.3 0.4 0
v 0.3 0.4 0
v -0.3 0.4 -0.1
v 0.3 0.4 -0.1
v -0.3 0.4 -0.4
v 0.3 0.4 -0.4
v -0.3 0.4 -0.5
v -0.2 0.4 -0.5
v 0.2 0.4 -0.5
v 0.3 0.4 -0.5
v -0.4 0.4 -0.6
v 0.4 0.4 -0.6
v -0.3 0.7 0.4
v 0.3 0.7 0.4
v -0.3 0.7 -0.5
v 0.3 0.7 -0.5

# faces
f 7/6/1 2/6/1 1/6/1
f 8/6/1 2/6/1 7/6/1
f 9/8/1 4/8/1 3/8/1
f 10/8/1 4/8/1 9/8/1
f 11/6/1 6/6/1 5/6/1
f 12/6/1 6/6/1 11/6/1
f 13/5/1 8/5/1 7/5/1
f 14/8/1 10/8/1 9/8/1
f 14/5/1 8/5/1 13/5/1
f 14/8/1 9/8/1 8/8/1
f 14/8/1 11/8/1 10/8/1
f 15/2/1 12/2/1 11/2/1
f 15/8/1 11/8/1 14/8/1
f 16/2/1 12/2/1 15/2/1
f 17/8/1 14/8/1 13/8/1
f 17/8/1 15/8/1 14/8/1
f 17/8/1 16/8/1 15/8/1
f 18/8/1 16/8/1 17/8/1
f 23/9/1 20/9/1 19/9/1
f 24/9/1 20/9/1 23/9/1
f 25/9/1 20/9/1 24/9/1
f 26/9/1 20/9/1 25/9/1
f 27/9/1 22/9/1 21/9/1
f 28/9/1 22/9/1 27/9/1
f 29/9/1 22/9/1 28/9/1
f 30/9/1 22/9/1 29/9/1
f 31/9/1 24/9/1 23/9/1
f 32/6/1 25/6/1 24/6/1
f 32/9/1 24/9/1 31/9/1
f 33/9/1 26/9/1 25/9/1
f 33/6/1 25/6/1 32/6/1
f 34/9/1 26/9/1 33/9/1
f 35/9/1 28/9/1 27/9/1
f 36/6/1 29/6/1 28/6/1
f 36/9/1 28/9/1 35/9/1
f 37/9/1 30/9/1 29/9/1
f 37/6/1 29/6/1 36/6/1
f 38/9/1 30/9/1 37/9/1
f 45/8/1 40/8/1 39/8/1
f 45/4/1 41/4/1 40/4/1
f 46/8/1 42/8/1 41/8/1
f 46/4/1 41/4/1 45/4/1
f 47/4/1 43/4/1 42/4/1
f 47/8/1 42/8/1 46/8/1
f 48/8/1 44/8/1 43/8/1
f 48/4/1 43/4/1 47/4/1
f 49/8/1 47/8/1 46/8/1
f 49/8/1 46/8/1 45/8/1
f 49/8/1 48/8/1 47/8/1
f 49/8/1 45/8/1 39/8/1
f 50/8/1 44/8/1 48/8/1
f 50/8/1 48/8/1 49/8/1
f 55/9/1 52/9/1 51/9/1
f 56/9/1 52/9/1 55/9/1
f 57/9/1 54/9/1 53/9/1
f 58/9/1 54/9/1 57/9/1
f 59/9/2 60/9/2 63/9/2
f 63/9/2 60/9/2 64/9/2
f 61/9/2 62/9/2 65/9/2
f 65/9/2 62/9/2 66/9/2
f 67/9/2 68/9/2 71/9/2
f 71/9/2 68/9/2 72/9/2
f 72/9/2 68/9/2 73/9/2
f 73/9/2 68/9/2 74/9/2
f 69/9/2 70/9/2 75/9/2
f 75/9/2 70/9/2 76/9/2
f 76/9/2 70/9/2 77/9/2
f 77/9/2 70/9/2 78/9/2
f 71/9/2 72/9/2 79/9/2
f 72/6/2 73/6/2 80/6/2
f 79/9/2 72/9/2 80/9/2
f 73/9/2 74/9/2 81/9/2
f 80/6/2 73/6/2 81/6/2
f 81/9/2 74/9/2 82/9/2
f 75/9/2 76/9/2 83/9/2
f 76/6/2 77/6/2 84/6/2
f 83/9/2 76/9/2 84/9/2
f 77/9/2 78/9/2 85/9/2
f 84/6/2 77/6/2 85/6/2
f 85/9/2 78/9/2 86/9/2
f 87/8/2 88/8/2 93/8/2
f 88/3/2 89/3/2 93/3/2
f 89/8/2 90/8/2 94/8/2
f 93/3/2 89/3/2 94/3/2
f 90/3/2 91/3/2 95/3/2
f 94/8/2 90/8/2 95/8/2
f 91/8/2 92/8/2 96/8/2
f 95/3/2 91/3/2 96/3/2
f 94/8/2 95/8/2 97/8/2
f 93/8/2 94/8/2 97/8/2
f 95/8/2 96/8/2 97/8/2
f 87/8/2 93/8/2 97/8/2
f 96/8/2 92/8/2 98/8/2
f 97/8/2 96/8/2 98/8/2
f 99/6/2 100/6/2 105/6/2
f 105/6/2 100/6/2 106/6/2
f 101/8/2 102/8/2 107/8/2
f 107/8/2 102/8/2 108/8/2
f 103/6/2 104/6/2 109/6/2
f 109/6/2 104/6/2 110/6/2
f 105/5/2 106/5/2 111/5/2
f 107/8/2 108/8/2 112/8/2
f 111/5/2 106/5/2 112/5/2
f 106/8/2 107/8/2 112/8/2
f 108/8/2 109/8/2 112/8/2
f 109/2/2 110/2/2 113/2/2
f 112/8/2 109/8/2 113/8/2
f 113/2/2 110/2/2 114/2/2
f 111/8/2 112/8/2 115/8/2
f 112/8/2 113/8/2 115/8/2
f 113/8/2 114/8/2 115/8/2
f 115/8/2 114/8/2 116/8/2
f 121/6/3 118/6/3 117/6/3
f 121/5/3 119/5/3 118/5/3
f 122/8/3 120/8/3 119/8/3
f 122/5/3 119/5/3 121/5/3
f 123/6/3 121/6/3 117/6/3
f 124/8/3 122/8/3 121/8/3
f 124/6/3 121/6/3 123/6/3
f 125/1/3 124/1/3 123/1/3
f 126/8/3 122/8/3 124/8/3
f 126/1/3 124/1/3 125/1/3
f 127/6/3 126/6/3 125/6/3
f 127/8/3 122/8/3 126/8/3
f 128/8/3 120/8/3 122/8/3
f 128/8/3 122/8/3 127/8/3
f 129/6/3 127/6/3 125/6/3
f 130/5/3 128/5/3 127/5/3
f 130/6/3 127/6/3 129/6/3
f 131/8/3 120/8/3 128/8/3
f 131/5/3 128/5/3 130/5/3
f 132/8/3 120/8/3 131/8/3
f 135/9/3 134/9/3 133/9/3
f 136/9/3 134/9/3 135/9/3
f 139/9/3 138/9/3 137/9/3
f 140/9/3 138/9/3 139/9/3
f 143/8/3 142/8/3 141/8/3
f 144/8/3 142/8/3 143/8/3
f 145/3/3 144/3/3 143/3/3
f 146/8/3 142/8/3 144/8/3
f 146/3/3 144/3/3 145/3/3
f 147/8/3 146/8/3 145/8/3
f 148/8/3 142/8/3 146/8/3
f 148/8/3 146/8/3 147/8/3
f 151/8/3 150/8/3 149/8/3
f 152/8/3 150/8/3 151/8/3
f 155/8/3 154/8/3 153/8/3
f 156/8/3 154/8/3 155/8/3
f 159/9/3 158/9/3 157/9/3
f 160/9/3 158/9/3 159/9/3
f 163/9/3 162/9/3 161/9/3
f 164/9/3 162/9/3 163/9/3
f 167/6/3 166/6/3 165/6/3
f 168/6/3 166/6/3 167/6/3
f 171/6/3 170/6/3 169/6/3
f 172/6/3 170/6/3 171/6/3
f 173/6/4 174/6/4 175/6/4
f 175/6/4 174/6/4 176/6/4
f 177/6/4 178/6/4 179/6/4
f 179/6/4 178/6/4 180/6/4
f 181/9/4 182/9/4 183/9/4
f 183/9/4 182/9/4 184/9/4
f 185/9/4 186/9/4 187/9/4
f 187/9/4 186/9/4 188/9/4
f 189/8/4 190/8/4 191/8/4
f 191/8/4 190/8/4 192/8/4
f 193/8/4 194/8/4 195/8/4
f 195/8/4 194/8/4 196/8/4
f 197/9/4 198/9/4 201/9/4
f 201/9/4 198/9/4 202/9/4
f 199/8/4 200/8/4 203/8/4
f 203/8/4 200/8/4 204/8/4
f 203/3/4 204/3/4 207/3/4
f 204/8/4 200/8/4 208/8/4
f 207/3/4 204/3/4 208/3/4
f 205/9/4 206/9/4 209/9/4
f 209/9/4 206/9/4 210/9/4
f 207/8/4 208/8/4 211/8/4
f 208/8/4 200/8/4 212/8/4
f 211/8/4 208/8/4 212/8/4
f 213/6/4 214/6/4 217/6/4
f 214/2/4 215/2/4 217/2/4
f 215/8/4 216/8/4 218/8/4
f 217/2/4 215/2/4 218/2/4
f 213/6/4 217/6/4 219/6/4
f 217/8/4 218/8/4 220/8/4
f 219/6/4 217/6/4 220/6/4
f 219/1/4 220/1/4 221/1/4
f 220/8/4 218/8/4 222/8/4
f 221/1/4 220/1/4 222/1/4
f 221/6/4 222/6/4 223/6/4
f 222/8/4 218/8/4 223/8/4
f 218/8/4 216/8/4 224/8/4
f 223/8/4 218/8/4 224/8/4
f 221/6/4 223/6/4 225/6/4
f 223/2/4 224/2/4 226/2/4
f 225/6/4 223/6/4 226/6/4
f 224/8/4 216/8/4 227/8/4
f 226/2/4 224/2/4 227/2/4
f 227/8/4 216/8/4 228/8/4
f 233/9/5 230/9/5 229/9/5
f 234/9/5 230/9/5 233/9/5
f 235/9/5 232/9/5 231/9/5
f 236/9/5 232/9/5 235/9/5
f 241/9/5 238/9/5 237/9/5
f 242/9/5 238/9/5 241/9/5
f 243/9/5 240/9/5 239/9/5
f 244/9/5 240/9/5 243/9/5
f 249/6/5 246/6/5 245/6/5
f 250/6/5 246/6/5 249/6/5
f 251/6/5 246/6/5 250/6/5
f 252/1/5 247/1/5 246/1/5
f 252/6/5 246/6/5 251/6/5
f 253/6/5 248/6/5 247/6/5
f 253/1/5 247/1/5 252/1/5
f 254/6/5 248/6/5 253/6/5
f 255/6/5 248/6/5 254/6/5
f 256/6/5 248/6/5 255/6/5
f 259/7/5 252/7/5 251/7/5
f 259/7/5 254/7/5 253/7/5
f 259/7/5 253/7/5 252/7/5
f 260/7/5 254/7/5 259/7/5
f 263/8/5 258/8/5 257/8/5
f 264/7/5 259/7/5 258/7/5
f 264/8/5 258/8/5 263/8/5
f 264/7/5 260/7/5 259/7/5
f 264/7/5 261/7/5 260/7/5
f 265/7/5 261/7/5 264/7/5
f 266/7/5 261/7/5 265/7/5
f 267/8/5 262/8/5 261/8/5
f 267/7/5 261/7/5 266/7/5
f 268/8/5 262/8/5 267/8/5
f 271/7/5 266/7/5 265/7/5
f 272/7/5 266/7/5 271/7/5
f 273/7/5 266/7/5 272/7/5
f 274/7/5 266/7/5 273/7/5
f 277/6/5 270/6/5 269/6/5
f 277/6/5 271/6/5 270/6/5
f 277/6/5 272/6/5 271/6/5
f 278/1/5 273/1/5 272/1/5
f 278/6/5 272/6/5 277/6/5
f 279/6/5 276/6/5 275/6/5
f 279/1/5 273/1/5 278/1/5
f 279/6/5 275/6/5 274/6/5
f 279/6/5 274/6/5 273/6/5
f 280/6/5 276/6/5 279/6/5
f 285/8/5 282/8/5 281/8/5
f 286/8/5 284/8/5 283/8/5
f 287/8/5 285/8/5 281/8/5
f 288/8/5 284/8/5 286/8/5
f 289/8/5 287/8/5 281/8/5
f 290/8/5 287/8/5 289/8/5
f 291/8/5 284/8/5 288/8/5
f 292/8/5 284/8/5 291/8/5
f 297/8/5 294/8/5 293/8/5
f 298/8/5 296/8/5 295/8/5
f 299/8/5 297/8/5 293/8/5
f 300/8/5 296/8/5 298/8/5
f 301/8/5 299/8/5 293/8/5
f 302/8/5 299/8/5 301/8/5
f 303/8/5 296/8/5 300/8/5
f 304/8/5 296/8/5 303/8/5
f 305/8/6 306/8/6 307/8/6
f 307/8/6 306/8/6 308/8/6
f 308/8/6 306/8/6 309/8/6
f 309/8/6 306/8/6 310/8/6
f 305/8/6 307/8/6 311/8/6
f 310/8/6 306/8/6 312/8/6
f 305/8/6 311/8/6 313/8/6
f 312/8/6 306/8/6 314/8/6
f 305/8/6 313/8/6 315/8/6
f 314/8/6 306/8/6 316/8/6
f 305/8/6 315/8/6 317/8/6
f 316/8/6 306/8/6 318/8/6
f 305/8/6 317/8/6 319/8/6
f 318/8/6 306/8/6 322/8/6
f 320/8/6 321/8/6 323/8/6
f 321/8/6 322/8/6 323/8/6
f 305/8/6 319/8/6 323/8/6
f 319/8/6 320/8/6 323/8/6
f 322/8/6 306/8/6 324/8/6
f 323/8/6 322/8/6 324/8/6
f 325/8/6 326/8/6 327/8/6
f 327/8/6 326/8/6 328/8/6
