# MagicaVoxel @ Ephtracy

# group
o 

# material
mtllib Cone.mtl
usemtl palette

# normals
vn -1 0 0
vn 1 0 0
vn 0 0 1
vn 0 0 -1
vn 0 -1 0
vn 0 1 0

# texcoords
vt 0.0175781 0.5
vt 0.845703 0.5
vt 0.994141 0.5

# verts
v -1.3 0 0.8
v -1.3 0 0.1
v -1.3 0 -2.1
v -1.3 0 -2.8
v -1.3 0.1 0.8
v -1.3 0.1 0.1
v -1.3 0.1 -2.1
v -1.3 0.1 -2.8
v -1.2 0.1 0.7
v -1.2 0.1 0.2
v -1.2 0.1 -2.2
v -1.2 0.1 -2.7
v -1.2 0.7 0.7
v -1.2 0.7 0.2
v -1.2 0.7 -2.2
v -1.2 0.7 -2.7
v -1.1 0.7 0.6
v -1.1 0.7 0.3
v -1.1 0.7 -2.3
v -1.1 0.7 -2.6
v -1.1 1.1 0.6
v -1.1 1.1 0.3
v -1.1 1.1 -2.3
v -1.1 1.1 -2.6
v -1.1 1.2 0.6
v -1.1 1.2 0.3
v -1.1 1.2 -2.3
v -1.1 1.2 -2.6
v -1 1.1 0.3
v -1 1.1 0.1
v -1 1.1 -0.1
v -1 1.1 -0.3
v -1 1.1 -0.5
v -1 1.1 -0.7
v -1 1.1 -0.9
v -1 1.1 -1.1
v -1 1.1 -1.3
v -1 1.1 -1.5
v -1 1.1 -1.7
v -1 1.1 -1.9
v -1 1.1 -2.1
v -1 1.1 -2.3
v -1 1.2 0.5
v -1 1.2 0.4
v -1 1.2 0.3
v -1 1.2 0.1
v -1 1.2 -0.1
v -1 1.2 -0.3
v -1 1.2 -0.5
v -1 1.2 -0.7
v -1 1.2 -0.9
v -1 1.2 -1.1
v -1 1.2 -1.3
v -1 1.2 -1.5
v -1 1.2 -1.7
v -1 1.2 -1.9
v -1 1.2 -2.1
v -1 1.2 -2.3
v -1 1.2 -2.4
v -1 1.2 -2.5
v -1 1.4 0.5
v -1 1.4 0.4
v -1 1.4 -2.4
v -1 1.4 -2.5
v -0.9 1.1 0.3
v -0.9 1.1 0.1
v -0.9 1.1 -0.1
v -0.9 1.1 -0.3
v -0.9 1.1 -0.5
v -0.9 1.1 -0.7
v -0.9 1.1 -0.9
v -0.9 1.1 -1.1
v -0.9 1.1 -1.3
v -0.9 1.1 -1.5
v -0.9 1.1 -1.7
v -0.9 1.1 -1.9
v -0.9 1.1 -2.1
v -0.9 1.1 -2.3
v -0.9 1.2 0.5
v -0.9 1.2 0.4
v -0.9 1.2 0.3
v -0.9 1.2 0.1
v -0.9 1.2 -0.1
v -0.9 1.2 -0.3
v -0.9 1.2 -0.5
v -0.9 1.2 -0.7
v -0.9 1.2 -0.9
v -0.9 1.2 -1.1
v -0.9 1.2 -1.3
v -0.9 1.2 -1.5
v -0.9 1.2 -1.7
v -0.9 1.2 -1.9
v -0.9 1.2 -2.1
v -0.9 1.2 -2.3
v -0.9 1.2 -2.4
v -0.9 1.2 -2.5
v -0.9 1.4 0.5
v -0.9 1.4 0.4
v -0.9 1.4 -2.4
v -0.9 1.4 -2.5
v -0.8 0.7 0.6
v -0.8 0.7 0.3
v -0.8 0.7 -2.3
v -0.8 0.7 -2.6
v -0.8 1.1 0.6
v -0.8 1.1 0.3
v -0.8 1.1 -2.3
v -0.8 1.1 -2.6
v -0.8 1.2 0.6
v -0.8 1.2 0.3
v -0.8 1.2 -2.3
v -0.8 1.2 -2.6
v -0.7 0.1 0.7
v -0.7 0.1 0.2
v -0.7 0.1 -2.2
v -0.7 0.1 -2.7
v -0.7 0.7 0.7
v -0.7 0.7 0.2
v -0.7 0.7 -2.2
v -0.7 0.7 -2.7
v -0.6 0 0.8
v -0.6 0 0.1
v -0.6 0 -2.1
v -0.6 0 -2.8
v -0.6 0.1 0.8
v -0.6 0.1 0.1
v -0.6 0.1 -2.1
v -0.6 0.1 -2.8
v -1.3 0 0.8
v -1.3 0.1 0.8
v -0.6 0 0.8
v -0.6 0.1 0.8
v -1.2 0.1 0.7
v -1.2 0.7 0.7
v -0.7 0.1 0.7
v -0.7 0.7 0.7
v -1.1 0.7 0.6
v -1.1 1.1 0.6
v -1.1 1.2 0.6
v -0.8 0.7 0.6
v -0.8 1.1 0.6
v -0.8 1.2 0.6
v -1 1.2 0.5
v -1 1.4 0.5
v -0.9 1.2 0.5
v -0.9 1.4 0.5
v -1.3 0 -2.1
v -1.3 0.1 -2.1
v -0.6 0 -2.1
v -0.6 0.1 -2.1
v -1.2 0.1 -2.2
v -1.2 0.7 -2.2
v -0.7 0.1 -2.2
v -0.7 0.7 -2.2
v -1.1 0.7 -2.3
v -1.1 1.1 -2.3
v -1.1 1.2 -2.3
v -1 1.1 -2.3
v -1 1.2 -2.3
v -0.9 1.1 -2.3
v -0.9 1.2 -2.3
v -0.8 0.7 -2.3
v -0.8 1.1 -2.3
v -0.8 1.2 -2.3
v -1 1.2 -2.4
v -1 1.4 -2.4
v -0.9 1.2 -2.4
v -0.9 1.4 -2.4
v -1 1.2 0.4
v -1 1.4 0.4
v -0.9 1.2 0.4
v -0.9 1.4 0.4
v -1.1 0.7 0.3
v -1.1 1.1 0.3
v -1.1 1.2 0.3
v -1 1.1 0.3
v -1 1.2 0.3
v -0.9 1.1 0.3
v -0.9 1.2 0.3
v -0.8 0.7 0.3
v -0.8 1.1 0.3
v -0.8 1.2 0.3
v -1.2 0.1 0.2
v -1.2 0.7 0.2
v -0.7 0.1 0.2
v -0.7 0.7 0.2
v -1.3 0 0.1
v -1.3 0.1 0.1
v -0.6 0 0.1
v -0.6 0.1 0.1
v -1 1.2 -2.5
v -1 1.4 -2.5
v -0.9 1.2 -2.5
v -0.9 1.4 -2.5
v -1.1 0.7 -2.6
v -1.1 1.1 -2.6
v -1.1 1.2 -2.6
v -0.8 0.7 -2.6
v -0.8 1.1 -2.6
v -0.8 1.2 -2.6
v -1.2 0.1 -2.7
v -1.2 0.7 -2.7
v -0.7 0.1 -2.7
v -0.7 0.7 -2.7
v -1.3 0 -2.8
v -1.3 0.1 -2.8
v -0.6 0 -2.8
v -0.6 0.1 -2.8
v -1.3 0 0.8
v -0.6 0 0.8
v -1.3 0 0.1
v -0.6 0 0.1
v -1.3 0 -2.1
v -0.6 0 -2.1
v -1.3 0 -2.8
v -0.6 0 -2.8
v -1 1.1 0.3
v -0.9 1.1 0.3
v -1 1.1 0.1
v -0.9 1.1 0.1
v -1 1.1 -0.1
v -0.9 1.1 -0.1
v -1 1.1 -0.3
v -0.9 1.1 -0.3
v -1 1.1 -0.5
v -0.9 1.1 -0.5
v -1 1.1 -0.7
v -0.9 1.1 -0.7
v -1 1.1 -0.9
v -0.9 1.1 -0.9
v -1 1.1 -1.1
v -0.9 1.1 -1.1
v -1 1.1 -1.3
v -0.9 1.1 -1.3
v -1 1.1 -1.5
v -0.9 1.1 -1.5
v -1 1.1 -1.7
v -0.9 1.1 -1.7
v -1 1.1 -1.9
v -0.9 1.1 -1.9
v -1 1.1 -2.1
v -0.9 1.1 -2.1
v -1 1.1 -2.3
v -0.9 1.1 -2.3
v -1.3 0.1 0.8
v -0.6 0.1 0.8
v -1.2 0.1 0.7
v -0.7 0.1 0.7
v -1.2 0.1 0.2
v -0.7 0.1 0.2
v -1.3 0.1 0.1
v -0.6 0.1 0.1
v -1.3 0.1 -2.1
v -0.6 0.1 -2.1
v -1.2 0.1 -2.2
v -0.7 0.1 -2.2
v -1.2 0.1 -2.7
v -0.7 0.1 -2.7
v -1.3 0.1 -2.8
v -0.6 0.1 -2.8
v -1.2 0.7 0.7
v -0.7 0.7 0.7
v -1.1 0.7 0.6
v -0.8 0.7 0.6
v -1.1 0.7 0.3
v -0.8 0.7 0.3
v -1.2 0.7 0.2
v -0.7 0.7 0.2
v -1.2 0.7 -2.2
v -0.7 0.7 -2.2
v -1.1 0.7 -2.3
v -0.8 0.7 -2.3
v -1.1 0.7 -2.6
v -0.8 0.7 -2.6
v -1.2 0.7 -2.7
v -0.7 0.7 -2.7
v -1.1 1.2 0.6
v -0.8 1.2 0.6
v -1 1.2 0.5
v -0.9 1.2 0.5
v -1 1.2 0.4
v -0.9 1.2 0.4
v -1.1 1.2 0.3
v -1 1.2 0.3
v -0.9 1.2 0.3
v -0.8 1.2 0.3
v -1 1.2 0.1
v -0.9 1.2 0.1
v -1 1.2 -0.1
v -0.9 1.2 -0.1
v -1 1.2 -0.3
v -0.9 1.2 -0.3
v -1 1.2 -0.5
v -0.9 1.2 -0.5
v -1 1.2 -0.7
v -0.9 1.2 -0.7
v -1 1.2 -0.9
v -0.9 1.2 -0.9
v -1 1.2 -1.1
v -0.9 1.2 -1.1
v -1 1.2 -1.3
v -0.9 1.2 -1.3
v -1 1.2 -1.5
v -0.9 1.2 -1.5
v -1 1.2 -1.7
v -0.9 1.2 -1.7
v -1 1.2 -1.9
v -0.9 1.2 -1.9
v -1 1.2 -2.1
v -0.9 1.2 -2.1
v -1.1 1.2 -2.3
v -1 1.2 -2.3
v -0.9 1.2 -2.3
v -0.8 1.2 -2.3
v -1 1.2 -2.4
v -0.9 1.2 -2.4
v -1 1.2 -2.5
v -0.9 1.2 -2.5
v -1.1 1.2 -2.6
v -0.8 1.2 -2.6
v -1 1.4 0.5
v -0.9 1.4 0.5
v -1 1.4 0.4
v -0.9 1.4 0.4
v -1 1.4 -2.4
v -0.9 1.4 -2.4
v -1 1.4 -2.5
v -0.9 1.4 -2.5

# faces
f 5/3/1 2/3/1 1/3/1
f 6/3/1 2/3/1 5/3/1
f 7/3/1 4/3/1 3/3/1
f 8/3/1 4/3/1 7/3/1
f 13/2/1 10/2/1 9/2/1
f 14/2/1 10/2/1 13/2/1
f 15/2/1 12/2/1 11/2/1
f 16/2/1 12/2/1 15/2/1
f 21/2/1 18/2/1 17/2/1
f 22/2/1 18/2/1 21/2/1
f 23/2/1 20/2/1 19/2/1
f 24/2/1 20/2/1 23/2/1
f 25/3/1 22/3/1 21/3/1
f 26/3/1 22/3/1 25/3/1
f 27/3/1 24/3/1 23/3/1
f 28/3/1 24/3/1 27/3/1
f 45/3/1 30/3/1 29/3/1
f 46/1/1 31/1/1 30/1/1
f 46/3/1 30/3/1 45/3/1
f 47/3/1 32/3/1 31/3/1
f 47/1/1 31/1/1 46/1/1
f 48/1/1 33/1/1 32/1/1
f 48/3/1 32/3/1 47/3/1
f 49/3/1 34/3/1 33/3/1
f 49/1/1 33/1/1 48/1/1
f 50/1/1 35/1/1 34/1/1
f 50/3/1 34/3/1 49/3/1
f 51/3/1 36/3/1 35/3/1
f 51/1/1 35/1/1 50/1/1
f 52/1/1 37/1/1 36/1/1
f 52/3/1 36/3/1 51/3/1
f 53/3/1 38/3/1 37/3/1
f 53/1/1 37/1/1 52/1/1
f 54/1/1 39/1/1 38/1/1
f 54/3/1 38/3/1 53/3/1
f 55/3/1 40/3/1 39/3/1
f 55/1/1 39/1/1 54/1/1
f 56/1/1 41/1/1 40/1/1
f 56/3/1 40/3/1 55/3/1
f 57/3/1 42/3/1 41/3/1
f 57/1/1 41/1/1 56/1/1
f 58/3/1 42/3/1 57/3/1
f 61/2/1 44/2/1 43/2/1
f 62/2/1 44/2/1 61/2/1
f 63/2/1 60/2/1 59/2/1
f 64/2/1 60/2/1 63/2/1
f 65/3/2 66/3/2 81/3/2
f 66/1/2 67/1/2 82/1/2
f 81/3/2 66/3/2 82/3/2
f 67/3/2 68/3/2 83/3/2
f 82/1/2 67/1/2 83/1/2
f 68/1/2 69/1/2 84/1/2
f 83/3/2 68/3/2 84/3/2
f 69/3/2 70/3/2 85/3/2
f 84/1/2 69/1/2 85/1/2
f 70/1/2 71/1/2 86/1/2
f 85/3/2 70/3/2 86/3/2
f 71/3/2 72/3/2 87/3/2
f 86/1/2 71/1/2 87/1/2
f 72/1/2 73/1/2 88/1/2
f 87/3/2 72/3/2 88/3/2
f 73/3/2 74/3/2 89/3/2
f 88/1/2 73/1/2 89/1/2
f 74/1/2 75/1/2 90/1/2
f 89/3/2 74/3/2 90/3/2
f 75/3/2 76/3/2 91/3/2
f 90/1/2 75/1/2 91/1/2
f 76/1/2 77/1/2 92/1/2
f 91/3/2 76/3/2 92/3/2
f 77/3/2 78/3/2 93/3/2
f 92/1/2 77/1/2 93/1/2
f 93/3/2 78/3/2 94/3/2
f 79/2/2 80/2/2 97/2/2
f 97/2/2 80/2/2 98/2/2
f 95/2/2 96/2/2 99/2/2
f 99/2/2 96/2/2 100/2/2
f 101/2/2 102/2/2 105/2/2
f 105/2/2 102/2/2 106/2/2
f 103/2/2 104/2/2 107/2/2
f 107/2/2 104/2/2 108/2/2
f 105/3/2 106/3/2 109/3/2
f 109/3/2 106/3/2 110/3/2
f 107/3/2 108/3/2 111/3/2
f 111/3/2 108/3/2 112/3/2
f 113/2/2 114/2/2 117/2/2
f 117/2/2 114/2/2 118/2/2
f 115/2/2 116/2/2 119/2/2
f 119/2/2 116/2/2 120/2/2
f 121/3/2 122/3/2 125/3/2
f 125/3/2 122/3/2 126/3/2
f 123/3/2 124/3/2 127/3/2
f 127/3/2 124/3/2 128/3/2
f 131/3/3 130/3/3 129/3/3
f 132/3/3 130/3/3 131/3/3
f 135/2/3 134/2/3 133/2/3
f 136/2/3 134/2/3 135/2/3
f 140/2/3 138/2/3 137/2/3
f 141/3/3 139/3/3 138/3/3
f 141/2/3 138/2/3 140/2/3
f 142/3/3 139/3/3 141/3/3
f 145/2/3 144/2/3 143/2/3
f 146/2/3 144/2/3 145/2/3
f 149/3/3 148/3/3 147/3/3
f 150/3/3 148/3/3 149/3/3
f 153/2/3 152/2/3 151/2/3
f 154/2/3 152/2/3 153/2/3
f 158/2/3 156/2/3 155/2/3
f 158/3/3 157/3/3 156/3/3
f 159/3/3 157/3/3 158/3/3
f 160/2/3 158/2/3 155/2/3
f 162/2/3 160/2/3 155/2/3
f 163/3/3 161/3/3 160/3/3
f 163/2/3 160/2/3 162/2/3
f 164/3/3 161/3/3 163/3/3
f 167/2/3 166/2/3 165/2/3
f 168/2/3 166/2/3 167/2/3
f 169/2/4 170/2/4 171/2/4
f 171/2/4 170/2/4 172/2/4
f 173/2/4 174/2/4 176/2/4
f 174/3/4 175/3/4 176/3/4
f 176/3/4 175/3/4 177/3/4
f 173/2/4 176/2/4 178/2/4
f 173/2/4 178/2/4 180/2/4
f 178/3/4 179/3/4 181/3/4
f 180/2/4 178/2/4 181/2/4
f 181/3/4 179/3/4 182/3/4
f 183/2/4 184/2/4 185/2/4
f 185/2/4 184/2/4 186/2/4
f 187/3/4 188/3/4 189/3/4
f 189/3/4 188/3/4 190/3/4
f 191/2/4 192/2/4 193/2/4
f 193/2/4 192/2/4 194/2/4
f 195/2/4 196/2/4 198/2/4
f 196/3/4 197/3/4 199/3/4
f 198/2/4 196/2/4 199/2/4
f 199/3/4 197/3/4 200/3/4
f 201/2/4 202/2/4 203/2/4
f 203/2/4 202/2/4 204/2/4
f 205/3/4 206/3/4 207/3/4
f 207/3/4 206/3/4 208/3/4
f 211/3/5 210/3/5 209/3/5
f 212/3/5 210/3/5 211/3/5
f 215/3/5 214/3/5 213/3/5
f 216/3/5 214/3/5 215/3/5
f 219/3/5 218/3/5 217/3/5
f 220/3/5 218/3/5 219/3/5
f 221/1/5 220/1/5 219/1/5
f 222/1/5 220/1/5 221/1/5
f 223/3/5 222/3/5 221/3/5
f 224/3/5 222/3/5 223/3/5
f 225/1/5 224/1/5 223/1/5
f 226/1/5 224/1/5 225/1/5
f 227/3/5 226/3/5 225/3/5
f 228/3/5 226/3/5 227/3/5
f 229/1/5 228/1/5 227/1/5
f 230/1/5 228/1/5 229/1/5
f 231/3/5 230/3/5 229/3/5
f 232/3/5 230/3/5 231/3/5
f 233/1/5 232/1/5 231/1/5
f 234/1/5 232/1/5 233/1/5
f 235/3/5 234/3/5 233/3/5
f 236/3/5 234/3/5 235/3/5
f 237/1/5 236/1/5 235/1/5
f 238/1/5 236/1/5 237/1/5
f 239/3/5 238/3/5 237/3/5
f 240/3/5 238/3/5 239/3/5
f 241/1/5 240/1/5 239/1/5
f 242/1/5 240/1/5 241/1/5
f 243/3/5 242/3/5 241/3/5
f 244/3/5 242/3/5 243/3/5
f 245/3/6 246/3/6 247/3/6
f 247/3/6 246/3/6 248/3/6
f 245/3/6 247/3/6 249/3/6
f 248/3/6 246/3/6 250/3/6
f 245/3/6 249/3/6 251/3/6
f 249/3/6 250/3/6 251/3/6
f 250/3/6 246/3/6 252/3/6
f 251/3/6 250/3/6 252/3/6
f 253/3/6 254/3/6 255/3/6
f 255/3/6 254/3/6 256/3/6
f 253/3/6 255/3/6 257/3/6
f 256/3/6 254/3/6 258/3/6
f 253/3/6 257/3/6 259/3/6
f 257/3/6 258/3/6 259/3/6
f 258/3/6 254/3/6 260/3/6
f 259/3/6 258/3/6 260/3/6
f 261/2/6 262/2/6 263/2/6
f 263/2/6 262/2/6 264/2/6
f 261/2/6 263/2/6 265/2/6
f 264/2/6 262/2/6 266/2/6
f 261/2/6 265/2/6 267/2/6
f 265/2/6 266/2/6 267/2/6
f 266/2/6 262/2/6 268/2/6
f 267/2/6 266/2/6 268/2/6
f 269/2/6 270/2/6 271/2/6
f 271/2/6 270/2/6 272/2/6
f 269/2/6 271/2/6 273/2/6
f 272/2/6 270/2/6 274/2/6
f 269/2/6 273/2/6 275/2/6
f 273/2/6 274/2/6 275/2/6
f 274/2/6 270/2/6 276/2/6
f 275/2/6 274/2/6 276/2/6
f 277/3/6 278/3/6 279/3/6
f 279/3/6 278/3/6 280/3/6
f 277/3/6 279/3/6 281/3/6
f 280/3/6 278/3/6 282/3/6
f 277/3/6 281/3/6 283/3/6
f 281/3/6 282/3/6 283/3/6
f 283/3/6 282/3/6 284/3/6
f 282/3/6 278/3/6 285/3/6
f 284/3/6 282/3/6 285/3/6
f 285/3/6 278/3/6 286/3/6
f 284/3/6 285/3/6 287/3/6
f 287/3/6 285/3/6 288/3/6
f 287/1/6 288/1/6 289/1/6
f 289/1/6 288/1/6 290/1/6
f 289/3/6 290/3/6 291/3/6
f 291/3/6 290/3/6 292/3/6
f 291/1/6 292/1/6 293/1/6
f 293/1/6 292/1/6 294/1/6
f 293/3/6 294/3/6 295/3/6
f 295/3/6 294/3/6 296/3/6
f 295/1/6 296/1/6 297/1/6
f 297/1/6 296/1/6 298/1/6
f 297/3/6 298/3/6 299/3/6
f 299/3/6 298/3/6 300/3/6
f 299/1/6 300/1/6 301/1/6
f 301/1/6 300/1/6 302/1/6
f 301/3/6 302/3/6 303/3/6
f 303/3/6 302/3/6 304/3/6
f 303/1/6 304/1/6 305/1/6
f 305/1/6 304/1/6 306/1/6
f 305/3/6 306/3/6 307/3/6
f 307/3/6 306/3/6 308/3/6
f 307/1/6 308/1/6 309/1/6
f 309/1/6 308/1/6 310/1/6
f 309/3/6 310/3/6 312/3/6
f 312/3/6 310/3/6 313/3/6
f 312/3/6 313/3/6 315/3/6
f 313/3/6 314/3/6 315/3/6
f 311/3/6 312/3/6 315/3/6
f 315/3/6 314/3/6 316/3/6
f 311/3/6 315/3/6 317/3/6
f 316/3/6 314/3/6 318/3/6
f 311/3/6 317/3/6 319/3/6
f 317/3/6 318/3/6 319/3/6
f 318/3/6 314/3/6 320/3/6
f 319/3/6 318/3/6 320/3/6
f 321/2/6 322/2/6 323/2/6
f 323/2/6 322/2/6 324/2/6
f 325/2/6 326/2/6 327/2/6
f 327/2/6 326/2/6 328/2/6
