# MagicaVoxel @ Ephtracy

# group
o 

# material
mtllib keiziban.mtl
usemtl palette

# normals
vn -1 0 0
vn 1 0 0
vn 0 0 1
vn 0 0 -1
vn 0 -1 0
vn 0 1 0

# texcoords
vt 0.0136719 0.5
vt 0.134766 0.5
vt 0.986328 0.5

# verts
v 0.7 0.5 3.2
v 0.7 0.5 3.1
v 0.7 1.8 3.2
v 0.7 1.8 3.1
v 0.8 1.6 3.1
v 0.8 1.6 3
v 0.8 1.7 3.1
v 0.8 1.7 3
v 0.8 1.8 3.2
v 0.8 1.8 3.1
v 0.8 1.9 3.2
v 0.8 1.9 3.1
v 0.9 0.3 3.2
v 0.9 0.3 3.1
v 0.9 0.4 3.2
v 0.9 0.4 3.1
v 0.9 0.6 3.1
v 0.9 0.6 3
v 0.9 0.8 3.1
v 0.9 0.8 3
v 0.9 1.5 3.1
v 0.9 1.5 3
v 0.9 1.6 3.1
v 0.9 1.6 3
v 0.9 1.7 3.1
v 0.9 1.7 3
v 0.9 1.8 3.1
v 0.9 1.8 3
v 1 0.4 3.2
v 1 0.4 3.1
v 1 0.5 3.2
v 1 0.5 3.1
v 1 1.1 3.1
v 1 1.1 3
v 1 1.2 3.1
v 1 1.2 3
v 1.1 0.7 3.1
v 1.1 0.7 3
v 1.1 1 3.1
v 1.1 1 3
v 1.1 1.2 3.1
v 1.1 1.2 3
v 1.1 1.3 3.1
v 1.1 1.3 3
v 1.1 1.4 3.1
v 1.1 1.4 3
v 1.1 1.5 3.1
v 1.1 1.5 3
v 1.2 1.3 3.1
v 1.2 1.3 3
v 1.2 1.4 3.1
v 1.2 1.4 3
v 1.3 0.6 3.1
v 1.3 0.6 3
v 1.3 0.7 3.1
v 1.3 0.7 3
v 0.9 1.6 3.1
v 0.9 1.6 3
v 0.9 1.7 3.1
v 0.9 1.7 3
v 1 0.7 3.1
v 1 0.7 3
v 1 0.8 3.1
v 1 0.8 3
v 1 1.7 3.1
v 1 1.7 3
v 1 1.8 3.1
v 1 1.8 3
v 1.2 0.6 3.1
v 1.2 0.6 3
v 1.2 0.7 3.1
v 1.2 0.7 3
v 1.2 0.9 3.1
v 1.2 0.9 3
v 1.2 1 3.1
v 1.2 1 3
v 1.2 1.1 3.1
v 1.2 1.1 3
v 1.2 1.2 3.1
v 1.2 1.2 3
v 1.2 1.4 3.1
v 1.2 1.4 3
v 1.2 1.5 3.1
v 1.2 1.5 3
v 1.3 0.4 3.2
v 1.3 0.4 3.1
v 1.3 0.5 3.2
v 1.3 0.5 3.1
v 1.3 0.8 3.1
v 1.3 0.8 3
v 1.3 0.9 3.1
v 1.3 0.9 3
v 1.3 1.2 3.1
v 1.3 1.2 3
v 1.3 1.4 3.1
v 1.3 1.4 3
v 1.4 0.3 3.2
v 1.4 0.3 3.1
v 1.4 0.4 3.2
v 1.4 0.4 3.1
v 1.4 0.6 3.1
v 1.4 0.6 3
v 1.4 0.8 3.1
v 1.4 0.8 3
v 1.4 1.5 3.1
v 1.4 1.5 3
v 1.4 1.6 3.1
v 1.4 1.6 3
v 1.5 1.8 3.2
v 1.5 1.8 3.1
v 1.5 1.9 3.2
v 1.5 1.9 3.1
v 1.6 0.5 3.2
v 1.6 0.5 3.1
v 1.6 1.8 3.2
v 1.6 1.8 3.1
v 0.7 0.5 3.2
v 0.7 1.8 3.2
v 0.8 0.5 3.2
v 0.8 1.8 3.2
v 0.8 1.9 3.2
v 0.9 0.3 3.2
v 0.9 0.4 3.2
v 1 0.4 3.2
v 1 0.5 3.2
v 1.3 0.4 3.2
v 1.3 0.5 3.2
v 1.4 0.3 3.2
v 1.4 0.4 3.2
v 1.5 0.5 3.2
v 1.5 1.8 3.2
v 1.5 1.9 3.2
v 1.6 0.5 3.2
v 1.6 1.8 3.2
v 0.7 0.5 3.1
v 0.7 1.8 3.1
v 0.8 0.5 3.1
v 0.8 1.6 3.1
v 0.8 1.7 3.1
v 0.8 1.8 3.1
v 0.8 1.9 3.1
v 0.9 0.3 3.1
v 0.9 0.4 3.1
v 0.9 0.6 3.1
v 0.9 0.8 3.1
v 0.9 1.5 3.1
v 0.9 1.6 3.1
v 0.9 1.7 3.1
v 0.9 1.8 3.1
v 1 0.4 3.1
v 1 0.5 3.1
v 1 0.7 3.1
v 1 0.8 3.1
v 1 1.1 3.1
v 1 1.2 3.1
v 1 1.7 3.1
v 1 1.8 3.1
v 1.1 0.7 3.1
v 1.1 1 3.1
v 1.1 1.2 3.1
v 1.1 1.3 3.1
v 1.1 1.4 3.1
v 1.1 1.5 3.1
v 1.2 0.6 3.1
v 1.2 0.7 3.1
v 1.2 0.9 3.1
v 1.2 1 3.1
v 1.2 1.1 3.1
v 1.2 1.2 3.1
v 1.2 1.3 3.1
v 1.2 1.4 3.1
v 1.2 1.5 3.1
v 1.3 0.4 3.1
v 1.3 0.5 3.1
v 1.3 0.6 3.1
v 1.3 0.7 3.1
v 1.3 0.8 3.1
v 1.3 0.9 3.1
v 1.3 1.2 3.1
v 1.3 1.4 3.1
v 1.4 0.3 3.1
v 1.4 0.4 3.1
v 1.4 0.6 3.1
v 1.4 0.8 3.1
v 1.4 1.5 3.1
v 1.4 1.6 3.1
v 1.5 0.5 3.1
v 1.5 1.8 3.1
v 1.5 1.9 3.1
v 1.6 0.5 3.1
v 1.6 1.8 3.1
v 0.8 1.6 3
v 0.8 1.7 3
v 0.9 0.6 3
v 0.9 0.8 3
v 0.9 1.5 3
v 0.9 1.6 3
v 0.9 1.7 3
v 0.9 1.8 3
v 1 0.7 3
v 1 0.8 3
v 1 1.1 3
v 1 1.2 3
v 1 1.7 3
v 1 1.8 3
v 1.1 0.7 3
v 1.1 1 3
v 1.1 1.2 3
v 1.1 1.3 3
v 1.1 1.4 3
v 1.1 1.5 3
v 1.2 0.6 3
v 1.2 0.7 3
v 1.2 0.9 3
v 1.2 1 3
v 1.2 1.1 3
v 1.2 1.2 3
v 1.2 1.3 3
v 1.2 1.4 3
v 1.2 1.5 3
v 1.3 0.6 3
v 1.3 0.7 3
v 1.3 0.8 3
v 1.3 0.9 3
v 1.3 1.2 3
v 1.3 1.4 3
v 1.4 0.6 3
v 1.4 0.8 3
v 1.4 1.5 3
v 1.4 1.6 3
v 0.9 0.3 3.2
v 1.4 0.3 3.2
v 0.9 0.3 3.1
v 1.4 0.3 3.1
v 0.7 0.5 3.2
v 0.8 0.5 3.2
v 1 0.5 3.2
v 1.3 0.5 3.2
v 1.5 0.5 3.2
v 1.6 0.5 3.2
v 0.7 0.5 3.1
v 0.8 0.5 3.1
v 1 0.5 3.1
v 1.3 0.5 3.1
v 1.5 0.5 3.1
v 1.6 0.5 3.1
v 0.9 0.6 3.1
v 1.2 0.6 3.1
v 1.3 0.6 3.1
v 1.4 0.6 3.1
v 0.9 0.6 3
v 1.2 0.6 3
v 1.3 0.6 3
v 1.4 0.6 3
v 1.2 0.7 3.1
v 1.3 0.7 3.1
v 1.2 0.7 3
v 1.3 0.7 3
v 1 1.1 3.1
v 1.2 1.1 3.1
v 1 1.1 3
v 1.2 1.1 3
v 1.2 1.2 3.1
v 1.3 1.2 3.1
v 1.2 1.2 3
v 1.3 1.2 3
v 1.1 1.4 3.1
v 1.2 1.4 3.1
v 1.1 1.4 3
v 1.2 1.4 3
v 0.9 1.5 3.1
v 1.1 1.5 3.1
v 1.2 1.5 3.1
v 1.4 1.5 3.1
v 0.9 1.5 3
v 1.1 1.5 3
v 1.2 1.5 3
v 1.4 1.5 3
v 0.8 1.6 3.1
v 0.9 1.6 3.1
v 0.8 1.6 3
v 0.9 1.6 3
v 0.9 1.7 3.1
v 1 1.7 3.1
v 0.9 1.7 3
v 1 1.7 3
v 0.9 0.4 3.2
v 1 0.4 3.2
v 1.3 0.4 3.2
v 1.4 0.4 3.2
v 0.9 0.4 3.1
v 1 0.4 3.1
v 1.3 0.4 3.1
v 1.4 0.4 3.1
v 1 0.7 3.1
v 1.1 0.7 3.1
v 1 0.7 3
v 1.1 0.7 3
v 0.9 0.8 3.1
v 1 0.8 3.1
v 1.3 0.8 3.1
v 1.4 0.8 3.1
v 0.9 0.8 3
v 1 0.8 3
v 1.3 0.8 3
v 1.4 0.8 3
v 1.2 0.9 3.1
v 1.3 0.9 3.1
v 1.2 0.9 3
v 1.3 0.9 3
v 1.1 1 3.1
v 1.2 1 3.1
v 1.1 1 3
v 1.2 1 3
v 1 1.2 3.1
v 1.1 1.2 3.1
v 1 1.2 3
v 1.1 1.2 3
v 1.1 1.3 3.1
v 1.2 1.3 3.1
v 1.1 1.3 3
v 1.2 1.3 3
v 1.2 1.4 3.1
v 1.3 1.4 3.1
v 1.2 1.4 3
v 1.3 1.4 3
v 0.9 1.6 3.1
v 1.4 1.6 3.1
v 0.9 1.6 3
v 1.4 1.6 3
v 0.8 1.7 3.1
v 0.9 1.7 3.1
v 0.8 1.7 3
v 0.9 1.7 3
v 0.7 1.8 3.2
v 0.8 1.8 3.2
v 1.5 1.8 3.2
v 1.6 1.8 3.2
v 0.7 1.8 3.1
v 0.8 1.8 3.1
v 0.9 1.8 3.1
v 1 1.8 3.1
v 1.5 1.8 3.1
v 1.6 1.8 3.1
v 0.9 1.8 3
v 1 1.8 3
v 0.8 1.9 3.2
v 1.5 1.9 3.2
v 0.8 1.9 3.1
v 1.5 1.9 3.1

# faces
f 3/3/1 2/3/1 1/3/1
f 4/3/1 2/3/1 3/3/1
f 7/2/1 6/2/1 5/2/1
f 8/2/1 6/2/1 7/2/1
f 11/3/1 10/3/1 9/3/1
f 12/3/1 10/3/1 11/3/1
f 15/3/1 14/3/1 13/3/1
f 16/3/1 14/3/1 15/3/1
f 19/2/1 18/2/1 17/2/1
f 20/2/1 18/2/1 19/2/1
f 23/2/1 22/2/1 21/2/1
f 24/2/1 22/2/1 23/2/1
f 27/2/1 26/2/1 25/2/1
f 28/2/1 26/2/1 27/2/1
f 31/3/1 30/3/1 29/3/1
f 32/3/1 30/3/1 31/3/1
f 35/2/1 34/2/1 33/2/1
f 36/2/1 34/2/1 35/2/1
f 39/2/1 38/2/1 37/2/1
f 40/2/1 38/2/1 39/2/1
f 43/2/1 42/2/1 41/2/1
f 44/2/1 42/2/1 43/2/1
f 47/2/1 46/2/1 45/2/1
f 48/2/1 46/2/1 47/2/1
f 51/2/1 50/2/1 49/2/1
f 52/2/1 50/2/1 51/2/1
f 55/2/1 54/2/1 53/2/1
f 56/2/1 54/2/1 55/2/1
f 57/2/2 58/2/2 59/2/2
f 59/2/2 58/2/2 60/2/2
f 61/2/2 62/2/2 63/2/2
f 63/2/2 62/2/2 64/2/2
f 65/2/2 66/2/2 67/2/2
f 67/2/2 66/2/2 68/2/2
f 69/2/2 70/2/2 71/2/2
f 71/2/2 70/2/2 72/2/2
f 73/2/2 74/2/2 75/2/2
f 75/2/2 74/2/2 76/2/2
f 77/2/2 78/2/2 79/2/2
f 79/2/2 78/2/2 80/2/2
f 81/2/2 82/2/2 83/2/2
f 83/2/2 82/2/2 84/2/2
f 85/3/2 86/3/2 87/3/2
f 87/3/2 86/3/2 88/3/2
f 89/2/2 90/2/2 91/2/2
f 91/2/2 90/2/2 92/2/2
f 93/2/2 94/2/2 95/2/2
f 95/2/2 94/2/2 96/2/2
f 97/3/2 98/3/2 99/3/2
f 99/3/2 98/3/2 100/3/2
f 101/2/2 102/2/2 103/2/2
f 103/2/2 102/2/2 104/2/2
f 105/2/2 106/2/2 107/2/2
f 107/2/2 106/2/2 108/2/2
f 109/3/2 110/3/2 111/3/2
f 111/3/2 110/3/2 112/3/2
f 113/3/2 114/3/2 115/3/2
f 115/3/2 114/3/2 116/3/2
f 119/3/3 118/3/3 117/3/3
f 120/3/3 118/3/3 119/3/3
f 124/3/3 123/3/3 122/3/3
f 125/1/3 120/1/3 119/1/3
f 126/3/3 124/3/3 122/3/3
f 126/3/3 125/3/3 124/3/3
f 127/1/3 120/1/3 125/1/3
f 127/3/3 125/3/3 126/3/3
f 128/3/3 126/3/3 122/3/3
f 129/3/3 126/3/3 128/3/3
f 130/1/3 120/1/3 127/1/3
f 131/3/3 121/3/3 120/3/3
f 131/1/3 120/1/3 130/1/3
f 132/3/3 121/3/3 131/3/3
f 133/3/3 131/3/3 130/3/3
f 134/3/3 131/3/3 133/3/3
f 135/3/4 136/3/4 137/3/4
f 137/3/4 136/3/4 138/3/4
f 138/3/4 136/3/4 139/3/4
f 139/3/4 136/3/4 140/3/4
f 137/1/4 138/1/4 144/1/4
f 144/1/4 138/1/4 145/1/4
f 145/1/4 138/1/4 146/1/4
f 146/1/4 138/1/4 147/1/4
f 139/1/4 140/1/4 148/1/4
f 140/3/4 141/3/4 149/3/4
f 148/1/4 140/1/4 149/1/4
f 142/3/4 143/3/4 150/3/4
f 137/1/4 144/1/4 151/1/4
f 145/1/4 146/1/4 153/1/4
f 153/1/4 146/1/4 154/1/4
f 154/1/4 146/1/4 155/1/4
f 147/1/4 148/1/4 156/1/4
f 149/3/4 141/3/4 157/3/4
f 152/1/4 153/1/4 158/1/4
f 153/1/4 154/1/4 158/1/4
f 158/1/4 154/1/4 159/1/4
f 155/1/4 146/1/4 160/1/4
f 160/1/4 146/1/4 161/1/4
f 161/1/4 146/1/4 162/1/4
f 162/1/4 146/1/4 163/1/4
f 151/1/4 144/1/4 164/1/4
f 159/1/4 154/1/4 167/1/4
f 167/1/4 154/1/4 168/1/4
f 161/1/4 162/1/4 170/1/4
f 170/1/4 162/1/4 171/1/4
f 142/3/4 150/3/4 173/3/4
f 150/3/4 151/3/4 173/3/4
f 164/1/4 165/1/4 174/1/4
f 173/3/4 151/3/4 174/3/4
f 151/1/4 164/1/4 174/1/4
f 174/1/4 165/1/4 175/1/4
f 175/1/4 165/1/4 176/1/4
f 168/1/4 169/1/4 178/1/4
f 167/1/4 168/1/4 178/1/4
f 166/1/4 167/1/4 178/1/4
f 178/1/4 169/1/4 179/1/4
f 171/1/4 172/1/4 180/1/4
f 142/3/4 173/3/4 181/3/4
f 181/3/4 173/3/4 182/3/4
f 174/1/4 175/1/4 183/1/4
f 179/1/4 180/1/4 184/1/4
f 178/1/4 179/1/4 184/1/4
f 177/1/4 178/1/4 184/1/4
f 180/1/4 172/1/4 185/1/4
f 184/1/4 180/1/4 185/1/4
f 147/1/4 156/1/4 186/1/4
f 156/1/4 157/1/4 186/1/4
f 184/1/4 185/1/4 187/1/4
f 185/1/4 186/1/4 187/1/4
f 174/1/4 183/1/4 187/1/4
f 183/1/4 184/1/4 187/1/4
f 186/1/4 157/1/4 188/1/4
f 187/1/4 186/1/4 188/1/4
f 157/3/4 141/3/4 188/3/4
f 188/3/4 141/3/4 189/3/4
f 187/3/4 188/3/4 190/3/4
f 190/3/4 188/3/4 191/3/4
f 192/2/4 193/2/4 197/2/4
f 197/2/4 193/2/4 198/2/4
f 194/2/4 195/2/4 200/2/4
f 200/2/4 195/2/4 201/2/4
f 198/2/4 199/2/4 204/2/4
f 204/2/4 199/2/4 205/2/4
f 194/2/4 200/2/4 206/2/4
f 202/2/4 203/2/4 208/2/4
f 196/2/4 197/2/4 211/2/4
f 206/2/4 207/2/4 212/2/4
f 194/2/4 206/2/4 212/2/4
f 212/2/4 207/2/4 213/2/4
f 213/2/4 207/2/4 214/2/4
f 214/2/4 207/2/4 215/2/4
f 208/2/4 209/2/4 216/2/4
f 202/2/4 208/2/4 216/2/4
f 216/2/4 209/2/4 217/2/4
f 217/2/4 209/2/4 218/2/4
f 210/2/4 211/2/4 219/2/4
f 211/2/4 197/2/4 220/2/4
f 219/2/4 211/2/4 220/2/4
f 213/2/4 214/2/4 222/2/4
f 222/2/4 214/2/4 223/2/4
f 223/2/4 214/2/4 224/2/4
f 217/2/4 218/2/4 225/2/4
f 218/2/4 219/2/4 225/2/4
f 225/2/4 219/2/4 226/2/4
f 222/2/4 223/2/4 227/2/4
f 221/2/4 222/2/4 227/2/4
f 227/2/4 223/2/4 228/2/4
f 220/2/4 197/2/4 229/2/4
f 229/2/4 197/2/4 230/2/4
f 233/3/5 232/3/5 231/3/5
f 234/3/5 232/3/5 233/3/5
f 241/3/5 236/3/5 235/3/5
f 242/1/5 237/1/5 236/1/5
f 242/3/5 236/3/5 241/3/5
f 243/1/5 237/1/5 242/1/5
f 244/1/5 239/1/5 238/1/5
f 245/3/5 240/3/5 239/3/5
f 245/1/5 239/1/5 244/1/5
f 246/3/5 240/3/5 245/3/5
f 251/2/5 248/2/5 247/2/5
f 252/2/5 248/2/5 251/2/5
f 253/2/5 250/2/5 249/2/5
f 254/2/5 250/2/5 253/2/5
f 257/2/5 256/2/5 255/2/5
f 258/2/5 256/2/5 257/2/5
f 261/2/5 260/2/5 259/2/5
f 262/2/5 260/2/5 261/2/5
f 265/2/5 264/2/5 263/2/5
f 266/2/5 264/2/5 265/2/5
f 269/2/5 268/2/5 267/2/5
f 270/2/5 268/2/5 269/2/5
f 275/2/5 272/2/5 271/2/5
f 276/2/5 272/2/5 275/2/5
f 277/2/5 274/2/5 273/2/5
f 278/2/5 274/2/5 277/2/5
f 281/2/5 280/2/5 279/2/5
f 282/2/5 280/2/5 281/2/5
f 285/2/5 284/2/5 283/2/5
f 286/2/5 284/2/5 285/2/5
f 287/3/6 288/3/6 291/3/6
f 291/3/6 288/3/6 292/3/6
f 289/3/6 290/3/6 293/3/6
f 293/3/6 290/3/6 294/3/6
f 295/2/6 296/2/6 297/2/6
f 297/2/6 296/2/6 298/2/6
f 299/2/6 300/2/6 303/2/6
f 303/2/6 300/2/6 304/2/6
f 301/2/6 302/2/6 305/2/6
f 305/2/6 302/2/6 306/2/6
f 307/2/6 308/2/6 309/2/6
f 309/2/6 308/2/6 310/2/6
f 311/2/6 312/2/6 313/2/6
f 313/2/6 312/2/6 314/2/6
f 315/2/6 316/2/6 317/2/6
f 317/2/6 316/2/6 318/2/6
f 319/2/6 320/2/6 321/2/6
f 321/2/6 320/2/6 322/2/6
f 323/2/6 324/2/6 325/2/6
f 325/2/6 324/2/6 326/2/6
f 327/2/6 328/2/6 329/2/6
f 329/2/6 328/2/6 330/2/6
f 331/2/6 332/2/6 333/2/6
f 333/2/6 332/2/6 334/2/6
f 335/3/6 336/3/6 339/3/6
f 339/3/6 336/3/6 340/3/6
f 337/3/6 338/3/6 343/3/6
f 343/3/6 338/3/6 344/3/6
f 341/2/6 342/2/6 345/2/6
f 345/2/6 342/2/6 346/2/6
f 347/3/6 348/3/6 349/3/6
f 349/3/6 348/3/6 350/3/6
