# MagicaVoxel @ Ephtracy

# group
o 

# material
mtllib Land1.mtl
usemtl palette

# normals
vn -1 0 0
vn 1 0 0
vn 0 0 1
vn 0 0 -1
vn 0 -1 0
vn 0 1 0

# texcoords
vt 0.462891 0.5
vt 0.466797 0.5
vt 0.900391 0.5
vt 0.966797 0.5
vt 0.982422 0.5

# verts
v -6 0.1 6
v -6 0.1 1.5
v -6 0.1 -1.6
v -6 0.1 -2.1
v -6 0.1 -6.1
v -6 0.2 6
v -6 0.2 1.5
v -6 0.2 -1.6
v -6 0.2 -2.1
v -6 0.2 -6.1
v 1.6 0.1 6
v 1.6 0.1 1.5
v 1.6 0.1 -1.6
v 1.6 0.1 -6.1
v 1.6 0.2 6
v 1.6 0.2 1.5
v 1.6 0.2 -1.6
v 1.6 0.2 -6.1
v 2.1 0.2 2.8
v 2.1 0.2 2
v 2.1 0.3 2.8
v 2.1 0.3 2
v -1.5 0.1 6
v -1.5 0.1 1.5
v -1.5 0.1 -1.6
v -1.5 0.1 -6.1
v -1.5 0.2 6
v -1.5 0.2 1.5
v -1.5 0.2 -1.6
v -1.5 0.2 -6.1
v 2.4 0.2 2.8
v 2.4 0.2 2.3
v 2.4 0.3 2.8
v 2.4 0.3 2.3
v 6.1 0.1 6
v 6.1 0.1 2.5
v 6.1 0.1 1.5
v 6.1 0.1 -1.6
v 6.1 0.1 -6.1
v 6.1 0.2 6
v 6.1 0.2 2.5
v 6.1 0.2 2.3
v 6.1 0.2 2
v 6.1 0.2 1.5
v 6.1 0.2 -1.6
v 6.1 0.2 -6.1
v 6.1 0.3 2.3
v 6.1 0.3 2
v -6 0.1 6
v -6 0.2 6
v -1.5 0.1 6
v -1.5 0.2 6
v 1.6 0.1 6
v 1.6 0.2 6
v 2.6 0.1 6
v 2.6 0.2 6
v 6.1 0.1 6
v 6.1 0.2 6
v 2.1 0.2 2.8
v 2.1 0.3 2.8
v 2.4 0.2 2.8
v 2.4 0.3 2.8
v 2.4 0.2 2.3
v 2.4 0.3 2.3
v 6.1 0.2 2.3
v 6.1 0.3 2.3
v -6 0.1 -1.6
v -6 0.2 -1.6
v -1.5 0.1 -1.6
v -1.5 0.2 -1.6
v 1.6 0.1 -1.6
v 1.6 0.2 -1.6
v 6.1 0.1 -1.6
v 6.1 0.2 -1.6
v 2.1 0.2 2
v 2.1 0.3 2
v 6.1 0.2 2
v 6.1 0.3 2
v -6 0.1 1.5
v -6 0.2 1.5
v -1.5 0.1 1.5
v -1.5 0.2 1.5
v 1.6 0.1 1.5
v 1.6 0.2 1.5
v 6.1 0.1 1.5
v 6.1 0.2 1.5
v -6 0.1 -6.1
v -6 0.2 -6.1
v -2.6 0.1 -6.1
v -2.6 0.2 -6.1
v -2.3 0.1 -6.1
v -2.3 0.2 -6.1
v -2 0.1 -6.1
v -2 0.2 -6.1
v -1.5 0.1 -6.1
v -1.5 0.2 -6.1
v 1.6 0.1 -6.1
v 1.6 0.2 -6.1
v 6.1 0.1 -6.1
v 6.1 0.2 -6.1
v -6 0.1 6
v -1.5 0.1 6
v 1.6 0.1 6
v 2.6 0.1 6
v 6.1 0.1 6
v 2.6 0.1 2.5
v 6.1 0.1 2.5
v -6 0.1 1.5
v -1.5 0.1 1.5
v 1.6 0.1 1.5
v 6.1 0.1 1.5
v -6 0.1 -1.6
v -1.5 0.1 -1.6
v 1.6 0.1 -1.6
v 6.1 0.1 -1.6
v -6 0.1 -2.1
v -5.8 0.1 -2.1
v -5.7 0.1 -2.1
v -2 0.1 -2.1
v -5.8 0.1 -2.2
v -5.7 0.1 -2.2
v -5.4 0.1 -2.2
v -5.3 0.1 -2.2
v -4.6 0.1 -2.2
v -4.5 0.1 -2.2
v -4.2 0.1 -2.2
v -3.9 0.1 -2.2
v -5.6 0.1 -2.3
v -5.5 0.1 -2.3
v -5.4 0.1 -2.3
v -5.3 0.1 -2.3
v -4.6 0.1 -2.3
v -4.5 0.1 -2.3
v -3.5 0.1 -2.3
v -3.4 0.1 -2.3
v -2.4 0.1 -2.3
v -2.3 0.1 -2.3
v -5.8 0.1 -2.4
v -5.7 0.1 -2.4
v -5.6 0.1 -2.4
v -5.5 0.1 -2.4
v -5.3 0.1 -2.4
v -4.8 0.1 -2.4
v -4.2 0.1 -2.4
v -3.9 0.1 -2.4
v -3.8 0.1 -2.4
v -3.6 0.1 -2.4
v -3.2 0.1 -2.4
v -3.1 0.1 -2.4
v -2.4 0.1 -2.4
v -2.3 0.1 -2.4
v -5.8 0.1 -2.5
v -5.7 0.1 -2.5
v -4.5 0.1 -2.5
v -4.2 0.1 -2.5
v -3.2 0.1 -2.5
v -3.1 0.1 -2.5
v -2.8 0.1 -2.5
v -2.7 0.1 -2.5
v -2.5 0.1 -2.5
v -2.4 0.1 -2.5
v -5.7 0.1 -2.6
v -5.4 0.1 -2.6
v -5.3 0.1 -2.6
v -4.8 0.1 -2.6
v -4.5 0.1 -2.6
v -4.2 0.1 -2.6
v -3.8 0.1 -2.6
v -3.6 0.1 -2.6
v -2.8 0.1 -2.6
v -2.7 0.1 -2.6
v -2.6 0.1 -2.6
v -5.9 0.1 -2.7
v -5.7 0.1 -2.7
v -4.5 0.1 -2.7
v -4.4 0.1 -2.7
v -4 0.1 -2.7
v -3.9 0.1 -2.7
v -3.5 0.1 -2.7
v -3.4 0.1 -2.7
v -2.7 0.1 -2.7
v -2.6 0.1 -2.7
v -2.5 0.1 -2.7
v -2.4 0.1 -2.7
v -5.9 0.1 -2.8
v -5.7 0.1 -2.8
v -4.5 0.1 -2.8
v -4.4 0.1 -2.8
v -3.1 0.1 -2.8
v -2.8 0.1 -2.8
v -3.4 0.1 -2.9
v -3.2 0.1 -2.9
v -2.2 0.1 -2.9
v -2 0.1 -2.9
v -5.7 0.1 -3
v -5.4 0.1 -3
v -5.1 0.1 -3
v -4.8 0.1 -3
v -4.6 0.1 -3
v -4.4 0.1 -3
v -4.3 0.1 -3
v -4 0.1 -3
v -3.9 0.1 -3
v -3.8 0.1 -3
v -3.4 0.1 -3
v -3.2 0.1 -3
v -2.2 0.1 -3
v -2 0.1 -3
v -5.9 0.1 -3.1
v -5.7 0.1 -3.1
v -3.7 0.1 -3.1
v -3.6 0.1 -3.1
v -2.4 0.1 -3.1
v -2.3 0.1 -3.1
v -5.1 0.1 -3.2
v -4.8 0.1 -3.2
v -4.3 0.1 -3.2
v -3.8 0.1 -3.2
v -3.7 0.1 -3.2
v -3.6 0.1 -3.2
v -3.1 0.1 -3.2
v -2.8 0.1 -3.2
v -3.2 0.1 -3.3
v -2.9 0.1 -3.3
v -5.9 0.1 -3.4
v -5.7 0.1 -3.4
v -5.5 0.1 -3.4
v -5.4 0.1 -3.4
v -4.6 0.1 -3.4
v -4.4 0.1 -3.4
v -4.2 0.1 -3.4
v -3.7 0.1 -3.4
v -3.6 0.1 -3.4
v -3.4 0.1 -3.4
v -2.4 0.1 -3.4
v -2.3 0.1 -3.4
v -5.5 0.1 -3.5
v -5.4 0.1 -3.5
v -3.2 0.1 -3.5
v -2.9 0.1 -3.5
v -5.3 0.1 -3.6
v -5 0.1 -3.6
v -4.2 0.1 -3.6
v -4 0.1 -3.6
v -3.6 0.1 -3.6
v -3.4 0.1 -3.6
v -2.2 0.1 -3.6
v -2.1 0.1 -3.6
v -5.8 0.1 -3.7
v -5.7 0.1 -3.7
v -4 0.1 -3.7
v -3.7 0.1 -3.7
v -2.2 0.1 -3.7
v -2.1 0.1 -3.7
v -3.2 0.1 -3.8
v -3 0.1 -3.8
v -2.7 0.1 -3.8
v -2.5 0.1 -3.8
v -2.2 0.1 -3.8
v -2.1 0.1 -3.8
v -4.9 0.1 -3.9
v -4.8 0.1 -3.9
v -4.3 0.1 -3.9
v -4.2 0.1 -3.9
v -2.2 0.1 -3.9
v -2.1 0.1 -3.9
v -5.8 0.1 -4
v -5.7 0.1 -4
v -5.3 0.1 -4
v -5 0.1 -4
v -4.9 0.1 -4
v -4.8 0.1 -4
v -4.3 0.1 -4
v -4.2 0.1 -4
v -4.1 0.1 -4
v -4 0.1 -4
v -3.2 0.1 -4
v -3 0.1 -4
v -4 0.1 -4.1
v -3.5 0.1 -4.1
v -4.7 0.1 -4.2
v -4.5 0.1 -4.2
v -3.5 0.1 -4.2
v -3.4 0.1 -4.2
v -3.1 0.1 -4.2
v -3 0.1 -4.2
v -3.5 0.1 -4.3
v -3.4 0.1 -4.3
v -3.1 0.1 -4.3
v -3 0.1 -4.3
v -2.7 0.1 -4.3
v -2.5 0.1 -4.3
v -2.4 0.1 -4.3
v -2.3 0.1 -4.3
v -5.8 0.1 -4.4
v -5.7 0.1 -4.4
v -4.8 0.1 -4.4
v -4.7 0.1 -4.4
v -4.5 0.1 -4.4
v -2.4 0.1 -4.4
v -2.3 0.1 -4.4
v -5.8 0.1 -4.5
v -5.7 0.1 -4.5
v -4.8 0.1 -4.5
v -4.7 0.1 -4.5
v -4.5 0.1 -4.5
v -4.4 0.1 -4.5
v -4.3 0.1 -4.5
v -4.1 0.1 -4.5
v -4.3 0.1 -4.6
v -4.2 0.1 -4.6
v -4 0.1 -4.6
v -3.5 0.1 -4.6
v -2.5 0.1 -4.6
v -2.1 0.1 -4.6
v -5.1 0.1 -4.7
v -5 0.1 -4.7
v -4.5 0.1 -4.7
v -4.4 0.1 -4.7
v -4.2 0.1 -4.7
v -4.1 0.1 -4.7
v -3.3 0.1 -4.7
v -2.8 0.1 -4.7
v -5.3 0.1 -4.8
v -5.1 0.1 -4.8
v -5 0.1 -4.8
v -4.8 0.1 -4.8
v -4.7 0.1 -4.8
v -4.6 0.1 -4.8
v -4.1 0.1 -4.8
v -4 0.1 -4.8
v -3.8 0.1 -4.8
v -3.6 0.1 -4.8
v -5.8 0.1 -4.9
v -5.7 0.1 -4.9
v -4.7 0.1 -4.9
v -4.6 0.1 -4.9
v -2.5 0.1 -4.9
v -2.1 0.1 -4.9
v -5.8 0.1 -5
v -5.7 0.1 -5
v -5.6 0.1 -5
v -5.5 0.1 -5
v -3.8 0.1 -5
v -3.6 0.1 -5
v -5.7 0.1 -5.1
v -5.6 0.1 -5.1
v -5.5 0.1 -5.1
v -5.3 0.1 -5.1
v -4.3 0.1 -5.1
v -3.9 0.1 -5.1
v -5.7 0.1 -5.2
v -5.6 0.1 -5.2
v -5.3 0.1 -5.3
v -5.2 0.1 -5.3
v -4.9 0.1 -5.3
v -4.8 0.1 -5.3
v -4.8 0.1 -5.4
v -4.7 0.1 -5.4
v -3.3 0.1 -5.4
v -2.8 0.1 -5.4
v -5.6 0.1 -5.5
v -5.3 0.1 -5.5
v -4.8 0.1 -5.5
v -4.7 0.1 -5.5
v -4.8 0.1 -5.6
v -4.7 0.1 -5.6
v -4.5 0.1 -5.6
v -4.3 0.1 -5.6
v -4.2 0.1 -5.6
v -3.9 0.1 -5.6
v -3.5 0.1 -5.6
v -3.1 0.1 -5.6
v -2.5 0.1 -5.6
v -2.3 0.1 -5.6
v -5.2 0.1 -5.7
v -5.1 0.1 -5.7
v -4.8 0.1 -5.7
v -4.7 0.1 -5.7
v -4.5 0.1 -5.7
v -4.2 0.1 -5.7
v -2.5 0.1 -5.7
v -2.3 0.1 -5.7
v -5.1 0.1 -5.8
v -4.9 0.1 -5.8
v -4.7 0.1 -5.8
v -3.8 0.1 -5.8
v -3.7 0.1 -5.8
v -2.6 0.1 -5.8
v -2.3 0.1 -5.8
v -5.6 0.1 -5.9
v -5.5 0.1 -5.9
v -4.9 0.1 -5.9
v -4.7 0.1 -5.9
v -4 0.1 -5.9
v -3.9 0.1 -5.9
v -3.8 0.1 -5.9
v -3.7 0.1 -5.9
v -3.5 0.1 -5.9
v -3.1 0.1 -5.9
v -5.6 0.1 -6
v -5.5 0.1 -6
v -4 0.1 -6
v -3.9 0.1 -6
v -6 0.1 -6.1
v -2.6 0.1 -6.1
v -2.3 0.1 -6.1
v -2 0.1 -6.1
v -1.5 0.1 -6.1
v 1.6 0.1 -6.1
v 6.1 0.1 -6.1
v -6 0.2 6
v -1.5 0.2 6
v 1.6 0.2 6
v 2.6 0.2 6
v 6.1 0.2 6
v 2.1 0.2 2.8
v 2.4 0.2 2.8
v 2.6 0.2 2.5
v 6.1 0.2 2.5
v 2.4 0.2 2.3
v 6.1 0.2 2.3
v 2.1 0.2 2
v 6.1 0.2 2
v -6 0.2 1.5
v -1.5 0.2 1.5
v 1.6 0.2 1.5
v 6.1 0.2 1.5
v -6 0.2 -1.6
v -1.5 0.2 -1.6
v 1.6 0.2 -1.6
v 6.1 0.2 -1.6
v -6 0.2 -2.1
v -5.8 0.2 -2.1
v -5.7 0.2 -2.1
v -2 0.2 -2.1
v -5.8 0.2 -2.2
v -5.7 0.2 -2.2
v -5.4 0.2 -2.2
v -5.3 0.2 -2.2
v -4.6 0.2 -2.2
v -4.5 0.2 -2.2
v -4.2 0.2 -2.2
v -3.9 0.2 -2.2
v -5.6 0.2 -2.3
v -5.5 0.2 -2.3
v -5.4 0.2 -2.3
v -5.3 0.2 -2.3
v -4.6 0.2 -2.3
v -4.5 0.2 -2.3
v -3.5 0.2 -2.3
v -3.4 0.2 -2.3
v -2.4 0.2 -2.3
v -2.3 0.2 -2.3
v -5.8 0.2 -2.4
v -5.7 0.2 -2.4
v -5.6 0.2 -2.4
v -5.5 0.2 -2.4
v -5.3 0.2 -2.4
v -4.8 0.2 -2.4
v -4.2 0.2 -2.4
v -3.9 0.2 -2.4
v -3.8 0.2 -2.4
v -3.6 0.2 -2.4
v -3.2 0.2 -2.4
v -3.1 0.2 -2.4
v -2.4 0.2 -2.4
v -2.3 0.2 -2.4
v -5.8 0.2 -2.5
v -5.7 0.2 -2.5
v -4.5 0.2 -2.5
v -4.2 0.2 -2.5
v -3.2 0.2 -2.5
v -3.1 0.2 -2.5
v -2.8 0.2 -2.5
v -2.7 0.2 -2.5
v -2.5 0.2 -2.5
v -2.4 0.2 -2.5
v -5.7 0.2 -2.6
v -5.4 0.2 -2.6
v -5.3 0.2 -2.6
v -4.8 0.2 -2.6
v -4.5 0.2 -2.6
v -4.2 0.2 -2.6
v -3.8 0.2 -2.6
v -3.6 0.2 -2.6
v -2.8 0.2 -2.6
v -2.7 0.2 -2.6
v -2.6 0.2 -2.6
v -5.9 0.2 -2.7
v -5.7 0.2 -2.7
v -4.5 0.2 -2.7
v -4.4 0.2 -2.7
v -4 0.2 -2.7
v -3.9 0.2 -2.7
v -3.5 0.2 -2.7
v -3.4 0.2 -2.7
v -2.7 0.2 -2.7
v -2.6 0.2 -2.7
v -2.5 0.2 -2.7
v -2.4 0.2 -2.7
v -5.9 0.2 -2.8
v -5.7 0.2 -2.8
v -4.5 0.2 -2.8
v -4.4 0.2 -2.8
v -3.1 0.2 -2.8
v -2.8 0.2 -2.8
v -3.4 0.2 -2.9
v -3.2 0.2 -2.9
v -2.2 0.2 -2.9
v -2 0.2 -2.9
v -5.7 0.2 -3
v -5.4 0.2 -3
v -5.1 0.2 -3
v -4.8 0.2 -3
v -4.6 0.2 -3
v -4.4 0.2 -3
v -4.3 0.2 -3
v -4 0.2 -3
v -3.9 0.2 -3
v -3.8 0.2 -3
v -3.4 0.2 -3
v -3.2 0.2 -3
v -2.2 0.2 -3
v -2 0.2 -3
v -5.9 0.2 -3.1
v -5.7 0.2 -3.1
v -3.7 0.2 -3.1
v -3.6 0.2 -3.1
v -2.4 0.2 -3.1
v -2.3 0.2 -3.1
v -5.1 0.2 -3.2
v -4.8 0.2 -3.2
v -4.3 0.2 -3.2
v -3.8 0.2 -3.2
v -3.7 0.2 -3.2
v -3.6 0.2 -3.2
v -3.1 0.2 -3.2
v -2.8 0.2 -3.2
v -3.2 0.2 -3.3
v -2.9 0.2 -3.3
v -5.9 0.2 -3.4
v -5.7 0.2 -3.4
v -5.5 0.2 -3.4
v -5.4 0.2 -3.4
v -4.6 0.2 -3.4
v -4.4 0.2 -3.4
v -4.2 0.2 -3.4
v -3.7 0.2 -3.4
v -3.6 0.2 -3.4
v -3.4 0.2 -3.4
v -2.4 0.2 -3.4
v -2.3 0.2 -3.4
v -5.5 0.2 -3.5
v -5.4 0.2 -3.5
v -3.2 0.2 -3.5
v -2.9 0.2 -3.5
v -5.3 0.2 -3.6
v -5 0.2 -3.6
v -4.2 0.2 -3.6
v -4 0.2 -3.6
v -3.6 0.2 -3.6
v -3.4 0.2 -3.6
v -2.2 0.2 -3.6
v -2.1 0.2 -3.6
v -5.8 0.2 -3.7
v -5.7 0.2 -3.7
v -4 0.2 -3.7
v -3.7 0.2 -3.7
v -2.2 0.2 -3.7
v -2.1 0.2 -3.7
v -3.2 0.2 -3.8
v -3 0.2 -3.8
v -2.7 0.2 -3.8
v -2.5 0.2 -3.8
v -2.2 0.2 -3.8
v -2.1 0.2 -3.8
v -4.9 0.2 -3.9
v -4.8 0.2 -3.9
v -4.3 0.2 -3.9
v -4.2 0.2 -3.9
v -2.2 0.2 -3.9
v -2.1 0.2 -3.9
v -5.8 0.2 -4
v -5.7 0.2 -4
v -5.3 0.2 -4
v -5 0.2 -4
v -4.9 0.2 -4
v -4.8 0.2 -4
v -4.3 0.2 -4
v -4.2 0.2 -4
v -4.1 0.2 -4
v -4 0.2 -4
v -3.2 0.2 -4
v -3 0.2 -4
v -4 0.2 -4.1
v -3.5 0.2 -4.1
v -4.7 0.2 -4.2
v -4.5 0.2 -4.2
v -3.5 0.2 -4.2
v -3.4 0.2 -4.2
v -3.1 0.2 -4.2
v -3 0.2 -4.2
v -3.5 0.2 -4.3
v -3.4 0.2 -4.3
v -3.1 0.2 -4.3
v -3 0.2 -4.3
v -2.7 0.2 -4.3
v -2.5 0.2 -4.3
v -2.4 0.2 -4.3
v -2.3 0.2 -4.3
v -5.8 0.2 -4.4
v -5.7 0.2 -4.4
v -4.8 0.2 -4.4
v -4.7 0.2 -4.4
v -4.5 0.2 -4.4
v -2.4 0.2 -4.4
v -2.3 0.2 -4.4
v -5.8 0.2 -4.5
v -5.7 0.2 -4.5
v -4.8 0.2 -4.5
v -4.7 0.2 -4.5
v -4.5 0.2 -4.5
v -4.4 0.2 -4.5
v -4.3 0.2 -4.5
v -4.1 0.2 -4.5
v -4.3 0.2 -4.6
v -4.2 0.2 -4.6
v -4 0.2 -4.6
v -3.5 0.2 -4.6
v -2.5 0.2 -4.6
v -2.1 0.2 -4.6
v -5.1 0.2 -4.7
v -5 0.2 -4.7
v -4.5 0.2 -4.7
v -4.4 0.2 -4.7
v -4.2 0.2 -4.7
v -4.1 0.2 -4.7
v -3.3 0.2 -4.7
v -2.8 0.2 -4.7
v -5.3 0.2 -4.8
v -5.1 0.2 -4.8
v -5 0.2 -4.8
v -4.8 0.2 -4.8
v -4.7 0.2 -4.8
v -4.6 0.2 -4.8
v -4.1 0.2 -4.8
v -4 0.2 -4.8
v -3.8 0.2 -4.8
v -3.6 0.2 -4.8
v -5.8 0.2 -4.9
v -5.7 0.2 -4.9
v -4.7 0.2 -4.9
v -4.6 0.2 -4.9
v -2.5 0.2 -4.9
v -2.1 0.2 -4.9
v -5.8 0.2 -5
v -5.7 0.2 -5
v -5.6 0.2 -5
v -5.5 0.2 -5
v -3.8 0.2 -5
v -3.6 0.2 -5
v -5.7 0.2 -5.1
v -5.6 0.2 -5.1
v -5.5 0.2 -5.1
v -5.3 0.2 -5.1
v -4.3 0.2 -5.1
v -3.9 0.2 -5.1
v -5.7 0.2 -5.2
v -5.6 0.2 -5.2
v -5.3 0.2 -5.3
v -5.2 0.2 -5.3
v -4.9 0.2 -5.3
v -4.8 0.2 -5.3
v -4.8 0.2 -5.4
v -4.7 0.2 -5.4
v -3.3 0.2 -5.4
v -2.8 0.2 -5.4
v -5.6 0.2 -5.5
v -5.3 0.2 -5.5
v -4.8 0.2 -5.5
v -4.7 0.2 -5.5
v -4.8 0.2 -5.6
v -4.7 0.2 -5.6
v -4.5 0.2 -5.6
v -4.3 0.2 -5.6
v -4.2 0.2 -5.6
v -3.9 0.2 -5.6
v -3.5 0.2 -5.6
v -3.1 0.2 -5.6
v -2.5 0.2 -5.6
v -2.3 0.2 -5.6
v -5.2 0.2 -5.7
v -5.1 0.2 -5.7
v -4.8 0.2 -5.7
v -4.7 0.2 -5.7
v -4.5 0.2 -5.7
v -4.2 0.2 -5.7
v -2.5 0.2 -5.7
v -2.3 0.2 -5.7
v -5.1 0.2 -5.8
v -4.9 0.2 -5.8
v -4.7 0.2 -5.8
v -3.8 0.2 -5.8
v -3.7 0.2 -5.8
v -2.6 0.2 -5.8
v -2.3 0.2 -5.8
v -5.6 0.2 -5.9
v -5.5 0.2 -5.9
v -4.9 0.2 -5.9
v -4.7 0.2 -5.9
v -4 0.2 -5.9
v -3.9 0.2 -5.9
v -3.8 0.2 -5.9
v -3.7 0.2 -5.9
v -3.5 0.2 -5.9
v -3.1 0.2 -5.9
v -5.6 0.2 -6
v -5.5 0.2 -6
v -4 0.2 -6
v -3.9 0.2 -6
v -6 0.2 -6.1
v -2.6 0.2 -6.1
v -2.3 0.2 -6.1
v -2 0.2 -6.1
v -1.5 0.2 -6.1
v 1.6 0.2 -6.1
v 6.1 0.2 -6.1
v 2.1 0.3 2.8
v 2.4 0.3 2.8
v 2.4 0.3 2.3
v 6.1 0.3 2.3
v 2.1 0.3 2
v 6.1 0.3 2

# faces
f 6/4/1 2/4/1 1/4/1
f 7/4/1 2/4/1 6/4/1
f 8/4/1 4/4/1 3/4/1
f 9/1/1 5/1/1 4/1/1
f 9/4/1 4/4/1 8/4/1
f 10/1/1 5/1/1 9/1/1
f 15/4/1 12/4/1 11/4/1
f 16/4/1 12/4/1 15/4/1
f 17/4/1 14/4/1 13/4/1
f 18/4/1 14/4/1 17/4/1
f 21/3/1 20/3/1 19/3/1
f 22/3/1 20/3/1 21/3/1
f 23/4/2 24/4/2 27/4/2
f 27/4/2 24/4/2 28/4/2
f 25/4/2 26/4/2 29/4/2
f 29/4/2 26/4/2 30/4/2
f 31/3/2 32/3/2 33/3/2
f 33/3/2 32/3/2 34/3/2
f 35/5/2 36/5/2 40/5/2
f 36/4/2 37/4/2 41/4/2
f 40/5/2 36/5/2 41/5/2
f 41/4/2 37/4/2 42/4/2
f 42/4/2 37/4/2 43/4/2
f 43/4/2 37/4/2 44/4/2
f 38/4/2 39/4/2 45/4/2
f 45/4/2 39/4/2 46/4/2
f 42/3/2 43/3/2 47/3/2
f 47/3/2 43/3/2 48/3/2
f 51/4/3 50/4/3 49/4/3
f 52/4/3 50/4/3 51/4/3
f 55/4/3 54/4/3 53/4/3
f 56/4/3 54/4/3 55/4/3
f 57/5/3 56/5/3 55/5/3
f 58/5/3 56/5/3 57/5/3
f 61/3/3 60/3/3 59/3/3
f 62/3/3 60/3/3 61/3/3
f 65/3/3 64/3/3 63/3/3
f 66/3/3 64/3/3 65/3/3
f 69/4/3 68/4/3 67/4/3
f 70/4/3 68/4/3 69/4/3
f 73/4/3 72/4/3 71/4/3
f 74/4/3 72/4/3 73/4/3
f 75/3/4 76/3/4 77/3/4
f 77/3/4 76/3/4 78/3/4
f 79/4/4 80/4/4 81/4/4
f 81/4/4 80/4/4 82/4/4
f 83/4/4 84/4/4 85/4/4
f 85/4/4 84/4/4 86/4/4
f 87/1/4 88/1/4 89/1/4
f 89/1/4 88/1/4 90/1/4
f 89/2/4 90/2/4 91/2/4
f 91/2/4 90/2/4 92/2/4
f 91/1/4 92/1/4 93/1/4
f 93/1/4 92/1/4 94/1/4
f 93/4/4 94/4/4 95/4/4
f 95/4/4 94/4/4 96/4/4
f 97/4/4 98/4/4 99/4/4
f 99/4/4 98/4/4 100/4/4
f 106/4/5 104/4/5 103/4/5
f 106/5/5 105/5/5 104/5/5
f 107/5/5 105/5/5 106/5/5
f 108/4/5 102/4/5 101/4/5
f 109/4/5 102/4/5 108/4/5
f 110/4/5 106/4/5 103/4/5
f 110/4/5 107/4/5 106/4/5
f 111/4/5 107/4/5 110/4/5
f 116/4/5 113/4/5 112/4/5
f 117/4/5 113/4/5 116/4/5
f 118/4/5 113/4/5 117/4/5
f 119/4/5 113/4/5 118/4/5
f 120/1/5 117/1/5 116/1/5
f 120/2/5 118/2/5 117/2/5
f 121/1/5 119/1/5 118/1/5
f 121/2/5 118/2/5 120/2/5
f 122/1/5 119/1/5 121/1/5
f 123/1/5 119/1/5 122/1/5
f 124/1/5 119/1/5 123/1/5
f 125/1/5 119/1/5 124/1/5
f 126/1/5 119/1/5 125/1/5
f 127/1/5 119/1/5 126/1/5
f 128/1/5 121/1/5 120/1/5
f 128/1/5 122/1/5 121/1/5
f 129/1/5 122/1/5 128/1/5
f 130/2/5 123/2/5 122/2/5
f 130/1/5 122/1/5 129/1/5
f 131/1/5 124/1/5 123/1/5
f 131/2/5 123/2/5 130/2/5
f 132/2/5 125/2/5 124/2/5
f 132/1/5 124/1/5 131/1/5
f 133/1/5 126/1/5 125/1/5
f 133/2/5 125/2/5 132/2/5
f 134/1/5 119/1/5 127/1/5
f 135/1/5 119/1/5 134/1/5
f 136/1/5 119/1/5 135/1/5
f 137/1/5 119/1/5 136/1/5
f 138/1/5 120/1/5 116/1/5
f 138/1/5 128/1/5 120/1/5
f 139/1/5 128/1/5 138/1/5
f 140/2/5 129/2/5 128/2/5
f 140/1/5 128/1/5 139/1/5
f 141/1/5 130/1/5 129/1/5
f 141/2/5 129/2/5 140/2/5
f 141/1/5 131/1/5 130/1/5
f 141/1/5 132/1/5 131/1/5
f 141/1/5 133/1/5 132/1/5
f 142/1/5 133/1/5 141/1/5
f 143/1/5 133/1/5 142/1/5
f 144/1/5 126/1/5 133/1/5
f 144/1/5 133/1/5 143/1/5
f 144/2/5 127/2/5 126/2/5
f 145/1/5 134/1/5 127/1/5
f 145/2/5 127/2/5 144/2/5
f 146/1/5 134/1/5 145/1/5
f 147/1/5 134/1/5 146/1/5
f 148/1/5 136/1/5 135/1/5
f 149/1/5 136/1/5 148/1/5
f 150/2/5 137/2/5 136/2/5
f 150/1/5 136/1/5 149/1/5
f 151/1/5 119/1/5 137/1/5
f 151/2/5 137/2/5 150/2/5
f 152/2/5 139/2/5 138/2/5
f 152/1/5 138/1/5 116/1/5
f 153/1/5 142/1/5 141/1/5
f 153/2/5 139/2/5 152/2/5
f 153/1/5 140/1/5 139/1/5
f 153/1/5 141/1/5 140/1/5
f 154/1/5 144/1/5 143/1/5
f 154/1/5 145/1/5 144/1/5
f 154/1/5 146/1/5 145/1/5
f 155/1/5 146/1/5 154/1/5
f 156/1/5 148/1/5 135/1/5
f 156/2/5 149/2/5 148/2/5
f 157/1/5 150/1/5 149/1/5
f 157/2/5 149/2/5 156/2/5
f 157/1/5 151/1/5 150/1/5
f 158/1/5 151/1/5 157/1/5
f 159/1/5 151/1/5 158/1/5
f 160/1/5 151/1/5 159/1/5
f 161/1/5 151/1/5 160/1/5
f 162/1/5 142/1/5 153/1/5
f 162/1/5 153/1/5 152/1/5
f 163/1/5 142/1/5 162/1/5
f 164/2/5 143/2/5 142/2/5
f 164/1/5 142/1/5 163/1/5
f 165/1/5 154/1/5 143/1/5
f 165/2/5 143/2/5 164/2/5
f 166/2/5 155/2/5 154/2/5
f 166/1/5 154/1/5 165/1/5
f 167/1/5 146/1/5 155/1/5
f 167/2/5 155/2/5 166/2/5
f 168/2/5 147/2/5 146/2/5
f 168/1/5 146/1/5 167/1/5
f 169/1/5 134/1/5 147/1/5
f 169/2/5 147/2/5 168/2/5
f 170/1/5 157/1/5 156/1/5
f 170/1/5 158/1/5 157/1/5
f 170/2/5 159/2/5 158/2/5
f 171/1/5 160/1/5 159/1/5
f 171/2/5 159/2/5 170/2/5
f 172/1/5 160/1/5 171/1/5
f 173/1/5 152/1/5 116/1/5
f 173/1/5 162/1/5 152/1/5
f 174/2/5 163/2/5 162/2/5
f 174/1/5 162/1/5 173/1/5
f 175/1/5 166/1/5 165/1/5
f 175/1/5 164/1/5 163/1/5
f 175/1/5 168/1/5 167/1/5
f 175/1/5 165/1/5 164/1/5
f 175/1/5 167/1/5 166/1/5
f 175/1/5 169/1/5 168/1/5
f 176/1/5 169/1/5 175/1/5
f 177/1/5 169/1/5 176/1/5
f 178/1/5 169/1/5 177/1/5
f 179/2/5 135/2/5 134/2/5
f 179/1/5 169/1/5 178/1/5
f 179/1/5 134/1/5 169/1/5
f 180/1/5 156/1/5 135/1/5
f 180/2/5 135/2/5 179/2/5
f 180/1/5 171/1/5 170/1/5
f 180/1/5 170/1/5 156/1/5
f 181/2/5 172/2/5 171/2/5
f 181/1/5 171/1/5 180/1/5
f 182/1/5 160/1/5 172/1/5
f 182/2/5 172/2/5 181/2/5
f 183/2/5 161/2/5 160/2/5
f 183/1/5 160/1/5 182/1/5
f 184/1/5 151/1/5 161/1/5
f 184/2/5 161/2/5 183/2/5
f 185/1/5 173/1/5 116/1/5
f 185/2/5 174/2/5 173/2/5
f 186/2/5 163/2/5 174/2/5
f 186/2/5 174/2/5 185/2/5
f 187/2/5 176/2/5 175/2/5
f 187/1/5 175/1/5 163/1/5
f 188/1/5 177/1/5 176/1/5
f 188/2/5 176/2/5 187/2/5
f 189/1/5 179/1/5 178/1/5
f 189/1/5 181/1/5 180/1/5
f 189/1/5 184/1/5 183/1/5
f 189/1/5 183/1/5 182/1/5
f 189/1/5 182/1/5 181/1/5
f 189/1/5 180/1/5 179/1/5
f 190/1/5 184/1/5 189/1/5
f 191/1/5 189/1/5 178/1/5
f 192/1/5 189/1/5 191/1/5
f 193/1/5 151/1/5 184/1/5
f 193/1/5 119/1/5 151/1/5
f 193/1/5 184/1/5 190/1/5
f 194/4/5 113/4/5 119/4/5
f 194/1/5 119/1/5 193/1/5
f 195/2/5 163/2/5 186/2/5
f 195/1/5 186/1/5 185/1/5
f 196/1/5 188/1/5 187/1/5
f 196/2/5 163/2/5 195/2/5
f 196/1/5 187/1/5 163/1/5
f 197/1/5 188/1/5 196/1/5
f 198/1/5 188/1/5 197/1/5
f 199/1/5 188/1/5 198/1/5
f 200/1/5 177/1/5 188/1/5
f 200/1/5 188/1/5 199/1/5
f 201/1/5 177/1/5 200/1/5
f 202/2/5 178/2/5 177/2/5
f 202/1/5 177/1/5 201/1/5
f 203/1/5 191/1/5 178/1/5
f 203/2/5 178/2/5 202/2/5
f 204/1/5 191/1/5 203/1/5
f 205/2/5 192/2/5 191/2/5
f 205/1/5 191/1/5 204/1/5
f 206/1/5 189/1/5 192/1/5
f 206/2/5 192/2/5 205/2/5
f 207/1/5 193/1/5 190/1/5
f 207/2/5 194/2/5 193/2/5
f 208/4/5 113/4/5 194/4/5
f 208/2/5 194/2/5 207/2/5
f 209/1/5 195/1/5 185/1/5
f 209/1/5 185/1/5 116/1/5
f 209/1/5 196/1/5 195/1/5
f 209/1/5 197/1/5 196/1/5
f 210/1/5 197/1/5 209/1/5
f 211/1/5 205/1/5 204/1/5
f 211/1/5 206/1/5 205/1/5
f 212/1/5 206/1/5 211/1/5
f 213/1/5 208/1/5 207/1/5
f 213/1/5 207/1/5 190/1/5
f 214/1/5 208/1/5 213/1/5
f 215/1/5 197/1/5 210/1/5
f 215/2/5 198/2/5 197/2/5
f 216/1/5 199/1/5 198/1/5
f 216/2/5 198/2/5 215/2/5
f 217/2/5 204/2/5 203/2/5
f 217/1/5 201/1/5 200/1/5
f 217/2/5 202/2/5 201/2/5
f 217/2/5 203/2/5 202/2/5
f 218/1/5 211/1/5 204/1/5
f 218/2/5 204/2/5 217/2/5
f 219/2/5 212/2/5 211/2/5
f 219/1/5 211/1/5 218/1/5
f 220/1/5 206/1/5 212/1/5
f 220/2/5 212/2/5 219/2/5
f 221/1/5 189/1/5 206/1/5
f 221/1/5 206/1/5 220/1/5
f 221/2/5 190/2/5 189/2/5
f 222/1/5 213/1/5 190/1/5
f 222/2/5 190/2/5 221/2/5
f 223/1/5 220/1/5 219/1/5
f 223/1/5 219/1/5 218/1/5
f 223/1/5 222/1/5 221/1/5
f 223/1/5 218/1/5 217/1/5
f 223/1/5 221/1/5 220/1/5
f 224/1/5 222/1/5 223/1/5
f 225/1/5 209/1/5 116/1/5
f 225/2/5 210/2/5 209/2/5
f 226/1/5 215/1/5 210/1/5
f 226/2/5 210/2/5 225/2/5
f 226/1/5 216/1/5 215/1/5
f 227/1/5 216/1/5 226/1/5
f 228/1/5 216/1/5 227/1/5
f 229/1/5 199/1/5 216/1/5
f 229/1/5 216/1/5 228/1/5
f 229/2/5 200/2/5 199/2/5
f 230/1/5 223/1/5 217/1/5
f 230/2/5 200/2/5 229/2/5
f 230/1/5 217/1/5 200/1/5
f 231/1/5 223/1/5 230/1/5
f 232/1/5 223/1/5 231/1/5
f 233/1/5 223/1/5 232/1/5
f 234/1/5 223/1/5 233/1/5
f 235/1/5 213/1/5 222/1/5
f 235/2/5 214/2/5 213/2/5
f 235/1/5 222/1/5 224/1/5
f 236/1/5 208/1/5 214/1/5
f 236/2/5 214/2/5 235/2/5
f 237/2/5 228/2/5 227/2/5
f 237/1/5 227/1/5 226/1/5
f 237/1/5 226/1/5 225/1/5
f 238/1/5 229/1/5 228/1/5
f 238/2/5 228/2/5 237/2/5
f 238/1/5 230/1/5 229/1/5
f 238/1/5 231/1/5 230/1/5
f 239/1/5 223/1/5 234/1/5
f 239/2/5 224/2/5 223/2/5
f 240/1/5 235/1/5 224/1/5
f 240/2/5 224/2/5 239/2/5
f 240/1/5 236/1/5 235/1/5
f 241/1/5 231/1/5 238/1/5
f 241/1/5 238/1/5 237/1/5
f 242/1/5 231/1/5 241/1/5
f 243/2/5 232/2/5 231/2/5
f 243/1/5 231/1/5 242/1/5
f 244/2/5 232/2/5 243/2/5
f 245/2/5 234/2/5 233/2/5
f 245/1/5 233/1/5 232/1/5
f 246/1/5 239/1/5 234/1/5
f 246/2/5 234/2/5 245/2/5
f 246/1/5 240/1/5 239/1/5
f 247/1/5 236/1/5 240/1/5
f 247/1/5 240/1/5 246/1/5
f 247/1/5 208/1/5 236/1/5
f 248/1/5 208/1/5 247/1/5
f 249/1/5 241/1/5 237/1/5
f 249/1/5 237/1/5 225/1/5
f 250/1/5 241/1/5 249/1/5
f 251/2/5 232/2/5 244/2/5
f 251/1/5 244/1/5 243/1/5
f 251/1/5 243/1/5 242/1/5
f 252/1/5 246/1/5 245/1/5
f 252/2/5 232/2/5 251/2/5
f 252/1/5 245/1/5 232/1/5
f 252/1/5 247/1/5 246/1/5
f 253/2/5 248/2/5 247/2/5
f 253/1/5 247/1/5 252/1/5
f 254/1/5 208/1/5 248/1/5
f 254/2/5 248/2/5 253/2/5
f 255/1/5 252/1/5 251/1/5
f 255/1/5 253/1/5 252/1/5
f 255/1/5 254/1/5 253/1/5
f 256/1/5 254/1/5 255/1/5
f 257/1/5 254/1/5 256/1/5
f 258/1/5 254/1/5 257/1/5
f 259/1/5 254/1/5 258/1/5
f 260/1/5 208/1/5 254/1/5
f 260/1/5 254/1/5 259/1/5
f 261/1/5 251/1/5 242/1/5
f 261/1/5 255/1/5 251/1/5
f 262/1/5 255/1/5 261/1/5
f 263/1/5 255/1/5 262/1/5
f 264/1/5 255/1/5 263/1/5
f 265/1/5 259/1/5 258/1/5
f 265/2/5 260/2/5 259/2/5
f 266/1/5 208/1/5 260/1/5
f 266/2/5 260/2/5 265/2/5
f 267/1/5 249/1/5 225/1/5
f 267/2/5 250/2/5 249/2/5
f 268/1/5 241/1/5 250/1/5
f 268/2/5 250/2/5 267/2/5
f 269/2/5 242/2/5 241/2/5
f 269/1/5 241/1/5 268/1/5
f 270/1/5 261/1/5 242/1/5
f 270/2/5 242/2/5 269/2/5
f 271/2/5 262/2/5 261/2/5
f 271/1/5 261/1/5 270/1/5
f 272/1/5 263/1/5 262/1/5
f 272/2/5 262/2/5 271/2/5
f 273/2/5 264/2/5 263/2/5
f 273/1/5 263/1/5 272/1/5
f 274/1/5 255/1/5 264/1/5
f 274/2/5 264/2/5 273/2/5
f 275/1/5 255/1/5 274/1/5
f 276/1/5 255/1/5 275/1/5
f 277/2/5 256/2/5 255/2/5
f 277/1/5 255/1/5 276/1/5
f 278/1/5 257/1/5 256/1/5
f 278/2/5 256/2/5 277/2/5
f 279/2/5 276/2/5 275/2/5
f 279/1/5 277/1/5 276/1/5
f 279/1/5 278/1/5 277/1/5
f 280/1/5 278/1/5 279/1/5
f 281/1/5 273/1/5 272/1/5
f 281/1/5 268/1/5 267/1/5
f 281/1/5 272/1/5 271/1/5
f 281/1/5 275/1/5 274/1/5
f 281/1/5 274/1/5 273/1/5
f 281/1/5 271/1/5 270/1/5
f 281/1/5 270/1/5 269/1/5
f 281/1/5 269/1/5 268/1/5
f 282/1/5 275/1/5 281/1/5
f 283/1/5 278/1/5 280/1/5
f 283/2/5 280/2/5 279/2/5
f 284/1/5 278/1/5 283/1/5
f 285/1/5 278/1/5 284/1/5
f 286/1/5 257/1/5 278/1/5
f 286/1/5 278/1/5 285/1/5
f 287/2/5 283/2/5 279/2/5
f 287/2/5 284/2/5 283/2/5
f 288/1/5 285/1/5 284/1/5
f 288/2/5 284/2/5 287/2/5
f 289/2/5 286/2/5 285/2/5
f 289/1/5 285/1/5 288/1/5
f 290/1/5 257/1/5 286/1/5
f 290/2/5 286/2/5 289/2/5
f 291/2/5 258/2/5 257/2/5
f 291/1/5 257/1/5 290/1/5
f 292/1/5 265/1/5 258/1/5
f 292/2/5 258/2/5 291/2/5
f 292/1/5 266/1/5 265/1/5
f 293/1/5 266/1/5 292/1/5
f 294/1/5 266/1/5 293/1/5
f 295/1/5 267/1/5 225/1/5
f 295/1/5 281/1/5 267/1/5
f 296/1/5 281/1/5 295/1/5
f 297/1/5 281/1/5 296/1/5
f 298/2/5 282/2/5 281/2/5
f 298/1/5 281/1/5 297/1/5
f 299/1/5 275/1/5 282/1/5
f 299/2/5 282/2/5 298/2/5
f 300/1/5 291/1/5 290/1/5
f 300/1/5 288/1/5 287/1/5
f 300/1/5 290/1/5 289/1/5
f 300/2/5 294/2/5 293/2/5
f 300/1/5 289/1/5 288/1/5
f 300/1/5 293/1/5 292/1/5
f 300/1/5 292/1/5 291/1/5
f 301/1/5 266/1/5 294/1/5
f 301/2/5 294/2/5 300/2/5
f 302/2/5 296/2/5 295/2/5
f 302/1/5 295/1/5 225/1/5
f 303/1/5 297/1/5 296/1/5
f 303/2/5 296/2/5 302/2/5
f 304/2/5 298/2/5 297/2/5
f 304/1/5 297/1/5 303/1/5
f 305/1/5 299/1/5 298/1/5
f 305/2/5 298/2/5 304/2/5
f 306/1/5 275/1/5 299/1/5
f 306/1/5 299/1/5 305/1/5
f 307/1/5 275/1/5 306/1/5
f 308/1/5 275/1/5 307/1/5
f 309/2/5 279/2/5 275/2/5
f 309/1/5 275/1/5 308/1/5
f 309/2/5 287/2/5 279/2/5
f 310/1/5 308/1/5 307/1/5
f 310/2/5 309/2/5 308/2/5
f 311/2/5 309/2/5 310/2/5
f 312/2/5 287/2/5 309/2/5
f 312/2/5 309/2/5 311/2/5
f 313/1/5 300/1/5 287/1/5
f 313/2/5 287/2/5 312/2/5
f 313/1/5 301/1/5 300/1/5
f 314/1/5 301/1/5 313/1/5
f 315/1/5 208/1/5 266/1/5
f 315/1/5 301/1/5 314/1/5
f 315/1/5 266/1/5 301/1/5
f 316/1/5 305/1/5 304/1/5
f 316/1/5 303/1/5 302/1/5
f 316/1/5 304/1/5 303/1/5
f 316/1/5 306/1/5 305/1/5
f 317/1/5 306/1/5 316/1/5
f 318/2/5 307/2/5 306/2/5
f 318/1/5 306/1/5 317/1/5
f 319/1/5 310/1/5 307/1/5
f 319/2/5 307/2/5 318/2/5
f 319/1/5 311/1/5 310/1/5
f 320/2/5 312/2/5 311/2/5
f 320/1/5 311/1/5 319/1/5
f 321/2/5 312/2/5 320/2/5
f 322/1/5 314/1/5 313/1/5
f 322/1/5 313/1/5 312/1/5
f 323/1/5 314/1/5 322/1/5
f 324/1/5 316/1/5 302/1/5
f 325/2/5 317/2/5 316/2/5
f 325/1/5 316/1/5 324/1/5
f 326/1/5 319/1/5 318/1/5
f 326/2/5 317/2/5 325/2/5
f 326/1/5 318/1/5 317/1/5
f 326/1/5 321/1/5 320/1/5
f 326/1/5 320/1/5 319/1/5
f 327/1/5 321/1/5 326/1/5
f 328/1/5 321/1/5 327/1/5
f 329/1/5 321/1/5 328/1/5
f 330/2/5 312/2/5 321/2/5
f 330/1/5 321/1/5 329/1/5
f 331/1/5 322/1/5 312/1/5
f 331/2/5 312/2/5 330/2/5
f 332/1/5 322/1/5 331/1/5
f 333/1/5 322/1/5 332/1/5
f 334/1/5 302/1/5 225/1/5
f 334/1/5 324/1/5 302/1/5
f 335/1/5 324/1/5 334/1/5
f 336/2/5 329/2/5 328/2/5
f 336/1/5 328/1/5 327/1/5
f 337/1/5 330/1/5 329/1/5
f 337/2/5 329/2/5 336/2/5
f 337/1/5 331/1/5 330/1/5
f 337/1/5 332/1/5 331/1/5
f 338/2/5 315/2/5 314/2/5
f 338/1/5 314/1/5 323/1/5
f 339/1/5 208/1/5 315/1/5
f 339/2/5 315/2/5 338/2/5
f 340/2/5 335/2/5 334/2/5
f 340/1/5 334/1/5 225/1/5
f 341/1/5 324/1/5 335/1/5
f 341/2/5 335/2/5 340/2/5
f 342/1/5 324/1/5 341/1/5
f 343/1/5 324/1/5 342/1/5
f 344/1/5 332/1/5 337/1/5
f 344/1/5 337/1/5 336/1/5
f 344/2/5 333/2/5 332/2/5
f 345/1/5 322/1/5 333/1/5
f 345/2/5 333/2/5 344/2/5
f 346/1/5 342/1/5 341/1/5
f 346/1/5 341/1/5 340/1/5
f 347/2/5 343/2/5 342/2/5
f 347/1/5 342/1/5 346/1/5
f 348/1/5 324/1/5 343/1/5
f 348/2/5 343/2/5 347/2/5
f 349/2/5 325/2/5 324/2/5
f 349/1/5 324/1/5 348/1/5
f 349/2/5 326/2/5 325/2/5
f 349/2/5 327/2/5 326/2/5
f 350/1/5 344/1/5 336/1/5
f 350/1/5 345/1/5 344/1/5
f 351/1/5 345/1/5 350/1/5
f 352/2/5 347/2/5 346/2/5
f 352/2/5 348/2/5 347/2/5
f 352/1/5 346/1/5 340/1/5
f 352/2/5 349/2/5 348/2/5
f 353/2/5 349/2/5 352/2/5
f 354/2/5 327/2/5 349/2/5
f 354/2/5 349/2/5 353/2/5
f 355/2/5 327/2/5 354/2/5
f 356/2/5 327/2/5 355/2/5
f 357/1/5 350/1/5 336/1/5
f 357/2/5 327/2/5 356/2/5
f 357/1/5 336/1/5 327/1/5
f 358/1/5 357/1/5 356/1/5
f 358/1/5 350/1/5 357/1/5
f 359/1/5 350/1/5 358/1/5
f 360/1/5 345/1/5 351/1/5
f 360/2/5 323/2/5 322/2/5
f 360/1/5 322/1/5 345/1/5
f 361/1/5 338/1/5 323/1/5
f 361/2/5 323/2/5 360/2/5
f 361/1/5 339/1/5 338/1/5
f 362/1/5 353/1/5 352/1/5
f 362/2/5 354/2/5 353/2/5
f 363/1/5 355/1/5 354/1/5
f 363/2/5 354/2/5 362/2/5
f 364/2/5 359/2/5 358/2/5
f 364/1/5 358/1/5 356/1/5
f 365/1/5 350/1/5 359/1/5
f 365/2/5 359/2/5 364/2/5
f 366/1/5 364/1/5 356/1/5
f 366/1/5 365/1/5 364/1/5
f 367/1/5 350/1/5 365/1/5
f 367/1/5 365/1/5 366/1/5
f 368/1/5 350/1/5 367/1/5
f 369/2/5 351/2/5 350/2/5
f 369/1/5 350/1/5 368/1/5
f 370/2/5 351/2/5 369/2/5
f 371/1/5 360/1/5 351/1/5
f 371/2/5 351/2/5 370/2/5
f 371/1/5 361/1/5 360/1/5
f 372/1/5 361/1/5 371/1/5
f 373/1/5 361/1/5 372/1/5
f 374/1/5 339/1/5 361/1/5
f 374/1/5 361/1/5 373/1/5
f 375/1/5 339/1/5 374/1/5
f 376/1/5 355/1/5 363/1/5
f 376/2/5 356/2/5 355/2/5
f 376/1/5 363/1/5 362/1/5
f 377/2/5 356/2/5 376/2/5
f 378/1/5 366/1/5 356/1/5
f 378/2/5 367/2/5 366/2/5
f 379/1/5 368/1/5 367/1/5
f 379/2/5 367/2/5 378/2/5
f 380/2/5 370/2/5 369/2/5
f 380/1/5 368/1/5 379/1/5
f 380/2/5 369/2/5 368/2/5
f 381/1/5 371/1/5 370/1/5
f 381/2/5 370/2/5 380/2/5
f 381/1/5 372/1/5 371/1/5
f 382/2/5 375/2/5 374/2/5
f 382/1/5 374/1/5 373/1/5
f 383/1/5 339/1/5 375/1/5
f 383/2/5 375/2/5 382/2/5
f 384/2/5 356/2/5 377/2/5
f 384/1/5 377/1/5 376/1/5
f 385/1/5 379/1/5 378/1/5
f 385/2/5 356/2/5 384/2/5
f 385/1/5 378/1/5 356/1/5
f 385/1/5 380/1/5 379/1/5
f 385/1/5 381/1/5 380/1/5
f 386/1/5 381/1/5 385/1/5
f 387/1/5 372/1/5 381/1/5
f 387/1/5 381/1/5 386/1/5
f 388/1/5 372/1/5 387/1/5
f 389/1/5 383/1/5 382/1/5
f 389/1/5 382/1/5 373/1/5
f 390/1/5 339/1/5 383/1/5
f 390/1/5 383/1/5 389/1/5
f 391/1/5 384/1/5 376/1/5
f 391/1/5 362/1/5 352/1/5
f 391/1/5 376/1/5 362/1/5
f 391/1/5 385/1/5 384/1/5
f 392/1/5 385/1/5 391/1/5
f 393/2/5 386/2/5 385/2/5
f 393/1/5 385/1/5 392/1/5
f 394/1/5 387/1/5 386/1/5
f 394/2/5 386/2/5 393/2/5
f 395/1/5 387/1/5 394/1/5
f 396/1/5 387/1/5 395/1/5
f 397/2/5 388/2/5 387/2/5
f 397/1/5 387/1/5 396/1/5
f 398/1/5 372/1/5 388/1/5
f 398/2/5 388/2/5 397/2/5
f 399/2/5 373/2/5 372/2/5
f 399/1/5 372/1/5 398/1/5
f 400/1/5 389/1/5 373/1/5
f 400/2/5 373/2/5 399/2/5
f 401/2/5 392/2/5 391/2/5
f 401/1/5 391/1/5 352/1/5
f 402/1/5 393/1/5 392/1/5
f 402/2/5 392/2/5 401/2/5
f 402/1/5 394/1/5 393/1/5
f 402/1/5 395/1/5 394/1/5
f 403/2/5 396/2/5 395/2/5
f 403/1/5 395/1/5 402/1/5
f 404/1/5 399/1/5 398/1/5
f 404/2/5 396/2/5 403/2/5
f 404/1/5 397/1/5 396/1/5
f 404/1/5 400/1/5 399/1/5
f 404/1/5 398/1/5 397/1/5
f 405/1/5 225/1/5 116/1/5
f 405/1/5 403/1/5 402/1/5
f 405/1/5 404/1/5 403/1/5
f 405/1/5 340/1/5 225/1/5
f 405/1/5 352/1/5 340/1/5
f 405/1/5 401/1/5 352/1/5
f 405/1/5 402/1/5 401/1/5
f 406/1/5 400/1/5 404/1/5
f 406/1/5 404/1/5 405/1/5
f 406/2/5 390/2/5 389/2/5
f 406/1/5 389/1/5 400/1/5
f 407/1/5 339/1/5 390/1/5
f 407/2/5 390/2/5 406/2/5
f 408/1/5 208/1/5 339/1/5
f 408/1/5 339/1/5 407/1/5
f 408/4/5 113/4/5 208/4/5
f 409/4/5 113/4/5 408/4/5
f 410/4/5 115/4/5 114/4/5
f 411/4/5 115/4/5 410/4/5
f 414/4/6 415/4/6 417/4/6
f 417/4/6 415/4/6 418/4/6
f 415/5/6 416/5/6 419/5/6
f 418/4/6 415/4/6 419/4/6
f 419/5/6 416/5/6 420/5/6
f 418/4/6 419/4/6 421/4/6
f 419/4/6 420/4/6 421/4/6
f 421/4/6 420/4/6 422/4/6
f 414/4/6 417/4/6 423/4/6
f 412/4/6 413/4/6 425/4/6
f 425/4/6 413/4/6 426/4/6
f 423/4/6 424/4/6 427/4/6
f 414/4/6 423/4/6 427/4/6
f 427/4/6 424/4/6 428/4/6
f 429/4/6 430/4/6 433/4/6
f 433/4/6 430/4/6 434/4/6
f 434/4/6 430/4/6 435/4/6
f 435/4/6 430/4/6 436/4/6
f 433/1/6 434/1/6 437/1/6
f 434/2/6 435/2/6 437/2/6
f 435/1/6 436/1/6 438/1/6
f 437/2/6 435/2/6 438/2/6
f 438/1/6 436/1/6 439/1/6
f 439/1/6 436/1/6 440/1/6
f 440/1/6 436/1/6 441/1/6
f 441/1/6 436/1/6 442/1/6
f 442/1/6 436/1/6 443/1/6
f 443/1/6 436/1/6 444/1/6
f 437/1/6 438/1/6 445/1/6
f 438/1/6 439/1/6 445/1/6
f 445/1/6 439/1/6 446/1/6
f 439/2/6 440/2/6 447/2/6
f 446/1/6 439/1/6 447/1/6
f 440/1/6 441/1/6 448/1/6
f 447/2/6 440/2/6 448/2/6
f 441/2/6 442/2/6 449/2/6
f 448/1/6 441/1/6 449/1/6
f 442/1/6 443/1/6 450/1/6
f 449/2/6 442/2/6 450/2/6
f 444/1/6 436/1/6 451/1/6
f 451/1/6 436/1/6 452/1/6
f 452/1/6 436/1/6 453/1/6
f 453/1/6 436/1/6 454/1/6
f 433/1/6 437/1/6 455/1/6
f 437/1/6 445/1/6 455/1/6
f 455/1/6 445/1/6 456/1/6
f 445/2/6 446/2/6 457/2/6
f 456/1/6 445/1/6 457/1/6
f 446/1/6 447/1/6 458/1/6
f 457/2/6 446/2/6 458/2/6
f 447/1/6 448/1/6 458/1/6
f 448/1/6 449/1/6 458/1/6
f 449/1/6 450/1/6 458/1/6
f 458/1/6 450/1/6 459/1/6
f 459/1/6 450/1/6 460/1/6
f 450/1/6 443/1/6 461/1/6
f 460/1/6 450/1/6 461/1/6
f 443/2/6 444/2/6 461/2/6
f 444/1/6 451/1/6 462/1/6
f 461/2/6 444/2/6 462/2/6
f 462/1/6 451/1/6 463/1/6
f 463/1/6 451/1/6 464/1/6
f 452/1/6 453/1/6 465/1/6
f 465/1/6 453/1/6 466/1/6
f 453/2/6 454/2/6 467/2/6
f 466/1/6 453/1/6 467/1/6
f 454/1/6 436/1/6 468/1/6
f 467/2/6 454/2/6 468/2/6
f 455/2/6 456/2/6 469/2/6
f 433/1/6 455/1/6 469/1/6
f 458/1/6 459/1/6 470/1/6
f 469/2/6 456/2/6 470/2/6
f 456/1/6 457/1/6 470/1/6
f 457/1/6 458/1/6 470/1/6
f 460/1/6 461/1/6 471/1/6
f 461/1/6 462/1/6 471/1/6
f 462/1/6 463/1/6 471/1/6
f 471/1/6 463/1/6 472/1/6
f 452/1/6 465/1/6 473/1/6
f 465/2/6 466/2/6 473/2/6
f 466/1/6 467/1/6 474/1/6
f 473/2/6 466/2/6 474/2/6
f 467/1/6 468/1/6 474/1/6
f 474/1/6 468/1/6 475/1/6
f 475/1/6 468/1/6 476/1/6
f 476/1/6 468/1/6 477/1/6
f 477/1/6 468/1/6 478/1/6
f 470/1/6 459/1/6 479/1/6
f 469/1/6 470/1/6 479/1/6
f 479/1/6 459/1/6 480/1/6
f 459/2/6 460/2/6 481/2/6
f 480/1/6 459/1/6 481/1/6
f 460/1/6 471/1/6 482/1/6
f 481/2/6 460/2/6 482/2/6
f 471/2/6 472/2/6 483/2/6
f 482/1/6 471/1/6 483/1/6
f 472/1/6 463/1/6 484/1/6
f 483/2/6 472/2/6 484/2/6
f 463/2/6 464/2/6 485/2/6
f 484/1/6 463/1/6 485/1/6
f 464/1/6 451/1/6 486/1/6
f 485/2/6 464/2/6 486/2/6
f 473/1/6 474/1/6 487/1/6
f 474/1/6 475/1/6 487/1/6
f 475/2/6 476/2/6 487/2/6
f 476/1/6 477/1/6 488/1/6
f 487/2/6 476/2/6 488/2/6
f 488/1/6 477/1/6 489/1/6
f 433/1/6 469/1/6 490/1/6
f 469/1/6 479/1/6 490/1/6
f 479/2/6 480/2/6 491/2/6
f 490/1/6 479/1/6 491/1/6
f 482/1/6 483/1/6 492/1/6
f 480/1/6 481/1/6 492/1/6
f 484/1/6 485/1/6 492/1/6
f 481/1/6 482/1/6 492/1/6
f 483/1/6 484/1/6 492/1/6
f 485/1/6 486/1/6 492/1/6
f 492/1/6 486/1/6 493/1/6
f 493/1/6 486/1/6 494/1/6
f 494/1/6 486/1/6 495/1/6
f 451/2/6 452/2/6 496/2/6
f 495/1/6 486/1/6 496/1/6
f 486/1/6 451/1/6 496/1/6
f 452/1/6 473/1/6 497/1/6
f 496/2/6 452/2/6 497/2/6
f 487/1/6 488/1/6 497/1/6
f 473/1/6 487/1/6 497/1/6
f 488/2/6 489/2/6 498/2/6
f 497/1/6 488/1/6 498/1/6
f 489/1/6 477/1/6 499/1/6
f 498/2/6 489/2/6 499/2/6
f 477/2/6 478/2/6 500/2/6
f 499/1/6 477/1/6 500/1/6
f 478/1/6 468/1/6 501/1/6
f 500/2/6 478/2/6 501/2/6
f 433/1/6 490/1/6 502/1/6
f 490/2/6 491/2/6 502/2/6
f 491/2/6 480/2/6 503/2/6
f 502/2/6 491/2/6 503/2/6
f 492/2/6 493/2/6 504/2/6
f 480/1/6 492/1/6 504/1/6
f 493/1/6 494/1/6 505/1/6
f 504/2/6 493/2/6 505/2/6
f 495/1/6 496/1/6 506/1/6
f 497/1/6 498/1/6 506/1/6
f 500/1/6 501/1/6 506/1/6
f 499/1/6 500/1/6 506/1/6
f 498/1/6 499/1/6 506/1/6
f 496/1/6 497/1/6 506/1/6
f 506/1/6 501/1/6 507/1/6
f 495/1/6 506/1/6 508/1/6
f 508/1/6 506/1/6 509/1/6
f 501/1/6 468/1/6 510/1/6
f 468/1/6 436/1/6 510/1/6
f 507/1/6 501/1/6 510/1/6
f 436/4/6 430/4/6 511/4/6
f 510/1/6 436/1/6 511/1/6
f 503/2/6 480/2/6 512/2/6
f 502/1/6 503/1/6 512/1/6
f 504/1/6 505/1/6 513/1/6
f 512/2/6 480/2/6 513/2/6
f 480/1/6 504/1/6 513/1/6
f 513/1/6 505/1/6 514/1/6
f 514/1/6 505/1/6 515/1/6
f 515/1/6 505/1/6 516/1/6
f 505/1/6 494/1/6 517/1/6
f 516/1/6 505/1/6 517/1/6
f 517/1/6 494/1/6 518/1/6
f 494/2/6 495/2/6 519/2/6
f 518/1/6 494/1/6 519/1/6
f 495/1/6 508/1/6 520/1/6
f 519/2/6 495/2/6 520/2/6
f 520/1/6 508/1/6 521/1/6
f 508/2/6 509/2/6 522/2/6
f 521/1/6 508/1/6 522/1/6
f 509/1/6 506/1/6 523/1/6
f 522/2/6 509/2/6 523/2/6
f 507/1/6 510/1/6 524/1/6
f 510/2/6 511/2/6 524/2/6
f 511/4/6 430/4/6 525/4/6
f 524/2/6 511/2/6 525/2/6
f 502/1/6 512/1/6 526/1/6
f 433/1/6 502/1/6 526/1/6
f 512/1/6 513/1/6 526/1/6
f 513/1/6 514/1/6 526/1/6
f 526/1/6 514/1/6 527/1/6
f 521/1/6 522/1/6 528/1/6
f 522/1/6 523/1/6 528/1/6
f 528/1/6 523/1/6 529/1/6
f 524/1/6 525/1/6 530/1/6
f 507/1/6 524/1/6 530/1/6
f 530/1/6 525/1/6 531/1/6
f 527/1/6 514/1/6 532/1/6
f 514/2/6 515/2/6 532/2/6
f 515/1/6 516/1/6 533/1/6
f 532/2/6 515/2/6 533/2/6
f 520/2/6 521/2/6 534/2/6
f 517/1/6 518/1/6 534/1/6
f 518/2/6 519/2/6 534/2/6
f 519/2/6 520/2/6 534/2/6
f 521/1/6 528/1/6 535/1/6
f 534/2/6 521/2/6 535/2/6
f 528/2/6 529/2/6 536/2/6
f 535/1/6 528/1/6 536/1/6
f 529/1/6 523/1/6 537/1/6
f 536/2/6 529/2/6 537/2/6
f 523/1/6 506/1/6 538/1/6
f 537/1/6 523/1/6 538/1/6
f 506/2/6 507/2/6 538/2/6
f 507/1/6 530/1/6 539/1/6
f 538/2/6 507/2/6 539/2/6
f 536/1/6 537/1/6 540/1/6
f 535/1/6 536/1/6 540/1/6
f 538/1/6 539/1/6 540/1/6
f 534/1/6 535/1/6 540/1/6
f 537/1/6 538/1/6 540/1/6
f 540/1/6 539/1/6 541/1/6
f 433/1/6 526/1/6 542/1/6
f 526/2/6 527/2/6 542/2/6
f 527/1/6 532/1/6 543/1/6
f 542/2/6 527/2/6 543/2/6
f 532/1/6 533/1/6 543/1/6
f 543/1/6 533/1/6 544/1/6
f 544/1/6 533/1/6 545/1/6
f 533/1/6 516/1/6 546/1/6
f 545/1/6 533/1/6 546/1/6
f 516/2/6 517/2/6 546/2/6
f 534/1/6 540/1/6 547/1/6
f 546/2/6 517/2/6 547/2/6
f 517/1/6 534/1/6 547/1/6
f 547/1/6 540/1/6 548/1/6
f 548/1/6 540/1/6 549/1/6
f 549/1/6 540/1/6 550/1/6
f 550/1/6 540/1/6 551/1/6
f 539/1/6 530/1/6 552/1/6
f 530/2/6 531/2/6 552/2/6
f 541/1/6 539/1/6 552/1/6
f 531/1/6 525/1/6 553/1/6
f 552/2/6 531/2/6 553/2/6
f 544/2/6 545/2/6 554/2/6
f 543/1/6 544/1/6 554/1/6
f 542/1/6 543/1/6 554/1/6
f 545/1/6 546/1/6 555/1/6
f 554/2/6 545/2/6 555/2/6
f 546/1/6 547/1/6 555/1/6
f 547/1/6 548/1/6 555/1/6
f 551/1/6 540/1/6 556/1/6
f 540/2/6 541/2/6 556/2/6
f 541/1/6 552/1/6 557/1/6
f 556/2/6 541/2/6 557/2/6
f 552/1/6 553/1/6 557/1/6
f 555/1/6 548/1/6 558/1/6
f 554/1/6 555/1/6 558/1/6
f 558/1/6 548/1/6 559/1/6
f 548/2/6 549/2/6 560/2/6
f 559/1/6 548/1/6 560/1/6
f 560/2/6 549/2/6 561/2/6
f 550/2/6 551/2/6 562/2/6
f 549/1/6 550/1/6 562/1/6
f 551/1/6 556/1/6 563/1/6
f 562/2/6 551/2/6 563/2/6
f 556/1/6 557/1/6 563/1/6
f 557/1/6 553/1/6 564/1/6
f 563/1/6 557/1/6 564/1/6
f 553/1/6 525/1/6 564/1/6
f 564/1/6 525/1/6 565/1/6
f 554/1/6 558/1/6 566/1/6
f 542/1/6 554/1/6 566/1/6
f 566/1/6 558/1/6 567/1/6
f 561/2/6 549/2/6 568/2/6
f 560/1/6 561/1/6 568/1/6
f 559/1/6 560/1/6 568/1/6
f 562/1/6 563/1/6 569/1/6
f 568/2/6 549/2/6 569/2/6
f 549/1/6 562/1/6 569/1/6
f 563/1/6 564/1/6 569/1/6
f 564/2/6 565/2/6 570/2/6
f 569/1/6 564/1/6 570/1/6
f 565/1/6 525/1/6 571/1/6
f 570/2/6 565/2/6 571/2/6
f 568/1/6 569/1/6 572/1/6
f 569/1/6 570/1/6 572/1/6
f 570/1/6 571/1/6 572/1/6
f 572/1/6 571/1/6 573/1/6
f 573/1/6 571/1/6 574/1/6
f 574/1/6 571/1/6 575/1/6
f 575/1/6 571/1/6 576/1/6
f 571/1/6 525/1/6 577/1/6
f 576/1/6 571/1/6 577/1/6
f 559/1/6 568/1/6 578/1/6
f 568/1/6 572/1/6 578/1/6
f 578/1/6 572/1/6 579/1/6
f 579/1/6 572/1/6 580/1/6
f 580/1/6 572/1/6 581/1/6
f 575/1/6 576/1/6 582/1/6
f 576/2/6 577/2/6 582/2/6
f 577/1/6 525/1/6 583/1/6
f 582/2/6 577/2/6 583/2/6
f 542/1/6 566/1/6 584/1/6
f 566/2/6 567/2/6 584/2/6
f 567/1/6 558/1/6 585/1/6
f 584/2/6 567/2/6 585/2/6
f 558/2/6 559/2/6 586/2/6
f 585/1/6 558/1/6 586/1/6
f 559/1/6 578/1/6 587/1/6
f 586/2/6 559/2/6 587/2/6
f 578/2/6 579/2/6 588/2/6
f 587/1/6 578/1/6 588/1/6
f 579/1/6 580/1/6 589/1/6
f 588/2/6 579/2/6 589/2/6
f 580/2/6 581/2/6 590/2/6
f 589/1/6 580/1/6 590/1/6
f 581/1/6 572/1/6 591/1/6
f 590/2/6 581/2/6 591/2/6
f 591/1/6 572/1/6 592/1/6
f 592/1/6 572/1/6 593/1/6
f 572/2/6 573/2/6 594/2/6
f 593/1/6 572/1/6 594/1/6
f 573/1/6 574/1/6 595/1/6
f 594/2/6 573/2/6 595/2/6
f 592/2/6 593/2/6 596/2/6
f 593/1/6 594/1/6 596/1/6
f 594/1/6 595/1/6 596/1/6
f 596/1/6 595/1/6 597/1/6
f 589/1/6 590/1/6 598/1/6
f 584/1/6 585/1/6 598/1/6
f 588/1/6 589/1/6 598/1/6
f 591/1/6 592/1/6 598/1/6
f 590/1/6 591/1/6 598/1/6
f 587/1/6 588/1/6 598/1/6
f 586/1/6 587/1/6 598/1/6
f 585/1/6 586/1/6 598/1/6
f 598/1/6 592/1/6 599/1/6
f 597/1/6 595/1/6 600/1/6
f 596/2/6 597/2/6 600/2/6
f 600/1/6 595/1/6 601/1/6
f 601/1/6 595/1/6 602/1/6
f 595/1/6 574/1/6 603/1/6
f 602/1/6 595/1/6 603/1/6
f 596/2/6 600/2/6 604/2/6
f 600/2/6 601/2/6 604/2/6
f 601/1/6 602/1/6 605/1/6
f 604/2/6 601/2/6 605/2/6
f 602/2/6 603/2/6 606/2/6
f 605/1/6 602/1/6 606/1/6
f 603/1/6 574/1/6 607/1/6
f 606/2/6 603/2/6 607/2/6
f 574/2/6 575/2/6 608/2/6
f 607/1/6 574/1/6 608/1/6
f 575/1/6 582/1/6 609/1/6
f 608/2/6 575/2/6 609/2/6
f 582/1/6 583/1/6 609/1/6
f 609/1/6 583/1/6 610/1/6
f 610/1/6 583/1/6 611/1/6
f 542/1/6 584/1/6 612/1/6
f 584/1/6 598/1/6 612/1/6
f 612/1/6 598/1/6 613/1/6
f 613/1/6 598/1/6 614/1/6
f 598/2/6 599/2/6 615/2/6
f 614/1/6 598/1/6 615/1/6
f 599/1/6 592/1/6 616/1/6
f 615/2/6 599/2/6 616/2/6
f 607/1/6 608/1/6 617/1/6
f 604/1/6 605/1/6 617/1/6
f 606/1/6 607/1/6 617/1/6
f 610/2/6 611/2/6 617/2/6
f 605/1/6 606/1/6 617/1/6
f 609/1/6 610/1/6 617/1/6
f 608/1/6 609/1/6 617/1/6
f 611/1/6 583/1/6 618/1/6
f 617/2/6 611/2/6 618/2/6
f 612/2/6 613/2/6 619/2/6
f 542/1/6 612/1/6 619/1/6
f 613/1/6 614/1/6 620/1/6
f 619/2/6 613/2/6 620/2/6
f 614/2/6 615/2/6 621/2/6
f 620/1/6 614/1/6 621/1/6
f 615/1/6 616/1/6 622/1/6
f 621/2/6 615/2/6 622/2/6
f 616/1/6 592/1/6 623/1/6
f 622/1/6 616/1/6 623/1/6
f 623/1/6 592/1/6 624/1/6
f 624/1/6 592/1/6 625/1/6
f 592/2/6 596/2/6 626/2/6
f 625/1/6 592/1/6 626/1/6
f 596/2/6 604/2/6 626/2/6
f 624/1/6 625/1/6 627/1/6
f 625/2/6 626/2/6 627/2/6
f 627/2/6 626/2/6 628/2/6
f 626/2/6 604/2/6 629/2/6
f 628/2/6 626/2/6 629/2/6
f 604/1/6 617/1/6 630/1/6
f 629/2/6 604/2/6 630/2/6
f 617/1/6 618/1/6 630/1/6
f 630/1/6 618/1/6 631/1/6
f 583/1/6 525/1/6 632/1/6
f 631/1/6 618/1/6 632/1/6
f 618/1/6 583/1/6 632/1/6
f 621/1/6 622/1/6 633/1/6
f 619/1/6 620/1/6 633/1/6
f 620/1/6 621/1/6 633/1/6
f 622/1/6 623/1/6 633/1/6
f 633/1/6 623/1/6 634/1/6
f 623/2/6 624/2/6 635/2/6
f 634/1/6 623/1/6 635/1/6
f 624/1/6 627/1/6 636/1/6
f 635/2/6 624/2/6 636/2/6
f 627/1/6 628/1/6 636/1/6
f 628/2/6 629/2/6 637/2/6
f 636/1/6 628/1/6 637/1/6
f 637/2/6 629/2/6 638/2/6
f 630/1/6 631/1/6 639/1/6
f 629/1/6 630/1/6 639/1/6
f 639/1/6 631/1/6 640/1/6
f 619/1/6 633/1/6 641/1/6
f 633/2/6 634/2/6 642/2/6
f 641/1/6 633/1/6 642/1/6
f 635/1/6 636/1/6 643/1/6
f 642/2/6 634/2/6 643/2/6
f 634/1/6 635/1/6 643/1/6
f 637/1/6 638/1/6 643/1/6
f 636/1/6 637/1/6 643/1/6
f 643/1/6 638/1/6 644/1/6
f 644/1/6 638/1/6 645/1/6
f 645/1/6 638/1/6 646/1/6
f 638/2/6 629/2/6 647/2/6
f 646/1/6 638/1/6 647/1/6
f 629/1/6 639/1/6 648/1/6
f 647/2/6 629/2/6 648/2/6
f 648/1/6 639/1/6 649/1/6
f 649/1/6 639/1/6 650/1/6
f 542/1/6 619/1/6 651/1/6
f 619/1/6 641/1/6 651/1/6
f 651/1/6 641/1/6 652/1/6
f 645/2/6 646/2/6 653/2/6
f 644/1/6 645/1/6 653/1/6
f 646/1/6 647/1/6 654/1/6
f 653/2/6 646/2/6 654/2/6
f 647/1/6 648/1/6 654/1/6
f 648/1/6 649/1/6 654/1/6
f 631/2/6 632/2/6 655/2/6
f 640/1/6 631/1/6 655/1/6
f 632/1/6 525/1/6 656/1/6
f 655/2/6 632/2/6 656/2/6
f 651/2/6 652/2/6 657/2/6
f 542/1/6 651/1/6 657/1/6
f 652/1/6 641/1/6 658/1/6
f 657/2/6 652/2/6 658/2/6
f 658/1/6 641/1/6 659/1/6
f 659/1/6 641/1/6 660/1/6
f 654/1/6 649/1/6 661/1/6
f 653/1/6 654/1/6 661/1/6
f 649/2/6 650/2/6 661/2/6
f 650/1/6 639/1/6 662/1/6
f 661/2/6 650/2/6 662/2/6
f 658/1/6 659/1/6 663/1/6
f 657/1/6 658/1/6 663/1/6
f 659/2/6 660/2/6 664/2/6
f 663/1/6 659/1/6 664/1/6
f 660/1/6 641/1/6 665/1/6
f 664/2/6 660/2/6 665/2/6
f 641/2/6 642/2/6 666/2/6
f 665/1/6 641/1/6 666/1/6
f 642/2/6 643/2/6 666/2/6
f 643/2/6 644/2/6 666/2/6
f 653/1/6 661/1/6 667/1/6
f 661/1/6 662/1/6 667/1/6
f 667/1/6 662/1/6 668/1/6
f 663/2/6 664/2/6 669/2/6
f 664/2/6 665/2/6 669/2/6
f 657/1/6 663/1/6 669/1/6
f 665/2/6 666/2/6 669/2/6
f 669/2/6 666/2/6 670/2/6
f 666/2/6 644/2/6 671/2/6
f 670/2/6 666/2/6 671/2/6
f 671/2/6 644/2/6 672/2/6
f 672/2/6 644/2/6 673/2/6
f 653/1/6 667/1/6 674/1/6
f 673/2/6 644/2/6 674/2/6
f 644/1/6 653/1/6 674/1/6
f 673/1/6 674/1/6 675/1/6
f 674/1/6 667/1/6 675/1/6
f 675/1/6 667/1/6 676/1/6
f 668/1/6 662/1/6 677/1/6
f 639/2/6 640/2/6 677/2/6
f 662/1/6 639/1/6 677/1/6
f 640/1/6 655/1/6 678/1/6
f 677/2/6 640/2/6 678/2/6
f 655/1/6 656/1/6 678/1/6
f 669/1/6 670/1/6 679/1/6
f 670/2/6 671/2/6 679/2/6
f 671/1/6 672/1/6 680/1/6
f 679/2/6 671/2/6 680/2/6
f 675/2/6 676/2/6 681/2/6
f 673/1/6 675/1/6 681/1/6
f 676/1/6 667/1/6 682/1/6
f 681/2/6 676/2/6 682/2/6
f 673/1/6 681/1/6 683/1/6
f 681/1/6 682/1/6 683/1/6
f 682/1/6 667/1/6 684/1/6
f 683/1/6 682/1/6 684/1/6
f 684/1/6 667/1/6 685/1/6
f 667/2/6 668/2/6 686/2/6
f 685/1/6 667/1/6 686/1/6
f 686/2/6 668/2/6 687/2/6
f 668/1/6 677/1/6 688/1/6
f 687/2/6 668/2/6 688/2/6
f 677/1/6 678/1/6 688/1/6
f 688/1/6 678/1/6 689/1/6
f 689/1/6 678/1/6 690/1/6
f 678/1/6 656/1/6 691/1/6
f 690/1/6 678/1/6 691/1/6
f 691/1/6 656/1/6 692/1/6
f 680/1/6 672/1/6 693/1/6
f 672/2/6 673/2/6 693/2/6
f 679/1/6 680/1/6 693/1/6
f 693/2/6 673/2/6 694/2/6
f 673/1/6 683/1/6 695/1/6
f 683/2/6 684/2/6 695/2/6
f 684/1/6 685/1/6 696/1/6
f 695/2/6 684/2/6 696/2/6
f 686/2/6 687/2/6 697/2/6
f 696/1/6 685/1/6 697/1/6
f 685/2/6 686/2/6 697/2/6
f 687/1/6 688/1/6 698/1/6
f 697/2/6 687/2/6 698/2/6
f 688/1/6 689/1/6 698/1/6
f 691/2/6 692/2/6 699/2/6
f 690/1/6 691/1/6 699/1/6
f 692/1/6 656/1/6 700/1/6
f 699/2/6 692/2/6 700/2/6
f 694/2/6 673/2/6 701/2/6
f 693/1/6 694/1/6 701/1/6
f 695/1/6 696/1/6 702/1/6
f 701/2/6 673/2/6 702/2/6
f 673/1/6 695/1/6 702/1/6
f 696/1/6 697/1/6 702/1/6
f 697/1/6 698/1/6 702/1/6
f 702/1/6 698/1/6 703/1/6
f 698/1/6 689/1/6 704/1/6
f 703/1/6 698/1/6 704/1/6
f 704/1/6 689/1/6 705/1/6
f 699/1/6 700/1/6 706/1/6
f 690/1/6 699/1/6 706/1/6
f 700/1/6 656/1/6 707/1/6
f 706/1/6 700/1/6 707/1/6
f 693/1/6 701/1/6 708/1/6
f 669/1/6 679/1/6 708/1/6
f 679/1/6 693/1/6 708/1/6
f 701/1/6 702/1/6 708/1/6
f 708/1/6 702/1/6 709/1/6
f 702/2/6 703/2/6 710/2/6
f 709/1/6 702/1/6 710/1/6
f 703/1/6 704/1/6 711/1/6
f 710/2/6 703/2/6 711/2/6
f 711/1/6 704/1/6 712/1/6
f 712/1/6 704/1/6 713/1/6
f 704/2/6 705/2/6 714/2/6
f 713/1/6 704/1/6 714/1/6
f 705/1/6 689/1/6 715/1/6
f 714/2/6 705/2/6 715/2/6
f 689/2/6 690/2/6 716/2/6
f 715/1/6 689/1/6 716/1/6
f 690/1/6 706/1/6 717/1/6
f 716/2/6 690/2/6 717/2/6
f 708/2/6 709/2/6 718/2/6
f 669/1/6 708/1/6 718/1/6
f 709/1/6 710/1/6 719/1/6
f 718/2/6 709/2/6 719/2/6
f 710/1/6 711/1/6 719/1/6
f 711/1/6 712/1/6 719/1/6
f 712/2/6 713/2/6 720/2/6
f 719/1/6 712/1/6 720/1/6
f 715/1/6 716/1/6 721/1/6
f 720/2/6 713/2/6 721/2/6
f 713/1/6 714/1/6 721/1/6
f 716/1/6 717/1/6 721/1/6
f 714/1/6 715/1/6 721/1/6
f 433/1/6 542/1/6 722/1/6
f 719/1/6 720/1/6 722/1/6
f 720/1/6 721/1/6 722/1/6
f 542/1/6 657/1/6 722/1/6
f 657/1/6 669/1/6 722/1/6
f 669/1/6 718/1/6 722/1/6
f 718/1/6 719/1/6 722/1/6
f 721/1/6 717/1/6 723/1/6
f 722/1/6 721/1/6 723/1/6
f 706/2/6 707/2/6 723/2/6
f 717/1/6 706/1/6 723/1/6
f 707/1/6 656/1/6 724/1/6
f 723/2/6 707/2/6 724/2/6
f 656/1/6 525/1/6 725/1/6
f 724/1/6 656/1/6 725/1/6
f 525/4/6 430/4/6 725/4/6
f 725/4/6 430/4/6 726/4/6
f 431/4/6 432/4/6 727/4/6
f 727/4/6 432/4/6 728/4/6
f 729/3/6 730/3/6 731/3/6
f 729/3/6 731/3/6 733/3/6
f 731/3/6 732/3/6 733/3/6
f 733/3/6 732/3/6 734/3/6
