# MagicaVoxel @ Ephtracy

# group
o 

# material
mtllib Land2.mtl
usemtl palette

# normals
vn -1 0 0
vn 1 0 0
vn 0 0 1
vn 0 0 -1
vn 0 -1 0
vn 0 1 0

# texcoords
vt 0.900391 0.5
vt 0.966797 0.5
vt 0.982422 0.5

# verts
v -6 0.1 6
v -6 0.1 1.5
v -6 0.1 -1.6
v -6 0.1 -6.1
v -6 0.2 6
v -6 0.2 1.5
v -6 0.2 -1.6
v -6 0.2 -6.1
v 1.6 0.1 6
v 1.6 0.1 1.5
v 1.6 0.1 -1.6
v 1.6 0.1 -6.1
v 1.6 0.2 6
v 1.6 0.2 1.5
v 1.6 0.2 -1.6
v 1.6 0.2 -6.1
v 2.1 0.2 -2.1
v 2.1 0.2 -2.9
v 2.1 0.3 -2.1
v 2.1 0.3 -2.9
v -1.5 0.1 6
v -1.5 0.1 1.5
v -1.5 0.1 -1.6
v -1.5 0.1 -6.1
v -1.5 0.2 6
v -1.5 0.2 1.5
v -1.5 0.2 -1.6
v -1.5 0.2 -6.1
v 2.4 0.2 -2.4
v 2.4 0.2 -2.9
v 2.4 0.3 -2.4
v 2.4 0.3 -2.9
v 6.1 0.1 6
v 6.1 0.1 1.5
v 6.1 0.1 -1.6
v 6.1 0.1 -2.6
v 6.1 0.1 -6.1
v 6.1 0.2 6
v 6.1 0.2 1.5
v 6.1 0.2 -1.6
v 6.1 0.2 -2.1
v 6.1 0.2 -2.4
v 6.1 0.2 -2.6
v 6.1 0.2 -6.1
v 6.1 0.3 -2.1
v 6.1 0.3 -2.4
v -6 0.1 6
v -6 0.2 6
v -1.5 0.1 6
v -1.5 0.2 6
v 1.6 0.1 6
v 1.6 0.2 6
v 6.1 0.1 6
v 6.1 0.2 6
v -6 0.1 -1.6
v -6 0.2 -1.6
v -1.5 0.1 -1.6
v -1.5 0.2 -1.6
v 1.6 0.1 -1.6
v 1.6 0.2 -1.6
v 6.1 0.1 -1.6
v 6.1 0.2 -1.6
v 2.1 0.2 -2.1
v 2.1 0.3 -2.1
v 6.1 0.2 -2.1
v 6.1 0.3 -2.1
v -6 0.1 1.5
v -6 0.2 1.5
v -1.5 0.1 1.5
v -1.5 0.2 1.5
v 1.6 0.1 1.5
v 1.6 0.2 1.5
v 6.1 0.1 1.5
v 6.1 0.2 1.5
v 2.4 0.2 -2.4
v 2.4 0.3 -2.4
v 6.1 0.2 -2.4
v 6.1 0.3 -2.4
v 2.1 0.2 -2.9
v 2.1 0.3 -2.9
v 2.4 0.2 -2.9
v 2.4 0.3 -2.9
v -6 0.1 -6.1
v -6 0.2 -6.1
v -1.5 0.1 -6.1
v -1.5 0.2 -6.1
v 1.6 0.1 -6.1
v 1.6 0.2 -6.1
v 2.6 0.1 -6.1
v 2.6 0.2 -6.1
v 6.1 0.1 -6.1
v 6.1 0.2 -6.1
v -6 0.1 6
v -1.5 0.1 6
v 1.6 0.1 6
v 6.1 0.1 6
v -6 0.1 1.5
v -1.5 0.1 1.5
v 1.6 0.1 1.5
v 6.1 0.1 1.5
v -6 0.1 -1.6
v -1.5 0.1 -1.6
v 1.6 0.1 -1.6
v 6.1 0.1 -1.6
v 2.6 0.1 -2.6
v 6.1 0.1 -2.6
v -6 0.1 -6.1
v -1.5 0.1 -6.1
v 1.6 0.1 -6.1
v 2.6 0.1 -6.1
v 6.1 0.1 -6.1
v -6 0.2 6
v -1.5 0.2 6
v 1.6 0.2 6
v 6.1 0.2 6
v -6 0.2 1.5
v -1.5 0.2 1.5
v 1.6 0.2 1.5
v 6.1 0.2 1.5
v -6 0.2 -1.6
v -1.5 0.2 -1.6
v 1.6 0.2 -1.6
v 6.1 0.2 -1.6
v 2.1 0.2 -2.1
v 6.1 0.2 -2.1
v 2.4 0.2 -2.4
v 6.1 0.2 -2.4
v 2.6 0.2 -2.6
v 6.1 0.2 -2.6
v 2.1 0.2 -2.9
v 2.4 0.2 -2.9
v -6 0.2 -6.1
v -1.5 0.2 -6.1
v 1.6 0.2 -6.1
v 2.6 0.2 -6.1
v 6.1 0.2 -6.1
v 2.1 0.3 -2.1
v 6.1 0.3 -2.1
v 2.4 0.3 -2.4
v 6.1 0.3 -2.4
v 2.1 0.3 -2.9
v 2.4 0.3 -2.9

# faces
f 5/2/1 2/2/1 1/2/1
f 6/2/1 2/2/1 5/2/1
f 7/2/1 4/2/1 3/2/1
f 8/2/1 4/2/1 7/2/1
f 13/2/1 10/2/1 9/2/1
f 14/2/1 10/2/1 13/2/1
f 15/2/1 12/2/1 11/2/1
f 16/2/1 12/2/1 15/2/1
f 19/1/1 18/1/1 17/1/1
f 20/1/1 18/1/1 19/1/1
f 21/2/2 22/2/2 25/2/2
f 25/2/2 22/2/2 26/2/2
f 23/2/2 24/2/2 27/2/2
f 27/2/2 24/2/2 28/2/2
f 29/1/2 30/1/2 31/1/2
f 31/1/2 30/1/2 32/1/2
f 33/2/2 34/2/2 38/2/2
f 38/2/2 34/2/2 39/2/2
f 35/2/2 36/2/2 40/2/2
f 40/2/2 36/2/2 41/2/2
f 41/2/2 36/2/2 42/2/2
f 36/3/2 37/3/2 43/3/2
f 42/2/2 36/2/2 43/2/2
f 43/3/2 37/3/2 44/3/2
f 41/1/2 42/1/2 45/1/2
f 45/1/2 42/1/2 46/1/2
f 49/2/3 48/2/3 47/2/3
f 50/2/3 48/2/3 49/2/3
f 53/2/3 52/2/3 51/2/3
f 54/2/3 52/2/3 53/2/3
f 57/2/3 56/2/3 55/2/3
f 58/2/3 56/2/3 57/2/3
f 61/2/3 60/2/3 59/2/3
f 62/2/3 60/2/3 61/2/3
f 65/1/3 64/1/3 63/1/3
f 66/1/3 64/1/3 65/1/3
f 67/2/4 68/2/4 69/2/4
f 69/2/4 68/2/4 70/2/4
f 71/2/4 72/2/4 73/2/4
f 73/2/4 72/2/4 74/2/4
f 75/1/4 76/1/4 77/1/4
f 77/1/4 76/1/4 78/1/4
f 79/1/4 80/1/4 81/1/4
f 81/1/4 80/1/4 82/1/4
f 83/2/4 84/2/4 85/2/4
f 85/2/4 84/2/4 86/2/4
f 87/2/4 88/2/4 89/2/4
f 89/2/4 88/2/4 90/2/4
f 89/3/4 90/3/4 91/3/4
f 91/3/4 90/3/4 92/3/4
f 97/2/5 94/2/5 93/2/5
f 98/2/5 94/2/5 97/2/5
f 99/2/5 96/2/5 95/2/5
f 100/2/5 96/2/5 99/2/5
f 105/2/5 104/2/5 103/2/5
f 106/2/5 104/2/5 105/2/5
f 107/2/5 102/2/5 101/2/5
f 108/2/5 102/2/5 107/2/5
f 109/2/5 105/2/5 103/2/5
f 110/3/5 106/3/5 105/3/5
f 110/2/5 105/2/5 109/2/5
f 111/3/5 106/3/5 110/3/5
f 112/2/6 113/2/6 116/2/6
f 116/2/6 113/2/6 117/2/6
f 114/2/6 115/2/6 118/2/6
f 118/2/6 115/2/6 119/2/6
f 122/2/6 123/2/6 124/2/6
f 124/2/6 123/2/6 125/2/6
f 126/2/6 127/2/6 128/2/6
f 128/2/6 127/2/6 129/2/6
f 122/2/6 124/2/6 130/2/6
f 126/2/6 128/2/6 131/2/6
f 120/2/6 121/2/6 132/2/6
f 132/2/6 121/2/6 133/2/6
f 130/2/6 131/2/6 134/2/6
f 122/2/6 130/2/6 134/2/6
f 128/3/6 129/3/6 135/3/6
f 134/2/6 131/2/6 135/2/6
f 131/2/6 128/2/6 135/2/6
f 135/3/6 129/3/6 136/3/6
f 137/1/6 138/1/6 139/1/6
f 139/1/6 138/1/6 140/1/6
f 137/1/6 139/1/6 141/1/6
f 141/1/6 139/1/6 142/1/6
