# MagicaVoxel @ Ephtracy

# group
o 

# material
mtllib machingun.mtl
usemtl palette

# normals
vn -1 0 0
vn 1 0 0
vn 0 0 1
vn 0 0 -1
vn 0 -1 0
vn 0 1 0

# texcoords
vt 0.00976562 0.5
vt 0.705078 0.5
vt 0.974609 0.5
vt 0.982422 0.5
vt 0.986328 0.5

# verts
v -2 1.3 -0.2
v -2 1.3 -0.3
v -2 1.4 -0.1
v -2 1.4 -0.2
v -2 1.4 -0.3
v -2 1.4 -0.4
v -2 1.5 -0.1
v -2 1.5 -0.2
v -2 1.5 -0.3
v -2 1.5 -0.4
v -2 1.6 0
v -2 1.6 -0.1
v -2 1.6 -0.2
v -2 1.6 -0.3
v -2 1.6 -0.4
v -2 1.6 -0.5
v -2 1.7 0.1
v -2 1.7 0
v -2 1.7 -0.1
v -2 1.7 -0.2
v -2 1.7 -0.3
v -2 1.7 -0.4
v -2 1.7 -0.5
v -2 1.7 -0.6
v -2 1.8 0.1
v -2 1.8 0
v -2 1.8 -0.1
v -2 1.8 -0.2
v -2 1.8 -0.3
v -2 1.8 -0.4
v -2 1.8 -0.5
v -2 1.8 -0.6
v -2 1.9 0
v -2 1.9 -0.1
v -2 1.9 -0.4
v -2 1.9 -0.5
v -1.8 1.7 -0.4
v -1.8 1.7 -0.5
v -1.8 1.8 -0.4
v -1.8 1.8 -0.5
v -1.7 1 -0.2
v -1.7 1 -0.3
v -1.7 1.1 -0.1
v -1.7 1.1 -0.2
v -1.7 1.1 -0.3
v -1.7 1.1 -0.4
v -1.7 1.2 0
v -1.7 1.2 -0.1
v -1.7 1.2 -0.4
v -1.7 1.2 -0.5
v -1.7 1.3 0.1
v -1.7 1.3 0
v -1.7 1.3 -0.2
v -1.7 1.3 -0.3
v -1.7 1.3 -0.5
v -1.7 1.3 -0.6
v -1.7 1.4 0.2
v -1.7 1.4 0.1
v -1.7 1.4 -0.1
v -1.7 1.4 -0.2
v -1.7 1.4 -0.3
v -1.7 1.4 -0.4
v -1.7 1.4 -0.6
v -1.7 1.4 -0.7
v -1.7 1.5 0.3
v -1.7 1.5 0.2
v -1.7 1.5 -0.1
v -1.7 1.5 -0.2
v -1.7 1.5 -0.3
v -1.7 1.5 -0.4
v -1.7 1.5 -0.7
v -1.7 1.5 -0.8
v -1.7 1.6 0
v -1.7 1.6 -0.1
v -1.7 1.6 -0.2
v -1.7 1.6 -0.3
v -1.7 1.6 -0.4
v -1.7 1.6 -0.5
v -1.7 1.7 0.3
v -1.7 1.7 0.2
v -1.7 1.7 0.1
v -1.7 1.7 0
v -1.7 1.7 -0.1
v -1.7 1.7 -0.2
v -1.7 1.7 -0.3
v -1.7 1.7 -0.4
v -1.7 1.7 -0.5
v -1.7 1.7 -0.6
v -1.7 1.7 -0.7
v -1.7 1.7 -0.8
v -1.7 1.8 0.2
v -1.7 1.8 0.1
v -1.7 1.8 0
v -1.7 1.8 -0.1
v -1.7 1.8 -0.2
v -1.7 1.8 -0.3
v -1.7 1.8 -0.4
v -1.7 1.8 -0.5
v -1.7 1.8 -0.6
v -1.7 1.8 -0.7
v -1.7 1.9 0.1
v -1.7 1.9 0
v -1.7 1.9 -0.1
v -1.7 1.9 -0.4
v -1.7 1.9 -0.5
v -1.7 1.9 -0.6
v -1.7 2 0
v -1.7 2 -0.1
v -1.7 2 -0.4
v -1.7 2 -0.5
v -1.7 2.1 -0.1
v -1.7 2.1 -0.2
v -1.7 2.1 -0.3
v -1.7 2.1 -0.4
v -1.7 2.2 -0.2
v -1.7 2.2 -0.3
v -1.1 0.9 0
v -1.1 0.9 -0.5
v -1.1 1 0.2
v -1.1 1 0
v -1.1 1 -0.5
v -1.1 1 -0.7
v -1.1 1.1 0.3
v -1.1 1.1 0.2
v -1.1 1.1 0
v -1.1 1.1 -0.5
v -1.1 1.1 -0.7
v -1.1 1.1 -0.8
v -1.1 1.2 0.4
v -1.1 1.2 0.3
v -1.1 1.2 0.2
v -1.1 1.2 -0.7
v -1.1 1.2 -0.8
v -1.1 1.2 -0.9
v -1.1 1.4 0.5
v -1.1 1.4 0.4
v -1.1 1.4 0.3
v -1.1 1.4 -0.8
v -1.1 1.4 -0.9
v -1.1 1.4 -1
v -1.1 1.8 0.5
v -1.1 1.8 0.4
v -1.1 1.8 0.3
v -1.1 1.8 -0.8
v -1.1 1.8 -0.9
v -1.1 1.8 -1
v -1.1 2 0.4
v -1.1 2 0.3
v -1.1 2 0.2
v -1.1 2 -0.7
v -1.1 2 -0.8
v -1.1 2 -0.9
v -1.1 2.1 0.3
v -1.1 2.1 0.2
v -1.1 2.1 0
v -1.1 2.1 -0.5
v -1.1 2.1 -0.7
v -1.1 2.1 -0.8
v -1.1 2.2 0.2
v -1.1 2.2 0
v -1.1 2.2 -0.5
v -1.1 2.2 -0.7
v -1.1 2.3 0
v -1.1 2.3 -0.5
v -0.4 0.9 0
v -0.4 0.9 -0.5
v -0.4 1 0.2
v -0.4 1 0
v -0.4 1 -0.5
v -0.4 1 -0.7
v -0.4 1.1 0.3
v -0.4 1.1 0.2
v -0.4 1.1 0
v -0.4 1.1 -0.5
v -0.4 1.1 -0.7
v -0.4 1.1 -0.8
v -0.4 1.2 0.4
v -0.4 1.2 0.3
v -0.4 1.2 0.2
v -0.4 1.2 -0.7
v -0.4 1.2 -0.8
v -0.4 1.2 -0.9
v -0.4 1.4 0.5
v -0.4 1.4 0.4
v -0.4 1.4 0.3
v -0.4 1.4 -0.8
v -0.4 1.4 -0.9
v -0.4 1.4 -1
v -0.4 1.8 0.5
v -0.4 1.8 0.4
v -0.4 1.8 0.3
v -0.4 1.8 -0.8
v -0.4 1.8 -0.9
v -0.4 1.8 -1
v -0.4 2 0.4
v -0.4 2 0.3
v -0.4 2 0.2
v -0.4 2 -0.7
v -0.4 2 -0.8
v -0.4 2 -0.9
v -0.4 2.1 0.3
v -0.4 2.1 0.2
v -0.4 2.1 0
v -0.4 2.1 -0.5
v -0.4 2.1 -0.7
v -0.4 2.1 -0.8
v -0.4 2.2 0.2
v -0.4 2.2 0
v -0.4 2.2 -0.5
v -0.4 2.2 -0.7
v -0.4 2.3 0
v -0.4 2.3 -0.5
v 0.1 0.9 0
v 0.1 0.9 -0.5
v 0.1 1 0.2
v 0.1 1 0
v 0.1 1 -0.5
v 0.1 1 -0.7
v 0.1 1.1 0.3
v 0.1 1.1 0.2
v 0.1 1.1 0
v 0.1 1.1 -0.5
v 0.1 1.1 -0.7
v 0.1 1.1 -0.8
v 0.1 1.2 0.4
v 0.1 1.2 0.3
v 0.1 1.2 0.2
v 0.1 1.2 -0.7
v 0.1 1.2 -0.8
v 0.1 1.2 -0.9
v 0.1 1.4 0.5
v 0.1 1.4 0.4
v 0.1 1.4 0.3
v 0.1 1.4 -0.8
v 0.1 1.4 -0.9
v 0.1 1.4 -1
v 0.1 1.8 0.5
v 0.1 1.8 0.4
v 0.1 1.8 0.3
v 0.1 1.8 -0.8
v 0.1 1.8 -0.9
v 0.1 1.8 -1
v 0.1 2 0.4
v 0.1 2 0.3
v 0.1 2 0.2
v 0.1 2 -0.7
v 0.1 2 -0.8
v 0.1 2 -0.9
v 0.1 2.1 0.3
v 0.1 2.1 0.2
v 0.1 2.1 0
v 0.1 2.1 -0.5
v 0.1 2.1 -0.7
v 0.1 2.1 -0.8
v 0.1 2.2 0.2
v 0.1 2.2 0
v 0.1 2.2 -0.5
v 0.1 2.2 -0.7
v 0.1 2.3 0
v 0.1 2.3 -0.5
v 0.6 0.8 0.3
v 0.6 0.8 -0.8
v 0.6 0.9 0.3
v 0.6 0.9 -0.8
v 0.6 1.1 -0.1
v 0.6 1.1 -0.3
v 0.6 1.1 -0.5
v 0.6 1.2 0.1
v 0.6 1.2 0
v 0.6 1.2 -0.1
v 0.6 1.2 -0.2
v 0.6 1.2 -0.3
v 0.6 1.2 -0.4
v 0.6 1.2 -0.5
v 0.6 1.2 -0.6
v 0.6 1.3 0.1
v 0.6 1.3 0
v 0.6 1.3 -0.2
v 0.6 1.3 -0.3
v 0.6 1.4 0.2
v 0.6 1.4 0.1
v 0.6 1.4 0
v 0.6 1.4 -0.1
v 0.6 1.4 -0.2
v 0.6 1.4 -0.3
v 0.6 1.4 -0.4
v 0.6 1.4 -0.6
v 0.6 1.4 -0.7
v 0.6 1.5 0.3
v 0.6 1.5 0.2
v 0.6 1.5 -0.1
v 0.6 1.5 -0.2
v 0.6 1.5 -0.3
v 0.6 1.5 -0.4
v 0.6 1.5 -0.7
v 0.6 1.5 -0.8
v 0.6 1.6 0
v 0.6 1.6 -0.1
v 0.6 1.6 -0.2
v 0.6 1.6 -0.3
v 0.6 1.6 -0.4
v 0.6 1.6 -0.5
v 0.6 1.7 0.3
v 0.6 1.7 0.2
v 0.6 1.7 0.1
v 0.6 1.7 0
v 0.6 1.7 -0.1
v 0.6 1.7 -0.2
v 0.6 1.7 -0.3
v 0.6 1.7 -0.4
v 0.6 1.7 -0.5
v 0.6 1.7 -0.6
v 0.6 1.7 -0.7
v 0.6 1.7 -0.8
v 0.6 1.8 0.2
v 0.6 1.8 0.1
v 0.6 1.8 0
v 0.6 1.8 -0.1
v 0.6 1.8 -0.2
v 0.6 1.8 -0.3
v 0.6 1.8 -0.4
v 0.6 1.8 -0.5
v 0.6 1.8 -0.6
v 0.6 1.8 -0.7
v 0.6 1.9 0.1
v 0.6 1.9 0
v 0.6 1.9 -0.1
v 0.6 1.9 -0.4
v 0.6 1.9 -0.5
v 0.6 1.9 -0.6
v 0.6 2 0
v 0.6 2 -0.1
v 0.6 2 -0.4
v 0.6 2 -0.5
v 0.6 2.1 -0.1
v 0.6 2.1 -0.4
v 0.7 0.6 -0.1
v 0.7 0.6 -0.4
v 0.7 0.8 -0.1
v 0.7 0.8 -0.4
v 0.7 0.9 -0.1
v 0.7 0.9 -0.4
v 0.7 1.1 -0.1
v 0.7 1.1 -0.3
v 0.7 1.1 -0.4
v 0.8 0.5 -0.1
v 0.8 0.5 -0.4
v 0.8 0.6 -0.1
v 0.8 0.6 -0.4
v 0.8 1.1 0
v 0.8 1.1 -0.1
v 0.8 1.2 0
v 0.8 1.2 -0.1
v 1.1 0.8 0.2
v 1.1 0.8 -0.1
v 1.1 0.8 -0.4
v 1.1 0.8 -0.7
v 1.1 0.9 0.2
v 1.1 0.9 -0.1
v 1.1 0.9 -0.4
v 1.1 0.9 -0.7
v 1.1 1.7 0.1
v 1.1 1.7 0
v 1.1 1.7 -0.5
v 1.1 1.7 -0.6
v 1.1 1.8 0
v 1.1 1.8 -0.1
v 1.1 1.8 -0.4
v 1.1 1.8 -0.5
v 1.1 1.9 -0.1
v 1.1 1.9 -0.2
v 1.1 1.9 -0.3
v 1.1 1.9 -0.4
v 1.1 2 0
v 1.1 2 -0.2
v 1.1 2 -0.3
v 1.1 2 -0.5
v 1.1 2.1 0.1
v 1.1 2.1 -0.6
v -1.6 1 -0.2
v -1.6 1 -0.3
v -1.6 1.1 -0.1
v -1.6 1.1 -0.2
v -1.6 1.1 -0.3
v -1.6 1.1 -0.4
v -1.6 1.2 0
v -1.6 1.2 -0.1
v -1.6 1.2 -0.4
v -1.6 1.2 -0.5
v -1.6 1.3 0.1
v -1.6 1.3 0
v -1.6 1.3 -0.2
v -1.6 1.3 -0.3
v -1.6 1.3 -0.5
v -1.6 1.3 -0.6
v -1.6 1.4 0.2
v -1.6 1.4 0.1
v -1.6 1.4 -0.1
v -1.6 1.4 -0.2
v -1.6 1.4 -0.3
v -1.6 1.4 -0.4
v -1.6 1.4 -0.6
v -1.6 1.4 -0.7
v -1.6 1.5 0.3
v -1.6 1.5 0.2
v -1.6 1.5 -0.1
v -1.6 1.5 -0.2
v -1.6 1.5 -0.3
v -1.6 1.5 -0.4
v -1.6 1.5 -0.7
v -1.6 1.5 -0.8
v -1.6 1.6 0
v -1.6 1.6 -0.1
v -1.6 1.6 -0.2
v -1.6 1.6 -0.3
v -1.6 1.6 -0.4
v -1.6 1.6 -0.5
v -1.6 1.7 0.3
v -1.6 1.7 0.2
v -1.6 1.7 0.1
v -1.6 1.7 0
v -1.6 1.7 -0.1
v -1.6 1.7 -0.2
v -1.6 1.7 -0.3
v -1.6 1.7 -0.4
v -1.6 1.7 -0.5
v -1.6 1.7 -0.6
v -1.6 1.7 -0.7
v -1.6 1.7 -0.8
v -1.6 1.8 0.2
v -1.6 1.8 0.1
v -1.6 1.8 0
v -1.6 1.8 -0.1
v -1.6 1.8 -0.2
v -1.6 1.8 -0.3
v -1.6 1.8 -0.4
v -1.6 1.8 -0.5
v -1.6 1.8 -0.6
v -1.6 1.8 -0.7
v -1.6 1.9 0.1
v -1.6 1.9 0
v -1.6 1.9 -0.1
v -1.6 1.9 -0.4
v -1.6 1.9 -0.5
v -1.6 1.9 -0.6
v -1.6 2 0
v -1.6 2 -0.1
v -1.6 2 -0.4
v -1.6 2 -0.5
v -1.6 2.1 -0.1
v -1.6 2.1 -0.2
v -1.6 2.1 -0.3
v -1.6 2.1 -0.4
v -1.6 2.2 -0.2
v -1.6 2.2 -0.3
v -1 0.9 0
v -1 0.9 -0.5
v -1 1 0.2
v -1 1 0
v -1 1 -0.5
v -1 1 -0.7
v -1 1.1 0.3
v -1 1.1 0.2
v -1 1.1 0
v -1 1.1 -0.5
v -1 1.1 -0.7
v -1 1.1 -0.8
v -1 1.2 0.4
v -1 1.2 0.3
v -1 1.2 0.2
v -1 1.2 -0.7
v -1 1.2 -0.8
v -1 1.2 -0.9
v -1 1.4 0.5
v -1 1.4 0.4
v -1 1.4 0.3
v -1 1.4 -0.8
v -1 1.4 -0.9
v -1 1.4 -1
v -1 1.8 0.5
v -1 1.8 0.4
v -1 1.8 0.3
v -1 1.8 -0.8
v -1 1.8 -0.9
v -1 1.8 -1
v -1 2 0.4
v -1 2 0.3
v -1 2 0.2
v -1 2 -0.7
v -1 2 -0.8
v -1 2 -0.9
v -1 2.1 0.3
v -1 2.1 0.2
v -1 2.1 0
v -1 2.1 -0.5
v -1 2.1 -0.7
v -1 2.1 -0.8
v -1 2.2 0.2
v -1 2.2 0
v -1 2.2 -0.5
v -1 2.2 -0.7
v -1 2.3 0
v -1 2.3 -0.5
v -0.3 0.9 0
v -0.3 0.9 -0.5
v -0.3 1 0.2
v -0.3 1 0
v -0.3 1 -0.5
v -0.3 1 -0.7
v -0.3 1.1 0.3
v -0.3 1.1 0.2
v -0.3 1.1 0
v -0.3 1.1 -0.5
v -0.3 1.1 -0.7
v -0.3 1.1 -0.8
v -0.3 1.2 0.4
v -0.3 1.2 0.3
v -0.3 1.2 0.2
v -0.3 1.2 -0.7
v -0.3 1.2 -0.8
v -0.3 1.2 -0.9
v -0.3 1.4 0.5
v -0.3 1.4 0.4
v -0.3 1.4 0.3
v -0.3 1.4 -0.8
v -0.3 1.4 -0.9
v -0.3 1.4 -1
v -0.3 1.8 0.5
v -0.3 1.8 0.4
v -0.3 1.8 0.3
v -0.3 1.8 -0.8
v -0.3 1.8 -0.9
v -0.3 1.8 -1
v -0.3 2 0.4
v -0.3 2 0.3
v -0.3 2 0.2
v -0.3 2 -0.7
v -0.3 2 -0.8
v -0.3 2 -0.9
v -0.3 2.1 0.3
v -0.3 2.1 0.2
v -0.3 2.1 0
v -0.3 2.1 -0.5
v -0.3 2.1 -0.7
v -0.3 2.1 -0.8
v -0.3 2.2 0.2
v -0.3 2.2 0
v -0.3 2.2 -0.5
v -0.3 2.2 -0.7
v -0.3 2.3 0
v -0.3 2.3 -0.5
v 0.2 0.9 0
v 0.2 0.9 -0.5
v 0.2 1 0.2
v 0.2 1 0
v 0.2 1 -0.5
v 0.2 1 -0.7
v 0.2 1.1 0.3
v 0.2 1.1 0.2
v 0.2 1.1 0
v 0.2 1.1 -0.5
v 0.2 1.1 -0.7
v 0.2 1.1 -0.8
v 0.2 1.2 0.4
v 0.2 1.2 0.3
v 0.2 1.2 0.2
v 0.2 1.2 -0.7
v 0.2 1.2 -0.8
v 0.2 1.2 -0.9
v 0.2 1.4 0.5
v 0.2 1.4 0.4
v 0.2 1.4 0.3
v 0.2 1.4 -0.8
v 0.2 1.4 -0.9
v 0.2 1.4 -1
v 0.2 1.8 0.5
v 0.2 1.8 0.4
v 0.2 1.8 0.3
v 0.2 1.8 -0.8
v 0.2 1.8 -0.9
v 0.2 1.8 -1
v 0.2 2 0.4
v 0.2 2 0.3
v 0.2 2 0.2
v 0.2 2 -0.7
v 0.2 2 -0.8
v 0.2 2 -0.9
v 0.2 2.1 0.3
v 0.2 2.1 0.2
v 0.2 2.1 0
v 0.2 2.1 -0.5
v 0.2 2.1 -0.7
v 0.2 2.1 -0.8
v 0.2 2.2 0.2
v 0.2 2.2 0
v 0.2 2.2 -0.5
v 0.2 2.2 -0.7
v 0.2 2.3 0
v 0.2 2.3 -0.5
v 0.7 0.8 0.2
v 0.7 0.8 -0.1
v 0.7 0.8 -0.4
v 0.7 0.8 -0.7
v 0.7 0.9 0.2
v 0.7 0.9 -0.1
v 0.7 0.9 -0.4
v 0.7 0.9 -0.7
v 0.9 1.6 0.3
v 0.9 1.6 0.2
v 0.9 1.6 -0.7
v 0.9 1.6 -0.8
v 0.9 1.7 0.3
v 0.9 1.7 0.2
v 0.9 1.7 0.1
v 0.9 1.7 -0.6
v 0.9 1.7 -0.7
v 0.9 1.7 -0.8
v 0.9 1.8 0.2
v 0.9 1.8 0.1
v 0.9 1.8 0
v 0.9 1.8 -0.5
v 0.9 1.8 -0.6
v 0.9 1.8 -0.7
v 0.9 1.9 0.1
v 0.9 1.9 0
v 0.9 1.9 -0.1
v 0.9 1.9 -0.4
v 0.9 1.9 -0.5
v 0.9 1.9 -0.6
v 0.9 2 0
v 0.9 2 -0.1
v 0.9 2 -0.2
v 0.9 2 -0.3
v 0.9 2 -0.4
v 0.9 2 -0.5
v 0.9 2.1 -0.1
v 0.9 2.1 -0.2
v 0.9 2.1 -0.3
v 0.9 2.1 -0.4
v 1 1.5 0.3
v 1 1.5 0.2
v 1 1.5 -0.7
v 1 1.5 -0.8
v 1 1.6 0.3
v 1 1.6 0.2
v 1 1.6 0.1
v 1 1.6 -0.6
v 1 1.6 -0.7
v 1 1.6 -0.8
v 1 1.7 0.2
v 1 1.7 0.1
v 1 1.7 0
v 1 1.7 -0.5
v 1 1.7 -0.6
v 1 1.7 -0.7
v 1 1.8 0.1
v 1 1.8 0
v 1 1.8 -0.1
v 1 1.8 -0.4
v 1 1.8 -0.5
v 1 1.8 -0.6
v 1 1.9 0
v 1 1.9 -0.1
v 1 1.9 -0.2
v 1 1.9 -0.3
v 1 1.9 -0.4
v 1 1.9 -0.5
v 1 2 -0.1
v 1 2 -0.2
v 1 2 -0.3
v 1 2 -0.4
v 1 2.1 -0.2
v 1 2.1 -0.3
v 1.1 0.5 -0.1
v 1.1 0.5 -0.4
v 1.1 0.6 -0.1
v 1.1 0.6 -0.4
v 1.1 1.5 0.2
v 1.1 1.5 0.1
v 1.1 1.5 -0.6
v 1.1 1.5 -0.7
v 1.1 1.6 0.2
v 1.1 1.6 0.1
v 1.1 1.6 -0.6
v 1.1 1.6 -0.7
v 1.2 0.6 -0.1
v 1.2 0.6 -0.4
v 1.2 0.8 -0.1
v 1.2 0.8 -0.4
v 1.2 0.9 -0.1
v 1.2 0.9 -0.4
v 1.2 1.1 0
v 1.2 1.1 -0.1
v 1.2 1.1 -0.4
v 1.2 1.1 -0.5
v 1.2 1.2 0.1
v 1.2 1.2 0
v 1.2 1.2 -0.5
v 1.2 1.2 -0.6
v 1.2 1.4 0.2
v 1.2 1.4 0.1
v 1.2 1.4 -0.6
v 1.2 1.4 -0.7
v 1.2 1.5 0.2
v 1.2 1.5 0.1
v 1.2 1.5 0
v 1.2 1.5 -0.5
v 1.2 1.5 -0.6
v 1.2 1.5 -0.7
v 1.2 2 0
v 1.2 2 -0.5
v 1.2 2.1 0.1
v 1.2 2.1 -0.6
v 1.3 0.8 0.3
v 1.3 0.8 -0.8
v 1.3 0.9 0.3
v 1.3 0.9 -0.8
v -1.1 1.4 0.5
v -1.1 1.8 0.5
v -1 1.4 0.5
v -1 1.8 0.5
v -0.4 1.4 0.5
v -0.4 1.8 0.5
v -0.3 1.4 0.5
v -0.3 1.8 0.5
v 0.1 1.4 0.5
v 0.1 1.8 0.5
v 0.2 1.4 0.5
v 0.2 1.8 0.5
v -1.1 1.2 0.4
v -1.1 1.4 0.4
v -1.1 1.8 0.4
v -1.1 2 0.4
v -1 1.2 0.4
v -1 1.4 0.4
v -1 1.8 0.4
v -1 2 0.4
v -0.4 1.2 0.4
v -0.4 1.4 0.4
v -0.4 1.8 0.4
v -0.4 2 0.4
v -0.3 1.2 0.4
v -0.3 1.4 0.4
v -0.3 1.8 0.4
v -0.3 2 0.4
v 0.1 1.2 0.4
v 0.1 1.4 0.4
v 0.1 1.8 0.4
v 0.1 2 0.4
v 0.2 1.2 0.4
v 0.2 1.4 0.4
v 0.2 1.8 0.4
v 0.2 2 0.4
v -1.7 1.5 0.3
v -1.7 1.7 0.3
v -1.6 1.5 0.3
v -1.6 1.7 0.3
v -1.1 1.1 0.3
v -1.1 1.2 0.3
v -1.1 2 0.3
v -1.1 2.1 0.3
v -1 1.1 0.3
v -1 1.2 0.3
v -1 2 0.3
v -1 2.1 0.3
v -0.4 1.1 0.3
v -0.4 1.2 0.3
v -0.4 2 0.3
v -0.4 2.1 0.3
v -0.3 1.1 0.3
v -0.3 1.2 0.3
v -0.3 2 0.3
v -0.3 2.1 0.3
v 0.1 1.1 0.3
v 0.1 1.2 0.3
v 0.1 2 0.3
v 0.1 2.1 0.3
v 0.2 1.1 0.3
v 0.2 1.2 0.3
v 0.2 2 0.3
v 0.2 2.1 0.3
v 0.6 0.8 0.3
v 0.6 0.9 0.3
v 0.6 1.5 0.3
v 0.6 1.7 0.3
v 0.9 1.6 0.3
v 0.9 1.7 0.3
v 1 1.5 0.3
v 1 1.6 0.3
v 1.3 0.8 0.3
v 1.3 0.9 0.3
v -1.7 1.4 0.2
v -1.7 1.5 0.2
v -1.7 1.7 0.2
v -1.7 1.8 0.2
v -1.6 1.4 0.2
v -1.6 1.5 0.2
v -1.6 1.7 0.2
v -1.6 1.8 0.2
v -1.1 1 0.2
v -1.1 1.1 0.2
v -1.1 2.1 0.2
v -1.1 2.2 0.2
v -1 1 0.2
v -1 1.1 0.2
v -1 2.1 0.2
v -1 2.2 0.2
v -0.4 1 0.2
v -0.4 1.1 0.2
v -0.4 2.1 0.2
v -0.4 2.2 0.2
v -0.3 1 0.2
v -0.3 1.1 0.2
v -0.3 2.1 0.2
v -0.3 2.2 0.2
v 0.1 1 0.2
v 0.1 1.1 0.2
v 0.1 2.1 0.2
v 0.1 2.2 0.2
v 0.2 1 0.2
v 0.2 1.1 0.2
v 0.2 2.1 0.2
v 0.2 2.2 0.2
v 0.6 1.4 0.2
v 0.6 1.5 0.2
v 0.6 1.7 0.2
v 0.6 1.8 0.2
v 0.7 1.4 0.2
v 0.7 1.5 0.2
v 0.9 1.6 0.2
v 0.9 1.7 0.2
v 0.9 1.8 0.2
v 1 1.5 0.2
v 1 1.6 0.2
v 1 1.7 0.2
v 1.1 1.5 0.2
v 1.1 1.6 0.2
v 1.2 1.4 0.2
v 1.2 1.5 0.2
v -2 1.7 0.1
v -2 1.8 0.1
v -1.7 1.3 0.1
v -1.7 1.4 0.1
v -1.7 1.7 0.1
v -1.7 1.8 0.1
v -1.7 1.9 0.1
v -1.6 1.3 0.1
v -1.6 1.4 0.1
v -1.6 1.7 0.1
v -1.6 1.8 0.1
v -1.6 1.9 0.1
v 0.6 1.2 0.1
v 0.6 1.3 0.1
v 0.6 1.4 0.1
v 0.6 1.7 0.1
v 0.6 1.8 0.1
v 0.6 1.9 0.1
v 0.7 1.3 0.1
v 0.7 1.4 0.1
v 0.9 1.7 0.1
v 0.9 1.8 0.1
v 0.9 1.9 0.1
v 1 1.6 0.1
v 1 1.7 0.1
v 1 1.8 0.1
v 1.1 1.5 0.1
v 1.1 1.6 0.1
v 1.1 1.7 0.1
v 1.1 2.1 0.1
v 1.2 1.2 0.1
v 1.2 1.4 0.1
v 1.2 1.5 0.1
v 1.2 2.1 0.1
v -2 1.6 0
v -2 1.7 0
v -2 1.8 0
v -2 1.9 0
v -1.7 1.2 0
v -1.7 1.3 0
v -1.7 1.6 0
v -1.7 1.7 0
v -1.7 1.8 0
v -1.7 1.9 0
v -1.7 2 0
v -1.6 1.2 0
v -1.6 1.3 0
v -1.6 1.6 0
v -1.6 1.7 0
v -1.6 1.8 0
v -1.6 1.9 0
v -1.6 2 0
v -1.1 0.9 0
v -1.1 1 0
v -1.1 2.2 0
v -1.1 2.3 0
v -1 0.9 0
v -1 1 0
v -1 2.2 0
v -1 2.3 0
v -0.4 0.9 0
v -0.4 1 0
v -0.4 2.2 0
v -0.4 2.3 0
v -0.3 0.9 0
v -0.3 1 0
v -0.3 2.2 0
v -0.3 2.3 0
v 0.1 0.9 0
v 0.1 1 0
v 0.1 2.2 0
v 0.1 2.3 0
v 0.2 0.9 0
v 0.2 1 0
v 0.2 2.2 0
v 0.2 2.3 0
v 0.5 1.6 0
v 0.5 1.7 0
v 0.6 1.6 0
v 0.6 1.7 0
v 0.6 1.8 0
v 0.6 1.9 0
v 0.6 2 0
v 0.8 1.1 0
v 0.8 1.2 0
v 0.9 1.8 0
v 0.9 1.9 0
v 0.9 2 0
v 1 1.7 0
v 1 1.8 0
v 1 1.9 0
v 1.1 1.7 0
v 1.1 1.8 0
v 1.2 1.1 0
v 1.2 1.2 0
v -2 1.4 -0.1
v -2 1.5 -0.1
v -2 1.7 -0.1
v -2 1.8 -0.1
v -1.7 1.1 -0.1
v -1.7 1.2 -0.1
v -1.7 1.4 -0.1
v -1.7 1.5 -0.1
v -1.7 1.7 -0.1
v -1.7 1.8 -0.1
v -1.7 2 -0.1
v -1.7 2.1 -0.1
v -1.6 1.1 -0.1
v -1.6 1.2 -0.1
v -1.6 1.4 -0.1
v -1.6 1.5 -0.1
v -1.6 1.7 -0.1
v -1.6 1.8 -0.1
v -1.6 2 -0.1
v -1.6 2.1 -0.1
v -1.5 1.4 -0.1
v -1.5 1.5 -0.1
v 0.5 1.7 -0.1
v 0.6 1.1 -0.1
v 0.6 1.2 -0.1
v 0.6 1.4 -0.1
v 0.6 1.5 -0.1
v 0.6 1.7 -0.1
v 0.6 1.8 -0.1
v 0.6 2 -0.1
v 0.6 2.1 -0.1
v 0.7 0.6 -0.1
v 0.7 0.8 -0.1
v 0.7 0.9 -0.1
v 0.7 1.1 -0.1
v 0.7 1.2 -0.1
v 0.8 0.5 -0.1
v 0.8 0.6 -0.1
v 0.8 1.1 -0.1
v 0.8 1.2 -0.1
v 0.9 1.9 -0.1
v 0.9 2 -0.1
v 0.9 2.1 -0.1
v 1 1.8 -0.1
v 1 1.9 -0.1
v 1 2 -0.1
v 1.1 0.5 -0.1
v 1.1 0.6 -0.1
v 1.1 0.8 -0.1
v 1.1 0.9 -0.1
v 1.1 1.8 -0.1
v 1.1 1.9 -0.1
v 1.2 0.6 -0.1
v 1.2 0.8 -0.1
v 1.2 0.9 -0.1
v 1.2 1.1 -0.1
v -2 1.3 -0.2
v -2 1.4 -0.2
v -2 1.5 -0.2
v -2 1.6 -0.2
v -1.7 1 -0.2
v -1.7 1.1 -0.2
v -1.7 1.3 -0.2
v -1.7 1.4 -0.2
v -1.7 1.5 -0.2
v -1.7 1.6 -0.2
v -1.7 2.1 -0.2
v -1.7 2.2 -0.2
v -1.6 1 -0.2
v -1.6 1.1 -0.2
v -1.6 1.3 -0.2
v -1.6 1.4 -0.2
v -1.6 1.5 -0.2
v -1.6 1.6 -0.2
v -1.6 2.1 -0.2
v -1.6 2.2 -0.2
v -1.5 1.3 -0.2
v -1.5 1.4 -0.2
v -1.5 1.5 -0.2
v -1.5 1.6 -0.2
v 0.6 1.3 -0.2
v 0.6 1.4 -0.2
v 0.6 1.5 -0.2
v 0.6 1.6 -0.2
v 0.9 2 -0.2
v 0.9 2.1 -0.2
v 1 1.9 -0.2
v 1 2 -0.2
v 1 2.1 -0.2
v 1.1 1.9 -0.2
v 1.1 2 -0.2
v -2 1.4 -0.3
v -2 1.5 -0.3
v -2 1.7 -0.3
v -2 1.8 -0.3
v -1.7 1.4 -0.3
v -1.7 1.5 -0.3
v -1.7 1.7 -0.3
v -1.7 1.8 -0.3
v -1.6 1.4 -0.3
v -1.6 1.5 -0.3
v -1.6 1.7 -0.3
v -1.6 1.8 -0.3
v -1.5 1.4 -0.3
v -1.5 1.5 -0.3
v -1.4 1.4 -0.3
v -1.4 1.5 -0.3
v 0.6 1.4 -0.3
v 0.6 1.5 -0.3
v 0.6 1.7 -0.3
v 0.6 1.8 -0.3
v -2 1.6 -0.4
v -2 1.7 -0.4
v -2 1.8 -0.4
v -2 1.9 -0.4
v -1.7 1.6 -0.4
v -1.7 1.7 -0.4
v -1.7 1.8 -0.4
v -1.7 1.9 -0.4
v -1.6 1.6 -0.4
v -1.6 1.7 -0.4
v -1.6 1.8 -0.4
v -1.6 1.9 -0.4
v -1.5 1.8 -0.4
v -1.5 1.9 -0.4
v -1.4 1.6 -0.4
v -1.4 1.7 -0.4
v 0.5 1.6 -0.4
v 0.5 1.7 -0.4
v 0.6 1.6 -0.4
v 0.6 1.7 -0.4
v 0.6 1.8 -0.4
v 0.6 1.9 -0.4
v -2 1.7 -0.5
v -2 1.8 -0.5
v -1.8 1.7 -0.5
v -1.8 1.8 -0.5
v -1.6 1.7 -0.5
v -1.6 1.8 -0.5
v -1.5 1.8 -0.5
v -1.4 1.7 -0.5
v -1.4 1.8 -0.5
v -1.1 1 -0.5
v -1.1 1.1 -0.5
v -1.1 2.1 -0.5
v -1.1 2.2 -0.5
v -1 1 -0.5
v -1 1.1 -0.5
v -1 2.1 -0.5
v -1 2.2 -0.5
v -0.4 1 -0.5
v -0.4 1.1 -0.5
v -0.4 2.1 -0.5
v -0.4 2.2 -0.5
v -0.3 1 -0.5
v -0.3 1.1 -0.5
v -0.3 2.1 -0.5
v -0.3 2.2 -0.5
v 0.1 1 -0.5
v 0.1 1.1 -0.5
v 0.1 2.1 -0.5
v 0.1 2.2 -0.5
v 0.2 1 -0.5
v 0.2 1.1 -0.5
v 0.2 2.1 -0.5
v 0.2 2.2 -0.5
v 0.5 1.7 -0.5
v 0.6 1.7 -0.5
v 0.6 1.8 -0.5
v -1.1 1.1 -0.7
v -1.1 1.2 -0.7
v -1.1 2 -0.7
v -1.1 2.1 -0.7
v -1 1.1 -0.7
v -1 1.2 -0.7
v -1 2 -0.7
v -1 2.1 -0.7
v -0.4 1.1 -0.7
v -0.4 1.2 -0.7
v -0.4 2 -0.7
v -0.4 2.1 -0.7
v -0.3 1.1 -0.7
v -0.3 1.2 -0.7
v -0.3 2 -0.7
v -0.3 2.1 -0.7
v 0.1 1.1 -0.7
v 0.1 1.2 -0.7
v 0.1 2 -0.7
v 0.1 2.1 -0.7
v 0.2 1.1 -0.7
v 0.2 1.2 -0.7
v 0.2 2 -0.7
v 0.2 2.1 -0.7
v 0.7 0.8 -0.7
v 0.7 0.9 -0.7
v 1.1 0.8 -0.7
v 1.1 0.9 -0.7
v -1.1 1.2 -0.8
v -1.1 1.4 -0.8
v -1.1 1.8 -0.8
v -1.1 2 -0.8
v -1 1.2 -0.8
v -1 1.4 -0.8
v -1 1.8 -0.8
v -1 2 -0.8
v -0.4 1.2 -0.8
v -0.4 1.4 -0.8
v -0.4 1.8 -0.8
v -0.4 2 -0.8
v -0.3 1.2 -0.8
v -0.3 1.4 -0.8
v -0.3 1.8 -0.8
v -0.3 2 -0.8
v 0.1 1.2 -0.8
v 0.1 1.4 -0.8
v 0.1 1.8 -0.8
v 0.1 2 -0.8
v 0.2 1.2 -0.8
v 0.2 1.4 -0.8
v 0.2 1.8 -0.8
v 0.2 2 -0.8
v -1.1 1.4 -0.9
v -1.1 1.8 -0.9
v -1 1.4 -0.9
v -1 1.8 -0.9
v -0.4 1.4 -0.9
v -0.4 1.8 -0.9
v -0.3 1.4 -0.9
v -0.3 1.8 -0.9
v 0.1 1.4 -0.9
v 0.1 1.8 -0.9
v 0.2 1.4 -0.9
v 0.2 1.8 -0.9
v -1.1 1.4 0.4
v -1.1 1.8 0.4
v -1 1.4 0.4
v -1 1.8 0.4
v -0.4 1.4 0.4
v -0.4 1.8 0.4
v -0.3 1.4 0.4
v -0.3 1.8 0.4
v 0.1 1.4 0.4
v 0.1 1.8 0.4
v 0.2 1.4 0.4
v 0.2 1.8 0.4
v -1.1 1.2 0.3
v -1.1 1.4 0.3
v -1.1 1.8 0.3
v -1.1 2 0.3
v -1 1.2 0.3
v -1 1.4 0.3
v -1 1.8 0.3
v -1 2 0.3
v -0.4 1.2 0.3
v -0.4 1.4 0.3
v -0.4 1.8 0.3
v -0.4 2 0.3
v -0.3 1.2 0.3
v -0.3 1.4 0.3
v -0.3 1.8 0.3
v -0.3 2 0.3
v 0.1 1.2 0.3
v 0.1 1.4 0.3
v 0.1 1.8 0.3
v 0.1 2 0.3
v 0.2 1.2 0.3
v 0.2 1.4 0.3
v 0.2 1.8 0.3
v 0.2 2 0.3
v -1.1 1.1 0.2
v -1.1 1.2 0.2
v -1.1 2 0.2
v -1.1 2.1 0.2
v -1 1.1 0.2
v -1 1.2 0.2
v -1 2 0.2
v -1 2.1 0.2
v -0.4 1.1 0.2
v -0.4 1.2 0.2
v -0.4 2 0.2
v -0.4 2.1 0.2
v -0.3 1.1 0.2
v -0.3 1.2 0.2
v -0.3 2 0.2
v -0.3 2.1 0.2
v 0.1 1.1 0.2
v 0.1 1.2 0.2
v 0.1 2 0.2
v 0.1 2.1 0.2
v 0.2 1.1 0.2
v 0.2 1.2 0.2
v 0.2 2 0.2
v 0.2 2.1 0.2
v 0.7 0.8 0.2
v 0.7 0.9 0.2
v 1.1 0.8 0.2
v 1.1 0.9 0.2
v -2 1.7 0
v -2 1.8 0
v -1.7 1.7 0
v -1.7 1.8 0
v -1.6 1.7 0
v -1.6 1.8 0
v -1.1 1 0
v -1.1 1.1 0
v -1.1 2.1 0
v -1.1 2.2 0
v -1 1 0
v -1 1.1 0
v -1 2.1 0
v -1 2.2 0
v -0.4 1 0
v -0.4 1.1 0
v -0.4 2.1 0
v -0.4 2.2 0
v -0.3 1 0
v -0.3 1.1 0
v -0.3 2.1 0
v -0.3 2.2 0
v 0.1 1 0
v 0.1 1.1 0
v 0.1 2.1 0
v 0.1 2.2 0
v 0.2 1 0
v 0.2 1.1 0
v 0.2 2.1 0
v 0.2 2.2 0
v 0.5 1.7 0
v 0.6 1.7 0
v 0.6 1.8 0
v -2 1.6 -0.1
v -2 1.7 -0.1
v -2 1.8 -0.1
v -2 1.9 -0.1
v -1.7 1.6 -0.1
v -1.7 1.7 -0.1
v -1.7 1.8 -0.1
v -1.7 1.9 -0.1
v -1.6 1.6 -0.1
v -1.6 1.7 -0.1
v -1.6 1.8 -0.1
v -1.6 1.9 -0.1
v 0.5 1.6 -0.1
v 0.5 1.7 -0.1
v 0.6 1.6 -0.1
v 0.6 1.7 -0.1
v 0.6 1.8 -0.1
v 0.6 1.9 -0.1
v -2 1.4 -0.2
v -2 1.5 -0.2
v -2 1.7 -0.2
v -2 1.8 -0.2
v -1.7 1.4 -0.2
v -1.7 1.5 -0.2
v -1.7 1.7 -0.2
v -1.7 1.8 -0.2
v -1.6 1.4 -0.2
v -1.6 1.5 -0.2
v -1.6 1.7 -0.2
v -1.6 1.8 -0.2
v -1.5 1.4 -0.2
v -1.5 1.5 -0.2
v 0.6 1.4 -0.2
v 0.6 1.5 -0.2
v 0.6 1.7 -0.2
v 0.6 1.8 -0.2
v -2 1.3 -0.3
v -2 1.4 -0.3
v -2 1.5 -0.3
v -2 1.6 -0.3
v -1.7 1 -0.3
v -1.7 1.1 -0.3
v -1.7 1.3 -0.3
v -1.7 1.4 -0.3
v -1.7 1.5 -0.3
v -1.7 1.6 -0.3
v -1.7 2.1 -0.3
v -1.7 2.2 -0.3
v -1.6 1 -0.3
v -1.6 1.1 -0.3
v -1.6 1.3 -0.3
v -1.6 1.4 -0.3
v -1.6 1.5 -0.3
v -1.6 1.6 -0.3
v -1.6 2.1 -0.3
v -1.6 2.2 -0.3
v -1.5 1.3 -0.3
v -1.5 1.4 -0.3
v -1.5 1.5 -0.3
v -1.5 1.6 -0.3
v -1.4 1.4 -0.3
v -1.4 1.5 -0.3
v 0.6 1.3 -0.3
v 0.6 1.4 -0.3
v 0.6 1.5 -0.3
v 0.6 1.6 -0.3
v 0.9 2 -0.3
v 0.9 2.1 -0.3
v 1 1.9 -0.3
v 1 2 -0.3
v 1 2.1 -0.3
v 1.1 1.9 -0.3
v 1.1 2 -0.3
v -2 1.4 -0.4
v -2 1.5 -0.4
v -2 1.7 -0.4
v -2 1.8 -0.4
v -1.8 1.7 -0.4
v -1.8 1.8 -0.4
v -1.7 1.1 -0.4
v -1.7 1.2 -0.4
v -1.7 1.4 -0.4
v -1.7 1.5 -0.4
v -1.7 2 -0.4
v -1.7 2.1 -0.4
v -1.6 1.1 -0.4
v -1.6 1.2 -0.4
v -1.6 1.4 -0.4
v -1.6 1.5 -0.4
v -1.6 1.7 -0.4
v -1.6 1.8 -0.4
v -1.6 2 -0.4
v -1.6 2.1 -0.4
v -1.5 1.8 -0.4
v -1.4 1.4 -0.4
v -1.4 1.5 -0.4
v -1.4 1.7 -0.4
v 0.5 1.7 -0.4
v 0.6 1.4 -0.4
v 0.6 1.5 -0.4
v 0.6 1.7 -0.4
v 0.6 1.8 -0.4
v 0.6 2 -0.4
v 0.6 2.1 -0.4
v 0.7 0.6 -0.4
v 0.7 0.8 -0.4
v 0.7 0.9 -0.4
v 0.7 1.1 -0.4
v 0.8 0.5 -0.4
v 0.8 0.6 -0.4
v 0.9 1.9 -0.4
v 0.9 2 -0.4
v 0.9 2.1 -0.4
v 1 1.8 -0.4
v 1 1.9 -0.4
v 1 2 -0.4
v 1.1 0.5 -0.4
v 1.1 0.6 -0.4
v 1.1 0.8 -0.4
v 1.1 0.9 -0.4
v 1.1 1.8 -0.4
v 1.1 1.9 -0.4
v 1.2 0.6 -0.4
v 1.2 0.8 -0.4
v 1.2 0.9 -0.4
v 1.2 1.1 -0.4
v -2 1.6 -0.5
v -2 1.7 -0.5
v -2 1.8 -0.5
v -2 1.9 -0.5
v -1.7 1.2 -0.5
v -1.7 1.3 -0.5
v -1.7 1.6 -0.5
v -1.7 1.7 -0.5
v -1.7 1.8 -0.5
v -1.7 1.9 -0.5
v -1.7 2 -0.5
v -1.6 1.2 -0.5
v -1.6 1.3 -0.5
v -1.6 1.6 -0.5
v -1.6 1.7 -0.5
v -1.6 1.8 -0.5
v -1.6 1.9 -0.5
v -1.6 2 -0.5
v -1.5 1.8 -0.5
v -1.5 1.9 -0.5
v -1.4 1.6 -0.5
v -1.4 1.7 -0.5
v -1.4 1.8 -0.5
v -1.1 0.9 -0.5
v -1.1 1 -0.5
v -1.1 2.2 -0.5
v -1.1 2.3 -0.5
v -1 0.9 -0.5
v -1 1 -0.5
v -1 2.2 -0.5
v -1 2.3 -0.5
v -0.4 0.9 -0.5
v -0.4 1 -0.5
v -0.4 2.2 -0.5
v -0.4 2.3 -0.5
v -0.3 0.9 -0.5
v -0.3 1 -0.5
v -0.3 2.2 -0.5
v -0.3 2.3 -0.5
v 0.1 0.9 -0.5
v 0.1 1 -0.5
v 0.1 2.2 -0.5
v 0.1 2.3 -0.5
v 0.2 0.9 -0.5
v 0.2 1 -0.5
v 0.2 2.2 -0.5
v 0.2 2.3 -0.5
v 0.5 1.6 -0.5
v 0.5 1.7 -0.5
v 0.6 1.1 -0.5
v 0.6 1.2 -0.5
v 0.6 1.6 -0.5
v 0.6 1.7 -0.5
v 0.6 1.8 -0.5
v 0.6 1.9 -0.5
v 0.6 2 -0.5
v 0.9 1.8 -0.5
v 0.9 1.9 -0.5
v 0.9 2 -0.5
v 1 1.7 -0.5
v 1 1.8 -0.5
v 1 1.9 -0.5
v 1.1 1.7 -0.5
v 1.1 1.8 -0.5
v 1.2 1.1 -0.5
v 1.2 1.2 -0.5
v -2 1.7 -0.6
v -2 1.8 -0.6
v -1.7 1.3 -0.6
v -1.7 1.4 -0.6
v -1.7 1.7 -0.6
v -1.7 1.8 -0.6
v -1.7 1.9 -0.6
v -1.6 1.3 -0.6
v -1.6 1.4 -0.6
v -1.6 1.7 -0.6
v -1.6 1.8 -0.6
v -1.6 1.9 -0.6
v -1.4 1.7 -0.6
v -1.4 1.8 -0.6
v 0.6 1.2 -0.6
v 0.6 1.4 -0.6
v 0.6 1.7 -0.6
v 0.6 1.8 -0.6
v 0.6 1.9 -0.6
v 0.9 1.7 -0.6
v 0.9 1.8 -0.6
v 0.9 1.9 -0.6
v 1 1.6 -0.6
v 1 1.7 -0.6
v 1 1.8 -0.6
v 1.1 1.5 -0.6
v 1.1 1.6 -0.6
v 1.1 1.7 -0.6
v 1.1 2.1 -0.6
v 1.2 1.2 -0.6
v 1.2 1.4 -0.6
v 1.2 1.5 -0.6
v 1.2 2.1 -0.6
v -1.7 1.4 -0.7
v -1.7 1.5 -0.7
v -1.7 1.7 -0.7
v -1.7 1.8 -0.7
v -1.6 1.4 -0.7
v -1.6 1.5 -0.7
v -1.6 1.7 -0.7
v -1.6 1.8 -0.7
v -1.1 1 -0.7
v -1.1 1.1 -0.7
v -1.1 2.1 -0.7
v -1.1 2.2 -0.7
v -1 1 -0.7
v -1 1.1 -0.7
v -1 2.1 -0.7
v -1 2.2 -0.7
v -0.4 1 -0.7
v -0.4 1.1 -0.7
v -0.4 2.1 -0.7
v -0.4 2.2 -0.7
v -0.3 1 -0.7
v -0.3 1.1 -0.7
v -0.3 2.1 -0.7
v -0.3 2.2 -0.7
v 0.1 1 -0.7
v 0.1 1.1 -0.7
v 0.1 2.1 -0.7
v 0.1 2.2 -0.7
v 0.2 1 -0.7
v 0.2 1.1 -0.7
v 0.2 2.1 -0.7
v 0.2 2.2 -0.7
v 0.6 1.4 -0.7
v 0.6 1.5 -0.7
v 0.6 1.7 -0.7
v 0.6 1.8 -0.7
v 0.9 1.6 -0.7
v 0.9 1.7 -0.7
v 0.9 1.8 -0.7
v 1 1.5 -0.7
v 1 1.6 -0.7
v 1 1.7 -0.7
v 1.1 1.5 -0.7
v 1.1 1.6 -0.7
v 1.2 1.4 -0.7
v 1.2 1.5 -0.7
v -1.7 1.5 -0.8
v -1.7 1.7 -0.8
v -1.6 1.5 -0.8
v -1.6 1.7 -0.8
v -1.1 1.1 -0.8
v -1.1 1.2 -0.8
v -1.1 2 -0.8
v -1.1 2.1 -0.8
v -1 1.1 -0.8
v -1 1.2 -0.8
v -1 2 -0.8
v -1 2.1 -0.8
v -0.4 1.1 -0.8
v -0.4 1.2 -0.8
v -0.4 2 -0.8
v -0.4 2.1 -0.8
v -0.3 1.1 -0.8
v -0.3 1.2 -0.8
v -0.3 2 -0.8
v -0.3 2.1 -0.8
v 0.1 1.1 -0.8
v 0.1 1.2 -0.8
v 0.1 2 -0.8
v 0.1 2.1 -0.8
v 0.2 1.1 -0.8
v 0.2 1.2 -0.8
v 0.2 2 -0.8
v 0.2 2.1 -0.8
v 0.6 0.8 -0.8
v 0.6 0.9 -0.8
v 0.6 1.5 -0.8
v 0.6 1.7 -0.8
v 0.9 1.6 -0.8
v 0.9 1.7 -0.8
v 1 1.5 -0.8
v 1 1.6 -0.8
v 1.3 0.8 -0.8
v 1.3 0.9 -0.8
v -1.1 1.2 -0.9
v -1.1 1.4 -0.9
v -1.1 1.8 -0.9
v -1.1 2 -0.9
v -1 1.2 -0.9
v -1 1.4 -0.9
v -1 1.8 -0.9
v -1 2 -0.9
v -0.4 1.2 -0.9
v -0.4 1.4 -0.9
v -0.4 1.8 -0.9
v -0.4 2 -0.9
v -0.3 1.2 -0.9
v -0.3 1.4 -0.9
v -0.3 1.8 -0.9
v -0.3 2 -0.9
v 0.1 1.2 -0.9
v 0.1 1.4 -0.9
v 0.1 1.8 -0.9
v 0.1 2 -0.9
v 0.2 1.2 -0.9
v 0.2 1.4 -0.9
v 0.2 1.8 -0.9
v 0.2 2 -0.9
v -1.1 1.4 -1
v -1.1 1.8 -1
v -1 1.4 -1
v -1 1.8 -1
v -0.4 1.4 -1
v -0.4 1.8 -1
v -0.3 1.4 -1
v -0.3 1.8 -1
v 0.1 1.4 -1
v 0.1 1.8 -1
v 0.2 1.4 -1
v 0.2 1.8 -1
v 0.8 0.5 -0.1
v 1.1 0.5 -0.1
v 0.8 0.5 -0.4
v 1.1 0.5 -0.4
v 0.7 0.6 -0.1
v 0.8 0.6 -0.1
v 1.1 0.6 -0.1
v 1.2 0.6 -0.1
v 0.7 0.6 -0.4
v 0.8 0.6 -0.4
v 1.1 0.6 -0.4
v 1.2 0.6 -0.4
v 0.6 0.8 0.3
v 1.3 0.8 0.3
v 0.7 0.8 0.2
v 1.1 0.8 0.2
v 0.7 0.8 -0.1
v 1.1 0.8 -0.1
v 1.2 0.8 -0.1
v 0.7 0.8 -0.4
v 1.1 0.8 -0.4
v 1.2 0.8 -0.4
v 0.7 0.8 -0.7
v 1.1 0.8 -0.7
v 0.6 0.8 -0.8
v 1.3 0.8 -0.8
v -1.1 0.9 0
v -1 0.9 0
v -0.4 0.9 0
v -0.3 0.9 0
v 0.1 0.9 0
v 0.2 0.9 0
v -1.1 0.9 -0.5
v -1 0.9 -0.5
v -0.4 0.9 -0.5
v -0.3 0.9 -0.5
v 0.1 0.9 -0.5
v 0.2 0.9 -0.5
v -1.1 1 0.2
v -1 1 0.2
v -0.4 1 0.2
v -0.3 1 0.2
v 0.1 1 0.2
v 0.2 1 0.2
v -1.1 1 0
v -1 1 0
v -0.4 1 0
v -0.3 1 0
v 0.1 1 0
v 0.2 1 0
v -1.7 1 -0.2
v -1.6 1 -0.2
v -1.7 1 -0.3
v -1.6 1 -0.3
v -1.1 1 -0.5
v -1 1 -0.5
v -0.4 1 -0.5
v -0.3 1 -0.5
v 0.1 1 -0.5
v 0.2 1 -0.5
v -1.1 1 -0.7
v -1 1 -0.7
v -0.4 1 -0.7
v -0.3 1 -0.7
v 0.1 1 -0.7
v 0.2 1 -0.7
v -1.1 1.1 0.3
v -1 1.1 0.3
v -0.4 1.1 0.3
v -0.3 1.1 0.3
v 0.1 1.1 0.3
v 0.2 1.1 0.3
v -1.1 1.1 0.2
v -1 1.1 0.2
v -0.4 1.1 0.2
v -0.3 1.1 0.2
v 0.1 1.1 0.2
v 0.2 1.1 0.2
v 0.8 1.1 0
v 1.2 1.1 0
v -1.7 1.1 -0.1
v -1.6 1.1 -0.1
v 0.6 1.1 -0.1
v 0.7 1.1 -0.1
v 0.8 1.1 -0.1
v 1.2 1.1 -0.1
v -1.7 1.1 -0.2
v -1.6 1.1 -0.2
v -1.7 1.1 -0.3
v -1.6 1.1 -0.3
v 0.6 1.1 -0.3
v 0.7 1.1 -0.3
v -1.7 1.1 -0.4
v -1.6 1.1 -0.4
v 0.7 1.1 -0.4
v 1.2 1.1 -0.4
v 0.6 1.1 -0.5
v 1.2 1.1 -0.5
v -1.1 1.1 -0.7
v -1 1.1 -0.7
v -0.4 1.1 -0.7
v -0.3 1.1 -0.7
v 0.1 1.1 -0.7
v 0.2 1.1 -0.7
v -1.1 1.1 -0.8
v -1 1.1 -0.8
v -0.4 1.1 -0.8
v -0.3 1.1 -0.8
v 0.1 1.1 -0.8
v 0.2 1.1 -0.8
v -1.1 1.2 0.4
v -1 1.2 0.4
v -0.4 1.2 0.4
v -0.3 1.2 0.4
v 0.1 1.2 0.4
v 0.2 1.2 0.4
v -1.1 1.2 0.3
v -1 1.2 0.3
v -0.4 1.2 0.3
v -0.3 1.2 0.3
v 0.1 1.2 0.3
v 0.2 1.2 0.3
v 0.6 1.2 0.1
v 1.2 1.2 0.1
v -1.7 1.2 0
v -1.6 1.2 0
v 0.6 1.2 0
v 0.7 1.2 0
v 0.8 1.2 0
v 1.2 1.2 0
v -1.7 1.2 -0.1
v -1.6 1.2 -0.1
v 0.6 1.2 -0.1
v 0.7 1.2 -0.1
v 0.8 1.2 -0.1
v -1.7 1.2 -0.4
v -1.6 1.2 -0.4
v -1.7 1.2 -0.5
v -1.6 1.2 -0.5
v 0.6 1.2 -0.5
v 1.2 1.2 -0.5
v 0.6 1.2 -0.6
v 1.2 1.2 -0.6
v -1.1 1.2 -0.8
v -1 1.2 -0.8
v -0.4 1.2 -0.8
v -0.3 1.2 -0.8
v 0.1 1.2 -0.8
v 0.2 1.2 -0.8
v -1.1 1.2 -0.9
v -1 1.2 -0.9
v -0.4 1.2 -0.9
v -0.3 1.2 -0.9
v 0.1 1.2 -0.9
v 0.2 1.2 -0.9
v -1.7 1.3 0.1
v -1.6 1.3 0.1
v -1.7 1.3 0
v -1.6 1.3 0
v -2 1.3 -0.2
v -1.7 1.3 -0.2
v -1.6 1.3 -0.2
v -1.5 1.3 -0.2
v 0.6 1.3 -0.2
v -2 1.3 -0.3
v -1.7 1.3 -0.3
v -1.6 1.3 -0.3
v -1.5 1.3 -0.3
v 0.6 1.3 -0.3
v -1.7 1.3 -0.5
v -1.6 1.3 -0.5
v -1.7 1.3 -0.6
v -1.6 1.3 -0.6
v -1.1 1.4 0.5
v -1 1.4 0.5
v -0.4 1.4 0.5
v -0.3 1.4 0.5
v 0.1 1.4 0.5
v 0.2 1.4 0.5
v -1.1 1.4 0.4
v -1 1.4 0.4
v -0.4 1.4 0.4
v -0.3 1.4 0.4
v 0.1 1.4 0.4
v 0.2 1.4 0.4
v -1.7 1.4 0.2
v -1.6 1.4 0.2
v 0.6 1.4 0.2
v 0.7 1.4 0.2
v 1.2 1.4 0.2
v -1.7 1.4 0.1
v -1.6 1.4 0.1
v 0.6 1.4 0.1
v 0.7 1.4 0.1
v 1.2 1.4 0.1
v -2 1.4 -0.1
v -1.7 1.4 -0.1
v -1.6 1.4 -0.1
v -1.5 1.4 -0.1
v 0.6 1.4 -0.1
v -2 1.4 -0.2
v -1.7 1.4 -0.2
v -1.6 1.4 -0.2
v -1.5 1.4 -0.2
v 0.6 1.4 -0.2
v -2 1.4 -0.3
v -1.7 1.4 -0.3
v -1.6 1.4 -0.3
v -1.5 1.4 -0.3
v -1.4 1.4 -0.3
v 0.6 1.4 -0.3
v -2 1.4 -0.4
v -1.7 1.4 -0.4
v -1.6 1.4 -0.4
v -1.4 1.4 -0.4
v 0.6 1.4 -0.4
v -1.7 1.4 -0.6
v -1.6 1.4 -0.6
v 0.6 1.4 -0.6
v 1.2 1.4 -0.6
v -1.7 1.4 -0.7
v -1.6 1.4 -0.7
v 0.6 1.4 -0.7
v 1.2 1.4 -0.7
v -1.1 1.4 -0.9
v -1 1.4 -0.9
v -0.4 1.4 -0.9
v -0.3 1.4 -0.9
v 0.1 1.4 -0.9
v 0.2 1.4 -0.9
v -1.1 1.4 -1
v -1 1.4 -1
v -0.4 1.4 -1
v -0.3 1.4 -1
v 0.1 1.4 -1
v 0.2 1.4 -1
v -1.7 1.5 0.3
v -1.6 1.5 0.3
v 0.6 1.5 0.3
v 1 1.5 0.3
v -1.7 1.5 0.2
v -1.6 1.5 0.2
v 0.6 1.5 0.2
v 0.7 1.5 0.2
v 1 1.5 0.2
v -2 1.5 -0.2
v -1.7 1.5 -0.2
v -1.6 1.5 -0.2
v -1.5 1.5 -0.2
v 0.6 1.5 -0.2
v -2 1.5 -0.3
v -1.7 1.5 -0.3
v -1.6 1.5 -0.3
v -1.5 1.5 -0.3
v -1.4 1.5 -0.3
v 0.6 1.5 -0.3
v -1.7 1.5 -0.7
v -1.6 1.5 -0.7
v 0.6 1.5 -0.7
v 1 1.5 -0.7
v -1.7 1.5 -0.8
v -1.6 1.5 -0.8
v 0.6 1.5 -0.8
v 1 1.5 -0.8
v -2 1.6 0
v -1.7 1.6 0
v -1.6 1.6 0
v 0.5 1.6 0
v 0.6 1.6 0
v -2 1.6 -0.1
v -1.7 1.6 -0.1
v -1.6 1.6 -0.1
v 0.5 1.6 -0.1
v 0.6 1.6 -0.1
v -2 1.6 -0.4
v -1.7 1.6 -0.4
v -1.6 1.6 -0.4
v -1.4 1.6 -0.4
v 0.5 1.6 -0.4
v 0.6 1.6 -0.4
v -2 1.6 -0.5
v -1.7 1.6 -0.5
v -1.6 1.6 -0.5
v -1.4 1.6 -0.5
v 0.5 1.6 -0.5
v 0.6 1.6 -0.5
v -2 1.7 0.1
v -1.7 1.7 0.1
v -1.6 1.7 0.1
v 0.6 1.7 0.1
v -2 1.7 0
v -1.7 1.7 0
v -1.6 1.7 0
v 0.5 1.7 0
v 0.6 1.7 0
v -2 1.7 -0.1
v -1.7 1.7 -0.1
v -1.6 1.7 -0.1
v 0.5 1.7 -0.1
v 0.6 1.7 -0.1
v -2 1.7 -0.2
v -1.7 1.7 -0.2
v -1.6 1.7 -0.2
v 0.6 1.7 -0.2
v -2 1.7 -0.3
v -1.7 1.7 -0.3
v -1.6 1.7 -0.3
v 0.6 1.7 -0.3
v -2 1.7 -0.4
v -1.7 1.7 -0.4
v -1.6 1.7 -0.4
v -1.4 1.7 -0.4
v 0.5 1.7 -0.4
v 0.6 1.7 -0.4
v -2 1.7 -0.5
v -1.7 1.7 -0.5
v -1.6 1.7 -0.5
v -1.4 1.7 -0.5
v 0.5 1.7 -0.5
v 0.6 1.7 -0.5
v -2 1.7 -0.6
v -1.7 1.7 -0.6
v -1.6 1.7 -0.6
v -1.4 1.7 -0.6
v 0.6 1.7 -0.6
v -1.1 1.8 0.4
v -1 1.8 0.4
v -0.4 1.8 0.4
v -0.3 1.8 0.4
v 0.1 1.8 0.4
v 0.2 1.8 0.4
v -1.1 1.8 0.3
v -1 1.8 0.3
v -0.4 1.8 0.3
v -0.3 1.8 0.3
v 0.1 1.8 0.3
v 0.2 1.8 0.3
v -2 1.8 0
v -1.7 1.8 0
v -1.6 1.8 0
v 0.6 1.8 0
v -2 1.8 -0.1
v -1.7 1.8 -0.1
v -1.6 1.8 -0.1
v 0.6 1.8 -0.1
v -2 1.8 -0.4
v -1.8 1.8 -0.4
v -1.6 1.8 -0.4
v -1.5 1.8 -0.4
v 0.6 1.8 -0.4
v -2 1.8 -0.5
v -1.8 1.8 -0.5
v -1.6 1.8 -0.5
v -1.5 1.8 -0.5
v -1.4 1.8 -0.5
v 0.6 1.8 -0.5
v -1.1 1.8 -0.8
v -1 1.8 -0.8
v -0.4 1.8 -0.8
v -0.3 1.8 -0.8
v 0.1 1.8 -0.8
v 0.2 1.8 -0.8
v -1.1 1.8 -0.9
v -1 1.8 -0.9
v -0.4 1.8 -0.9
v -0.3 1.8 -0.9
v 0.1 1.8 -0.9
v 0.2 1.8 -0.9
v -1.1 2 0.3
v -1 2 0.3
v -0.4 2 0.3
v -0.3 2 0.3
v 0.1 2 0.3
v 0.2 2 0.3
v -1.1 2 0.2
v -1 2 0.2
v -0.4 2 0.2
v -0.3 2 0.2
v 0.1 2 0.2
v 0.2 2 0.2
v -1.1 2 -0.7
v -1 2 -0.7
v -0.4 2 -0.7
v -0.3 2 -0.7
v 0.1 2 -0.7
v 0.2 2 -0.7
v -1.1 2 -0.8
v -1 2 -0.8
v -0.4 2 -0.8
v -0.3 2 -0.8
v 0.1 2 -0.8
v 0.2 2 -0.8
v -1.1 2.1 0.2
v -1 2.1 0.2
v -0.4 2.1 0.2
v -0.3 2.1 0.2
v 0.1 2.1 0.2
v 0.2 2.1 0.2
v -1.1 2.1 0
v -1 2.1 0
v -0.4 2.1 0
v -0.3 2.1 0
v 0.1 2.1 0
v 0.2 2.1 0
v -1.1 2.1 -0.5
v -1 2.1 -0.5
v -0.4 2.1 -0.5
v -0.3 2.1 -0.5
v 0.1 2.1 -0.5
v 0.2 2.1 -0.5
v -1.1 2.1 -0.7
v -1 2.1 -0.7
v -0.4 2.1 -0.7
v -0.3 2.1 -0.7
v 0.1 2.1 -0.7
v 0.2 2.1 -0.7
v -1.1 2.2 0
v -1 2.2 0
v -0.4 2.2 0
v -0.3 2.2 0
v 0.1 2.2 0
v 0.2 2.2 0
v -1.1 2.2 -0.5
v -1 2.2 -0.5
v -0.4 2.2 -0.5
v -0.3 2.2 -0.5
v 0.1 2.2 -0.5
v 0.2 2.2 -0.5
v 0.6 0.9 0.3
v 1.3 0.9 0.3
v 0.7 0.9 0.2
v 1.1 0.9 0.2
v 0.7 0.9 -0.1
v 1.1 0.9 -0.1
v 1.2 0.9 -0.1
v 0.7 0.9 -0.4
v 1.1 0.9 -0.4
v 1.2 0.9 -0.4
v 0.7 0.9 -0.7
v 1.1 0.9 -0.7
v 0.6 0.9 -0.8
v 1.3 0.9 -0.8
v -1.1 1 0
v -1 1 0
v -0.4 1 0
v -0.3 1 0
v 0.1 1 0
v 0.2 1 0
v -1.1 1 -0.5
v -1 1 -0.5
v -0.4 1 -0.5
v -0.3 1 -0.5
v 0.1 1 -0.5
v 0.2 1 -0.5
v -1.1 1.1 0.2
v -1 1.1 0.2
v -0.4 1.1 0.2
v -0.3 1.1 0.2
v 0.1 1.1 0.2
v 0.2 1.1 0.2
v -1.1 1.1 0
v -1 1.1 0
v -0.4 1.1 0
v -0.3 1.1 0
v 0.1 1.1 0
v 0.2 1.1 0
v -1.1 1.1 -0.5
v -1 1.1 -0.5
v -0.4 1.1 -0.5
v -0.3 1.1 -0.5
v 0.1 1.1 -0.5
v 0.2 1.1 -0.5
v -1.1 1.1 -0.7
v -1 1.1 -0.7
v -0.4 1.1 -0.7
v -0.3 1.1 -0.7
v 0.1 1.1 -0.7
v 0.2 1.1 -0.7
v -1.1 1.2 0.3
v -1 1.2 0.3
v -0.4 1.2 0.3
v -0.3 1.2 0.3
v 0.1 1.2 0.3
v 0.2 1.2 0.3
v -1.1 1.2 0.2
v -1 1.2 0.2
v -0.4 1.2 0.2
v -0.3 1.2 0.2
v 0.1 1.2 0.2
v 0.2 1.2 0.2
v -1.1 1.2 -0.7
v -1 1.2 -0.7
v -0.4 1.2 -0.7
v -0.3 1.2 -0.7
v 0.1 1.2 -0.7
v 0.2 1.2 -0.7
v -1.1 1.2 -0.8
v -1 1.2 -0.8
v -0.4 1.2 -0.8
v -0.3 1.2 -0.8
v 0.1 1.2 -0.8
v 0.2 1.2 -0.8
v -1.1 1.4 0.4
v -1 1.4 0.4
v -0.4 1.4 0.4
v -0.3 1.4 0.4
v 0.1 1.4 0.4
v 0.2 1.4 0.4
v -1.1 1.4 0.3
v -1 1.4 0.3
v -0.4 1.4 0.3
v -0.3 1.4 0.3
v 0.1 1.4 0.3
v 0.2 1.4 0.3
v -2 1.4 -0.2
v -1.7 1.4 -0.2
v -1.6 1.4 -0.2
v -1.5 1.4 -0.2
v 0.6 1.4 -0.2
v -2 1.4 -0.3
v -1.7 1.4 -0.3
v -1.6 1.4 -0.3
v -1.5 1.4 -0.3
v -1.4 1.4 -0.3
v 0.6 1.4 -0.3
v -1.1 1.4 -0.8
v -1 1.4 -0.8
v -0.4 1.4 -0.8
v -0.3 1.4 -0.8
v 0.1 1.4 -0.8
v 0.2 1.4 -0.8
v -1.1 1.4 -0.9
v -1 1.4 -0.9
v -0.4 1.4 -0.9
v -0.3 1.4 -0.9
v 0.1 1.4 -0.9
v 0.2 1.4 -0.9
v 1.1 1.5 0.2
v 1.2 1.5 0.2
v 1.1 1.5 0.1
v 1.2 1.5 0.1
v -2 1.5 -0.1
v -1.7 1.5 -0.1
v -1.6 1.5 -0.1
v -1.5 1.5 -0.1
v 0.6 1.5 -0.1
v -2 1.5 -0.2
v -1.7 1.5 -0.2
v -1.6 1.5 -0.2
v -1.5 1.5 -0.2
v 0.6 1.5 -0.2
v -2 1.5 -0.3
v -1.7 1.5 -0.3
v -1.6 1.5 -0.3
v -1.5 1.5 -0.3
v -1.4 1.5 -0.3
v 0.6 1.5 -0.3
v -2 1.5 -0.4
v -1.7 1.5 -0.4
v -1.6 1.5 -0.4
v -1.4 1.5 -0.4
v 0.6 1.5 -0.4
v 1.1 1.5 -0.6
v 1.2 1.5 -0.6
v 1.1 1.5 -0.7
v 1.2 1.5 -0.7
v 0.9 1.6 0.3
v 1 1.6 0.3
v 0.9 1.6 0.2
v 1 1.6 0.2
v 1.1 1.6 0.2
v 1 1.6 0.1
v 1.1 1.6 0.1
v -2 1.6 -0.2
v -1.7 1.6 -0.2
v -1.6 1.6 -0.2
v -1.5 1.6 -0.2
v 0.6 1.6 -0.2
v -2 1.6 -0.3
v -1.7 1.6 -0.3
v -1.6 1.6 -0.3
v -1.5 1.6 -0.3
v 0.6 1.6 -0.3
v 1 1.6 -0.6
v 1.1 1.6 -0.6
v 0.9 1.6 -0.7
v 1 1.6 -0.7
v 1.1 1.6 -0.7
v 0.9 1.6 -0.8
v 1 1.6 -0.8
v -1.7 1.7 0.3
v -1.6 1.7 0.3
v 0.6 1.7 0.3
v 0.9 1.7 0.3
v -1.7 1.7 0.2
v -1.6 1.7 0.2
v 0.6 1.7 0.2
v 0.9 1.7 0.2
v 1 1.7 0.2
v 0.9 1.7 0.1
v 1 1.7 0.1
v 1.1 1.7 0.1
v -2 1.7 0
v -1.7 1.7 0
v -1.6 1.7 0
v 0.5 1.7 0
v 0.6 1.7 0
v 1 1.7 0
v 1.1 1.7 0
v -2 1.7 -0.1
v -1.7 1.7 -0.1
v -1.6 1.7 -0.1
v 0.5 1.7 -0.1
v 0.6 1.7 -0.1
v -2 1.7 -0.4
v -1.8 1.7 -0.4
v -1.6 1.7 -0.4
v -1.4 1.7 -0.4
v 0.5 1.7 -0.4
v 0.6 1.7 -0.4
v -2 1.7 -0.5
v -1.8 1.7 -0.5
v -1.6 1.7 -0.5
v -1.4 1.7 -0.5
v 0.5 1.7 -0.5
v 0.6 1.7 -0.5
v 1 1.7 -0.5
v 1.1 1.7 -0.5
v 0.9 1.7 -0.6
v 1 1.7 -0.6
v 1.1 1.7 -0.6
v -1.7 1.7 -0.7
v -1.6 1.7 -0.7
v 0.6 1.7 -0.7
v 0.9 1.7 -0.7
v 1 1.7 -0.7
v -1.7 1.7 -0.8
v -1.6 1.7 -0.8
v 0.6 1.7 -0.8
v 0.9 1.7 -0.8
v -1.1 1.8 0.5
v -1 1.8 0.5
v -0.4 1.8 0.5
v -0.3 1.8 0.5
v 0.1 1.8 0.5
v 0.2 1.8 0.5
v -1.1 1.8 0.4
v -1 1.8 0.4
v -0.4 1.8 0.4
v -0.3 1.8 0.4
v 0.1 1.8 0.4
v 0.2 1.8 0.4
v -1.7 1.8 0.2
v -1.6 1.8 0.2
v 0.6 1.8 0.2
v 0.9 1.8 0.2
v -2 1.8 0.1
v -1.7 1.8 0.1
v -1.6 1.8 0.1
v 0.6 1.8 0.1
v 0.9 1.8 0.1
v 1 1.8 0.1
v -2 1.8 0
v -1.7 1.8 0
v -1.6 1.8 0
v 0.6 1.8 0
v 0.9 1.8 0
v 1 1.8 0
v 1.1 1.8 0
v -2 1.8 -0.1
v -1.7 1.8 -0.1
v -1.6 1.8 -0.1
v 0.6 1.8 -0.1
v 1 1.8 -0.1
v 1.1 1.8 -0.1
v -2 1.8 -0.2
v -1.7 1.8 -0.2
v -1.6 1.8 -0.2
v 0.6 1.8 -0.2
v -2 1.8 -0.3
v -1.7 1.8 -0.3
v -1.6 1.8 -0.3
v 0.6 1.8 -0.3
v -2 1.8 -0.4
v -1.7 1.8 -0.4
v -1.6 1.8 -0.4
v -1.5 1.8 -0.4
v 0.6 1.8 -0.4
v 1 1.8 -0.4
v 1.1 1.8 -0.4
v -2 1.8 -0.5
v -1.7 1.8 -0.5
v -1.6 1.8 -0.5
v -1.5 1.8 -0.5
v -1.4 1.8 -0.5
v 0.6 1.8 -0.5
v 0.9 1.8 -0.5
v 1 1.8 -0.5
v 1.1 1.8 -0.5
v -2 1.8 -0.6
v -1.7 1.8 -0.6
v -1.6 1.8 -0.6
v -1.4 1.8 -0.6
v 0.6 1.8 -0.6
v 0.9 1.8 -0.6
v 1 1.8 -0.6
v -1.7 1.8 -0.7
v -1.6 1.8 -0.7
v 0.6 1.8 -0.7
v 0.9 1.8 -0.7
v -1.1 1.8 -0.9
v -1 1.8 -0.9
v -0.4 1.8 -0.9
v -0.3 1.8 -0.9
v 0.1 1.8 -0.9
v 0.2 1.8 -0.9
v -1.1 1.8 -1
v -1 1.8 -1
v -0.4 1.8 -1
v -0.3 1.8 -1
v 0.1 1.8 -1
v 0.2 1.8 -1
v -1.7 1.9 0.1
v -1.6 1.9 0.1
v 0.6 1.9 0.1
v 0.9 1.9 0.1
v -2 1.9 0
v -1.7 1.9 0
v -1.6 1.9 0
v 0.6 1.9 0
v 0.9 1.9 0
v 1 1.9 0
v -2 1.9 -0.1
v -1.7 1.9 -0.1
v -1.6 1.9 -0.1
v 0.6 1.9 -0.1
v 0.9 1.9 -0.1
v 1 1.9 -0.1
v 1.1 1.9 -0.1
v 1 1.9 -0.2
v 1.1 1.9 -0.2
v 1 1.9 -0.3
v 1.1 1.9 -0.3
v -2 1.9 -0.4
v -1.7 1.9 -0.4
v -1.6 1.9 -0.4
v -1.5 1.9 -0.4
v 0.6 1.9 -0.4
v 0.9 1.9 -0.4
v 1 1.9 -0.4
v 1.1 1.9 -0.4
v -2 1.9 -0.5
v -1.7 1.9 -0.5
v -1.6 1.9 -0.5
v -1.5 1.9 -0.5
v 0.6 1.9 -0.5
v 0.9 1.9 -0.5
v 1 1.9 -0.5
v -1.7 1.9 -0.6
v -1.6 1.9 -0.6
v 0.6 1.9 -0.6
v 0.9 1.9 -0.6
v -1.1 2 0.4
v -1 2 0.4
v -0.4 2 0.4
v -0.3 2 0.4
v 0.1 2 0.4
v 0.2 2 0.4
v -1.1 2 0.3
v -1 2 0.3
v -0.4 2 0.3
v -0.3 2 0.3
v 0.1 2 0.3
v 0.2 2 0.3
v -1.7 2 0
v -1.6 2 0
v 0.6 2 0
v 0.9 2 0
v -1.7 2 -0.1
v -1.6 2 -0.1
v 0.6 2 -0.1
v 0.9 2 -0.1
v 1 2 -0.1
v 0.9 2 -0.2
v 1 2 -0.2
v 1.1 2 -0.2
v 0.9 2 -0.3
v 1 2 -0.3
v 1.1 2 -0.3
v -1.7 2 -0.4
v -1.6 2 -0.4
v 0.6 2 -0.4
v 0.9 2 -0.4
v 1 2 -0.4
v -1.7 2 -0.5
v -1.6 2 -0.5
v 0.6 2 -0.5
v 0.9 2 -0.5
v -1.1 2 -0.8
v -1 2 -0.8
v -0.4 2 -0.8
v -0.3 2 -0.8
v 0.1 2 -0.8
v 0.2 2 -0.8
v -1.1 2 -0.9
v -1 2 -0.9
v -0.4 2 -0.9
v -0.3 2 -0.9
v 0.1 2 -0.9
v 0.2 2 -0.9
v -1.1 2.1 0.3
v -1 2.1 0.3
v -0.4 2.1 0.3
v -0.3 2.1 0.3
v 0.1 2.1 0.3
v 0.2 2.1 0.3
v -1.1 2.1 0.2
v -1 2.1 0.2
v -0.4 2.1 0.2
v -0.3 2.1 0.2
v 0.1 2.1 0.2
v 0.2 2.1 0.2
v 1.1 2.1 0.1
v 1.2 2.1 0.1
v -1.7 2.1 -0.1
v -1.6 2.1 -0.1
v 0.6 2.1 -0.1
v 0.9 2.1 -0.1
v -1.7 2.1 -0.2
v -1.6 2.1 -0.2
v 0.9 2.1 -0.2
v 1 2.1 -0.2
v -1.7 2.1 -0.3
v -1.6 2.1 -0.3
v 0.9 2.1 -0.3
v 1 2.1 -0.3
v -1.7 2.1 -0.4
v -1.6 2.1 -0.4
v 0.6 2.1 -0.4
v 0.9 2.1 -0.4
v 1.1 2.1 -0.6
v 1.2 2.1 -0.6
v -1.1 2.1 -0.7
v -1 2.1 -0.7
v -0.4 2.1 -0.7
v -0.3 2.1 -0.7
v 0.1 2.1 -0.7
v 0.2 2.1 -0.7
v -1.1 2.1 -0.8
v -1 2.1 -0.8
v -0.4 2.1 -0.8
v -0.3 2.1 -0.8
v 0.1 2.1 -0.8
v 0.2 2.1 -0.8
v -1.1 2.2 0.2
v -1 2.2 0.2
v -0.4 2.2 0.2
v -0.3 2.2 0.2
v 0.1 2.2 0.2
v 0.2 2.2 0.2
v -1.1 2.2 0
v -1 2.2 0
v -0.4 2.2 0
v -0.3 2.2 0
v 0.1 2.2 0
v 0.2 2.2 0
v -1.7 2.2 -0.2
v -1.6 2.2 -0.2
v -1.7 2.2 -0.3
v -1.6 2.2 -0.3
v -1.1 2.2 -0.5
v -1 2.2 -0.5
v -0.4 2.2 -0.5
v -0.3 2.2 -0.5
v 0.1 2.2 -0.5
v 0.2 2.2 -0.5
v -1.1 2.2 -0.7
v -1 2.2 -0.7
v -0.4 2.2 -0.7
v -0.3 2.2 -0.7
v 0.1 2.2 -0.7
v 0.2 2.2 -0.7
v -1.1 2.3 0
v -1 2.3 0
v -0.4 2.3 0
v -0.3 2.3 0
v 0.1 2.3 0
v 0.2 2.3 0
v -1.1 2.3 -0.5
v -1 2.3 -0.5
v -0.4 2.3 -0.5
v -0.3 2.3 -0.5
v 0.1 2.3 -0.5
v 0.2 2.3 -0.5

# faces
f 4/4/1 2/4/1 1/4/1
f 5/4/1 2/4/1 4/4/1
f 7/4/1 4/4/1 3/4/1
f 8/4/1 4/4/1 7/4/1
f 9/4/1 6/4/1 5/4/1
f 10/4/1 6/4/1 9/4/1
f 13/4/1 9/4/1 8/4/1
f 14/4/1 9/4/1 13/4/1
f 18/4/1 12/4/1 11/4/1
f 19/4/1 12/4/1 18/4/1
f 22/4/1 16/4/1 15/4/1
f 23/4/1 16/4/1 22/4/1
f 25/4/1 18/4/1 17/4/1
f 26/4/1 18/4/1 25/4/1
f 27/4/1 20/4/1 19/4/1
f 28/4/1 20/4/1 27/4/1
f 29/4/1 22/4/1 21/4/1
f 30/4/1 22/4/1 29/4/1
f 31/4/1 24/4/1 23/4/1
f 32/4/1 24/4/1 31/4/1
f 33/4/1 27/4/1 26/4/1
f 34/4/1 27/4/1 33/4/1
f 35/4/1 31/4/1 30/4/1
f 36/4/1 31/4/1 35/4/1
f 39/4/1 38/4/1 37/4/1
f 40/4/1 38/4/1 39/4/1
f 44/5/1 42/5/1 41/5/1
f 45/5/1 42/5/1 44/5/1
f 48/5/1 44/5/1 43/5/1
f 48/5/1 46/5/1 45/5/1
f 48/5/1 45/5/1 44/5/1
f 49/5/1 46/5/1 48/5/1
f 52/5/1 48/5/1 47/5/1
f 52/5/1 50/5/1 49/5/1
f 52/5/1 49/5/1 48/5/1
f 53/5/1 50/5/1 52/5/1
f 54/5/1 50/5/1 53/5/1
f 55/5/1 50/5/1 54/5/1
f 58/5/1 52/5/1 51/5/1
f 58/5/1 53/5/1 52/5/1
f 59/5/1 53/5/1 58/5/1
f 60/5/1 53/5/1 59/5/1
f 61/5/1 55/5/1 54/5/1
f 61/5/1 56/5/1 55/5/1
f 62/5/1 56/5/1 61/5/1
f 63/5/1 56/5/1 62/5/1
f 66/5/1 59/5/1 58/5/1
f 66/5/1 58/5/1 57/5/1
f 67/5/1 59/5/1 66/5/1
f 68/5/1 61/5/1 60/5/1
f 69/5/1 61/5/1 68/5/1
f 70/5/1 64/5/1 63/5/1
f 70/5/1 63/5/1 62/5/1
f 71/5/1 64/5/1 70/5/1
f 73/5/1 68/5/1 67/5/1
f 73/5/1 67/5/1 66/5/1
f 73/5/1 66/5/1 65/5/1
f 74/5/1 68/5/1 73/5/1
f 75/5/1 68/5/1 74/5/1
f 76/5/1 72/5/1 71/5/1
f 76/5/1 71/5/1 70/5/1
f 76/5/1 70/5/1 69/5/1
f 77/5/1 72/5/1 76/5/1
f 78/5/1 72/5/1 77/5/1
f 79/5/1 73/5/1 65/5/1
f 80/5/1 73/5/1 79/5/1
f 81/5/1 73/5/1 80/5/1
f 82/5/1 73/5/1 81/5/1
f 83/5/1 75/5/1 74/5/1
f 83/5/1 77/5/1 76/5/1
f 83/5/1 76/5/1 75/5/1
f 84/5/1 77/5/1 83/5/1
f 85/5/1 77/5/1 84/5/1
f 86/5/1 77/5/1 85/5/1
f 87/5/1 72/5/1 78/5/1
f 88/5/1 72/5/1 87/5/1
f 89/5/1 72/5/1 88/5/1
f 90/5/1 72/5/1 89/5/1
f 91/5/1 81/5/1 80/5/1
f 92/5/1 81/5/1 91/5/1
f 93/5/1 83/5/1 82/5/1
f 94/5/1 83/5/1 93/5/1
f 95/5/1 85/5/1 84/5/1
f 96/5/1 85/5/1 95/5/1
f 99/5/1 89/5/1 88/5/1
f 100/5/1 89/5/1 99/5/1
f 101/5/1 93/5/1 92/5/1
f 102/5/1 93/5/1 101/5/1
f 103/5/1 97/5/1 96/5/1
f 103/5/1 95/5/1 94/5/1
f 103/5/1 96/5/1 95/5/1
f 104/5/1 97/5/1 103/5/1
f 105/5/1 99/5/1 98/5/1
f 106/5/1 99/5/1 105/5/1
f 107/5/1 104/5/1 103/5/1
f 107/5/1 105/5/1 104/5/1
f 107/5/1 103/5/1 102/5/1
f 108/5/1 105/5/1 107/5/1
f 109/5/1 105/5/1 108/5/1
f 110/5/1 105/5/1 109/5/1
f 111/5/1 109/5/1 108/5/1
f 112/5/1 109/5/1 111/5/1
f 113/5/1 109/5/1 112/5/1
f 114/5/1 109/5/1 113/5/1
f 115/5/1 113/5/1 112/5/1
f 116/5/1 113/5/1 115/5/1
f 120/2/1 118/2/1 117/2/1
f 121/2/1 118/2/1 120/2/1
f 124/2/1 120/2/1 119/2/1
f 125/2/1 120/2/1 124/2/1
f 126/2/1 122/2/1 121/2/1
f 127/2/1 122/2/1 126/2/1
f 130/2/1 124/2/1 123/2/1
f 131/2/1 124/2/1 130/2/1
f 132/2/1 128/2/1 127/2/1
f 133/2/1 128/2/1 132/2/1
f 136/2/1 130/2/1 129/2/1
f 137/2/1 130/2/1 136/2/1
f 138/2/1 134/2/1 133/2/1
f 139/2/1 134/2/1 138/2/1
f 141/2/1 136/2/1 135/2/1
f 142/2/1 136/2/1 141/2/1
f 145/2/1 140/2/1 139/2/1
f 146/2/1 140/2/1 145/2/1
f 147/2/1 143/2/1 142/2/1
f 148/2/1 143/2/1 147/2/1
f 151/2/1 145/2/1 144/2/1
f 152/2/1 145/2/1 151/2/1
f 153/2/1 149/2/1 148/2/1
f 154/2/1 149/2/1 153/2/1
f 157/2/1 151/2/1 150/2/1
f 158/2/1 151/2/1 157/2/1
f 159/2/1 155/2/1 154/2/1
f 160/2/1 155/2/1 159/2/1
f 161/2/1 157/2/1 156/2/1
f 162/2/1 157/2/1 161/2/1
f 163/2/1 161/2/1 160/2/1
f 164/2/1 161/2/1 163/2/1
f 168/2/1 166/2/1 165/2/1
f 169/2/1 166/2/1 168/2/1
f 172/2/1 168/2/1 167/2/1
f 173/2/1 168/2/1 172/2/1
f 174/2/1 170/2/1 169/2/1
f 175/2/1 170/2/1 174/2/1
f 178/2/1 172/2/1 171/2/1
f 179/2/1 172/2/1 178/2/1
f 180/2/1 176/2/1 175/2/1
f 181/2/1 176/2/1 180/2/1
f 184/2/1 178/2/1 177/2/1
f 185/2/1 178/2/1 184/2/1
f 186/2/1 182/2/1 181/2/1
f 187/2/1 182/2/1 186/2/1
f 189/2/1 184/2/1 183/2/1
f 190/2/1 184/2/1 189/2/1
f 193/2/1 188/2/1 187/2/1
f 194/2/1 188/2/1 193/2/1
f 195/2/1 191/2/1 190/2/1
f 196/2/1 191/2/1 195/2/1
f 199/2/1 193/2/1 192/2/1
f 200/2/1 193/2/1 199/2/1
f 201/2/1 197/2/1 196/2/1
f 202/2/1 197/2/1 201/2/1
f 205/2/1 199/2/1 198/2/1
f 206/2/1 199/2/1 205/2/1
f 207/2/1 203/2/1 202/2/1
f 208/2/1 203/2/1 207/2/1
f 209/2/1 205/2/1 204/2/1
f 210/2/1 205/2/1 209/2/1
f 211/2/1 209/2/1 208/2/1
f 212/2/1 209/2/1 211/2/1
f 216/2/1 214/2/1 213/2/1
f 217/2/1 214/2/1 216/2/1
f 220/2/1 216/2/1 215/2/1
f 221/2/1 216/2/1 220/2/1
f 222/2/1 218/2/1 217/2/1
f 223/2/1 218/2/1 222/2/1
f 226/2/1 220/2/1 219/2/1
f 227/2/1 220/2/1 226/2/1
f 228/2/1 224/2/1 223/2/1
f 229/2/1 224/2/1 228/2/1
f 232/2/1 226/2/1 225/2/1
f 233/2/1 226/2/1 232/2/1
f 234/2/1 230/2/1 229/2/1
f 235/2/1 230/2/1 234/2/1
f 237/2/1 232/2/1 231/2/1
f 238/2/1 232/2/1 237/2/1
f 241/2/1 236/2/1 235/2/1
f 242/2/1 236/2/1 241/2/1
f 243/2/1 239/2/1 238/2/1
f 244/2/1 239/2/1 243/2/1
f 247/2/1 241/2/1 240/2/1
f 248/2/1 241/2/1 247/2/1
f 249/2/1 245/2/1 244/2/1
f 250/2/1 245/2/1 249/2/1
f 253/2/1 247/2/1 246/2/1
f 254/2/1 247/2/1 253/2/1
f 255/2/1 251/2/1 250/2/1
f 256/2/1 251/2/1 255/2/1
f 257/2/1 253/2/1 252/2/1
f 258/2/1 253/2/1 257/2/1
f 259/2/1 257/2/1 256/2/1
f 260/2/1 257/2/1 259/2/1
f 263/2/1 262/2/1 261/2/1
f 264/2/1 262/2/1 263/2/1
f 270/5/1 266/5/1 265/5/1
f 271/5/1 266/5/1 270/5/1
f 272/4/1 267/4/1 266/4/1
f 272/5/1 266/5/1 271/5/1
f 273/4/1 267/4/1 272/4/1
f 274/4/1 267/4/1 273/4/1
f 276/4/1 269/4/1 268/4/1
f 277/5/1 270/5/1 269/5/1
f 277/4/1 269/4/1 276/4/1
f 278/4/1 271/4/1 270/4/1
f 278/5/1 272/5/1 271/5/1
f 278/5/1 273/5/1 272/5/1
f 279/5/1 273/5/1 278/5/1
f 281/5/1 277/5/1 276/5/1
f 282/5/1 270/5/1 277/5/1
f 282/5/1 277/5/1 281/5/1
f 283/4/1 278/4/1 270/4/1
f 283/5/1 270/5/1 282/5/1
f 284/4/1 278/4/1 283/4/1
f 285/5/1 273/5/1 279/5/1
f 286/4/1 275/4/1 274/4/1
f 286/4/1 274/4/1 273/4/1
f 286/5/1 273/5/1 285/5/1
f 287/4/1 275/4/1 286/4/1
f 290/5/1 281/5/1 280/5/1
f 290/5/1 282/5/1 281/5/1
f 291/4/1 283/4/1 282/4/1
f 292/4/1 285/4/1 284/4/1
f 293/4/1 285/4/1 292/4/1
f 294/5/1 287/5/1 286/5/1
f 295/4/1 288/4/1 287/4/1
f 297/4/1 291/4/1 282/4/1
f 297/5/1 282/5/1 290/5/1
f 297/4/1 292/4/1 291/4/1
f 298/4/1 292/4/1 297/4/1
f 299/4/1 292/4/1 298/4/1
f 300/5/1 294/5/1 293/5/1
f 301/5/1 287/5/1 294/5/1
f 301/5/1 294/5/1 300/5/1
f 302/5/1 287/5/1 301/5/1
f 303/4/1 290/4/1 289/4/1
f 304/5/1 297/5/1 290/5/1
f 304/4/1 290/4/1 303/4/1
f 305/5/1 297/5/1 304/5/1
f 306/5/1 297/5/1 305/5/1
f 307/4/1 299/4/1 298/4/1
f 307/4/1 300/4/1 299/4/1
f 307/4/1 301/4/1 300/4/1
f 308/4/1 301/4/1 307/4/1
f 309/4/1 301/4/1 308/4/1
f 310/4/1 301/4/1 309/4/1
f 311/5/1 287/5/1 302/5/1
f 312/4/1 296/4/1 295/4/1
f 312/4/1 295/4/1 287/4/1
f 312/5/1 287/5/1 311/5/1
f 313/4/1 296/4/1 312/4/1
f 314/4/1 296/4/1 313/4/1
f 315/4/1 305/4/1 304/4/1
f 316/4/1 305/4/1 315/4/1
f 317/4/1 307/4/1 306/4/1
f 318/4/1 307/4/1 317/4/1
f 319/4/1 309/4/1 308/4/1
f 320/4/1 309/4/1 319/4/1
f 321/4/1 311/4/1 310/4/1
f 322/4/1 311/4/1 321/4/1
f 323/4/1 313/4/1 312/4/1
f 324/4/1 313/4/1 323/4/1
f 325/4/1 317/4/1 316/4/1
f 326/4/1 317/4/1 325/4/1
f 327/4/1 320/4/1 319/4/1
f 327/4/1 321/4/1 320/4/1
f 327/4/1 319/4/1 318/4/1
f 328/4/1 321/4/1 327/4/1
f 329/4/1 323/4/1 322/4/1
f 330/4/1 323/4/1 329/4/1
f 331/4/1 328/4/1 327/4/1
f 331/4/1 329/4/1 328/4/1
f 331/4/1 327/4/1 326/4/1
f 332/4/1 329/4/1 331/4/1
f 333/4/1 329/4/1 332/4/1
f 334/4/1 329/4/1 333/4/1
f 335/4/1 333/4/1 332/4/1
f 336/4/1 333/4/1 335/4/1
f 339/4/1 338/4/1 337/4/1
f 340/4/1 338/4/1 339/4/1
f 343/4/1 342/4/1 341/4/1
f 344/4/1 342/4/1 343/4/1
f 345/4/1 342/4/1 344/4/1
f 348/4/1 347/4/1 346/4/1
f 349/4/1 347/4/1 348/4/1
f 352/4/1 351/4/1 350/4/1
f 353/4/1 351/4/1 352/4/1
f 358/2/1 355/2/1 354/2/1
f 359/2/1 355/2/1 358/2/1
f 360/2/1 357/2/1 356/2/1
f 361/2/1 357/2/1 360/2/1
f 366/1/1 363/1/1 362/1/1
f 369/1/1 365/1/1 364/1/1
f 370/3/1 367/3/1 366/3/1
f 373/3/1 369/3/1 368/3/1
f 374/3/1 371/3/1 370/3/1
f 374/1/1 366/1/1 362/1/1
f 374/3/1 370/3/1 366/3/1
f 375/3/1 371/3/1 374/3/1
f 376/3/1 373/3/1 372/3/1
f 377/3/1 369/3/1 373/3/1
f 377/1/1 365/1/1 369/1/1
f 377/3/1 373/3/1 376/3/1
f 378/1/1 375/1/1 374/1/1
f 378/1/1 376/1/1 375/1/1
f 378/1/1 377/1/1 376/1/1
f 378/1/1 374/1/1 362/1/1
f 379/1/1 365/1/1 377/1/1
f 379/1/1 377/1/1 378/1/1
f 380/5/2 381/5/2 383/5/2
f 383/5/2 381/5/2 384/5/2
f 382/5/2 383/5/2 387/5/2
f 384/5/2 385/5/2 387/5/2
f 383/5/2 384/5/2 387/5/2
f 387/5/2 385/5/2 388/5/2
f 386/5/2 387/5/2 391/5/2
f 388/5/2 389/5/2 391/5/2
f 387/5/2 388/5/2 391/5/2
f 391/5/2 389/5/2 392/5/2
f 392/5/2 389/5/2 393/5/2
f 393/5/2 389/5/2 394/5/2
f 390/5/2 391/5/2 397/5/2
f 391/5/2 392/5/2 397/5/2
f 397/5/2 392/5/2 398/5/2
f 398/5/2 392/5/2 399/5/2
f 393/5/2 394/5/2 400/5/2
f 394/5/2 395/5/2 400/5/2
f 400/5/2 395/5/2 401/5/2
f 401/5/2 395/5/2 402/5/2
f 397/5/2 398/5/2 405/5/2
f 396/5/2 397/5/2 405/5/2
f 405/5/2 398/5/2 406/5/2
f 399/5/2 400/5/2 407/5/2
f 407/5/2 400/5/2 408/5/2
f 402/5/2 403/5/2 409/5/2
f 401/5/2 402/5/2 409/5/2
f 409/5/2 403/5/2 410/5/2
f 406/5/2 407/5/2 412/5/2
f 405/5/2 406/5/2 412/5/2
f 404/5/2 405/5/2 412/5/2
f 412/5/2 407/5/2 413/5/2
f 413/5/2 407/5/2 414/5/2
f 410/5/2 411/5/2 415/5/2
f 409/5/2 410/5/2 415/5/2
f 408/5/2 409/5/2 415/5/2
f 415/5/2 411/5/2 416/5/2
f 416/5/2 411/5/2 417/5/2
f 404/5/2 412/5/2 418/5/2
f 418/5/2 412/5/2 419/5/2
f 419/5/2 412/5/2 420/5/2
f 420/5/2 412/5/2 421/5/2
f 413/5/2 414/5/2 422/5/2
f 415/5/2 416/5/2 422/5/2
f 414/5/2 415/5/2 422/5/2
f 422/5/2 416/5/2 423/5/2
f 423/5/2 416/5/2 424/5/2
f 424/5/2 416/5/2 425/5/2
f 417/5/2 411/5/2 426/5/2
f 426/5/2 411/5/2 427/5/2
f 427/5/2 411/5/2 428/5/2
f 428/5/2 411/5/2 429/5/2
f 419/5/2 420/5/2 430/5/2
f 430/5/2 420/5/2 431/5/2
f 421/5/2 422/5/2 432/5/2
f 432/5/2 422/5/2 433/5/2
f 423/5/2 424/5/2 434/5/2
f 434/5/2 424/5/2 435/5/2
f 425/5/2 426/5/2 436/5/2
f 436/5/2 426/5/2 437/5/2
f 427/5/2 428/5/2 438/5/2
f 438/5/2 428/5/2 439/5/2
f 431/5/2 432/5/2 440/5/2
f 440/5/2 432/5/2 441/5/2
f 434/5/2 435/5/2 442/5/2
f 435/5/2 436/5/2 442/5/2
f 433/5/2 434/5/2 442/5/2
f 442/5/2 436/5/2 443/5/2
f 437/5/2 438/5/2 444/5/2
f 444/5/2 438/5/2 445/5/2
f 442/5/2 443/5/2 446/5/2
f 443/5/2 444/5/2 446/5/2
f 441/5/2 442/5/2 446/5/2
f 446/5/2 444/5/2 447/5/2
f 447/5/2 444/5/2 448/5/2
f 448/5/2 444/5/2 449/5/2
f 447/5/2 448/5/2 450/5/2
f 450/5/2 448/5/2 451/5/2
f 451/5/2 448/5/2 452/5/2
f 452/5/2 448/5/2 453/5/2
f 451/5/2 452/5/2 454/5/2
f 454/5/2 452/5/2 455/5/2
f 456/2/2 457/2/2 459/2/2
f 459/2/2 457/2/2 460/2/2
f 458/2/2 459/2/2 463/2/2
f 463/2/2 459/2/2 464/2/2
f 460/2/2 461/2/2 465/2/2
f 465/2/2 461/2/2 466/2/2
f 462/2/2 463/2/2 469/2/2
f 469/2/2 463/2/2 470/2/2
f 466/2/2 467/2/2 471/2/2
f 471/2/2 467/2/2 472/2/2
f 468/2/2 469/2/2 475/2/2
f 475/2/2 469/2/2 476/2/2
f 472/2/2 473/2/2 477/2/2
f 477/2/2 473/2/2 478/2/2
f 474/2/2 475/2/2 480/2/2
f 480/2/2 475/2/2 481/2/2
f 478/2/2 479/2/2 484/2/2
f 484/2/2 479/2/2 485/2/2
f 481/2/2 482/2/2 486/2/2
f 486/2/2 482/2/2 487/2/2
f 483/2/2 484/2/2 490/2/2
f 490/2/2 484/2/2 491/2/2
f 487/2/2 488/2/2 492/2/2
f 492/2/2 488/2/2 493/2/2
f 489/2/2 490/2/2 496/2/2
f 496/2/2 490/2/2 497/2/2
f 493/2/2 494/2/2 498/2/2
f 498/2/2 494/2/2 499/2/2
f 495/2/2 496/2/2 500/2/2
f 500/2/2 496/2/2 501/2/2
f 499/2/2 500/2/2 502/2/2
f 502/2/2 500/2/2 503/2/2
f 504/2/2 505/2/2 507/2/2
f 507/2/2 505/2/2 508/2/2
f 506/2/2 507/2/2 511/2/2
f 511/2/2 507/2/2 512/2/2
f 508/2/2 509/2/2 513/2/2
f 513/2/2 509/2/2 514/2/2
f 510/2/2 511/2/2 517/2/2
f 517/2/2 511/2/2 518/2/2
f 514/2/2 515/2/2 519/2/2
f 519/2/2 515/2/2 520/2/2
f 516/2/2 517/2/2 523/2/2
f 523/2/2 517/2/2 524/2/2
f 520/2/2 521/2/2 525/2/2
f 525/2/2 521/2/2 526/2/2
f 522/2/2 523/2/2 528/2/2
f 528/2/2 523/2/2 529/2/2
f 526/2/2 527/2/2 532/2/2
f 532/2/2 527/2/2 533/2/2
f 529/2/2 530/2/2 534/2/2
f 534/2/2 530/2/2 535/2/2
f 531/2/2 532/2/2 538/2/2
f 538/2/2 532/2/2 539/2/2
f 535/2/2 536/2/2 540/2/2
f 540/2/2 536/2/2 541/2/2
f 537/2/2 538/2/2 544/2/2
f 544/2/2 538/2/2 545/2/2
f 541/2/2 542/2/2 546/2/2
f 546/2/2 542/2/2 547/2/2
f 543/2/2 544/2/2 548/2/2
f 548/2/2 544/2/2 549/2/2
f 547/2/2 548/2/2 550/2/2
f 550/2/2 548/2/2 551/2/2
f 552/2/2 553/2/2 555/2/2
f 555/2/2 553/2/2 556/2/2
f 554/2/2 555/2/2 559/2/2
f 559/2/2 555/2/2 560/2/2
f 556/2/2 557/2/2 561/2/2
f 561/2/2 557/2/2 562/2/2
f 558/2/2 559/2/2 565/2/2
f 565/2/2 559/2/2 566/2/2
f 562/2/2 563/2/2 567/2/2
f 567/2/2 563/2/2 568/2/2
f 564/2/2 565/2/2 571/2/2
f 571/2/2 565/2/2 572/2/2
f 568/2/2 569/2/2 573/2/2
f 573/2/2 569/2/2 574/2/2
f 570/2/2 571/2/2 576/2/2
f 576/2/2 571/2/2 577/2/2
f 574/2/2 575/2/2 580/2/2
f 580/2/2 575/2/2 581/2/2
f 577/2/2 578/2/2 582/2/2
f 582/2/2 578/2/2 583/2/2
f 579/2/2 580/2/2 586/2/2
f 586/2/2 580/2/2 587/2/2
f 583/2/2 584/2/2 588/2/2
f 588/2/2 584/2/2 589/2/2
f 585/2/2 586/2/2 592/2/2
f 592/2/2 586/2/2 593/2/2
f 589/2/2 590/2/2 594/2/2
f 594/2/2 590/2/2 595/2/2
f 591/2/2 592/2/2 596/2/2
f 596/2/2 592/2/2 597/2/2
f 595/2/2 596/2/2 598/2/2
f 598/2/2 596/2/2 599/2/2
f 600/2/2 601/2/2 604/2/2
f 604/2/2 601/2/2 605/2/2
f 602/2/2 603/2/2 606/2/2
f 606/2/2 603/2/2 607/2/2
f 608/4/2 609/4/2 612/4/2
f 612/4/2 609/4/2 613/4/2
f 610/4/2 611/4/2 616/4/2
f 616/4/2 611/4/2 617/4/2
f 613/4/2 614/4/2 618/4/2
f 618/4/2 614/4/2 619/4/2
f 615/4/2 616/4/2 622/4/2
f 622/4/2 616/4/2 623/4/2
f 619/4/2 620/4/2 624/4/2
f 624/4/2 620/4/2 625/4/2
f 621/4/2 622/4/2 628/4/2
f 628/4/2 622/4/2 629/4/2
f 625/4/2 626/4/2 630/4/2
f 630/4/2 626/4/2 631/4/2
f 627/4/2 628/4/2 634/4/2
f 634/4/2 628/4/2 635/4/2
f 631/4/2 632/4/2 636/4/2
f 636/4/2 632/4/2 637/4/2
f 633/4/2 634/4/2 638/4/2
f 638/4/2 634/4/2 639/4/2
f 640/4/2 641/4/2 644/4/2
f 644/4/2 641/4/2 645/4/2
f 642/4/2 643/4/2 648/4/2
f 648/4/2 643/4/2 649/4/2
f 645/4/2 646/4/2 650/4/2
f 650/4/2 646/4/2 651/4/2
f 647/4/2 648/4/2 654/4/2
f 654/4/2 648/4/2 655/4/2
f 651/4/2 652/4/2 656/4/2
f 656/4/2 652/4/2 657/4/2
f 653/4/2 654/4/2 660/4/2
f 660/4/2 654/4/2 661/4/2
f 657/4/2 658/4/2 662/4/2
f 662/4/2 658/4/2 663/4/2
f 659/4/2 660/4/2 666/4/2
f 666/4/2 660/4/2 667/4/2
f 663/4/2 664/4/2 668/4/2
f 668/4/2 664/4/2 669/4/2
f 665/4/2 666/4/2 670/4/2
f 670/4/2 666/4/2 671/4/2
f 669/4/2 670/4/2 672/4/2
f 672/4/2 670/4/2 673/4/2
f 674/4/2 675/4/2 676/4/2
f 676/4/2 675/4/2 677/4/2
f 678/4/2 679/4/2 682/4/2
f 682/4/2 679/4/2 683/4/2
f 680/4/2 681/4/2 684/4/2
f 684/4/2 681/4/2 685/4/2
f 686/4/2 687/4/2 688/4/2
f 688/4/2 687/4/2 689/4/2
f 690/4/2 691/4/2 693/4/2
f 693/4/2 691/4/2 694/4/2
f 693/4/2 694/4/2 697/4/2
f 694/4/2 695/4/2 697/4/2
f 692/4/2 693/4/2 697/4/2
f 697/4/2 695/4/2 698/4/2
f 696/4/2 697/4/2 701/4/2
f 698/4/2 699/4/2 701/4/2
f 697/4/2 698/4/2 701/4/2
f 701/4/2 699/4/2 702/4/2
f 700/4/2 701/4/2 704/4/2
f 702/4/2 703/4/2 704/4/2
f 701/4/2 702/4/2 704/4/2
f 704/4/2 703/4/2 705/4/2
f 705/4/2 703/4/2 706/4/2
f 706/4/2 703/4/2 707/4/2
f 707/4/2 703/4/2 708/4/2
f 708/4/2 703/4/2 709/4/2
f 705/1/2 706/1/2 710/1/2
f 706/3/2 707/3/2 710/3/2
f 707/1/2 708/1/2 711/1/2
f 710/3/2 707/3/2 711/3/2
f 705/1/2 710/1/2 712/1/2
f 710/1/2 711/1/2 712/1/2
f 711/1/2 708/1/2 713/1/2
f 712/1/2 711/1/2 713/1/2
f 714/2/2 715/2/2 716/2/2
f 716/2/2 715/2/2 717/2/2
f 720/2/3 719/2/3 718/2/3
f 721/2/3 719/2/3 720/2/3
f 724/2/3 723/2/3 722/2/3
f 725/2/3 723/2/3 724/2/3
f 728/2/3 727/2/3 726/2/3
f 729/2/3 727/2/3 728/2/3
f 734/2/3 731/2/3 730/2/3
f 735/2/3 731/2/3 734/2/3
f 736/2/3 733/2/3 732/2/3
f 737/2/3 733/2/3 736/2/3
f 742/2/3 739/2/3 738/2/3
f 743/2/3 739/2/3 742/2/3
f 744/2/3 741/2/3 740/2/3
f 745/2/3 741/2/3 744/2/3
f 750/2/3 747/2/3 746/2/3
f 751/2/3 747/2/3 750/2/3
f 752/2/3 749/2/3 748/2/3
f 753/2/3 749/2/3 752/2/3
f 756/5/3 755/5/3 754/5/3
f 757/5/3 755/5/3 756/5/3
f 762/2/3 759/2/3 758/2/3
f 763/2/3 759/2/3 762/2/3
f 764/2/3 761/2/3 760/2/3
f 765/2/3 761/2/3 764/2/3
f 770/2/3 767/2/3 766/2/3
f 771/2/3 767/2/3 770/2/3
f 772/2/3 769/2/3 768/2/3
f 773/2/3 769/2/3 772/2/3
f 778/2/3 775/2/3 774/2/3
f 779/2/3 775/2/3 778/2/3
f 780/2/3 777/2/3 776/2/3
f 781/2/3 777/2/3 780/2/3
f 786/4/3 785/4/3 784/4/3
f 787/4/3 785/4/3 786/4/3
f 788/4/3 786/4/3 784/4/3
f 789/4/3 786/4/3 788/4/3
f 790/2/3 783/2/3 782/2/3
f 791/2/3 783/2/3 790/2/3
f 796/5/3 793/5/3 792/5/3
f 797/5/3 793/5/3 796/5/3
f 798/5/3 795/5/3 794/5/3
f 799/5/3 795/5/3 798/5/3
f 804/2/3 801/2/3 800/2/3
f 805/2/3 801/2/3 804/2/3
f 806/2/3 803/2/3 802/2/3
f 807/2/3 803/2/3 806/2/3
f 812/2/3 809/2/3 808/2/3
f 813/2/3 809/2/3 812/2/3
f 814/2/3 811/2/3 810/2/3
f 815/2/3 811/2/3 814/2/3
f 820/2/3 817/2/3 816/2/3
f 821/2/3 817/2/3 820/2/3
f 822/2/3 819/2/3 818/2/3
f 823/2/3 819/2/3 822/2/3
f 828/5/3 825/5/3 824/5/3
f 829/5/3 825/5/3 828/5/3
f 831/4/3 827/4/3 826/4/3
f 832/4/3 827/4/3 831/4/3
f 833/4/3 829/4/3 828/4/3
f 834/4/3 831/4/3 830/4/3
f 835/4/3 831/4/3 834/4/3
f 836/4/3 833/4/3 828/4/3
f 836/4/3 834/4/3 833/4/3
f 837/4/3 834/4/3 836/4/3
f 838/4/3 836/4/3 828/4/3
f 839/4/3 836/4/3 838/4/3
f 844/4/3 841/4/3 840/4/3
f 845/4/3 841/4/3 844/4/3
f 847/5/3 843/5/3 842/5/3
f 848/5/3 843/5/3 847/5/3
f 850/5/3 846/5/3 845/5/3
f 851/5/3 846/5/3 850/5/3
f 855/4/3 850/4/3 849/4/3
f 856/4/3 850/4/3 855/4/3
f 858/5/3 854/5/3 853/5/3
f 858/4/3 853/4/3 852/4/3
f 859/5/3 854/5/3 858/5/3
f 861/4/3 857/4/3 856/4/3
f 862/4/3 857/4/3 861/4/3
f 864/4/3 861/4/3 860/4/3
f 865/4/3 861/4/3 864/4/3
f 867/4/3 864/4/3 863/4/3
f 868/4/3 864/4/3 867/4/3
f 870/4/3 859/4/3 858/4/3
f 870/4/3 858/4/3 852/4/3
f 871/4/3 859/4/3 870/4/3
f 872/1/3 868/1/3 867/1/3
f 872/1/3 869/1/3 868/1/3
f 872/1/3 867/1/3 866/1/3
f 873/1/3 869/1/3 872/1/3
f 880/4/3 875/4/3 874/4/3
f 881/4/3 875/4/3 880/4/3
f 882/4/3 877/4/3 876/4/3
f 883/4/3 877/4/3 882/4/3
f 885/5/3 879/5/3 878/5/3
f 886/5/3 879/5/3 885/5/3
f 890/5/3 884/5/3 883/5/3
f 891/5/3 884/5/3 890/5/3
f 896/2/3 893/2/3 892/2/3
f 897/2/3 893/2/3 896/2/3
f 898/2/3 895/2/3 894/2/3
f 899/2/3 895/2/3 898/2/3
f 904/2/3 901/2/3 900/2/3
f 905/2/3 901/2/3 904/2/3
f 906/2/3 903/2/3 902/2/3
f 907/2/3 903/2/3 906/2/3
f 912/2/3 909/2/3 908/2/3
f 913/2/3 909/2/3 912/2/3
f 914/2/3 911/2/3 910/2/3
f 915/2/3 911/2/3 914/2/3
f 916/4/3 888/4/3 887/4/3
f 917/4/3 888/4/3 916/4/3
f 918/5/3 917/5/3 916/5/3
f 919/5/3 917/5/3 918/5/3
f 920/4/3 890/4/3 889/4/3
f 921/4/3 890/4/3 920/4/3
f 926/4/3 922/4/3 921/4/3
f 927/4/3 922/4/3 926/4/3
f 929/4/3 926/4/3 925/4/3
f 930/4/3 926/4/3 929/4/3
f 931/4/3 929/4/3 928/4/3
f 932/4/3 929/4/3 931/4/3
f 933/4/3 924/4/3 923/4/3
f 934/4/3 924/4/3 933/4/3
f 941/4/3 936/4/3 935/4/3
f 942/4/3 936/4/3 941/4/3
f 943/4/3 938/4/3 937/4/3
f 944/4/3 938/4/3 943/4/3
f 947/5/3 940/5/3 939/5/3
f 948/5/3 940/5/3 947/5/3
f 953/5/3 946/5/3 945/5/3
f 954/5/3 946/5/3 953/5/3
f 955/5/3 950/5/3 949/5/3
f 956/5/3 950/5/3 955/5/3
f 957/4/3 952/4/3 951/4/3
f 960/4/3 956/4/3 955/4/3
f 961/4/3 956/4/3 960/4/3
f 962/4/3 952/4/3 957/4/3
f 963/4/3 952/4/3 962/4/3
f 969/5/3 959/5/3 958/5/3
f 970/5/3 959/5/3 969/5/3
f 972/4/3 968/4/3 967/4/3
f 972/4/3 967/4/3 966/4/3
f 972/4/3 970/4/3 969/4/3
f 972/4/3 969/4/3 968/4/3
f 973/4/3 970/4/3 972/4/3
f 974/4/3 970/4/3 973/4/3
f 976/4/3 965/4/3 964/4/3
f 977/4/3 965/4/3 976/4/3
f 979/4/3 976/4/3 975/4/3
f 980/4/3 976/4/3 979/4/3
f 981/4/3 973/4/3 972/4/3
f 981/4/3 972/4/3 971/4/3
f 982/4/3 973/4/3 981/4/3
f 983/4/3 973/4/3 982/4/3
f 984/4/3 973/4/3 983/4/3
f 985/4/3 979/4/3 978/4/3
f 986/4/3 979/4/3 985/4/3
f 987/4/3 983/4/3 982/4/3
f 988/4/3 983/4/3 987/4/3
f 989/4/3 973/4/3 984/4/3
f 990/4/3 973/4/3 989/4/3
f 997/4/3 992/4/3 991/4/3
f 998/4/3 992/4/3 997/4/3
f 999/4/3 994/4/3 993/4/3
f 1000/4/3 994/4/3 999/4/3
f 1003/5/3 996/5/3 995/5/3
f 1004/5/3 996/5/3 1003/5/3
f 1009/5/3 1002/5/3 1001/5/3
f 1010/5/3 1002/5/3 1009/5/3
f 1011/5/3 1006/5/3 1005/5/3
f 1012/5/3 1006/5/3 1011/5/3
f 1013/5/3 1008/5/3 1007/5/3
f 1014/5/3 1008/5/3 1013/5/3
f 1015/4/3 1012/4/3 1011/4/3
f 1016/4/3 1012/4/3 1015/4/3
f 1017/4/3 1014/4/3 1013/4/3
f 1018/4/3 1014/4/3 1017/4/3
f 1022/4/3 1020/4/3 1019/4/3
f 1023/4/3 1020/4/3 1022/4/3
f 1024/4/3 1022/4/3 1021/4/3
f 1025/4/3 1022/4/3 1024/4/3
f 1030/4/3 1027/4/3 1026/4/3
f 1031/4/3 1027/4/3 1030/4/3
f 1032/4/3 1029/4/3 1028/4/3
f 1033/4/3 1029/4/3 1032/4/3
f 1038/5/3 1035/5/3 1034/5/3
f 1039/5/3 1035/5/3 1038/5/3
f 1040/5/3 1039/5/3 1038/5/3
f 1041/5/3 1039/5/3 1040/5/3
f 1042/4/3 1041/4/3 1040/4/3
f 1043/4/3 1041/4/3 1042/4/3
f 1044/4/3 1037/4/3 1036/4/3
f 1045/4/3 1037/4/3 1044/4/3
f 1050/4/3 1047/4/3 1046/4/3
f 1051/4/3 1047/4/3 1050/4/3
f 1052/4/3 1049/4/3 1048/4/3
f 1053/4/3 1049/4/3 1052/4/3
f 1058/5/3 1057/5/3 1056/5/3
f 1059/5/3 1057/5/3 1058/5/3
f 1060/5/3 1055/5/3 1054/5/3
f 1061/5/3 1055/5/3 1060/5/3
f 1062/4/3 1061/4/3 1060/4/3
f 1063/4/3 1061/4/3 1062/4/3
f 1064/5/3 1063/5/3 1062/5/3
f 1065/5/3 1063/5/3 1064/5/3
f 1066/4/3 1059/4/3 1058/4/3
f 1067/4/3 1059/4/3 1066/4/3
f 1070/4/3 1069/4/3 1068/4/3
f 1071/4/3 1069/4/3 1070/4/3
f 1074/5/3 1073/5/3 1072/5/3
f 1075/5/3 1074/5/3 1072/5/3
f 1076/5/3 1074/5/3 1075/5/3
f 1081/2/3 1078/2/3 1077/2/3
f 1082/2/3 1078/2/3 1081/2/3
f 1083/2/3 1080/2/3 1079/2/3
f 1084/2/3 1080/2/3 1083/2/3
f 1089/2/3 1086/2/3 1085/2/3
f 1090/2/3 1086/2/3 1089/2/3
f 1091/2/3 1088/2/3 1087/2/3
f 1092/2/3 1088/2/3 1091/2/3
f 1097/2/3 1094/2/3 1093/2/3
f 1098/2/3 1094/2/3 1097/2/3
f 1099/2/3 1096/2/3 1095/2/3
f 1100/2/3 1096/2/3 1099/2/3
f 1101/4/3 1076/4/3 1075/4/3
f 1102/4/3 1076/4/3 1101/4/3
f 1103/4/3 1076/4/3 1102/4/3
f 1108/2/3 1105/2/3 1104/2/3
f 1109/2/3 1105/2/3 1108/2/3
f 1110/2/3 1107/2/3 1106/2/3
f 1111/2/3 1107/2/3 1110/2/3
f 1116/2/3 1113/2/3 1112/2/3
f 1117/2/3 1113/2/3 1116/2/3
f 1118/2/3 1115/2/3 1114/2/3
f 1119/2/3 1115/2/3 1118/2/3
f 1124/2/3 1121/2/3 1120/2/3
f 1125/2/3 1121/2/3 1124/2/3
f 1126/2/3 1123/2/3 1122/2/3
f 1127/2/3 1123/2/3 1126/2/3
f 1130/2/3 1129/2/3 1128/2/3
f 1131/2/3 1129/2/3 1130/2/3
f 1136/2/3 1133/2/3 1132/2/3
f 1137/2/3 1133/2/3 1136/2/3
f 1138/2/3 1135/2/3 1134/2/3
f 1139/2/3 1135/2/3 1138/2/3
f 1144/2/3 1141/2/3 1140/2/3
f 1145/2/3 1141/2/3 1144/2/3
f 1146/2/3 1143/2/3 1142/2/3
f 1147/2/3 1143/2/3 1146/2/3
f 1152/2/3 1149/2/3 1148/2/3
f 1153/2/3 1149/2/3 1152/2/3
f 1154/2/3 1151/2/3 1150/2/3
f 1155/2/3 1151/2/3 1154/2/3
f 1158/2/3 1157/2/3 1156/2/3
f 1159/2/3 1157/2/3 1158/2/3
f 1162/2/3 1161/2/3 1160/2/3
f 1163/2/3 1161/2/3 1162/2/3
f 1166/2/3 1165/2/3 1164/2/3
f 1167/2/3 1165/2/3 1166/2/3
f 1168/2/4 1169/2/4 1170/2/4
f 1170/2/4 1169/2/4 1171/2/4
f 1172/2/4 1173/2/4 1174/2/4
f 1174/2/4 1173/2/4 1175/2/4
f 1176/2/4 1177/2/4 1178/2/4
f 1178/2/4 1177/2/4 1179/2/4
f 1180/2/4 1181/2/4 1184/2/4
f 1184/2/4 1181/2/4 1185/2/4
f 1182/2/4 1183/2/4 1186/2/4
f 1186/2/4 1183/2/4 1187/2/4
f 1188/2/4 1189/2/4 1192/2/4
f 1192/2/4 1189/2/4 1193/2/4
f 1190/2/4 1191/2/4 1194/2/4
f 1194/2/4 1191/2/4 1195/2/4
f 1196/2/4 1197/2/4 1200/2/4
f 1200/2/4 1197/2/4 1201/2/4
f 1198/2/4 1199/2/4 1202/2/4
f 1202/2/4 1199/2/4 1203/2/4
f 1204/2/4 1205/2/4 1208/2/4
f 1208/2/4 1205/2/4 1209/2/4
f 1206/2/4 1207/2/4 1210/2/4
f 1210/2/4 1207/2/4 1211/2/4
f 1212/2/4 1213/2/4 1216/2/4
f 1216/2/4 1213/2/4 1217/2/4
f 1214/2/4 1215/2/4 1218/2/4
f 1218/2/4 1215/2/4 1219/2/4
f 1220/2/4 1221/2/4 1224/2/4
f 1224/2/4 1221/2/4 1225/2/4
f 1222/2/4 1223/2/4 1226/2/4
f 1226/2/4 1223/2/4 1227/2/4
f 1228/2/4 1229/2/4 1230/2/4
f 1230/2/4 1229/2/4 1231/2/4
f 1232/4/4 1233/4/4 1234/4/4
f 1234/4/4 1233/4/4 1235/4/4
f 1238/2/4 1239/2/4 1242/2/4
f 1242/2/4 1239/2/4 1243/2/4
f 1240/2/4 1241/2/4 1244/2/4
f 1244/2/4 1241/2/4 1245/2/4
f 1246/2/4 1247/2/4 1250/2/4
f 1250/2/4 1247/2/4 1251/2/4
f 1248/2/4 1249/2/4 1252/2/4
f 1252/2/4 1249/2/4 1253/2/4
f 1254/2/4 1255/2/4 1258/2/4
f 1258/2/4 1255/2/4 1259/2/4
f 1256/2/4 1257/2/4 1260/2/4
f 1260/2/4 1257/2/4 1261/2/4
f 1236/4/4 1237/4/4 1262/4/4
f 1262/4/4 1237/4/4 1263/4/4
f 1263/4/4 1237/4/4 1264/4/4
f 1265/4/4 1266/4/4 1269/4/4
f 1269/4/4 1266/4/4 1270/4/4
f 1267/4/4 1268/4/4 1271/4/4
f 1271/4/4 1268/4/4 1272/4/4
f 1273/4/4 1274/4/4 1277/4/4
f 1277/4/4 1274/4/4 1278/4/4
f 1277/5/4 1278/5/4 1279/5/4
f 1279/5/4 1278/5/4 1280/5/4
f 1275/4/4 1276/4/4 1281/4/4
f 1281/4/4 1276/4/4 1282/4/4
f 1283/4/4 1284/4/4 1287/4/4
f 1287/4/4 1284/4/4 1288/4/4
f 1285/4/4 1286/4/4 1289/4/4
f 1289/4/4 1286/4/4 1290/4/4
f 1291/5/4 1292/5/4 1295/5/4
f 1295/5/4 1292/5/4 1296/5/4
f 1295/4/4 1296/4/4 1297/4/4
f 1297/4/4 1296/4/4 1298/4/4
f 1293/4/4 1294/4/4 1299/4/4
f 1299/4/4 1294/4/4 1300/4/4
f 1301/4/4 1302/4/4 1307/4/4
f 1307/4/4 1302/4/4 1308/4/4
f 1303/4/4 1304/4/4 1309/4/4
f 1309/4/4 1304/4/4 1310/4/4
f 1305/5/4 1306/5/4 1313/5/4
f 1313/5/4 1306/5/4 1314/5/4
f 1311/5/4 1312/5/4 1319/5/4
f 1319/5/4 1312/5/4 1320/5/4
f 1315/5/4 1316/5/4 1321/5/4
f 1321/5/4 1316/5/4 1322/5/4
f 1317/5/4 1318/5/4 1323/5/4
f 1323/5/4 1318/5/4 1324/5/4
f 1321/4/4 1322/4/4 1325/4/4
f 1323/4/4 1324/4/4 1326/4/4
f 1321/4/4 1325/4/4 1327/4/4
f 1327/4/4 1325/4/4 1328/4/4
f 1326/4/4 1324/4/4 1329/4/4
f 1329/4/4 1324/4/4 1330/4/4
f 1331/4/4 1332/4/4 1334/4/4
f 1334/4/4 1332/4/4 1335/4/4
f 1333/4/4 1334/4/4 1336/4/4
f 1336/4/4 1334/4/4 1337/4/4
f 1340/4/4 1341/4/4 1342/4/4
f 1342/4/4 1341/4/4 1343/4/4
f 1338/4/4 1339/4/4 1346/4/4
f 1346/4/4 1339/4/4 1347/4/4
f 1344/5/4 1345/5/4 1350/5/4
f 1350/5/4 1345/5/4 1351/5/4
f 1348/5/4 1349/5/4 1356/5/4
f 1356/5/4 1349/5/4 1357/5/4
f 1354/4/4 1355/4/4 1358/4/4
f 1352/5/4 1353/5/4 1359/5/4
f 1359/5/4 1353/5/4 1360/5/4
f 1354/4/4 1358/4/4 1361/4/4
f 1361/4/4 1358/4/4 1362/4/4
f 1359/4/4 1360/4/4 1363/4/4
f 1363/4/4 1360/4/4 1364/4/4
f 1362/4/4 1358/4/4 1365/4/4
f 1365/4/4 1358/4/4 1366/4/4
f 1369/4/4 1370/4/4 1374/4/4
f 1371/4/4 1372/4/4 1374/4/4
f 1370/4/4 1371/4/4 1374/4/4
f 1367/4/4 1368/4/4 1376/4/4
f 1376/4/4 1368/4/4 1377/4/4
f 1375/4/4 1376/4/4 1379/4/4
f 1379/4/4 1376/4/4 1380/4/4
f 1373/4/4 1374/4/4 1381/4/4
f 1374/4/4 1372/4/4 1382/4/4
f 1381/4/4 1374/4/4 1382/4/4
f 1382/4/4 1372/4/4 1383/4/4
f 1383/4/4 1372/4/4 1384/4/4
f 1378/4/4 1379/4/4 1385/4/4
f 1385/4/4 1379/4/4 1386/4/4
f 1382/4/4 1383/4/4 1387/4/4
f 1387/4/4 1383/4/4 1388/4/4
f 1384/4/4 1372/4/4 1389/4/4
f 1389/4/4 1372/4/4 1390/4/4
f 1391/4/4 1392/4/4 1397/4/4
f 1397/4/4 1392/4/4 1398/4/4
f 1393/4/4 1394/4/4 1399/4/4
f 1399/4/4 1394/4/4 1400/4/4
f 1395/5/4 1396/5/4 1402/5/4
f 1402/5/4 1396/5/4 1403/5/4
f 1400/5/4 1401/5/4 1407/5/4
f 1407/5/4 1401/5/4 1408/5/4
f 1406/5/4 1407/5/4 1409/5/4
f 1409/5/4 1407/5/4 1410/5/4
f 1404/5/4 1405/5/4 1411/5/4
f 1411/5/4 1405/5/4 1412/5/4
f 1409/4/4 1410/4/4 1413/4/4
f 1414/2/4 1415/2/4 1418/2/4
f 1418/2/4 1415/2/4 1419/2/4
f 1416/2/4 1417/2/4 1420/2/4
f 1420/2/4 1417/2/4 1421/2/4
f 1422/2/4 1423/2/4 1426/2/4
f 1426/2/4 1423/2/4 1427/2/4
f 1424/2/4 1425/2/4 1428/2/4
f 1428/2/4 1425/2/4 1429/2/4
f 1430/2/4 1431/2/4 1434/2/4
f 1434/2/4 1431/2/4 1435/2/4
f 1432/2/4 1433/2/4 1436/2/4
f 1436/2/4 1433/2/4 1437/2/4
f 1411/4/4 1412/4/4 1438/4/4
f 1438/4/4 1412/4/4 1439/4/4
f 1438/5/4 1439/5/4 1442/5/4
f 1442/5/4 1439/5/4 1443/5/4
f 1413/4/4 1410/4/4 1444/4/4
f 1444/4/4 1410/4/4 1445/4/4
f 1445/4/4 1446/4/4 1448/4/4
f 1448/4/4 1446/4/4 1449/4/4
f 1447/4/4 1448/4/4 1451/4/4
f 1451/4/4 1448/4/4 1452/4/4
f 1450/4/4 1451/4/4 1453/4/4
f 1453/4/4 1451/4/4 1454/4/4
f 1440/4/4 1441/4/4 1455/4/4
f 1455/4/4 1441/4/4 1456/4/4
f 1457/4/4 1458/4/4 1461/4/4
f 1461/4/4 1458/4/4 1462/4/4
f 1459/5/4 1460/5/4 1464/5/4
f 1464/5/4 1460/5/4 1465/5/4
f 1462/5/4 1463/5/4 1467/5/4
f 1467/5/4 1463/5/4 1468/5/4
f 1466/5/4 1467/5/4 1469/5/4
f 1469/5/4 1467/5/4 1470/5/4
f 1469/4/4 1470/4/4 1473/4/4
f 1473/4/4 1470/4/4 1474/4/4
f 1474/4/4 1475/4/4 1477/4/4
f 1477/4/4 1475/4/4 1478/4/4
f 1476/4/4 1477/4/4 1480/4/4
f 1480/4/4 1477/4/4 1481/4/4
f 1479/4/4 1480/4/4 1483/4/4
f 1483/4/4 1480/4/4 1484/4/4
f 1471/4/4 1472/4/4 1486/4/4
f 1486/4/4 1472/4/4 1487/4/4
f 1483/1/4 1484/1/4 1488/1/4
f 1484/1/4 1485/1/4 1488/1/4
f 1482/1/4 1483/1/4 1488/1/4
f 1488/1/4 1485/1/4 1489/1/4
f 1490/5/4 1491/5/4 1494/5/4
f 1494/5/4 1491/5/4 1495/5/4
f 1492/5/4 1493/5/4 1496/5/4
f 1496/5/4 1493/5/4 1497/5/4
f 1498/2/4 1499/2/4 1502/2/4
f 1502/2/4 1499/2/4 1503/2/4
f 1500/2/4 1501/2/4 1504/2/4
f 1504/2/4 1501/2/4 1505/2/4
f 1506/2/4 1507/2/4 1510/2/4
f 1510/2/4 1507/2/4 1511/2/4
f 1508/2/4 1509/2/4 1512/2/4
f 1512/2/4 1509/2/4 1513/2/4
f 1514/2/4 1515/2/4 1518/2/4
f 1518/2/4 1515/2/4 1519/2/4
f 1516/2/4 1517/2/4 1520/2/4
f 1520/2/4 1517/2/4 1521/2/4
f 1524/4/4 1525/4/4 1527/4/4
f 1527/4/4 1525/4/4 1528/4/4
f 1522/4/4 1523/4/4 1529/4/4
f 1526/4/4 1527/4/4 1530/4/4
f 1530/4/4 1527/4/4 1531/4/4
f 1522/4/4 1529/4/4 1532/4/4
f 1529/4/4 1530/4/4 1532/4/4
f 1532/4/4 1530/4/4 1533/4/4
f 1522/4/4 1532/4/4 1534/4/4
f 1534/4/4 1532/4/4 1535/4/4
f 1536/5/4 1537/5/4 1538/5/4
f 1538/5/4 1537/5/4 1539/5/4
f 1540/2/4 1541/2/4 1544/2/4
f 1544/2/4 1541/2/4 1545/2/4
f 1542/2/4 1543/2/4 1546/2/4
f 1546/2/4 1543/2/4 1547/2/4
f 1548/2/4 1549/2/4 1552/2/4
f 1552/2/4 1549/2/4 1553/2/4
f 1550/2/4 1551/2/4 1554/2/4
f 1554/2/4 1551/2/4 1555/2/4
f 1556/2/4 1557/2/4 1560/2/4
f 1560/2/4 1557/2/4 1561/2/4
f 1558/2/4 1559/2/4 1562/2/4
f 1562/2/4 1559/2/4 1563/2/4
f 1566/4/4 1567/4/4 1568/4/4
f 1568/4/4 1567/4/4 1569/4/4
f 1566/4/4 1568/4/4 1570/4/4
f 1570/4/4 1568/4/4 1571/4/4
f 1564/2/4 1565/2/4 1572/2/4
f 1572/2/4 1565/2/4 1573/2/4
f 1574/2/4 1575/2/4 1578/2/4
f 1578/2/4 1575/2/4 1579/2/4
f 1576/2/4 1577/2/4 1580/2/4
f 1580/2/4 1577/2/4 1581/2/4
f 1582/2/4 1583/2/4 1586/2/4
f 1586/2/4 1583/2/4 1587/2/4
f 1584/2/4 1585/2/4 1588/2/4
f 1588/2/4 1585/2/4 1589/2/4
f 1590/2/4 1591/2/4 1594/2/4
f 1594/2/4 1591/2/4 1595/2/4
f 1592/2/4 1593/2/4 1596/2/4
f 1596/2/4 1593/2/4 1597/2/4
f 1598/2/4 1599/2/4 1600/2/4
f 1600/2/4 1599/2/4 1601/2/4
f 1602/2/4 1603/2/4 1604/2/4
f 1604/2/4 1603/2/4 1605/2/4
f 1606/2/4 1607/2/4 1608/2/4
f 1608/2/4 1607/2/4 1609/2/4
f 1612/4/5 1611/4/5 1610/4/5
f 1613/4/5 1611/4/5 1612/4/5
f 1618/4/5 1615/4/5 1614/4/5
f 1619/4/5 1615/4/5 1618/4/5
f 1620/4/5 1617/4/5 1616/4/5
f 1621/4/5 1617/4/5 1620/4/5
f 1624/2/5 1623/2/5 1622/2/5
f 1625/2/5 1623/2/5 1624/2/5
f 1626/2/5 1624/2/5 1622/2/5
f 1627/2/5 1623/2/5 1625/2/5
f 1628/2/5 1623/2/5 1627/2/5
f 1629/2/5 1626/2/5 1622/2/5
f 1631/2/5 1623/2/5 1628/2/5
f 1632/2/5 1629/2/5 1622/2/5
f 1633/2/5 1631/2/5 1630/2/5
f 1634/2/5 1632/2/5 1622/2/5
f 1634/2/5 1633/2/5 1632/2/5
f 1635/2/5 1631/2/5 1633/2/5
f 1635/2/5 1633/2/5 1634/2/5
f 1635/2/5 1623/2/5 1631/2/5
f 1642/2/5 1637/2/5 1636/2/5
f 1643/2/5 1637/2/5 1642/2/5
f 1644/2/5 1639/2/5 1638/2/5
f 1645/2/5 1639/2/5 1644/2/5
f 1646/2/5 1641/2/5 1640/2/5
f 1647/2/5 1641/2/5 1646/2/5
f 1654/2/5 1649/2/5 1648/2/5
f 1655/2/5 1649/2/5 1654/2/5
f 1656/2/5 1651/2/5 1650/2/5
f 1657/2/5 1651/2/5 1656/2/5
f 1658/2/5 1653/2/5 1652/2/5
f 1659/2/5 1653/2/5 1658/2/5
f 1662/5/5 1661/5/5 1660/5/5
f 1663/5/5 1661/5/5 1662/5/5
f 1670/2/5 1665/2/5 1664/2/5
f 1671/2/5 1665/2/5 1670/2/5
f 1672/2/5 1667/2/5 1666/2/5
f 1673/2/5 1667/2/5 1672/2/5
f 1674/2/5 1669/2/5 1668/2/5
f 1675/2/5 1669/2/5 1674/2/5
f 1682/2/5 1677/2/5 1676/2/5
f 1683/2/5 1677/2/5 1682/2/5
f 1684/2/5 1679/2/5 1678/2/5
f 1685/2/5 1679/2/5 1684/2/5
f 1686/2/5 1681/2/5 1680/2/5
f 1687/2/5 1681/2/5 1686/2/5
f 1694/4/5 1689/4/5 1688/4/5
f 1695/4/5 1689/4/5 1694/4/5
f 1696/5/5 1691/5/5 1690/5/5
f 1697/5/5 1691/5/5 1696/5/5
f 1700/5/5 1693/5/5 1692/5/5
f 1701/5/5 1693/5/5 1700/5/5
f 1702/5/5 1699/5/5 1698/5/5
f 1703/5/5 1699/5/5 1702/5/5
f 1704/4/5 1701/4/5 1700/4/5
f 1706/4/5 1704/4/5 1700/4/5
f 1706/4/5 1705/4/5 1704/4/5
f 1707/4/5 1705/4/5 1706/4/5
f 1714/2/5 1709/2/5 1708/2/5
f 1715/2/5 1709/2/5 1714/2/5
f 1716/2/5 1711/2/5 1710/2/5
f 1717/2/5 1711/2/5 1716/2/5
f 1718/2/5 1713/2/5 1712/2/5
f 1719/2/5 1713/2/5 1718/2/5
f 1726/2/5 1721/2/5 1720/2/5
f 1727/2/5 1721/2/5 1726/2/5
f 1728/2/5 1723/2/5 1722/2/5
f 1729/2/5 1723/2/5 1728/2/5
f 1730/2/5 1725/2/5 1724/2/5
f 1731/2/5 1725/2/5 1730/2/5
f 1736/4/5 1733/4/5 1732/4/5
f 1737/4/5 1733/4/5 1736/4/5
f 1738/4/5 1733/4/5 1737/4/5
f 1739/4/5 1733/4/5 1738/4/5
f 1740/5/5 1735/5/5 1734/5/5
f 1741/5/5 1735/5/5 1740/5/5
f 1742/5/5 1737/5/5 1736/5/5
f 1743/4/5 1738/4/5 1737/4/5
f 1743/5/5 1737/5/5 1742/5/5
f 1744/4/5 1738/4/5 1743/4/5
f 1747/5/5 1746/5/5 1745/5/5
f 1748/5/5 1746/5/5 1747/5/5
f 1751/4/5 1750/4/5 1749/4/5
f 1752/4/5 1750/4/5 1751/4/5
f 1759/2/5 1754/2/5 1753/2/5
f 1760/2/5 1754/2/5 1759/2/5
f 1761/2/5 1756/2/5 1755/2/5
f 1762/2/5 1756/2/5 1761/2/5
f 1763/2/5 1758/2/5 1757/2/5
f 1764/2/5 1758/2/5 1763/2/5
f 1767/5/5 1766/5/5 1765/5/5
f 1768/5/5 1766/5/5 1767/5/5
f 1774/4/5 1770/4/5 1769/4/5
f 1775/4/5 1770/4/5 1774/4/5
f 1776/5/5 1772/5/5 1771/5/5
f 1777/4/5 1773/4/5 1772/4/5
f 1777/5/5 1772/5/5 1776/5/5
f 1778/4/5 1773/4/5 1777/4/5
f 1781/5/5 1780/5/5 1779/5/5
f 1782/5/5 1780/5/5 1781/5/5
f 1789/2/5 1784/2/5 1783/2/5
f 1790/2/5 1784/2/5 1789/2/5
f 1791/2/5 1786/2/5 1785/2/5
f 1792/2/5 1786/2/5 1791/2/5
f 1793/2/5 1788/2/5 1787/2/5
f 1794/2/5 1788/2/5 1793/2/5
f 1800/5/5 1796/5/5 1795/5/5
f 1801/5/5 1796/5/5 1800/5/5
f 1802/5/5 1798/5/5 1797/5/5
f 1803/4/5 1799/4/5 1798/4/5
f 1803/5/5 1798/5/5 1802/5/5
f 1804/4/5 1799/4/5 1803/4/5
f 1810/4/5 1806/4/5 1805/4/5
f 1811/4/5 1806/4/5 1810/4/5
f 1812/5/5 1808/5/5 1807/5/5
f 1813/4/5 1809/4/5 1808/4/5
f 1813/5/5 1808/5/5 1812/5/5
f 1814/4/5 1809/4/5 1813/4/5
f 1821/4/5 1816/4/5 1815/4/5
f 1822/4/5 1816/4/5 1821/4/5
f 1823/5/5 1818/5/5 1817/5/5
f 1823/5/5 1819/5/5 1818/5/5
f 1824/4/5 1820/4/5 1819/4/5
f 1824/5/5 1819/5/5 1823/5/5
f 1825/4/5 1820/4/5 1824/4/5
f 1830/5/5 1827/5/5 1826/5/5
f 1831/5/5 1827/5/5 1830/5/5
f 1832/4/5 1829/4/5 1828/4/5
f 1833/4/5 1829/4/5 1832/4/5
f 1840/2/5 1835/2/5 1834/2/5
f 1841/2/5 1835/2/5 1840/2/5
f 1842/2/5 1837/2/5 1836/2/5
f 1843/2/5 1837/2/5 1842/2/5
f 1844/2/5 1839/2/5 1838/2/5
f 1845/2/5 1839/2/5 1844/2/5
f 1850/5/5 1847/5/5 1846/5/5
f 1851/5/5 1847/5/5 1850/5/5
f 1852/4/5 1849/4/5 1848/4/5
f 1853/4/5 1849/4/5 1852/4/5
f 1854/4/5 1849/4/5 1853/4/5
f 1860/4/5 1856/4/5 1855/4/5
f 1861/4/5 1856/4/5 1860/4/5
f 1862/5/5 1858/5/5 1857/5/5
f 1863/4/5 1859/4/5 1858/4/5
f 1863/5/5 1858/5/5 1862/5/5
f 1864/4/5 1859/4/5 1863/4/5
f 1865/4/5 1859/4/5 1864/4/5
f 1870/5/5 1867/5/5 1866/5/5
f 1871/5/5 1867/5/5 1870/5/5
f 1872/4/5 1869/4/5 1868/4/5
f 1873/4/5 1869/4/5 1872/4/5
f 1879/4/5 1875/4/5 1874/4/5
f 1880/4/5 1875/4/5 1879/4/5
f 1881/4/5 1877/4/5 1876/4/5
f 1882/5/5 1878/5/5 1877/5/5
f 1882/4/5 1877/4/5 1881/4/5
f 1883/5/5 1878/5/5 1882/5/5
f 1890/4/5 1885/4/5 1884/4/5
f 1891/4/5 1885/4/5 1890/4/5
f 1892/5/5 1887/5/5 1886/5/5
f 1893/4/5 1888/4/5 1887/4/5
f 1893/5/5 1887/5/5 1892/5/5
f 1894/5/5 1889/5/5 1888/5/5
f 1894/4/5 1888/4/5 1893/4/5
f 1895/5/5 1889/5/5 1894/5/5
f 1900/4/5 1897/4/5 1896/4/5
f 1901/4/5 1897/4/5 1900/4/5
f 1902/4/5 1899/4/5 1898/4/5
f 1903/4/5 1899/4/5 1902/4/5
f 1904/4/5 1899/4/5 1903/4/5
f 1910/4/5 1906/4/5 1905/4/5
f 1911/4/5 1906/4/5 1910/4/5
f 1912/4/5 1909/4/5 1908/4/5
f 1912/4/5 1908/4/5 1907/4/5
f 1913/4/5 1909/4/5 1912/4/5
f 1918/4/5 1915/4/5 1914/4/5
f 1919/4/5 1915/4/5 1918/4/5
f 1920/4/5 1917/4/5 1916/4/5
f 1921/4/5 1917/4/5 1920/4/5
f 1922/4/5 1917/4/5 1921/4/5
f 1923/4/5 1917/4/5 1922/4/5
f 1930/4/5 1925/4/5 1924/4/5
f 1931/4/5 1925/4/5 1930/4/5
f 1932/5/5 1927/5/5 1926/5/5
f 1933/4/5 1929/4/5 1928/4/5
f 1933/5/5 1927/5/5 1932/5/5
f 1933/4/5 1928/4/5 1927/4/5
f 1934/4/5 1929/4/5 1933/4/5
f 1941/2/5 1936/2/5 1935/2/5
f 1942/2/5 1936/2/5 1941/2/5
f 1943/2/5 1938/2/5 1937/2/5
f 1944/2/5 1938/2/5 1943/2/5
f 1945/2/5 1940/2/5 1939/2/5
f 1946/2/5 1940/2/5 1945/2/5
f 1951/4/5 1948/4/5 1947/4/5
f 1952/4/5 1948/4/5 1951/4/5
f 1953/4/5 1950/4/5 1949/4/5
f 1954/4/5 1950/4/5 1953/4/5
f 1960/4/5 1956/4/5 1955/4/5
f 1961/4/5 1956/4/5 1960/4/5
f 1962/5/5 1958/5/5 1957/5/5
f 1963/4/5 1959/4/5 1958/4/5
f 1963/5/5 1958/5/5 1962/5/5
f 1964/4/5 1959/4/5 1963/4/5
f 1965/4/5 1959/4/5 1964/4/5
f 1972/2/5 1967/2/5 1966/2/5
f 1973/2/5 1967/2/5 1972/2/5
f 1974/2/5 1969/2/5 1968/2/5
f 1975/2/5 1969/2/5 1974/2/5
f 1976/2/5 1971/2/5 1970/2/5
f 1977/2/5 1971/2/5 1976/2/5
f 1984/2/5 1979/2/5 1978/2/5
f 1985/2/5 1979/2/5 1984/2/5
f 1986/2/5 1981/2/5 1980/2/5
f 1987/2/5 1981/2/5 1986/2/5
f 1988/2/5 1983/2/5 1982/2/5
f 1989/2/5 1983/2/5 1988/2/5
f 1996/2/5 1991/2/5 1990/2/5
f 1997/2/5 1991/2/5 1996/2/5
f 1998/2/5 1993/2/5 1992/2/5
f 1999/2/5 1993/2/5 1998/2/5
f 2000/2/5 1995/2/5 1994/2/5
f 2001/2/5 1995/2/5 2000/2/5
f 2008/2/5 2003/2/5 2002/2/5
f 2009/2/5 2003/2/5 2008/2/5
f 2010/2/5 2005/2/5 2004/2/5
f 2011/2/5 2005/2/5 2010/2/5
f 2012/2/5 2007/2/5 2006/2/5
f 2013/2/5 2007/2/5 2012/2/5
f 2020/2/5 2015/2/5 2014/2/5
f 2021/2/5 2015/2/5 2020/2/5
f 2022/2/5 2017/2/5 2016/2/5
f 2023/2/5 2017/2/5 2022/2/5
f 2024/2/5 2019/2/5 2018/2/5
f 2025/2/5 2019/2/5 2024/2/5
f 2032/2/5 2027/2/5 2026/2/5
f 2033/2/5 2027/2/5 2032/2/5
f 2034/2/5 2029/2/5 2028/2/5
f 2035/2/5 2029/2/5 2034/2/5
f 2036/2/5 2031/2/5 2030/2/5
f 2037/2/5 2031/2/5 2036/2/5
f 2038/2/6 2039/2/6 2040/2/6
f 2040/2/6 2039/2/6 2041/2/6
f 2038/2/6 2040/2/6 2042/2/6
f 2041/2/6 2039/2/6 2043/2/6
f 2043/2/6 2039/2/6 2044/2/6
f 2038/2/6 2042/2/6 2045/2/6
f 2044/2/6 2039/2/6 2047/2/6
f 2038/2/6 2045/2/6 2048/2/6
f 2046/2/6 2047/2/6 2049/2/6
f 2038/2/6 2048/2/6 2050/2/6
f 2048/2/6 2049/2/6 2050/2/6
f 2049/2/6 2047/2/6 2051/2/6
f 2050/2/6 2049/2/6 2051/2/6
f 2047/2/6 2039/2/6 2051/2/6
f 2052/2/6 2053/2/6 2058/2/6
f 2058/2/6 2053/2/6 2059/2/6
f 2054/2/6 2055/2/6 2060/2/6
f 2060/2/6 2055/2/6 2061/2/6
f 2056/2/6 2057/2/6 2062/2/6
f 2062/2/6 2057/2/6 2063/2/6
f 2064/2/6 2065/2/6 2070/2/6
f 2070/2/6 2065/2/6 2071/2/6
f 2066/2/6 2067/2/6 2072/2/6
f 2072/2/6 2067/2/6 2073/2/6
f 2068/2/6 2069/2/6 2074/2/6
f 2074/2/6 2069/2/6 2075/2/6
f 2076/2/6 2077/2/6 2082/2/6
f 2082/2/6 2077/2/6 2083/2/6
f 2078/2/6 2079/2/6 2084/2/6
f 2084/2/6 2079/2/6 2085/2/6
f 2080/2/6 2081/2/6 2086/2/6
f 2086/2/6 2081/2/6 2087/2/6
f 2088/2/6 2089/2/6 2094/2/6
f 2094/2/6 2089/2/6 2095/2/6
f 2090/2/6 2091/2/6 2096/2/6
f 2096/2/6 2091/2/6 2097/2/6
f 2092/2/6 2093/2/6 2098/2/6
f 2098/2/6 2093/2/6 2099/2/6
f 2100/2/6 2101/2/6 2106/2/6
f 2106/2/6 2101/2/6 2107/2/6
f 2102/2/6 2103/2/6 2108/2/6
f 2108/2/6 2103/2/6 2109/2/6
f 2104/2/6 2105/2/6 2110/2/6
f 2110/2/6 2105/2/6 2111/2/6
f 2112/2/6 2113/2/6 2118/2/6
f 2118/2/6 2113/2/6 2119/2/6
f 2114/2/6 2115/2/6 2120/2/6
f 2120/2/6 2115/2/6 2121/2/6
f 2116/2/6 2117/2/6 2122/2/6
f 2122/2/6 2117/2/6 2123/2/6
f 2124/4/6 2125/4/6 2129/4/6
f 2129/4/6 2125/4/6 2130/4/6
f 2126/5/6 2127/5/6 2131/5/6
f 2127/4/6 2128/4/6 2132/4/6
f 2131/5/6 2127/5/6 2132/5/6
f 2132/4/6 2128/4/6 2133/4/6
f 2133/4/6 2128/4/6 2134/4/6
f 2135/2/6 2136/2/6 2141/2/6
f 2141/2/6 2136/2/6 2142/2/6
f 2137/2/6 2138/2/6 2143/2/6
f 2143/2/6 2138/2/6 2144/2/6
f 2139/2/6 2140/2/6 2145/2/6
f 2145/2/6 2140/2/6 2146/2/6
f 2147/4/6 2148/4/6 2149/4/6
f 2149/4/6 2148/4/6 2150/4/6
f 2151/4/6 2152/4/6 2156/4/6
f 2156/4/6 2152/4/6 2157/4/6
f 2153/5/6 2154/5/6 2158/5/6
f 2154/4/6 2155/4/6 2159/4/6
f 2158/5/6 2154/5/6 2159/5/6
f 2159/4/6 2155/4/6 2160/4/6
f 2161/4/6 2162/4/6 2167/4/6
f 2167/4/6 2162/4/6 2168/4/6
f 2163/5/6 2164/5/6 2169/5/6
f 2164/5/6 2165/5/6 2169/5/6
f 2165/4/6 2166/4/6 2170/4/6
f 2169/5/6 2165/5/6 2170/5/6
f 2170/4/6 2166/4/6 2171/4/6
f 2172/4/6 2173/4/6 2174/4/6
f 2174/4/6 2173/4/6 2175/4/6
f 2176/4/6 2177/4/6 2178/4/6
f 2178/4/6 2177/4/6 2179/4/6
f 2179/4/6 2180/4/6 2181/4/6
f 2181/4/6 2180/4/6 2182/4/6
f 2183/4/6 2184/4/6 2188/4/6
f 2188/4/6 2184/4/6 2189/4/6
f 2185/5/6 2186/5/6 2190/5/6
f 2186/4/6 2187/4/6 2191/4/6
f 2190/5/6 2186/5/6 2191/5/6
f 2191/4/6 2187/4/6 2192/4/6
f 2193/4/6 2194/4/6 2196/4/6
f 2196/4/6 2194/4/6 2197/4/6
f 2195/4/6 2196/4/6 2198/4/6
f 2198/4/6 2196/4/6 2199/4/6
f 2200/5/6 2201/5/6 2204/5/6
f 2204/5/6 2201/5/6 2205/5/6
f 2202/4/6 2203/4/6 2206/4/6
f 2206/4/6 2203/4/6 2207/4/6
f 2207/4/6 2208/4/6 2209/4/6
f 2209/4/6 2208/4/6 2210/4/6
f 2210/4/6 2211/4/6 2217/4/6
f 2217/4/6 2211/4/6 2218/4/6
f 2212/4/6 2213/4/6 2219/4/6
f 2219/4/6 2213/4/6 2220/4/6
f 2214/4/6 2215/4/6 2221/4/6
f 2215/5/6 2216/5/6 2222/5/6
f 2221/4/6 2215/4/6 2222/4/6
f 2222/5/6 2216/5/6 2223/5/6
f 2224/4/6 2225/4/6 2230/4/6
f 2230/4/6 2225/4/6 2231/4/6
f 2226/5/6 2227/5/6 2232/5/6
f 2227/4/6 2228/4/6 2233/4/6
f 2232/5/6 2227/5/6 2233/5/6
f 2228/5/6 2229/5/6 2234/5/6
f 2233/4/6 2228/4/6 2234/4/6
f 2234/5/6 2229/5/6 2235/5/6
f 2236/4/6 2237/4/6 2239/4/6
f 2239/4/6 2237/4/6 2240/4/6
f 2238/4/6 2239/4/6 2244/4/6
f 2244/4/6 2239/4/6 2245/4/6
f 2241/5/6 2242/5/6 2246/5/6
f 2246/5/6 2242/5/6 2247/5/6
f 2243/4/6 2244/4/6 2248/4/6
f 2248/4/6 2244/4/6 2249/4/6
f 2250/2/6 2251/2/6 2256/2/6
f 2256/2/6 2251/2/6 2257/2/6
f 2252/2/6 2253/2/6 2258/2/6
f 2258/2/6 2253/2/6 2259/2/6
f 2254/2/6 2255/2/6 2260/2/6
f 2260/2/6 2255/2/6 2261/2/6
f 2262/5/6 2263/5/6 2267/5/6
f 2267/5/6 2263/5/6 2268/5/6
f 2264/4/6 2265/4/6 2269/4/6
f 2269/4/6 2265/4/6 2270/4/6
f 2266/4/6 2267/4/6 2272/4/6
f 2272/4/6 2267/4/6 2273/4/6
f 2268/4/6 2269/4/6 2274/4/6
f 2274/4/6 2269/4/6 2275/4/6
f 2270/4/6 2271/4/6 2276/4/6
f 2276/4/6 2271/4/6 2277/4/6
f 2277/4/6 2278/4/6 2283/4/6
f 2283/4/6 2278/4/6 2284/4/6
f 2279/4/6 2280/4/6 2285/4/6
f 2285/4/6 2280/4/6 2286/4/6
f 2281/4/6 2282/4/6 2287/4/6
f 2287/4/6 2282/4/6 2288/4/6
f 2289/4/6 2290/4/6 2293/4/6
f 2293/4/6 2290/4/6 2294/4/6
f 2291/4/6 2292/4/6 2295/4/6
f 2295/4/6 2292/4/6 2296/4/6
f 2296/4/6 2292/4/6 2297/4/6
f 2298/4/6 2299/4/6 2307/4/6
f 2307/4/6 2299/4/6 2308/4/6
f 2300/4/6 2301/4/6 2309/4/6
f 2309/4/6 2301/4/6 2310/4/6
f 2302/5/6 2303/5/6 2311/5/6
f 2303/5/6 2304/5/6 2311/5/6
f 2304/4/6 2305/4/6 2312/4/6
f 2311/5/6 2304/5/6 2312/5/6
f 2312/4/6 2305/4/6 2313/4/6
f 2306/4/6 2307/4/6 2314/4/6
f 2314/4/6 2307/4/6 2315/4/6
f 2310/5/6 2311/5/6 2316/5/6
f 2316/5/6 2311/5/6 2317/5/6
f 2313/4/6 2314/4/6 2318/4/6
f 2318/4/6 2314/4/6 2319/4/6
f 2320/2/6 2321/2/6 2326/2/6
f 2326/2/6 2321/2/6 2327/2/6
f 2322/2/6 2323/2/6 2328/2/6
f 2328/2/6 2323/2/6 2329/2/6
f 2324/2/6 2325/2/6 2330/2/6
f 2330/2/6 2325/2/6 2331/2/6
f 2332/5/6 2333/5/6 2337/5/6
f 2337/5/6 2333/5/6 2338/5/6
f 2334/4/6 2335/4/6 2339/4/6
f 2339/4/6 2335/4/6 2340/4/6
f 2336/4/6 2337/4/6 2342/4/6
f 2342/4/6 2337/4/6 2343/4/6
f 2338/4/6 2339/4/6 2344/4/6
f 2344/4/6 2339/4/6 2345/4/6
f 2340/4/6 2341/4/6 2346/4/6
f 2346/4/6 2341/4/6 2347/4/6
f 2347/4/6 2348/4/6 2349/4/6
f 2349/4/6 2348/4/6 2350/4/6
f 2351/4/6 2352/4/6 2359/4/6
f 2359/4/6 2352/4/6 2360/4/6
f 2353/4/6 2354/4/6 2361/4/6
f 2361/4/6 2354/4/6 2362/4/6
f 2355/5/6 2356/5/6 2363/5/6
f 2356/4/6 2357/4/6 2364/4/6
f 2363/5/6 2356/5/6 2364/5/6
f 2364/4/6 2357/4/6 2365/4/6
f 2358/4/6 2359/4/6 2366/4/6
f 2366/4/6 2359/4/6 2367/4/6
f 2362/5/6 2363/5/6 2368/5/6
f 2368/5/6 2363/5/6 2369/5/6
f 2365/4/6 2366/4/6 2370/4/6
f 2370/4/6 2366/4/6 2371/4/6
f 2372/2/6 2373/2/6 2378/2/6
f 2378/2/6 2373/2/6 2379/2/6
f 2374/2/6 2375/2/6 2380/2/6
f 2380/2/6 2375/2/6 2381/2/6
f 2376/2/6 2377/2/6 2382/2/6
f 2382/2/6 2377/2/6 2383/2/6
f 2384/5/6 2385/5/6 2388/5/6
f 2388/5/6 2385/5/6 2389/5/6
f 2386/4/6 2387/4/6 2390/4/6
f 2390/4/6 2387/4/6 2391/4/6
f 2391/4/6 2392/4/6 2393/4/6
f 2393/4/6 2392/4/6 2394/4/6
f 2394/4/6 2395/4/6 2397/4/6
f 2397/4/6 2395/4/6 2398/4/6
f 2396/4/6 2397/4/6 2402/4/6
f 2402/4/6 2397/4/6 2403/4/6
f 2399/5/6 2400/5/6 2404/5/6
f 2404/5/6 2400/5/6 2405/5/6
f 2401/4/6 2402/4/6 2406/4/6
f 2406/4/6 2402/4/6 2407/4/6
f 2408/2/6 2409/2/6 2414/2/6
f 2414/2/6 2409/2/6 2415/2/6
f 2410/2/6 2411/2/6 2416/2/6
f 2416/2/6 2411/2/6 2417/2/6
f 2412/2/6 2413/2/6 2418/2/6
f 2418/2/6 2413/2/6 2419/2/6
f 2420/2/6 2421/2/6 2426/2/6
f 2426/2/6 2421/2/6 2427/2/6
f 2422/2/6 2423/2/6 2428/2/6
f 2428/2/6 2423/2/6 2429/2/6
f 2424/2/6 2425/2/6 2430/2/6
f 2430/2/6 2425/2/6 2431/2/6
f 2434/5/6 2435/5/6 2438/5/6
f 2438/5/6 2435/5/6 2439/5/6
f 2436/4/6 2437/4/6 2440/4/6
f 2440/4/6 2441/4/6 2444/4/6
f 2436/4/6 2440/4/6 2444/4/6
f 2444/4/6 2441/4/6 2445/4/6
f 2442/5/6 2443/5/6 2446/5/6
f 2446/5/6 2443/5/6 2447/5/6
f 2436/4/6 2444/4/6 2448/4/6
f 2448/4/6 2444/4/6 2449/4/6
f 2432/1/6 2433/1/6 2450/1/6
f 2450/1/6 2433/1/6 2451/1/6
f 2452/2/6 2453/2/6 2458/2/6
f 2458/2/6 2453/2/6 2459/2/6
f 2454/2/6 2455/2/6 2460/2/6
f 2460/2/6 2455/2/6 2461/2/6
f 2456/2/6 2457/2/6 2462/2/6
f 2462/2/6 2457/2/6 2463/2/6
f 2464/2/6 2465/2/6 2470/2/6
f 2470/2/6 2465/2/6 2471/2/6
f 2466/2/6 2467/2/6 2472/2/6
f 2472/2/6 2467/2/6 2473/2/6
f 2468/2/6 2469/2/6 2474/2/6
f 2474/2/6 2469/2/6 2475/2/6
f 2476/5/6 2477/5/6 2478/5/6
f 2478/5/6 2477/5/6 2479/5/6
f 2480/2/6 2481/2/6 2486/2/6
f 2486/2/6 2481/2/6 2487/2/6
f 2482/2/6 2483/2/6 2488/2/6
f 2488/2/6 2483/2/6 2489/2/6
f 2484/2/6 2485/2/6 2490/2/6
f 2490/2/6 2485/2/6 2491/2/6
f 2492/2/6 2493/2/6 2498/2/6
f 2498/2/6 2493/2/6 2499/2/6
f 2494/2/6 2495/2/6 2500/2/6
f 2500/2/6 2495/2/6 2501/2/6
f 2496/2/6 2497/2/6 2502/2/6
f 2502/2/6 2497/2/6 2503/2/6
