# MagicaVoxel @ Ephtracy

# group
o 

# material
mtllib shot.mtl
usemtl palette

# normals
vn -1 0 0
vn 1 0 0
vn 0 0 1
vn 0 0 -1
vn 0 -1 0
vn 0 1 0

# texcoords
vt 0.705078 0.5
vt 0.728516 0.5
vt 0.982422 0.5
vt 0.986328 0.5
vt 0.990234 0.5

# verts
v -4.1 1.8 0.1
v -4.1 1.8 -0.1
v -4.1 1.9 0.2
v -4.1 1.9 0.1
v -4.1 1.9 -0.1
v -4.1 1.9 -0.2
v -4.1 2.1 0.2
v -4.1 2.1 0.1
v -4.1 2.1 -0.1
v -4.1 2.1 -0.2
v -4.1 2.2 0.1
v -4.1 2.2 -0.1
v -3.9 1.3 0.1
v -3.9 1.3 -0.1
v -3.9 1.4 0.2
v -3.9 1.4 0.1
v -3.9 1.4 -0.1
v -3.9 1.4 -0.2
v -3.9 1.5 0.3
v -3.9 1.5 0.2
v -3.9 1.5 0.1
v -3.9 1.5 -0.1
v -3.9 1.5 -0.2
v -3.9 1.5 -0.3
v -3.9 1.7 0.3
v -3.9 1.7 0.2
v -3.9 1.7 0.1
v -3.9 1.7 -0.1
v -3.9 1.7 -0.2
v -3.9 1.7 -0.3
v -3.9 1.8 0.2
v -3.9 1.8 0.1
v -3.9 1.8 -0.1
v -3.9 1.8 -0.2
v -3.7 1.2 0.2
v -3.7 1.2 -0.2
v -3.7 1.3 0.3
v -3.7 1.3 0.2
v -3.7 1.3 0.1
v -3.7 1.3 -0.1
v -3.7 1.3 -0.2
v -3.7 1.3 -0.3
v -3.7 1.4 0.4
v -3.7 1.4 0.3
v -3.7 1.4 0.2
v -3.7 1.4 0.1
v -3.7 1.4 -0.1
v -3.7 1.4 -0.2
v -3.7 1.4 -0.3
v -3.7 1.4 -0.4
v -3.7 1.5 0.3
v -3.7 1.5 0.2
v -3.7 1.5 -0.2
v -3.7 1.5 -0.3
v -3.7 1.7 0.3
v -3.7 1.7 0.2
v -3.7 1.7 -0.2
v -3.7 1.7 -0.3
v -3.7 1.8 0.4
v -3.7 1.8 0.3
v -3.7 1.8 0.2
v -3.7 1.8 0.1
v -3.7 1.8 -0.1
v -3.7 1.8 -0.2
v -3.7 1.8 -0.3
v -3.7 1.8 -0.4
v -3.7 1.9 0.3
v -3.7 1.9 0.2
v -3.7 1.9 0.1
v -3.7 1.9 -0.1
v -3.7 1.9 -0.2
v -3.7 1.9 -0.3
v 0.7 2.3 0.1
v 0.7 2.3 -0.1
v 0.7 2.4 0.1
v 0.7 2.4 -0.1
v 1.1 1.8 0.4
v 1.1 1.8 0.3
v 1.1 1.8 -0.3
v 1.1 1.8 -0.4
v 1.1 1.9 0.3
v 1.1 1.9 0.2
v 1.1 1.9 -0.2
v 1.1 1.9 -0.3
v 1.1 2 0.4
v 1.1 2 0.3
v 1.1 2 -0.3
v 1.1 2 -0.4
v 1.1 2.1 0.2
v 1.1 2.1 0.1
v 1.1 2.1 -0.1
v 1.1 2.1 -0.2
v 1.1 2.2 0.3
v 1.1 2.2 0.2
v 1.1 2.2 0.1
v 1.1 2.2 -0.1
v 1.1 2.2 -0.2
v 1.1 2.2 -0.3
v 1.1 2.3 0.2
v 1.1 2.3 0.1
v 1.1 2.3 -0.1
v 1.1 2.3 -0.2
v 2 1 0.2
v 2 1 -0.2
v 2 1.4 0.2
v 2 1.4 -0.2
v 2.1 0.9 0.2
v 2.1 0.9 -0.2
v 2.1 1 0.2
v 2.1 1 -0.2
v 2.3 0.8 0.2
v 2.3 0.8 -0.2
v 2.3 0.9 0.2
v 2.3 0.9 -0.2
v 2.6 1 0.1
v 2.6 1 -0.1
v 2.6 1.1 0.1
v 2.6 1.1 -0.1
v 2.7 1.1 0.1
v 2.7 1.1 -0.1
v 2.7 1.2 0.1
v 2.7 1.2 -0.1
v 2.7 1.3 0.1
v 2.7 1.3 -0.1
v 2.7 1.4 0.1
v 2.7 1.4 -0.1
v 2.8 0.9 0.2
v 2.8 0.9 -0.2
v 2.8 1 0.2
v 2.8 1 -0.2
v 2.8 1.2 0.1
v 2.8 1.2 -0.1
v 2.8 1.3 0.1
v 2.8 1.3 -0.1
v 2.9 1 0.2
v 2.9 1 -0.2
v 2.9 1.1 0.2
v 2.9 1.1 -0.2
v 3 1.1 0.2
v 3 1.1 -0.2
v 3 1.3 0.2
v 3 1.3 -0.2
v 3.1 0.1 0.1
v 3.1 0.1 -0.1
v 3.1 0.2 0.2
v 3.1 0.2 0.1
v 3.1 0.2 -0.1
v 3.1 0.2 -0.2
v 3.1 0.7 0.2
v 3.1 0.7 0.1
v 3.1 0.7 -0.1
v 3.1 0.7 -0.2
v 3.1 1 0.1
v 3.1 1 -0.1
v 3.1 1.3 0.2
v 3.1 1.3 -0.2
v 3.1 1.4 0.2
v 3.1 1.4 -0.2
v 3.2 0 0.2
v 3.2 0 -0.2
v 3.2 0.1 0.1
v 3.2 0.1 -0.1
v 3.2 0.2 0.3
v 3.2 0.2 0.2
v 3.2 0.2 0.1
v 3.2 0.2 -0.1
v 3.2 0.2 -0.2
v 3.2 0.2 -0.3
v 3.2 0.7 0.3
v 3.2 0.7 0.2
v 3.2 0.7 0.1
v 3.2 0.7 -0.1
v 3.2 0.7 -0.2
v 3.2 0.7 -0.3
v 3.2 1 0.2
v 3.2 1 0.1
v 3.2 1 -0.1
v 3.2 1 -0.2
v 3.2 1.2 0.3
v 3.2 1.2 0.2
v 3.2 1.2 -0.2
v 3.2 1.2 -0.3
v 3.2 1.5 0.3
v 3.2 1.5 0.2
v 3.2 1.5 -0.2
v 3.2 1.5 -0.3
v 3.3 0.1 0.3
v 3.3 0.1 0.2
v 3.3 0.1 -0.2
v 3.3 0.1 -0.3
v 3.3 0.2 0.3
v 3.3 0.2 0.2
v 3.3 0.2 -0.2
v 3.3 0.2 -0.3
v 3.3 0.7 0.3
v 3.3 0.7 0.2
v 3.3 0.7 -0.2
v 3.3 0.7 -0.3
v 3.3 1.2 0.3
v 3.3 1.2 0.2
v 3.3 1.2 -0.2
v 3.3 1.2 -0.3
v 1.1 1.2 0.2
v 1.1 1.2 -0.2
v 1.1 1.3 0.3
v 1.1 1.3 0.2
v 1.1 1.3 -0.2
v 1.1 1.3 -0.3
v 1.1 1.4 0.4
v 1.1 1.4 0.3
v 1.1 1.4 0.2
v 1.1 1.4 -0.2
v 1.1 1.4 -0.3
v 1.1 1.4 -0.4
v 1.1 1.5 0.3
v 1.1 1.5 -0.3
v 1.1 1.6 0.4
v 1.1 1.6 0.3
v 1.1 1.6 -0.3
v 1.1 1.6 -0.4
v 1.2 1.3 0.2
v 1.2 1.3 -0.2
v 1.2 1.4 0.3
v 1.2 1.4 0.2
v 1.2 1.4 -0.2
v 1.2 1.4 -0.3
v 1.2 1.5 0.3
v 1.2 1.5 0.2
v 1.2 1.5 -0.2
v 1.2 1.5 -0.3
v 2.2 1.1 0.2
v 2.2 1.1 -0.2
v 2.2 1.4 0.2
v 2.2 1.4 -0.2
v 2.4 1 0.2
v 2.4 1 -0.2
v 2.4 1.1 0.2
v 2.4 1.1 -0.2
v 2.5 0.9 0.2
v 2.5 0.9 -0.2
v 2.5 1 0.2
v 2.5 1 -0.2
v 2.7 1 0.1
v 2.7 1 -0.1
v 2.7 1.1 0.1
v 2.7 1.1 -0.1
v 2.8 1.1 0.1
v 2.8 1.1 -0.1
v 2.8 1.2 0.1
v 2.8 1.2 -0.1
v 2.9 0.8 0.2
v 2.9 0.8 -0.2
v 2.9 0.9 0.2
v 2.9 0.9 -0.2
v 2.9 1.2 0.1
v 2.9 1.2 -0.1
v 2.9 1.4 0.1
v 2.9 1.4 -0.1
v 3 0.9 0.2
v 3 0.9 -0.2
v 3 1 0.2
v 3 1 -0.2
v 3.3 2.3 0.1
v 3.3 2.3 -0.1
v 3.3 2.4 0.1
v 3.3 2.4 -0.1
v 3.4 2.2 0.2
v 3.4 2.2 -0.2
v 3.4 2.3 0.2
v 3.4 2.3 -0.2
v 3.5 1.6 0.4
v 3.5 1.6 0.3
v 3.5 1.6 -0.3
v 3.5 1.6 -0.4
v 3.5 1.9 0.3
v 3.5 1.9 0.2
v 3.5 1.9 -0.2
v 3.5 1.9 -0.3
v 3.5 2 0.4
v 3.5 2 0.3
v 3.5 2 0.2
v 3.5 2 0.1
v 3.5 2 -0.1
v 3.5 2 -0.2
v 3.5 2 -0.3
v 3.5 2 -0.4
v 3.5 2.1 0.1
v 3.5 2.1 -0.1
v 3.5 2.2 0.3
v 3.5 2.2 -0.3
v 3.6 0.9 0.3
v 3.6 0.9 0.2
v 3.6 0.9 -0.2
v 3.6 0.9 -0.3
v 3.6 1.8 0.2
v 3.6 1.8 0.1
v 3.6 1.8 -0.1
v 3.6 1.8 -0.2
v 3.6 1.9 0.3
v 3.6 1.9 0.2
v 3.6 1.9 -0.2
v 3.6 1.9 -0.3
v 3.6 2 0.2
v 3.6 2 0.1
v 3.6 2 -0.1
v 3.6 2 -0.2
v 3.6 2.1 0.1
v 3.6 2.1 -0.1
v 3.7 1.4 0.2
v 3.7 1.4 0.1
v 3.7 1.4 -0.1
v 3.7 1.4 -0.2
v 3.7 1.7 0.1
v 3.7 1.7 -0.1
v 3.7 1.8 0.2
v 3.7 1.8 0.1
v 3.7 1.8 -0.1
v 3.7 1.8 -0.2
v 3.7 2 0.1
v 3.7 2 -0.1
v 3.8 1.1 0.2
v 3.8 1.1 0.1
v 3.8 1.1 -0.1
v 3.8 1.1 -0.2
v 3.8 1.4 0.2
v 3.8 1.4 0.1
v 3.8 1.4 -0.1
v 3.8 1.4 -0.2
v 3.8 1.7 0.1
v 3.8 1.7 -0.1
v 3.9 0.1 0.3
v 3.9 0.1 0.2
v 3.9 0.1 -0.2
v 3.9 0.1 -0.3
v 3.9 0.2 0.3
v 3.9 0.2 0.2
v 3.9 0.2 -0.2
v 3.9 0.2 -0.3
v 3.9 0.7 0.3
v 3.9 0.7 0.2
v 3.9 0.7 -0.2
v 3.9 0.7 -0.3
v 3.9 0.9 0.3
v 3.9 0.9 0.2
v 3.9 0.9 0.1
v 3.9 0.9 -0.1
v 3.9 0.9 -0.2
v 3.9 0.9 -0.3
v 3.9 1.1 0.2
v 3.9 1.1 0.1
v 3.9 1.1 -0.1
v 3.9 1.1 -0.2
v 3.9 1.4 0.1
v 3.9 1.4 -0.1
v 4 0 0.2
v 4 0 -0.2
v 4 0.1 0.1
v 4 0.1 -0.1
v 4 0.2 0.3
v 4 0.2 0.2
v 4 0.2 0.1
v 4 0.2 -0.1
v 4 0.2 -0.2
v 4 0.2 -0.3
v 4 0.7 0.3
v 4 0.7 0.2
v 4 0.7 0.1
v 4 0.7 -0.1
v 4 0.7 -0.2
v 4 0.7 -0.3
v 4 0.9 0.2
v 4 0.9 0.1
v 4 0.9 -0.1
v 4 0.9 -0.2
v 4 1.1 0.1
v 4 1.1 -0.1
v 4.1 0.1 0.1
v 4.1 0.1 -0.1
v 4.1 0.2 0.2
v 4.1 0.2 0.1
v 4.1 0.2 -0.1
v 4.1 0.2 -0.2
v 4.1 0.7 0.2
v 4.1 0.7 0.1
v 4.1 0.7 -0.1
v 4.1 0.7 -0.2
v 4.1 0.9 0.1
v 4.1 0.9 -0.1
v -3.7 1.4 0.4
v -3.7 1.8 0.4
v 0.3 1.4 0.4
v 0.3 1.8 0.4
v 0.5 1.4 0.4
v 0.5 1.8 0.4
v 0.7 1.4 0.4
v 0.7 1.8 0.4
v 1.1 1.4 0.4
v 1.1 1.6 0.4
v 1.1 1.8 0.4
v 1.1 2 0.4
v 2.5 1.9 0.4
v 2.5 2 0.4
v 2.6 1.6 0.4
v 2.6 1.9 0.4
v 2.6 2 0.4
v 2.7 1.8 0.4
v 2.7 1.9 0.4
v 2.7 2 0.4
v 2.8 1.8 0.4
v 2.8 1.9 0.4
v 2.8 2 0.4
v 2.9 1.8 0.4
v 2.9 1.9 0.4
v 3.4 1.6 0.4
v 3.4 1.8 0.4
v 3.5 1.6 0.4
v 3.5 2 0.4
v -3.9 1.5 0.3
v -3.9 1.7 0.3
v -3.7 1.3 0.3
v -3.7 1.4 0.3
v -3.7 1.5 0.3
v -3.7 1.7 0.3
v -3.7 1.8 0.3
v -3.7 1.9 0.3
v 0.3 1.3 0.3
v 0.3 1.4 0.3
v 0.3 1.8 0.3
v 0.5 1.4 0.3
v 0.5 1.8 0.3
v 0.7 1.4 0.3
v 0.7 1.8 0.3
v 1.1 1.3 0.3
v 1.1 1.4 0.3
v 1.1 1.5 0.3
v 1.1 1.6 0.3
v 1.1 1.8 0.3
v 1.1 1.9 0.3
v 1.1 2 0.3
v 1.1 2.2 0.3
v 1.2 1.4 0.3
v 1.2 1.5 0.3
v 1.4 2 0.3
v 1.4 2.2 0.3
v 2.5 2 0.3
v 2.6 1.6 0.3
v 2.6 2 0.3
v 2.7 2 0.3
v 2.8 2 0.3
v 2.9 2 0.3
v 2.9 2.2 0.3
v 3.2 0.2 0.3
v 3.2 0.7 0.3
v 3.2 1.2 0.3
v 3.2 1.5 0.3
v 3.3 0.1 0.3
v 3.3 0.2 0.3
v 3.3 0.7 0.3
v 3.3 1.2 0.3
v 3.4 1.6 0.3
v 3.5 1.5 0.3
v 3.5 1.6 0.3
v 3.5 1.9 0.3
v 3.5 2 0.3
v 3.5 2.2 0.3
v 3.6 0.9 0.3
v 3.6 1.9 0.3
v 3.9 0.1 0.3
v 3.9 0.2 0.3
v 3.9 0.7 0.3
v 3.9 0.9 0.3
v 4 0.2 0.3
v 4 0.7 0.3
v -4.1 1.9 0.2
v -4.1 2.1 0.2
v -3.9 1.4 0.2
v -3.9 1.5 0.2
v -3.9 1.7 0.2
v -3.9 1.8 0.2
v -3.7 1.2 0.2
v -3.7 1.3 0.2
v -3.7 1.4 0.2
v -3.7 1.5 0.2
v -3.7 1.7 0.2
v -3.7 1.8 0.2
v -3.7 1.9 0.2
v 0.3 1.2 0.2
v 0.3 1.3 0.2
v 0.3 1.9 0.2
v 0.3 2.1 0.2
v 0.5 1.2 0.2
v 0.5 1.3 0.2
v 0.5 1.9 0.2
v 0.5 2.1 0.2
v 0.7 1.2 0.2
v 0.7 1.3 0.2
v 0.7 1.9 0.2
v 0.7 2.1 0.2
v 1.1 1.2 0.2
v 1.1 1.3 0.2
v 1.1 1.4 0.2
v 1.1 1.9 0.2
v 1.1 2.1 0.2
v 1.1 2.2 0.2
v 1.1 2.3 0.2
v 1.2 1.3 0.2
v 1.2 1.4 0.2
v 1.2 1.5 0.2
v 1.4 2.2 0.2
v 2 1 0.2
v 2 1.4 0.2
v 2.1 0.9 0.2
v 2.1 1 0.2
v 2.2 1.1 0.2
v 2.2 1.4 0.2
v 2.3 0.8 0.2
v 2.3 0.9 0.2
v 2.4 1 0.2
v 2.4 1.1 0.2
v 2.5 0.9 0.2
v 2.5 1 0.2
v 2.8 0.9 0.2
v 2.8 1 0.2
v 2.9 0.8 0.2
v 2.9 0.9 0.2
v 2.9 1 0.2
v 2.9 1.1 0.2
v 2.9 2.2 0.2
v 3 0.9 0.2
v 3 1 0.2
v 3 1.1 0.2
v 3 1.3 0.2
v 3.1 0.2 0.2
v 3.1 0.7 0.2
v 3.1 1.3 0.2
v 3.1 1.4 0.2
v 3.2 0 0.2
v 3.2 0.2 0.2
v 3.2 0.7 0.2
v 3.2 1 0.2
v 3.2 1.2 0.2
v 3.2 1.5 0.2
v 3.3 0.1 0.2
v 3.3 0.2 0.2
v 3.3 0.7 0.2
v 3.3 1.2 0.2
v 3.4 2.2 0.2
v 3.4 2.3 0.2
v 3.5 1.9 0.2
v 3.5 2 0.2
v 3.6 0.9 0.2
v 3.6 1.8 0.2
v 3.6 1.9 0.2
v 3.6 2 0.2
v 3.7 1.4 0.2
v 3.7 1.8 0.2
v 3.8 1.1 0.2
v 3.8 1.4 0.2
v 3.9 0.1 0.2
v 3.9 0.2 0.2
v 3.9 0.7 0.2
v 3.9 0.9 0.2
v 3.9 1.1 0.2
v 4 0 0.2
v 4 0.2 0.2
v 4 0.7 0.2
v 4 0.9 0.2
v 4.1 0.2 0.2
v 4.1 0.7 0.2
v -4.1 1.8 0.1
v -4.1 1.9 0.1
v -4.1 2.1 0.1
v -4.1 2.2 0.1
v -3.9 1.3 0.1
v -3.9 1.4 0.1
v -3.9 1.8 0.1
v -3.7 1.3 0.1
v -3.7 1.4 0.1
v -3.7 1.8 0.1
v -3.7 1.9 0.1
v 0.3 2.1 0.1
v 0.3 2.2 0.1
v 0.5 2.1 0.1
v 0.5 2.2 0.1
v 0.7 2.1 0.1
v 0.7 2.2 0.1
v 0.7 2.3 0.1
v 0.7 2.4 0.1
v 1.1 2.1 0.1
v 1.1 2.2 0.1
v 1.1 2.3 0.1
v 2.6 1 0.1
v 2.6 1.1 0.1
v 2.7 1 0.1
v 2.7 1.1 0.1
v 2.7 1.2 0.1
v 2.7 1.3 0.1
v 2.7 1.4 0.1
v 2.8 1.1 0.1
v 2.8 1.2 0.1
v 2.8 1.3 0.1
v 2.9 1.2 0.1
v 2.9 1.4 0.1
v 3.1 0.1 0.1
v 3.1 0.2 0.1
v 3.1 0.7 0.1
v 3.1 1 0.1
v 3.2 0.1 0.1
v 3.2 0.2 0.1
v 3.2 0.7 0.1
v 3.2 1 0.1
v 3.3 2.3 0.1
v 3.3 2.4 0.1
v 3.5 2 0.1
v 3.5 2.1 0.1
v 3.6 1.8 0.1
v 3.6 2 0.1
v 3.6 2.1 0.1
v 3.7 1.4 0.1
v 3.7 1.7 0.1
v 3.7 1.8 0.1
v 3.7 2 0.1
v 3.8 1.1 0.1
v 3.8 1.4 0.1
v 3.8 1.7 0.1
v 3.9 0.9 0.1
v 3.9 1.1 0.1
v 3.9 1.4 0.1
v 4 0.1 0.1
v 4 0.2 0.1
v 4 0.7 0.1
v 4 0.9 0.1
v 4 1.1 0.1
v 4.1 0.1 0.1
v 4.1 0.2 0.1
v 4.1 0.7 0.1
v 4.1 0.9 0.1
v -4.1 1.8 -0.1
v -4.1 1.9 -0.1
v -4.1 2.1 -0.1
v -4.1 2.2 -0.1
v -3.9 1.3 -0.1
v -3.9 1.4 -0.1
v -3.9 1.8 -0.1
v -3.7 1.3 -0.1
v -3.7 1.4 -0.1
v -3.7 1.8 -0.1
v -3.7 1.9 -0.1
v 0.3 2.1 -0.1
v 0.3 2.2 -0.1
v 0.5 2.1 -0.1
v 0.5 2.2 -0.1
v 0.7 2.1 -0.1
v 0.7 2.2 -0.1
v 0.7 2.3 -0.1
v 0.7 2.4 -0.1
v 1.1 2.1 -0.1
v 1.1 2.2 -0.1
v 1.1 2.3 -0.1
v 2.6 1 -0.1
v 2.6 1.1 -0.1
v 2.7 1 -0.1
v 2.7 1.1 -0.1
v 2.7 1.2 -0.1
v 2.7 1.3 -0.1
v 2.7 1.4 -0.1
v 2.8 1.1 -0.1
v 2.8 1.2 -0.1
v 2.8 1.3 -0.1
v 2.9 1.2 -0.1
v 2.9 1.4 -0.1
v 3.1 0.1 -0.1
v 3.1 0.2 -0.1
v 3.1 0.7 -0.1
v 3.1 1 -0.1
v 3.2 0.1 -0.1
v 3.2 0.2 -0.1
v 3.2 0.7 -0.1
v 3.2 1 -0.1
v 3.3 2.3 -0.1
v 3.3 2.4 -0.1
v 3.5 2 -0.1
v 3.5 2.1 -0.1
v 3.6 1.8 -0.1
v 3.6 2 -0.1
v 3.6 2.1 -0.1
v 3.7 1.4 -0.1
v 3.7 1.7 -0.1
v 3.7 1.8 -0.1
v 3.7 2 -0.1
v 3.8 1.1 -0.1
v 3.8 1.4 -0.1
v 3.8 1.7 -0.1
v 3.9 0.9 -0.1
v 3.9 1.1 -0.1
v 3.9 1.4 -0.1
v 4 0.1 -0.1
v 4 0.2 -0.1
v 4 0.7 -0.1
v 4 0.9 -0.1
v 4 1.1 -0.1
v 4.1 0.1 -0.1
v 4.1 0.2 -0.1
v 4.1 0.7 -0.1
v 4.1 0.9 -0.1
v -4.1 1.9 -0.2
v -4.1 2.1 -0.2
v -3.9 1.4 -0.2
v -3.9 1.5 -0.2
v -3.9 1.7 -0.2
v -3.9 1.8 -0.2
v -3.7 1.2 -0.2
v -3.7 1.3 -0.2
v -3.7 1.4 -0.2
v -3.7 1.5 -0.2
v -3.7 1.7 -0.2
v -3.7 1.8 -0.2
v -3.7 1.9 -0.2
v 0.3 1.2 -0.2
v 0.3 1.3 -0.2
v 0.3 1.9 -0.2
v 0.3 2.1 -0.2
v 0.5 1.2 -0.2
v 0.5 1.3 -0.2
v 0.5 1.9 -0.2
v 0.5 2.1 -0.2
v 0.7 1.2 -0.2
v 0.7 1.3 -0.2
v 0.7 1.9 -0.2
v 0.7 2.1 -0.2
v 1.1 1.2 -0.2
v 1.1 1.3 -0.2
v 1.1 1.4 -0.2
v 1.1 1.9 -0.2
v 1.1 2.1 -0.2
v 1.1 2.2 -0.2
v 1.1 2.3 -0.2
v 1.2 1.3 -0.2
v 1.2 1.4 -0.2
v 1.2 1.5 -0.2
v 1.4 2.2 -0.2
v 2 1 -0.2
v 2 1.4 -0.2
v 2.1 0.9 -0.2
v 2.1 1 -0.2
v 2.2 1.1 -0.2
v 2.2 1.4 -0.2
v 2.3 0.8 -0.2
v 2.3 0.9 -0.2
v 2.4 1 -0.2
v 2.4 1.1 -0.2
v 2.5 0.9 -0.2
v 2.5 1 -0.2
v 2.8 0.9 -0.2
v 2.8 1 -0.2
v 2.9 0.8 -0.2
v 2.9 0.9 -0.2
v 2.9 1 -0.2
v 2.9 1.1 -0.2
v 2.9 2.2 -0.2
v 3 0.9 -0.2
v 3 1 -0.2
v 3 1.1 -0.2
v 3 1.3 -0.2
v 3.1 0.2 -0.2
v 3.1 0.7 -0.2
v 3.1 1.3 -0.2
v 3.1 1.4 -0.2
v 3.2 0 -0.2
v 3.2 0.2 -0.2
v 3.2 0.7 -0.2
v 3.2 1 -0.2
v 3.2 1.2 -0.2
v 3.2 1.5 -0.2
v 3.3 0.1 -0.2
v 3.3 0.2 -0.2
v 3.3 0.7 -0.2
v 3.3 1.2 -0.2
v 3.4 2.2 -0.2
v 3.4 2.3 -0.2
v 3.5 1.9 -0.2
v 3.5 2 -0.2
v 3.6 0.9 -0.2
v 3.6 1.8 -0.2
v 3.6 1.9 -0.2
v 3.6 2 -0.2
v 3.7 1.4 -0.2
v 3.7 1.8 -0.2
v 3.8 1.1 -0.2
v 3.8 1.4 -0.2
v 3.9 0.1 -0.2
v 3.9 0.2 -0.2
v 3.9 0.7 -0.2
v 3.9 0.9 -0.2
v 3.9 1.1 -0.2
v 4 0 -0.2
v 4 0.2 -0.2
v 4 0.7 -0.2
v 4 0.9 -0.2
v 4.1 0.2 -0.2
v 4.1 0.7 -0.2
v -3.9 1.5 -0.3
v -3.9 1.7 -0.3
v -3.7 1.3 -0.3
v -3.7 1.4 -0.3
v -3.7 1.5 -0.3
v -3.7 1.7 -0.3
v -3.7 1.8 -0.3
v -3.7 1.9 -0.3
v 0.3 1.3 -0.3
v 0.3 1.4 -0.3
v 0.3 1.8 -0.3
v 0.5 1.4 -0.3
v 0.5 1.8 -0.3
v 0.7 1.4 -0.3
v 0.7 1.8 -0.3
v 1.1 1.3 -0.3
v 1.1 1.4 -0.3
v 1.1 1.5 -0.3
v 1.1 1.6 -0.3
v 1.1 1.8 -0.3
v 1.1 1.9 -0.3
v 1.1 2 -0.3
v 1.1 2.2 -0.3
v 1.2 1.4 -0.3
v 1.2 1.5 -0.3
v 1.4 2 -0.3
v 1.4 2.2 -0.3
v 2.5 2 -0.3
v 2.6 1.6 -0.3
v 2.6 2 -0.3
v 2.7 2 -0.3
v 2.8 2 -0.3
v 2.9 2 -0.3
v 2.9 2.2 -0.3
v 3.2 0.2 -0.3
v 3.2 0.7 -0.3
v 3.2 1.2 -0.3
v 3.2 1.5 -0.3
v 3.3 0.1 -0.3
v 3.3 0.2 -0.3
v 3.3 0.7 -0.3
v 3.3 1.2 -0.3
v 3.4 1.6 -0.3
v 3.5 1.5 -0.3
v 3.5 1.6 -0.3
v 3.5 1.9 -0.3
v 3.5 2 -0.3
v 3.5 2.2 -0.3
v 3.6 0.9 -0.3
v 3.6 1.9 -0.3
v 3.9 0.1 -0.3
v 3.9 0.2 -0.3
v 3.9 0.7 -0.3
v 3.9 0.9 -0.3
v 4 0.2 -0.3
v 4 0.7 -0.3
v -3.7 1.4 -0.4
v -3.7 1.8 -0.4
v 0.3 1.4 -0.4
v 0.3 1.8 -0.4
v 0.5 1.4 -0.4
v 0.5 1.8 -0.4
v 0.7 1.4 -0.4
v 0.7 1.8 -0.4
v 1.1 1.4 -0.4
v 1.1 1.6 -0.4
v 1.1 1.8 -0.4
v 1.1 2 -0.4
v 2.5 1.9 -0.4
v 2.5 2 -0.4
v 2.6 1.6 -0.4
v 2.6 1.9 -0.4
v 2.6 2 -0.4
v 2.7 1.8 -0.4
v 2.7 1.9 -0.4
v 2.7 2 -0.4
v 2.8 1.8 -0.4
v 2.8 1.9 -0.4
v 2.8 2 -0.4
v 2.9 1.8 -0.4
v 2.9 1.9 -0.4
v 3.4 1.6 -0.4
v 3.4 1.8 -0.4
v 3.5 1.6 -0.4
v 3.5 2 -0.4
v 3.2 0 0.2
v 4 0 0.2
v 3.2 0 -0.2
v 4 0 -0.2
v 3.3 0.1 0.3
v 3.9 0.1 0.3
v 3.3 0.1 0.2
v 3.9 0.1 0.2
v 3.1 0.1 0.1
v 3.2 0.1 0.1
v 4 0.1 0.1
v 4.1 0.1 0.1
v 3.1 0.1 -0.1
v 3.2 0.1 -0.1
v 4 0.1 -0.1
v 4.1 0.1 -0.1
v 3.3 0.1 -0.2
v 3.9 0.1 -0.2
v 3.3 0.1 -0.3
v 3.9 0.1 -0.3
v 3.2 0.2 0.3
v 3.3 0.2 0.3
v 3.9 0.2 0.3
v 4 0.2 0.3
v 3.1 0.2 0.2
v 3.2 0.2 0.2
v 3.3 0.2 0.2
v 3.9 0.2 0.2
v 4 0.2 0.2
v 4.1 0.2 0.2
v 3.1 0.2 0.1
v 3.2 0.2 0.1
v 4 0.2 0.1
v 4.1 0.2 0.1
v 3.1 0.2 -0.1
v 3.2 0.2 -0.1
v 4 0.2 -0.1
v 4.1 0.2 -0.1
v 3.1 0.2 -0.2
v 3.2 0.2 -0.2
v 3.3 0.2 -0.2
v 3.9 0.2 -0.2
v 4 0.2 -0.2
v 4.1 0.2 -0.2
v 3.2 0.2 -0.3
v 3.3 0.2 -0.3
v 3.9 0.2 -0.3
v 4 0.2 -0.3
v 2.3 0.8 0.2
v 2.9 0.8 0.2
v 2.3 0.8 -0.2
v 2.9 0.8 -0.2
v 2.1 0.9 0.2
v 2.3 0.9 0.2
v 2.9 0.9 0.2
v 3 0.9 0.2
v 2.1 0.9 -0.2
v 2.3 0.9 -0.2
v 2.9 0.9 -0.2
v 3 0.9 -0.2
v 2 1 0.2
v 2.1 1 0.2
v 3 1 0.2
v 3.2 1 0.2
v 2.6 1 0.1
v 2.7 1 0.1
v 3.1 1 0.1
v 3.2 1 0.1
v 2.6 1 -0.1
v 2.7 1 -0.1
v 3.1 1 -0.1
v 3.2 1 -0.1
v 2 1 -0.2
v 2.1 1 -0.2
v 3 1 -0.2
v 3.2 1 -0.2
v 2.7 1.1 0.1
v 2.8 1.1 0.1
v 2.7 1.1 -0.1
v 2.8 1.1 -0.1
v 3.2 1.2 0.3
v 3.3 1.2 0.3
v -3.7 1.2 0.2
v 0.3 1.2 0.2
v 0.5 1.2 0.2
v 0.7 1.2 0.2
v 1.1 1.2 0.2
v 3.2 1.2 0.2
v 3.3 1.2 0.2
v 2.8 1.2 0.1
v 2.9 1.2 0.1
v 2.8 1.2 -0.1
v 2.9 1.2 -0.1
v -3.7 1.2 -0.2
v 0.3 1.2 -0.2
v 0.5 1.2 -0.2
v 0.7 1.2 -0.2
v 1.1 1.2 -0.2
v 3.2 1.2 -0.2
v 3.3 1.2 -0.2
v 3.2 1.2 -0.3
v 3.3 1.2 -0.3
v -3.7 1.3 0.3
v 0.3 1.3 0.3
v 1.1 1.3 0.3
v -3.7 1.3 0.2
v 0.3 1.3 0.2
v 0.5 1.3 0.2
v 0.7 1.3 0.2
v 1.1 1.3 0.2
v 1.2 1.3 0.2
v -3.9 1.3 0.1
v -3.7 1.3 0.1
v 2.7 1.3 0.1
v 2.8 1.3 0.1
v -3.9 1.3 -0.1
v -3.7 1.3 -0.1
v 2.7 1.3 -0.1
v 2.8 1.3 -0.1
v -3.7 1.3 -0.2
v 0.3 1.3 -0.2
v 0.5 1.3 -0.2
v 0.7 1.3 -0.2
v 1.1 1.3 -0.2
v 1.2 1.3 -0.2
v -3.7 1.3 -0.3
v 0.3 1.3 -0.3
v 1.1 1.3 -0.3
v -3.7 1.4 0.4
v 0.3 1.4 0.4
v 0.5 1.4 0.4
v 0.7 1.4 0.4
v 1.1 1.4 0.4
v -3.7 1.4 0.3
v 0.3 1.4 0.3
v 0.5 1.4 0.3
v 0.7 1.4 0.3
v 1.1 1.4 0.3
v 1.2 1.4 0.3
v -3.9 1.4 0.2
v -3.7 1.4 0.2
v 1.1 1.4 0.2
v 1.2 1.4 0.2
v 2 1.4 0.2
v 2.2 1.4 0.2
v 3.1 1.4 0.2
v -3.9 1.4 0.1
v -3.7 1.4 0.1
v 2.7 1.4 0.1
v 2.9 1.4 0.1
v -3.9 1.4 -0.1
v -3.7 1.4 -0.1
v 2.7 1.4 -0.1
v 2.9 1.4 -0.1
v -3.9 1.4 -0.2
v -3.7 1.4 -0.2
v 1.1 1.4 -0.2
v 1.2 1.4 -0.2
v 2 1.4 -0.2
v 2.2 1.4 -0.2
v 3.1 1.4 -0.2
v -3.7 1.4 -0.3
v 0.3 1.4 -0.3
v 0.5 1.4 -0.3
v 0.7 1.4 -0.3
v 1.1 1.4 -0.3
v 1.2 1.4 -0.3
v -3.7 1.4 -0.4
v 0.3 1.4 -0.4
v 0.5 1.4 -0.4
v 0.7 1.4 -0.4
v 1.1 1.4 -0.4
v -3.9 1.5 0.3
v -3.7 1.5 0.3
v 1.2 1.5 0.3
v 3.2 1.5 0.3
v -3.9 1.5 0.2
v -3.7 1.5 0.2
v 1.2 1.5 0.2
v 3.2 1.5 0.2
v -3.9 1.5 -0.2
v -3.7 1.5 -0.2
v 1.2 1.5 -0.2
v 3.2 1.5 -0.2
v -3.9 1.5 -0.3
v -3.7 1.5 -0.3
v 1.2 1.5 -0.3
v 3.2 1.5 -0.3
v 1.1 1.6 0.4
v 2.6 1.6 0.4
v 3.4 1.6 0.4
v 3.5 1.6 0.4
v 1.1 1.6 0.3
v 2.6 1.6 0.3
v 3.4 1.6 0.3
v 3.5 1.6 0.3
v 1.1 1.6 -0.3
v 2.6 1.6 -0.3
v 3.4 1.6 -0.3
v 3.5 1.6 -0.3
v 1.1 1.6 -0.4
v 2.6 1.6 -0.4
v 3.4 1.6 -0.4
v 3.5 1.6 -0.4
v -4.1 1.8 0.1
v -3.9 1.8 0.1
v -4.1 1.8 -0.1
v -3.9 1.8 -0.1
v -4.1 1.9 0.2
v -3.7 1.9 0.2
v -4.1 1.9 0.1
v -3.7 1.9 0.1
v -4.1 1.9 -0.1
v -3.7 1.9 -0.1
v -4.1 1.9 -0.2
v -3.7 1.9 -0.2
v 0.7 2.3 0.1
v 1.1 2.3 0.1
v 0.7 2.3 -0.1
v 1.1 2.3 -0.1
v 3.2 0.7 0.3
v 3.3 0.7 0.3
v 3.9 0.7 0.3
v 4 0.7 0.3
v 3.1 0.7 0.2
v 3.2 0.7 0.2
v 3.3 0.7 0.2
v 3.9 0.7 0.2
v 4 0.7 0.2
v 4.1 0.7 0.2
v 3.1 0.7 0.1
v 3.2 0.7 0.1
v 4 0.7 0.1
v 4.1 0.7 0.1
v 3.1 0.7 -0.1
v 3.2 0.7 -0.1
v 4 0.7 -0.1
v 4.1 0.7 -0.1
v 3.1 0.7 -0.2
v 3.2 0.7 -0.2
v 3.3 0.7 -0.2
v 3.9 0.7 -0.2
v 4 0.7 -0.2
v 4.1 0.7 -0.2
v 3.2 0.7 -0.3
v 3.3 0.7 -0.3
v 3.9 0.7 -0.3
v 4 0.7 -0.3
v 3.6 0.9 0.3
v 3.9 0.9 0.3
v 2.5 0.9 0.2
v 2.8 0.9 0.2
v 3.6 0.9 0.2
v 3.9 0.9 0.2
v 4 0.9 0.2
v 3.9 0.9 0.1
v 4 0.9 0.1
v 4.1 0.9 0.1
v 3.9 0.9 -0.1
v 4 0.9 -0.1
v 4.1 0.9 -0.1
v 2.5 0.9 -0.2
v 2.8 0.9 -0.2
v 3.6 0.9 -0.2
v 3.9 0.9 -0.2
v 4 0.9 -0.2
v 3.6 0.9 -0.3
v 3.9 0.9 -0.3
v 2.4 1 0.2
v 2.5 1 0.2
v 2.8 1 0.2
v 2.9 1 0.2
v 2.4 1 -0.2
v 2.5 1 -0.2
v 2.8 1 -0.2
v 2.9 1 -0.2
v 2.2 1.1 0.2
v 2.4 1.1 0.2
v 2.9 1.1 0.2
v 3 1.1 0.2
v 3.8 1.1 0.2
v 3.9 1.1 0.2
v 2.6 1.1 0.1
v 2.7 1.1 0.1
v 3.8 1.1 0.1
v 3.9 1.1 0.1
v 4 1.1 0.1
v 2.6 1.1 -0.1
v 2.7 1.1 -0.1
v 3.8 1.1 -0.1
v 3.9 1.1 -0.1
v 4 1.1 -0.1
v 2.2 1.1 -0.2
v 2.4 1.1 -0.2
v 2.9 1.1 -0.2
v 3 1.1 -0.2
v 3.8 1.1 -0.2
v 3.9 1.1 -0.2
v 2.7 1.2 0.1
v 2.8 1.2 0.1
v 2.7 1.2 -0.1
v 2.8 1.2 -0.1
v 3 1.3 0.2
v 3.1 1.3 0.2
v 3 1.3 -0.2
v 3.1 1.3 -0.2
v 3.7 1.4 0.2
v 3.8 1.4 0.2
v 3.7 1.4 0.1
v 3.8 1.4 0.1
v 3.9 1.4 0.1
v 3.7 1.4 -0.1
v 3.8 1.4 -0.1
v 3.9 1.4 -0.1
v 3.7 1.4 -0.2
v 3.8 1.4 -0.2
v -3.9 1.7 0.3
v -3.7 1.7 0.3
v -3.9 1.7 0.2
v -3.7 1.7 0.2
v 3.7 1.7 0.1
v 3.8 1.7 0.1
v 3.7 1.7 -0.1
v 3.8 1.7 -0.1
v -3.9 1.7 -0.2
v -3.7 1.7 -0.2
v -3.9 1.7 -0.3
v -3.7 1.7 -0.3
v -3.7 1.8 0.4
v 0.3 1.8 0.4
v 0.5 1.8 0.4
v 0.7 1.8 0.4
v 1.1 1.8 0.4
v -3.7 1.8 0.3
v 0.3 1.8 0.3
v 0.5 1.8 0.3
v 0.7 1.8 0.3
v 1.1 1.8 0.3
v -3.9 1.8 0.2
v -3.7 1.8 0.2
v 3.6 1.8 0.2
v 3.7 1.8 0.2
v -3.9 1.8 0.1
v -3.7 1.8 0.1
v 3.6 1.8 0.1
v 3.7 1.8 0.1
v -3.9 1.8 -0.1
v -3.7 1.8 -0.1
v 3.6 1.8 -0.1
v 3.7 1.8 -0.1
v -3.9 1.8 -0.2
v -3.7 1.8 -0.2
v 3.6 1.8 -0.2
v 3.7 1.8 -0.2
v -3.7 1.8 -0.3
v 0.3 1.8 -0.3
v 0.5 1.8 -0.3
v 0.7 1.8 -0.3
v 1.1 1.8 -0.3
v -3.7 1.8 -0.4
v 0.3 1.8 -0.4
v 0.5 1.8 -0.4
v 0.7 1.8 -0.4
v 1.1 1.8 -0.4
v -3.7 1.9 0.3
v 1.1 1.9 0.3
v 3.5 1.9 0.3
v 3.6 1.9 0.3
v -3.7 1.9 0.2
v 0.3 1.9 0.2
v 0.5 1.9 0.2
v 0.7 1.9 0.2
v 1.1 1.9 0.2
v 3.5 1.9 0.2
v 3.6 1.9 0.2
v -3.7 1.9 -0.2
v 0.3 1.9 -0.2
v 0.5 1.9 -0.2
v 0.7 1.9 -0.2
v 1.1 1.9 -0.2
v 3.5 1.9 -0.2
v 3.6 1.9 -0.2
v -3.7 1.9 -0.3
v 1.1 1.9 -0.3
v 3.5 1.9 -0.3
v 3.6 1.9 -0.3
v 1.1 2 0.4
v 2.5 2 0.4
v 2.6 2 0.4
v 2.7 2 0.4
v 2.8 2 0.4
v 3.5 2 0.4
v 1.1 2 0.3
v 1.4 2 0.3
v 2.5 2 0.3
v 2.6 2 0.3
v 2.7 2 0.3
v 2.8 2 0.3
v 2.9 2 0.3
v 3.5 2 0.3
v 3.5 2 0.2
v 3.6 2 0.2
v 3.5 2 0.1
v 3.6 2 0.1
v 3.7 2 0.1
v 3.5 2 -0.1
v 3.6 2 -0.1
v 3.7 2 -0.1
v 3.5 2 -0.2
v 3.6 2 -0.2
v 1.1 2 -0.3
v 1.4 2 -0.3
v 2.5 2 -0.3
v 2.6 2 -0.3
v 2.7 2 -0.3
v 2.8 2 -0.3
v 2.9 2 -0.3
v 3.5 2 -0.3
v 1.1 2 -0.4
v 2.5 2 -0.4
v 2.6 2 -0.4
v 2.7 2 -0.4
v 2.8 2 -0.4
v 3.5 2 -0.4
v -4.1 2.1 0.2
v 0.3 2.1 0.2
v 0.5 2.1 0.2
v 0.7 2.1 0.2
v 1.1 2.1 0.2
v -4.1 2.1 0.1
v 0.3 2.1 0.1
v 0.5 2.1 0.1
v 0.7 2.1 0.1
v 1.1 2.1 0.1
v 3.5 2.1 0.1
v 3.6 2.1 0.1
v -4.1 2.1 -0.1
v 0.3 2.1 -0.1
v 0.5 2.1 -0.1
v 0.7 2.1 -0.1
v 1.1 2.1 -0.1
v 3.5 2.1 -0.1
v 3.6 2.1 -0.1
v -4.1 2.1 -0.2
v 0.3 2.1 -0.2
v 0.5 2.1 -0.2
v 0.7 2.1 -0.2
v 1.1 2.1 -0.2
v 1.1 2.2 0.3
v 1.4 2.2 0.3
v 2.9 2.2 0.3
v 3.5 2.2 0.3
v 1.1 2.2 0.2
v 1.4 2.2 0.2
v 2.9 2.2 0.2
v 3.4 2.2 0.2
v -4.1 2.2 0.1
v 0.3 2.2 0.1
v 0.5 2.2 0.1
v 0.7 2.2 0.1
v 1.1 2.2 0.1
v -4.1 2.2 -0.1
v 0.3 2.2 -0.1
v 0.5 2.2 -0.1
v 0.7 2.2 -0.1
v 1.1 2.2 -0.1
v 1.1 2.2 -0.2
v 1.4 2.2 -0.2
v 2.9 2.2 -0.2
v 3.4 2.2 -0.2
v 1.1 2.2 -0.3
v 1.4 2.2 -0.3
v 2.9 2.2 -0.3
v 3.5 2.2 -0.3
v 1.1 2.3 0.2
v 3.4 2.3 0.2
v 1.1 2.3 0.1
v 3.3 2.3 0.1
v 1.1 2.3 -0.1
v 3.3 2.3 -0.1
v 1.1 2.3 -0.2
v 3.4 2.3 -0.2
v 0.7 2.4 0.1
v 3.3 2.4 0.1
v 0.7 2.4 -0.1
v 3.3 2.4 -0.1

# faces
f 4/4/1 2/4/1 1/4/1
f 5/4/1 2/4/1 4/4/1
f 7/4/1 4/4/1 3/4/1
f 8/5/1 5/5/1 4/5/1
f 8/4/1 4/4/1 7/4/1
f 9/4/1 6/4/1 5/4/1
f 9/5/1 5/5/1 8/5/1
f 10/4/1 6/4/1 9/4/1
f 11/4/1 9/4/1 8/4/1
f 12/4/1 9/4/1 11/4/1
f 16/4/1 14/4/1 13/4/1
f 17/4/1 14/4/1 16/4/1
f 20/4/1 16/4/1 15/4/1
f 21/5/1 17/5/1 16/5/1
f 21/4/1 16/4/1 20/4/1
f 22/4/1 18/4/1 17/4/1
f 22/5/1 17/5/1 21/5/1
f 23/4/1 18/4/1 22/4/1
f 25/4/1 20/4/1 19/4/1
f 26/5/1 21/5/1 20/5/1
f 26/4/1 20/4/1 25/4/1
f 26/5/1 22/5/1 21/5/1
f 26/5/1 23/5/1 22/5/1
f 27/5/1 23/5/1 26/5/1
f 28/5/1 23/5/1 27/5/1
f 29/4/1 24/4/1 23/4/1
f 29/5/1 23/5/1 28/5/1
f 30/4/1 24/4/1 29/4/1
f 31/4/1 27/4/1 26/4/1
f 32/5/1 28/5/1 27/5/1
f 32/4/1 27/4/1 31/4/1
f 33/4/1 29/4/1 28/4/1
f 33/5/1 28/5/1 32/5/1
f 34/4/1 29/4/1 33/4/1
f 38/4/1 36/4/1 35/4/1
f 39/4/1 36/4/1 38/4/1
f 40/4/1 36/4/1 39/4/1
f 41/4/1 36/4/1 40/4/1
f 44/4/1 38/4/1 37/4/1
f 44/4/1 39/4/1 38/4/1
f 45/4/1 39/4/1 44/4/1
f 46/4/1 39/4/1 45/4/1
f 47/4/1 41/4/1 40/4/1
f 47/4/1 42/4/1 41/4/1
f 48/4/1 42/4/1 47/4/1
f 49/4/1 42/4/1 48/4/1
f 51/4/1 45/4/1 44/4/1
f 51/4/1 44/4/1 43/4/1
f 52/4/1 45/4/1 51/4/1
f 53/4/1 50/4/1 49/4/1
f 53/4/1 49/4/1 48/4/1
f 54/4/1 50/4/1 53/4/1
f 55/4/1 51/4/1 43/4/1
f 58/4/1 50/4/1 54/4/1
f 59/4/1 56/4/1 55/4/1
f 59/4/1 55/4/1 43/4/1
f 60/4/1 56/4/1 59/4/1
f 61/4/1 56/4/1 60/4/1
f 64/4/1 58/4/1 57/4/1
f 65/4/1 50/4/1 58/4/1
f 65/4/1 58/4/1 64/4/1
f 66/4/1 50/4/1 65/4/1
f 67/2/1 62/2/1 61/2/1
f 67/2/1 61/2/1 60/2/1
f 68/2/1 62/2/1 67/2/1
f 69/2/1 62/2/1 68/2/1
f 70/2/1 64/2/1 63/2/1
f 70/2/1 65/2/1 64/2/1
f 71/2/1 65/2/1 70/2/1
f 72/2/1 65/2/1 71/2/1
f 75/4/1 74/4/1 73/4/1
f 76/4/1 74/4/1 75/4/1
f 81/3/1 78/3/1 77/3/1
f 84/3/1 80/3/1 79/3/1
f 85/3/1 82/3/1 81/3/1
f 85/3/1 81/3/1 77/3/1
f 86/3/1 82/3/1 85/3/1
f 87/3/1 84/3/1 83/3/1
f 87/3/1 80/3/1 84/3/1
f 88/3/1 80/3/1 87/3/1
f 89/3/1 82/3/1 86/3/1
f 92/3/1 87/3/1 83/3/1
f 93/3/1 90/3/1 89/3/1
f 93/3/1 89/3/1 86/3/1
f 94/3/1 90/3/1 93/3/1
f 95/3/1 90/3/1 94/3/1
f 96/3/1 92/3/1 91/3/1
f 97/3/1 87/3/1 92/3/1
f 97/3/1 92/3/1 96/3/1
f 98/3/1 87/3/1 97/3/1
f 99/3/1 95/3/1 94/3/1
f 99/3/1 96/3/1 95/3/1
f 99/3/1 97/3/1 96/3/1
f 100/3/1 97/3/1 99/3/1
f 101/3/1 97/3/1 100/3/1
f 102/3/1 97/3/1 101/3/1
f 105/4/1 104/4/1 103/4/1
f 106/4/1 104/4/1 105/4/1
f 109/4/1 108/4/1 107/4/1
f 110/4/1 108/4/1 109/4/1
f 113/4/1 112/4/1 111/4/1
f 114/4/1 112/4/1 113/4/1
f 117/4/1 116/4/1 115/4/1
f 118/4/1 116/4/1 117/4/1
f 121/4/1 120/4/1 119/4/1
f 122/4/1 120/4/1 121/4/1
f 125/4/1 124/4/1 123/4/1
f 126/4/1 124/4/1 125/4/1
f 129/4/1 128/4/1 127/4/1
f 130/4/1 128/4/1 129/4/1
f 133/4/1 132/4/1 131/4/1
f 134/4/1 132/4/1 133/4/1
f 137/4/1 136/4/1 135/4/1
f 138/4/1 136/4/1 137/4/1
f 141/4/1 140/4/1 139/4/1
f 142/4/1 140/4/1 141/4/1
f 146/4/1 144/4/1 143/4/1
f 147/4/1 144/4/1 146/4/1
f 149/4/1 146/4/1 145/4/1
f 149/4/1 148/4/1 147/4/1
f 149/4/1 147/4/1 146/4/1
f 150/4/1 148/4/1 149/4/1
f 151/4/1 148/4/1 150/4/1
f 152/4/1 148/4/1 151/4/1
f 153/4/1 151/4/1 150/4/1
f 154/4/1 151/4/1 153/4/1
f 157/4/1 156/4/1 155/4/1
f 158/4/1 156/4/1 157/4/1
f 161/4/1 160/4/1 159/4/1
f 162/4/1 160/4/1 161/4/1
f 164/4/1 161/4/1 159/4/1
f 165/4/1 161/4/1 164/4/1
f 166/4/1 160/4/1 162/4/1
f 167/4/1 160/4/1 166/4/1
f 169/4/1 164/4/1 163/4/1
f 170/4/1 164/4/1 169/4/1
f 173/4/1 168/4/1 167/4/1
f 174/4/1 168/4/1 173/4/1
f 175/4/1 171/4/1 170/4/1
f 176/4/1 171/4/1 175/4/1
f 177/4/1 173/4/1 172/4/1
f 178/4/1 173/4/1 177/4/1
f 183/4/1 180/4/1 179/4/1
f 184/4/1 180/4/1 183/4/1
f 185/4/1 182/4/1 181/4/1
f 186/4/1 182/4/1 185/4/1
f 191/4/1 188/4/1 187/4/1
f 192/4/1 188/4/1 191/4/1
f 193/4/1 190/4/1 189/4/1
f 194/4/1 190/4/1 193/4/1
f 199/4/1 196/4/1 195/4/1
f 200/4/1 196/4/1 199/4/1
f 201/4/1 198/4/1 197/4/1
f 202/4/1 198/4/1 201/4/1
f 203/2/2 204/2/2 206/2/2
f 206/2/2 204/2/2 207/2/2
f 205/2/2 206/2/2 210/2/2
f 210/2/2 206/2/2 211/2/2
f 207/2/2 208/2/2 212/2/2
f 212/2/2 208/2/2 213/2/2
f 209/2/2 210/2/2 215/2/2
f 213/2/2 214/2/2 216/2/2
f 209/2/2 215/2/2 217/2/2
f 217/2/2 215/2/2 218/2/2
f 216/2/2 214/2/2 219/2/2
f 219/2/2 214/2/2 220/2/2
f 221/4/2 222/4/2 224/4/2
f 224/4/2 222/4/2 225/4/2
f 223/4/2 224/4/2 227/4/2
f 227/4/2 224/4/2 228/4/2
f 225/4/2 226/4/2 229/4/2
f 229/4/2 226/4/2 230/4/2
f 231/4/2 232/4/2 233/4/2
f 233/4/2 232/4/2 234/4/2
f 235/4/2 236/4/2 237/4/2
f 237/4/2 236/4/2 238/4/2
f 239/4/2 240/4/2 241/4/2
f 241/4/2 240/4/2 242/4/2
f 243/4/2 244/4/2 245/4/2
f 245/4/2 244/4/2 246/4/2
f 247/4/2 248/4/2 249/4/2
f 249/4/2 248/4/2 250/4/2
f 251/4/2 252/4/2 253/4/2
f 253/4/2 252/4/2 254/4/2
f 255/4/2 256/4/2 257/4/2
f 257/4/2 256/4/2 258/4/2
f 259/4/2 260/4/2 261/4/2
f 261/4/2 260/4/2 262/4/2
f 263/4/2 264/4/2 265/4/2
f 265/4/2 264/4/2 266/4/2
f 267/3/2 268/3/2 269/3/2
f 269/3/2 268/3/2 270/3/2
f 271/3/2 272/3/2 275/3/2
f 273/3/2 274/3/2 278/3/2
f 275/3/2 276/3/2 279/3/2
f 271/3/2 275/3/2 279/3/2
f 279/3/2 276/3/2 280/3/2
f 280/3/2 276/3/2 281/3/2
f 277/3/2 278/3/2 284/3/2
f 278/3/2 274/3/2 285/3/2
f 284/3/2 278/3/2 285/3/2
f 285/3/2 274/3/2 286/3/2
f 281/3/2 282/3/2 287/3/2
f 280/3/2 281/3/2 287/3/2
f 283/3/2 284/3/2 288/3/2
f 284/3/2 285/3/2 288/3/2
f 280/3/2 287/3/2 289/3/2
f 287/3/2 288/3/2 289/3/2
f 288/3/2 285/3/2 290/3/2
f 289/3/2 288/3/2 290/3/2
f 291/4/2 292/4/2 295/4/2
f 293/4/2 294/4/2 298/4/2
f 295/4/2 296/4/2 299/4/2
f 291/4/2 295/4/2 299/4/2
f 299/4/2 296/4/2 300/4/2
f 297/4/2 298/4/2 301/4/2
f 298/4/2 294/4/2 301/4/2
f 301/4/2 294/4/2 302/4/2
f 300/4/2 296/4/2 303/4/2
f 303/4/2 296/4/2 304/4/2
f 297/4/2 301/4/2 305/4/2
f 305/4/2 301/4/2 306/4/2
f 304/4/2 305/4/2 307/4/2
f 307/4/2 305/4/2 308/4/2
f 309/4/2 310/4/2 313/4/2
f 311/4/2 312/4/2 314/4/2
f 309/4/2 313/4/2 315/4/2
f 313/4/2 314/4/2 315/4/2
f 315/4/2 314/4/2 316/4/2
f 314/4/2 312/4/2 317/4/2
f 316/4/2 314/4/2 317/4/2
f 317/4/2 312/4/2 318/4/2
f 316/4/2 317/4/2 319/4/2
f 319/4/2 317/4/2 320/4/2
f 321/4/2 322/4/2 325/4/2
f 325/4/2 322/4/2 326/4/2
f 323/4/2 324/4/2 327/4/2
f 327/4/2 324/4/2 328/4/2
f 326/4/2 327/4/2 329/4/2
f 329/4/2 327/4/2 330/4/2
f 331/4/2 332/4/2 335/4/2
f 335/4/2 332/4/2 336/4/2
f 333/4/2 334/4/2 337/4/2
f 337/4/2 334/4/2 338/4/2
f 339/4/2 340/4/2 343/4/2
f 343/4/2 340/4/2 344/4/2
f 341/4/2 342/4/2 347/4/2
f 347/4/2 342/4/2 348/4/2
f 344/4/2 345/4/2 349/4/2
f 349/4/2 345/4/2 350/4/2
f 346/4/2 347/4/2 351/4/2
f 351/4/2 347/4/2 352/4/2
f 350/4/2 351/4/2 353/4/2
f 353/4/2 351/4/2 354/4/2
f 355/4/2 356/4/2 357/4/2
f 357/4/2 356/4/2 358/4/2
f 355/4/2 357/4/2 360/4/2
f 360/4/2 357/4/2 361/4/2
f 358/4/2 356/4/2 362/4/2
f 362/4/2 356/4/2 363/4/2
f 359/4/2 360/4/2 365/4/2
f 365/4/2 360/4/2 366/4/2
f 363/4/2 364/4/2 369/4/2
f 369/4/2 364/4/2 370/4/2
f 366/4/2 367/4/2 371/4/2
f 371/4/2 367/4/2 372/4/2
f 368/4/2 369/4/2 373/4/2
f 373/4/2 369/4/2 374/4/2
f 372/4/2 373/4/2 375/4/2
f 375/4/2 373/4/2 376/4/2
f 377/4/2 378/4/2 380/4/2
f 380/4/2 378/4/2 381/4/2
f 379/4/2 380/4/2 383/4/2
f 381/4/2 382/4/2 383/4/2
f 380/4/2 381/4/2 383/4/2
f 383/4/2 382/4/2 384/4/2
f 384/4/2 382/4/2 385/4/2
f 385/4/2 382/4/2 386/4/2
f 384/4/2 385/4/2 387/4/2
f 387/4/2 385/4/2 388/4/2
f 391/4/3 390/4/3 389/4/3
f 392/4/3 390/4/3 391/4/3
f 393/2/3 392/2/3 391/2/3
f 394/2/3 392/2/3 393/2/3
f 395/4/3 394/4/3 393/4/3
f 396/4/3 394/4/3 395/4/3
f 397/2/3 396/2/3 395/2/3
f 398/2/3 396/2/3 397/2/3
f 399/2/3 396/2/3 398/2/3
f 401/3/3 399/3/3 398/3/3
f 401/3/3 400/3/3 399/3/3
f 402/3/3 400/3/3 401/3/3
f 403/3/3 401/3/3 398/3/3
f 404/2/3 402/2/3 401/2/3
f 404/3/3 401/3/3 403/3/3
f 405/2/3 402/2/3 404/2/3
f 406/1/3 404/1/3 403/1/3
f 407/3/3 405/3/3 404/3/3
f 407/1/3 404/1/3 406/1/3
f 408/3/3 405/3/3 407/3/3
f 409/1/3 406/1/3 403/1/3
f 409/3/3 407/3/3 406/3/3
f 410/2/3 408/2/3 407/2/3
f 410/3/3 407/3/3 409/3/3
f 411/2/3 408/2/3 410/2/3
f 412/1/3 409/1/3 403/1/3
f 412/1/3 410/1/3 409/1/3
f 413/3/3 411/3/3 410/3/3
f 413/1/3 410/1/3 412/1/3
f 414/1/3 412/1/3 403/1/3
f 415/3/3 413/3/3 412/3/3
f 415/1/3 412/1/3 414/1/3
f 416/3/3 415/3/3 414/3/3
f 417/3/3 411/3/3 413/3/3
f 417/3/3 415/3/3 416/3/3
f 417/3/3 413/3/3 415/3/3
f 422/4/3 419/4/3 418/4/3
f 423/4/3 419/4/3 422/4/3
f 426/4/3 421/4/3 420/4/3
f 427/4/3 421/4/3 426/4/3
f 428/2/3 425/2/3 424/2/3
f 429/2/3 427/2/3 426/2/3
f 430/2/3 425/2/3 428/2/3
f 431/2/3 429/2/3 426/2/3
f 432/2/3 425/2/3 430/2/3
f 433/2/3 431/2/3 426/2/3
f 434/2/3 431/2/3 433/2/3
f 437/2/3 425/2/3 432/2/3
f 438/2/3 425/2/3 437/2/3
f 441/4/3 435/4/3 434/4/3
f 442/3/3 436/3/3 435/3/3
f 442/4/3 435/4/3 441/4/3
f 443/3/3 440/3/3 439/3/3
f 444/3/3 440/3/3 443/3/3
f 445/2/3 444/2/3 443/2/3
f 446/3/3 436/3/3 442/3/3
f 447/2/3 444/2/3 445/2/3
f 448/2/3 444/2/3 447/2/3
f 449/2/3 444/2/3 448/2/3
f 450/2/3 444/2/3 449/2/3
f 451/2/3 444/2/3 450/2/3
f 455/3/3 446/3/3 442/3/3
f 457/4/3 453/4/3 452/4/3
f 458/4/3 453/4/3 457/4/3
f 459/4/3 455/4/3 454/4/3
f 460/3/3 446/3/3 455/3/3
f 461/4/3 458/4/3 457/4/3
f 461/4/3 459/4/3 458/4/3
f 461/3/3 460/3/3 455/3/3
f 461/4/3 455/4/3 459/4/3
f 461/4/3 457/4/3 456/4/3
f 462/3/3 460/3/3 461/3/3
f 464/3/3 451/3/3 450/3/3
f 465/3/3 451/3/3 464/3/3
f 466/4/3 462/4/3 461/4/3
f 466/4/3 463/4/3 462/4/3
f 466/4/3 461/4/3 456/4/3
f 467/4/3 463/4/3 466/4/3
f 468/4/3 466/4/3 456/4/3
f 469/4/3 466/4/3 468/4/3
f 470/4/3 466/4/3 469/4/3
f 471/4/3 466/4/3 470/4/3
f 472/4/3 470/4/3 469/4/3
f 473/4/3 470/4/3 472/4/3
f 482/4/3 477/4/3 476/4/3
f 483/4/3 477/4/3 482/4/3
f 484/4/3 479/4/3 478/4/3
f 485/4/3 479/4/3 484/4/3
f 486/4/3 475/4/3 474/4/3
f 487/4/3 481/4/3 480/4/3
f 488/4/3 481/4/3 487/4/3
f 489/4/3 475/4/3 486/4/3
f 490/4/3 475/4/3 489/4/3
f 491/2/3 488/2/3 487/2/3
f 492/2/3 488/2/3 491/2/3
f 493/2/3 490/2/3 489/2/3
f 494/2/3 490/2/3 493/2/3
f 495/4/3 492/4/3 491/4/3
f 496/4/3 492/4/3 495/4/3
f 497/4/3 494/4/3 493/4/3
f 498/4/3 494/4/3 497/4/3
f 499/2/3 496/2/3 495/2/3
f 500/2/3 496/2/3 499/2/3
f 502/2/3 498/2/3 497/2/3
f 503/2/3 498/2/3 502/2/3
f 506/4/3 501/4/3 500/4/3
f 507/4/3 501/4/3 506/4/3
f 509/3/3 505/3/3 504/3/3
f 511/4/3 508/4/3 507/4/3
f 513/4/3 511/4/3 510/4/3
f 514/4/3 511/4/3 513/4/3
f 514/4/3 513/4/3 512/4/3
f 515/4/3 508/4/3 511/4/3
f 515/4/3 511/4/3 514/4/3
f 517/4/3 514/4/3 512/4/3
f 518/4/3 514/4/3 517/4/3
f 518/4/3 517/4/3 516/4/3
f 519/4/3 514/4/3 518/4/3
f 520/4/3 518/4/3 516/4/3
f 521/4/3 518/4/3 520/4/3
f 522/4/3 520/4/3 516/4/3
f 524/4/3 522/4/3 516/4/3
f 524/4/3 523/4/3 522/4/3
f 525/4/3 523/4/3 524/4/3
f 526/4/3 523/4/3 525/4/3
f 528/3/3 505/3/3 509/3/3
f 529/4/3 527/4/3 526/4/3
f 529/4/3 526/4/3 525/4/3
f 530/4/3 527/4/3 529/4/3
f 531/4/3 527/4/3 530/4/3
f 535/4/3 532/4/3 531/4/3
f 535/4/3 531/4/3 530/4/3
f 536/4/3 508/4/3 515/4/3
f 538/4/3 534/4/3 533/4/3
f 539/4/3 534/4/3 538/4/3
f 540/4/3 535/4/3 530/4/3
f 540/4/3 536/4/3 535/4/3
f 541/4/3 536/4/3 540/4/3
f 542/4/3 508/4/3 536/4/3
f 542/4/3 536/4/3 541/4/3
f 543/4/3 538/4/3 537/4/3
f 544/4/3 538/4/3 543/4/3
f 545/4/3 540/4/3 539/4/3
f 545/4/3 541/4/3 540/4/3
f 546/4/3 541/4/3 545/4/3
f 547/3/3 505/3/3 528/3/3
f 548/3/3 505/3/3 547/3/3
f 553/4/3 550/4/3 549/4/3
f 554/4/3 550/4/3 553/4/3
f 555/4/3 552/4/3 551/4/3
f 556/4/3 552/4/3 555/4/3
f 557/4/3 555/4/3 551/4/3
f 558/4/3 555/4/3 557/4/3
f 559/4/3 543/4/3 537/4/3
f 562/4/3 557/4/3 551/4/3
f 563/4/3 557/4/3 562/4/3
f 564/4/3 560/4/3 559/4/3
f 564/4/3 559/4/3 537/4/3
f 565/4/3 560/4/3 564/4/3
f 566/4/3 562/4/3 561/4/3
f 567/4/3 562/4/3 566/4/3
f 568/4/3 566/4/3 565/4/3
f 569/4/3 566/4/3 568/4/3
f 576/4/3 571/4/3 570/4/3
f 577/4/3 575/4/3 574/4/3
f 578/4/3 575/4/3 577/4/3
f 579/4/3 571/4/3 576/4/3
f 580/4/3 571/4/3 579/4/3
f 581/4/3 573/4/3 572/4/3
f 582/4/3 573/4/3 581/4/3
f 583/2/3 582/2/3 581/2/3
f 584/2/3 582/2/3 583/2/3
f 585/4/3 584/4/3 583/4/3
f 586/4/3 584/4/3 585/4/3
f 589/2/3 586/2/3 585/2/3
f 590/2/3 586/2/3 589/2/3
f 591/4/3 588/4/3 587/4/3
f 594/4/3 593/4/3 592/4/3
f 595/4/3 593/4/3 594/4/3
f 599/4/3 596/4/3 595/4/3
f 600/4/3 596/4/3 599/4/3
f 601/4/3 598/4/3 597/4/3
f 602/4/3 601/4/3 600/4/3
f 603/4/3 598/4/3 601/4/3
f 603/4/3 601/4/3 602/4/3
f 608/4/3 605/4/3 604/4/3
f 609/4/3 605/4/3 608/4/3
f 610/4/3 607/4/3 606/4/3
f 611/4/3 607/4/3 610/4/3
f 612/4/3 588/4/3 591/4/3
f 613/4/3 588/4/3 612/4/3
f 617/4/3 615/4/3 614/4/3
f 618/4/3 615/4/3 617/4/3
f 621/4/3 617/4/3 616/4/3
f 622/4/3 617/4/3 621/4/3
f 624/4/3 620/4/3 619/4/3
f 625/4/3 620/4/3 624/4/3
f 627/4/3 624/4/3 623/4/3
f 628/4/3 624/4/3 627/4/3
f 632/4/3 627/4/3 626/4/3
f 633/4/3 627/4/3 632/4/3
f 634/4/3 630/4/3 629/4/3
f 635/4/3 630/4/3 634/4/3
f 636/4/3 632/4/3 631/4/3
f 637/4/3 632/4/3 636/4/3
f 638/4/4 639/4/4 644/4/4
f 642/4/4 643/4/4 645/4/4
f 645/4/4 643/4/4 646/4/4
f 644/4/4 639/4/4 647/4/4
f 647/4/4 639/4/4 648/4/4
f 640/4/4 641/4/4 649/4/4
f 649/4/4 641/4/4 650/4/4
f 649/2/4 650/2/4 651/2/4
f 651/2/4 650/2/4 652/2/4
f 651/4/4 652/4/4 653/4/4
f 653/4/4 652/4/4 654/4/4
f 653/2/4 654/2/4 657/2/4
f 657/2/4 654/2/4 658/2/4
f 655/4/4 656/4/4 659/4/4
f 660/4/4 661/4/4 662/4/4
f 662/4/4 661/4/4 663/4/4
f 663/4/4 664/4/4 667/4/4
f 667/4/4 664/4/4 668/4/4
f 665/4/4 666/4/4 669/4/4
f 668/4/4 669/4/4 670/4/4
f 669/4/4 666/4/4 671/4/4
f 670/4/4 669/4/4 671/4/4
f 672/4/4 673/4/4 676/4/4
f 676/4/4 673/4/4 677/4/4
f 674/4/4 675/4/4 678/4/4
f 678/4/4 675/4/4 679/4/4
f 659/4/4 656/4/4 680/4/4
f 680/4/4 656/4/4 681/4/4
f 682/4/4 683/4/4 685/4/4
f 685/4/4 683/4/4 686/4/4
f 684/4/4 685/4/4 689/4/4
f 689/4/4 685/4/4 690/4/4
f 687/4/4 688/4/4 692/4/4
f 692/4/4 688/4/4 693/4/4
f 691/4/4 692/4/4 695/4/4
f 695/4/4 692/4/4 696/4/4
f 694/4/4 695/4/4 700/4/4
f 700/4/4 695/4/4 701/4/4
f 697/4/4 698/4/4 702/4/4
f 702/4/4 698/4/4 703/4/4
f 699/4/4 700/4/4 704/4/4
f 704/4/4 700/4/4 705/4/4
f 708/4/4 709/4/4 714/4/4
f 714/4/4 709/4/4 715/4/4
f 710/4/4 711/4/4 716/4/4
f 716/4/4 711/4/4 717/4/4
f 706/4/4 707/4/4 718/4/4
f 712/4/4 713/4/4 719/4/4
f 719/4/4 713/4/4 720/4/4
f 718/4/4 707/4/4 721/4/4
f 721/4/4 707/4/4 722/4/4
f 719/2/4 720/2/4 723/2/4
f 723/2/4 720/2/4 724/2/4
f 721/2/4 722/2/4 725/2/4
f 725/2/4 722/2/4 726/2/4
f 723/4/4 724/4/4 727/4/4
f 727/4/4 724/4/4 728/4/4
f 725/4/4 726/4/4 729/4/4
f 729/4/4 726/4/4 730/4/4
f 727/2/4 728/2/4 731/2/4
f 731/2/4 728/2/4 732/2/4
f 729/2/4 730/2/4 734/2/4
f 734/2/4 730/2/4 735/2/4
f 732/4/4 733/4/4 738/4/4
f 738/4/4 733/4/4 739/4/4
f 736/3/4 737/3/4 741/3/4
f 739/4/4 740/4/4 743/4/4
f 742/4/4 743/4/4 745/4/4
f 745/4/4 743/4/4 746/4/4
f 744/4/4 745/4/4 746/4/4
f 743/4/4 740/4/4 747/4/4
f 746/4/4 743/4/4 747/4/4
f 744/4/4 746/4/4 749/4/4
f 749/4/4 746/4/4 750/4/4
f 748/4/4 749/4/4 750/4/4
f 750/4/4 746/4/4 751/4/4
f 748/4/4 750/4/4 752/4/4
f 752/4/4 750/4/4 753/4/4
f 748/4/4 752/4/4 754/4/4
f 748/4/4 754/4/4 756/4/4
f 754/4/4 755/4/4 756/4/4
f 756/4/4 755/4/4 757/4/4
f 757/4/4 755/4/4 758/4/4
f 741/3/4 737/3/4 760/3/4
f 758/4/4 759/4/4 761/4/4
f 757/4/4 758/4/4 761/4/4
f 761/4/4 759/4/4 762/4/4
f 762/4/4 759/4/4 763/4/4
f 763/4/4 764/4/4 767/4/4
f 762/4/4 763/4/4 767/4/4
f 747/4/4 740/4/4 768/4/4
f 765/4/4 766/4/4 770/4/4
f 770/4/4 766/4/4 771/4/4
f 762/4/4 767/4/4 772/4/4
f 767/4/4 768/4/4 772/4/4
f 772/4/4 768/4/4 773/4/4
f 768/4/4 740/4/4 774/4/4
f 773/4/4 768/4/4 774/4/4
f 769/4/4 770/4/4 775/4/4
f 775/4/4 770/4/4 776/4/4
f 771/4/4 772/4/4 777/4/4
f 772/4/4 773/4/4 777/4/4
f 777/4/4 773/4/4 778/4/4
f 760/3/4 737/3/4 779/3/4
f 779/3/4 737/3/4 780/3/4
f 781/4/4 782/4/4 785/4/4
f 785/4/4 782/4/4 786/4/4
f 783/4/4 784/4/4 787/4/4
f 787/4/4 784/4/4 788/4/4
f 783/4/4 787/4/4 789/4/4
f 789/4/4 787/4/4 790/4/4
f 769/4/4 775/4/4 791/4/4
f 783/4/4 789/4/4 794/4/4
f 794/4/4 789/4/4 795/4/4
f 791/4/4 792/4/4 796/4/4
f 769/4/4 791/4/4 796/4/4
f 796/4/4 792/4/4 797/4/4
f 793/4/4 794/4/4 798/4/4
f 798/4/4 794/4/4 799/4/4
f 797/4/4 798/4/4 800/4/4
f 800/4/4 798/4/4 801/4/4
f 802/4/4 803/4/4 806/4/4
f 806/4/4 803/4/4 807/4/4
f 804/4/4 805/4/4 810/4/4
f 810/4/4 805/4/4 811/4/4
f 808/2/4 809/2/4 812/2/4
f 810/2/4 811/2/4 813/2/4
f 812/2/4 809/2/4 814/2/4
f 810/2/4 813/2/4 815/2/4
f 814/2/4 809/2/4 816/2/4
f 810/2/4 815/2/4 817/2/4
f 817/2/4 815/2/4 818/2/4
f 816/2/4 809/2/4 821/2/4
f 821/2/4 809/2/4 822/2/4
f 818/4/4 819/4/4 825/4/4
f 819/3/4 820/3/4 826/3/4
f 825/4/4 819/4/4 826/4/4
f 823/3/4 824/3/4 827/3/4
f 827/3/4 824/3/4 828/3/4
f 827/2/4 828/2/4 829/2/4
f 826/3/4 820/3/4 830/3/4
f 829/2/4 828/2/4 831/2/4
f 831/2/4 828/2/4 832/2/4
f 832/2/4 828/2/4 833/2/4
f 833/2/4 828/2/4 834/2/4
f 834/2/4 828/2/4 835/2/4
f 826/3/4 830/3/4 839/3/4
f 836/4/4 837/4/4 841/4/4
f 841/4/4 837/4/4 842/4/4
f 838/4/4 839/4/4 843/4/4
f 839/3/4 830/3/4 844/3/4
f 841/4/4 842/4/4 845/4/4
f 842/4/4 843/4/4 845/4/4
f 839/3/4 844/3/4 845/3/4
f 843/4/4 839/4/4 845/4/4
f 840/4/4 841/4/4 845/4/4
f 845/3/4 844/3/4 846/3/4
f 834/3/4 835/3/4 848/3/4
f 848/3/4 835/3/4 849/3/4
f 845/4/4 846/4/4 850/4/4
f 846/4/4 847/4/4 850/4/4
f 840/4/4 845/4/4 850/4/4
f 850/4/4 847/4/4 851/4/4
f 840/4/4 850/4/4 852/4/4
f 852/4/4 850/4/4 853/4/4
f 853/4/4 850/4/4 854/4/4
f 854/4/4 850/4/4 855/4/4
f 853/4/4 854/4/4 856/4/4
f 856/4/4 854/4/4 857/4/4
f 858/4/4 859/4/4 860/4/4
f 860/4/4 859/4/4 861/4/4
f 860/2/4 861/2/4 862/2/4
f 862/2/4 861/2/4 863/2/4
f 862/4/4 863/4/4 864/4/4
f 864/4/4 863/4/4 865/4/4
f 864/2/4 865/2/4 866/2/4
f 866/2/4 865/2/4 867/2/4
f 867/2/4 865/2/4 868/2/4
f 867/3/4 868/3/4 870/3/4
f 868/3/4 869/3/4 870/3/4
f 870/3/4 869/3/4 871/3/4
f 867/3/4 870/3/4 872/3/4
f 870/2/4 871/2/4 873/2/4
f 872/3/4 870/3/4 873/3/4
f 873/2/4 871/2/4 874/2/4
f 872/1/4 873/1/4 875/1/4
f 873/3/4 874/3/4 876/3/4
f 875/1/4 873/1/4 876/1/4
f 876/3/4 874/3/4 877/3/4
f 872/1/4 875/1/4 878/1/4
f 875/3/4 876/3/4 878/3/4
f 876/2/4 877/2/4 879/2/4
f 878/3/4 876/3/4 879/3/4
f 879/2/4 877/2/4 880/2/4
f 872/1/4 878/1/4 881/1/4
f 878/1/4 879/1/4 881/1/4
f 879/3/4 880/3/4 882/3/4
f 881/1/4 879/1/4 882/1/4
f 872/1/4 881/1/4 883/1/4
f 881/3/4 882/3/4 884/3/4
f 883/1/4 881/1/4 884/1/4
f 883/3/4 884/3/4 885/3/4
f 882/3/4 880/3/4 886/3/4
f 885/3/4 884/3/4 886/3/4
f 884/3/4 882/3/4 886/3/4
f 889/4/5 888/4/5 887/4/5
f 890/4/5 888/4/5 889/4/5
f 893/4/5 892/4/5 891/4/5
f 894/4/5 892/4/5 893/4/5
f 899/4/5 896/4/5 895/4/5
f 900/4/5 896/4/5 899/4/5
f 901/4/5 898/4/5 897/4/5
f 902/4/5 898/4/5 901/4/5
f 905/4/5 904/4/5 903/4/5
f 906/4/5 904/4/5 905/4/5
f 912/4/5 908/4/5 907/4/5
f 913/4/5 908/4/5 912/4/5
f 914/4/5 910/4/5 909/4/5
f 915/4/5 910/4/5 914/4/5
f 917/4/5 912/4/5 911/4/5
f 918/4/5 912/4/5 917/4/5
f 919/4/5 916/4/5 915/4/5
f 920/4/5 916/4/5 919/4/5
f 925/4/5 922/4/5 921/4/5
f 926/4/5 922/4/5 925/4/5
f 929/4/5 924/4/5 923/4/5
f 930/4/5 924/4/5 929/4/5
f 931/4/5 927/4/5 926/4/5
f 932/4/5 927/4/5 931/4/5
f 933/4/5 929/4/5 928/4/5
f 934/4/5 929/4/5 933/4/5
f 937/4/5 936/4/5 935/4/5
f 938/4/5 936/4/5 937/4/5
f 943/4/5 940/4/5 939/4/5
f 944/4/5 940/4/5 943/4/5
f 945/4/5 942/4/5 941/4/5
f 946/4/5 942/4/5 945/4/5
f 953/4/5 950/4/5 949/4/5
f 954/4/5 950/4/5 953/4/5
f 955/4/5 952/4/5 951/4/5
f 956/4/5 952/4/5 955/4/5
f 957/4/5 953/4/5 949/4/5
f 959/4/5 948/4/5 947/4/5
f 960/4/5 948/4/5 959/4/5
f 961/4/5 958/4/5 957/4/5
f 961/4/5 957/4/5 949/4/5
f 962/4/5 958/4/5 961/4/5
f 965/4/5 964/4/5 963/4/5
f 966/4/5 964/4/5 965/4/5
f 974/4/5 968/4/5 967/4/5
f 975/4/5 968/4/5 974/4/5
f 978/4/5 977/4/5 976/4/5
f 979/4/5 977/4/5 978/4/5
f 980/4/5 970/4/5 969/4/5
f 981/2/5 971/2/5 970/2/5
f 981/4/5 970/4/5 980/4/5
f 982/4/5 972/4/5 971/4/5
f 982/2/5 971/2/5 981/2/5
f 983/2/5 973/2/5 972/2/5
f 983/4/5 972/4/5 982/4/5
f 984/2/5 973/2/5 983/2/5
f 987/4/5 986/4/5 985/4/5
f 988/4/5 986/4/5 987/4/5
f 992/4/5 990/4/5 989/4/5
f 993/2/5 991/2/5 990/2/5
f 993/4/5 990/4/5 992/4/5
f 994/2/5 991/2/5 993/2/5
f 995/2/5 991/2/5 994/2/5
f 996/2/5 991/2/5 995/2/5
f 1002/4/5 999/4/5 998/4/5
f 1003/4/5 999/4/5 1002/4/5
f 1004/4/5 1001/4/5 1000/4/5
f 1005/4/5 1001/4/5 1004/4/5
f 1010/4/5 997/4/5 996/4/5
f 1011/4/5 997/4/5 1010/4/5
f 1012/4/5 1007/4/5 1006/4/5
f 1013/2/5 1009/2/5 1008/2/5
f 1013/4/5 1007/4/5 1012/4/5
f 1013/2/5 1008/2/5 1007/2/5
f 1013/2/5 1010/2/5 1009/2/5
f 1014/2/5 1010/2/5 1013/2/5
f 1020/4/5 1016/4/5 1015/4/5
f 1021/2/5 1017/2/5 1016/2/5
f 1021/4/5 1016/4/5 1020/4/5
f 1022/4/5 1018/4/5 1017/4/5
f 1022/2/5 1017/2/5 1021/2/5
f 1023/2/5 1019/2/5 1018/2/5
f 1023/4/5 1018/4/5 1022/4/5
f 1024/2/5 1019/2/5 1023/2/5
f 1028/4/5 1025/4/5 1024/4/5
f 1029/4/5 1025/4/5 1028/4/5
f 1033/4/5 1027/4/5 1026/4/5
f 1034/4/5 1027/4/5 1033/4/5
f 1035/4/5 1032/4/5 1031/4/5
f 1036/4/5 1032/4/5 1035/4/5
f 1039/4/5 1035/4/5 1031/4/5
f 1040/4/5 1032/4/5 1036/4/5
f 1041/4/5 1038/4/5 1037/4/5
f 1042/4/5 1038/4/5 1041/4/5
f 1044/4/5 1030/4/5 1029/4/5
f 1045/4/5 1030/4/5 1044/4/5
f 1046/4/5 1039/4/5 1031/4/5
f 1046/4/5 1040/4/5 1039/4/5
f 1047/4/5 1032/4/5 1040/4/5
f 1047/4/5 1040/4/5 1046/4/5
f 1052/4/5 1044/4/5 1043/4/5
f 1053/4/5 1044/4/5 1052/4/5
f 1054/4/5 1049/4/5 1048/4/5
f 1055/2/5 1050/2/5 1049/2/5
f 1055/4/5 1049/4/5 1054/4/5
f 1056/4/5 1051/4/5 1050/4/5
f 1056/2/5 1050/2/5 1055/2/5
f 1057/2/5 1052/2/5 1051/2/5
f 1057/4/5 1051/4/5 1056/4/5
f 1058/2/5 1052/2/5 1057/2/5
f 1063/4/5 1060/4/5 1059/4/5
f 1064/4/5 1060/4/5 1063/4/5
f 1065/3/5 1062/3/5 1061/3/5
f 1066/3/5 1062/3/5 1065/3/5
f 1071/4/5 1068/4/5 1067/4/5
f 1072/4/5 1068/4/5 1071/4/5
f 1073/3/5 1070/3/5 1069/3/5
f 1074/3/5 1070/3/5 1073/3/5
f 1079/3/5 1076/3/5 1075/3/5
f 1080/1/5 1077/1/5 1076/1/5
f 1080/3/5 1076/3/5 1079/3/5
f 1081/3/5 1078/3/5 1077/3/5
f 1081/1/5 1077/1/5 1080/1/5
f 1082/3/5 1078/3/5 1081/3/5
f 1087/3/5 1084/3/5 1083/3/5
f 1088/1/5 1085/1/5 1084/1/5
f 1088/3/5 1084/3/5 1087/3/5
f 1089/3/5 1086/3/5 1085/3/5
f 1089/1/5 1085/1/5 1088/1/5
f 1090/3/5 1086/3/5 1089/3/5
f 1093/4/5 1092/4/5 1091/4/5
f 1094/4/5 1092/4/5 1093/4/5
f 1097/4/5 1096/4/5 1095/4/5
f 1098/4/5 1096/4/5 1097/4/5
f 1101/4/5 1100/4/5 1099/4/5
f 1102/4/5 1100/4/5 1101/4/5
f 1105/4/5 1104/4/5 1103/4/5
f 1106/4/5 1104/4/5 1105/4/5
f 1107/4/6 1108/4/6 1112/4/6
f 1112/4/6 1108/4/6 1113/4/6
f 1109/4/6 1110/4/6 1114/4/6
f 1114/4/6 1110/4/6 1115/4/6
f 1111/4/6 1112/4/6 1117/4/6
f 1117/4/6 1112/4/6 1118/4/6
f 1115/4/6 1116/4/6 1119/4/6
f 1119/4/6 1116/4/6 1120/4/6
f 1121/4/6 1122/4/6 1125/4/6
f 1125/4/6 1122/4/6 1126/4/6
f 1123/4/6 1124/4/6 1129/4/6
f 1129/4/6 1124/4/6 1130/4/6
f 1126/4/6 1127/4/6 1131/4/6
f 1131/4/6 1127/4/6 1132/4/6
f 1128/4/6 1129/4/6 1133/4/6
f 1133/4/6 1129/4/6 1134/4/6
f 1135/4/6 1136/4/6 1139/4/6
f 1139/4/6 1136/4/6 1140/4/6
f 1140/4/6 1141/4/6 1142/4/6
f 1142/4/6 1141/4/6 1143/4/6
f 1143/4/6 1144/4/6 1146/4/6
f 1146/4/6 1144/4/6 1147/4/6
f 1137/4/6 1138/4/6 1148/4/6
f 1148/4/6 1138/4/6 1149/4/6
f 1145/4/6 1146/4/6 1151/4/6
f 1151/4/6 1146/4/6 1152/4/6
f 1150/4/6 1151/4/6 1153/4/6
f 1153/4/6 1151/4/6 1154/4/6
f 1155/4/6 1156/4/6 1159/4/6
f 1159/4/6 1156/4/6 1160/4/6
f 1157/4/6 1158/4/6 1161/4/6
f 1161/4/6 1158/4/6 1162/4/6
f 1167/4/6 1168/4/6 1171/4/6
f 1171/4/6 1168/4/6 1172/4/6
f 1169/4/6 1170/4/6 1174/4/6
f 1174/4/6 1170/4/6 1175/4/6
f 1172/4/6 1173/4/6 1177/4/6
f 1177/4/6 1173/4/6 1178/4/6
f 1163/4/6 1164/4/6 1179/4/6
f 1179/4/6 1164/4/6 1180/4/6
f 1165/4/6 1166/4/6 1181/4/6
f 1181/4/6 1166/4/6 1182/4/6
f 1176/4/6 1177/4/6 1183/4/6
f 1183/4/6 1177/4/6 1184/4/6
f 1185/4/6 1186/4/6 1187/4/6
f 1187/4/6 1186/4/6 1188/4/6
f 1189/4/6 1190/4/6 1191/4/6
f 1191/4/6 1190/4/6 1192/4/6
f 1193/4/6 1194/4/6 1195/4/6
f 1195/4/6 1194/4/6 1196/4/6
f 1196/4/6 1197/4/6 1199/4/6
f 1199/4/6 1197/4/6 1200/4/6
f 1198/4/6 1199/4/6 1201/4/6
f 1201/4/6 1199/4/6 1202/4/6
f 1203/4/6 1204/4/6 1205/4/6
f 1205/4/6 1204/4/6 1206/4/6
f 1207/4/6 1208/4/6 1209/4/6
f 1209/4/6 1208/4/6 1210/4/6
f 1211/4/6 1212/4/6 1213/4/6
f 1213/4/6 1212/4/6 1214/4/6
f 1215/4/6 1216/4/6 1220/4/6
f 1216/2/6 1217/2/6 1221/2/6
f 1220/4/6 1216/4/6 1221/4/6
f 1217/4/6 1218/4/6 1222/4/6
f 1221/2/6 1217/2/6 1222/2/6
f 1218/2/6 1219/2/6 1223/2/6
f 1222/4/6 1218/4/6 1223/4/6
f 1223/2/6 1219/2/6 1224/2/6
f 1225/4/6 1226/4/6 1229/4/6
f 1229/4/6 1226/4/6 1230/4/6
f 1227/4/6 1228/4/6 1231/4/6
f 1231/4/6 1228/4/6 1232/4/6
f 1233/4/6 1234/4/6 1237/4/6
f 1237/4/6 1234/4/6 1238/4/6
f 1235/4/6 1236/4/6 1239/4/6
f 1239/4/6 1236/4/6 1240/4/6
f 1241/4/6 1242/4/6 1246/4/6
f 1242/2/6 1243/2/6 1247/2/6
f 1246/4/6 1242/4/6 1247/4/6
f 1243/4/6 1244/4/6 1248/4/6
f 1247/2/6 1243/2/6 1248/2/6
f 1244/2/6 1245/2/6 1249/2/6
f 1248/4/6 1244/4/6 1249/4/6
f 1249/2/6 1245/2/6 1250/2/6
f 1251/2/6 1252/2/6 1255/2/6
f 1255/2/6 1252/2/6 1256/2/6
f 1256/2/6 1252/2/6 1257/2/6
f 1257/2/6 1252/2/6 1258/2/6
f 1258/2/6 1252/2/6 1259/2/6
f 1253/4/6 1254/4/6 1260/4/6
f 1260/4/6 1254/4/6 1261/4/6
f 1262/2/6 1263/2/6 1269/2/6
f 1263/2/6 1264/2/6 1269/2/6
f 1265/2/6 1266/2/6 1269/2/6
f 1264/2/6 1265/2/6 1269/2/6
f 1269/2/6 1266/2/6 1270/2/6
f 1267/4/6 1268/4/6 1271/4/6
f 1271/4/6 1268/4/6 1272/4/6
f 1273/3/6 1274/3/6 1279/3/6
f 1279/3/6 1274/3/6 1280/3/6
f 1274/2/6 1275/2/6 1281/2/6
f 1280/3/6 1274/3/6 1281/3/6
f 1275/3/6 1276/3/6 1282/3/6
f 1281/2/6 1275/2/6 1282/2/6
f 1276/2/6 1277/2/6 1283/2/6
f 1282/3/6 1276/3/6 1283/3/6
f 1277/3/6 1278/3/6 1284/3/6
f 1283/2/6 1277/2/6 1284/2/6
f 1284/3/6 1278/3/6 1285/3/6
f 1285/3/6 1278/3/6 1286/3/6
f 1287/4/6 1288/4/6 1289/4/6
f 1289/4/6 1288/4/6 1290/4/6
f 1290/4/6 1291/4/6 1293/4/6
f 1293/4/6 1291/4/6 1294/4/6
f 1292/4/6 1293/4/6 1295/4/6
f 1295/4/6 1293/4/6 1296/4/6
f 1297/3/6 1298/3/6 1305/3/6
f 1298/3/6 1299/3/6 1305/3/6
f 1299/2/6 1300/2/6 1306/2/6
f 1305/3/6 1299/3/6 1306/3/6
f 1300/3/6 1301/3/6 1307/3/6
f 1306/2/6 1300/2/6 1307/2/6
f 1301/2/6 1302/2/6 1308/2/6
f 1307/3/6 1301/3/6 1308/3/6
f 1303/3/6 1304/3/6 1309/3/6
f 1308/2/6 1302/2/6 1309/2/6
f 1302/3/6 1303/3/6 1309/3/6
f 1309/3/6 1304/3/6 1310/3/6
f 1311/4/6 1312/4/6 1316/4/6
f 1312/2/6 1313/2/6 1317/2/6
f 1316/4/6 1312/4/6 1317/4/6
f 1313/4/6 1314/4/6 1318/4/6
f 1317/2/6 1313/2/6 1318/2/6
f 1314/2/6 1315/2/6 1319/2/6
f 1318/4/6 1314/4/6 1319/4/6
f 1319/2/6 1315/2/6 1320/2/6
f 1321/4/6 1322/4/6 1328/4/6
f 1328/4/6 1322/4/6 1329/4/6
f 1323/4/6 1324/4/6 1330/4/6
f 1324/2/6 1325/2/6 1331/2/6
f 1330/4/6 1324/4/6 1331/4/6
f 1325/4/6 1326/4/6 1332/4/6
f 1331/2/6 1325/2/6 1332/2/6
f 1326/2/6 1327/2/6 1333/2/6
f 1332/4/6 1326/4/6 1333/4/6
f 1333/2/6 1327/2/6 1334/2/6
f 1335/3/6 1336/3/6 1339/3/6
f 1336/2/6 1337/2/6 1340/2/6
f 1339/3/6 1336/3/6 1340/3/6
f 1337/3/6 1338/3/6 1341/3/6
f 1340/2/6 1337/2/6 1341/2/6
f 1341/3/6 1338/3/6 1342/3/6
f 1343/4/6 1344/4/6 1348/4/6
f 1344/2/6 1345/2/6 1349/2/6
f 1348/4/6 1344/4/6 1349/4/6
f 1345/4/6 1346/4/6 1350/4/6
f 1349/2/6 1345/2/6 1350/2/6
f 1346/2/6 1347/2/6 1351/2/6
f 1350/4/6 1346/4/6 1351/4/6
f 1351/2/6 1347/2/6 1352/2/6
f 1342/3/6 1338/3/6 1356/3/6
f 1353/3/6 1354/3/6 1357/3/6
f 1354/2/6 1355/2/6 1358/2/6
f 1357/3/6 1354/3/6 1358/3/6
f 1355/3/6 1356/3/6 1359/3/6
f 1358/2/6 1355/2/6 1359/2/6
f 1356/3/6 1338/3/6 1360/3/6
f 1359/3/6 1356/3/6 1360/3/6
f 1361/3/6 1362/3/6 1363/3/6
f 1363/3/6 1362/3/6 1364/3/6
f 1364/3/6 1362/3/6 1366/3/6
f 1365/3/6 1366/3/6 1367/3/6
f 1366/3/6 1362/3/6 1368/3/6
f 1367/3/6 1366/3/6 1368/3/6
f 1369/4/6 1370/4/6 1371/4/6
f 1371/4/6 1370/4/6 1372/4/6
