# MagicaVoxel @ Ephtracy

# group
o 

# material
mtllib st1_2-8.mtl
usemtl palette

# normals
vn -1 0 0
vn 1 0 0
vn 0 0 1
vn 0 0 -1
vn 0 -1 0
vn 0 1 0

# texcoords
vt 0.00585938 0.5
vt 0.177734 0.5
vt 0.201172 0.5
vt 0.208984 0.5
vt 0.962891 0.5
vt 0.982422 0.5

# verts
v -3.7 1.1 6.3
v -3.7 1.1 5
v -3.7 1.1 4.6
v -3.7 1.1 3.3
v -3.7 1.1 2.9
v -3.7 1.1 1.6
v -3.7 1.2 6.3
v -3.7 1.2 5
v -3.7 1.2 4.6
v -3.7 1.2 3.3
v -3.7 1.2 2.9
v -3.7 1.2 1.6
v -3.7 3.1 6.3
v -3.7 3.1 5
v -3.7 3.1 4.6
v -3.7 3.1 3.3
v -3.7 3.1 2.9
v -3.7 3.1 1.6
v -3.7 3.2 6.3
v -3.7 3.2 5
v -3.7 3.2 4.6
v -3.7 3.2 3.3
v -3.7 3.2 2.9
v -3.7 3.2 1.6
v -3.7 5.1 6.3
v -3.7 5.1 5
v -3.7 5.1 4.6
v -3.7 5.1 3.3
v -3.7 5.1 2.9
v -3.7 5.1 1.6
v -3.7 5.2 6.3
v -3.7 5.2 5
v -3.7 5.2 4.6
v -3.7 5.2 3.3
v -3.7 5.2 2.9
v -3.7 5.2 1.6
v -3.7 7.1 6.3
v -3.7 7.1 5
v -3.7 7.1 4.6
v -3.7 7.1 3.3
v -3.7 7.1 2.9
v -3.7 7.1 1.6
v -3.7 7.2 6.3
v -3.7 7.2 5
v -3.7 7.2 4.6
v -3.7 7.2 3.3
v -3.7 7.2 2.9
v -3.7 7.2 1.6
v -3.7 9.1 6.3
v -3.7 9.1 5
v -3.7 9.1 4.6
v -3.7 9.1 3.3
v -3.7 9.1 2.9
v -3.7 9.1 1.6
v -3.7 9.2 6.3
v -3.7 9.2 5
v -3.7 9.2 4.6
v -3.7 9.2 3.3
v -3.7 9.2 2.9
v -3.7 9.2 1.6
v -3.6 0.2 6.7
v -3.6 0.2 1.2
v -3.6 0.6 6.7
v -3.6 0.6 1.2
v -3.6 1.1 6.3
v -3.6 1.1 5
v -3.6 1.1 4.6
v -3.6 1.1 3.3
v -3.6 1.1 2.9
v -3.6 1.1 1.6
v -3.6 1.2 6.3
v -3.6 1.2 6.2
v -3.6 1.2 5.7
v -3.6 1.2 5.6
v -3.6 1.2 5.1
v -3.6 1.2 5
v -3.6 1.2 4.6
v -3.6 1.2 4.5
v -3.6 1.2 4
v -3.6 1.2 3.9
v -3.6 1.2 3.4
v -3.6 1.2 3.3
v -3.6 1.2 2.9
v -3.6 1.2 2.8
v -3.6 1.2 2.3
v -3.6 1.2 2.2
v -3.6 1.2 1.7
v -3.6 1.2 1.6
v -3.6 2 6.2
v -3.6 2 5.7
v -3.6 2 5.6
v -3.6 2 5.1
v -3.6 2 4.5
v -3.6 2 4
v -3.6 2 3.9
v -3.6 2 3.4
v -3.6 2 2.8
v -3.6 2 2.3
v -3.6 2 2.2
v -3.6 2 1.7
v -3.6 2.1 6.3
v -3.6 2.1 5
v -3.6 2.1 4.6
v -3.6 2.1 3.3
v -3.6 2.1 2.9
v -3.6 2.1 1.6
v -3.6 2.3 8.8
v -3.6 2.3 6.7
v -3.6 2.6 8.8
v -3.6 2.6 6.7
v -3.6 3.1 6.3
v -3.6 3.1 5
v -3.6 3.1 4.6
v -3.6 3.1 3.3
v -3.6 3.1 2.9
v -3.6 3.1 1.6
v -3.6 3.2 6.3
v -3.6 3.2 6.2
v -3.6 3.2 5.7
v -3.6 3.2 5.6
v -3.6 3.2 5.1
v -3.6 3.2 5
v -3.6 3.2 4.6
v -3.6 3.2 4.5
v -3.6 3.2 4
v -3.6 3.2 3.9
v -3.6 3.2 3.4
v -3.6 3.2 3.3
v -3.6 3.2 2.9
v -3.6 3.2 2.8
v -3.6 3.2 2.3
v -3.6 3.2 2.2
v -3.6 3.2 1.7
v -3.6 3.2 1.6
v -3.6 4 6.2
v -3.6 4 5.7
v -3.6 4 5.6
v -3.6 4 5.1
v -3.6 4 4.5
v -3.6 4 4
v -3.6 4 3.9
v -3.6 4 3.4
v -3.6 4 2.8
v -3.6 4 2.3
v -3.6 4 2.2
v -3.6 4 1.7
v -3.6 4.1 6.3
v -3.6 4.1 5
v -3.6 4.1 4.6
v -3.6 4.1 3.3
v -3.6 4.1 2.9
v -3.6 4.1 1.6
v -3.6 5.1 6.3
v -3.6 5.1 5
v -3.6 5.1 4.6
v -3.6 5.1 3.3
v -3.6 5.1 2.9
v -3.6 5.1 1.6
v -3.6 5.2 6.3
v -3.6 5.2 6.2
v -3.6 5.2 5.7
v -3.6 5.2 5.6
v -3.6 5.2 5.1
v -3.6 5.2 5
v -3.6 5.2 4.6
v -3.6 5.2 4.5
v -3.6 5.2 4
v -3.6 5.2 3.9
v -3.6 5.2 3.4
v -3.6 5.2 3.3
v -3.6 5.2 2.9
v -3.6 5.2 2.8
v -3.6 5.2 2.3
v -3.6 5.2 2.2
v -3.6 5.2 1.7
v -3.6 5.2 1.6
v -3.6 6 6.2
v -3.6 6 5.7
v -3.6 6 5.6
v -3.6 6 5.1
v -3.6 6 4.5
v -3.6 6 4
v -3.6 6 3.9
v -3.6 6 3.4
v -3.6 6 2.8
v -3.6 6 2.3
v -3.6 6 2.2
v -3.6 6 1.7
v -3.6 6.1 6.3
v -3.6 6.1 5
v -3.6 6.1 4.6
v -3.6 6.1 3.3
v -3.6 6.1 2.9
v -3.6 6.1 1.6
v -3.6 7.1 6.3
v -3.6 7.1 5
v -3.6 7.1 4.6
v -3.6 7.1 3.3
v -3.6 7.1 2.9
v -3.6 7.1 1.6
v -3.6 7.2 6.3
v -3.6 7.2 6.2
v -3.6 7.2 5.7
v -3.6 7.2 5.6
v -3.6 7.2 5.1
v -3.6 7.2 5
v -3.6 7.2 4.6
v -3.6 7.2 4.5
v -3.6 7.2 4
v -3.6 7.2 3.9
v -3.6 7.2 3.4
v -3.6 7.2 3.3
v -3.6 7.2 2.9
v -3.6 7.2 2.8
v -3.6 7.2 2.3
v -3.6 7.2 2.2
v -3.6 7.2 1.7
v -3.6 7.2 1.6
v -3.6 8 6.2
v -3.6 8 5.7
v -3.6 8 5.6
v -3.6 8 5.1
v -3.6 8 4.5
v -3.6 8 4
v -3.6 8 3.9
v -3.6 8 3.4
v -3.6 8 2.8
v -3.6 8 2.3
v -3.6 8 2.2
v -3.6 8 1.7
v -3.6 8.1 6.3
v -3.6 8.1 5
v -3.6 8.1 4.6
v -3.6 8.1 3.3
v -3.6 8.1 2.9
v -3.6 8.1 1.6
v -3.6 9.1 6.3
v -3.6 9.1 5
v -3.6 9.1 4.6
v -3.6 9.1 3.3
v -3.6 9.1 2.9
v -3.6 9.1 1.6
v -3.6 9.2 6.3
v -3.6 9.2 6.2
v -3.6 9.2 5.7
v -3.6 9.2 5.6
v -3.6 9.2 5.1
v -3.6 9.2 5
v -3.6 9.2 4.6
v -3.6 9.2 4.5
v -3.6 9.2 4
v -3.6 9.2 3.9
v -3.6 9.2 3.4
v -3.6 9.2 3.3
v -3.6 9.2 2.9
v -3.6 9.2 2.8
v -3.6 9.2 2.3
v -3.6 9.2 2.2
v -3.6 9.2 1.7
v -3.6 9.2 1.6
v -3.6 10 6.2
v -3.6 10 5.7
v -3.6 10 5.6
v -3.6 10 5.1
v -3.6 10 4.5
v -3.6 10 4
v -3.6 10 3.9
v -3.6 10 3.4
v -3.6 10 2.8
v -3.6 10 2.3
v -3.6 10 2.2
v -3.6 10 1.7
v -3.6 10.1 6.3
v -3.6 10.1 5
v -3.6 10.1 4.6
v -3.6 10.1 3.3
v -3.6 10.1 2.9
v -3.6 10.1 1.6
v -3.6 10.8 6.7
v -3.6 10.8 1.2
v -3.6 11.2 6.7
v -3.6 11.2 1.2
v -2.6 0.2 8.8
v -2.6 0.2 8.6
v -2.6 0.2 8.5
v -2.6 0.2 7.8
v -2.6 0.2 7.7
v -2.6 0.2 7
v -2.6 0.2 6.9
v -2.6 0.2 6.7
v -2.6 0.6 6.7
v -2.6 0.8 8
v -2.6 0.8 7.9
v -2.6 0.8 7.6
v -2.6 0.8 7.5
v -2.6 1.1 8
v -2.6 1.1 7.9
v -2.6 1.1 7.6
v -2.6 1.1 7.5
v -2.6 1.8 8.5
v -2.6 1.8 7.8
v -2.6 1.8 7.7
v -2.6 1.8 7
v -2.6 1.9 8.6
v -2.6 1.9 6.9
v -2.6 2.3 8.8
v -2.6 2.3 6.7
v -2.6 2.6 8.8
v -2.6 2.6 6.7
v -2.6 10.8 6.7
v -2.6 11.2 8.8
v -2.6 11.2 6.7
v -1.4 0.2 9.1
v -1.4 0.2 8.8
v -1.4 0.6 9.1
v -1.4 0.6 8.8
v -1.4 10.8 9.1
v -1.4 10.8 8.8
v -1.4 11.2 9.1
v -1.4 11.2 8.8
v 3.3 10.9 8.7
v 3.3 10.9 1.6
v 3.3 11.2 8.7
v 3.3 11.2 1.6
v -3.2 10.9 6.3
v -3.2 10.9 1.6
v -3.2 11.2 6.3
v -3.2 11.2 1.6
v -2.2 10.9 8.4
v -2.2 10.9 6.3
v -2.2 11.2 8.4
v -2.2 11.2 6.3
v -1 10.9 8.7
v -1 10.9 8.4
v -1 11.2 8.7
v -1 11.2 8.4
v 3.7 0.2 9.1
v 3.7 0.2 1.2
v 3.7 0.6 9.1
v 3.7 0.6 1.2
v 3.7 10.8 9.1
v 3.7 10.8 1.2
v 3.7 11.2 9.1
v 3.7 11.2 1.2
v -1.4 0.2 9.1
v -1.4 0.6 9.1
v -1.4 10.8 9.1
v -1.4 11.2 9.1
v 3.7 0.2 9.1
v 3.7 0.6 9.1
v 3.7 10.8 9.1
v 3.7 11.2 9.1
v -3.6 2.3 8.8
v -3.6 2.6 8.8
v -2.6 0.2 8.8
v -2.6 2.3 8.8
v -2.6 2.6 8.8
v -2.6 11.2 8.8
v -1.4 0.2 8.8
v -1.4 0.6 8.8
v -1.4 10.8 8.8
v -1.4 11.2 8.8
v -3.6 0.2 6.7
v -3.6 0.6 6.7
v -3.6 2.3 6.7
v -3.6 2.6 6.7
v -3.6 10.8 6.7
v -3.6 11.2 6.7
v -2.6 0.2 6.7
v -2.6 0.6 6.7
v -2.6 2.3 6.7
v -2.6 2.6 6.7
v -2.6 10.8 6.7
v -2.6 11.2 6.7
v -3.7 1.1 6.3
v -3.7 1.2 6.3
v -3.7 3.1 6.3
v -3.7 3.2 6.3
v -3.7 5.1 6.3
v -3.7 5.2 6.3
v -3.7 7.1 6.3
v -3.7 7.2 6.3
v -3.7 9.1 6.3
v -3.7 9.2 6.3
v -3.6 1.1 6.3
v -3.6 1.2 6.3
v -3.6 3.1 6.3
v -3.6 3.2 6.3
v -3.6 5.1 6.3
v -3.6 5.2 6.3
v -3.6 7.1 6.3
v -3.6 7.2 6.3
v -3.6 9.1 6.3
v -3.6 9.2 6.3
v -3.7 1.1 4.6
v -3.7 1.2 4.6
v -3.7 3.1 4.6
v -3.7 3.2 4.6
v -3.7 5.1 4.6
v -3.7 5.2 4.6
v -3.7 7.1 4.6
v -3.7 7.2 4.6
v -3.7 9.1 4.6
v -3.7 9.2 4.6
v -3.6 1.1 4.6
v -3.6 1.2 4.6
v -3.6 3.1 4.6
v -3.6 3.2 4.6
v -3.6 5.1 4.6
v -3.6 5.2 4.6
v -3.6 7.1 4.6
v -3.6 7.2 4.6
v -3.6 9.1 4.6
v -3.6 9.2 4.6
v -3.7 1.1 2.9
v -3.7 1.2 2.9
v -3.7 3.1 2.9
v -3.7 3.2 2.9
v -3.7 5.1 2.9
v -3.7 5.2 2.9
v -3.7 7.1 2.9
v -3.7 7.2 2.9
v -3.7 9.1 2.9
v -3.7 9.2 2.9
v -3.6 1.1 2.9
v -3.6 1.2 2.9
v -3.6 3.1 2.9
v -3.6 3.2 2.9
v -3.6 5.1 2.9
v -3.6 5.2 2.9
v -3.6 7.1 2.9
v -3.6 7.2 2.9
v -3.6 9.1 2.9
v -3.6 9.2 2.9
v -3.2 10.9 1.6
v -3.2 11.2 1.6
v 3.3 10.9 1.6
v 3.3 11.2 1.6
v -1 10.9 8.7
v -1 11.2 8.7
v 3.3 10.9 8.7
v 3.3 11.2 8.7
v -2.2 10.9 8.4
v -2.2 11.2 8.4
v -1 10.9 8.4
v -1 11.2 8.4
v -3.2 10.9 6.3
v -3.2 11.2 6.3
v -2.2 10.9 6.3
v -2.2 11.2 6.3
v -3.7 1.1 5
v -3.7 1.2 5
v -3.7 3.1 5
v -3.7 3.2 5
v -3.7 5.1 5
v -3.7 5.2 5
v -3.7 7.1 5
v -3.7 7.2 5
v -3.7 9.1 5
v -3.7 9.2 5
v -3.6 1.1 5
v -3.6 1.2 5
v -3.6 3.1 5
v -3.6 3.2 5
v -3.6 5.1 5
v -3.6 5.2 5
v -3.6 7.1 5
v -3.6 7.2 5
v -3.6 9.1 5
v -3.6 9.2 5
v -3.7 1.1 3.3
v -3.7 1.2 3.3
v -3.7 3.1 3.3
v -3.7 3.2 3.3
v -3.7 5.1 3.3
v -3.7 5.2 3.3
v -3.7 7.1 3.3
v -3.7 7.2 3.3
v -3.7 9.1 3.3
v -3.7 9.2 3.3
v -3.6 1.1 3.3
v -3.6 1.2 3.3
v -3.6 3.1 3.3
v -3.6 3.2 3.3
v -3.6 5.1 3.3
v -3.6 5.2 3.3
v -3.6 7.1 3.3
v -3.6 7.2 3.3
v -3.6 9.1 3.3
v -3.6 9.2 3.3
v -3.7 1.1 1.6
v -3.7 1.2 1.6
v -3.7 3.1 1.6
v -3.7 3.2 1.6
v -3.7 5.1 1.6
v -3.7 5.2 1.6
v -3.7 7.1 1.6
v -3.7 7.2 1.6
v -3.7 9.1 1.6
v -3.7 9.2 1.6
v -3.6 1.1 1.6
v -3.6 1.2 1.6
v -3.6 3.1 1.6
v -3.6 3.2 1.6
v -3.6 5.1 1.6
v -3.6 5.2 1.6
v -3.6 7.1 1.6
v -3.6 7.2 1.6
v -3.6 9.1 1.6
v -3.6 9.2 1.6
v -3.6 0.2 1.2
v -3.6 0.6 1.2
v -3.6 10.8 1.2
v -3.6 11.2 1.2
v 3.7 0.2 1.2
v 3.7 0.6 1.2
v 3.7 10.8 1.2
v 3.7 11.2 1.2
v -1.4 0.2 9.1
v 3.7 0.2 9.1
v -2.6 0.2 8.8
v -1.4 0.2 8.8
v -2.6 0.2 8.6
v -2.5 0.2 8.6
v -2.6 0.2 8.5
v -2.5 0.2 8.5
v -2.6 0.2 7.8
v -2.5 0.2 7.8
v -2.6 0.2 7.7
v -2.5 0.2 7.7
v -2.6 0.2 7
v -2.5 0.2 7
v -2.6 0.2 6.9
v -2.5 0.2 6.9
v -3.6 0.2 6.7
v -2.6 0.2 6.7
v -3.6 0.2 1.2
v 3.7 0.2 1.2
v -3.7 1.1 6.3
v -3.6 1.1 6.3
v -3.7 1.1 5
v -3.6 1.1 5
v -3.7 1.1 4.6
v -3.6 1.1 4.6
v -3.7 1.1 3.3
v -3.6 1.1 3.3
v -3.7 1.1 2.9
v -3.6 1.1 2.9
v -3.7 1.1 1.6
v -3.6 1.1 1.6
v -3.6 2.3 8.8
v -2.6 2.3 8.8
v -3.6 2.3 6.7
v -2.6 2.3 6.7
v -3.7 3.1 6.3
v -3.6 3.1 6.3
v -3.7 3.1 5
v -3.6 3.1 5
v -3.7 3.1 4.6
v -3.6 3.1 4.6
v -3.7 3.1 3.3
v -3.6 3.1 3.3
v -3.7 3.1 2.9
v -3.6 3.1 2.9
v -3.7 3.1 1.6
v -3.6 3.1 1.6
v -3.7 5.1 6.3
v -3.6 5.1 6.3
v -3.7 5.1 5
v -3.6 5.1 5
v -3.7 5.1 4.6
v -3.6 5.1 4.6
v -3.7 5.1 3.3
v -3.6 5.1 3.3
v -3.7 5.1 2.9
v -3.6 5.1 2.9
v -3.7 5.1 1.6
v -3.6 5.1 1.6
v -3.7 7.1 6.3
v -3.6 7.1 6.3
v -3.7 7.1 5
v -3.6 7.1 5
v -3.7 7.1 4.6
v -3.6 7.1 4.6
v -3.7 7.1 3.3
v -3.6 7.1 3.3
v -3.7 7.1 2.9
v -3.6 7.1 2.9
v -3.7 7.1 1.6
v -3.6 7.1 1.6
v -3.7 9.1 6.3
v -3.6 9.1 6.3
v -3.7 9.1 5
v -3.6 9.1 5
v -3.7 9.1 4.6
v -3.6 9.1 4.6
v -3.7 9.1 3.3
v -3.6 9.1 3.3
v -3.7 9.1 2.9
v -3.6 9.1 2.9
v -3.7 9.1 1.6
v -3.6 9.1 1.6
v -3.7 1.2 6.3
v -3.6 1.2 6.3
v -3.6 1.2 6.2
v -3.6 1.2 5.7
v -3.6 1.2 5.6
v -3.6 1.2 5.1
v -3.7 1.2 5
v -3.6 1.2 5
v -3.7 1.2 4.6
v -3.6 1.2 4.6
v -3.6 1.2 4.5
v -3.6 1.2 4
v -3.6 1.2 3.9
v -3.6 1.2 3.4
v -3.7 1.2 3.3
v -3.6 1.2 3.3
v -3.7 1.2 2.9
v -3.6 1.2 2.9
v -3.6 1.2 2.8
v -3.6 1.2 2.3
v -3.6 1.2 2.2
v -3.6 1.2 1.7
v -3.7 1.2 1.6
v -3.6 1.2 1.6
v -3.6 2.6 8.8
v -2.6 2.6 8.8
v -3.6 2.6 6.7
v -2.6 2.6 6.7
v -3.7 3.2 6.3
v -3.6 3.2 6.3
v -3.6 3.2 6.2
v -3.6 3.2 5.7
v -3.6 3.2 5.6
v -3.6 3.2 5.1
v -3.7 3.2 5
v -3.6 3.2 5
v -3.7 3.2 4.6
v -3.6 3.2 4.6
v -3.6 3.2 4.5
v -3.6 3.2 4
v -3.6 3.2 3.9
v -3.6 3.2 3.4
v -3.7 3.2 3.3
v -3.6 3.2 3.3
v -3.7 3.2 2.9
v -3.6 3.2 2.9
v -3.6 3.2 2.8
v -3.6 3.2 2.3
v -3.6 3.2 2.2
v -3.6 3.2 1.7
v -3.7 3.2 1.6
v -3.6 3.2 1.6
v -3.7 5.2 6.3
v -3.6 5.2 6.3
v -3.6 5.2 6.2
v -3.6 5.2 5.7
v -3.6 5.2 5.6
v -3.6 5.2 5.1
v -3.7 5.2 5
v -3.6 5.2 5
v -3.7 5.2 4.6
v -3.6 5.2 4.6
v -3.6 5.2 4.5
v -3.6 5.2 4
v -3.6 5.2 3.9
v -3.6 5.2 3.4
v -3.7 5.2 3.3
v -3.6 5.2 3.3
v -3.7 5.2 2.9
v -3.6 5.2 2.9
v -3.6 5.2 2.8
v -3.6 5.2 2.3
v -3.6 5.2 2.2
v -3.6 5.2 1.7
v -3.7 5.2 1.6
v -3.6 5.2 1.6
v -3.7 7.2 6.3
v -3.6 7.2 6.3
v -3.6 7.2 6.2
v -3.6 7.2 5.7
v -3.6 7.2 5.6
v -3.6 7.2 5.1
v -3.7 7.2 5
v -3.6 7.2 5
v -3.7 7.2 4.6
v -3.6 7.2 4.6
v -3.6 7.2 4.5
v -3.6 7.2 4
v -3.6 7.2 3.9
v -3.6 7.2 3.4
v -3.7 7.2 3.3
v -3.6 7.2 3.3
v -3.7 7.2 2.9
v -3.6 7.2 2.9
v -3.6 7.2 2.8
v -3.6 7.2 2.3
v -3.6 7.2 2.2
v -3.6 7.2 1.7
v -3.7 7.2 1.6
v -3.6 7.2 1.6
v -3.7 9.2 6.3
v -3.6 9.2 6.3
v -3.6 9.2 6.2
v -3.6 9.2 5.7
v -3.6 9.2 5.6
v -3.6 9.2 5.1
v -3.7 9.2 5
v -3.6 9.2 5
v -3.7 9.2 4.6
v -3.6 9.2 4.6
v -3.6 9.2 4.5
v -3.6 9.2 4
v -3.6 9.2 3.9
v -3.6 9.2 3.4
v -3.7 9.2 3.3
v -3.6 9.2 3.3
v -3.7 9.2 2.9
v -3.6 9.2 2.9
v -3.6 9.2 2.8
v -3.6 9.2 2.3
v -3.6 9.2 2.2
v -3.6 9.2 1.7
v -3.7 9.2 1.6
v -3.6 9.2 1.6
v -1 10.9 8.7
v 3.3 10.9 8.7
v -2.2 10.9 8.4
v -1 10.9 8.4
v -3.2 10.9 6.3
v -2.2 10.9 6.3
v -3.2 10.9 1.6
v 3.3 10.9 1.6
v -1.4 11.2 9.1
v 3.7 11.2 9.1
v -2.6 11.2 8.8
v -1.4 11.2 8.8
v -1 11.2 8.7
v 3.3 11.2 8.7
v -2.2 11.2 8.4
v -1 11.2 8.4
v -3.6 11.2 6.7
v -2.6 11.2 6.7
v -3.2 11.2 6.3
v -2.2 11.2 6.3
v -3.2 11.2 1.6
v 3.3 11.2 1.6
v -3.6 11.2 1.2
v 3.7 11.2 1.2

# faces
f 7/1/1 2/1/1 1/1/1
f 8/1/1 2/1/1 7/1/1
f 9/1/1 4/1/1 3/1/1
f 10/1/1 4/1/1 9/1/1
f 11/1/1 6/1/1 5/1/1
f 12/1/1 6/1/1 11/1/1
f 19/1/1 14/1/1 13/1/1
f 20/1/1 14/1/1 19/1/1
f 21/1/1 16/1/1 15/1/1
f 22/1/1 16/1/1 21/1/1
f 23/1/1 18/1/1 17/1/1
f 24/1/1 18/1/1 23/1/1
f 31/1/1 26/1/1 25/1/1
f 32/1/1 26/1/1 31/1/1
f 33/1/1 28/1/1 27/1/1
f 34/1/1 28/1/1 33/1/1
f 35/1/1 30/1/1 29/1/1
f 36/1/1 30/1/1 35/1/1
f 43/1/1 38/1/1 37/1/1
f 44/1/1 38/1/1 43/1/1
f 45/1/1 40/1/1 39/1/1
f 46/1/1 40/1/1 45/1/1
f 47/1/1 42/1/1 41/1/1
f 48/1/1 42/1/1 47/1/1
f 55/1/1 50/1/1 49/1/1
f 56/1/1 50/1/1 55/1/1
f 57/1/1 52/1/1 51/1/1
f 58/1/1 52/1/1 57/1/1
f 59/1/1 54/1/1 53/1/1
f 60/1/1 54/1/1 59/1/1
f 63/3/1 62/3/1 61/3/1
f 64/3/1 62/3/1 63/3/1
f 65/1/1 64/1/1 63/1/1
f 66/1/1 64/1/1 65/1/1
f 67/1/1 64/1/1 66/1/1
f 68/1/1 64/1/1 67/1/1
f 69/1/1 64/1/1 68/1/1
f 70/1/1 64/1/1 69/1/1
f 71/1/1 65/1/1 63/1/1
f 76/1/1 67/1/1 66/1/1
f 77/1/1 67/1/1 76/1/1
f 82/1/1 69/1/1 68/1/1
f 83/1/1 69/1/1 82/1/1
f 88/1/1 64/1/1 70/1/1
f 89/5/1 72/5/1 71/5/1
f 89/6/1 73/6/1 72/6/1
f 90/5/1 74/5/1 73/5/1
f 90/6/1 73/6/1 89/6/1
f 91/6/1 75/6/1 74/6/1
f 91/5/1 74/5/1 90/5/1
f 92/5/1 76/5/1 75/5/1
f 92/6/1 75/6/1 91/6/1
f 93/5/1 78/5/1 77/5/1
f 93/6/1 79/6/1 78/6/1
f 94/5/1 80/5/1 79/5/1
f 94/6/1 79/6/1 93/6/1
f 95/6/1 81/6/1 80/6/1
f 95/5/1 80/5/1 94/5/1
f 96/5/1 82/5/1 81/5/1
f 96/6/1 81/6/1 95/6/1
f 97/5/1 84/5/1 83/5/1
f 97/6/1 85/6/1 84/6/1
f 98/5/1 86/5/1 85/5/1
f 98/6/1 85/6/1 97/6/1
f 99/6/1 87/6/1 86/6/1
f 99/5/1 86/5/1 98/5/1
f 100/5/1 88/5/1 87/5/1
f 100/6/1 87/6/1 99/6/1
f 101/5/1 90/5/1 89/5/1
f 101/1/1 71/1/1 63/1/1
f 101/5/1 89/5/1 71/5/1
f 101/5/1 91/5/1 90/5/1
f 101/5/1 92/5/1 91/5/1
f 102/1/1 77/1/1 76/1/1
f 102/5/1 92/5/1 101/5/1
f 102/5/1 76/5/1 92/5/1
f 103/5/1 94/5/1 93/5/1
f 103/1/1 77/1/1 102/1/1
f 103/5/1 96/5/1 95/5/1
f 103/5/1 93/5/1 77/5/1
f 103/5/1 95/5/1 94/5/1
f 104/5/1 82/5/1 96/5/1
f 104/5/1 96/5/1 103/5/1
f 104/1/1 83/1/1 82/1/1
f 105/5/1 98/5/1 97/5/1
f 105/1/1 83/1/1 104/1/1
f 105/5/1 100/5/1 99/5/1
f 105/5/1 99/5/1 98/5/1
f 105/5/1 97/5/1 83/5/1
f 106/5/1 88/5/1 100/5/1
f 106/5/1 100/5/1 105/5/1
f 106/1/1 64/1/1 88/1/1
f 108/1/1 104/1/1 103/1/1
f 108/1/1 102/1/1 101/1/1
f 108/1/1 106/1/1 105/1/1
f 108/1/1 105/1/1 104/1/1
f 108/1/1 103/1/1 102/1/1
f 108/1/1 101/1/1 63/1/1
f 109/3/1 108/3/1 107/3/1
f 110/1/1 106/1/1 108/1/1
f 110/3/1 108/3/1 109/3/1
f 111/1/1 106/1/1 110/1/1
f 112/1/1 106/1/1 111/1/1
f 113/1/1 106/1/1 112/1/1
f 114/1/1 106/1/1 113/1/1
f 115/1/1 106/1/1 114/1/1
f 116/1/1 64/1/1 106/1/1
f 116/1/1 106/1/1 115/1/1
f 117/1/1 111/1/1 110/1/1
f 122/1/1 113/1/1 112/1/1
f 123/1/1 113/1/1 122/1/1
f 128/1/1 115/1/1 114/1/1
f 129/1/1 115/1/1 128/1/1
f 134/1/1 64/1/1 116/1/1
f 135/5/1 118/5/1 117/5/1
f 135/6/1 119/6/1 118/6/1
f 136/5/1 120/5/1 119/5/1
f 136/6/1 119/6/1 135/6/1
f 137/6/1 121/6/1 120/6/1
f 137/5/1 120/5/1 136/5/1
f 138/5/1 122/5/1 121/5/1
f 138/6/1 121/6/1 137/6/1
f 139/5/1 124/5/1 123/5/1
f 139/6/1 125/6/1 124/6/1
f 140/5/1 126/5/1 125/5/1
f 140/6/1 125/6/1 139/6/1
f 141/6/1 127/6/1 126/6/1
f 141/5/1 126/5/1 140/5/1
f 142/5/1 128/5/1 127/5/1
f 142/6/1 127/6/1 141/6/1
f 143/5/1 130/5/1 129/5/1
f 143/6/1 131/6/1 130/6/1
f 144/5/1 132/5/1 131/5/1
f 144/6/1 131/6/1 143/6/1
f 145/6/1 133/6/1 132/6/1
f 145/5/1 132/5/1 144/5/1
f 146/5/1 134/5/1 133/5/1
f 146/6/1 133/6/1 145/6/1
f 147/5/1 136/5/1 135/5/1
f 147/1/1 117/1/1 110/1/1
f 147/5/1 135/5/1 117/5/1
f 147/5/1 137/5/1 136/5/1
f 147/5/1 138/5/1 137/5/1
f 148/1/1 123/1/1 122/1/1
f 148/5/1 138/5/1 147/5/1
f 148/5/1 122/5/1 138/5/1
f 149/5/1 140/5/1 139/5/1
f 149/1/1 123/1/1 148/1/1
f 149/5/1 142/5/1 141/5/1
f 149/5/1 139/5/1 123/5/1
f 149/5/1 141/5/1 140/5/1
f 150/5/1 128/5/1 142/5/1
f 150/5/1 142/5/1 149/5/1
f 150/1/1 129/1/1 128/1/1
f 151/5/1 144/5/1 143/5/1
f 151/1/1 129/1/1 150/1/1
f 151/5/1 146/5/1 145/5/1
f 151/5/1 145/5/1 144/5/1
f 151/5/1 143/5/1 129/5/1
f 152/5/1 134/5/1 146/5/1
f 152/5/1 146/5/1 151/5/1
f 152/1/1 64/1/1 134/1/1
f 153/1/1 148/1/1 147/1/1
f 153/1/1 150/1/1 149/1/1
f 153/1/1 152/1/1 151/1/1
f 153/1/1 151/1/1 150/1/1
f 153/1/1 149/1/1 148/1/1
f 153/1/1 147/1/1 110/1/1
f 154/1/1 152/1/1 153/1/1
f 155/1/1 152/1/1 154/1/1
f 156/1/1 152/1/1 155/1/1
f 157/1/1 152/1/1 156/1/1
f 158/1/1 64/1/1 152/1/1
f 158/1/1 152/1/1 157/1/1
f 159/1/1 153/1/1 110/1/1
f 164/1/1 155/1/1 154/1/1
f 165/1/1 155/1/1 164/1/1
f 170/1/1 157/1/1 156/1/1
f 171/1/1 157/1/1 170/1/1
f 176/1/1 64/1/1 158/1/1
f 177/5/1 160/5/1 159/5/1
f 177/6/1 161/6/1 160/6/1
f 178/5/1 162/5/1 161/5/1
f 178/6/1 161/6/1 177/6/1
f 179/6/1 163/6/1 162/6/1
f 179/5/1 162/5/1 178/5/1
f 180/5/1 164/5/1 163/5/1
f 180/6/1 163/6/1 179/6/1
f 181/5/1 166/5/1 165/5/1
f 181/6/1 167/6/1 166/6/1
f 182/5/1 168/5/1 167/5/1
f 182/6/1 167/6/1 181/6/1
f 183/6/1 169/6/1 168/6/1
f 183/5/1 168/5/1 182/5/1
f 184/5/1 170/5/1 169/5/1
f 184/6/1 169/6/1 183/6/1
f 185/5/1 172/5/1 171/5/1
f 185/6/1 173/6/1 172/6/1
f 186/5/1 174/5/1 173/5/1
f 186/6/1 173/6/1 185/6/1
f 187/6/1 175/6/1 174/6/1
f 187/5/1 174/5/1 186/5/1
f 188/5/1 176/5/1 175/5/1
f 188/6/1 175/6/1 187/6/1
f 189/5/1 178/5/1 177/5/1
f 189/1/1 159/1/1 110/1/1
f 189/5/1 177/5/1 159/5/1
f 189/5/1 179/5/1 178/5/1
f 189/5/1 180/5/1 179/5/1
f 190/1/1 165/1/1 164/1/1
f 190/5/1 180/5/1 189/5/1
f 190/5/1 164/5/1 180/5/1
f 191/5/1 182/5/1 181/5/1
f 191/1/1 165/1/1 190/1/1
f 191/5/1 184/5/1 183/5/1
f 191/5/1 181/5/1 165/5/1
f 191/5/1 183/5/1 182/5/1
f 192/5/1 170/5/1 184/5/1
f 192/5/1 184/5/1 191/5/1
f 192/1/1 171/1/1 170/1/1
f 193/5/1 186/5/1 185/5/1
f 193/1/1 171/1/1 192/1/1
f 193/5/1 188/5/1 187/5/1
f 193/5/1 187/5/1 186/5/1
f 193/5/1 185/5/1 171/5/1
f 194/5/1 176/5/1 188/5/1
f 194/5/1 188/5/1 193/5/1
f 194/1/1 64/1/1 176/1/1
f 195/1/1 190/1/1 189/1/1
f 195/1/1 192/1/1 191/1/1
f 195/1/1 194/1/1 193/1/1
f 195/1/1 193/1/1 192/1/1
f 195/1/1 191/1/1 190/1/1
f 195/1/1 189/1/1 110/1/1
f 196/1/1 194/1/1 195/1/1
f 197/1/1 194/1/1 196/1/1
f 198/1/1 194/1/1 197/1/1
f 199/1/1 194/1/1 198/1/1
f 200/1/1 64/1/1 194/1/1
f 200/1/1 194/1/1 199/1/1
f 201/1/1 195/1/1 110/1/1
f 206/1/1 197/1/1 196/1/1
f 207/1/1 197/1/1 206/1/1
f 212/1/1 199/1/1 198/1/1
f 213/1/1 199/1/1 212/1/1
f 218/1/1 64/1/1 200/1/1
f 219/5/1 202/5/1 201/5/1
f 219/6/1 203/6/1 202/6/1
f 220/5/1 204/5/1 203/5/1
f 220/6/1 203/6/1 219/6/1
f 221/6/1 205/6/1 204/6/1
f 221/5/1 204/5/1 220/5/1
f 222/5/1 206/5/1 205/5/1
f 222/6/1 205/6/1 221/6/1
f 223/5/1 208/5/1 207/5/1
f 223/6/1 209/6/1 208/6/1
f 224/5/1 210/5/1 209/5/1
f 224/6/1 209/6/1 223/6/1
f 225/6/1 211/6/1 210/6/1
f 225/5/1 210/5/1 224/5/1
f 226/5/1 212/5/1 211/5/1
f 226/6/1 211/6/1 225/6/1
f 227/5/1 214/5/1 213/5/1
f 227/6/1 215/6/1 214/6/1
f 228/5/1 216/5/1 215/5/1
f 228/6/1 215/6/1 227/6/1
f 229/6/1 217/6/1 216/6/1
f 229/5/1 216/5/1 228/5/1
f 230/5/1 218/5/1 217/5/1
f 230/6/1 217/6/1 229/6/1
f 231/5/1 220/5/1 219/5/1
f 231/1/1 201/1/1 110/1/1
f 231/5/1 219/5/1 201/5/1
f 231/5/1 221/5/1 220/5/1
f 231/5/1 222/5/1 221/5/1
f 232/1/1 207/1/1 206/1/1
f 232/5/1 222/5/1 231/5/1
f 232/5/1 206/5/1 222/5/1
f 233/5/1 224/5/1 223/5/1
f 233/1/1 207/1/1 232/1/1
f 233/5/1 226/5/1 225/5/1
f 233/5/1 223/5/1 207/5/1
f 233/5/1 225/5/1 224/5/1
f 234/5/1 212/5/1 226/5/1
f 234/5/1 226/5/1 233/5/1
f 234/1/1 213/1/1 212/1/1
f 235/5/1 228/5/1 227/5/1
f 235/1/1 213/1/1 234/1/1
f 235/5/1 230/5/1 229/5/1
f 235/5/1 229/5/1 228/5/1
f 235/5/1 227/5/1 213/5/1
f 236/5/1 218/5/1 230/5/1
f 236/5/1 230/5/1 235/5/1
f 236/1/1 64/1/1 218/1/1
f 237/1/1 232/1/1 231/1/1
f 237/1/1 234/1/1 233/1/1
f 237/1/1 236/1/1 235/1/1
f 237/1/1 235/1/1 234/1/1
f 237/1/1 233/1/1 232/1/1
f 237/1/1 231/1/1 110/1/1
f 238/1/1 236/1/1 237/1/1
f 239/1/1 236/1/1 238/1/1
f 240/1/1 236/1/1 239/1/1
f 241/1/1 236/1/1 240/1/1
f 242/1/1 64/1/1 236/1/1
f 242/1/1 236/1/1 241/1/1
f 243/1/1 237/1/1 110/1/1
f 248/1/1 239/1/1 238/1/1
f 249/1/1 239/1/1 248/1/1
f 254/1/1 241/1/1 240/1/1
f 255/1/1 241/1/1 254/1/1
f 260/1/1 64/1/1 242/1/1
f 261/5/1 244/5/1 243/5/1
f 261/6/1 245/6/1 244/6/1
f 262/5/1 246/5/1 245/5/1
f 262/6/1 245/6/1 261/6/1
f 263/6/1 247/6/1 246/6/1
f 263/5/1 246/5/1 262/5/1
f 264/5/1 248/5/1 247/5/1
f 264/6/1 247/6/1 263/6/1
f 265/5/1 250/5/1 249/5/1
f 265/6/1 251/6/1 250/6/1
f 266/5/1 252/5/1 251/5/1
f 266/6/1 251/6/1 265/6/1
f 267/6/1 253/6/1 252/6/1
f 267/5/1 252/5/1 266/5/1
f 268/5/1 254/5/1 253/5/1
f 268/6/1 253/6/1 267/6/1
f 269/5/1 256/5/1 255/5/1
f 269/6/1 257/6/1 256/6/1
f 270/5/1 258/5/1 257/5/1
f 270/6/1 257/6/1 269/6/1
f 271/6/1 259/6/1 258/6/1
f 271/5/1 258/5/1 270/5/1
f 272/5/1 260/5/1 259/5/1
f 272/6/1 259/6/1 271/6/1
f 273/5/1 262/5/1 261/5/1
f 273/1/1 243/1/1 110/1/1
f 273/5/1 261/5/1 243/5/1
f 273/5/1 263/5/1 262/5/1
f 273/5/1 264/5/1 263/5/1
f 274/1/1 249/1/1 248/1/1
f 274/5/1 264/5/1 273/5/1
f 274/5/1 248/5/1 264/5/1
f 275/5/1 266/5/1 265/5/1
f 275/1/1 249/1/1 274/1/1
f 275/5/1 268/5/1 267/5/1
f 275/5/1 265/5/1 249/5/1
f 275/5/1 267/5/1 266/5/1
f 276/5/1 254/5/1 268/5/1
f 276/5/1 268/5/1 275/5/1
f 276/1/1 255/1/1 254/1/1
f 277/5/1 270/5/1 269/5/1
f 277/1/1 255/1/1 276/1/1
f 277/5/1 272/5/1 271/5/1
f 277/5/1 271/5/1 270/5/1
f 277/5/1 269/5/1 255/5/1
f 278/5/1 260/5/1 272/5/1
f 278/5/1 272/5/1 277/5/1
f 278/1/1 64/1/1 260/1/1
f 279/1/1 274/1/1 273/1/1
f 279/1/1 276/1/1 275/1/1
f 279/1/1 278/1/1 277/1/1
f 279/1/1 277/1/1 276/1/1
f 279/1/1 275/1/1 274/1/1
f 279/1/1 273/1/1 110/1/1
f 280/1/1 64/1/1 278/1/1
f 280/1/1 278/1/1 279/1/1
f 281/3/1 280/3/1 279/3/1
f 282/3/1 280/3/1 281/3/1
f 291/3/1 290/3/1 289/3/1
f 292/5/1 286/5/1 285/5/1
f 293/5/1 286/5/1 292/5/1
f 294/5/1 288/5/1 287/5/1
f 295/5/1 288/5/1 294/5/1
f 296/5/1 292/5/1 285/5/1
f 296/6/1 293/6/1 292/6/1
f 297/5/1 286/5/1 293/5/1
f 297/6/1 293/6/1 296/6/1
f 298/6/1 295/6/1 294/6/1
f 298/5/1 294/5/1 287/5/1
f 299/5/1 288/5/1 295/5/1
f 299/6/1 295/6/1 298/6/1
f 300/6/1 285/6/1 284/6/1
f 300/5/1 296/5/1 285/5/1
f 300/5/1 297/5/1 296/5/1
f 301/6/1 287/6/1 286/6/1
f 301/5/1 297/5/1 300/5/1
f 301/5/1 286/5/1 297/5/1
f 302/5/1 299/5/1 298/5/1
f 302/6/1 287/6/1 301/6/1
f 302/5/1 298/5/1 287/5/1
f 303/5/1 288/5/1 299/5/1
f 303/5/1 299/5/1 302/5/1
f 303/6/1 289/6/1 288/6/1
f 304/3/1 284/3/1 283/3/1
f 304/6/1 302/6/1 301/6/1
f 304/6/1 303/6/1 302/6/1
f 304/6/1 300/6/1 284/6/1
f 304/6/1 301/6/1 300/6/1
f 305/6/1 289/6/1 303/6/1
f 305/6/1 303/6/1 304/6/1
f 305/3/1 291/3/1 289/3/1
f 306/3/1 304/3/1 283/3/1
f 306/3/1 305/3/1 304/3/1
f 307/3/1 291/3/1 305/3/1
f 307/3/1 305/3/1 306/3/1
f 310/3/1 309/3/1 308/3/1
f 311/3/1 310/3/1 308/3/1
f 312/3/1 310/3/1 311/3/1
f 315/3/1 314/3/1 313/3/1
f 316/3/1 314/3/1 315/3/1
f 317/1/1 316/1/1 315/1/1
f 318/1/1 316/1/1 317/1/1
f 319/3/1 318/3/1 317/3/1
f 320/3/1 318/3/1 319/3/1
f 323/3/1 322/3/1 321/3/1
f 324/3/1 322/3/1 323/3/1
f 325/3/2 326/3/2 327/3/2
f 327/3/2 326/3/2 328/3/2
f 329/3/2 330/3/2 331/3/2
f 331/3/2 330/3/2 332/3/2
f 333/3/2 334/3/2 335/3/2
f 335/3/2 334/3/2 336/3/2
f 337/3/2 338/3/2 339/3/2
f 339/3/2 338/3/2 340/3/2
f 339/1/2 340/1/2 341/1/2
f 341/1/2 340/1/2 342/1/2
f 341/3/2 342/3/2 343/3/2
f 343/3/2 342/3/2 344/3/2
f 349/3/3 346/3/3 345/3/3
f 350/1/3 347/1/3 346/1/3
f 350/3/3 346/3/3 349/3/3
f 351/3/3 348/3/3 347/3/3
f 351/1/3 347/1/3 350/1/3
f 352/3/3 348/3/3 351/3/3
f 356/3/3 354/3/3 353/3/3
f 357/3/3 354/3/3 356/3/3
f 359/3/3 356/3/3 355/3/3
f 359/3/3 358/3/3 357/3/3
f 359/3/3 357/3/3 356/3/3
f 360/3/3 358/3/3 359/3/3
f 361/3/3 358/3/3 360/3/3
f 362/3/3 358/3/3 361/3/3
f 369/3/3 364/3/3 363/3/3
f 370/1/3 365/1/3 364/1/3
f 370/3/3 364/3/3 369/3/3
f 371/1/3 365/1/3 370/1/3
f 372/1/3 367/1/3 366/1/3
f 373/3/3 368/3/3 367/3/3
f 373/1/3 367/1/3 372/1/3
f 374/3/3 368/3/3 373/3/3
f 385/1/3 376/1/3 375/1/3
f 386/1/3 376/1/3 385/1/3
f 387/1/3 378/1/3 377/1/3
f 388/1/3 378/1/3 387/1/3
f 389/1/3 380/1/3 379/1/3
f 390/1/3 380/1/3 389/1/3
f 391/1/3 382/1/3 381/1/3
f 392/1/3 382/1/3 391/1/3
f 393/1/3 384/1/3 383/1/3
f 394/1/3 384/1/3 393/1/3
f 405/1/3 396/1/3 395/1/3
f 406/1/3 396/1/3 405/1/3
f 407/1/3 398/1/3 397/1/3
f 408/1/3 398/1/3 407/1/3
f 409/1/3 400/1/3 399/1/3
f 410/1/3 400/1/3 409/1/3
f 411/1/3 402/1/3 401/1/3
f 412/1/3 402/1/3 411/1/3
f 413/1/3 404/1/3 403/1/3
f 414/1/3 404/1/3 413/1/3
f 425/1/3 416/1/3 415/1/3
f 426/1/3 416/1/3 425/1/3
f 427/1/3 418/1/3 417/1/3
f 428/1/3 418/1/3 427/1/3
f 429/1/3 420/1/3 419/1/3
f 430/1/3 420/1/3 429/1/3
f 431/1/3 422/1/3 421/1/3
f 432/1/3 422/1/3 431/1/3
f 433/1/3 424/1/3 423/1/3
f 434/1/3 424/1/3 433/1/3
f 437/3/3 436/3/3 435/3/3
f 438/3/3 436/3/3 437/3/3
f 439/3/4 440/3/4 441/3/4
f 441/3/4 440/3/4 442/3/4
f 443/3/4 444/3/4 445/3/4
f 445/3/4 444/3/4 446/3/4
f 447/3/4 448/3/4 449/3/4
f 449/3/4 448/3/4 450/3/4
f 451/1/4 452/1/4 461/1/4
f 461/1/4 452/1/4 462/1/4
f 453/1/4 454/1/4 463/1/4
f 463/1/4 454/1/4 464/1/4
f 455/1/4 456/1/4 465/1/4
f 465/1/4 456/1/4 466/1/4
f 457/1/4 458/1/4 467/1/4
f 467/1/4 458/1/4 468/1/4
f 459/1/4 460/1/4 469/1/4
f 469/1/4 460/1/4 470/1/4
f 471/1/4 472/1/4 481/1/4
f 481/1/4 472/1/4 482/1/4
f 473/1/4 474/1/4 483/1/4
f 483/1/4 474/1/4 484/1/4
f 475/1/4 476/1/4 485/1/4
f 485/1/4 476/1/4 486/1/4
f 477/1/4 478/1/4 487/1/4
f 487/1/4 478/1/4 488/1/4
f 479/1/4 480/1/4 489/1/4
f 489/1/4 480/1/4 490/1/4
f 491/1/4 492/1/4 501/1/4
f 501/1/4 492/1/4 502/1/4
f 493/1/4 494/1/4 503/1/4
f 503/1/4 494/1/4 504/1/4
f 495/1/4 496/1/4 505/1/4
f 505/1/4 496/1/4 506/1/4
f 497/1/4 498/1/4 507/1/4
f 507/1/4 498/1/4 508/1/4
f 499/1/4 500/1/4 509/1/4
f 509/1/4 500/1/4 510/1/4
f 511/3/4 512/3/4 515/3/4
f 512/1/4 513/1/4 516/1/4
f 515/3/4 512/3/4 516/3/4
f 513/3/4 514/3/4 517/3/4
f 516/1/4 513/1/4 517/1/4
f 517/3/4 514/3/4 518/3/4
f 522/3/5 520/3/5 519/3/5
f 523/3/5 522/3/5 521/3/5
f 524/3/5 522/3/5 523/3/5
f 525/6/5 524/6/5 523/6/5
f 526/3/5 522/3/5 524/3/5
f 526/6/5 524/6/5 525/6/5
f 527/5/5 526/5/5 525/5/5
f 528/3/5 522/3/5 526/3/5
f 528/5/5 526/5/5 527/5/5
f 529/6/5 528/6/5 527/6/5
f 530/3/5 522/3/5 528/3/5
f 530/6/5 528/6/5 529/6/5
f 531/5/5 530/5/5 529/5/5
f 532/3/5 522/3/5 530/3/5
f 532/5/5 530/5/5 531/5/5
f 533/6/5 532/6/5 531/6/5
f 534/3/5 522/3/5 532/3/5
f 534/6/5 532/6/5 533/6/5
f 536/3/5 534/3/5 533/3/5
f 537/3/5 536/3/5 535/3/5
f 538/3/5 520/3/5 522/3/5
f 538/3/5 536/3/5 537/3/5
f 538/3/5 522/3/5 534/3/5
f 538/3/5 534/3/5 536/3/5
f 541/1/5 540/1/5 539/1/5
f 542/1/5 540/1/5 541/1/5
f 545/1/5 544/1/5 543/1/5
f 546/1/5 544/1/5 545/1/5
f 549/1/5 548/1/5 547/1/5
f 550/1/5 548/1/5 549/1/5
f 553/3/5 552/3/5 551/3/5
f 554/3/5 552/3/5 553/3/5
f 557/1/5 556/1/5 555/1/5
f 558/1/5 556/1/5 557/1/5
f 561/1/5 560/1/5 559/1/5
f 562/1/5 560/1/5 561/1/5
f 565/1/5 564/1/5 563/1/5
f 566/1/5 564/1/5 565/1/5
f 569/1/5 568/1/5 567/1/5
f 570/1/5 568/1/5 569/1/5
f 573/1/5 572/1/5 571/1/5
f 574/1/5 572/1/5 573/1/5
f 577/1/5 576/1/5 575/1/5
f 578/1/5 576/1/5 577/1/5
f 581/1/5 580/1/5 579/1/5
f 582/1/5 580/1/5 581/1/5
f 585/1/5 584/1/5 583/1/5
f 586/1/5 584/1/5 585/1/5
f 589/1/5 588/1/5 587/1/5
f 590/1/5 588/1/5 589/1/5
f 593/1/5 592/1/5 591/1/5
f 594/1/5 592/1/5 593/1/5
f 597/1/5 596/1/5 595/1/5
f 598/1/5 596/1/5 597/1/5
f 601/1/5 600/1/5 599/1/5
f 602/1/5 600/1/5 601/1/5
f 603/1/6 604/1/6 605/1/6
f 603/1/6 605/1/6 606/1/6
f 603/1/6 606/1/6 607/1/6
f 603/1/6 607/1/6 608/1/6
f 603/1/6 608/1/6 609/1/6
f 609/1/6 608/1/6 610/1/6
f 611/1/6 612/1/6 613/1/6
f 611/1/6 613/1/6 614/1/6
f 611/1/6 614/1/6 615/1/6
f 611/1/6 615/1/6 616/1/6
f 611/1/6 616/1/6 617/1/6
f 617/1/6 616/1/6 618/1/6
f 619/1/6 620/1/6 621/1/6
f 619/1/6 621/1/6 622/1/6
f 619/1/6 622/1/6 623/1/6
f 619/1/6 623/1/6 624/1/6
f 619/1/6 624/1/6 625/1/6
f 625/1/6 624/1/6 626/1/6
f 627/3/6 628/3/6 629/3/6
f 629/3/6 628/3/6 630/3/6
f 631/1/6 632/1/6 633/1/6
f 631/1/6 633/1/6 634/1/6
f 631/1/6 634/1/6 635/1/6
f 631/1/6 635/1/6 636/1/6
f 631/1/6 636/1/6 637/1/6
f 637/1/6 636/1/6 638/1/6
f 639/1/6 640/1/6 641/1/6
f 639/1/6 641/1/6 642/1/6
f 639/1/6 642/1/6 643/1/6
f 639/1/6 643/1/6 644/1/6
f 639/1/6 644/1/6 645/1/6
f 645/1/6 644/1/6 646/1/6
f 647/1/6 648/1/6 649/1/6
f 647/1/6 649/1/6 650/1/6
f 647/1/6 650/1/6 651/1/6
f 647/1/6 651/1/6 652/1/6
f 647/1/6 652/1/6 653/1/6
f 653/1/6 652/1/6 654/1/6
f 655/1/6 656/1/6 657/1/6
f 655/1/6 657/1/6 658/1/6
f 655/1/6 658/1/6 659/1/6
f 655/1/6 659/1/6 660/1/6
f 655/1/6 660/1/6 661/1/6
f 661/1/6 660/1/6 662/1/6
f 663/1/6 664/1/6 665/1/6
f 663/1/6 665/1/6 666/1/6
f 663/1/6 666/1/6 667/1/6
f 663/1/6 667/1/6 668/1/6
f 663/1/6 668/1/6 669/1/6
f 669/1/6 668/1/6 670/1/6
f 671/1/6 672/1/6 673/1/6
f 671/1/6 673/1/6 674/1/6
f 671/1/6 674/1/6 675/1/6
f 671/1/6 675/1/6 676/1/6
f 671/1/6 676/1/6 677/1/6
f 677/1/6 676/1/6 678/1/6
f 679/1/6 680/1/6 681/1/6
f 679/1/6 681/1/6 682/1/6
f 679/1/6 682/1/6 683/1/6
f 679/1/6 683/1/6 684/1/6
f 679/1/6 684/1/6 685/1/6
f 685/1/6 684/1/6 686/1/6
f 687/1/6 688/1/6 689/1/6
f 687/1/6 689/1/6 690/1/6
f 687/1/6 690/1/6 691/1/6
f 687/1/6 691/1/6 692/1/6
f 687/1/6 692/1/6 693/1/6
f 693/1/6 692/1/6 694/1/6
f 695/1/6 696/1/6 697/1/6
f 695/1/6 697/1/6 698/1/6
f 695/1/6 698/1/6 699/1/6
f 695/1/6 699/1/6 700/1/6
f 695/1/6 700/1/6 701/1/6
f 701/1/6 700/1/6 702/1/6
f 703/1/6 704/1/6 705/1/6
f 703/1/6 705/1/6 706/1/6
f 703/1/6 706/1/6 707/1/6
f 703/1/6 707/1/6 708/1/6
f 703/1/6 708/1/6 709/1/6
f 709/1/6 708/1/6 710/1/6
f 711/1/6 712/1/6 713/1/6
f 711/1/6 713/1/6 714/1/6
f 711/1/6 714/1/6 715/1/6
f 711/1/6 715/1/6 716/1/6
f 711/1/6 716/1/6 717/1/6
f 717/1/6 716/1/6 718/1/6
f 719/1/6 720/1/6 721/1/6
f 719/1/6 721/1/6 722/1/6
f 719/1/6 722/1/6 723/1/6
f 719/1/6 723/1/6 724/1/6
f 719/1/6 724/1/6 725/1/6
f 725/1/6 724/1/6 726/1/6
f 727/1/6 728/1/6 730/1/6
f 729/1/6 730/1/6 732/1/6
f 731/1/6 732/1/6 733/1/6
f 730/1/6 728/1/6 734/1/6
f 733/1/6 732/1/6 734/1/6
f 732/1/6 730/1/6 734/1/6
f 735/3/6 736/3/6 738/3/6
f 738/3/6 736/3/6 739/3/6
f 737/3/6 738/3/6 739/3/6
f 739/3/6 736/3/6 740/3/6
f 737/3/6 739/3/6 741/3/6
f 741/3/6 739/3/6 742/3/6
f 737/3/6 741/3/6 744/3/6
f 743/3/6 744/3/6 745/3/6
f 744/3/6 741/3/6 746/3/6
f 745/3/6 744/3/6 746/3/6
f 743/3/6 745/3/6 747/3/6
f 740/3/6 736/3/6 748/3/6
f 743/3/6 747/3/6 749/3/6
f 747/3/6 748/3/6 749/3/6
f 748/3/6 736/3/6 750/3/6
f 749/3/6 748/3/6 750/3/6
