# MagicaVoxel @ Ephtracy

# group
o 

# material
mtllib taiiku.mtl
usemtl palette

# normals
vn -1 0 0
vn 1 0 0
vn 0 0 1
vn 0 0 -1
vn 0 -1 0
vn 0 1 0

# texcoords
vt 0.306641 0.5
vt 0.337891 0.5
vt 0.494141 0.5
vt 0.498047 0.5
vt 0.994141 0.5

# verts
v -6.9 0 5.7
v -6.9 0 -5.2
v -6.9 0.5 5.7
v -6.9 0.5 -5.2
v -6.4 3.9 5.2
v -6.4 3.9 -4.2
v -6.4 4.6 5.2
v -6.4 4.6 -4.2
v -6.4 5.2 5.2
v -6.4 5.2 -4.2
v -6.4 5.5 5.2
v -6.4 5.5 -4.2
v -6.3 3.8 5.2
v -6.3 3.8 -4.4
v -6.3 3.9 5.2
v -6.3 3.9 -4.2
v -6.3 4.6 -4.2
v -6.3 4.6 -4.4
v -6.3 5.2 -4.2
v -6.3 5.2 -4.4
v -6.3 5.5 5.2
v -6.3 5.5 -4.2
v -6.3 5.7 5.2
v -6.3 5.7 -4.4
v -6.1 5.7 5.1
v -6.1 5.7 -4.2
v -6.1 6 5.1
v -6.1 6 -4.2
v -6 3.1 5.2
v -6 3.1 -4.3
v -6 3.2 5.2
v -6 3.2 -4.3
v -6 6 5.1
v -6 6 -4.1
v -6 6.5 5.1
v -6 6.5 -4.1
v -5.9 0.5 5.1
v -5.9 0.5 -4.2
v -5.9 3.1 5.1
v -5.9 3.1 -4.2
v -5.9 3.2 5.1
v -5.9 3.2 -4.2
v -5.9 3.8 5.1
v -5.9 3.8 -4.2
v -5.9 6.5 4.9
v -5.9 6.5 -4
v -5.9 7.1 4.9
v -5.9 7.1 -4
v -5.5 7.1 4.9
v -5.5 7.1 -4
v -5.5 7.6 4.9
v -5.5 7.6 -4
v -4.5 7.6 4.9
v -4.5 7.6 -4
v -4.5 7.9 4.9
v -4.5 7.9 -4
v -2 6.4 5.1
v -2 6.4 5
v -2 6.4 4.9
v -2 6.4 -4
v -2 6.5 5.1
v -2 6.5 4.9
v -2 6.5 -4
v -2 7.1 4.9
v -2 7.1 -4
v -2 7.5 4.9
v -2 7.5 4.8
v -2 7.9 4.8
v -2 7.9 -4
v -1 0.5 -3.2
v -1 0.5 -4.2
v -1 2.3 -3.2
v -1 2.3 -4.2
v 1.1 3.9 5.1
v 1.1 3.9 5
v 1.1 4.6 5.1
v 1.1 4.6 5
v 1.1 5.2 5.1
v 1.1 5.2 5
v 1.1 5.5 5.1
v 1.1 5.5 5
v -4.1 0.5 -3.2
v -4.1 0.5 -4.2
v -4.1 2.3 -3.2
v -4.1 2.3 -4.2
v -3.4 6.4 5.1
v -3.4 6.4 5
v -3.4 6.4 4.9
v -3.4 6.4 -4
v -3.4 6.5 5.1
v -3.4 6.5 4.9
v -3.4 6.5 -4
v -3.4 7.1 4.9
v -3.4 7.1 -4
v -3.4 7.9 4.9
v -3.4 7.9 -4
v -0.8 7.5 4.8
v -0.8 7.5 -4
v -0.8 7.9 4.8
v -0.8 7.9 -4
v 0.0999999 7.1 4.9
v 0.0999999 7.1 -4
v 0.0999999 7.5 4.9
v 0.0999999 7.5 -4
v 0.5 6.5 4.9
v 0.5 6.5 -4
v 0.5 7.1 4.9
v 0.5 7.1 -4
v 0.7 6 5.1
v 0.7 6 -4.1
v 0.7 6.5 5.1
v 0.7 6.5 -4.1
v 0.8 0.5 5.1
v 0.8 0.5 -4.2
v 0.8 3.1 5.1
v 0.8 3.1 -4.2
v 0.8 3.1 -4.3
v 0.8 3.2 5.1
v 0.8 3.2 -4.2
v 0.8 3.2 -4.3
v 0.8 3.8 5.1
v 0.8 3.8 -4.2
v 0.8 3.9 5.1
v 0.8 3.9 5
v 0.8 4.6 5.1
v 0.8 5.2 5.1
v 0.8 5.5 5.1
v 0.8 5.5 5
v 0.9 3.1 5.2
v 0.9 3.1 -4.2
v 0.9 3.2 5.2
v 0.9 3.2 -4.2
v 1 5.7 5.1
v 1 5.7 -4.2
v 1 6 5.1
v 1 6 -4.2
v 1.2 3.8 5.2
v 1.2 3.8 5
v 1.2 3.8 -4.1
v 1.2 3.8 -4.4
v 1.2 4.6 5.2
v 1.2 4.6 5
v 1.2 4.6 -4.1
v 1.2 4.6 -4.4
v 1.2 5.2 5.2
v 1.2 5.2 5
v 1.2 5.2 -4.1
v 1.2 5.2 -4.4
v 1.2 5.5 5
v 1.2 5.5 -4.1
v 1.2 5.7 5.2
v 1.2 5.7 -4.4
v 1.3 3.8 5
v 1.3 3.8 -4.1
v 1.3 4.6 5
v 1.3 4.6 -4.1
v 1.3 5.2 5
v 1.3 5.2 -4.1
v 1.3 5.5 5
v 1.3 5.5 -4.1
v 2 0 5.7
v 2 0 -5.2
v 2 0.5 5.7
v 2 0.5 -5.2
v -6.9 0 5.7
v -6.9 0.5 5.7
v 2 0 5.7
v 2 0.5 5.7
v -6.4 3.9 5.2
v -6.4 4.6 5.2
v -6.4 5.2 5.2
v -6.4 5.5 5.2
v -6.3 3.8 5.2
v -6.3 3.9 5.2
v -6.3 5.5 5.2
v -6.3 5.7 5.2
v -6 3.1 5.2
v -6 3.2 5.2
v 0.9 3.1 5.2
v 0.9 3.2 5.2
v 1.2 3.8 5.2
v 1.2 4.6 5.2
v 1.2 5.2 5.2
v 1.2 5.7 5.2
v -6.1 5.7 5.1
v -6.1 6 5.1
v -6 6 5.1
v -6 6.5 5.1
v -5.9 0.5 5.1
v -5.9 3.1 5.1
v -5.9 3.2 5.1
v -5.9 3.8 5.1
v -3.4 6.4 5.1
v -3.4 6.5 5.1
v -2 6.4 5.1
v -2 6.5 5.1
v 0.7 6 5.1
v 0.7 6.5 5.1
v 0.8 0.5 5.1
v 0.8 3.1 5.1
v 0.8 3.2 5.1
v 0.8 3.8 5.1
v 1 5.7 5.1
v 1 6 5.1
v 0.8 3.9 5
v 0.8 5.5 5
v 1.1 3.9 5
v 1.1 4.6 5
v 1.1 5.2 5
v 1.1 5.5 5
v 1.2 3.8 5
v 1.2 4.6 5
v 1.2 5.2 5
v 1.2 5.5 5
v 1.3 3.8 5
v 1.3 4.6 5
v 1.3 5.2 5
v 1.3 5.5 5
v -5.9 6.5 4.9
v -5.9 7.1 4.9
v -5.5 7.1 4.9
v -5.5 7.6 4.9
v -4.5 7.6 4.9
v -4.5 7.9 4.9
v -3.4 6.5 4.9
v -3.4 7.1 4.9
v -3.4 7.9 4.9
v -2 6.5 4.9
v -2 7.1 4.9
v -2 7.5 4.9
v 0.0999999 7.1 4.9
v 0.0999999 7.5 4.9
v 0.5 6.5 4.9
v 0.5 7.1 4.9
v -2 7.5 4.8
v -2 7.9 4.8
v -0.8 7.5 4.8
v -0.8 7.9 4.8
v -3.4 6.4 -4
v -3.4 6.5 -4
v -2 6.4 -4
v -2 6.5 -4
v 0.8 3.9 5.1
v 0.8 4.6 5.1
v 0.8 5.2 5.1
v 0.8 5.5 5.1
v 1.1 3.9 5.1
v 1.1 4.6 5.1
v 1.1 5.2 5.1
v 1.1 5.5 5.1
v -4.1 0.5 -3.2
v -4.1 2.3 -3.2
v -1 0.5 -3.2
v -1 2.3 -3.2
v -5.9 6.5 -4
v -5.9 7.1 -4
v -5.5 7.1 -4
v -5.5 7.6 -4
v -4.5 7.6 -4
v -4.5 7.9 -4
v -3.4 6.5 -4
v -3.4 7.1 -4
v -3.4 7.9 -4
v -2 6.5 -4
v -2 7.1 -4
v -2 7.9 -4
v -0.8 7.5 -4
v -0.8 7.9 -4
v 0.0999999 7.1 -4
v 0.0999999 7.5 -4
v 0.5 6.5 -4
v 0.5 7.1 -4
v -6 6 -4.1
v -6 6.5 -4.1
v 0.7 6 -4.1
v 0.7 6.5 -4.1
v 1.2 3.8 -4.1
v 1.2 4.6 -4.1
v 1.2 5.2 -4.1
v 1.2 5.5 -4.1
v 1.3 3.8 -4.1
v 1.3 4.6 -4.1
v 1.3 5.2 -4.1
v 1.3 5.5 -4.1
v -6.4 3.9 -4.2
v -6.4 4.6 -4.2
v -6.4 5.2 -4.2
v -6.4 5.5 -4.2
v -6.3 3.9 -4.2
v -6.3 4.6 -4.2
v -6.3 5.2 -4.2
v -6.3 5.5 -4.2
v -6.1 5.7 -4.2
v -6.1 6 -4.2
v -5.9 0.5 -4.2
v -5.9 3.1 -4.2
v -5.9 3.2 -4.2
v -5.9 3.8 -4.2
v -4.2 0.5 -4.2
v -4.2 2.3 -4.2
v -4.1 0.5 -4.2
v -4.1 2.3 -4.2
v -4.1 2.4 -4.2
v -1 0.5 -4.2
v -1 2.3 -4.2
v -1 2.4 -4.2
v -0.9 0.5 -4.2
v -0.9 2.3 -4.2
v 0.8 0.5 -4.2
v 0.8 3.1 -4.2
v 0.8 3.2 -4.2
v 0.8 3.8 -4.2
v 0.9 3.1 -4.2
v 0.9 3.2 -4.2
v 1 5.7 -4.2
v 1 6 -4.2
v -6 3.1 -4.3
v -6 3.2 -4.3
v 0.8 3.1 -4.3
v 0.8 3.2 -4.3
v -6.3 3.8 -4.4
v -6.3 4.6 -4.4
v -6.3 5.2 -4.4
v -6.3 5.7 -4.4
v 1.2 3.8 -4.4
v 1.2 4.6 -4.4
v 1.2 5.2 -4.4
v 1.2 5.7 -4.4
v -6.9 0 -5.2
v -6.9 0.5 -5.2
v 2 0 -5.2
v 2 0.5 -5.2
v -6.9 0 5.7
v 2 0 5.7
v -6.9 0 -5.2
v 2 0 -5.2
v -4.1 2.3 -3.2
v -1 2.3 -3.2
v -4.1 2.3 -4.2
v -1 2.3 -4.2
v -6 3.1 5.2
v 0.9 3.1 5.2
v -5.9 3.1 5.1
v 0.8 3.1 5.1
v -5.9 3.1 -4.2
v 0.8 3.1 -4.2
v 0.9 3.1 -4.2
v -6 3.1 -4.3
v 0.8 3.1 -4.3
v -6.3 3.8 5.2
v 1.2 3.8 5.2
v -5.9 3.8 5.1
v 0.8 3.8 5.1
v 1.2 3.8 5
v 1.3 3.8 5
v 1.2 3.8 -4.1
v 1.3 3.8 -4.1
v -5.9 3.8 -4.2
v 0.8 3.8 -4.2
v -6.3 3.8 -4.4
v 1.2 3.8 -4.4
v -6.4 3.9 5.2
v -6.3 3.9 5.2
v -6.4 3.9 -4.2
v -6.3 3.9 -4.2
v 0.8 5.5 5.1
v 1.1 5.5 5.1
v 0.8 5.5 5
v 1.1 5.5 5
v -6.9 0.5 5.7
v 2 0.5 5.7
v -5.9 0.5 5.1
v 0.8 0.5 5.1
v -4.1 0.5 -3.2
v -1 0.5 -3.2
v -5.9 0.5 -4.2
v -4.2 0.5 -4.2
v -4.1 0.5 -4.2
v -1 0.5 -4.2
v -0.9 0.5 -4.2
v 0.8 0.5 -4.2
v -6.9 0.5 -5.2
v 2 0.5 -5.2
v -6 3.2 5.2
v 0.9 3.2 5.2
v -5.9 3.2 5.1
v 0.8 3.2 5.1
v -5.9 3.2 -4.2
v 0.8 3.2 -4.2
v 0.9 3.2 -4.2
v -6 3.2 -4.3
v 0.8 3.2 -4.3
v 0.8 3.9 5.1
v 1.1 3.9 5.1
v 0.8 3.9 5
v 1.1 3.9 5
v -6.4 5.5 5.2
v -6.3 5.5 5.2
v 1.2 5.5 5
v 1.3 5.5 5
v 1.2 5.5 -4.1
v 1.3 5.5 -4.1
v -6.4 5.5 -4.2
v -6.3 5.5 -4.2
v -6.3 5.7 5.2
v 1.2 5.7 5.2
v -6.1 5.7 5.1
v 1 5.7 5.1
v -6.1 5.7 -4.2
v 1 5.7 -4.2
v -6.3 5.7 -4.4
v 1.2 5.7 -4.4
v -6.1 6 5.1
v -6 6 5.1
v 0.7 6 5.1
v 1 6 5.1
v -6 6 -4.1
v 0.7 6 -4.1
v -6.1 6 -4.2
v 1 6 -4.2
v -3.4 6.4 5.1
v -2 6.4 5.1
v -3.4 6.4 5
v -2 6.4 5
v -3.4 6.4 4.9
v -2 6.4 4.9
v -3.4 6.4 -4
v -2 6.4 -4
v -6 6.5 5.1
v -3.4 6.5 5.1
v -2 6.5 5.1
v 0.7 6.5 5.1
v -5.9 6.5 4.9
v -3.4 6.5 4.9
v -2 6.5 4.9
v 0.5 6.5 4.9
v -5.9 6.5 -4
v -3.4 6.5 -4
v -2 6.5 -4
v 0.5 6.5 -4
v -6 6.5 -4.1
v 0.7 6.5 -4.1
v -5.9 7.1 4.9
v -5.5 7.1 4.9
v 0.0999999 7.1 4.9
v 0.5 7.1 4.9
v -5.9 7.1 -4
v -5.5 7.1 -4
v 0.0999999 7.1 -4
v 0.5 7.1 -4
v -2 7.5 4.9
v 0.0999999 7.5 4.9
v -2 7.5 4.8
v -0.8 7.5 4.8
v -0.8 7.5 -4
v 0.0999999 7.5 -4
v -5.5 7.6 4.9
v -4.5 7.6 4.9
v -5.5 7.6 -4
v -4.5 7.6 -4
v -4.5 7.9 4.9
v -3.4 7.9 4.9
v -2 7.9 4.8
v -0.8 7.9 4.8
v -4.5 7.9 -4
v -3.4 7.9 -4
v -2 7.9 -4
v -0.8 7.9 -4

# faces
f 3/1/1 2/1/1 1/1/1
f 4/1/1 2/1/1 3/1/1
f 7/4/1 6/4/1 5/4/1
f 8/4/1 6/4/1 7/4/1
f 9/3/1 8/3/1 7/3/1
f 10/3/1 8/3/1 9/3/1
f 11/4/1 10/4/1 9/4/1
f 12/4/1 10/4/1 11/4/1
f 15/4/1 14/4/1 13/4/1
f 16/4/1 14/4/1 15/4/1
f 17/4/1 14/4/1 16/4/1
f 18/4/1 14/4/1 17/4/1
f 19/3/1 18/3/1 17/3/1
f 20/3/1 18/3/1 19/3/1
f 22/4/1 20/4/1 19/4/1
f 23/4/1 22/4/1 21/4/1
f 24/4/1 20/4/1 22/4/1
f 24/4/1 22/4/1 23/4/1
f 27/4/1 26/4/1 25/4/1
f 28/4/1 26/4/1 27/4/1
f 31/4/1 30/4/1 29/4/1
f 32/4/1 30/4/1 31/4/1
f 35/3/1 34/3/1 33/3/1
f 36/3/1 34/3/1 35/3/1
f 39/2/1 38/2/1 37/2/1
f 40/2/1 38/2/1 39/2/1
f 43/2/1 42/2/1 41/2/1
f 44/2/1 42/2/1 43/2/1
f 47/4/1 46/4/1 45/4/1
f 48/4/1 46/4/1 47/4/1
f 51/3/1 50/3/1 49/3/1
f 52/3/1 50/3/1 51/3/1
f 55/3/1 54/3/1 53/3/1
f 56/3/1 54/3/1 55/3/1
f 61/3/1 58/3/1 57/3/1
f 61/3/1 59/3/1 58/3/1
f 62/4/1 60/4/1 59/4/1
f 62/3/1 59/3/1 61/3/1
f 63/4/1 60/4/1 62/4/1
f 64/4/1 63/4/1 62/4/1
f 65/4/1 63/4/1 64/4/1
f 66/3/1 65/3/1 64/3/1
f 67/3/1 65/3/1 66/3/1
f 68/3/1 65/3/1 67/3/1
f 69/3/1 65/3/1 68/3/1
f 72/5/1 71/5/1 70/5/1
f 73/5/1 71/5/1 72/5/1
f 76/4/1 75/4/1 74/4/1
f 77/4/1 75/4/1 76/4/1
f 78/3/1 77/3/1 76/3/1
f 79/3/1 77/3/1 78/3/1
f 80/4/1 79/4/1 78/4/1
f 81/4/1 79/4/1 80/4/1
f 82/5/2 83/5/2 84/5/2
f 84/5/2 83/5/2 85/5/2
f 86/3/2 87/3/2 90/3/2
f 87/3/2 88/3/2 90/3/2
f 88/4/2 89/4/2 91/4/2
f 90/3/2 88/3/2 91/3/2
f 91/4/2 89/4/2 92/4/2
f 91/4/2 92/4/2 93/4/2
f 93/4/2 92/4/2 94/4/2
f 93/3/2 94/3/2 95/3/2
f 95/3/2 94/3/2 96/3/2
f 97/3/2 98/3/2 99/3/2
f 99/3/2 98/3/2 100/3/2
f 101/3/2 102/3/2 103/3/2
f 103/3/2 102/3/2 104/3/2
f 105/4/2 106/4/2 107/4/2
f 107/4/2 106/4/2 108/4/2
f 109/3/2 110/3/2 111/3/2
f 111/3/2 110/3/2 112/3/2
f 113/2/2 114/2/2 115/2/2
f 115/2/2 114/2/2 116/2/2
f 116/4/2 117/4/2 119/4/2
f 119/4/2 117/4/2 120/4/2
f 118/2/2 119/2/2 121/2/2
f 121/2/2 119/2/2 122/2/2
f 123/2/2 124/2/2 125/2/2
f 125/2/2 124/2/2 126/2/2
f 126/2/2 124/2/2 127/2/2
f 127/2/2 124/2/2 128/2/2
f 129/4/2 130/4/2 131/4/2
f 131/4/2 130/4/2 132/4/2
f 133/4/2 134/4/2 135/4/2
f 135/4/2 134/4/2 136/4/2
f 137/4/2 138/4/2 141/4/2
f 141/4/2 138/4/2 142/4/2
f 139/4/2 140/4/2 143/4/2
f 143/4/2 140/4/2 144/4/2
f 141/3/2 142/3/2 145/3/2
f 145/3/2 142/3/2 146/3/2
f 143/3/2 144/3/2 147/3/2
f 147/3/2 144/3/2 148/3/2
f 145/4/2 146/4/2 149/4/2
f 147/4/2 148/4/2 150/4/2
f 145/4/2 149/4/2 151/4/2
f 149/4/2 150/4/2 151/4/2
f 150/4/2 148/4/2 152/4/2
f 151/4/2 150/4/2 152/4/2
f 153/4/2 154/4/2 155/4/2
f 155/4/2 154/4/2 156/4/2
f 155/3/2 156/3/2 157/3/2
f 157/3/2 156/3/2 158/3/2
f 157/4/2 158/4/2 159/4/2
f 159/4/2 158/4/2 160/4/2
f 161/1/2 162/1/2 163/1/2
f 163/1/2 162/1/2 164/1/2
f 167/1/3 166/1/3 165/1/3
f 168/1/3 166/1/3 167/1/3
f 174/4/3 170/4/3 169/4/3
f 175/4/3 172/4/3 171/4/3
f 179/4/3 178/4/3 177/4/3
f 180/4/3 178/4/3 179/4/3
f 181/4/3 174/4/3 173/4/3
f 182/3/3 171/3/3 170/3/3
f 182/4/3 174/4/3 181/4/3
f 182/4/3 170/4/3 174/4/3
f 183/4/3 176/4/3 175/4/3
f 183/3/3 171/3/3 182/3/3
f 183/4/3 175/4/3 171/4/3
f 184/4/3 176/4/3 183/4/3
f 187/4/3 186/4/3 185/4/3
f 193/3/3 188/3/3 187/3/3
f 194/3/3 188/3/3 193/3/3
f 195/3/3 193/3/3 187/3/3
f 197/4/3 187/4/3 185/4/3
f 197/3/3 196/3/3 195/3/3
f 197/3/3 195/3/3 187/3/3
f 198/3/3 196/3/3 197/3/3
f 199/2/3 190/2/3 189/2/3
f 200/2/3 190/2/3 199/2/3
f 201/2/3 192/2/3 191/2/3
f 202/2/3 192/2/3 201/2/3
f 203/4/3 197/4/3 185/4/3
f 204/4/3 197/4/3 203/4/3
f 207/4/3 206/4/3 205/4/3
f 208/4/3 206/4/3 207/4/3
f 209/4/3 206/4/3 208/4/3
f 210/4/3 206/4/3 209/4/3
f 215/4/3 212/4/3 211/4/3
f 216/3/3 213/3/3 212/3/3
f 216/4/3 212/4/3 215/4/3
f 217/4/3 214/4/3 213/4/3
f 217/3/3 213/3/3 216/3/3
f 218/4/3 214/4/3 217/4/3
f 221/4/3 220/4/3 219/4/3
f 223/3/3 222/3/3 221/3/3
f 225/4/3 221/4/3 219/4/3
f 226/3/3 224/3/3 223/3/3
f 226/4/3 221/4/3 225/4/3
f 226/3/3 223/3/3 221/3/3
f 227/3/3 224/3/3 226/3/3
f 231/4/3 229/4/3 228/4/3
f 231/3/3 230/3/3 229/3/3
f 232/3/3 230/3/3 231/3/3
f 233/4/3 231/4/3 228/4/3
f 234/4/3 231/4/3 233/4/3
f 237/3/3 236/3/3 235/3/3
f 238/3/3 236/3/3 237/3/3
f 241/3/3 240/3/3 239/3/3
f 242/3/3 240/3/3 241/3/3
f 243/4/4 244/4/4 247/4/4
f 244/3/4 245/3/4 248/3/4
f 247/4/4 244/4/4 248/4/4
f 245/4/4 246/4/4 249/4/4
f 248/3/4 245/3/4 249/3/4
f 249/4/4 246/4/4 250/4/4
f 251/2/4 252/2/4 253/2/4
f 253/2/4 252/2/4 254/2/4
f 255/4/4 256/4/4 257/4/4
f 257/3/4 258/3/4 259/3/4
f 255/4/4 257/4/4 261/4/4
f 259/3/4 260/3/4 262/3/4
f 261/4/4 257/4/4 262/4/4
f 257/3/4 259/3/4 262/3/4
f 262/3/4 260/3/4 263/3/4
f 265/3/4 266/3/4 267/3/4
f 267/3/4 266/3/4 268/3/4
f 264/4/4 265/4/4 269/4/4
f 265/3/4 267/3/4 269/3/4
f 269/3/4 267/3/4 270/3/4
f 264/4/4 269/4/4 271/4/4
f 271/4/4 269/4/4 272/4/4
f 273/3/4 274/3/4 275/3/4
f 275/3/4 274/3/4 276/3/4
f 277/4/4 278/4/4 281/4/4
f 278/3/4 279/3/4 282/3/4
f 281/4/4 278/4/4 282/4/4
f 279/4/4 280/4/4 283/4/4
f 282/3/4 279/3/4 283/3/4
f 283/4/4 280/4/4 284/4/4
f 285/4/4 286/4/4 289/4/4
f 286/3/4 287/3/4 290/3/4
f 289/4/4 286/4/4 290/4/4
f 287/4/4 288/4/4 291/4/4
f 290/3/4 287/3/4 291/3/4
f 291/4/4 288/4/4 292/4/4
f 295/2/4 296/2/4 299/2/4
f 299/2/4 296/2/4 300/2/4
f 299/5/4 300/5/4 301/5/4
f 300/2/4 296/2/4 302/2/4
f 301/5/4 300/5/4 302/5/4
f 302/2/4 296/2/4 303/2/4
f 302/5/4 303/5/4 305/5/4
f 303/2/4 296/2/4 306/2/4
f 305/5/4 303/5/4 306/5/4
f 304/5/4 305/5/4 307/5/4
f 305/2/4 306/2/4 308/2/4
f 307/5/4 305/5/4 308/5/4
f 307/2/4 308/2/4 309/2/4
f 306/2/4 296/2/4 310/2/4
f 309/2/4 308/2/4 310/2/4
f 308/2/4 306/2/4 310/2/4
f 297/2/4 298/2/4 311/2/4
f 311/2/4 298/2/4 312/2/4
f 310/4/4 311/4/4 313/4/4
f 313/4/4 311/4/4 314/4/4
f 293/4/4 294/4/4 315/4/4
f 315/4/4 294/4/4 316/4/4
f 317/4/4 318/4/4 319/4/4
f 319/4/4 318/4/4 320/4/4
f 321/4/4 322/4/4 325/4/4
f 322/3/4 323/3/4 326/3/4
f 325/4/4 322/4/4 326/4/4
f 323/4/4 324/4/4 327/4/4
f 326/3/4 323/3/4 327/3/4
f 327/4/4 324/4/4 328/4/4
f 329/1/4 330/1/4 331/1/4
f 331/1/4 330/1/4 332/1/4
f 335/1/5 334/1/5 333/1/5
f 336/1/5 334/1/5 335/1/5
f 339/5/5 338/5/5 337/5/5
f 340/5/5 338/5/5 339/5/5
f 343/4/5 342/4/5 341/4/5
f 344/4/5 342/4/5 343/4/5
f 345/4/5 343/4/5 341/4/5
f 346/4/5 342/4/5 344/4/5
f 347/4/5 342/4/5 346/4/5
f 348/4/5 345/4/5 341/4/5
f 348/4/5 346/4/5 345/4/5
f 349/4/5 346/4/5 348/4/5
f 352/4/5 351/4/5 350/4/5
f 353/4/5 351/4/5 352/4/5
f 354/4/5 351/4/5 353/4/5
f 356/4/5 354/4/5 353/4/5
f 356/4/5 355/4/5 354/4/5
f 357/4/5 355/4/5 356/4/5
f 358/4/5 352/4/5 350/4/5
f 359/4/5 356/4/5 353/4/5
f 360/4/5 358/4/5 350/4/5
f 360/4/5 359/4/5 358/4/5
f 361/4/5 356/4/5 359/4/5
f 361/4/5 359/4/5 360/4/5
f 364/4/5 363/4/5 362/4/5
f 365/4/5 363/4/5 364/4/5
f 368/4/5 367/4/5 366/4/5
f 369/4/5 367/4/5 368/4/5
f 370/1/6 371/1/6 372/1/6
f 372/1/6 371/1/6 373/1/6
f 370/1/6 372/1/6 376/1/6
f 374/1/6 375/1/6 378/1/6
f 378/1/6 375/1/6 379/1/6
f 373/1/6 371/1/6 381/1/6
f 376/1/6 377/1/6 382/1/6
f 380/1/6 381/1/6 382/1/6
f 379/1/6 380/1/6 382/1/6
f 370/1/6 376/1/6 382/1/6
f 378/1/6 379/1/6 382/1/6
f 377/1/6 378/1/6 382/1/6
f 381/1/6 371/1/6 383/1/6
f 382/1/6 381/1/6 383/1/6
f 384/4/6 385/4/6 386/4/6
f 386/4/6 385/4/6 387/4/6
f 384/4/6 386/4/6 388/4/6
f 387/4/6 385/4/6 389/4/6
f 389/4/6 385/4/6 390/4/6
f 384/4/6 388/4/6 391/4/6
f 388/4/6 389/4/6 391/4/6
f 391/4/6 389/4/6 392/4/6
f 393/4/6 394/4/6 395/4/6
f 395/4/6 394/4/6 396/4/6
f 399/4/6 400/4/6 401/4/6
f 401/4/6 400/4/6 402/4/6
f 397/4/6 398/4/6 403/4/6
f 403/4/6 398/4/6 404/4/6
f 405/4/6 406/4/6 407/4/6
f 407/4/6 406/4/6 408/4/6
f 405/4/6 407/4/6 409/4/6
f 408/4/6 406/4/6 410/4/6
f 405/4/6 409/4/6 411/4/6
f 409/4/6 410/4/6 411/4/6
f 410/4/6 406/4/6 412/4/6
f 411/4/6 410/4/6 412/4/6
f 413/4/6 414/4/6 417/4/6
f 415/4/6 416/4/6 418/4/6
f 413/4/6 417/4/6 419/4/6
f 417/4/6 418/4/6 419/4/6
f 418/4/6 416/4/6 420/4/6
f 419/4/6 418/4/6 420/4/6
f 421/3/6 422/3/6 423/3/6
f 423/3/6 422/3/6 424/3/6
f 423/4/6 424/4/6 425/4/6
f 425/4/6 424/4/6 426/4/6
f 425/4/6 426/4/6 427/4/6
f 427/4/6 426/4/6 428/4/6
f 429/3/6 430/3/6 433/3/6
f 433/3/6 430/3/6 434/3/6
f 431/3/6 432/3/6 435/3/6
f 435/3/6 432/3/6 436/3/6
f 429/3/6 433/3/6 437/3/6
f 436/3/6 432/3/6 440/3/6
f 438/3/6 439/3/6 441/3/6
f 439/3/6 440/3/6 441/3/6
f 429/3/6 437/3/6 441/3/6
f 437/3/6 438/3/6 441/3/6
f 440/3/6 432/3/6 442/3/6
f 441/3/6 440/3/6 442/3/6
f 443/4/6 444/4/6 447/4/6
f 447/4/6 444/4/6 448/4/6
f 445/4/6 446/4/6 449/4/6
f 449/4/6 446/4/6 450/4/6
f 451/3/6 452/3/6 453/3/6
f 453/3/6 452/3/6 454/3/6
f 454/3/6 452/3/6 455/3/6
f 455/3/6 452/3/6 456/3/6
f 457/3/6 458/3/6 459/3/6
f 459/3/6 458/3/6 460/3/6
f 461/3/6 462/3/6 465/3/6
f 465/3/6 462/3/6 466/3/6
f 463/3/6 464/3/6 467/3/6
f 467/3/6 464/3/6 468/3/6
