# MagicaVoxel @ Ephtracy

# group
o 

# material
mtllib Taxi.mtl
usemtl palette

# normals
vn -1 0 0
vn 1 0 0
vn 0 0 1
vn 0 0 -1
vn 0 -1 0
vn 0 1 0

# texcoords
vt 0.0683594 0.5
vt 0.0917969 0.5
vt 0.435547 0.5
vt 0.587891 0.5
vt 0.705078 0.5
vt 0.892578 0.5
vt 0.927734 0.5
vt 0.958984 0.5
vt 0.962891 0.5
vt 0.970703 0.5
vt 0.974609 0.5
vt 0.986328 0.5
vt 0.994141 0.5

# verts
v -0.4 0.1 0.7
v -0.4 0.1 0.6
v -0.4 0.1 0.3
v -0.4 0.1 -0.2
v -0.4 0.1 -0.5
v -0.4 0.1 -0.6
v -0.4 0.2 0.7
v -0.4 0.2 0.6
v -0.4 0.2 0.3
v -0.4 0.2 -0.2
v -0.4 0.2 -0.5
v -0.4 0.2 -0.6
v -0.4 0.3 0.7
v -0.4 0.3 0.6
v -0.4 0.3 -0.5
v -0.4 0.3 -0.6
v -0.4 0.4 0.7
v -0.4 0.4 -0.6
v -0.3 0 0.6
v -0.3 0 0.3
v -0.3 0 -0.2
v -0.3 0 -0.5
v -0.3 0.1 0.6
v -0.3 0.1 0.5
v -0.3 0.1 0.4
v -0.3 0.1 0.3
v -0.3 0.1 -0.2
v -0.3 0.1 -0.3
v -0.3 0.1 -0.4
v -0.3 0.1 -0.5
v -0.3 0.2 0.6
v -0.3 0.2 0.5
v -0.3 0.2 0.4
v -0.3 0.2 0.3
v -0.3 0.2 -0.2
v -0.3 0.2 -0.3
v -0.3 0.2 -0.4
v -0.3 0.2 -0.5
v -0.3 0.4 0.4
v -0.3 0.4 0.3
v -0.3 0.4 0
v -0.3 0.4 -0.1
v -0.3 0.4 -0.4
v -0.3 0.4 -0.5
v -0.3 0.6 0.3
v -0.3 0.6 0
v -0.3 0.6 -0.1
v -0.3 0.6 -0.4
v -0.3 0.7 0.4
v -0.3 0.7 -0.5
v -0.1 0.7 0.2
v -0.1 0.7 0
v -0.1 0.7 -0.1
v -0.1 0.7 -0.3
v -0.1 0.8 0.2
v -0.1 0.8 0
v -0.1 0.8 -0.1
v -0.1 0.8 -0.3
v 0.2 0 0.6
v 0.2 0 0.3
v 0.2 0 -0.2
v 0.2 0 -0.5
v 0.2 0.1 0.6
v 0.2 0.1 0.3
v 0.2 0.1 -0.2
v 0.2 0.1 -0.5
v -0.2 0 0.6
v -0.2 0 0.3
v -0.2 0 -0.2
v -0.2 0 -0.5
v -0.2 0.1 0.6
v -0.2 0.1 0.3
v -0.2 0.1 -0.2
v -0.2 0.1 -0.5
v 0.1 0.7 0.2
v 0.1 0.7 0
v 0.1 0.7 -0.1
v 0.1 0.7 -0.3
v 0.1 0.8 0.2
v 0.1 0.8 0
v 0.1 0.8 -0.1
v 0.1 0.8 -0.3
v 0.3 0 0.6
v 0.3 0 0.3
v 0.3 0 -0.2
v 0.3 0 -0.5
v 0.3 0.1 0.6
v 0.3 0.1 0.5
v 0.3 0.1 0.4
v 0.3 0.1 0.3
v 0.3 0.1 -0.2
v 0.3 0.1 -0.3
v 0.3 0.1 -0.4
v 0.3 0.1 -0.5
v 0.3 0.2 0.6
v 0.3 0.2 0.5
v 0.3 0.2 0.4
v 0.3 0.2 0.3
v 0.3 0.2 -0.2
v 0.3 0.2 -0.3
v 0.3 0.2 -0.4
v 0.3 0.2 -0.5
v 0.3 0.4 0.4
v 0.3 0.4 0.3
v 0.3 0.4 0
v 0.3 0.4 -0.1
v 0.3 0.4 -0.4
v 0.3 0.4 -0.5
v 0.3 0.6 0.3
v 0.3 0.6 0
v 0.3 0.6 -0.1
v 0.3 0.6 -0.4
v 0.3 0.7 0.4
v 0.3 0.7 -0.5
v 0.4 0.1 0.7
v 0.4 0.1 0.6
v 0.4 0.1 0.3
v 0.4 0.1 -0.2
v 0.4 0.1 -0.5
v 0.4 0.1 -0.6
v 0.4 0.2 0.7
v 0.4 0.2 0.6
v 0.4 0.2 0.3
v 0.4 0.2 -0.2
v 0.4 0.2 -0.5
v 0.4 0.2 -0.6
v 0.4 0.3 0.7
v 0.4 0.3 0.6
v 0.4 0.3 -0.5
v 0.4 0.3 -0.6
v 0.4 0.4 0.7
v 0.4 0.4 -0.6
v -0.4 0.1 0.7
v -0.4 0.2 0.7
v -0.4 0.3 0.7
v -0.4 0.4 0.7
v -0.3 0.2 0.7
v -0.3 0.3 0.7
v -0.2 0.2 0.7
v -0.2 0.3 0.7
v -0.1 0.1 0.7
v -0.1 0.2 0.7
v 0.1 0.1 0.7
v 0.1 0.2 0.7
v 0.2 0.2 0.7
v 0.2 0.3 0.7
v 0.3 0.2 0.7
v 0.3 0.3 0.7
v 0.4 0.1 0.7
v 0.4 0.2 0.7
v 0.4 0.3 0.7
v 0.4 0.4 0.7
v -0.3 0 0.6
v -0.3 0.1 0.6
v -0.2 0 0.6
v -0.2 0.1 0.6
v 0.2 0 0.6
v 0.2 0.1 0.6
v 0.3 0 0.6
v 0.3 0.1 0.6
v -0.3 0.4 0.4
v -0.3 0.7 0.4
v -0.2 0.4 0.4
v -0.2 0.6 0.4
v 0.2 0.4 0.4
v 0.2 0.6 0.4
v 0.3 0.4 0.4
v 0.3 0.7 0.4
v -0.4 0.1 0.3
v -0.4 0.2 0.3
v -0.3 0.1 0.3
v -0.3 0.2 0.3
v 0.3 0.1 0.3
v 0.3 0.2 0.3
v 0.4 0.1 0.3
v 0.4 0.2 0.3
v -0.1 0.7 0.2
v -0.1 0.8 0.2
v 0.1 0.7 0.2
v 0.1 0.8 0.2
v -0.3 0 -0.2
v -0.3 0.1 -0.2
v -0.2 0 -0.2
v -0.2 0.1 -0.2
v 0.2 0 -0.2
v 0.2 0.1 -0.2
v 0.3 0 -0.2
v 0.3 0.1 -0.2
v -0.4 0.1 -0.5
v -0.4 0.2 -0.5
v -0.3 0.1 -0.5
v -0.3 0.2 -0.5
v 0.3 0.1 -0.5
v 0.3 0.2 -0.5
v 0.4 0.1 -0.5
v 0.4 0.2 -0.5
v -0.4 0.1 0.6
v -0.4 0.2 0.6
v -0.3 0.1 0.6
v -0.3 0.2 0.6
v 0.3 0.1 0.6
v 0.3 0.2 0.6
v 0.4 0.1 0.6
v 0.4 0.2 0.6
v -0.3 0 0.3
v -0.3 0.1 0.3
v -0.2 0 0.3
v -0.2 0.1 0.3
v 0.2 0 0.3
v 0.2 0.1 0.3
v 0.3 0 0.3
v 0.3 0.1 0.3
v -0.4 0.1 -0.2
v -0.4 0.2 -0.2
v -0.3 0.1 -0.2
v -0.3 0.2 -0.2
v 0.3 0.1 -0.2
v 0.3 0.2 -0.2
v 0.4 0.1 -0.2
v 0.4 0.2 -0.2
v -0.1 0.7 -0.3
v -0.1 0.8 -0.3
v 0.1 0.7 -0.3
v 0.1 0.8 -0.3
v -0.3 0 -0.5
v -0.3 0.1 -0.5
v -0.3 0.4 -0.5
v -0.3 0.7 -0.5
v -0.2 0 -0.5
v -0.2 0.1 -0.5
v -0.2 0.4 -0.5
v -0.2 0.6 -0.5
v 0.2 0 -0.5
v 0.2 0.1 -0.5
v 0.2 0.4 -0.5
v 0.2 0.6 -0.5
v 0.3 0 -0.5
v 0.3 0.1 -0.5
v 0.3 0.4 -0.5
v 0.3 0.7 -0.5
v -0.4 0.1 -0.6
v -0.4 0.2 -0.6
v -0.4 0.3 -0.6
v -0.4 0.4 -0.6
v -0.3 0.2 -0.6
v -0.3 0.3 -0.6
v -0.2 0.2 -0.6
v -0.2 0.3 -0.6
v -0.1 0.1 -0.6
v -0.1 0.2 -0.6
v 0.1 0.1 -0.6
v 0.1 0.2 -0.6
v 0.2 0.2 -0.6
v 0.2 0.3 -0.6
v 0.3 0.2 -0.6
v 0.3 0.3 -0.6
v 0.4 0.1 -0.6
v 0.4 0.2 -0.6
v 0.4 0.3 -0.6
v 0.4 0.4 -0.6
v -0.3 0 0.6
v -0.2 0 0.6
v 0.2 0 0.6
v 0.3 0 0.6
v -0.3 0 0.3
v -0.2 0 0.3
v 0.2 0 0.3
v 0.3 0 0.3
v -0.3 0 -0.2
v -0.2 0 -0.2
v 0.2 0 -0.2
v 0.3 0 -0.2
v -0.3 0 -0.5
v -0.2 0 -0.5
v 0.2 0 -0.5
v 0.3 0 -0.5
v -0.4 0.1 0.7
v -0.1 0.1 0.7
v 0.1 0.1 0.7
v 0.4 0.1 0.7
v -0.4 0.1 0.6
v -0.3 0.1 0.6
v -0.2 0.1 0.6
v -0.1 0.1 0.6
v 0.1 0.1 0.6
v 0.2 0.1 0.6
v 0.3 0.1 0.6
v 0.4 0.1 0.6
v -0.4 0.1 0.3
v -0.3 0.1 0.3
v -0.2 0.1 0.3
v 0.2 0.1 0.3
v 0.3 0.1 0.3
v 0.4 0.1 0.3
v -0.4 0.1 -0.2
v -0.3 0.1 -0.2
v -0.2 0.1 -0.2
v 0.2 0.1 -0.2
v 0.3 0.1 -0.2
v 0.4 0.1 -0.2
v -0.4 0.1 -0.5
v -0.3 0.1 -0.5
v -0.2 0.1 -0.5
v -0.1 0.1 -0.5
v 0.1 0.1 -0.5
v 0.2 0.1 -0.5
v 0.3 0.1 -0.5
v 0.4 0.1 -0.5
v -0.4 0.1 -0.6
v -0.1 0.1 -0.6
v 0.1 0.1 -0.6
v 0.4 0.1 -0.6
v -0.4 0.2 0.6
v -0.3 0.2 0.6
v 0.3 0.2 0.6
v 0.4 0.2 0.6
v -0.3 0.2 0.5
v 0.3 0.2 0.5
v -0.3 0.2 0.4
v 0.3 0.2 0.4
v -0.4 0.2 0.3
v -0.3 0.2 0.3
v 0.3 0.2 0.3
v 0.4 0.2 0.3
v -0.4 0.2 -0.2
v -0.3 0.2 -0.2
v 0.3 0.2 -0.2
v 0.4 0.2 -0.2
v -0.3 0.2 -0.3
v 0.3 0.2 -0.3
v -0.3 0.2 -0.4
v 0.3 0.2 -0.4
v -0.4 0.2 -0.5
v -0.3 0.2 -0.5
v 0.3 0.2 -0.5
v 0.4 0.2 -0.5
v -0.4 0.4 0.7
v 0.4 0.4 0.7
v -0.3 0.4 0.4
v -0.2 0.4 0.4
v 0.2 0.4 0.4
v 0.3 0.4 0.4
v -0.3 0.4 0.3
v 0.3 0.4 0.3
v -0.3 0.4 0
v 0.3 0.4 0
v -0.3 0.4 -0.1
v 0.3 0.4 -0.1
v -0.3 0.4 -0.4
v 0.3 0.4 -0.4
v -0.3 0.4 -0.5
v -0.2 0.4 -0.5
v 0.2 0.4 -0.5
v 0.3 0.4 -0.5
v -0.4 0.4 -0.6
v 0.4 0.4 -0.6
v -0.3 0.7 0.4
v 0.3 0.7 0.4
v -0.1 0.7 0.2
v 0.1 0.7 0.2
v -0.1 0.7 0
v 0.1 0.7 0
v -0.1 0.7 -0.1
v 0.1 0.7 -0.1
v -0.1 0.7 -0.3
v 0.1 0.7 -0.3
v -0.3 0.7 -0.5
v 0.3 0.7 -0.5
v -0.1 0.8 0.2
v 0.1 0.8 0.2
v -0.1 0.8 0
v 0.1 0.8 0
v -0.1 0.8 -0.1
v 0.1 0.8 -0.1
v -0.1 0.8 -0.3
v 0.1 0.8 -0.3

# faces
f 7/13/1 2/13/1 1/13/1
f 8/13/1 2/13/1 7/13/1
f 9/13/1 4/13/1 3/13/1
f 10/13/1 4/13/1 9/13/1
f 11/13/1 6/13/1 5/13/1
f 12/13/1 6/13/1 11/13/1
f 13/1/1 8/1/1 7/1/1
f 14/13/1 10/13/1 9/13/1
f 14/1/1 8/1/1 13/1/1
f 14/13/1 9/13/1 8/13/1
f 14/13/1 11/13/1 10/13/1
f 15/1/1 12/1/1 11/1/1
f 15/13/1 11/13/1 14/13/1
f 16/1/1 12/1/1 15/1/1
f 17/3/1 14/3/1 13/3/1
f 17/3/1 15/3/1 14/3/1
f 17/3/1 16/3/1 15/3/1
f 18/3/1 16/3/1 17/3/1
f 23/12/1 20/12/1 19/12/1
f 24/12/1 20/12/1 23/12/1
f 25/12/1 20/12/1 24/12/1
f 26/12/1 20/12/1 25/12/1
f 27/12/1 22/12/1 21/12/1
f 28/12/1 22/12/1 27/12/1
f 29/12/1 22/12/1 28/12/1
f 30/12/1 22/12/1 29/12/1
f 31/12/1 24/12/1 23/12/1
f 32/10/1 25/10/1 24/10/1
f 32/12/1 24/12/1 31/12/1
f 33/12/1 26/12/1 25/12/1
f 33/10/1 25/10/1 32/10/1
f 34/12/1 26/12/1 33/12/1
f 35/12/1 28/12/1 27/12/1
f 36/10/1 29/10/1 28/10/1
f 36/12/1 28/12/1 35/12/1
f 37/12/1 30/12/1 29/12/1
f 37/10/1 29/10/1 36/10/1
f 38/12/1 30/12/1 37/12/1
f 45/3/1 40/3/1 39/3/1
f 45/5/1 41/5/1 40/5/1
f 46/3/1 42/3/1 41/3/1
f 46/5/1 41/5/1 45/5/1
f 47/5/1 43/5/1 42/5/1
f 47/3/1 42/3/1 46/3/1
f 48/3/1 44/3/1 43/3/1
f 48/5/1 43/5/1 47/5/1
f 49/3/1 47/3/1 46/3/1
f 49/3/1 46/3/1 45/3/1
f 49/3/1 48/3/1 47/3/1
f 49/3/1 45/3/1 39/3/1
f 50/3/1 44/3/1 48/3/1
f 50/3/1 48/3/1 49/3/1
f 55/8/1 52/8/1 51/8/1
f 56/7/1 53/7/1 52/7/1
f 56/8/1 52/8/1 55/8/1
f 57/8/1 54/8/1 53/8/1
f 57/7/1 53/7/1 56/7/1
f 58/8/1 54/8/1 57/8/1
f 63/12/1 60/12/1 59/12/1
f 64/12/1 60/12/1 63/12/1
f 65/12/1 62/12/1 61/12/1
f 66/12/1 62/12/1 65/12/1
f 67/12/2 68/12/2 71/12/2
f 71/12/2 68/12/2 72/12/2
f 69/12/2 70/12/2 73/12/2
f 73/12/2 70/12/2 74/12/2
f 75/8/2 76/8/2 79/8/2
f 76/7/2 77/7/2 80/7/2
f 79/8/2 76/8/2 80/8/2
f 77/8/2 78/8/2 81/8/2
f 80/7/2 77/7/2 81/7/2
f 81/8/2 78/8/2 82/8/2
f 83/12/2 84/12/2 87/12/2
f 87/12/2 84/12/2 88/12/2
f 88/12/2 84/12/2 89/12/2
f 89/12/2 84/12/2 90/12/2
f 85/12/2 86/12/2 91/12/2
f 91/12/2 86/12/2 92/12/2
f 92/12/2 86/12/2 93/12/2
f 93/12/2 86/12/2 94/12/2
f 87/12/2 88/12/2 95/12/2
f 88/10/2 89/10/2 96/10/2
f 95/12/2 88/12/2 96/12/2
f 89/12/2 90/12/2 97/12/2
f 96/10/2 89/10/2 97/10/2
f 97/12/2 90/12/2 98/12/2
f 91/12/2 92/12/2 99/12/2
f 92/10/2 93/10/2 100/10/2
f 99/12/2 92/12/2 100/12/2
f 93/12/2 94/12/2 101/12/2
f 100/10/2 93/10/2 101/10/2
f 101/12/2 94/12/2 102/12/2
f 103/3/2 104/3/2 109/3/2
f 104/4/2 105/4/2 109/4/2
f 105/3/2 106/3/2 110/3/2
f 109/4/2 105/4/2 110/4/2
f 106/4/2 107/4/2 111/4/2
f 110/3/2 106/3/2 111/3/2
f 107/3/2 108/3/2 112/3/2
f 111/4/2 107/4/2 112/4/2
f 110/3/2 111/3/2 113/3/2
f 109/3/2 110/3/2 113/3/2
f 111/3/2 112/3/2 113/3/2
f 103/3/2 109/3/2 113/3/2
f 112/3/2 108/3/2 114/3/2
f 113/3/2 112/3/2 114/3/2
f 115/13/2 116/13/2 121/13/2
f 121/13/2 116/13/2 122/13/2
f 117/13/2 118/13/2 123/13/2
f 123/13/2 118/13/2 124/13/2
f 119/13/2 120/13/2 125/13/2
f 125/13/2 120/13/2 126/13/2
f 121/1/2 122/1/2 127/1/2
f 123/13/2 124/13/2 128/13/2
f 127/1/2 122/1/2 128/1/2
f 122/13/2 123/13/2 128/13/2
f 124/13/2 125/13/2 128/13/2
f 125/1/2 126/1/2 129/1/2
f 128/13/2 125/13/2 129/13/2
f 129/1/2 126/1/2 130/1/2
f 127/3/2 128/3/2 131/3/2
f 128/3/2 129/3/2 131/3/2
f 129/3/2 130/3/2 131/3/2
f 131/3/2 130/3/2 132/3/2
f 137/13/3 134/13/3 133/13/3
f 137/1/3 135/1/3 134/1/3
f 138/3/3 136/3/3 135/3/3
f 138/1/3 135/1/3 137/1/3
f 139/13/3 137/13/3 133/13/3
f 139/9/3 138/9/3 137/9/3
f 140/3/3 136/3/3 138/3/3
f 140/9/3 138/9/3 139/9/3
f 141/13/3 139/13/3 133/13/3
f 141/13/3 140/13/3 139/13/3
f 142/13/3 140/13/3 141/13/3
f 143/6/3 142/6/3 141/6/3
f 144/13/3 140/13/3 142/13/3
f 144/6/3 142/6/3 143/6/3
f 145/13/3 144/13/3 143/13/3
f 145/13/3 140/13/3 144/13/3
f 146/3/3 136/3/3 140/3/3
f 146/13/3 140/13/3 145/13/3
f 147/13/3 145/13/3 143/13/3
f 147/9/3 146/9/3 145/9/3
f 148/3/3 136/3/3 146/3/3
f 148/9/3 146/9/3 147/9/3
f 149/13/3 147/13/3 143/13/3
f 150/1/3 148/1/3 147/1/3
f 150/13/3 147/13/3 149/13/3
f 151/3/3 136/3/3 148/3/3
f 151/1/3 148/1/3 150/1/3
f 152/3/3 136/3/3 151/3/3
f 155/12/3 154/12/3 153/12/3
f 156/12/3 154/12/3 155/12/3
f 159/12/3 158/12/3 157/12/3
f 160/12/3 158/12/3 159/12/3
f 163/3/3 162/3/3 161/3/3
f 164/3/3 162/3/3 163/3/3
f 165/4/3 164/4/3 163/4/3
f 166/3/3 162/3/3 164/3/3
f 166/4/3 164/4/3 165/4/3
f 167/3/3 166/3/3 165/3/3
f 168/3/3 162/3/3 166/3/3
f 168/3/3 166/3/3 167/3/3
f 171/13/3 170/13/3 169/13/3
f 172/13/3 170/13/3 171/13/3
f 175/13/3 174/13/3 173/13/3
f 176/13/3 174/13/3 175/13/3
f 179/8/3 178/8/3 177/8/3
f 180/8/3 178/8/3 179/8/3
f 183/12/3 182/12/3 181/12/3
f 184/12/3 182/12/3 183/12/3
f 187/12/3 186/12/3 185/12/3
f 188/12/3 186/12/3 187/12/3
f 191/13/3 190/13/3 189/13/3
f 192/13/3 190/13/3 191/13/3
f 195/13/3 194/13/3 193/13/3
f 196/13/3 194/13/3 195/13/3
f 197/13/4 198/13/4 199/13/4
f 199/13/4 198/13/4 200/13/4
f 201/13/4 202/13/4 203/13/4
f 203/13/4 202/13/4 204/13/4
f 205/12/4 206/12/4 207/12/4
f 207/12/4 206/12/4 208/12/4
f 209/12/4 210/12/4 211/12/4
f 211/12/4 210/12/4 212/12/4
f 213/13/4 214/13/4 215/13/4
f 215/13/4 214/13/4 216/13/4
f 217/13/4 218/13/4 219/13/4
f 219/13/4 218/13/4 220/13/4
f 221/8/4 222/8/4 223/8/4
f 223/8/4 222/8/4 224/8/4
f 225/12/4 226/12/4 229/12/4
f 229/12/4 226/12/4 230/12/4
f 227/3/4 228/3/4 231/3/4
f 231/3/4 228/3/4 232/3/4
f 231/4/4 232/4/4 235/4/4
f 232/3/4 228/3/4 236/3/4
f 235/4/4 232/4/4 236/4/4
f 233/12/4 234/12/4 237/12/4
f 237/12/4 234/12/4 238/12/4
f 235/3/4 236/3/4 239/3/4
f 236/3/4 228/3/4 240/3/4
f 239/3/4 236/3/4 240/3/4
f 241/13/4 242/13/4 245/13/4
f 242/1/4 243/1/4 245/1/4
f 243/3/4 244/3/4 246/3/4
f 245/1/4 243/1/4 246/1/4
f 241/13/4 245/13/4 247/13/4
f 245/2/4 246/2/4 247/2/4
f 246/3/4 244/3/4 248/3/4
f 247/2/4 246/2/4 248/2/4
f 241/13/4 247/13/4 249/13/4
f 247/13/4 248/13/4 249/13/4
f 249/13/4 248/13/4 250/13/4
f 249/6/4 250/6/4 251/6/4
f 250/13/4 248/13/4 252/13/4
f 251/6/4 250/6/4 252/6/4
f 251/13/4 252/13/4 253/13/4
f 252/13/4 248/13/4 253/13/4
f 248/3/4 244/3/4 254/3/4
f 253/13/4 248/13/4 254/13/4
f 251/13/4 253/13/4 255/13/4
f 253/2/4 254/2/4 255/2/4
f 254/3/4 244/3/4 256/3/4
f 255/2/4 254/2/4 256/2/4
f 251/13/4 255/13/4 257/13/4
f 255/1/4 256/1/4 258/1/4
f 257/13/4 255/13/4 258/13/4
f 256/3/4 244/3/4 259/3/4
f 258/1/4 256/1/4 259/1/4
f 259/3/4 244/3/4 260/3/4
f 265/12/5 262/12/5 261/12/5
f 266/12/5 262/12/5 265/12/5
f 267/12/5 264/12/5 263/12/5
f 268/12/5 264/12/5 267/12/5
f 273/12/5 270/12/5 269/12/5
f 274/12/5 270/12/5 273/12/5
f 275/12/5 272/12/5 271/12/5
f 276/12/5 272/12/5 275/12/5
f 281/13/5 278/13/5 277/13/5
f 282/13/5 278/13/5 281/13/5
f 283/13/5 278/13/5 282/13/5
f 284/6/5 279/6/5 278/6/5
f 284/13/5 278/13/5 283/13/5
f 285/13/5 280/13/5 279/13/5
f 285/6/5 279/6/5 284/6/5
f 286/13/5 280/13/5 285/13/5
f 287/13/5 280/13/5 286/13/5
f 288/13/5 280/13/5 287/13/5
f 291/11/5 284/11/5 283/11/5
f 291/11/5 286/11/5 285/11/5
f 291/11/5 285/11/5 284/11/5
f 292/11/5 286/11/5 291/11/5
f 295/13/5 290/13/5 289/13/5
f 296/11/5 291/11/5 290/11/5
f 296/13/5 290/13/5 295/13/5
f 296/11/5 292/11/5 291/11/5
f 296/11/5 293/11/5 292/11/5
f 297/11/5 293/11/5 296/11/5
f 298/11/5 293/11/5 297/11/5
f 299/13/5 294/13/5 293/13/5
f 299/11/5 293/11/5 298/11/5
f 300/13/5 294/13/5 299/13/5
f 303/11/5 298/11/5 297/11/5
f 304/11/5 298/11/5 303/11/5
f 305/11/5 298/11/5 304/11/5
f 306/11/5 298/11/5 305/11/5
f 309/13/5 302/13/5 301/13/5
f 309/13/5 303/13/5 302/13/5
f 309/13/5 304/13/5 303/13/5
f 310/6/5 305/6/5 304/6/5
f 310/13/5 304/13/5 309/13/5
f 311/13/5 308/13/5 307/13/5
f 311/6/5 305/6/5 310/6/5
f 311/13/5 307/13/5 306/13/5
f 311/13/5 306/13/5 305/13/5
f 312/13/5 308/13/5 311/13/5
f 317/13/5 314/13/5 313/13/5
f 318/13/5 316/13/5 315/13/5
f 319/13/5 317/13/5 313/13/5
f 320/13/5 316/13/5 318/13/5
f 321/13/5 319/13/5 313/13/5
f 322/13/5 319/13/5 321/13/5
f 323/13/5 316/13/5 320/13/5
f 324/13/5 316/13/5 323/13/5
f 329/13/5 326/13/5 325/13/5
f 330/13/5 328/13/5 327/13/5
f 331/13/5 329/13/5 325/13/5
f 332/13/5 328/13/5 330/13/5
f 333/13/5 331/13/5 325/13/5
f 334/13/5 331/13/5 333/13/5
f 335/13/5 328/13/5 332/13/5
f 336/13/5 328/13/5 335/13/5
f 337/3/6 338/3/6 339/3/6
f 339/3/6 338/3/6 340/3/6
f 340/3/6 338/3/6 341/3/6
f 341/3/6 338/3/6 342/3/6
f 337/3/6 339/3/6 343/3/6
f 342/3/6 338/3/6 344/3/6
f 337/3/6 343/3/6 345/3/6
f 344/3/6 338/3/6 346/3/6
f 337/3/6 345/3/6 347/3/6
f 346/3/6 338/3/6 348/3/6
f 337/3/6 347/3/6 349/3/6
f 348/3/6 338/3/6 350/3/6
f 337/3/6 349/3/6 351/3/6
f 350/3/6 338/3/6 354/3/6
f 352/3/6 353/3/6 355/3/6
f 353/3/6 354/3/6 355/3/6
f 337/3/6 351/3/6 355/3/6
f 351/3/6 352/3/6 355/3/6
f 354/3/6 338/3/6 356/3/6
f 355/3/6 354/3/6 356/3/6
f 357/3/6 358/3/6 359/3/6
f 359/3/6 358/3/6 360/3/6
f 357/3/6 359/3/6 361/3/6
f 360/3/6 358/3/6 362/3/6
f 357/3/6 361/3/6 363/3/6
f 362/3/6 358/3/6 364/3/6
f 357/3/6 363/3/6 365/3/6
f 364/3/6 358/3/6 366/3/6
f 357/3/6 365/3/6 367/3/6
f 365/3/6 366/3/6 367/3/6
f 366/3/6 358/3/6 368/3/6
f 367/3/6 366/3/6 368/3/6
f 369/8/6 370/8/6 371/8/6
f 371/8/6 370/8/6 372/8/6
f 371/7/6 372/7/6 373/7/6
f 373/7/6 372/7/6 374/7/6
f 373/8/6 374/8/6 375/8/6
f 375/8/6 374/8/6 376/8/6
