# MagicaVoxel @ Ephtracy

# group
o 

# material
mtllib Truck.mtl
usemtl palette

# normals
vn -1 0 0
vn 1 0 0
vn 0 0 1
vn 0 0 -1
vn 0 -1 0
vn 0 1 0

# texcoords
vt 0.0175781 0.5
vt 0.0917969 0.5
vt 0.439453 0.5
vt 0.587891 0.5
vt 0.958984 0.5
vt 0.962891 0.5
vt 0.966797 0.5
vt 0.974609 0.5
vt 0.986328 0.5
vt 0.994141 0.5

# verts
v -0.4 -0.2 0.4
v -0.4 -0.2 0.2
v -0.4 -0.2 -1.3
v -0.4 -0.2 -1.5
v -0.4 -0.1 0.5
v -0.4 -0.1 0.4
v -0.4 -0.1 0.2
v -0.4 -0.1 0.1
v -0.4 -0.1 -1.2
v -0.4 -0.1 -1.3
v -0.4 -0.1 -1.5
v -0.4 -0.1 -1.6
v -0.4 0 0.7
v -0.4 0 0.5
v -0.4 0 0.1
v -0.4 0 -1.2
v -0.4 0 -1.6
v -0.4 0 -1.8
v -0.4 0.1 0.7
v -0.4 0.1 0.5
v -0.4 0.1 0.4
v -0.4 0.1 0.2
v -0.4 0.1 0.1
v -0.4 0.1 0
v -0.4 0.1 -1.2
v -0.4 0.1 -1.3
v -0.4 0.1 -1.5
v -0.4 0.1 -1.6
v -0.4 0.1 -1.7
v -0.4 0.1 -1.8
v -0.4 0.2 0.4
v -0.4 0.2 0.2
v -0.4 0.2 0
v -0.4 0.2 -0.1
v -0.4 0.2 -0.6
v -0.4 0.2 -0.7
v -0.4 0.2 -1.2
v -0.4 0.2 -1.3
v -0.4 0.2 -1.5
v -0.4 0.2 -1.7
v -0.4 0.2 -1.8
v -0.4 0.4 0.5
v -0.4 0.4 0.1
v -0.4 0.6 0.5
v -0.4 0.6 0.4
v -0.4 0.7 0.7
v -0.4 0.7 0.6
v -0.4 0.7 0.4
v -0.4 0.7 0.3
v -0.4 0.8 0.6
v -0.4 0.8 0.5
v -0.4 0.8 0.3
v -0.4 0.8 0.1
v -0.4 0.8 -0.7
v -0.4 0.8 -1.2
v -0.4 0.9 0.5
v -0.4 0.9 0.4
v -0.4 0.9 -0.6
v -0.4 0.9 -1.3
v -0.4 1 0.4
v -0.4 1 0
v -0.4 1 -0.1
v -0.4 1 -1.8
v 0.3 -0.2 0.4
v 0.3 -0.2 0.2
v 0.3 -0.2 -1.3
v 0.3 -0.2 -1.5
v 0.3 -0.1 0.5
v 0.3 -0.1 0.4
v 0.3 -0.1 0.2
v 0.3 -0.1 0.1
v 0.3 -0.1 -1.2
v 0.3 -0.1 -1.3
v 0.3 -0.1 -1.5
v 0.3 -0.1 -1.6
v 0.3 0 0.5
v 0.3 0 0.4
v 0.3 0 0.2
v 0.3 0 0.1
v 0.3 0 -1.2
v 0.3 0 -1.3
v 0.3 0 -1.5
v 0.3 0 -1.6
v -0.2 -0.2 0.4
v -0.2 -0.2 0.2
v -0.2 -0.2 -1.3
v -0.2 -0.2 -1.5
v -0.2 -0.1 0.5
v -0.2 -0.1 0.4
v -0.2 -0.1 0.2
v -0.2 -0.1 0.1
v -0.2 -0.1 -1.2
v -0.2 -0.1 -1.3
v -0.2 -0.1 -1.5
v -0.2 -0.1 -1.6
v -0.2 0 0.5
v -0.2 0 0.4
v -0.2 0 0.2
v -0.2 0 0.1
v -0.2 0 -1.2
v -0.2 0 -1.3
v -0.2 0 -1.5
v -0.2 0 -1.6
v 0.5 -0.2 0.4
v 0.5 -0.2 0.2
v 0.5 -0.2 -1.3
v 0.5 -0.2 -1.5
v 0.5 -0.1 0.5
v 0.5 -0.1 0.4
v 0.5 -0.1 0.2
v 0.5 -0.1 0.1
v 0.5 -0.1 -1.2
v 0.5 -0.1 -1.3
v 0.5 -0.1 -1.5
v 0.5 -0.1 -1.6
v 0.5 0 0.7
v 0.5 0 0.5
v 0.5 0 0.1
v 0.5 0 -1.2
v 0.5 0 -1.6
v 0.5 0 -1.8
v 0.5 0.1 0.7
v 0.5 0.1 0.5
v 0.5 0.1 0.4
v 0.5 0.1 0.2
v 0.5 0.1 0.1
v 0.5 0.1 0
v 0.5 0.1 -1.2
v 0.5 0.1 -1.3
v 0.5 0.1 -1.5
v 0.5 0.1 -1.6
v 0.5 0.1 -1.7
v 0.5 0.1 -1.8
v 0.5 0.2 0.4
v 0.5 0.2 0.2
v 0.5 0.2 0
v 0.5 0.2 -0.1
v 0.5 0.2 -0.6
v 0.5 0.2 -0.7
v 0.5 0.2 -1.2
v 0.5 0.2 -1.3
v 0.5 0.2 -1.5
v 0.5 0.2 -1.7
v 0.5 0.2 -1.8
v 0.5 0.4 0.5
v 0.5 0.4 0.1
v 0.5 0.6 0.5
v 0.5 0.6 0.4
v 0.5 0.7 0.7
v 0.5 0.7 0.6
v 0.5 0.7 0.4
v 0.5 0.7 0.3
v 0.5 0.8 0.6
v 0.5 0.8 0.5
v 0.5 0.8 0.3
v 0.5 0.8 0.1
v 0.5 0.8 -0.7
v 0.5 0.8 -1.2
v 0.5 0.9 0.5
v 0.5 0.9 0.4
v 0.5 0.9 -0.6
v 0.5 0.9 -1.3
v 0.5 1 0.4
v 0.5 1 0
v 0.5 1 -0.1
v 0.5 1 -1.8
v -0.4 0 0.7
v -0.4 0.1 0.7
v -0.4 0.7 0.7
v -0.3 0.1 0.7
v -0.3 0.2 0.7
v -0.3 0.4 0.7
v -0.3 0.7 0.7
v -0.1 0.1 0.7
v -0.1 0.2 0.7
v 0.2 0.1 0.7
v 0.2 0.2 0.7
v 0.4 0.1 0.7
v 0.4 0.2 0.7
v 0.4 0.4 0.7
v 0.4 0.7 0.7
v 0.5 0 0.7
v 0.5 0.1 0.7
v 0.5 0.7 0.7
v -0.4 0.7 0.6
v -0.4 0.8 0.6
v -0.3 0.7 0.6
v -0.3 0.8 0.6
v 0.4 0.7 0.6
v 0.4 0.8 0.6
v 0.5 0.7 0.6
v 0.5 0.8 0.6
v -0.4 -0.1 0.5
v -0.4 0 0.5
v -0.4 0.8 0.5
v -0.4 0.9 0.5
v -0.3 0 0.5
v -0.3 0.8 0.5
v -0.3 0.9 0.5
v -0.2 -0.1 0.5
v -0.2 0 0.5
v 0.3 -0.1 0.5
v 0.3 0 0.5
v 0.4 0 0.5
v 0.4 0.8 0.5
v 0.4 0.9 0.5
v 0.5 -0.1 0.5
v 0.5 0 0.5
v 0.5 0.8 0.5
v 0.5 0.9 0.5
v -0.4 -0.2 0.4
v -0.4 -0.1 0.4
v -0.4 0.9 0.4
v -0.4 1 0.4
v -0.3 0.9 0.4
v -0.2 -0.2 0.4
v -0.2 -0.1 0.4
v 0.3 -0.2 0.4
v 0.3 -0.1 0.4
v 0.4 0.9 0.4
v 0.5 -0.2 0.4
v 0.5 -0.1 0.4
v 0.5 0.9 0.4
v 0.5 1 0.4
v -0.4 0.2 -0.1
v -0.4 1 -0.1
v 0.5 0.2 -0.1
v 0.5 1 -0.1
v -0.4 -0.1 -1.2
v -0.4 0 -1.2
v -0.3 0 -1.2
v -0.2 -0.1 -1.2
v -0.2 0 -1.2
v 0.3 -0.1 -1.2
v 0.3 0 -1.2
v 0.4 0 -1.2
v 0.5 -0.1 -1.2
v 0.5 0 -1.2
v -0.4 -0.2 -1.3
v -0.4 -0.1 -1.3
v -0.2 -0.2 -1.3
v -0.2 -0.1 -1.3
v 0.3 -0.2 -1.3
v 0.3 -0.1 -1.3
v 0.5 -0.2 -1.3
v 0.5 -0.1 -1.3
v -0.4 -0.2 0.2
v -0.4 -0.1 0.2
v -0.2 -0.2 0.2
v -0.2 -0.1 0.2
v 0.3 -0.2 0.2
v 0.3 -0.1 0.2
v 0.5 -0.2 0.2
v 0.5 -0.1 0.2
v -0.4 -0.1 0.1
v -0.4 0 0.1
v -0.3 0 0.1
v -0.2 -0.1 0.1
v -0.2 0 0.1
v 0.3 -0.1 0.1
v 0.3 0 0.1
v 0.4 0 0.1
v 0.5 -0.1 0.1
v 0.5 0 0.1
v -0.4 0.2 0
v -0.4 1 0
v 0.5 0.2 0
v 0.5 1 0
v -0.4 -0.2 -1.5
v -0.4 -0.1 -1.5
v -0.2 -0.2 -1.5
v -0.2 -0.1 -1.5
v 0.3 -0.2 -1.5
v 0.3 -0.1 -1.5
v 0.5 -0.2 -1.5
v 0.5 -0.1 -1.5
v -0.4 -0.1 -1.6
v -0.4 0 -1.6
v -0.3 0 -1.6
v -0.2 -0.1 -1.6
v -0.2 0 -1.6
v 0.3 -0.1 -1.6
v 0.3 0 -1.6
v 0.4 0 -1.6
v 0.5 -0.1 -1.6
v 0.5 0 -1.6
v -0.4 0 -1.8
v -0.4 0.1 -1.8
v -0.4 0.2 -1.8
v -0.4 1 -1.8
v -0.3 0.1 -1.8
v -0.3 0.2 -1.8
v -0.3 0.9 -1.8
v -0.2 0.1 -1.8
v -0.2 0.2 -1.8
v -0.1 0 -1.8
v -0.1 0.1 -1.8
v 0.2 0 -1.8
v 0.2 0.1 -1.8
v 0.3 0.1 -1.8
v 0.3 0.2 -1.8
v 0.4 0.1 -1.8
v 0.4 0.2 -1.8
v 0.4 0.9 -1.8
v 0.5 0 -1.8
v 0.5 0.1 -1.8
v 0.5 0.2 -1.8
v 0.5 1 -1.8
v -0.4 -0.2 0.4
v -0.2 -0.2 0.4
v 0.3 -0.2 0.4
v 0.5 -0.2 0.4
v -0.4 -0.2 0.2
v -0.2 -0.2 0.2
v 0.3 -0.2 0.2
v 0.5 -0.2 0.2
v -0.4 -0.2 -1.3
v -0.2 -0.2 -1.3
v 0.3 -0.2 -1.3
v 0.5 -0.2 -1.3
v -0.4 -0.2 -1.5
v -0.2 -0.2 -1.5
v 0.3 -0.2 -1.5
v 0.5 -0.2 -1.5
v -0.4 -0.1 0.5
v -0.2 -0.1 0.5
v 0.3 -0.1 0.5
v 0.5 -0.1 0.5
v -0.4 -0.1 0.4
v -0.2 -0.1 0.4
v 0.3 -0.1 0.4
v 0.5 -0.1 0.4
v -0.4 -0.1 0.2
v -0.2 -0.1 0.2
v 0.3 -0.1 0.2
v 0.5 -0.1 0.2
v -0.4 -0.1 0.1
v -0.2 -0.1 0.1
v 0.3 -0.1 0.1
v 0.5 -0.1 0.1
v -0.4 -0.1 -1.2
v -0.2 -0.1 -1.2
v 0.3 -0.1 -1.2
v 0.5 -0.1 -1.2
v -0.4 -0.1 -1.3
v -0.2 -0.1 -1.3
v 0.3 -0.1 -1.3
v 0.5 -0.1 -1.3
v -0.4 -0.1 -1.5
v -0.2 -0.1 -1.5
v 0.3 -0.1 -1.5
v 0.5 -0.1 -1.5
v -0.4 -0.1 -1.6
v -0.2 -0.1 -1.6
v 0.3 -0.1 -1.6
v 0.5 -0.1 -1.6
v -0.4 0 0.7
v 0.5 0 0.7
v -0.3 0 0.6
v 0.4 0 0.6
v -0.4 0 0.5
v -0.3 0 0.5
v -0.2 0 0.5
v 0.3 0 0.5
v 0.4 0 0.5
v 0.5 0 0.5
v -0.2 0 0.4
v 0.3 0 0.4
v -0.2 0 0.2
v 0.3 0 0.2
v -0.4 0 0.1
v -0.3 0 0.1
v -0.2 0 0.1
v 0.3 0 0.1
v 0.4 0 0.1
v 0.5 0 0.1
v -0.4 0 -1.2
v -0.3 0 -1.2
v -0.2 0 -1.2
v 0.3 0 -1.2
v 0.4 0 -1.2
v 0.5 0 -1.2
v -0.2 0 -1.3
v 0.3 0 -1.3
v -0.2 0 -1.5
v 0.3 0 -1.5
v -0.4 0 -1.6
v -0.3 0 -1.6
v -0.2 0 -1.6
v 0.3 0 -1.6
v 0.4 0 -1.6
v 0.5 0 -1.6
v -0.3 0 -1.7
v -0.1 0 -1.7
v 0.2 0 -1.7
v 0.4 0 -1.7
v -0.4 0 -1.8
v -0.1 0 -1.8
v 0.2 0 -1.8
v 0.5 0 -1.8
v -0.4 0.2 0
v 0.5 0.2 0
v -0.4 0.2 -0.1
v 0.5 0.2 -0.1
v -0.4 0.7 0.7
v -0.3 0.7 0.7
v 0.4 0.7 0.7
v 0.5 0.7 0.7
v -0.4 0.7 0.6
v -0.3 0.7 0.6
v 0.4 0.7 0.6
v 0.5 0.7 0.6
v -0.4 0.8 0.6
v -0.3 0.8 0.6
v 0.4 0.8 0.6
v 0.5 0.8 0.6
v -0.4 0.8 0.5
v -0.3 0.8 0.5
v 0.4 0.8 0.5
v 0.5 0.8 0.5
v -0.4 0.9 0.5
v -0.3 0.9 0.5
v 0.4 0.9 0.5
v 0.5 0.9 0.5
v -0.4 0.9 0.4
v -0.3 0.9 0.4
v 0.4 0.9 0.4
v 0.5 0.9 0.4
v -0.4 1 0.4
v 0.5 1 0.4
v -0.4 1 0
v 0.5 1 0
v -0.4 1 -0.1
v 0.5 1 -0.1
v -0.4 1 -1.8
v 0.5 1 -1.8

# faces
f 6/10/1 2/10/1 1/10/1
f 7/10/1 2/10/1 6/10/1
f 10/10/1 4/10/1 3/10/1
f 11/10/1 4/10/1 10/10/1
f 14/10/1 6/10/1 5/10/1
f 15/10/1 8/10/1 7/10/1
f 16/10/1 10/10/1 9/10/1
f 17/10/1 12/10/1 11/10/1
f 19/9/1 14/9/1 13/9/1
f 20/10/1 6/10/1 14/10/1
f 20/9/1 14/9/1 19/9/1
f 21/8/1 7/8/1 6/8/1
f 21/10/1 6/10/1 20/10/1
f 22/10/1 15/10/1 7/10/1
f 22/8/1 7/8/1 21/8/1
f 23/9/1 16/9/1 15/9/1
f 23/10/1 15/10/1 22/10/1
f 24/9/1 16/9/1 23/9/1
f 25/10/1 10/10/1 16/10/1
f 25/9/1 16/9/1 24/9/1
f 26/8/1 11/8/1 10/8/1
f 26/10/1 10/10/1 25/10/1
f 27/10/1 17/10/1 11/10/1
f 27/8/1 11/8/1 26/8/1
f 28/9/1 18/9/1 17/9/1
f 28/10/1 17/10/1 27/10/1
f 29/9/1 18/9/1 28/9/1
f 30/9/1 18/9/1 29/9/1
f 31/10/1 22/10/1 21/10/1
f 31/3/1 20/3/1 19/3/1
f 31/3/1 21/3/1 20/3/1
f 32/3/1 24/3/1 23/3/1
f 32/10/1 22/10/1 31/10/1
f 32/3/1 23/3/1 22/3/1
f 33/8/1 25/8/1 24/8/1
f 33/3/1 24/3/1 32/3/1
f 33/8/1 26/8/1 25/8/1
f 34/8/1 26/8/1 33/8/1
f 35/8/1 26/8/1 34/8/1
f 36/8/1 26/8/1 35/8/1
f 37/8/1 26/8/1 36/8/1
f 38/10/1 27/10/1 26/10/1
f 38/8/1 26/8/1 37/8/1
f 39/8/1 29/8/1 28/8/1
f 39/10/1 27/10/1 38/10/1
f 39/8/1 28/8/1 27/8/1
f 40/2/1 30/2/1 29/2/1
f 40/8/1 29/8/1 39/8/1
f 41/2/1 30/2/1 40/2/1
f 42/3/1 32/3/1 31/3/1
f 42/3/1 31/3/1 19/3/1
f 42/3/1 33/3/1 32/3/1
f 43/3/1 33/3/1 42/3/1
f 44/3/1 42/3/1 19/3/1
f 44/4/1 43/4/1 42/4/1
f 45/4/1 43/4/1 44/4/1
f 46/3/1 44/3/1 19/3/1
f 46/3/1 45/3/1 44/3/1
f 47/3/1 45/3/1 46/3/1
f 48/4/1 43/4/1 45/4/1
f 48/3/1 45/3/1 47/3/1
f 49/4/1 43/4/1 48/4/1
f 50/3/1 48/3/1 47/3/1
f 50/3/1 49/3/1 48/3/1
f 51/3/1 49/3/1 50/3/1
f 52/4/1 43/4/1 49/4/1
f 52/3/1 49/3/1 51/3/1
f 53/3/1 33/3/1 43/3/1
f 53/4/1 43/4/1 52/4/1
f 54/6/1 37/6/1 36/6/1
f 54/7/1 36/7/1 35/7/1
f 55/7/1 38/7/1 37/7/1
f 55/6/1 37/6/1 54/6/1
f 56/3/1 53/3/1 52/3/1
f 56/3/1 52/3/1 51/3/1
f 57/3/1 53/3/1 56/3/1
f 58/7/1 54/7/1 35/7/1
f 58/6/1 35/6/1 34/6/1
f 58/7/1 55/7/1 54/7/1
f 59/6/1 39/6/1 38/6/1
f 59/7/1 55/7/1 58/7/1
f 59/6/1 41/6/1 40/6/1
f 59/7/1 38/7/1 55/7/1
f 59/6/1 40/6/1 39/6/1
f 60/3/1 53/3/1 57/3/1
f 61/3/1 33/3/1 53/3/1
f 61/3/1 53/3/1 60/3/1
f 62/6/1 58/6/1 34/6/1
f 62/6/1 59/6/1 58/6/1
f 63/6/1 41/6/1 59/6/1
f 63/6/1 59/6/1 62/6/1
f 69/10/1 65/10/1 64/10/1
f 70/10/1 65/10/1 69/10/1
f 73/10/1 67/10/1 66/10/1
f 74/10/1 67/10/1 73/10/1
f 76/10/1 69/10/1 68/10/1
f 77/8/1 70/8/1 69/8/1
f 77/10/1 69/10/1 76/10/1
f 78/10/1 71/10/1 70/10/1
f 78/8/1 70/8/1 77/8/1
f 79/10/1 71/10/1 78/10/1
f 80/10/1 73/10/1 72/10/1
f 81/8/1 74/8/1 73/8/1
f 81/10/1 73/10/1 80/10/1
f 82/10/1 75/10/1 74/10/1
f 82/8/1 74/8/1 81/8/1
f 83/10/1 75/10/1 82/10/1
f 84/10/2 85/10/2 89/10/2
f 89/10/2 85/10/2 90/10/2
f 86/10/2 87/10/2 93/10/2
f 93/10/2 87/10/2 94/10/2
f 88/10/2 89/10/2 96/10/2
f 89/8/2 90/8/2 97/8/2
f 96/10/2 89/10/2 97/10/2
f 90/10/2 91/10/2 98/10/2
f 97/8/2 90/8/2 98/8/2
f 98/10/2 91/10/2 99/10/2
f 92/10/2 93/10/2 100/10/2
f 93/8/2 94/8/2 101/8/2
f 100/10/2 93/10/2 101/10/2
f 94/10/2 95/10/2 102/10/2
f 101/8/2 94/8/2 102/8/2
f 102/10/2 95/10/2 103/10/2
f 104/10/2 105/10/2 109/10/2
f 109/10/2 105/10/2 110/10/2
f 106/10/2 107/10/2 113/10/2
f 113/10/2 107/10/2 114/10/2
f 108/10/2 109/10/2 117/10/2
f 110/10/2 111/10/2 118/10/2
f 112/10/2 113/10/2 119/10/2
f 114/10/2 115/10/2 120/10/2
f 116/9/2 117/9/2 122/9/2
f 117/10/2 109/10/2 123/10/2
f 122/9/2 117/9/2 123/9/2
f 109/8/2 110/8/2 124/8/2
f 123/10/2 109/10/2 124/10/2
f 110/10/2 118/10/2 125/10/2
f 124/8/2 110/8/2 125/8/2
f 118/9/2 119/9/2 126/9/2
f 125/10/2 118/10/2 126/10/2
f 126/9/2 119/9/2 127/9/2
f 119/10/2 113/10/2 128/10/2
f 127/9/2 119/9/2 128/9/2
f 113/8/2 114/8/2 129/8/2
f 128/10/2 113/10/2 129/10/2
f 114/10/2 120/10/2 130/10/2
f 129/8/2 114/8/2 130/8/2
f 120/9/2 121/9/2 131/9/2
f 130/10/2 120/10/2 131/10/2
f 131/9/2 121/9/2 132/9/2
f 132/9/2 121/9/2 133/9/2
f 124/10/2 125/10/2 134/10/2
f 122/3/2 123/3/2 134/3/2
f 123/3/2 124/3/2 134/3/2
f 126/3/2 127/3/2 135/3/2
f 134/10/2 125/10/2 135/10/2
f 125/3/2 126/3/2 135/3/2
f 127/8/2 128/8/2 136/8/2
f 135/3/2 127/3/2 136/3/2
f 128/8/2 129/8/2 136/8/2
f 136/8/2 129/8/2 137/8/2
f 137/8/2 129/8/2 138/8/2
f 138/8/2 129/8/2 139/8/2
f 139/8/2 129/8/2 140/8/2
f 129/10/2 130/10/2 141/10/2
f 140/8/2 129/8/2 141/8/2
f 131/8/2 132/8/2 142/8/2
f 141/10/2 130/10/2 142/10/2
f 130/8/2 131/8/2 142/8/2
f 132/2/2 133/2/2 143/2/2
f 142/8/2 132/8/2 143/8/2
f 143/2/2 133/2/2 144/2/2
f 134/3/2 135/3/2 145/3/2
f 122/3/2 134/3/2 145/3/2
f 135/3/2 136/3/2 145/3/2
f 145/3/2 136/3/2 146/3/2
f 122/3/2 145/3/2 147/3/2
f 145/4/2 146/4/2 147/4/2
f 147/4/2 146/4/2 148/4/2
f 122/3/2 147/3/2 149/3/2
f 147/3/2 148/3/2 149/3/2
f 149/3/2 148/3/2 150/3/2
f 148/4/2 146/4/2 151/4/2
f 150/3/2 148/3/2 151/3/2
f 151/4/2 146/4/2 152/4/2
f 150/3/2 151/3/2 153/3/2
f 151/3/2 152/3/2 153/3/2
f 153/3/2 152/3/2 154/3/2
f 152/4/2 146/4/2 155/4/2
f 154/3/2 152/3/2 155/3/2
f 146/3/2 136/3/2 156/3/2
f 155/4/2 146/4/2 156/4/2
f 139/6/2 140/6/2 157/6/2
f 138/7/2 139/7/2 157/7/2
f 140/7/2 141/7/2 158/7/2
f 157/6/2 140/6/2 158/6/2
f 155/3/2 156/3/2 159/3/2
f 154/3/2 155/3/2 159/3/2
f 159/3/2 156/3/2 160/3/2
f 138/7/2 157/7/2 161/7/2
f 137/6/2 138/6/2 161/6/2
f 157/7/2 158/7/2 161/7/2
f 141/6/2 142/6/2 162/6/2
f 161/7/2 158/7/2 162/7/2
f 143/6/2 144/6/2 162/6/2
f 158/7/2 141/7/2 162/7/2
f 142/6/2 143/6/2 162/6/2
f 160/3/2 156/3/2 163/3/2
f 156/3/2 136/3/2 164/3/2
f 163/3/2 156/3/2 164/3/2
f 137/6/2 161/6/2 165/6/2
f 161/6/2 162/6/2 165/6/2
f 162/6/2 144/6/2 166/6/2
f 165/6/2 162/6/2 166/6/2
f 170/9/3 168/9/3 167/9/3
f 170/3/3 169/3/3 168/3/3
f 171/3/3 169/3/3 170/3/3
f 172/3/3 169/3/3 171/3/3
f 173/3/3 169/3/3 172/3/3
f 174/9/3 170/9/3 167/9/3
f 174/1/3 171/1/3 170/1/3
f 175/3/3 172/3/3 171/3/3
f 175/1/3 171/1/3 174/1/3
f 176/9/3 174/9/3 167/9/3
f 176/3/3 175/3/3 174/3/3
f 177/3/3 172/3/3 175/3/3
f 177/3/3 175/3/3 176/3/3
f 178/9/3 176/9/3 167/9/3
f 178/1/3 177/1/3 176/1/3
f 179/3/3 172/3/3 177/3/3
f 179/1/3 177/1/3 178/1/3
f 180/4/3 173/4/3 172/4/3
f 180/3/3 172/3/3 179/3/3
f 181/4/3 173/4/3 180/4/3
f 182/9/3 178/9/3 167/9/3
f 183/3/3 179/3/3 178/3/3
f 183/9/3 178/9/3 182/9/3
f 183/3/3 180/3/3 179/3/3
f 183/3/3 181/3/3 180/3/3
f 184/3/3 181/3/3 183/3/3
f 187/3/3 186/3/3 185/3/3
f 188/3/3 186/3/3 187/3/3
f 189/4/3 188/4/3 187/4/3
f 190/4/3 188/4/3 189/4/3
f 191/3/3 190/3/3 189/3/3
f 192/3/3 190/3/3 191/3/3
f 197/10/3 194/10/3 193/10/3
f 198/3/3 196/3/3 195/3/3
f 199/3/3 196/3/3 198/3/3
f 200/10/3 197/10/3 193/10/3
f 201/10/3 197/10/3 200/10/3
f 204/10/3 203/10/3 202/10/3
f 205/4/3 199/4/3 198/4/3
f 206/4/3 199/4/3 205/4/3
f 207/10/3 204/10/3 202/10/3
f 208/10/3 204/10/3 207/10/3
f 209/3/3 206/3/3 205/3/3
f 210/3/3 206/3/3 209/3/3
f 215/3/3 214/3/3 213/3/3
f 216/10/3 212/10/3 211/10/3
f 217/10/3 212/10/3 216/10/3
f 220/3/3 214/3/3 215/3/3
f 221/10/3 219/10/3 218/10/3
f 222/10/3 219/10/3 221/10/3
f 223/3/3 214/3/3 220/3/3
f 224/3/3 214/3/3 223/3/3
f 227/6/3 226/6/3 225/6/3
f 228/6/3 226/6/3 227/6/3
f 231/10/3 230/10/3 229/10/3
f 232/10/3 231/10/3 229/10/3
f 233/10/3 231/10/3 232/10/3
f 236/10/3 235/10/3 234/10/3
f 237/10/3 236/10/3 234/10/3
f 238/10/3 236/10/3 237/10/3
f 241/10/3 240/10/3 239/10/3
f 242/10/3 240/10/3 241/10/3
f 245/10/3 244/10/3 243/10/3
f 246/10/3 244/10/3 245/10/3
f 247/10/4 248/10/4 249/10/4
f 249/10/4 248/10/4 250/10/4
f 251/10/4 252/10/4 253/10/4
f 253/10/4 252/10/4 254/10/4
f 255/10/4 256/10/4 257/10/4
f 255/10/4 257/10/4 258/10/4
f 258/10/4 257/10/4 259/10/4
f 260/10/4 261/10/4 262/10/4
f 260/10/4 262/10/4 263/10/4
f 263/10/4 262/10/4 264/10/4
f 265/3/4 266/3/4 267/3/4
f 267/3/4 266/3/4 268/3/4
f 269/10/4 270/10/4 271/10/4
f 271/10/4 270/10/4 272/10/4
f 273/10/4 274/10/4 275/10/4
f 275/10/4 274/10/4 276/10/4
f 277/10/4 278/10/4 279/10/4
f 277/10/4 279/10/4 280/10/4
f 280/10/4 279/10/4 281/10/4
f 282/10/4 283/10/4 284/10/4
f 282/10/4 284/10/4 285/10/4
f 285/10/4 284/10/4 286/10/4
f 287/9/4 288/9/4 291/9/4
f 288/2/4 289/2/4 291/2/4
f 289/6/4 290/6/4 292/6/4
f 291/2/4 289/2/4 292/2/4
f 292/6/4 290/6/4 293/6/4
f 287/9/4 291/9/4 294/9/4
f 291/5/4 292/5/4 294/5/4
f 292/7/4 293/7/4 295/7/4
f 294/5/4 292/5/4 295/5/4
f 287/9/4 294/9/4 296/9/4
f 294/8/4 295/8/4 297/8/4
f 296/9/4 294/9/4 297/9/4
f 296/6/4 297/6/4 298/6/4
f 297/8/4 295/8/4 299/8/4
f 298/6/4 297/6/4 299/6/4
f 298/9/4 299/9/4 300/9/4
f 299/8/4 295/8/4 300/8/4
f 295/7/4 293/7/4 301/7/4
f 300/8/4 295/8/4 301/8/4
f 298/9/4 300/9/4 302/9/4
f 300/5/4 301/5/4 302/5/4
f 301/7/4 293/7/4 303/7/4
f 302/5/4 301/5/4 303/5/4
f 293/6/4 290/6/4 304/6/4
f 303/7/4 293/7/4 304/7/4
f 298/9/4 302/9/4 305/9/4
f 302/2/4 303/2/4 306/2/4
f 305/9/4 302/9/4 306/9/4
f 303/6/4 304/6/4 307/6/4
f 306/2/4 303/2/4 307/2/4
f 304/6/4 290/6/4 308/6/4
f 307/6/4 304/6/4 308/6/4
f 313/10/5 310/10/5 309/10/5
f 314/10/5 310/10/5 313/10/5
f 315/10/5 312/10/5 311/10/5
f 316/10/5 312/10/5 315/10/5
f 321/10/5 318/10/5 317/10/5
f 322/10/5 318/10/5 321/10/5
f 323/10/5 320/10/5 319/10/5
f 324/10/5 320/10/5 323/10/5
f 329/10/5 326/10/5 325/10/5
f 330/10/5 326/10/5 329/10/5
f 331/10/5 328/10/5 327/10/5
f 332/10/5 328/10/5 331/10/5
f 337/10/5 334/10/5 333/10/5
f 338/10/5 334/10/5 337/10/5
f 339/10/5 336/10/5 335/10/5
f 340/10/5 336/10/5 339/10/5
f 345/10/5 342/10/5 341/10/5
f 346/10/5 342/10/5 345/10/5
f 347/10/5 344/10/5 343/10/5
f 348/10/5 344/10/5 347/10/5
f 353/10/5 350/10/5 349/10/5
f 354/10/5 350/10/5 353/10/5
f 355/10/5 352/10/5 351/10/5
f 356/10/5 352/10/5 355/10/5
f 359/9/5 358/9/5 357/9/5
f 360/9/5 358/9/5 359/9/5
f 361/9/5 359/9/5 357/9/5
f 362/8/5 360/8/5 359/8/5
f 362/9/5 359/9/5 361/9/5
f 363/8/5 360/8/5 362/8/5
f 364/8/5 360/8/5 363/8/5
f 365/9/5 358/9/5 360/9/5
f 365/8/5 360/8/5 364/8/5
f 366/9/5 358/9/5 365/9/5
f 367/8/5 364/8/5 363/8/5
f 368/8/5 364/8/5 367/8/5
f 369/8/5 368/8/5 367/8/5
f 370/8/5 368/8/5 369/8/5
f 373/8/5 370/8/5 369/8/5
f 374/8/5 370/8/5 373/8/5
f 377/9/5 372/9/5 371/9/5
f 378/8/5 374/8/5 373/8/5
f 378/9/5 372/9/5 377/9/5
f 378/8/5 373/8/5 372/8/5
f 378/8/5 375/8/5 374/8/5
f 379/8/5 375/8/5 378/8/5
f 380/8/5 375/8/5 379/8/5
f 381/9/5 376/9/5 375/9/5
f 381/8/5 375/8/5 380/8/5
f 382/9/5 376/9/5 381/9/5
f 383/8/5 380/8/5 379/8/5
f 384/8/5 380/8/5 383/8/5
f 385/8/5 384/8/5 383/8/5
f 386/8/5 384/8/5 385/8/5
f 389/8/5 386/8/5 385/8/5
f 390/8/5 386/8/5 389/8/5
f 393/8/5 390/8/5 389/8/5
f 393/9/5 388/9/5 387/9/5
f 393/8/5 391/8/5 390/8/5
f 393/8/5 389/8/5 388/8/5
f 394/8/5 391/8/5 393/8/5
f 395/8/5 391/8/5 394/8/5
f 396/9/5 392/9/5 391/9/5
f 396/8/5 391/8/5 395/8/5
f 397/9/5 393/9/5 387/9/5
f 397/9/5 394/9/5 393/9/5
f 398/6/5 395/6/5 394/6/5
f 398/9/5 394/9/5 397/9/5
f 399/9/5 396/9/5 395/9/5
f 399/6/5 395/6/5 398/6/5
f 400/9/5 392/9/5 396/9/5
f 400/9/5 396/9/5 399/9/5
f 401/8/6 402/8/6 403/8/6
f 403/8/6 402/8/6 404/8/6
f 405/3/6 406/3/6 409/3/6
f 406/4/6 407/4/6 410/4/6
f 409/3/6 406/3/6 410/3/6
f 407/3/6 408/3/6 411/3/6
f 410/4/6 407/4/6 411/4/6
f 411/3/6 408/3/6 412/3/6
f 413/3/6 414/3/6 417/3/6
f 414/4/6 415/4/6 418/4/6
f 417/3/6 414/3/6 418/3/6
f 415/3/6 416/3/6 419/3/6
f 418/4/6 415/4/6 419/4/6
f 419/3/6 416/3/6 420/3/6
f 421/3/6 422/3/6 425/3/6
f 422/4/6 423/4/6 426/4/6
f 425/3/6 422/3/6 426/3/6
f 423/3/6 424/3/6 427/3/6
f 426/4/6 423/4/6 427/4/6
f 427/3/6 424/3/6 428/3/6
f 429/3/6 430/3/6 431/3/6
f 431/3/6 430/3/6 432/3/6
f 433/6/6 434/6/6 435/6/6
f 435/6/6 434/6/6 436/6/6
