# MagicaVoxel @ Ephtracy

# group
o 

# material
mtllib vaiking2.mtl
usemtl palette

# normals
vn -1 0 0
vn 1 0 0
vn 0 0 1
vn 0 0 -1
vn 0 -1 0
vn 0 1 0

# texcoords
vt 0.369141 0.5
vt 0.416016 0.5
vt 0.564453 0.5
vt 0.751953 0.5
vt 0.958984 0.5
vt 0.978516 0.5

# verts
v -0.9 0.6 -0.4
v -0.9 0.6 -1.3
v -0.9 0.7 0.7
v -0.9 0.7 -0.2
v -0.9 0.7 -0.4
v -0.9 0.7 -1.3
v -0.9 0.7 -1.4
v -0.9 0.7 -1.6
v -0.9 0.8 0.9
v -0.9 0.8 0.8
v -0.9 0.8 0.7
v -0.9 0.8 0.0999999
v -0.9 0.8 -1.19209e-07
v -0.9 0.8 -0.2
v -0.9 0.8 -0.3
v -0.9 0.8 -0.7
v -0.9 0.8 -1.6
v -0.9 0.8 -1.7
v -0.9 0.9 1
v -0.9 0.9 0.9
v -0.9 0.9 -1.19209e-07
v -0.9 0.9 -0.1
v -0.9 0.9 -0.3
v -0.9 0.9 -0.6
v -0.9 0.9 -0.7
v -0.9 0.9 -0.8
v -0.9 0.9 -1.3
v -0.9 0.9 -1.4
v -0.9 0.9 -1.5
v -0.9 1 1.1
v -0.9 1 1
v -0.9 1 0.8
v -0.9 1 0.6
v -0.9 1 0.5
v -0.9 1 0.3
v -0.9 1 0.0999999
v -0.9 1 -0.1
v -0.9 1 -0.3
v -0.9 1 -0.6
v -0.9 1 -0.7
v -0.9 1 -0.8
v -0.9 1 -0.9
v -0.9 1 -1
v -0.9 1 -1.1
v -0.9 1 -1.2
v -0.9 1 -1.3
v -0.9 1 -1.4
v -0.9 1 -1.5
v -0.9 1 -1.6
v -0.9 1 -1.7
v -0.9 1.1 0.6
v -0.9 1.1 0.5
v -0.9 1.1 0.0999999
v -0.9 1.1 -1.19209e-07
v -0.9 1.1 -0.7
v -0.9 1.1 -0.8
v -0.9 1.1 -0.9
v -0.9 1.1 -1
v -0.9 1.1 -1.2
v -0.9 1.1 -1.3
v -0.9 1.1 -1.4
v -0.9 1.2 1.1
v -0.9 1.2 1
v -0.9 1.2 0.8
v -0.9 1.2 0.6
v -0.9 1.2 0.5
v -0.9 1.2 0.4
v -0.9 1.2 0.3
v -0.9 1.2 0.0999999
v -0.9 1.2 -1.19209e-07
v -0.9 1.2 -0.1
v -0.9 1.2 -0.4
v -0.9 1.2 -0.6
v -0.9 1.2 -0.7
v -0.9 1.2 -0.8
v -0.9 1.2 -0.9
v -0.9 1.2 -1.1
v -0.9 1.2 -1.2
v -0.9 1.2 -1.3
v -0.9 1.2 -1.4
v -0.9 1.2 -1.6
v -0.9 1.3 1
v -0.9 1.3 0.6
v -0.9 1.3 0.5
v -0.9 1.3 0.4
v -0.9 1.3 0.3
v -0.9 1.3 -0.1
v -0.9 1.3 -0.3
v -0.9 1.3 -0.4
v -0.9 1.3 -0.5
v -0.9 1.3 -0.6
v -0.9 1.3 -0.7
v -0.9 1.3 -0.8
v -0.9 1.3 -0.9
v -0.9 1.4 -0.3
v -0.9 1.4 -0.4
v -0.9 1.4 -0.5
v -0.9 1.4 -0.7
v -0.8 0 1
v -0.8 0 0.9
v -0.8 0 -1.6
v -0.8 0 -1.7
v -0.8 0.2 1
v -0.8 0.2 0.9
v -0.8 0.2 0.8
v -0.8 0.2 -1.5
v -0.8 0.2 -1.6
v -0.8 0.2 -1.7
v -0.8 0.4 0.9
v -0.8 0.4 0.8
v -0.8 0.4 0.7
v -0.8 0.4 -1.4
v -0.8 0.4 -1.5
v -0.8 0.4 -1.6
v -0.8 0.7 0.8
v -0.8 0.7 0.7
v -0.8 0.7 -1.4
v -0.8 0.7 -1.5
v -0.8 1.2 0.5
v -0.8 1.2 0.4
v -0.8 1.2 -1.1
v -0.8 1.2 -1.2
v -0.8 1.3 0.5
v -0.8 1.3 0.4
v -0.8 1.4 0.5
v -0.8 1.4 0.4
v -0.8 1.4 0.3
v -0.8 1.5 -1
v -0.8 1.5 -1.1
v -0.8 1.5 -1.2
v -0.8 1.7 0.4
v -0.8 1.7 0.3
v -0.8 1.7 0.2
v -0.8 1.8 -0.9
v -0.8 1.8 -1
v -0.8 1.8 -1.1
v -0.8 2 0.3
v -0.8 2 0.2
v -0.8 2 0.0999999
v -0.8 2 -0.8
v -0.8 2 -0.9
v -0.8 2 -1
v -0.8 2.3 0.2
v -0.8 2.3 0.0999999
v -0.8 2.3 -1.19209e-07
v -0.8 2.3 -0.7
v -0.8 2.3 -0.8
v -0.8 2.3 -0.9
v -0.8 2.6 0.0999999
v -0.8 2.6 -1.19209e-07
v -0.8 2.6 -0.1
v -0.8 2.6 -0.6
v -0.8 2.6 -0.7
v -0.8 2.6 -0.8
v -0.8 2.8 -1.19209e-07
v -0.8 2.8 -0.1
v -0.8 2.8 -0.2
v -0.8 2.8 -0.5
v -0.8 2.8 -0.6
v -0.8 2.8 -0.7
v -0.8 2.9 -0.2
v -0.8 2.9 -0.5
v -0.8 3 -0.1
v -0.8 3 -0.2
v -0.8 3 -0.5
v -0.8 3 -0.6
v -0.8 3.1 -0.2
v -0.8 3.1 -0.3
v -0.8 3.1 -0.4
v -0.8 3.1 -0.5
v -0.8 3.2 -0.3
v -0.8 3.2 -0.4
v -0.4 1.3 0.8
v -0.4 1.3 -1
v -0.4 1.4 0.9
v -0.4 1.4 0.8
v -0.4 1.5 -1
v -0.4 1.5 -1.1
v -0.4 1.6 1
v -0.4 1.6 0.9
v -0.4 1.6 -1.1
v -0.4 1.6 -1.2
v -0.4 1.7 1
v -0.4 1.7 0.6
v -0.4 1.7 0.5
v -0.4 1.7 -1.1
v -0.4 1.9 0.5
v -0.4 1.9 0.4
v -0.4 1.9 -1
v -0.4 1.9 -1.1
v -0.4 2.1 0.6
v -0.4 2.1 0.5
v -0.4 2.1 -1.1
v -0.4 2.1 -1.2
v -0.4 2.2 0.4
v -0.4 2.2 0.3
v -0.4 2.2 -0.9
v -0.4 2.2 -1
v -0.4 2.4 0.5
v -0.4 2.4 0.4
v -0.4 2.4 0.3
v -0.4 2.4 0.2
v -0.4 2.4 -0.8
v -0.4 2.4 -0.9
v -0.4 2.4 -1
v -0.4 2.4 -1.1
v -0.4 2.6 0.4
v -0.4 2.6 0.3
v -0.4 2.6 0.2
v -0.4 2.6 0.0999999
v -0.4 2.6 -0.7
v -0.4 2.6 -0.8
v -0.4 2.6 -0.9
v -0.4 2.6 -1
v -0.4 2.8 0.3
v -0.4 2.8 0.2
v -0.4 2.8 -0.8
v -0.4 2.8 -0.9
v -0.4 2.9 0.0999999
v -0.4 2.9 -0.1
v -0.4 2.9 -0.6
v -0.4 2.9 -0.7
v -0.4 3 0.2
v -0.4 3 -0.1
v -0.4 3 -0.6
v -0.4 3 -0.8
v -0.3 1 0.9
v -0.3 1 -1.2
v -0.3 1.2 1
v -0.3 1.2 0.9
v -0.3 1.3 0.8
v -0.3 1.3 -1
v -0.3 1.4 0.9
v -0.3 1.4 0.8
v -0.3 1.5 -1
v -0.3 1.5 -1.1
v -0.3 1.5 -1.2
v -0.3 1.5 -1.3
v -0.3 1.6 1
v -0.3 1.6 0.9
v -0.3 1.6 -1.1
v -0.3 1.6 -1.2
v -0.3 1.7 -1.2
v -0.3 1.7 -1.3
v -0.2 0.9 1
v -0.2 0.9 -1.3
v -0.2 1 0.9
v -0.2 1 -1.2
v -0.2 1.1 1.1
v -0.2 1.1 1
v -0.2 1.1 -1.3
v -0.2 1.1 -1.4
v -0.2 1.2 1
v -0.2 1.2 0.9
v -0.2 1.2 -1.4
v -0.2 1.2 -1.5
v -0.2 1.5 1.2
v -0.2 1.5 1.1
v -0.2 1.5 -1.2
v -0.2 1.5 -1.3
v -0.2 1.5 -1.5
v -0.2 1.5 -1.6
v -0.2 1.7 1.2
v -0.2 1.7 1
v -0.2 1.7 -1.3
v -0.2 1.7 -1.6
v -0.1 0.9 -1.3
v -0.1 0.9 -1.4
v -0.1 1.1 -1.3
v -0.1 1.1 -1.4
v -0.1 1.1 -1.6
v -0.1 1.2 -1.4
v -0.1 1.2 -1.5
v -0.1 1.3 1.2
v -0.1 1.3 1.1
v -0.1 1.5 1.2
v -0.1 1.5 1.1
v -0.1 1.5 -1.5
v -0.1 1.5 -1.6
v -0.1 1.5 -1.7
v -0.1 1.7 -1.6
v -0.1 1.7 -1.7
v 0 0.9 -1.4
v 0 0.9 -1.5
v 0 1.1 -1.4
v 0 1.1 -1.5
v 0.2 1 0.9
v 0.2 1 0.7
v 0.2 1 -1.1
v 0.2 1 -1.3
v 0.2 1.1 0.9
v 0.2 1.1 0.7
v 0.2 1.6 -1.1
v 0.2 1.6 -1.3
v 0.3 1 0.7
v 0.3 1 0.4
v 0.3 1.1 0.9
v 0.3 1.1 0.7
v 0.3 1.6 0.9
v 0.3 1.6 0.4
v 0.3 1.6 -1
v 0.3 1.6 -1.1
v 0.3 1.6 -1.3
v 0.3 1.7 -1
v 0.3 1.7 -1.3
v 0.4 1 0.4
v 0.4 1 -1.1
v 0.4 1.6 0.9
v 0.4 1.6 0.4
v 0.4 1.6 -1
v 0.4 1.6 -1.1
v 0.4 1.7 0.9
v 0.4 1.7 -1
v 0.5 1.7 0.6
v 0.5 1.7 0.5
v 0.5 1.7 -1.1
v 0.5 1.7 -1.2
v 0.5 1.9 0.5
v 0.5 1.9 0.4
v 0.5 1.9 -1
v 0.5 1.9 -1.1
v 0.5 2.1 0.6
v 0.5 2.1 0.5
v 0.5 2.1 -1.1
v 0.5 2.1 -1.2
v 0.5 2.2 0.4
v 0.5 2.2 0.3
v 0.5 2.2 -0.9
v 0.5 2.2 -1
v 0.5 2.4 0.5
v 0.5 2.4 0.4
v 0.5 2.4 0.3
v 0.5 2.4 0.2
v 0.5 2.4 -0.8
v 0.5 2.4 -0.9
v 0.5 2.4 -1
v 0.5 2.4 -1.1
v 0.5 2.6 0.4
v 0.5 2.6 0.3
v 0.5 2.6 0.2
v 0.5 2.6 0.0999999
v 0.5 2.6 -0.9
v 0.5 2.6 -1
v 0.5 2.7 -0.7
v 0.5 2.7 -0.8
v 0.5 2.8 0.3
v 0.5 2.8 0.2
v 0.5 2.8 -0.8
v 0.5 2.8 -0.9
v 0.5 2.9 0.0999999
v 0.5 2.9 -0.1
v 0.5 2.9 -0.6
v 0.5 2.9 -0.7
v 0.5 3 0.2
v 0.5 3 -0.1
v 0.5 3 -0.6
v 0.5 3 -0.8
v 0.8 0 1
v 0.8 0 0.9
v 0.8 0 -1.6
v 0.8 0 -1.7
v 0.8 0.2 1
v 0.8 0.2 0.9
v 0.8 0.2 0.8
v 0.8 0.2 -1.5
v 0.8 0.2 -1.6
v 0.8 0.2 -1.7
v 0.8 0.4 0.9
v 0.8 0.4 0.8
v 0.8 0.4 0.7
v 0.8 0.4 -1.4
v 0.8 0.4 -1.5
v 0.8 0.4 -1.6
v 0.8 0.7 0.8
v 0.8 0.7 0.7
v 0.8 0.7 0.6
v 0.8 0.7 -1.3
v 0.8 0.7 -1.4
v 0.8 0.7 -1.5
v 0.8 0.9 0.7
v 0.8 0.9 0.6
v 0.8 0.9 0.5
v 0.8 1 -1.2
v 0.8 1 -1.3
v 0.8 1 -1.4
v 0.8 1.2 0.6
v 0.8 1.2 0.5
v 0.8 1.2 0.4
v 0.8 1.2 -1.1
v 0.8 1.2 -1.2
v 0.8 1.2 -1.3
v 0.8 1.4 0.5
v 0.8 1.4 0.4
v 0.8 1.4 0.3
v 0.8 1.5 -1
v 0.8 1.5 -1.1
v 0.8 1.5 -1.2
v 0.8 1.7 0.4
v 0.8 1.7 0.3
v 0.8 1.7 0.2
v 0.8 1.8 -0.9
v 0.8 1.8 -1
v 0.8 1.8 -1.1
v 0.8 2 0.3
v 0.8 2 0.2
v 0.8 2 0.0999999
v 0.8 2 -0.8
v 0.8 2 -0.9
v 0.8 2 -1
v 0.8 2.3 0.2
v 0.8 2.3 0.0999999
v 0.8 2.3 -1.19209e-07
v 0.8 2.3 -0.7
v 0.8 2.3 -0.8
v 0.8 2.3 -0.9
v 0.8 2.6 0.0999999
v 0.8 2.6 -1.19209e-07
v 0.8 2.6 -0.1
v 0.8 2.6 -0.6
v 0.8 2.6 -0.7
v 0.8 2.6 -0.8
v 0.8 2.8 -1.19209e-07
v 0.8 2.8 -0.1
v 0.8 2.8 -0.2
v 0.8 2.8 -0.5
v 0.8 2.8 -0.6
v 0.8 2.8 -0.7
v 0.8 2.9 -0.1
v 0.8 2.9 -0.2
v 0.8 2.9 -0.5
v 0.8 2.9 -0.6
v -0.8 0.6 -0.4
v -0.8 0.6 -1.3
v -0.8 0.7 0.6
v -0.8 0.7 -0.2
v -0.8 0.7 -0.4
v -0.8 0.7 -1.3
v -0.8 0.7 -1.4
v -0.8 0.7 -1.5
v -0.8 0.7 -1.6
v -0.8 0.8 0.9
v -0.8 0.8 0.8
v -0.8 0.8 0.7
v -0.8 0.8 0.6
v -0.8 0.8 0.0999999
v -0.8 0.8 -1.19209e-07
v -0.8 0.8 -0.2
v -0.8 0.8 -0.3
v -0.8 0.8 -0.7
v -0.8 0.8 -1.6
v -0.8 0.8 -1.7
v -0.8 0.9 1
v -0.8 0.9 0.9
v -0.8 0.9 0.7
v -0.8 0.9 0.6
v -0.8 0.9 0.5
v -0.8 0.9 -1.19209e-07
v -0.8 0.9 -0.1
v -0.8 0.9 -0.3
v -0.8 0.9 -0.6
v -0.8 0.9 -0.7
v -0.8 0.9 -0.8
v -0.8 0.9 -1.4
v -0.8 0.9 -1.5
v -0.8 1 1.1
v -0.8 1 1
v -0.8 1 0.8
v -0.8 1 0.6
v -0.8 1 0.5
v -0.8 1 0.3
v -0.8 1 0.0999999
v -0.8 1 -0.1
v -0.8 1 -0.3
v -0.8 1 -0.6
v -0.8 1 -0.7
v -0.8 1 -0.8
v -0.8 1 -0.9
v -0.8 1 -1
v -0.8 1 -1.1
v -0.8 1 -1.2
v -0.8 1 -1.3
v -0.8 1 -1.4
v -0.8 1 -1.5
v -0.8 1 -1.6
v -0.8 1 -1.7
v -0.8 1.1 0.0999999
v -0.8 1.1 -1.19209e-07
v -0.8 1.1 -0.7
v -0.8 1.1 -0.8
v -0.8 1.1 -0.9
v -0.8 1.1 -1
v -0.8 1.1 -1.3
v -0.8 1.1 -1.4
v -0.8 1.2 1.1
v -0.8 1.2 1
v -0.8 1.2 0.8
v -0.8 1.2 0.6
v -0.8 1.2 0.5
v -0.8 1.2 0.4
v -0.8 1.2 0.3
v -0.8 1.2 0.0999999
v -0.8 1.2 -1.19209e-07
v -0.8 1.2 -0.1
v -0.8 1.2 -0.4
v -0.8 1.2 -0.6
v -0.8 1.2 -0.7
v -0.8 1.2 -0.8
v -0.8 1.2 -0.9
v -0.8 1.2 -1.1
v -0.8 1.2 -1.4
v -0.8 1.2 -1.6
v -0.8 1.3 1
v -0.8 1.3 0.6
v -0.8 1.3 0.5
v -0.8 1.3 0.4
v -0.8 1.3 0.3
v -0.8 1.3 -0.1
v -0.8 1.3 -0.3
v -0.8 1.3 -0.4
v -0.8 1.3 -0.5
v -0.8 1.3 -0.6
v -0.8 1.3 -0.7
v -0.8 1.3 -0.8
v -0.8 1.3 -0.9
v -0.8 1.4 -0.3
v -0.8 1.4 -0.4
v -0.8 1.4 -0.5
v -0.8 1.4 -0.7
v -0.6 0 1
v -0.6 0 0.9
v -0.6 0 -1.6
v -0.6 0 -1.7
v -0.6 0.2 1
v -0.6 0.2 0.9
v -0.6 0.2 0.8
v -0.6 0.2 -1.5
v -0.6 0.2 -1.6
v -0.6 0.2 -1.7
v -0.6 0.4 0.9
v -0.6 0.4 0.8
v -0.6 0.4 0.7
v -0.6 0.4 -1.4
v -0.6 0.4 -1.5
v -0.6 0.4 -1.6
v -0.6 0.7 0.8
v -0.6 0.7 0.7
v -0.6 0.7 0.6
v -0.6 0.7 -1.3
v -0.6 0.7 -1.4
v -0.6 0.7 -1.5
v -0.6 0.9 0.7
v -0.6 0.9 0.6
v -0.6 0.9 0.5
v -0.6 1 -1.2
v -0.6 1 -1.3
v -0.6 1 -1.4
v -0.6 1.2 0.6
v -0.6 1.2 0.5
v -0.6 1.2 0.4
v -0.6 1.2 -1.1
v -0.6 1.2 -1.2
v -0.6 1.2 -1.3
v -0.6 1.4 0.5
v -0.6 1.4 0.4
v -0.6 1.4 0.3
v -0.6 1.5 -1
v -0.6 1.5 -1.1
v -0.6 1.5 -1.2
v -0.6 1.7 0.4
v -0.6 1.7 0.3
v -0.6 1.7 0.2
v -0.6 1.8 -0.9
v -0.6 1.8 -1
v -0.6 1.8 -1.1
v -0.6 2 0.3
v -0.6 2 0.2
v -0.6 2 0.0999999
v -0.6 2 -0.8
v -0.6 2 -0.9
v -0.6 2 -1
v -0.6 2.3 0.2
v -0.6 2.3 0.0999999
v -0.6 2.3 -1.19209e-07
v -0.6 2.3 -0.7
v -0.6 2.3 -0.8
v -0.6 2.3 -0.9
v -0.6 2.6 0.0999999
v -0.6 2.6 -1.19209e-07
v -0.6 2.6 -0.1
v -0.6 2.6 -0.6
v -0.6 2.6 -0.7
v -0.6 2.6 -0.8
v -0.6 2.8 -1.19209e-07
v -0.6 2.8 -0.1
v -0.6 2.8 -0.2
v -0.6 2.8 -0.5
v -0.6 2.8 -0.6
v -0.6 2.8 -0.7
v -0.6 2.9 -0.1
v -0.6 2.9 -0.2
v -0.6 2.9 -0.5
v -0.6 2.9 -0.6
v -0.3 1.7 0.6
v -0.3 1.7 0.5
v -0.3 1.7 -1.1
v -0.3 1.7 -1.2
v -0.3 1.9 0.5
v -0.3 1.9 0.4
v -0.3 1.9 -1
v -0.3 1.9 -1.1
v -0.3 2.1 0.6
v -0.3 2.1 0.5
v -0.3 2.1 -1.1
v -0.3 2.1 -1.2
v -0.3 2.2 0.4
v -0.3 2.2 0.3
v -0.3 2.2 -0.9
v -0.3 2.2 -1
v -0.3 2.4 0.5
v -0.3 2.4 0.4
v -0.3 2.4 0.3
v -0.3 2.4 0.2
v -0.3 2.4 -0.8
v -0.3 2.4 -0.9
v -0.3 2.4 -1
v -0.3 2.4 -1.1
v -0.3 2.6 0.4
v -0.3 2.6 0.3
v -0.3 2.6 0.2
v -0.3 2.6 0.0999999
v -0.3 2.6 -0.7
v -0.3 2.6 -0.8
v -0.3 2.6 -0.9
v -0.3 2.6 -1
v -0.3 2.8 0.3
v -0.3 2.8 0.2
v -0.3 2.8 -0.8
v -0.3 2.8 -0.9
v -0.3 2.9 0.0999999
v -0.3 2.9 -0.1
v -0.3 2.9 -0.6
v -0.3 2.9 -0.7
v -0.3 3 0.2
v -0.3 3 -0.1
v -0.3 3 -0.6
v -0.3 3 -0.8
v -0.2 1 0.9
v -0.2 1 -1.1
v -0.2 1.6 -1.1
v -0.2 1.6 -1.2
v -0.2 1.7 0.9
v -0.2 1.7 -1.2
v -0.1 1 -1.1
v -0.1 1 -1.3
v -0.1 1.6 -1.1
v -0.1 1.6 -1.2
v -0.1 1.7 -1.2
v -0.1 1.7 -1.3
v 0.2 0.9 1
v 0.2 0.9 0.9
v 0.2 0.9 -1.4
v 0.2 0.9 -1.5
v 0.2 1.1 1
v 0.2 1.1 0.9
v 0.2 1.1 -1.4
v 0.2 1.1 -1.5
v 0.3 0.9 0.9
v 0.3 0.9 0.7
v 0.3 0.9 -1.2
v 0.3 0.9 -1.4
v 0.3 1.1 1.1
v 0.3 1.1 0.9
v 0.3 1.1 0.7
v 0.3 1.1 -1.2
v 0.3 1.1 -1.3
v 0.3 1.1 -1.4
v 0.3 1.1 -1.6
v 0.3 1.2 -1.3
v 0.3 1.2 -1.4
v 0.3 1.3 1.2
v 0.3 1.3 1.1
v 0.3 1.3 1
v 0.3 1.3 0.9
v 0.3 1.3 -1.4
v 0.3 1.3 -1.5
v 0.3 1.5 1.2
v 0.3 1.5 1
v 0.3 1.5 -1.5
v 0.3 1.5 -1.6
v 0.3 1.5 -1.7
v 0.3 1.7 -1.6
v 0.3 1.7 -1.7
v 0.4 0.9 0.7
v 0.4 0.9 -1.2
v 0.4 1 0.4
v 0.4 1 -1.1
v 0.4 1.1 0.9
v 0.4 1.1 0.7
v 0.4 1.1 -1.2
v 0.4 1.1 -1.3
v 0.4 1.2 -1.3
v 0.4 1.2 -1.4
v 0.4 1.3 1
v 0.4 1.3 0.9
v 0.4 1.3 0.6
v 0.4 1.3 0.4
v 0.4 1.3 -1.1
v 0.4 1.3 -1.3
v 0.4 1.3 -1.4
v 0.4 1.3 -1.5
v 0.4 1.5 1.2
v 0.4 1.5 1
v 0.4 1.5 0.6
v 0.4 1.5 -1.3
v 0.4 1.5 -1.4
v 0.4 1.5 -1.5
v 0.4 1.5 -1.6
v 0.4 1.7 1.2
v 0.4 1.7 1
v 0.4 1.7 -1.4
v 0.4 1.7 -1.6
v 0.5 1.5 -1.3
v 0.5 1.5 -1.4
v 0.5 1.7 -1.3
v 0.5 1.7 -1.4
v 0.6 1 0.4
v 0.6 1 -1.1
v 0.6 1.3 0.6
v 0.6 1.3 0.4
v 0.6 1.3 -1.1
v 0.6 1.3 -1.3
v 0.6 1.5 1
v 0.6 1.5 0.6
v 0.6 1.6 -1.1
v 0.6 1.6 -1.2
v 0.6 1.7 1
v 0.6 1.7 0.6
v 0.6 1.7 0.5
v 0.6 1.7 -1.1
v 0.6 1.7 -1.2
v 0.6 1.7 -1.3
v 0.6 1.9 0.5
v 0.6 1.9 0.4
v 0.6 1.9 -1
v 0.6 1.9 -1.1
v 0.6 2.1 0.6
v 0.6 2.1 0.5
v 0.6 2.1 -1.1
v 0.6 2.1 -1.2
v 0.6 2.2 0.4
v 0.6 2.2 0.3
v 0.6 2.2 -0.9
v 0.6 2.2 -1
v 0.6 2.4 0.5
v 0.6 2.4 0.4
v 0.6 2.4 0.3
v 0.6 2.4 0.2
v 0.6 2.4 -0.8
v 0.6 2.4 -0.9
v 0.6 2.4 -1
v 0.6 2.4 -1.1
v 0.6 2.6 0.4
v 0.6 2.6 0.3
v 0.6 2.6 0.2
v 0.6 2.6 0.0999999
v 0.6 2.6 -0.9
v 0.6 2.6 -1
v 0.6 2.7 -0.7
v 0.6 2.7 -0.8
v 0.6 2.8 0.3
v 0.6 2.8 0.2
v 0.6 2.8 -0.8
v 0.6 2.8 -0.9
v 0.6 2.9 0.0999999
v 0.6 2.9 -0.1
v 0.6 2.9 -0.6
v 0.6 2.9 -0.7
v 0.6 3 0.2
v 0.6 3 -0.1
v 0.6 3 -0.6
v 0.6 3 -0.8
v 1 0 1
v 1 0 0.9
v 1 0 -1.6
v 1 0 -1.7
v 1 0.2 1
v 1 0.2 0.9
v 1 0.2 0.8
v 1 0.2 -1.5
v 1 0.2 -1.6
v 1 0.2 -1.7
v 1 0.4 0.9
v 1 0.4 0.8
v 1 0.4 0.7
v 1 0.4 -1.4
v 1 0.4 -1.5
v 1 0.4 -1.6
v 1 0.7 0.8
v 1 0.7 0.7
v 1 0.7 0.6
v 1 0.7 -1.3
v 1 0.7 -1.4
v 1 0.7 -1.5
v 1 0.9 0.7
v 1 0.9 0.6
v 1 0.9 0.5
v 1 1 -1.2
v 1 1 -1.3
v 1 1 -1.4
v 1 1.2 0.6
v 1 1.2 0.5
v 1 1.2 0.4
v 1 1.2 -1.1
v 1 1.2 -1.2
v 1 1.2 -1.3
v 1 1.4 0.5
v 1 1.4 0.4
v 1 1.4 0.3
v 1 1.5 -1
v 1 1.5 -1.1
v 1 1.5 -1.2
v 1 1.7 0.4
v 1 1.7 0.3
v 1 1.7 0.2
v 1 1.8 -0.9
v 1 1.8 -1
v 1 1.8 -1.1
v 1 2 0.3
v 1 2 0.2
v 1 2 0.0999999
v 1 2 -0.8
v 1 2 -0.9
v 1 2 -1
v 1 2.3 0.2
v 1 2.3 0.0999999
v 1 2.3 -1.19209e-07
v 1 2.3 -0.7
v 1 2.3 -0.8
v 1 2.3 -0.9
v 1 2.6 0.0999999
v 1 2.6 -1.19209e-07
v 1 2.6 -0.1
v 1 2.6 -0.6
v 1 2.6 -0.7
v 1 2.6 -0.8
v 1 2.8 -1.19209e-07
v 1 2.8 -0.1
v 1 2.8 -0.2
v 1 2.8 -0.5
v 1 2.8 -0.6
v 1 2.8 -0.7
v 1 2.9 -0.2
v 1 2.9 -0.5
v 1 3 -0.1
v 1 3 -0.2
v 1 3 -0.5
v 1 3 -0.6
v 1 3.1 -0.2
v 1 3.1 -0.3
v 1 3.1 -0.4
v 1 3.1 -0.5
v 1 3.2 -0.3
v 1 3.2 -0.4
v -0.2 1.5 1.2
v -0.2 1.7 1.2
v -0.1 1.3 1.2
v -0.1 1.5 1.2
v 0.3 1.3 1.2
v 0.3 1.5 1.2
v 0.4 1.5 1.2
v 0.4 1.7 1.2
v -0.9 1 1.1
v -0.9 1.2 1.1
v -0.8 1 1.1
v -0.8 1.2 1.1
v -0.2 1.1 1.1
v -0.2 1.5 1.1
v -0.1 1.3 1.1
v -0.1 1.5 1.1
v 0.3 1.1 1.1
v 0.3 1.3 1.1
v -0.9 0.9 1
v -0.9 1 1
v -0.9 1.2 1
v -0.9 1.3 1
v -0.8 0 1
v -0.8 0.2 1
v -0.8 0.9 1
v -0.8 1 1
v -0.8 1.2 1
v -0.8 1.3 1
v -0.6 0 1
v -0.6 0.2 1
v -0.4 1.6 1
v -0.4 1.7 1
v -0.3 1.2 1
v -0.3 1.6 1
v -0.2 0.9 1
v -0.2 1.1 1
v -0.2 1.2 1
v -0.2 1.7 1
v 0.2 0.9 1
v 0.2 1.1 1
v 0.3 1.3 1
v 0.3 1.5 1
v 0.4 1.3 1
v 0.4 1.5 1
v 0.4 1.7 1
v 0.6 1.5 1
v 0.6 1.7 1
v 0.8 0 1
v 0.8 0.2 1
v 1 0 1
v 1 0.2 1
v -0.9 0.8 0.9
v -0.9 0.9 0.9
v -0.8 0.2 0.9
v -0.8 0.4 0.9
v -0.8 0.8 0.9
v -0.8 0.9 0.9
v -0.6 0.2 0.9
v -0.6 0.4 0.9
v -0.4 1.4 0.9
v -0.4 1.6 0.9
v -0.3 1 0.9
v -0.3 1.2 0.9
v -0.3 1.4 0.9
v -0.3 1.6 0.9
v -0.2 1 0.9
v -0.2 1.2 0.9
v 0.2 0.9 0.9
v 0.2 1.1 0.9
v 0.3 0.9 0.9
v 0.3 1.1 0.9
v 0.3 1.3 0.9
v 0.4 1.1 0.9
v 0.4 1.3 0.9
v 0.8 0.2 0.9
v 0.8 0.4 0.9
v 1 0.2 0.9
v 1 0.4 0.9
v -0.8 0.4 0.8
v -0.8 0.7 0.8
v -0.6 0.4 0.8
v -0.6 0.7 0.8
v -0.4 1.3 0.8
v -0.4 1.4 0.8
v -0.3 1.3 0.8
v -0.3 1.4 0.8
v 0.8 0.4 0.8
v 0.8 0.7 0.8
v 1 0.4 0.8
v 1 0.7 0.8
v -0.9 0.7 0.7
v -0.9 0.8 0.7
v -0.8 0.7 0.7
v -0.8 0.8 0.7
v -0.8 0.9 0.7
v -0.6 0.7 0.7
v -0.6 0.9 0.7
v 0.3 0.9 0.7
v 0.3 1.1 0.7
v 0.4 0.9 0.7
v 0.4 1.1 0.7
v 0.8 0.7 0.7
v 0.8 0.9 0.7
v 1 0.7 0.7
v 1 0.9 0.7
v -0.8 0.9 0.6
v -0.8 1 0.6
v -0.8 1.2 0.6
v -0.6 0.9 0.6
v -0.6 1.2 0.6
v -0.4 1.7 0.6
v -0.4 2.1 0.6
v -0.3 1.7 0.6
v -0.3 2.1 0.6
v 0.4 1.3 0.6
v 0.4 1.5 0.6
v 0.5 1.7 0.6
v 0.5 2.1 0.6
v 0.6 1.3 0.6
v 0.6 1.5 0.6
v 0.6 1.7 0.6
v 0.6 2.1 0.6
v 0.8 0.9 0.6
v 0.8 1.2 0.6
v 1 0.9 0.6
v 1 1.2 0.6
v -0.8 1.2 0.5
v -0.8 1.3 0.5
v -0.8 1.4 0.5
v -0.6 1.2 0.5
v -0.6 1.4 0.5
v -0.4 2.1 0.5
v -0.4 2.4 0.5
v -0.3 2.1 0.5
v -0.3 2.4 0.5
v 0.5 2.1 0.5
v 0.5 2.4 0.5
v 0.6 2.1 0.5
v 0.6 2.4 0.5
v 0.8 1.2 0.5
v 0.8 1.4 0.5
v 1 1.2 0.5
v 1 1.4 0.5
v -0.9 1.2 0.4
v -0.9 1.3 0.4
v -0.8 1.2 0.4
v -0.8 1.3 0.4
v -0.8 1.4 0.4
v -0.8 1.7 0.4
v -0.6 1.4 0.4
v -0.6 1.7 0.4
v -0.4 2.4 0.4
v -0.4 2.6 0.4
v -0.3 2.4 0.4
v -0.3 2.6 0.4
v 0.4 1 0.4
v 0.4 1.3 0.4
v 0.5 2.4 0.4
v 0.5 2.6 0.4
v 0.6 1 0.4
v 0.6 1.3 0.4
v 0.6 2.4 0.4
v 0.6 2.6 0.4
v 0.8 1.4 0.4
v 0.8 1.7 0.4
v 1 1.4 0.4
v 1 1.7 0.4
v -0.8 1.7 0.3
v -0.8 2 0.3
v -0.6 1.7 0.3
v -0.6 2 0.3
v -0.4 2.6 0.3
v -0.4 2.8 0.3
v -0.3 2.6 0.3
v -0.3 2.8 0.3
v 0.5 2.6 0.3
v 0.5 2.8 0.3
v 0.6 2.6 0.3
v 0.6 2.8 0.3
v 0.8 1.7 0.3
v 0.8 2 0.3
v 1 1.7 0.3
v 1 2 0.3
v -0.8 2 0.2
v -0.8 2.3 0.2
v -0.6 2 0.2
v -0.6 2.3 0.2
v -0.4 2.8 0.2
v -0.4 3 0.2
v -0.3 2.8 0.2
v -0.3 3 0.2
v 0.5 2.8 0.2
v 0.5 3 0.2
v 0.6 2.8 0.2
v 0.6 3 0.2
v 0.8 2 0.2
v 0.8 2.3 0.2
v 1 2 0.2
v 1 2.3 0.2
v -0.8 2.3 0.0999999
v -0.8 2.6 0.0999999
v -0.6 2.3 0.0999999
v -0.6 2.6 0.0999999
v 0.8 2.3 0.0999999
v 0.8 2.6 0.0999999
v 1 2.3 0.0999999
v 1 2.6 0.0999999
v -0.9 1.1 -1.19209e-07
v -0.9 1.2 -1.19209e-07
v -0.8 1.1 -1.19209e-07
v -0.8 1.2 -1.19209e-07
v -0.8 2.6 -1.19209e-07
v -0.8 2.8 -1.19209e-07
v -0.6 2.6 -1.19209e-07
v -0.6 2.8 -1.19209e-07
v 0.8 2.6 -1.19209e-07
v 0.8 2.8 -1.19209e-07
v 1 2.6 -1.19209e-07
v 1 2.8 -1.19209e-07
v -0.9 1.2 -0.1
v -0.9 1.3 -0.1
v -0.8 1.2 -0.1
v -0.8 1.3 -0.1
v -0.8 2.8 -0.1
v -0.8 3 -0.1
v -0.6 2.8 -0.1
v -0.6 2.9 -0.1
v -0.4 2.9 -0.1
v -0.4 3 -0.1
v -0.3 2.9 -0.1
v -0.3 3 -0.1
v 0.5 2.9 -0.1
v 0.5 3 -0.1
v 0.6 2.9 -0.1
v 0.6 3 -0.1
v 0.8 2.8 -0.1
v 0.8 2.9 -0.1
v 1 2.8 -0.1
v 1 3 -0.1
v -0.8 3 -0.2
v -0.8 3.1 -0.2
v 1 3 -0.2
v 1 3.1 -0.2
v -0.9 1.3 -0.3
v -0.9 1.4 -0.3
v -0.8 1.3 -0.3
v -0.8 1.4 -0.3
v -0.8 3.1 -0.3
v -0.8 3.2 -0.3
v 1 3.1 -0.3
v 1 3.2 -0.3
v -0.9 0.6 -0.4
v -0.9 0.7 -0.4
v -0.8 0.6 -0.4
v -0.8 0.7 -0.4
v -0.9 1.3 -0.5
v -0.9 1.4 -0.5
v -0.8 1.3 -0.5
v -0.8 1.4 -0.5
v -0.8 2.8 -0.5
v -0.8 2.9 -0.5
v -0.6 2.8 -0.5
v -0.6 2.9 -0.5
v 0.8 2.8 -0.5
v 0.8 2.9 -0.5
v 1 2.8 -0.5
v 1 2.9 -0.5
v -0.8 2.6 -0.6
v -0.8 2.8 -0.6
v -0.6 2.6 -0.6
v -0.6 2.8 -0.6
v 0.8 2.6 -0.6
v 0.8 2.8 -0.6
v 1 2.6 -0.6
v 1 2.8 -0.6
v -0.8 2.3 -0.7
v -0.8 2.6 -0.7
v -0.6 2.3 -0.7
v -0.6 2.6 -0.7
v -0.4 2.6 -0.7
v -0.4 2.9 -0.7
v -0.3 2.6 -0.7
v -0.3 2.9 -0.7
v 0.5 2.7 -0.7
v 0.5 2.9 -0.7
v 0.6 2.7 -0.7
v 0.6 2.9 -0.7
v 0.8 2.3 -0.7
v 0.8 2.6 -0.7
v 1 2.3 -0.7
v 1 2.6 -0.7
v -0.9 1 -0.8
v -0.9 1.1 -0.8
v -0.8 1 -0.8
v -0.8 1.1 -0.8
v -0.8 2 -0.8
v -0.8 2.3 -0.8
v -0.6 2 -0.8
v -0.6 2.3 -0.8
v -0.4 2.4 -0.8
v -0.4 2.6 -0.8
v -0.3 2.4 -0.8
v -0.3 2.6 -0.8
v 0.5 2.4 -0.8
v 0.5 2.7 -0.8
v 0.6 2.4 -0.8
v 0.6 2.7 -0.8
v 0.8 2 -0.8
v 0.8 2.3 -0.8
v 1 2 -0.8
v 1 2.3 -0.8
v -0.9 1.1 -0.9
v -0.9 1.2 -0.9
v -0.8 1.1 -0.9
v -0.8 1.2 -0.9
v -0.8 1.8 -0.9
v -0.8 2 -0.9
v -0.6 1.8 -0.9
v -0.6 2 -0.9
v -0.4 2.2 -0.9
v -0.4 2.4 -0.9
v -0.3 2.2 -0.9
v -0.3 2.4 -0.9
v 0.5 2.2 -0.9
v 0.5 2.4 -0.9
v 0.6 2.2 -0.9
v 0.6 2.4 -0.9
v 0.8 1.8 -0.9
v 0.8 2 -0.9
v 1 1.8 -0.9
v 1 2 -0.9
v -0.8 1.5 -1
v -0.8 1.8 -1
v -0.6 1.5 -1
v -0.6 1.8 -1
v -0.4 1.9 -1
v -0.4 2.2 -1
v -0.3 1.9 -1
v -0.3 2.2 -1
v 0.3 1.6 -1
v 0.3 1.7 -1
v 0.4 1.6 -1
v 0.4 1.7 -1
v 0.5 1.9 -1
v 0.5 2.2 -1
v 0.6 1.9 -1
v 0.6 2.2 -1
v 0.8 1.5 -1
v 0.8 1.8 -1
v 1 1.5 -1
v 1 1.8 -1
v -0.8 1.2 -1.1
v -0.8 1.5 -1.1
v -0.6 1.2 -1.1
v -0.6 1.5 -1.1
v -0.4 1.7 -1.1
v -0.4 1.9 -1.1
v -0.3 1.7 -1.1
v -0.3 1.9 -1.1
v -0.2 1 -1.1
v -0.2 1.6 -1.1
v -0.1 1 -1.1
v -0.1 1.6 -1.1
v 0.2 1 -1.1
v 0.2 1.6 -1.1
v 0.3 1.6 -1.1
v 0.4 1 -1.1
v 0.4 1.6 -1.1
v 0.5 1.7 -1.1
v 0.5 1.9 -1.1
v 0.6 1.7 -1.1
v 0.6 1.9 -1.1
v 0.8 1.2 -1.1
v 0.8 1.5 -1.1
v 1 1.2 -1.1
v 1 1.5 -1.1
v -0.9 1 -1.2
v -0.9 1.1 -1.2
v -0.9 1.2 -1.2
v -0.8 1 -1.2
v -0.8 1.1 -1.2
v -0.8 1.2 -1.2
v -0.6 1 -1.2
v -0.6 1.2 -1.2
v -0.2 1.6 -1.2
v -0.2 1.7 -1.2
v -0.1 1.6 -1.2
v -0.1 1.7 -1.2
v 0.8 1 -1.2
v 0.8 1.2 -1.2
v 1 1 -1.2
v 1 1.2 -1.2
v -0.8 0.7 -1.3
v -0.8 1 -1.3
v -0.6 0.7 -1.3
v -0.6 1 -1.3
v -0.1 1 -1.3
v -0.1 1.7 -1.3
v 0.2 1 -1.3
v 0.2 1.6 -1.3
v 0.3 1.6 -1.3
v 0.3 1.7 -1.3
v 0.8 0.7 -1.3
v 0.8 1 -1.3
v 1 0.7 -1.3
v 1 1 -1.3
v -0.9 1.1 -1.4
v -0.9 1.2 -1.4
v -0.8 0.4 -1.4
v -0.8 0.7 -1.4
v -0.8 1.1 -1.4
v -0.8 1.2 -1.4
v -0.6 0.4 -1.4
v -0.6 0.7 -1.4
v 0.8 0.4 -1.4
v 0.8 0.7 -1.4
v 1 0.4 -1.4
v 1 0.7 -1.4
v -0.8 0.2 -1.5
v -0.8 0.4 -1.5
v -0.6 0.2 -1.5
v -0.6 0.4 -1.5
v 0.8 0.2 -1.5
v 0.8 0.4 -1.5
v 1 0.2 -1.5
v 1 0.4 -1.5
v -0.8 0 -1.6
v -0.8 0.2 -1.6
v -0.6 0 -1.6
v -0.6 0.2 -1.6
v 0.8 0 -1.6
v 0.8 0.2 -1.6
v 1 0 -1.6
v 1 0.2 -1.6
v -0.8 0 0.9
v -0.8 0.2 0.9
v -0.6 0 0.9
v -0.6 0.2 0.9
v -0.2 1 0.9
v -0.2 1.7 0.9
v 0.2 1 0.9
v 0.2 1.1 0.9
v 0.3 1.1 0.9
v 0.3 1.6 0.9
v 0.4 1.6 0.9
v 0.4 1.7 0.9
v 0.8 0 0.9
v 0.8 0.2 0.9
v 1 0 0.9
v 1 0.2 0.9
v -0.8 0.2 0.8
v -0.8 0.4 0.8
v -0.6 0.2 0.8
v -0.6 0.4 0.8
v 0.8 0.2 0.8
v 0.8 0.4 0.8
v 1 0.2 0.8
v 1 0.4 0.8
v -0.8 0.4 0.7
v -0.8 0.7 0.7
v -0.6 0.4 0.7
v -0.6 0.7 0.7
v 0.2 1 0.7
v 0.2 1.1 0.7
v 0.3 1 0.7
v 0.3 1.1 0.7
v 0.8 0.4 0.7
v 0.8 0.7 0.7
v 1 0.4 0.7
v 1 0.7 0.7
v -0.8 0.7 0.6
v -0.8 0.8 0.6
v -0.8 0.9 0.6
v -0.6 0.7 0.6
v -0.6 0.9 0.6
v 0.8 0.7 0.6
v 0.8 0.9 0.6
v 1 0.7 0.6
v 1 0.9 0.6
v -0.9 1.2 0.5
v -0.9 1.3 0.5
v -0.8 0.9 0.5
v -0.8 1 0.5
v -0.8 1.2 0.5
v -0.8 1.3 0.5
v -0.6 0.9 0.5
v -0.6 1.2 0.5
v -0.4 1.7 0.5
v -0.4 1.9 0.5
v -0.3 1.7 0.5
v -0.3 1.9 0.5
v 0.5 1.7 0.5
v 0.5 1.9 0.5
v 0.6 1.7 0.5
v 0.6 1.9 0.5
v 0.8 0.9 0.5
v 0.8 1.2 0.5
v 1 0.9 0.5
v 1 1.2 0.5
v -0.8 1.2 0.4
v -0.8 1.3 0.4
v -0.8 1.4 0.4
v -0.6 1.2 0.4
v -0.6 1.4 0.4
v -0.4 1.9 0.4
v -0.4 2.2 0.4
v -0.3 1.9 0.4
v -0.3 2.2 0.4
v 0.3 1 0.4
v 0.3 1.6 0.4
v 0.4 1 0.4
v 0.4 1.6 0.4
v 0.5 1.9 0.4
v 0.5 2.2 0.4
v 0.6 1.9 0.4
v 0.6 2.2 0.4
v 0.8 1.2 0.4
v 0.8 1.4 0.4
v 1 1.2 0.4
v 1 1.4 0.4
v -0.9 1.2 0.3
v -0.9 1.3 0.3
v -0.8 1.2 0.3
v -0.8 1.3 0.3
v -0.8 1.4 0.3
v -0.8 1.7 0.3
v -0.6 1.4 0.3
v -0.6 1.7 0.3
v -0.4 2.2 0.3
v -0.4 2.4 0.3
v -0.3 2.2 0.3
v -0.3 2.4 0.3
v 0.5 2.2 0.3
v 0.5 2.4 0.3
v 0.6 2.2 0.3
v 0.6 2.4 0.3
v 0.8 1.4 0.3
v 0.8 1.7 0.3
v 1 1.4 0.3
v 1 1.7 0.3
v -0.8 1.7 0.2
v -0.8 2 0.2
v -0.6 1.7 0.2
v -0.6 2 0.2
v -0.4 2.4 0.2
v -0.4 2.6 0.2
v -0.3 2.4 0.2
v -0.3 2.6 0.2
v 0.5 2.4 0.2
v 0.5 2.6 0.2
v 0.6 2.4 0.2
v 0.6 2.6 0.2
v 0.8 1.7 0.2
v 0.8 2 0.2
v 1 1.7 0.2
v 1 2 0.2
v -0.9 1.1 0.0999999
v -0.9 1.2 0.0999999
v -0.8 1.1 0.0999999
v -0.8 1.2 0.0999999
v -0.8 2 0.0999999
v -0.8 2.3 0.0999999
v -0.6 2 0.0999999
v -0.6 2.3 0.0999999
v -0.4 2.6 0.0999999
v -0.4 2.9 0.0999999
v -0.3 2.6 0.0999999
v -0.3 2.9 0.0999999
v 0.5 2.6 0.0999999
v 0.5 2.9 0.0999999
v 0.6 2.6 0.0999999
v 0.6 2.9 0.0999999
v 0.8 2 0.0999999
v 0.8 2.3 0.0999999
v 1 2 0.0999999
v 1 2.3 0.0999999
v -0.8 2.3 -1.19209e-07
v -0.8 2.6 -1.19209e-07
v -0.6 2.3 -1.19209e-07
v -0.6 2.6 -1.19209e-07
v 0.8 2.3 -1.19209e-07
v 0.8 2.6 -1.19209e-07
v 1 2.3 -1.19209e-07
v 1 2.6 -1.19209e-07
v -0.8 2.6 -0.1
v -0.8 2.8 -0.1
v -0.6 2.6 -0.1
v -0.6 2.8 -0.1
v 0.8 2.6 -0.1
v 0.8 2.8 -0.1
v 1 2.6 -0.1
v 1 2.8 -0.1
v -0.8 2.8 -0.2
v -0.8 2.9 -0.2
v -0.6 2.8 -0.2
v -0.6 2.9 -0.2
v 0.8 2.8 -0.2
v 0.8 2.9 -0.2
v 1 2.8 -0.2
v 1 2.9 -0.2
v -0.9 1.3 -0.4
v -0.9 1.4 -0.4
v -0.8 1.3 -0.4
v -0.8 1.4 -0.4
v -0.8 3.1 -0.4
v -0.8 3.2 -0.4
v 1 3.1 -0.4
v 1 3.2 -0.4
v -0.8 3 -0.5
v -0.8 3.1 -0.5
v 1 3 -0.5
v 1 3.1 -0.5
v -0.8 2.8 -0.6
v -0.8 3 -0.6
v -0.6 2.8 -0.6
v -0.6 2.9 -0.6
v -0.4 2.9 -0.6
v -0.4 3 -0.6
v -0.3 2.9 -0.6
v -0.3 3 -0.6
v 0.5 2.9 -0.6
v 0.5 3 -0.6
v 0.6 2.9 -0.6
v 0.6 3 -0.6
v 0.8 2.8 -0.6
v 0.8 2.9 -0.6
v 1 2.8 -0.6
v 1 3 -0.6
v -0.9 1 -0.7
v -0.9 1.1 -0.7
v -0.9 1.3 -0.7
v -0.9 1.4 -0.7
v -0.8 1 -0.7
v -0.8 1.1 -0.7
v -0.8 1.3 -0.7
v -0.8 1.4 -0.7
v -0.8 2.6 -0.7
v -0.8 2.8 -0.7
v -0.6 2.6 -0.7
v -0.6 2.8 -0.7
v 0.8 2.6 -0.7
v 0.8 2.8 -0.7
v 1 2.6 -0.7
v 1 2.8 -0.7
v -0.9 1.1 -0.8
v -0.9 1.2 -0.8
v -0.8 1.1 -0.8
v -0.8 1.2 -0.8
v -0.8 2.3 -0.8
v -0.8 2.6 -0.8
v -0.6 2.3 -0.8
v -0.6 2.6 -0.8
v -0.4 2.8 -0.8
v -0.4 3 -0.8
v -0.3 2.8 -0.8
v -0.3 3 -0.8
v 0.5 2.8 -0.8
v 0.5 3 -0.8
v 0.6 2.8 -0.8
v 0.6 3 -0.8
v 0.8 2.3 -0.8
v 0.8 2.6 -0.8
v 1 2.3 -0.8
v 1 2.6 -0.8
v -0.9 1.2 -0.9
v -0.9 1.3 -0.9
v -0.8 1.2 -0.9
v -0.8 1.3 -0.9
v -0.8 2 -0.9
v -0.8 2.3 -0.9
v -0.6 2 -0.9
v -0.6 2.3 -0.9
v -0.4 2.6 -0.9
v -0.4 2.8 -0.9
v -0.3 2.6 -0.9
v -0.3 2.8 -0.9
v 0.5 2.6 -0.9
v 0.5 2.8 -0.9
v 0.6 2.6 -0.9
v 0.6 2.8 -0.9
v 0.8 2 -0.9
v 0.8 2.3 -0.9
v 1 2 -0.9
v 1 2.3 -0.9
v -0.8 1.8 -1
v -0.8 2 -1
v -0.6 1.8 -1
v -0.6 2 -1
v -0.4 1.3 -1
v -0.4 1.5 -1
v -0.4 2.4 -1
v -0.4 2.6 -1
v -0.3 1.3 -1
v -0.3 1.5 -1
v -0.3 2.4 -1
v -0.3 2.6 -1
v 0.5 2.4 -1
v 0.5 2.6 -1
v 0.6 2.4 -1
v 0.6 2.6 -1
v 0.8 1.8 -1
v 0.8 2 -1
v 1 1.8 -1
v 1 2 -1
v -0.9 1 -1.1
v -0.9 1.2 -1.1
v -0.8 1 -1.1
v -0.8 1.2 -1.1
v -0.8 1.5 -1.1
v -0.8 1.8 -1.1
v -0.6 1.5 -1.1
v -0.6 1.8 -1.1
v -0.4 1.5 -1.1
v -0.4 1.6 -1.1
v -0.4 2.1 -1.1
v -0.4 2.4 -1.1
v -0.3 1.5 -1.1
v -0.3 1.6 -1.1
v -0.3 2.1 -1.1
v -0.3 2.4 -1.1
v 0.4 1 -1.1
v 0.4 1.3 -1.1
v 0.5 2.1 -1.1
v 0.5 2.4 -1.1
v 0.6 1 -1.1
v 0.6 1.3 -1.1
v 0.6 2.1 -1.1
v 0.6 2.4 -1.1
v 0.8 1.5 -1.1
v 0.8 1.8 -1.1
v 1 1.5 -1.1
v 1 1.8 -1.1
v -0.8 1.2 -1.2
v -0.8 1.5 -1.2
v -0.6 1.2 -1.2
v -0.6 1.5 -1.2
v -0.4 1.6 -1.2
v -0.4 2.1 -1.2
v -0.3 1 -1.2
v -0.3 1.5 -1.2
v -0.3 1.6 -1.2
v -0.3 1.7 -1.2
v -0.3 2.1 -1.2
v -0.2 1 -1.2
v -0.2 1.5 -1.2
v 0.3 0.9 -1.2
v 0.3 1.1 -1.2
v 0.4 0.9 -1.2
v 0.4 1.1 -1.2
v 0.5 1.7 -1.2
v 0.5 2.1 -1.2
v 0.6 1.7 -1.2
v 0.6 2.1 -1.2
v 0.8 1.2 -1.2
v 0.8 1.5 -1.2
v 1 1.2 -1.2
v 1 1.5 -1.2
v -0.9 0.6 -1.3
v -0.9 0.7 -1.3
v -0.9 1.1 -1.3
v -0.9 1.2 -1.3
v -0.8 0.6 -1.3
v -0.8 0.7 -1.3
v -0.8 1 -1.3
v -0.8 1.1 -1.3
v -0.8 1.2 -1.3
v -0.6 1 -1.3
v -0.6 1.2 -1.3
v -0.3 1.5 -1.3
v -0.3 1.7 -1.3
v -0.2 0.9 -1.3
v -0.2 1.1 -1.3
v -0.2 1.5 -1.3
v -0.2 1.7 -1.3
v -0.1 0.9 -1.3
v -0.1 1.1 -1.3
v 0.3 1.1 -1.3
v 0.3 1.2 -1.3
v 0.4 1.1 -1.3
v 0.4 1.2 -1.3
v 0.4 1.3 -1.3
v 0.4 1.5 -1.3
v 0.5 1.5 -1.3
v 0.5 1.7 -1.3
v 0.6 1.3 -1.3
v 0.6 1.7 -1.3
v 0.8 1 -1.3
v 0.8 1.2 -1.3
v 1 1 -1.3
v 1 1.2 -1.3
v -0.8 0.7 -1.4
v -0.8 0.9 -1.4
v -0.8 1 -1.4
v -0.6 0.7 -1.4
v -0.6 1 -1.4
v -0.2 1.1 -1.4
v -0.2 1.2 -1.4
v -0.1 0.9 -1.4
v -0.1 1.1 -1.4
v -0.1 1.2 -1.4
v 0 0.9 -1.4
v 0 1.1 -1.4
v 0.2 0.9 -1.4
v 0.2 1.1 -1.4
v 0.3 0.9 -1.4
v 0.3 1.1 -1.4
v 0.3 1.2 -1.4
v 0.3 1.3 -1.4
v 0.4 1.2 -1.4
v 0.4 1.3 -1.4
v 0.4 1.5 -1.4
v 0.4 1.7 -1.4
v 0.5 1.5 -1.4
v 0.5 1.7 -1.4
v 0.8 0.7 -1.4
v 0.8 1 -1.4
v 1 0.7 -1.4
v 1 1 -1.4
v -0.8 0.4 -1.5
v -0.8 0.7 -1.5
v -0.6 0.4 -1.5
v -0.6 0.7 -1.5
v -0.2 1.2 -1.5
v -0.2 1.5 -1.5
v -0.1 1.2 -1.5
v -0.1 1.5 -1.5
v 0 0.9 -1.5
v 0 1.1 -1.5
v 0.2 0.9 -1.5
v 0.2 1.1 -1.5
v 0.3 1.3 -1.5
v 0.3 1.5 -1.5
v 0.4 1.3 -1.5
v 0.4 1.5 -1.5
v 0.8 0.4 -1.5
v 0.8 0.7 -1.5
v 1 0.4 -1.5
v 1 0.7 -1.5
v -0.9 0.7 -1.6
v -0.9 0.8 -1.6
v -0.9 1 -1.6
v -0.9 1.2 -1.6
v -0.8 0.2 -1.6
v -0.8 0.4 -1.6
v -0.8 0.7 -1.6
v -0.8 0.8 -1.6
v -0.8 1 -1.6
v -0.8 1.2 -1.6
v -0.6 0.2 -1.6
v -0.6 0.4 -1.6
v -0.2 1.5 -1.6
v -0.2 1.7 -1.6
v -0.1 1.1 -1.6
v -0.1 1.5 -1.6
v -0.1 1.7 -1.6
v 0.3 1.1 -1.6
v 0.3 1.5 -1.6
v 0.3 1.7 -1.6
v 0.4 1.5 -1.6
v 0.4 1.7 -1.6
v 0.8 0.2 -1.6
v 0.8 0.4 -1.6
v 1 0.2 -1.6
v 1 0.4 -1.6
v -0.9 0.8 -1.7
v -0.9 1 -1.7
v -0.8 0 -1.7
v -0.8 0.2 -1.7
v -0.8 0.8 -1.7
v -0.8 1 -1.7
v -0.6 0 -1.7
v -0.6 0.2 -1.7
v -0.1 1.5 -1.7
v -0.1 1.7 -1.7
v 0.3 1.5 -1.7
v 0.3 1.7 -1.7
v 0.8 0 -1.7
v 0.8 0.2 -1.7
v 1 0 -1.7
v 1 0.2 -1.7
v -0.8 0 1
v -0.6 0 1
v 0.8 0 1
v 1 0 1
v -0.8 0 0.9
v -0.6 0 0.9
v 0.8 0 0.9
v 1 0 0.9
v -0.8 0 -1.6
v -0.6 0 -1.6
v 0.8 0 -1.6
v 1 0 -1.6
v -0.8 0 -1.7
v -0.6 0 -1.7
v 0.8 0 -1.7
v 1 0 -1.7
v -0.8 0.2 0.9
v -0.6 0.2 0.9
v 0.8 0.2 0.9
v 1 0.2 0.9
v -0.8 0.2 0.8
v -0.6 0.2 0.8
v 0.8 0.2 0.8
v 1 0.2 0.8
v -0.8 0.2 -1.5
v -0.6 0.2 -1.5
v 0.8 0.2 -1.5
v 1 0.2 -1.5
v -0.8 0.2 -1.6
v -0.6 0.2 -1.6
v 0.8 0.2 -1.6
v 1 0.2 -1.6
v -0.8 0.4 0.8
v -0.6 0.4 0.8
v 0.8 0.4 0.8
v 1 0.4 0.8
v -0.8 0.4 0.7
v -0.6 0.4 0.7
v 0.8 0.4 0.7
v 1 0.4 0.7
v -0.8 0.4 -1.4
v -0.6 0.4 -1.4
v 0.8 0.4 -1.4
v 1 0.4 -1.4
v -0.8 0.4 -1.5
v -0.6 0.4 -1.5
v 0.8 0.4 -1.5
v 1 0.4 -1.5
v -0.9 0.6 -0.4
v -0.8 0.6 -0.4
v -0.9 0.6 -1.3
v -0.8 0.6 -1.3
v -0.9 0.7 0.7
v -0.8 0.7 0.7
v -0.6 0.7 0.7
v 0.8 0.7 0.7
v 1 0.7 0.7
v -0.8 0.7 0.6
v -0.6 0.7 0.6
v 0.8 0.7 0.6
v 1 0.7 0.6
v -0.9 0.7 -0.2
v -0.8 0.7 -0.2
v -0.9 0.7 -0.4
v -0.8 0.7 -0.4
v -0.9 0.7 -1.3
v -0.8 0.7 -1.3
v -0.6 0.7 -1.3
v 0.8 0.7 -1.3
v 1 0.7 -1.3
v -0.9 0.7 -1.4
v -0.8 0.7 -1.4
v -0.6 0.7 -1.4
v 0.8 0.7 -1.4
v 1 0.7 -1.4
v -0.8 0.7 -1.5
v -0.9 0.7 -1.6
v -0.8 0.7 -1.6
v -0.9 0.8 0.9
v -0.8 0.8 0.9
v -0.9 0.8 0.8
v -0.8 0.8 0.8
v -0.9 0.8 0.7
v -0.8 0.8 0.7
v -0.9 0.8 -1.6
v -0.8 0.8 -1.6
v -0.9 0.8 -1.7
v -0.8 0.8 -1.7
v -0.9 0.9 1
v -0.8 0.9 1
v -0.2 0.9 1
v 0.2 0.9 1
v -0.9 0.9 0.9
v -0.8 0.9 0.9
v 0.2 0.9 0.9
v 0.3 0.9 0.9
v 0.3 0.9 0.7
v 0.4 0.9 0.7
v -0.8 0.9 0.6
v -0.6 0.9 0.6
v 0.8 0.9 0.6
v 1 0.9 0.6
v -0.8 0.9 0.5
v -0.6 0.9 0.5
v 0.8 0.9 0.5
v 1 0.9 0.5
v 0.3 0.9 -1.2
v 0.4 0.9 -1.2
v -0.2 0.9 -1.3
v -0.1 0.9 -1.3
v -0.1 0.9 -1.4
v 0 0.9 -1.4
v 0.2 0.9 -1.4
v 0.3 0.9 -1.4
v 0 0.9 -1.5
v 0.2 0.9 -1.5
v -0.9 1 1.1
v -0.8 1 1.1
v -0.9 1 1
v -0.8 1 1
v -0.3 1 0.9
v -0.2 1 0.9
v 0.4 1 0.4
v 0.6 1 0.4
v 0.4 1 -1.1
v 0.6 1 -1.1
v -0.8 1 -1.2
v -0.6 1 -1.2
v -0.3 1 -1.2
v -0.2 1 -1.2
v 0.8 1 -1.2
v 1 1 -1.2
v -0.8 1 -1.3
v -0.6 1 -1.3
v 0.8 1 -1.3
v 1 1 -1.3
v -0.2 1.1 1.1
v 0.3 1.1 1.1
v -0.2 1.1 1
v 0.2 1.1 1
v 0.2 1.1 0.9
v 0.3 1.1 0.9
v 0.4 1.1 0.9
v 0.3 1.1 0.7
v 0.4 1.1 0.7
v -0.9 1.1 -0.7
v -0.8 1.1 -0.7
v -0.9 1.1 -0.8
v -0.8 1.1 -0.8
v 0.3 1.1 -1.2
v 0.4 1.1 -1.2
v -0.2 1.1 -1.3
v -0.1 1.1 -1.3
v 0.3 1.1 -1.3
v 0.4 1.1 -1.3
v -0.2 1.1 -1.4
v -0.1 1.1 -1.4
v 0 1.1 -1.4
v 0.2 1.1 -1.4
v 0.3 1.1 -1.4
v 0 1.1 -1.5
v 0.2 1.1 -1.5
v -0.1 1.1 -1.6
v 0.3 1.1 -1.6
v -0.3 1.2 1
v -0.2 1.2 1
v -0.3 1.2 0.9
v -0.2 1.2 0.9
v -0.8 1.2 0.5
v -0.6 1.2 0.5
v 0.8 1.2 0.5
v 1 1.2 0.5
v -0.8 1.2 0.4
v -0.6 1.2 0.4
v 0.8 1.2 0.4
v 1 1.2 0.4
v -0.9 1.2 -0.8
v -0.8 1.2 -0.8
v -0.9 1.2 -0.9
v -0.8 1.2 -0.9
v -0.8 1.2 -1.1
v -0.6 1.2 -1.1
v 0.8 1.2 -1.1
v 1 1.2 -1.1
v -0.8 1.2 -1.2
v -0.6 1.2 -1.2
v 0.8 1.2 -1.2
v 1 1.2 -1.2
v 0.3 1.2 -1.3
v 0.4 1.2 -1.3
v -0.2 1.2 -1.4
v -0.1 1.2 -1.4
v 0.3 1.2 -1.4
v 0.4 1.2 -1.4
v -0.2 1.2 -1.5
v -0.1 1.2 -1.5
v -0.1 1.3 1.2
v 0.3 1.3 1.2
v -0.1 1.3 1.1
v 0.3 1.3 1.1
v 0.3 1.3 1
v 0.4 1.3 1
v 0.3 1.3 0.9
v 0.4 1.3 0.9
v -0.4 1.3 0.8
v -0.3 1.3 0.8
v 0.4 1.3 0.6
v 0.6 1.3 0.6
v 0.4 1.3 0.4
v 0.6 1.3 0.4
v -0.4 1.3 -1
v -0.3 1.3 -1
v 0.4 1.3 -1.1
v 0.6 1.3 -1.1
v 0.4 1.3 -1.3
v 0.6 1.3 -1.3
v 0.3 1.3 -1.4
v 0.4 1.3 -1.4
v 0.3 1.3 -1.5
v 0.4 1.3 -1.5
v -0.4 1.4 0.9
v -0.3 1.4 0.9
v -0.4 1.4 0.8
v -0.3 1.4 0.8
v -0.8 1.4 0.4
v -0.6 1.4 0.4
v 0.8 1.4 0.4
v 1 1.4 0.4
v -0.8 1.4 0.3
v -0.6 1.4 0.3
v 0.8 1.4 0.3
v 1 1.4 0.3
v -0.2 1.5 1.2
v -0.1 1.5 1.2
v 0.3 1.5 1.2
v 0.4 1.5 1.2
v -0.2 1.5 1.1
v -0.1 1.5 1.1
v 0.3 1.5 1
v 0.4 1.5 1
v 0.6 1.5 1
v 0.4 1.5 0.6
v 0.6 1.5 0.6
v -0.8 1.5 -1
v -0.6 1.5 -1
v -0.4 1.5 -1
v -0.3 1.5 -1
v 0.8 1.5 -1
v 1 1.5 -1
v -0.8 1.5 -1.1
v -0.6 1.5 -1.1
v -0.4 1.5 -1.1
v -0.3 1.5 -1.1
v 0.8 1.5 -1.1
v 1 1.5 -1.1
v -0.3 1.5 -1.2
v -0.2 1.5 -1.2
v -0.3 1.5 -1.3
v -0.2 1.5 -1.3
v 0.4 1.5 -1.3
v 0.5 1.5 -1.3
v 0.4 1.5 -1.4
v 0.5 1.5 -1.4
v -0.2 1.5 -1.5
v -0.1 1.5 -1.5
v 0.3 1.5 -1.5
v 0.4 1.5 -1.5
v -0.2 1.5 -1.6
v -0.1 1.5 -1.6
v 0.3 1.5 -1.6
v 0.4 1.5 -1.6
v -0.1 1.5 -1.7
v 0.3 1.5 -1.7
v -0.4 1.6 1
v -0.3 1.6 1
v -0.4 1.6 0.9
v -0.3 1.6 0.9
v 0.3 1.6 -1
v 0.4 1.6 -1
v -0.4 1.6 -1.1
v -0.3 1.6 -1.1
v 0.3 1.6 -1.1
v 0.4 1.6 -1.1
v -0.4 1.6 -1.2
v -0.3 1.6 -1.2
v -0.8 1.7 0.3
v -0.6 1.7 0.3
v 0.8 1.7 0.3
v 1 1.7 0.3
v -0.8 1.7 0.2
v -0.6 1.7 0.2
v 0.8 1.7 0.2
v 1 1.7 0.2
v -0.8 1.8 -0.9
v -0.6 1.8 -0.9
v 0.8 1.8 -0.9
v 1 1.8 -0.9
v -0.8 1.8 -1
v -0.6 1.8 -1
v 0.8 1.8 -1
v 1 1.8 -1
v -0.4 1.9 0.5
v -0.3 1.9 0.5
v 0.5 1.9 0.5
v 0.6 1.9 0.5
v -0.4 1.9 0.4
v -0.3 1.9 0.4
v 0.5 1.9 0.4
v 0.6 1.9 0.4
v -0.4 1.9 -1
v -0.3 1.9 -1
v 0.5 1.9 -1
v 0.6 1.9 -1
v -0.4 1.9 -1.1
v -0.3 1.9 -1.1
v 0.5 1.9 -1.1
v 0.6 1.9 -1.1
v -0.8 2 0.2
v -0.6 2 0.2
v 0.8 2 0.2
v 1 2 0.2
v -0.8 2 0.0999999
v -0.6 2 0.0999999
v 0.8 2 0.0999999
v 1 2 0.0999999
v -0.8 2 -0.8
v -0.6 2 -0.8
v 0.8 2 -0.8
v 1 2 -0.8
v -0.8 2 -0.9
v -0.6 2 -0.9
v 0.8 2 -0.9
v 1 2 -0.9
v -0.4 2.2 0.4
v -0.3 2.2 0.4
v 0.5 2.2 0.4
v 0.6 2.2 0.4
v -0.4 2.2 0.3
v -0.3 2.2 0.3
v 0.5 2.2 0.3
v 0.6 2.2 0.3
v -0.4 2.2 -0.9
v -0.3 2.2 -0.9
v 0.5 2.2 -0.9
v 0.6 2.2 -0.9
v -0.4 2.2 -1
v -0.3 2.2 -1
v 0.5 2.2 -1
v 0.6 2.2 -1
v -0.8 2.3 0.0999999
v -0.6 2.3 0.0999999
v 0.8 2.3 0.0999999
v 1 2.3 0.0999999
v -0.8 2.3 -1.19209e-07
v -0.6 2.3 -1.19209e-07
v 0.8 2.3 -1.19209e-07
v 1 2.3 -1.19209e-07
v -0.8 2.3 -0.7
v -0.6 2.3 -0.7
v 0.8 2.3 -0.7
v 1 2.3 -0.7
v -0.8 2.3 -0.8
v -0.6 2.3 -0.8
v 0.8 2.3 -0.8
v 1 2.3 -0.8
v -0.4 2.4 0.3
v -0.3 2.4 0.3
v 0.5 2.4 0.3
v 0.6 2.4 0.3
v -0.4 2.4 0.2
v -0.3 2.4 0.2
v 0.5 2.4 0.2
v 0.6 2.4 0.2
v -0.4 2.4 -0.8
v -0.3 2.4 -0.8
v 0.5 2.4 -0.8
v 0.6 2.4 -0.8
v -0.4 2.4 -0.9
v -0.3 2.4 -0.9
v 0.5 2.4 -0.9
v 0.6 2.4 -0.9
v -0.4 2.6 0.2
v -0.3 2.6 0.2
v 0.5 2.6 0.2
v 0.6 2.6 0.2
v -0.4 2.6 0.0999999
v -0.3 2.6 0.0999999
v 0.5 2.6 0.0999999
v 0.6 2.6 0.0999999
v -0.8 2.6 -1.19209e-07
v -0.6 2.6 -1.19209e-07
v 0.8 2.6 -1.19209e-07
v 1 2.6 -1.19209e-07
v -0.8 2.6 -0.1
v -0.6 2.6 -0.1
v 0.8 2.6 -0.1
v 1 2.6 -0.1
v -0.8 2.6 -0.6
v -0.6 2.6 -0.6
v 0.8 2.6 -0.6
v 1 2.6 -0.6
v -0.8 2.6 -0.7
v -0.6 2.6 -0.7
v -0.4 2.6 -0.7
v -0.3 2.6 -0.7
v 0.8 2.6 -0.7
v 1 2.6 -0.7
v -0.4 2.6 -0.8
v -0.3 2.6 -0.8
v 0.5 2.7 -0.7
v 0.6 2.7 -0.7
v 0.5 2.7 -0.8
v 0.6 2.7 -0.8
v -0.8 2.8 -0.1
v -0.6 2.8 -0.1
v 0.8 2.8 -0.1
v 1 2.8 -0.1
v -0.8 2.8 -0.2
v -0.6 2.8 -0.2
v 0.8 2.8 -0.2
v 1 2.8 -0.2
v -0.8 2.8 -0.5
v -0.6 2.8 -0.5
v 0.8 2.8 -0.5
v 1 2.8 -0.5
v -0.8 2.8 -0.6
v -0.6 2.8 -0.6
v 0.8 2.8 -0.6
v 1 2.8 -0.6
v -0.4 2.9 0.0999999
v -0.3 2.9 0.0999999
v 0.5 2.9 0.0999999
v 0.6 2.9 0.0999999
v -0.6 2.9 -0.1
v -0.4 2.9 -0.1
v -0.3 2.9 -0.1
v 0.5 2.9 -0.1
v 0.6 2.9 -0.1
v 0.8 2.9 -0.1
v -0.8 2.9 -0.2
v -0.6 2.9 -0.2
v 0.8 2.9 -0.2
v 1 2.9 -0.2
v -0.8 2.9 -0.5
v -0.6 2.9 -0.5
v 0.8 2.9 -0.5
v 1 2.9 -0.5
v -0.6 2.9 -0.6
v -0.4 2.9 -0.6
v -0.3 2.9 -0.6
v 0.5 2.9 -0.6
v 0.6 2.9 -0.6
v 0.8 2.9 -0.6
v -0.4 2.9 -0.7
v -0.3 2.9 -0.7
v 0.5 2.9 -0.7
v 0.6 2.9 -0.7
v -0.8 0.2 1
v -0.6 0.2 1
v 0.8 0.2 1
v 1 0.2 1
v -0.8 0.2 0.9
v -0.6 0.2 0.9
v 0.8 0.2 0.9
v 1 0.2 0.9
v -0.8 0.2 -1.6
v -0.6 0.2 -1.6
v 0.8 0.2 -1.6
v 1 0.2 -1.6
v -0.8 0.2 -1.7
v -0.6 0.2 -1.7
v 0.8 0.2 -1.7
v 1 0.2 -1.7
v -0.8 0.4 0.9
v -0.6 0.4 0.9
v 0.8 0.4 0.9
v 1 0.4 0.9
v -0.8 0.4 0.8
v -0.6 0.4 0.8
v 0.8 0.4 0.8
v 1 0.4 0.8
v -0.8 0.4 -1.5
v -0.6 0.4 -1.5
v 0.8 0.4 -1.5
v 1 0.4 -1.5
v -0.8 0.4 -1.6
v -0.6 0.4 -1.6
v 0.8 0.4 -1.6
v 1 0.4 -1.6
v -0.8 0.7 0.8
v -0.6 0.7 0.8
v 0.8 0.7 0.8
v 1 0.7 0.8
v -0.8 0.7 0.7
v -0.6 0.7 0.7
v 0.8 0.7 0.7
v 1 0.7 0.7
v -0.8 0.7 -1.4
v -0.6 0.7 -1.4
v 0.8 0.7 -1.4
v 1 0.7 -1.4
v -0.8 0.7 -1.5
v -0.6 0.7 -1.5
v 0.8 0.7 -1.5
v 1 0.7 -1.5
v -0.8 0.9 0.7
v -0.6 0.9 0.7
v 0.8 0.9 0.7
v 1 0.9 0.7
v -0.8 0.9 0.6
v -0.6 0.9 0.6
v 0.8 0.9 0.6
v 1 0.9 0.6
v -0.2 1 0.9
v 0.2 1 0.9
v 0.2 1 0.7
v 0.3 1 0.7
v 0.3 1 0.4
v 0.4 1 0.4
v -0.9 1 -0.7
v -0.8 1 -0.7
v -0.9 1 -0.8
v -0.8 1 -0.8
v -0.9 1 -1.1
v -0.8 1 -1.1
v -0.2 1 -1.1
v -0.1 1 -1.1
v 0.2 1 -1.1
v 0.4 1 -1.1
v -0.9 1 -1.2
v -0.8 1 -1.2
v -0.8 1 -1.3
v -0.6 1 -1.3
v -0.1 1 -1.3
v 0.2 1 -1.3
v 0.8 1 -1.3
v 1 1 -1.3
v -0.8 1 -1.4
v -0.6 1 -1.4
v 0.8 1 -1.4
v 1 1 -1.4
v -0.9 1 -1.6
v -0.8 1 -1.6
v -0.9 1 -1.7
v -0.8 1 -1.7
v 0.2 1.1 0.9
v 0.3 1.1 0.9
v 0.2 1.1 0.7
v 0.3 1.1 0.7
v -0.9 1.1 0.0999999
v -0.8 1.1 0.0999999
v -0.9 1.1 -1.19209e-07
v -0.8 1.1 -1.19209e-07
v -0.9 1.1 -0.8
v -0.8 1.1 -0.8
v -0.9 1.1 -0.9
v -0.8 1.1 -0.9
v -0.9 1.1 -1.3
v -0.8 1.1 -1.3
v -0.9 1.1 -1.4
v -0.8 1.1 -1.4
v -0.9 1.2 1.1
v -0.8 1.2 1.1
v -0.9 1.2 1
v -0.8 1.2 1
v -0.8 1.2 0.6
v -0.6 1.2 0.6
v 0.8 1.2 0.6
v 1 1.2 0.6
v -0.9 1.2 0.5
v -0.8 1.2 0.5
v -0.6 1.2 0.5
v 0.8 1.2 0.5
v 1 1.2 0.5
v -0.9 1.2 0.4
v -0.8 1.2 0.4
v -0.9 1.2 0.3
v -0.8 1.2 0.3
v -0.9 1.2 0.0999999
v -0.8 1.2 0.0999999
v -0.9 1.2 -1.19209e-07
v -0.8 1.2 -1.19209e-07
v -0.9 1.2 -0.1
v -0.8 1.2 -0.1
v -0.9 1.2 -0.9
v -0.8 1.2 -0.9
v -0.9 1.2 -1.1
v -0.8 1.2 -1.1
v -0.9 1.2 -1.2
v -0.8 1.2 -1.2
v -0.6 1.2 -1.2
v 0.8 1.2 -1.2
v 1 1.2 -1.2
v -0.9 1.2 -1.3
v -0.8 1.2 -1.3
v -0.6 1.2 -1.3
v 0.8 1.2 -1.3
v 1 1.2 -1.3
v -0.9 1.2 -1.4
v -0.8 1.2 -1.4
v -0.9 1.2 -1.6
v -0.8 1.2 -1.6
v -0.9 1.3 1
v -0.8 1.3 1
v -0.9 1.3 0.6
v -0.8 1.3 0.6
v -0.9 1.3 0.5
v -0.8 1.3 0.5
v -0.9 1.3 0.4
v -0.8 1.3 0.4
v -0.9 1.3 0.3
v -0.8 1.3 0.3
v -0.9 1.3 -0.1
v -0.8 1.3 -0.1
v -0.9 1.3 -0.3
v -0.8 1.3 -0.3
v -0.9 1.3 -0.4
v -0.8 1.3 -0.4
v -0.9 1.3 -0.5
v -0.8 1.3 -0.5
v -0.9 1.3 -0.7
v -0.8 1.3 -0.7
v -0.9 1.3 -0.8
v -0.8 1.3 -0.8
v -0.9 1.3 -0.9
v -0.8 1.3 -0.9
v -0.8 1.4 0.5
v -0.6 1.4 0.5
v 0.8 1.4 0.5
v 1 1.4 0.5
v -0.8 1.4 0.4
v -0.6 1.4 0.4
v 0.8 1.4 0.4
v 1 1.4 0.4
v -0.9 1.4 -0.3
v -0.8 1.4 -0.3
v -0.9 1.4 -0.4
v -0.8 1.4 -0.4
v -0.9 1.4 -0.5
v -0.8 1.4 -0.5
v -0.9 1.4 -0.7
v -0.8 1.4 -0.7
v -0.8 1.5 -1.1
v -0.6 1.5 -1.1
v 0.8 1.5 -1.1
v 1 1.5 -1.1
v -0.8 1.5 -1.2
v -0.6 1.5 -1.2
v 0.8 1.5 -1.2
v 1 1.5 -1.2
v 0.3 1.6 0.9
v 0.4 1.6 0.9
v 0.3 1.6 0.4
v 0.4 1.6 0.4
v -0.2 1.6 -1.1
v -0.1 1.6 -1.1
v 0.2 1.6 -1.1
v 0.3 1.6 -1.1
v -0.2 1.6 -1.2
v -0.1 1.6 -1.2
v 0.2 1.6 -1.3
v 0.3 1.6 -1.3
v -0.2 1.7 1.2
v 0.4 1.7 1.2
v -0.4 1.7 1
v -0.2 1.7 1
v 0.4 1.7 1
v 0.6 1.7 1
v -0.2 1.7 0.9
v 0.4 1.7 0.9
v -0.4 1.7 0.6
v -0.3 1.7 0.6
v 0.5 1.7 0.6
v 0.6 1.7 0.6
v -0.4 1.7 0.5
v -0.3 1.7 0.5
v 0.5 1.7 0.5
v 0.6 1.7 0.5
v -0.8 1.7 0.4
v -0.6 1.7 0.4
v 0.8 1.7 0.4
v 1 1.7 0.4
v -0.8 1.7 0.3
v -0.6 1.7 0.3
v 0.8 1.7 0.3
v 1 1.7 0.3
v 0.3 1.7 -1
v 0.4 1.7 -1
v -0.4 1.7 -1.1
v -0.3 1.7 -1.1
v 0.5 1.7 -1.1
v 0.6 1.7 -1.1
v -0.3 1.7 -1.2
v -0.2 1.7 -1.2
v -0.1 1.7 -1.2
v 0.5 1.7 -1.2
v 0.6 1.7 -1.2
v -0.3 1.7 -1.3
v -0.2 1.7 -1.3
v -0.1 1.7 -1.3
v 0.3 1.7 -1.3
v 0.5 1.7 -1.3
v 0.6 1.7 -1.3
v 0.4 1.7 -1.4
v 0.5 1.7 -1.4
v -0.2 1.7 -1.6
v -0.1 1.7 -1.6
v 0.3 1.7 -1.6
v 0.4 1.7 -1.6
v -0.1 1.7 -1.7
v 0.3 1.7 -1.7
v -0.8 1.8 -1
v -0.6 1.8 -1
v 0.8 1.8 -1
v 1 1.8 -1
v -0.8 1.8 -1.1
v -0.6 1.8 -1.1
v 0.8 1.8 -1.1
v 1 1.8 -1.1
v -0.8 2 0.3
v -0.6 2 0.3
v 0.8 2 0.3
v 1 2 0.3
v -0.8 2 0.2
v -0.6 2 0.2
v 0.8 2 0.2
v 1 2 0.2
v -0.8 2 -0.9
v -0.6 2 -0.9
v 0.8 2 -0.9
v 1 2 -0.9
v -0.8 2 -1
v -0.6 2 -1
v 0.8 2 -1
v 1 2 -1
v -0.4 2.1 0.6
v -0.3 2.1 0.6
v 0.5 2.1 0.6
v 0.6 2.1 0.6
v -0.4 2.1 0.5
v -0.3 2.1 0.5
v 0.5 2.1 0.5
v 0.6 2.1 0.5
v -0.4 2.1 -1.1
v -0.3 2.1 -1.1
v 0.5 2.1 -1.1
v 0.6 2.1 -1.1
v -0.4 2.1 -1.2
v -0.3 2.1 -1.2
v 0.5 2.1 -1.2
v 0.6 2.1 -1.2
v -0.8 2.3 0.2
v -0.6 2.3 0.2
v 0.8 2.3 0.2
v 1 2.3 0.2
v -0.8 2.3 0.0999999
v -0.6 2.3 0.0999999
v 0.8 2.3 0.0999999
v 1 2.3 0.0999999
v -0.8 2.3 -0.8
v -0.6 2.3 -0.8
v 0.8 2.3 -0.8
v 1 2.3 -0.8
v -0.8 2.3 -0.9
v -0.6 2.3 -0.9
v 0.8 2.3 -0.9
v 1 2.3 -0.9
v -0.4 2.4 0.5
v -0.3 2.4 0.5
v 0.5 2.4 0.5
v 0.6 2.4 0.5
v -0.4 2.4 0.4
v -0.3 2.4 0.4
v 0.5 2.4 0.4
v 0.6 2.4 0.4
v -0.4 2.4 -1
v -0.3 2.4 -1
v 0.5 2.4 -1
v 0.6 2.4 -1
v -0.4 2.4 -1.1
v -0.3 2.4 -1.1
v 0.5 2.4 -1.1
v 0.6 2.4 -1.1
v -0.4 2.6 0.4
v -0.3 2.6 0.4
v 0.5 2.6 0.4
v 0.6 2.6 0.4
v -0.4 2.6 0.3
v -0.3 2.6 0.3
v 0.5 2.6 0.3
v 0.6 2.6 0.3
v -0.8 2.6 0.0999999
v -0.6 2.6 0.0999999
v 0.8 2.6 0.0999999
v 1 2.6 0.0999999
v -0.8 2.6 -1.19209e-07
v -0.6 2.6 -1.19209e-07
v 0.8 2.6 -1.19209e-07
v 1 2.6 -1.19209e-07
v -0.8 2.6 -0.7
v -0.6 2.6 -0.7
v 0.8 2.6 -0.7
v 1 2.6 -0.7
v -0.8 2.6 -0.8
v -0.6 2.6 -0.8
v 0.8 2.6 -0.8
v 1 2.6 -0.8
v -0.4 2.6 -0.9
v -0.3 2.6 -0.9
v 0.5 2.6 -0.9
v 0.6 2.6 -0.9
v -0.4 2.6 -1
v -0.3 2.6 -1
v 0.5 2.6 -1
v 0.6 2.6 -1
v -0.4 2.8 0.3
v -0.3 2.8 0.3
v 0.5 2.8 0.3
v 0.6 2.8 0.3
v -0.4 2.8 0.2
v -0.3 2.8 0.2
v 0.5 2.8 0.2
v 0.6 2.8 0.2
v -0.8 2.8 -1.19209e-07
v -0.6 2.8 -1.19209e-07
v 0.8 2.8 -1.19209e-07
v 1 2.8 -1.19209e-07
v -0.8 2.8 -0.1
v -0.6 2.8 -0.1
v 0.8 2.8 -0.1
v 1 2.8 -0.1
v -0.8 2.8 -0.6
v -0.6 2.8 -0.6
v 0.8 2.8 -0.6
v 1 2.8 -0.6
v -0.8 2.8 -0.7
v -0.6 2.8 -0.7
v 0.8 2.8 -0.7
v 1 2.8 -0.7
v -0.4 2.8 -0.8
v -0.3 2.8 -0.8
v 0.5 2.8 -0.8
v 0.6 2.8 -0.8
v -0.4 2.8 -0.9
v -0.3 2.8 -0.9
v 0.5 2.8 -0.9
v 0.6 2.8 -0.9
v -0.4 3 0.2
v -0.3 3 0.2
v 0.5 3 0.2
v 0.6 3 0.2
v -0.8 3 -0.1
v -0.4 3 -0.1
v -0.3 3 -0.1
v 0.5 3 -0.1
v 0.6 3 -0.1
v 1 3 -0.1
v -0.8 3 -0.2
v 1 3 -0.2
v -0.8 3 -0.5
v 1 3 -0.5
v -0.8 3 -0.6
v -0.4 3 -0.6
v -0.3 3 -0.6
v 0.5 3 -0.6
v 0.6 3 -0.6
v 1 3 -0.6
v -0.4 3 -0.8
v -0.3 3 -0.8
v 0.5 3 -0.8
v 0.6 3 -0.8
v -0.8 3.1 -0.2
v 1 3.1 -0.2
v -0.8 3.1 -0.3
v 1 3.1 -0.3
v -0.8 3.1 -0.4
v 1 3.1 -0.4
v -0.8 3.1 -0.5
v 1 3.1 -0.5
v -0.8 3.2 -0.3
v 1 3.2 -0.3
v -0.8 3.2 -0.4
v 1 3.2 -0.4

# faces
f 5/4/1 2/4/1 1/4/1
f 6/4/1 2/4/1 5/4/1
f 11/4/1 4/4/1 3/4/1
f 12/4/1 4/4/1 11/4/1
f 13/4/1 4/4/1 12/4/1
f 14/3/1 5/3/1 4/3/1
f 14/4/1 4/4/1 13/4/1
f 14/3/1 6/3/1 5/3/1
f 14/3/1 7/3/1 6/3/1
f 15/3/1 7/3/1 14/3/1
f 16/3/1 7/3/1 15/3/1
f 17/4/1 8/4/1 7/4/1
f 20/4/1 10/4/1 9/4/1
f 21/4/1 13/4/1 12/4/1
f 21/3/1 14/3/1 13/3/1
f 21/3/1 15/3/1 14/3/1
f 22/3/1 15/3/1 21/3/1
f 23/4/1 16/4/1 15/4/1
f 23/3/1 15/3/1 22/3/1
f 24/4/1 16/4/1 23/4/1
f 25/3/1 7/3/1 16/3/1
f 25/4/1 16/4/1 24/4/1
f 26/3/1 7/3/1 25/3/1
f 27/3/1 7/3/1 26/3/1
f 28/4/1 18/4/1 17/4/1
f 28/3/1 7/3/1 27/3/1
f 28/4/1 17/4/1 7/4/1
f 29/4/1 18/4/1 28/4/1
f 31/4/1 20/4/1 19/4/1
f 32/3/1 12/3/1 11/3/1
f 32/3/1 11/3/1 10/3/1
f 32/4/1 20/4/1 31/4/1
f 32/4/1 10/4/1 20/4/1
f 33/3/1 12/3/1 32/3/1
f 34/3/1 12/3/1 33/3/1
f 35/3/1 12/3/1 34/3/1
f 36/4/1 22/4/1 21/4/1
f 36/3/1 12/3/1 35/3/1
f 36/4/1 21/4/1 12/4/1
f 37/3/1 24/3/1 23/3/1
f 37/4/1 22/4/1 36/4/1
f 37/3/1 23/3/1 22/3/1
f 38/3/1 24/3/1 37/3/1
f 39/4/1 26/4/1 25/4/1
f 39/3/1 24/3/1 38/3/1
f 39/4/1 25/4/1 24/4/1
f 40/4/1 26/4/1 39/4/1
f 41/3/1 27/3/1 26/3/1
f 41/4/1 26/4/1 40/4/1
f 42/3/1 27/3/1 41/3/1
f 43/3/1 27/3/1 42/3/1
f 44/3/1 27/3/1 43/3/1
f 45/3/1 27/3/1 44/3/1
f 46/4/1 28/4/1 27/4/1
f 46/3/1 27/3/1 45/3/1
f 47/3/1 29/3/1 28/3/1
f 47/4/1 28/4/1 46/4/1
f 48/4/1 18/4/1 29/4/1
f 48/3/1 29/3/1 47/3/1
f 49/4/1 18/4/1 48/4/1
f 50/4/1 18/4/1 49/4/1
f 51/3/1 34/3/1 33/3/1
f 51/4/1 33/4/1 32/4/1
f 52/4/1 35/4/1 34/4/1
f 52/3/1 34/3/1 51/3/1
f 53/5/1 36/5/1 35/5/1
f 53/4/1 38/4/1 37/4/1
f 53/4/1 37/4/1 36/4/1
f 54/4/1 38/4/1 53/4/1
f 55/3/1 40/3/1 39/3/1
f 55/3/1 39/3/1 38/3/1
f 56/4/1 42/4/1 41/4/1
f 57/3/1 43/3/1 42/3/1
f 57/4/1 42/4/1 56/4/1
f 58/4/1 44/4/1 43/4/1
f 58/3/1 43/3/1 57/3/1
f 59/4/1 47/4/1 46/4/1
f 59/4/1 46/4/1 45/4/1
f 60/4/1 47/4/1 59/4/1
f 61/5/1 49/5/1 48/5/1
f 61/4/1 47/4/1 60/4/1
f 61/5/1 48/5/1 47/5/1
f 62/4/1 31/4/1 30/4/1
f 63/3/1 32/3/1 31/3/1
f 63/4/1 31/4/1 62/4/1
f 64/4/1 51/4/1 32/4/1
f 64/3/1 32/3/1 63/3/1
f 64/4/1 52/4/1 51/4/1
f 65/4/1 52/4/1 64/4/1
f 66/4/1 35/4/1 52/4/1
f 66/4/1 52/4/1 65/4/1
f 67/4/1 35/4/1 66/4/1
f 68/5/1 53/5/1 35/5/1
f 68/4/1 35/4/1 67/4/1
f 69/5/1 53/5/1 68/5/1
f 70/4/1 38/4/1 54/4/1
f 71/4/1 38/4/1 70/4/1
f 72/3/1 55/3/1 38/3/1
f 73/3/1 55/3/1 72/3/1
f 74/4/1 56/4/1 55/4/1
f 74/3/1 55/3/1 73/3/1
f 75/4/1 56/4/1 74/4/1
f 76/4/1 58/4/1 57/4/1
f 77/4/1 44/4/1 58/4/1
f 77/4/1 58/4/1 76/4/1
f 78/5/1 60/5/1 59/5/1
f 79/5/1 60/5/1 78/5/1
f 80/5/1 49/5/1 61/5/1
f 81/5/1 49/5/1 80/5/1
f 82/5/1 65/5/1 64/5/1
f 82/5/1 64/5/1 63/5/1
f 83/4/1 66/4/1 65/4/1
f 83/5/1 65/5/1 82/5/1
f 84/4/1 66/4/1 83/4/1
f 85/5/1 68/5/1 67/5/1
f 86/5/1 68/5/1 85/5/1
f 87/4/1 38/4/1 71/4/1
f 88/3/1 72/3/1 38/3/1
f 88/4/1 38/4/1 87/4/1
f 89/4/1 73/4/1 72/4/1
f 89/3/1 72/3/1 88/3/1
f 90/4/1 73/4/1 89/4/1
f 91/5/1 75/5/1 74/5/1
f 91/4/1 73/4/1 90/4/1
f 91/5/1 74/5/1 73/5/1
f 92/5/1 75/5/1 91/5/1
f 93/4/1 76/4/1 75/4/1
f 93/5/1 75/5/1 92/5/1
f 94/4/1 76/4/1 93/4/1
f 95/5/1 89/5/1 88/5/1
f 96/5/1 89/5/1 95/5/1
f 97/5/1 92/5/1 91/5/1
f 97/5/1 91/5/1 90/5/1
f 98/5/1 92/5/1 97/5/1
f 103/2/1 100/2/1 99/2/1
f 104/2/1 100/2/1 103/2/1
f 107/2/1 102/2/1 101/2/1
f 108/2/1 102/2/1 107/2/1
f 109/2/1 105/2/1 104/2/1
f 110/2/1 105/2/1 109/2/1
f 113/2/1 107/2/1 106/2/1
f 114/2/1 107/2/1 113/2/1
f 115/2/1 111/2/1 110/2/1
f 116/2/1 111/2/1 115/2/1
f 117/2/1 113/2/1 112/2/1
f 118/2/1 113/2/1 117/2/1
f 123/2/1 120/2/1 119/2/1
f 124/2/1 120/2/1 123/2/1
f 125/2/1 124/2/1 123/2/1
f 126/2/1 124/2/1 125/2/1
f 129/2/1 122/2/1 121/2/1
f 130/2/1 122/2/1 129/2/1
f 131/2/1 127/2/1 126/2/1
f 132/2/1 127/2/1 131/2/1
f 135/2/1 129/2/1 128/2/1
f 136/2/1 129/2/1 135/2/1
f 137/2/1 133/2/1 132/2/1
f 138/2/1 133/2/1 137/2/1
f 141/2/1 135/2/1 134/2/1
f 142/2/1 135/2/1 141/2/1
f 143/2/1 139/2/1 138/2/1
f 144/2/1 139/2/1 143/2/1
f 147/2/1 141/2/1 140/2/1
f 148/2/1 141/2/1 147/2/1
f 149/2/1 145/2/1 144/2/1
f 150/2/1 145/2/1 149/2/1
f 153/2/1 147/2/1 146/2/1
f 154/2/1 147/2/1 153/2/1
f 155/2/1 151/2/1 150/2/1
f 156/2/1 151/2/1 155/2/1
f 159/2/1 153/2/1 152/2/1
f 160/2/1 153/2/1 159/2/1
f 161/2/1 157/2/1 156/2/1
f 162/2/1 159/2/1 158/2/1
f 163/2/1 161/2/1 156/2/1
f 163/2/1 162/2/1 161/2/1
f 164/2/1 162/2/1 163/2/1
f 165/2/1 159/2/1 162/2/1
f 165/2/1 162/2/1 164/2/1
f 166/2/1 159/2/1 165/2/1
f 167/2/1 165/2/1 164/2/1
f 168/2/1 165/2/1 167/2/1
f 169/2/1 165/2/1 168/2/1
f 170/2/1 165/2/1 169/2/1
f 171/2/1 169/2/1 168/2/1
f 172/2/1 169/2/1 171/2/1
f 176/1/1 174/1/1 173/1/1
f 177/1/1 174/1/1 176/1/1
f 177/1/1 176/1/1 175/1/1
f 180/1/1 177/1/1 175/1/1
f 180/1/1 178/1/1 177/1/1
f 181/1/1 178/1/1 180/1/1
f 183/1/1 180/1/1 179/1/1
f 183/1/1 181/1/1 180/1/1
f 184/1/1 181/1/1 183/1/1
f 185/1/1 181/1/1 184/1/1
f 186/6/1 182/6/1 181/6/1
f 186/1/1 181/1/1 185/1/1
f 187/6/1 185/6/1 184/6/1
f 190/6/1 182/6/1 186/6/1
f 191/6/1 188/6/1 187/6/1
f 191/6/1 187/6/1 184/6/1
f 192/6/1 188/6/1 191/6/1
f 193/6/1 190/6/1 189/6/1
f 193/6/1 182/6/1 190/6/1
f 194/6/1 182/6/1 193/6/1
f 195/6/1 188/6/1 192/6/1
f 198/6/1 193/6/1 189/6/1
f 199/6/1 196/6/1 195/6/1
f 199/6/1 195/6/1 192/6/1
f 200/6/1 196/6/1 199/6/1
f 201/6/1 196/6/1 200/6/1
f 204/6/1 198/6/1 197/6/1
f 205/6/1 193/6/1 198/6/1
f 205/6/1 198/6/1 204/6/1
f 206/6/1 193/6/1 205/6/1
f 207/6/1 202/6/1 201/6/1
f 207/6/1 201/6/1 200/6/1
f 208/6/1 202/6/1 207/6/1
f 209/6/1 202/6/1 208/6/1
f 212/6/1 204/6/1 203/6/1
f 212/6/1 205/6/1 204/6/1
f 213/6/1 205/6/1 212/6/1
f 214/6/1 205/6/1 213/6/1
f 215/6/1 210/6/1 209/6/1
f 215/6/1 209/6/1 208/6/1
f 216/6/1 210/6/1 215/6/1
f 217/6/1 213/6/1 212/6/1
f 217/6/1 212/6/1 211/6/1
f 218/6/1 213/6/1 217/6/1
f 219/6/1 210/6/1 216/6/1
f 222/6/1 217/6/1 211/6/1
f 223/6/1 220/6/1 219/6/1
f 223/6/1 219/6/1 216/6/1
f 224/6/1 220/6/1 223/6/1
f 225/6/1 222/6/1 221/6/1
f 226/6/1 217/6/1 222/6/1
f 226/6/1 222/6/1 225/6/1
f 230/1/1 228/1/1 227/1/1
f 231/1/1 228/1/1 230/1/1
f 231/1/1 230/1/1 229/1/1
f 232/1/1 228/1/1 231/1/1
f 233/1/1 231/1/1 229/1/1
f 234/1/1 231/1/1 233/1/1
f 235/1/1 228/1/1 232/1/1
f 236/1/1 228/1/1 235/1/1
f 237/1/1 228/1/1 236/1/1
f 239/1/1 233/1/1 229/1/1
f 240/1/1 233/1/1 239/1/1
f 241/1/1 238/1/1 237/1/1
f 241/1/1 237/1/1 236/1/1
f 242/1/1 238/1/1 241/1/1
f 243/1/1 238/1/1 242/1/1
f 244/1/1 238/1/1 243/1/1
f 247/1/1 246/1/1 245/1/1
f 248/1/1 246/1/1 247/1/1
f 250/1/1 247/1/1 245/1/1
f 251/1/1 246/1/1 248/1/1
f 253/1/1 250/1/1 249/1/1
f 253/1/1 247/1/1 250/1/1
f 254/1/1 247/1/1 253/1/1
f 255/1/1 252/1/1 251/1/1
f 258/1/1 253/1/1 249/1/1
f 259/1/1 256/1/1 255/1/1
f 259/1/1 251/1/1 248/1/1
f 259/1/1 255/1/1 251/1/1
f 260/1/1 256/1/1 259/1/1
f 261/1/1 256/1/1 260/1/1
f 263/1/1 258/1/1 257/1/1
f 264/1/1 253/1/1 258/1/1
f 264/1/1 258/1/1 263/1/1
f 265/1/1 262/1/1 261/1/1
f 265/1/1 261/1/1 260/1/1
f 266/1/1 262/1/1 265/1/1
f 269/1/1 268/1/1 267/1/1
f 270/1/1 268/1/1 269/1/1
f 272/1/1 271/1/1 270/1/1
f 273/1/1 271/1/1 272/1/1
f 276/1/1 275/1/1 274/1/1
f 277/1/1 275/1/1 276/1/1
f 278/1/1 271/1/1 273/1/1
f 279/1/1 271/1/1 278/1/1
f 281/1/1 280/1/1 279/1/1
f 282/1/1 280/1/1 281/1/1
f 285/1/1 284/1/1 283/1/1
f 286/1/1 284/1/1 285/1/1
f 291/1/1 288/1/1 287/1/1
f 292/1/1 288/1/1 291/1/1
f 293/1/1 290/1/1 289/1/1
f 294/1/1 290/1/1 293/1/1
f 298/1/1 296/1/1 295/1/1
f 299/1/1 298/1/1 297/1/1
f 300/1/1 296/1/1 298/1/1
f 300/1/1 298/1/1 299/1/1
f 304/1/1 303/1/1 302/1/1
f 304/1/1 302/1/1 301/1/1
f 305/1/1 303/1/1 304/1/1
f 309/1/1 307/1/1 306/1/1
f 310/1/1 307/1/1 309/1/1
f 311/1/1 307/1/1 310/1/1
f 312/1/1 309/1/1 308/1/1
f 312/1/1 310/1/1 309/1/1
f 313/1/1 310/1/1 312/1/1
f 318/6/1 315/6/1 314/6/1
f 321/6/1 317/6/1 316/6/1
f 322/6/1 319/6/1 318/6/1
f 322/6/1 318/6/1 314/6/1
f 323/6/1 319/6/1 322/6/1
f 324/6/1 321/6/1 320/6/1
f 324/6/1 317/6/1 321/6/1
f 325/6/1 317/6/1 324/6/1
f 326/6/1 319/6/1 323/6/1
f 329/6/1 324/6/1 320/6/1
f 330/6/1 327/6/1 326/6/1
f 330/6/1 326/6/1 323/6/1
f 331/6/1 327/6/1 330/6/1
f 332/6/1 327/6/1 331/6/1
f 335/6/1 329/6/1 328/6/1
f 336/6/1 324/6/1 329/6/1
f 336/6/1 329/6/1 335/6/1
f 337/6/1 324/6/1 336/6/1
f 338/6/1 333/6/1 332/6/1
f 338/6/1 332/6/1 331/6/1
f 339/6/1 333/6/1 338/6/1
f 340/6/1 333/6/1 339/6/1
f 342/6/1 335/6/1 334/6/1
f 342/6/1 336/6/1 335/6/1
f 343/6/1 336/6/1 342/6/1
f 345/6/1 342/6/1 334/6/1
f 346/6/1 341/6/1 340/6/1
f 346/6/1 340/6/1 339/6/1
f 347/6/1 341/6/1 346/6/1
f 348/6/1 345/6/1 344/6/1
f 348/6/1 342/6/1 345/6/1
f 349/6/1 342/6/1 348/6/1
f 350/6/1 341/6/1 347/6/1
f 353/6/1 348/6/1 344/6/1
f 354/6/1 351/6/1 350/6/1
f 354/6/1 350/6/1 347/6/1
f 355/6/1 351/6/1 354/6/1
f 356/6/1 353/6/1 352/6/1
f 357/6/1 348/6/1 353/6/1
f 357/6/1 353/6/1 356/6/1
f 362/2/1 359/2/1 358/2/1
f 363/2/1 359/2/1 362/2/1
f 366/2/1 361/2/1 360/2/1
f 367/2/1 361/2/1 366/2/1
f 368/2/1 364/2/1 363/2/1
f 369/2/1 364/2/1 368/2/1
f 372/2/1 366/2/1 365/2/1
f 373/2/1 366/2/1 372/2/1
f 374/2/1 370/2/1 369/2/1
f 375/2/1 370/2/1 374/2/1
f 378/2/1 372/2/1 371/2/1
f 379/2/1 372/2/1 378/2/1
f 380/2/1 376/2/1 375/2/1
f 381/2/1 376/2/1 380/2/1
f 384/2/1 378/2/1 377/2/1
f 385/2/1 378/2/1 384/2/1
f 386/2/1 382/2/1 381/2/1
f 387/2/1 382/2/1 386/2/1
f 390/2/1 384/2/1 383/2/1
f 391/2/1 384/2/1 390/2/1
f 392/2/1 388/2/1 387/2/1
f 393/2/1 388/2/1 392/2/1
f 396/2/1 390/2/1 389/2/1
f 397/2/1 390/2/1 396/2/1
f 398/2/1 394/2/1 393/2/1
f 399/2/1 394/2/1 398/2/1
f 402/2/1 396/2/1 395/2/1
f 403/2/1 396/2/1 402/2/1
f 404/2/1 400/2/1 399/2/1
f 405/2/1 400/2/1 404/2/1
f 408/2/1 402/2/1 401/2/1
f 409/2/1 402/2/1 408/2/1
f 410/2/1 406/2/1 405/2/1
f 411/2/1 406/2/1 410/2/1
f 414/2/1 408/2/1 407/2/1
f 415/2/1 408/2/1 414/2/1
f 416/2/1 412/2/1 411/2/1
f 417/2/1 412/2/1 416/2/1
f 420/2/1 414/2/1 413/2/1
f 421/2/1 414/2/1 420/2/1
f 422/2/1 418/2/1 417/2/1
f 423/2/1 418/2/1 422/2/1
f 426/2/1 420/2/1 419/2/1
f 427/2/1 420/2/1 426/2/1
f 428/2/1 424/2/1 423/2/1
f 429/2/1 424/2/1 428/2/1
f 430/2/1 426/2/1 425/2/1
f 431/2/1 426/2/1 430/2/1
f 432/4/2 433/4/2 436/4/2
f 436/4/2 433/4/2 437/4/2
f 434/4/2 435/4/2 444/4/2
f 444/4/2 435/4/2 445/4/2
f 445/4/2 435/4/2 446/4/2
f 435/3/2 436/3/2 447/3/2
f 446/4/2 435/4/2 447/4/2
f 436/3/2 437/3/2 447/3/2
f 447/3/2 437/3/2 448/3/2
f 448/3/2 437/3/2 449/3/2
f 438/4/2 439/4/2 450/4/2
f 439/4/2 440/4/2 450/4/2
f 441/4/2 442/4/2 453/4/2
f 442/3/2 443/3/2 454/3/2
f 444/3/2 445/3/2 455/3/2
f 455/3/2 445/3/2 456/3/2
f 445/4/2 446/4/2 457/4/2
f 446/3/2 447/3/2 457/3/2
f 447/3/2 448/3/2 457/3/2
f 457/3/2 448/3/2 458/3/2
f 448/4/2 449/4/2 459/4/2
f 458/3/2 448/3/2 459/3/2
f 459/4/2 449/4/2 460/4/2
f 449/3/2 437/3/2 461/3/2
f 460/4/2 449/4/2 461/4/2
f 461/3/2 437/3/2 462/3/2
f 450/4/2 451/4/2 463/4/2
f 438/4/2 450/4/2 463/4/2
f 463/4/2 451/4/2 464/4/2
f 452/4/2 453/4/2 466/4/2
f 442/3/2 454/3/2 467/3/2
f 454/3/2 455/3/2 467/3/2
f 466/4/2 453/4/2 467/4/2
f 453/4/2 442/4/2 467/4/2
f 467/3/2 455/3/2 468/3/2
f 456/3/2 445/3/2 469/3/2
f 469/3/2 445/3/2 470/3/2
f 457/4/2 458/4/2 471/4/2
f 470/3/2 445/3/2 471/3/2
f 445/4/2 457/4/2 471/4/2
f 459/3/2 460/3/2 472/3/2
f 471/4/2 458/4/2 472/4/2
f 458/3/2 459/3/2 472/3/2
f 472/3/2 460/3/2 473/3/2
f 461/4/2 462/4/2 474/4/2
f 473/3/2 460/3/2 474/3/2
f 460/4/2 461/4/2 474/4/2
f 474/4/2 462/4/2 475/4/2
f 462/3/2 437/3/2 476/3/2
f 475/4/2 462/4/2 476/4/2
f 476/3/2 437/3/2 477/3/2
f 477/3/2 437/3/2 478/3/2
f 478/3/2 437/3/2 479/3/2
f 479/3/2 437/3/2 480/3/2
f 480/3/2 437/3/2 481/3/2
f 463/3/2 464/3/2 482/3/2
f 464/4/2 451/4/2 483/4/2
f 482/3/2 464/3/2 483/3/2
f 483/4/2 451/4/2 484/4/2
f 484/4/2 451/4/2 485/4/2
f 470/5/2 471/5/2 486/5/2
f 472/4/2 473/4/2 486/4/2
f 471/4/2 472/4/2 486/4/2
f 486/4/2 473/4/2 487/4/2
f 474/3/2 475/3/2 488/3/2
f 473/3/2 474/3/2 488/3/2
f 476/4/2 477/4/2 489/4/2
f 477/3/2 478/3/2 490/3/2
f 489/4/2 477/4/2 490/4/2
f 478/4/2 479/4/2 491/4/2
f 490/3/2 478/3/2 491/3/2
f 481/4/2 482/4/2 492/4/2
f 483/5/2 484/5/2 493/5/2
f 492/4/2 482/4/2 493/4/2
f 482/5/2 483/5/2 493/5/2
f 465/4/2 466/4/2 494/4/2
f 466/3/2 467/3/2 495/3/2
f 494/4/2 466/4/2 495/4/2
f 467/4/2 468/4/2 496/4/2
f 495/3/2 467/3/2 496/3/2
f 496/4/2 468/4/2 497/4/2
f 469/4/2 470/4/2 498/4/2
f 498/4/2 470/4/2 499/4/2
f 470/5/2 486/5/2 500/5/2
f 499/4/2 470/4/2 500/4/2
f 500/5/2 486/5/2 501/5/2
f 487/4/2 473/4/2 502/4/2
f 502/4/2 473/4/2 503/4/2
f 473/3/2 488/3/2 504/3/2
f 504/3/2 488/3/2 505/3/2
f 488/4/2 489/4/2 506/4/2
f 505/3/2 488/3/2 506/3/2
f 506/4/2 489/4/2 507/4/2
f 490/4/2 491/4/2 508/4/2
f 491/4/2 479/4/2 509/4/2
f 508/4/2 491/4/2 509/4/2
f 493/5/2 484/5/2 510/5/2
f 510/5/2 484/5/2 511/5/2
f 496/5/2 497/5/2 512/5/2
f 495/5/2 496/5/2 512/5/2
f 497/4/2 498/4/2 513/4/2
f 512/5/2 497/5/2 513/5/2
f 513/4/2 498/4/2 514/4/2
f 499/5/2 500/5/2 515/5/2
f 515/5/2 500/5/2 516/5/2
f 503/4/2 473/4/2 517/4/2
f 473/3/2 504/3/2 518/3/2
f 517/4/2 473/4/2 518/4/2
f 504/4/2 505/4/2 519/4/2
f 518/3/2 504/3/2 519/3/2
f 519/4/2 505/4/2 520/4/2
f 505/5/2 506/5/2 521/5/2
f 520/4/2 505/4/2 521/4/2
f 506/5/2 507/5/2 521/5/2
f 521/5/2 507/5/2 522/5/2
f 507/4/2 508/4/2 523/4/2
f 522/5/2 507/5/2 523/5/2
f 523/4/2 508/4/2 524/4/2
f 518/5/2 519/5/2 525/5/2
f 525/5/2 519/5/2 526/5/2
f 521/5/2 522/5/2 527/5/2
f 520/5/2 521/5/2 527/5/2
f 527/5/2 522/5/2 528/5/2
f 529/2/2 530/2/2 533/2/2
f 533/2/2 530/2/2 534/2/2
f 531/2/2 532/2/2 537/2/2
f 537/2/2 532/2/2 538/2/2
f 534/2/2 535/2/2 539/2/2
f 539/2/2 535/2/2 540/2/2
f 536/2/2 537/2/2 543/2/2
f 543/2/2 537/2/2 544/2/2
f 540/2/2 541/2/2 545/2/2
f 545/2/2 541/2/2 546/2/2
f 542/2/2 543/2/2 549/2/2
f 549/2/2 543/2/2 550/2/2
f 546/2/2 547/2/2 551/2/2
f 551/2/2 547/2/2 552/2/2
f 548/2/2 549/2/2 555/2/2
f 555/2/2 549/2/2 556/2/2
f 552/2/2 553/2/2 557/2/2
f 557/2/2 553/2/2 558/2/2
f 554/2/2 555/2/2 561/2/2
f 561/2/2 555/2/2 562/2/2
f 558/2/2 559/2/2 563/2/2
f 563/2/2 559/2/2 564/2/2
f 560/2/2 561/2/2 567/2/2
f 567/2/2 561/2/2 568/2/2
f 564/2/2 565/2/2 569/2/2
f 569/2/2 565/2/2 570/2/2
f 566/2/2 567/2/2 573/2/2
f 573/2/2 567/2/2 574/2/2
f 570/2/2 571/2/2 575/2/2
f 575/2/2 571/2/2 576/2/2
f 572/2/2 573/2/2 579/2/2
f 579/2/2 573/2/2 580/2/2
f 576/2/2 577/2/2 581/2/2
f 581/2/2 577/2/2 582/2/2
f 578/2/2 579/2/2 585/2/2
f 585/2/2 579/2/2 586/2/2
f 582/2/2 583/2/2 587/2/2
f 587/2/2 583/2/2 588/2/2
f 584/2/2 585/2/2 591/2/2
f 591/2/2 585/2/2 592/2/2
f 588/2/2 589/2/2 593/2/2
f 593/2/2 589/2/2 594/2/2
f 590/2/2 591/2/2 597/2/2
f 597/2/2 591/2/2 598/2/2
f 594/2/2 595/2/2 599/2/2
f 599/2/2 595/2/2 600/2/2
f 596/2/2 597/2/2 601/2/2
f 601/2/2 597/2/2 602/2/2
f 603/6/2 604/6/2 607/6/2
f 605/6/2 606/6/2 610/6/2
f 607/6/2 608/6/2 611/6/2
f 603/6/2 607/6/2 611/6/2
f 611/6/2 608/6/2 612/6/2
f 609/6/2 610/6/2 613/6/2
f 610/6/2 606/6/2 613/6/2
f 613/6/2 606/6/2 614/6/2
f 612/6/2 608/6/2 615/6/2
f 609/6/2 613/6/2 618/6/2
f 615/6/2 616/6/2 619/6/2
f 612/6/2 615/6/2 619/6/2
f 619/6/2 616/6/2 620/6/2
f 620/6/2 616/6/2 621/6/2
f 617/6/2 618/6/2 624/6/2
f 618/6/2 613/6/2 625/6/2
f 624/6/2 618/6/2 625/6/2
f 625/6/2 613/6/2 626/6/2
f 621/6/2 622/6/2 627/6/2
f 620/6/2 621/6/2 627/6/2
f 627/6/2 622/6/2 628/6/2
f 628/6/2 622/6/2 629/6/2
f 623/6/2 624/6/2 632/6/2
f 624/6/2 625/6/2 632/6/2
f 632/6/2 625/6/2 633/6/2
f 633/6/2 625/6/2 634/6/2
f 629/6/2 630/6/2 635/6/2
f 628/6/2 629/6/2 635/6/2
f 635/6/2 630/6/2 636/6/2
f 632/6/2 633/6/2 637/6/2
f 631/6/2 632/6/2 637/6/2
f 637/6/2 633/6/2 638/6/2
f 636/6/2 630/6/2 639/6/2
f 631/6/2 637/6/2 642/6/2
f 639/6/2 640/6/2 643/6/2
f 636/6/2 639/6/2 643/6/2
f 643/6/2 640/6/2 644/6/2
f 641/6/2 642/6/2 645/6/2
f 642/6/2 637/6/2 646/6/2
f 645/6/2 642/6/2 646/6/2
f 647/1/2 648/1/2 649/1/2
f 647/1/2 649/1/2 651/1/2
f 649/1/2 650/1/2 651/1/2
f 651/1/2 650/1/2 652/1/2
f 653/1/2 654/1/2 655/1/2
f 655/1/2 654/1/2 656/1/2
f 656/1/2 654/1/2 657/1/2
f 657/1/2 654/1/2 658/1/2
f 659/1/2 660/1/2 663/1/2
f 663/1/2 660/1/2 664/1/2
f 661/1/2 662/1/2 665/1/2
f 665/1/2 662/1/2 666/1/2
f 667/1/2 668/1/2 672/1/2
f 672/1/2 668/1/2 673/1/2
f 669/1/2 670/1/2 674/1/2
f 674/1/2 670/1/2 675/1/2
f 675/1/2 670/1/2 676/1/2
f 676/1/2 677/1/2 678/1/2
f 675/1/2 676/1/2 678/1/2
f 678/1/2 677/1/2 679/1/2
f 671/1/2 672/1/2 681/1/2
f 681/1/2 672/1/2 682/1/2
f 682/1/2 672/1/2 683/1/2
f 679/1/2 677/1/2 684/1/2
f 684/1/2 677/1/2 685/1/2
f 680/1/2 681/1/2 686/1/2
f 681/1/2 682/1/2 686/1/2
f 686/1/2 682/1/2 687/1/2
f 685/1/2 677/1/2 688/1/2
f 688/1/2 677/1/2 689/1/2
f 689/1/2 690/1/2 691/1/2
f 691/1/2 690/1/2 692/1/2
f 693/1/2 694/1/2 695/1/2
f 695/1/2 694/1/2 696/1/2
f 693/1/2 695/1/2 698/1/2
f 696/1/2 694/1/2 699/1/2
f 699/1/2 700/1/2 701/1/2
f 697/1/2 698/1/2 704/1/2
f 698/1/2 695/1/2 705/1/2
f 704/1/2 698/1/2 705/1/2
f 705/1/2 695/1/2 706/1/2
f 701/1/2 702/1/2 707/1/2
f 696/1/2 699/1/2 707/1/2
f 699/1/2 701/1/2 707/1/2
f 707/1/2 702/1/2 708/1/2
f 708/1/2 702/1/2 709/1/2
f 703/1/2 704/1/2 712/1/2
f 704/1/2 705/1/2 712/1/2
f 712/1/2 705/1/2 713/1/2
f 709/1/2 710/1/2 714/1/2
f 708/1/2 709/1/2 714/1/2
f 714/1/2 710/1/2 715/1/2
f 715/1/2 710/1/2 716/1/2
f 711/1/2 712/1/2 718/1/2
f 718/1/2 712/1/2 719/1/2
f 716/1/2 717/1/2 720/1/2
f 715/1/2 716/1/2 720/1/2
f 720/1/2 717/1/2 721/1/2
f 722/1/2 723/1/2 724/1/2
f 724/1/2 723/1/2 725/1/2
f 726/1/2 727/1/2 729/1/2
f 729/1/2 727/1/2 730/1/2
f 728/1/2 729/1/2 733/1/2
f 730/1/2 731/1/2 733/1/2
f 729/1/2 730/1/2 733/1/2
f 733/1/2 731/1/2 734/1/2
f 732/1/2 733/1/2 734/1/2
f 734/1/2 731/1/2 735/1/2
f 732/1/2 734/1/2 736/1/2
f 736/1/2 734/1/2 737/1/2
f 737/1/2 734/1/2 738/1/2
f 734/6/2 735/6/2 739/6/2
f 738/1/2 734/1/2 739/1/2
f 735/1/2 731/1/2 740/1/2
f 739/6/2 735/6/2 740/6/2
f 740/1/2 731/1/2 741/1/2
f 737/6/2 738/6/2 742/6/2
f 739/6/2 740/6/2 745/6/2
f 742/6/2 743/6/2 746/6/2
f 737/6/2 742/6/2 746/6/2
f 746/6/2 743/6/2 747/6/2
f 744/6/2 745/6/2 748/6/2
f 745/6/2 740/6/2 748/6/2
f 748/6/2 740/6/2 749/6/2
f 747/6/2 743/6/2 750/6/2
f 744/6/2 748/6/2 753/6/2
f 750/6/2 751/6/2 754/6/2
f 747/6/2 750/6/2 754/6/2
f 754/6/2 751/6/2 755/6/2
f 755/6/2 751/6/2 756/6/2
f 752/6/2 753/6/2 759/6/2
f 753/6/2 748/6/2 760/6/2
f 759/6/2 753/6/2 760/6/2
f 760/6/2 748/6/2 761/6/2
f 756/6/2 757/6/2 762/6/2
f 755/6/2 756/6/2 762/6/2
f 762/6/2 757/6/2 763/6/2
f 763/6/2 757/6/2 764/6/2
f 758/6/2 759/6/2 766/6/2
f 759/6/2 760/6/2 766/6/2
f 766/6/2 760/6/2 767/6/2
f 758/6/2 766/6/2 769/6/2
f 764/6/2 765/6/2 770/6/2
f 763/6/2 764/6/2 770/6/2
f 770/6/2 765/6/2 771/6/2
f 768/6/2 769/6/2 772/6/2
f 769/6/2 766/6/2 772/6/2
f 772/6/2 766/6/2 773/6/2
f 771/6/2 765/6/2 774/6/2
f 768/6/2 772/6/2 777/6/2
f 774/6/2 775/6/2 778/6/2
f 771/6/2 774/6/2 778/6/2
f 778/6/2 775/6/2 779/6/2
f 776/6/2 777/6/2 780/6/2
f 777/6/2 772/6/2 781/6/2
f 780/6/2 777/6/2 781/6/2
f 782/2/2 783/2/2 786/2/2
f 786/2/2 783/2/2 787/2/2
f 784/2/2 785/2/2 790/2/2
f 790/2/2 785/2/2 791/2/2
f 787/2/2 788/2/2 792/2/2
f 792/2/2 788/2/2 793/2/2
f 789/2/2 790/2/2 796/2/2
f 796/2/2 790/2/2 797/2/2
f 793/2/2 794/2/2 798/2/2
f 798/2/2 794/2/2 799/2/2
f 795/2/2 796/2/2 802/2/2
f 802/2/2 796/2/2 803/2/2
f 799/2/2 800/2/2 804/2/2
f 804/2/2 800/2/2 805/2/2
f 801/2/2 802/2/2 808/2/2
f 808/2/2 802/2/2 809/2/2
f 805/2/2 806/2/2 810/2/2
f 810/2/2 806/2/2 811/2/2
f 807/2/2 808/2/2 814/2/2
f 814/2/2 808/2/2 815/2/2
f 811/2/2 812/2/2 816/2/2
f 816/2/2 812/2/2 817/2/2
f 813/2/2 814/2/2 820/2/2
f 820/2/2 814/2/2 821/2/2
f 817/2/2 818/2/2 822/2/2
f 822/2/2 818/2/2 823/2/2
f 819/2/2 820/2/2 826/2/2
f 826/2/2 820/2/2 827/2/2
f 823/2/2 824/2/2 828/2/2
f 828/2/2 824/2/2 829/2/2
f 825/2/2 826/2/2 832/2/2
f 832/2/2 826/2/2 833/2/2
f 829/2/2 830/2/2 834/2/2
f 834/2/2 830/2/2 835/2/2
f 831/2/2 832/2/2 838/2/2
f 838/2/2 832/2/2 839/2/2
f 835/2/2 836/2/2 840/2/2
f 840/2/2 836/2/2 841/2/2
f 837/2/2 838/2/2 844/2/2
f 844/2/2 838/2/2 845/2/2
f 841/2/2 842/2/2 846/2/2
f 846/2/2 842/2/2 847/2/2
f 843/2/2 844/2/2 850/2/2
f 850/2/2 844/2/2 851/2/2
f 847/2/2 848/2/2 852/2/2
f 849/2/2 850/2/2 853/2/2
f 847/2/2 852/2/2 854/2/2
f 852/2/2 853/2/2 854/2/2
f 854/2/2 853/2/2 855/2/2
f 853/2/2 850/2/2 856/2/2
f 855/2/2 853/2/2 856/2/2
f 856/2/2 850/2/2 857/2/2
f 855/2/2 856/2/2 858/2/2
f 858/2/2 856/2/2 859/2/2
f 859/2/2 856/2/2 860/2/2
f 860/2/2 856/2/2 861/2/2
f 859/2/2 860/2/2 862/2/2
f 862/2/2 860/2/2 863/2/2
f 867/1/3 865/1/3 864/1/3
f 868/1/3 867/1/3 866/1/3
f 869/1/3 865/1/3 867/1/3
f 869/1/3 867/1/3 868/1/3
f 870/1/3 865/1/3 869/1/3
f 871/1/3 865/1/3 870/1/3
f 874/4/3 873/4/3 872/4/3
f 875/4/3 873/4/3 874/4/3
f 878/1/3 877/1/3 876/1/3
f 879/1/3 877/1/3 878/1/3
f 880/1/3 878/1/3 876/1/3
f 881/1/3 878/1/3 880/1/3
f 888/4/3 883/4/3 882/4/3
f 889/4/3 883/4/3 888/4/3
f 890/5/3 885/5/3 884/5/3
f 891/5/3 885/5/3 890/5/3
f 892/2/3 887/2/3 886/2/3
f 893/2/3 887/2/3 892/2/3
f 897/1/3 895/1/3 894/1/3
f 900/1/3 897/1/3 896/1/3
f 901/1/3 895/1/3 897/1/3
f 901/1/3 897/1/3 900/1/3
f 902/1/3 899/1/3 898/1/3
f 903/1/3 899/1/3 902/1/3
f 906/1/3 905/1/3 904/1/3
f 907/1/3 905/1/3 906/1/3
f 909/1/3 908/1/3 907/1/3
f 910/1/3 908/1/3 909/1/3
f 913/2/3 912/2/3 911/2/3
f 914/2/3 912/2/3 913/2/3
f 919/4/3 916/4/3 915/4/3
f 920/4/3 916/4/3 919/4/3
f 921/2/3 918/2/3 917/2/3
f 922/2/3 918/2/3 921/2/3
f 927/1/3 924/1/3 923/1/3
f 928/1/3 924/1/3 927/1/3
f 929/1/3 926/1/3 925/1/3
f 930/1/3 926/1/3 929/1/3
f 933/1/3 932/1/3 931/1/3
f 934/1/3 932/1/3 933/1/3
f 936/1/3 935/1/3 934/1/3
f 937/1/3 935/1/3 936/1/3
f 940/2/3 939/2/3 938/2/3
f 941/2/3 939/2/3 940/2/3
f 944/2/3 943/2/3 942/2/3
f 945/2/3 943/2/3 944/2/3
f 948/1/3 947/1/3 946/1/3
f 949/1/3 947/1/3 948/1/3
f 952/2/3 951/2/3 950/2/3
f 953/2/3 951/2/3 952/2/3
f 956/4/3 955/4/3 954/4/3
f 957/4/3 955/4/3 956/4/3
f 959/2/3 957/2/3 956/2/3
f 959/2/3 958/2/3 957/2/3
f 960/2/3 958/2/3 959/2/3
f 963/1/3 962/1/3 961/1/3
f 964/1/3 962/1/3 963/1/3
f 967/2/3 966/2/3 965/2/3
f 968/2/3 966/2/3 967/2/3
f 972/2/3 970/2/3 969/2/3
f 972/2/3 971/2/3 970/2/3
f 973/2/3 971/2/3 972/2/3
f 976/6/3 975/6/3 974/6/3
f 977/6/3 975/6/3 976/6/3
f 982/1/3 979/1/3 978/1/3
f 983/1/3 979/1/3 982/1/3
f 984/6/3 981/6/3 980/6/3
f 985/6/3 981/6/3 984/6/3
f 988/2/3 987/2/3 986/2/3
f 989/2/3 987/2/3 988/2/3
f 993/2/3 991/2/3 990/2/3
f 993/2/3 992/2/3 991/2/3
f 994/2/3 992/2/3 993/2/3
f 997/6/3 996/6/3 995/6/3
f 998/6/3 996/6/3 997/6/3
f 1001/6/3 1000/6/3 999/6/3
f 1002/6/3 1000/6/3 1001/6/3
f 1005/2/3 1004/2/3 1003/2/3
f 1006/2/3 1004/2/3 1005/2/3
f 1009/5/3 1008/5/3 1007/5/3
f 1010/5/3 1008/5/3 1009/5/3
f 1013/2/3 1012/2/3 1011/2/3
f 1014/2/3 1012/2/3 1013/2/3
f 1017/6/3 1016/6/3 1015/6/3
f 1018/6/3 1016/6/3 1017/6/3
f 1023/1/3 1020/1/3 1019/1/3
f 1024/1/3 1020/1/3 1023/1/3
f 1025/6/3 1022/6/3 1021/6/3
f 1026/6/3 1022/6/3 1025/6/3
f 1029/2/3 1028/2/3 1027/2/3
f 1030/2/3 1028/2/3 1029/2/3
f 1033/2/3 1032/2/3 1031/2/3
f 1034/2/3 1032/2/3 1033/2/3
f 1037/6/3 1036/6/3 1035/6/3
f 1038/6/3 1036/6/3 1037/6/3
f 1041/6/3 1040/6/3 1039/6/3
f 1042/6/3 1040/6/3 1041/6/3
f 1045/2/3 1044/2/3 1043/2/3
f 1046/2/3 1044/2/3 1045/2/3
f 1049/2/3 1048/2/3 1047/2/3
f 1050/2/3 1048/2/3 1049/2/3
f 1053/6/3 1052/6/3 1051/6/3
f 1054/6/3 1052/6/3 1053/6/3
f 1057/6/3 1056/6/3 1055/6/3
f 1058/6/3 1056/6/3 1057/6/3
f 1061/2/3 1060/2/3 1059/2/3
f 1062/2/3 1060/2/3 1061/2/3
f 1065/2/3 1064/2/3 1063/2/3
f 1066/2/3 1064/2/3 1065/2/3
f 1069/2/3 1068/2/3 1067/2/3
f 1070/2/3 1068/2/3 1069/2/3
f 1073/4/3 1072/4/3 1071/4/3
f 1074/4/3 1072/4/3 1073/4/3
f 1077/2/3 1076/2/3 1075/2/3
f 1078/2/3 1076/2/3 1077/2/3
f 1081/2/3 1080/2/3 1079/2/3
f 1082/2/3 1080/2/3 1081/2/3
f 1085/4/3 1084/4/3 1083/4/3
f 1086/4/3 1084/4/3 1085/4/3
f 1089/2/3 1088/2/3 1087/2/3
f 1090/2/3 1088/2/3 1089/2/3
f 1091/2/3 1088/2/3 1090/2/3
f 1092/2/3 1088/2/3 1091/2/3
f 1095/2/3 1094/2/3 1093/2/3
f 1096/2/3 1094/2/3 1095/2/3
f 1100/2/3 1098/2/3 1097/2/3
f 1101/2/3 1100/2/3 1099/2/3
f 1102/2/3 1098/2/3 1100/2/3
f 1102/2/3 1100/2/3 1101/2/3
f 1105/2/3 1104/2/3 1103/2/3
f 1106/2/3 1104/2/3 1105/2/3
f 1109/5/3 1108/5/3 1107/5/3
f 1110/5/3 1108/5/3 1109/5/3
f 1113/2/3 1112/2/3 1111/2/3
f 1114/2/3 1112/2/3 1113/2/3
f 1117/4/3 1116/4/3 1115/4/3
f 1118/4/3 1116/4/3 1117/4/3
f 1121/5/3 1120/5/3 1119/5/3
f 1122/5/3 1120/5/3 1121/5/3
f 1125/2/3 1124/2/3 1123/2/3
f 1126/2/3 1124/2/3 1125/2/3
f 1129/2/3 1128/2/3 1127/2/3
f 1130/2/3 1128/2/3 1129/2/3
f 1133/2/3 1132/2/3 1131/2/3
f 1134/2/3 1132/2/3 1133/2/3
f 1137/2/3 1136/2/3 1135/2/3
f 1138/2/3 1136/2/3 1137/2/3
f 1141/2/3 1140/2/3 1139/2/3
f 1142/2/3 1140/2/3 1141/2/3
f 1145/6/3 1144/6/3 1143/6/3
f 1146/6/3 1144/6/3 1145/6/3
f 1149/6/3 1148/6/3 1147/6/3
f 1150/6/3 1148/6/3 1149/6/3
f 1153/2/3 1152/2/3 1151/2/3
f 1154/2/3 1152/2/3 1153/2/3
f 1157/4/3 1156/4/3 1155/4/3
f 1158/4/3 1156/4/3 1157/4/3
f 1161/2/3 1160/2/3 1159/2/3
f 1162/2/3 1160/2/3 1161/2/3
f 1165/6/3 1164/6/3 1163/6/3
f 1166/6/3 1164/6/3 1165/6/3
f 1169/6/3 1168/6/3 1167/6/3
f 1170/6/3 1168/6/3 1169/6/3
f 1173/2/3 1172/2/3 1171/2/3
f 1174/2/3 1172/2/3 1173/2/3
f 1177/4/3 1176/4/3 1175/4/3
f 1178/4/3 1176/4/3 1177/4/3
f 1181/2/3 1180/2/3 1179/2/3
f 1182/2/3 1180/2/3 1181/2/3
f 1185/6/3 1184/6/3 1183/6/3
f 1186/6/3 1184/6/3 1185/6/3
f 1189/6/3 1188/6/3 1187/6/3
f 1190/6/3 1188/6/3 1189/6/3
f 1193/2/3 1192/2/3 1191/2/3
f 1194/2/3 1192/2/3 1193/2/3
f 1197/2/3 1196/2/3 1195/2/3
f 1198/2/3 1196/2/3 1197/2/3
f 1201/6/3 1200/6/3 1199/6/3
f 1202/6/3 1200/6/3 1201/6/3
f 1205/1/3 1204/1/3 1203/1/3
f 1206/1/3 1204/1/3 1205/1/3
f 1209/6/3 1208/6/3 1207/6/3
f 1210/6/3 1208/6/3 1209/6/3
f 1213/2/3 1212/2/3 1211/2/3
f 1214/2/3 1212/2/3 1213/2/3
f 1217/2/3 1216/2/3 1215/2/3
f 1218/2/3 1216/2/3 1217/2/3
f 1221/6/3 1220/6/3 1219/6/3
f 1222/6/3 1220/6/3 1221/6/3
f 1225/1/3 1224/1/3 1223/1/3
f 1226/1/3 1224/1/3 1225/1/3
f 1229/1/3 1228/1/3 1227/1/3
f 1230/1/3 1229/1/3 1227/1/3
f 1231/1/3 1229/1/3 1230/1/3
f 1234/6/3 1233/6/3 1232/6/3
f 1235/6/3 1233/6/3 1234/6/3
f 1238/2/3 1237/2/3 1236/2/3
f 1239/2/3 1237/2/3 1238/2/3
f 1243/4/3 1241/4/3 1240/4/3
f 1244/5/3 1242/5/3 1241/5/3
f 1244/4/3 1241/4/3 1243/4/3
f 1245/5/3 1242/5/3 1244/5/3
f 1246/2/3 1244/2/3 1243/2/3
f 1246/2/3 1245/2/3 1244/2/3
f 1247/2/3 1245/2/3 1246/2/3
f 1250/1/3 1249/1/3 1248/1/3
f 1251/1/3 1249/1/3 1250/1/3
f 1254/2/3 1253/2/3 1252/2/3
f 1255/2/3 1253/2/3 1254/2/3
f 1258/2/3 1257/2/3 1256/2/3
f 1259/2/3 1257/2/3 1258/2/3
f 1262/1/3 1261/1/3 1260/1/3
f 1263/1/3 1261/1/3 1262/1/3
f 1264/1/3 1261/1/3 1263/1/3
f 1265/1/3 1261/1/3 1264/1/3
f 1268/2/3 1267/2/3 1266/2/3
f 1269/2/3 1267/2/3 1268/2/3
f 1274/5/3 1271/5/3 1270/5/3
f 1275/5/3 1271/5/3 1274/5/3
f 1276/2/3 1273/2/3 1272/2/3
f 1277/2/3 1273/2/3 1276/2/3
f 1280/2/3 1279/2/3 1278/2/3
f 1281/2/3 1279/2/3 1280/2/3
f 1284/2/3 1283/2/3 1282/2/3
f 1285/2/3 1283/2/3 1284/2/3
f 1288/2/3 1287/2/3 1286/2/3
f 1289/2/3 1287/2/3 1288/2/3
f 1292/2/3 1291/2/3 1290/2/3
f 1293/2/3 1291/2/3 1292/2/3
f 1296/2/3 1295/2/3 1294/2/3
f 1297/2/3 1295/2/3 1296/2/3
f 1298/2/4 1299/2/4 1300/2/4
f 1300/2/4 1299/2/4 1301/2/4
f 1302/1/4 1303/1/4 1304/1/4
f 1304/1/4 1303/1/4 1305/1/4
f 1305/1/4 1303/1/4 1306/1/4
f 1306/1/4 1303/1/4 1307/1/4
f 1307/1/4 1303/1/4 1308/1/4
f 1308/1/4 1303/1/4 1309/1/4
f 1310/2/4 1311/2/4 1312/2/4
f 1312/2/4 1311/2/4 1313/2/4
f 1314/2/4 1315/2/4 1316/2/4
f 1316/2/4 1315/2/4 1317/2/4
f 1318/2/4 1319/2/4 1320/2/4
f 1320/2/4 1319/2/4 1321/2/4
f 1322/2/4 1323/2/4 1324/2/4
f 1324/2/4 1323/2/4 1325/2/4
f 1326/1/4 1327/1/4 1328/1/4
f 1328/1/4 1327/1/4 1329/1/4
f 1330/2/4 1331/2/4 1332/2/4
f 1332/2/4 1331/2/4 1333/2/4
f 1334/2/4 1335/2/4 1337/2/4
f 1335/2/4 1336/2/4 1337/2/4
f 1337/2/4 1336/2/4 1338/2/4
f 1339/2/4 1340/2/4 1341/2/4
f 1341/2/4 1340/2/4 1342/2/4
f 1343/4/4 1344/4/4 1347/4/4
f 1347/4/4 1344/4/4 1348/4/4
f 1345/2/4 1346/2/4 1349/2/4
f 1346/2/4 1347/2/4 1349/2/4
f 1349/2/4 1347/2/4 1350/2/4
f 1351/6/4 1352/6/4 1353/6/4
f 1353/6/4 1352/6/4 1354/6/4
f 1355/6/4 1356/6/4 1357/6/4
f 1357/6/4 1356/6/4 1358/6/4
f 1359/2/4 1360/2/4 1361/2/4
f 1361/2/4 1360/2/4 1362/2/4
f 1363/2/4 1364/2/4 1366/2/4
f 1364/2/4 1365/2/4 1366/2/4
f 1366/2/4 1365/2/4 1367/2/4
f 1368/6/4 1369/6/4 1370/6/4
f 1370/6/4 1369/6/4 1371/6/4
f 1372/1/4 1373/1/4 1374/1/4
f 1374/1/4 1373/1/4 1375/1/4
f 1376/6/4 1377/6/4 1378/6/4
f 1378/6/4 1377/6/4 1379/6/4
f 1380/2/4 1381/2/4 1382/2/4
f 1382/2/4 1381/2/4 1383/2/4
f 1384/5/4 1385/5/4 1386/5/4
f 1386/5/4 1385/5/4 1387/5/4
f 1388/2/4 1389/2/4 1390/2/4
f 1390/2/4 1389/2/4 1391/2/4
f 1392/6/4 1393/6/4 1394/6/4
f 1394/6/4 1393/6/4 1395/6/4
f 1396/6/4 1397/6/4 1398/6/4
f 1398/6/4 1397/6/4 1399/6/4
f 1400/2/4 1401/2/4 1402/2/4
f 1402/2/4 1401/2/4 1403/2/4
f 1404/2/4 1405/2/4 1406/2/4
f 1406/2/4 1405/2/4 1407/2/4
f 1408/6/4 1409/6/4 1410/6/4
f 1410/6/4 1409/6/4 1411/6/4
f 1412/6/4 1413/6/4 1414/6/4
f 1414/6/4 1413/6/4 1415/6/4
f 1416/2/4 1417/2/4 1418/2/4
f 1418/2/4 1417/2/4 1419/2/4
f 1420/5/4 1421/5/4 1422/5/4
f 1422/5/4 1421/5/4 1423/5/4
f 1424/2/4 1425/2/4 1426/2/4
f 1426/2/4 1425/2/4 1427/2/4
f 1428/6/4 1429/6/4 1430/6/4
f 1430/6/4 1429/6/4 1431/6/4
f 1432/6/4 1433/6/4 1434/6/4
f 1434/6/4 1433/6/4 1435/6/4
f 1436/2/4 1437/2/4 1438/2/4
f 1438/2/4 1437/2/4 1439/2/4
f 1440/2/4 1441/2/4 1442/2/4
f 1442/2/4 1441/2/4 1443/2/4
f 1444/2/4 1445/2/4 1446/2/4
f 1446/2/4 1445/2/4 1447/2/4
f 1448/2/4 1449/2/4 1450/2/4
f 1450/2/4 1449/2/4 1451/2/4
f 1452/2/4 1453/2/4 1454/2/4
f 1454/2/4 1453/2/4 1455/2/4
f 1456/2/4 1457/2/4 1458/2/4
f 1458/2/4 1457/2/4 1459/2/4
f 1460/2/4 1461/2/4 1462/2/4
f 1462/2/4 1461/2/4 1463/2/4
f 1464/5/4 1465/5/4 1466/5/4
f 1466/5/4 1465/5/4 1467/5/4
f 1468/2/4 1469/2/4 1470/2/4
f 1470/2/4 1469/2/4 1471/2/4
f 1472/2/4 1473/2/4 1474/2/4
f 1474/2/4 1473/2/4 1475/2/4
f 1476/2/4 1477/2/4 1478/2/4
f 1478/2/4 1477/2/4 1479/2/4
f 1479/2/4 1477/2/4 1480/2/4
f 1480/2/4 1477/2/4 1481/2/4
f 1482/2/4 1483/2/4 1484/2/4
f 1484/2/4 1483/2/4 1485/2/4
f 1486/2/4 1487/2/4 1489/2/4
f 1488/2/4 1489/2/4 1490/2/4
f 1489/2/4 1487/2/4 1491/2/4
f 1490/2/4 1489/2/4 1491/2/4
f 1492/3/4 1493/3/4 1496/3/4
f 1496/3/4 1493/3/4 1497/3/4
f 1494/5/4 1495/5/4 1498/5/4
f 1498/5/4 1495/5/4 1499/5/4
f 1500/2/4 1501/2/4 1502/2/4
f 1502/2/4 1501/2/4 1503/2/4
f 1504/2/4 1505/2/4 1506/2/4
f 1506/2/4 1505/2/4 1507/2/4
f 1508/4/4 1509/4/4 1510/4/4
f 1510/4/4 1509/4/4 1511/4/4
f 1512/2/4 1513/2/4 1514/2/4
f 1514/2/4 1513/2/4 1515/2/4
f 1516/6/4 1517/6/4 1518/6/4
f 1518/6/4 1517/6/4 1519/6/4
f 1520/6/4 1521/6/4 1522/6/4
f 1522/6/4 1521/6/4 1523/6/4
f 1524/2/4 1525/2/4 1526/2/4
f 1526/2/4 1525/2/4 1527/2/4
f 1528/4/4 1529/4/4 1530/4/4
f 1530/4/4 1529/4/4 1531/4/4
f 1532/2/4 1533/2/4 1534/2/4
f 1534/2/4 1533/2/4 1535/2/4
f 1536/6/4 1537/6/4 1538/6/4
f 1538/6/4 1537/6/4 1539/6/4
f 1540/6/4 1541/6/4 1542/6/4
f 1542/6/4 1541/6/4 1543/6/4
f 1544/2/4 1545/2/4 1546/2/4
f 1546/2/4 1545/2/4 1547/2/4
f 1548/2/4 1549/2/4 1550/2/4
f 1550/2/4 1549/2/4 1551/2/4
f 1552/1/4 1553/1/4 1556/1/4
f 1556/1/4 1553/1/4 1557/1/4
f 1554/6/4 1555/6/4 1558/6/4
f 1558/6/4 1555/6/4 1559/6/4
f 1560/6/4 1561/6/4 1562/6/4
f 1562/6/4 1561/6/4 1563/6/4
f 1564/2/4 1565/2/4 1566/2/4
f 1566/2/4 1565/2/4 1567/2/4
f 1568/4/4 1569/4/4 1570/4/4
f 1570/4/4 1569/4/4 1571/4/4
f 1572/2/4 1573/2/4 1574/2/4
f 1574/2/4 1573/2/4 1575/2/4
f 1576/1/4 1577/1/4 1580/1/4
f 1580/1/4 1577/1/4 1581/1/4
f 1578/6/4 1579/6/4 1582/6/4
f 1582/6/4 1579/6/4 1583/6/4
f 1584/1/4 1585/1/4 1588/1/4
f 1588/1/4 1585/1/4 1589/1/4
f 1586/6/4 1587/6/4 1590/6/4
f 1590/6/4 1587/6/4 1591/6/4
f 1592/2/4 1593/2/4 1594/2/4
f 1594/2/4 1593/2/4 1595/2/4
f 1596/2/4 1597/2/4 1598/2/4
f 1598/2/4 1597/2/4 1599/2/4
f 1600/6/4 1601/6/4 1604/6/4
f 1604/6/4 1601/6/4 1605/6/4
f 1605/6/4 1601/6/4 1606/6/4
f 1602/1/4 1603/1/4 1607/1/4
f 1607/1/4 1603/1/4 1608/1/4
f 1609/1/4 1610/1/4 1611/1/4
f 1611/1/4 1610/1/4 1612/1/4
f 1613/6/4 1614/6/4 1615/6/4
f 1615/6/4 1614/6/4 1616/6/4
f 1617/2/4 1618/2/4 1619/2/4
f 1619/2/4 1618/2/4 1620/2/4
f 1621/4/4 1622/4/4 1625/4/4
f 1625/4/4 1622/4/4 1626/4/4
f 1623/5/4 1624/5/4 1628/5/4
f 1628/5/4 1624/5/4 1629/5/4
f 1627/2/4 1628/2/4 1630/2/4
f 1628/2/4 1629/2/4 1630/2/4
f 1630/2/4 1629/2/4 1631/2/4
f 1632/1/4 1633/1/4 1636/1/4
f 1636/1/4 1633/1/4 1637/1/4
f 1634/1/4 1635/1/4 1638/1/4
f 1638/1/4 1635/1/4 1639/1/4
f 1640/1/4 1641/1/4 1642/1/4
f 1642/1/4 1641/1/4 1643/1/4
f 1644/1/4 1645/1/4 1646/1/4
f 1644/1/4 1646/1/4 1648/1/4
f 1646/1/4 1647/1/4 1648/1/4
f 1648/1/4 1647/1/4 1649/1/4
f 1650/2/4 1651/2/4 1652/2/4
f 1652/2/4 1651/2/4 1653/2/4
f 1654/2/4 1655/2/4 1657/2/4
f 1655/2/4 1656/2/4 1657/2/4
f 1657/2/4 1656/2/4 1658/2/4
f 1659/1/4 1660/1/4 1662/1/4
f 1662/1/4 1660/1/4 1663/1/4
f 1661/1/4 1662/1/4 1664/1/4
f 1664/1/4 1662/1/4 1665/1/4
f 1666/1/4 1667/1/4 1668/1/4
f 1668/1/4 1667/1/4 1669/1/4
f 1670/1/4 1671/1/4 1672/1/4
f 1672/1/4 1671/1/4 1673/1/4
f 1674/1/4 1675/1/4 1676/1/4
f 1676/1/4 1675/1/4 1677/1/4
f 1678/2/4 1679/2/4 1680/2/4
f 1680/2/4 1679/2/4 1681/2/4
f 1682/2/4 1683/2/4 1684/2/4
f 1684/2/4 1683/2/4 1685/2/4
f 1686/1/4 1687/1/4 1688/1/4
f 1688/1/4 1687/1/4 1689/1/4
f 1690/1/4 1691/1/4 1692/1/4
f 1692/1/4 1691/1/4 1693/1/4
f 1694/1/4 1695/1/4 1696/1/4
f 1696/1/4 1695/1/4 1697/1/4
f 1698/2/4 1699/2/4 1700/2/4
f 1700/2/4 1699/2/4 1701/2/4
f 1702/4/4 1703/4/4 1708/4/4
f 1708/4/4 1703/4/4 1709/4/4
f 1704/5/4 1705/5/4 1710/5/4
f 1710/5/4 1705/5/4 1711/5/4
f 1706/2/4 1707/2/4 1712/2/4
f 1712/2/4 1707/2/4 1713/2/4
f 1714/1/4 1715/1/4 1717/1/4
f 1717/1/4 1715/1/4 1718/1/4
f 1716/1/4 1717/1/4 1719/1/4
f 1719/1/4 1717/1/4 1720/1/4
f 1720/1/4 1721/1/4 1722/1/4
f 1722/1/4 1721/1/4 1723/1/4
f 1724/2/4 1725/2/4 1726/2/4
f 1726/2/4 1725/2/4 1727/2/4
f 1728/4/4 1729/4/4 1732/4/4
f 1732/4/4 1729/4/4 1733/4/4
f 1730/2/4 1731/2/4 1734/2/4
f 1734/2/4 1731/2/4 1735/2/4
f 1736/1/4 1737/1/4 1738/1/4
f 1738/1/4 1737/1/4 1739/1/4
f 1740/2/4 1741/2/4 1742/2/4
f 1742/2/4 1741/2/4 1743/2/4
f 1748/2/5 1745/2/5 1744/2/5
f 1749/2/5 1745/2/5 1748/2/5
f 1750/2/5 1747/2/5 1746/2/5
f 1751/2/5 1747/2/5 1750/2/5
f 1756/2/5 1753/2/5 1752/2/5
f 1757/2/5 1753/2/5 1756/2/5
f 1758/2/5 1755/2/5 1754/2/5
f 1759/2/5 1755/2/5 1758/2/5
f 1764/2/5 1761/2/5 1760/2/5
f 1765/2/5 1761/2/5 1764/2/5
f 1766/2/5 1763/2/5 1762/2/5
f 1767/2/5 1763/2/5 1766/2/5
f 1772/2/5 1769/2/5 1768/2/5
f 1773/2/5 1769/2/5 1772/2/5
f 1774/2/5 1771/2/5 1770/2/5
f 1775/2/5 1771/2/5 1774/2/5
f 1780/2/5 1777/2/5 1776/2/5
f 1781/2/5 1777/2/5 1780/2/5
f 1782/2/5 1779/2/5 1778/2/5
f 1783/2/5 1779/2/5 1782/2/5
f 1788/2/5 1785/2/5 1784/2/5
f 1789/2/5 1785/2/5 1788/2/5
f 1790/2/5 1787/2/5 1786/2/5
f 1791/2/5 1787/2/5 1790/2/5
f 1794/4/5 1793/4/5 1792/4/5
f 1795/4/5 1793/4/5 1794/4/5
f 1801/4/5 1797/4/5 1796/4/5
f 1801/2/5 1798/2/5 1797/2/5
f 1802/2/5 1798/2/5 1801/2/5
f 1803/2/5 1800/2/5 1799/2/5
f 1804/2/5 1800/2/5 1803/2/5
f 1805/4/5 1801/4/5 1796/4/5
f 1806/4/5 1801/4/5 1805/4/5
f 1807/3/5 1806/3/5 1805/3/5
f 1808/3/5 1806/3/5 1807/3/5
f 1814/3/5 1810/3/5 1809/3/5
f 1815/2/5 1811/2/5 1810/2/5
f 1815/3/5 1810/3/5 1814/3/5
f 1816/2/5 1811/2/5 1815/2/5
f 1817/2/5 1813/2/5 1812/2/5
f 1818/2/5 1813/2/5 1817/2/5
f 1819/4/5 1815/4/5 1814/4/5
f 1820/4/5 1819/4/5 1814/4/5
f 1821/4/5 1819/4/5 1820/4/5
f 1824/4/5 1823/4/5 1822/4/5
f 1825/4/5 1823/4/5 1824/4/5
f 1826/3/5 1825/3/5 1824/3/5
f 1827/3/5 1825/3/5 1826/3/5
f 1830/4/5 1829/4/5 1828/4/5
f 1831/4/5 1829/4/5 1830/4/5
f 1836/4/5 1833/4/5 1832/4/5
f 1837/4/5 1833/4/5 1836/4/5
f 1838/1/5 1835/1/5 1834/1/5
f 1840/1/5 1839/1/5 1838/1/5
f 1846/2/5 1843/2/5 1842/2/5
f 1847/2/5 1843/2/5 1846/2/5
f 1848/2/5 1845/2/5 1844/2/5
f 1849/2/5 1845/2/5 1848/2/5
f 1850/1/5 1840/1/5 1838/1/5
f 1850/1/5 1841/1/5 1840/1/5
f 1851/1/5 1841/1/5 1850/1/5
f 1852/1/5 1838/1/5 1834/1/5
f 1852/1/5 1850/1/5 1838/1/5
f 1853/1/5 1850/1/5 1852/1/5
f 1854/1/5 1850/1/5 1853/1/5
f 1855/1/5 1850/1/5 1854/1/5
f 1856/1/5 1850/1/5 1855/1/5
f 1857/1/5 1850/1/5 1856/1/5
f 1858/1/5 1856/1/5 1855/1/5
f 1859/1/5 1856/1/5 1858/1/5
f 1862/4/5 1861/4/5 1860/4/5
f 1863/4/5 1861/4/5 1862/4/5
f 1868/1/5 1867/1/5 1866/1/5
f 1869/1/5 1867/1/5 1868/1/5
f 1872/1/5 1865/1/5 1864/1/5
f 1873/1/5 1865/1/5 1872/1/5
f 1876/2/5 1871/2/5 1870/2/5
f 1877/2/5 1871/2/5 1876/2/5
f 1878/2/5 1875/2/5 1874/2/5
f 1879/2/5 1875/2/5 1878/2/5
f 1882/1/5 1881/1/5 1880/1/5
f 1883/1/5 1881/1/5 1882/1/5
f 1884/1/5 1881/1/5 1883/1/5
f 1885/1/5 1881/1/5 1884/1/5
f 1887/1/5 1886/1/5 1885/1/5
f 1888/1/5 1886/1/5 1887/1/5
f 1891/4/5 1890/4/5 1889/4/5
f 1892/4/5 1890/4/5 1891/4/5
f 1897/1/5 1894/1/5 1893/1/5
f 1898/1/5 1894/1/5 1897/1/5
f 1899/1/5 1896/1/5 1895/1/5
f 1900/1/5 1896/1/5 1899/1/5
f 1904/1/5 1901/1/5 1900/1/5
f 1905/1/5 1903/1/5 1902/1/5
f 1906/1/5 1904/1/5 1900/1/5
f 1906/1/5 1905/1/5 1904/1/5
f 1907/1/5 1903/1/5 1905/1/5
f 1907/1/5 1905/1/5 1906/1/5
f 1910/1/5 1909/1/5 1908/1/5
f 1911/1/5 1909/1/5 1910/1/5
f 1916/2/5 1913/2/5 1912/2/5
f 1917/2/5 1913/2/5 1916/2/5
f 1918/2/5 1915/2/5 1914/2/5
f 1919/2/5 1915/2/5 1918/2/5
f 1922/4/5 1921/4/5 1920/4/5
f 1923/4/5 1921/4/5 1922/4/5
f 1928/2/5 1925/2/5 1924/2/5
f 1929/2/5 1925/2/5 1928/2/5
f 1930/2/5 1927/2/5 1926/2/5
f 1931/2/5 1927/2/5 1930/2/5
f 1936/1/5 1933/1/5 1932/1/5
f 1937/1/5 1933/1/5 1936/1/5
f 1938/1/5 1935/1/5 1934/1/5
f 1939/1/5 1935/1/5 1938/1/5
f 1942/1/5 1941/1/5 1940/1/5
f 1943/1/5 1941/1/5 1942/1/5
f 1946/1/5 1945/1/5 1944/1/5
f 1947/1/5 1945/1/5 1946/1/5
f 1952/1/5 1951/1/5 1950/1/5
f 1953/1/5 1951/1/5 1952/1/5
f 1954/1/5 1949/1/5 1948/1/5
f 1955/1/5 1949/1/5 1954/1/5
f 1958/1/5 1957/1/5 1956/1/5
f 1959/1/5 1957/1/5 1958/1/5
f 1962/1/5 1961/1/5 1960/1/5
f 1963/1/5 1961/1/5 1962/1/5
f 1966/1/5 1965/1/5 1964/1/5
f 1967/1/5 1965/1/5 1966/1/5
f 1972/2/5 1969/2/5 1968/2/5
f 1973/2/5 1969/2/5 1972/2/5
f 1974/2/5 1971/2/5 1970/2/5
f 1975/2/5 1971/2/5 1974/2/5
f 1980/1/5 1977/1/5 1976/1/5
f 1981/1/5 1977/1/5 1980/1/5
f 1982/1/5 1979/1/5 1978/1/5
f 1983/1/5 1979/1/5 1982/1/5
f 1985/1/5 1984/1/5 1983/1/5
f 1986/1/5 1984/1/5 1985/1/5
f 1993/2/5 1988/2/5 1987/2/5
f 1994/2/5 1988/2/5 1993/2/5
f 1995/1/5 1990/1/5 1989/1/5
f 1996/1/5 1990/1/5 1995/1/5
f 1997/2/5 1992/2/5 1991/2/5
f 1998/2/5 1992/2/5 1997/2/5
f 2001/1/5 2000/1/5 1999/1/5
f 2002/1/5 2000/1/5 2001/1/5
f 2005/1/5 2004/1/5 2003/1/5
f 2006/1/5 2004/1/5 2005/1/5
f 2011/1/5 2008/1/5 2007/1/5
f 2012/1/5 2008/1/5 2011/1/5
f 2013/1/5 2010/1/5 2009/1/5
f 2014/1/5 2010/1/5 2013/1/5
f 2015/1/5 2013/1/5 2012/1/5
f 2016/1/5 2013/1/5 2015/1/5
f 2019/1/5 2018/1/5 2017/1/5
f 2020/1/5 2018/1/5 2019/1/5
f 2025/1/5 2022/1/5 2021/1/5
f 2026/1/5 2022/1/5 2025/1/5
f 2027/6/5 2024/6/5 2023/6/5
f 2028/6/5 2024/6/5 2027/6/5
f 2033/2/5 2030/2/5 2029/2/5
f 2034/2/5 2030/2/5 2033/2/5
f 2035/2/5 2032/2/5 2031/2/5
f 2036/2/5 2032/2/5 2035/2/5
f 2041/2/5 2038/2/5 2037/2/5
f 2042/2/5 2038/2/5 2041/2/5
f 2043/2/5 2040/2/5 2039/2/5
f 2044/2/5 2040/2/5 2043/2/5
f 2049/6/5 2046/6/5 2045/6/5
f 2050/6/5 2046/6/5 2049/6/5
f 2051/6/5 2048/6/5 2047/6/5
f 2052/6/5 2048/6/5 2051/6/5
f 2057/6/5 2054/6/5 2053/6/5
f 2058/6/5 2054/6/5 2057/6/5
f 2059/6/5 2056/6/5 2055/6/5
f 2060/6/5 2056/6/5 2059/6/5
f 2065/2/5 2062/2/5 2061/2/5
f 2066/2/5 2062/2/5 2065/2/5
f 2067/2/5 2064/2/5 2063/2/5
f 2068/2/5 2064/2/5 2067/2/5
f 2073/2/5 2070/2/5 2069/2/5
f 2074/2/5 2070/2/5 2073/2/5
f 2075/2/5 2072/2/5 2071/2/5
f 2076/2/5 2072/2/5 2075/2/5
f 2081/6/5 2078/6/5 2077/6/5
f 2082/6/5 2078/6/5 2081/6/5
f 2083/6/5 2080/6/5 2079/6/5
f 2084/6/5 2080/6/5 2083/6/5
f 2089/6/5 2086/6/5 2085/6/5
f 2090/6/5 2086/6/5 2089/6/5
f 2091/6/5 2088/6/5 2087/6/5
f 2092/6/5 2088/6/5 2091/6/5
f 2097/2/5 2094/2/5 2093/2/5
f 2098/2/5 2094/2/5 2097/2/5
f 2099/2/5 2096/2/5 2095/2/5
f 2100/2/5 2096/2/5 2099/2/5
f 2105/2/5 2102/2/5 2101/2/5
f 2106/2/5 2102/2/5 2105/2/5
f 2107/2/5 2104/2/5 2103/2/5
f 2108/2/5 2104/2/5 2107/2/5
f 2113/6/5 2110/6/5 2109/6/5
f 2114/6/5 2110/6/5 2113/6/5
f 2115/6/5 2112/6/5 2111/6/5
f 2116/6/5 2112/6/5 2115/6/5
f 2121/6/5 2118/6/5 2117/6/5
f 2122/6/5 2118/6/5 2121/6/5
f 2123/6/5 2120/6/5 2119/6/5
f 2124/6/5 2120/6/5 2123/6/5
f 2129/6/5 2126/6/5 2125/6/5
f 2130/6/5 2126/6/5 2129/6/5
f 2131/6/5 2128/6/5 2127/6/5
f 2132/6/5 2128/6/5 2131/6/5
f 2137/2/5 2134/2/5 2133/2/5
f 2138/2/5 2134/2/5 2137/2/5
f 2139/2/5 2136/2/5 2135/2/5
f 2140/2/5 2136/2/5 2139/2/5
f 2145/2/5 2142/2/5 2141/2/5
f 2146/2/5 2142/2/5 2145/2/5
f 2149/2/5 2144/2/5 2143/2/5
f 2150/2/5 2144/2/5 2149/2/5
f 2151/6/5 2148/6/5 2147/6/5
f 2152/6/5 2148/6/5 2151/6/5
f 2155/6/5 2154/6/5 2153/6/5
f 2156/6/5 2154/6/5 2155/6/5
f 2161/2/5 2158/2/5 2157/2/5
f 2162/2/5 2158/2/5 2161/2/5
f 2163/2/5 2160/2/5 2159/2/5
f 2164/2/5 2160/2/5 2163/2/5
f 2169/2/5 2166/2/5 2165/2/5
f 2170/2/5 2166/2/5 2169/2/5
f 2171/2/5 2168/2/5 2167/2/5
f 2172/2/5 2168/2/5 2171/2/5
f 2178/6/5 2174/6/5 2173/6/5
f 2179/6/5 2174/6/5 2178/6/5
f 2180/6/5 2176/6/5 2175/6/5
f 2181/6/5 2176/6/5 2180/6/5
f 2184/2/5 2179/2/5 2178/2/5
f 2184/2/5 2182/2/5 2181/2/5
f 2184/2/5 2181/2/5 2180/2/5
f 2184/2/5 2180/2/5 2179/2/5
f 2184/2/5 2178/2/5 2177/2/5
f 2185/2/5 2182/2/5 2184/2/5
f 2187/2/5 2184/2/5 2183/2/5
f 2187/2/5 2186/2/5 2185/2/5
f 2187/2/5 2185/2/5 2184/2/5
f 2188/2/5 2186/2/5 2187/2/5
f 2189/2/5 2186/2/5 2188/2/5
f 2190/2/5 2186/2/5 2189/2/5
f 2191/2/5 2189/2/5 2188/2/5
f 2192/2/5 2189/2/5 2191/2/5
f 2193/2/5 2189/2/5 2192/2/5
f 2194/2/5 2189/2/5 2193/2/5
f 2195/2/5 2189/2/5 2194/2/5
f 2196/2/5 2189/2/5 2195/2/5
f 2197/6/5 2193/6/5 2192/6/5
f 2198/6/5 2193/6/5 2197/6/5
f 2199/6/5 2195/6/5 2194/6/5
f 2200/6/5 2195/6/5 2199/6/5
f 2201/2/6 2202/2/6 2205/2/6
f 2205/2/6 2202/2/6 2206/2/6
f 2203/2/6 2204/2/6 2207/2/6
f 2207/2/6 2204/2/6 2208/2/6
f 2209/2/6 2210/2/6 2213/2/6
f 2213/2/6 2210/2/6 2214/2/6
f 2211/2/6 2212/2/6 2215/2/6
f 2215/2/6 2212/2/6 2216/2/6
f 2217/2/6 2218/2/6 2221/2/6
f 2221/2/6 2218/2/6 2222/2/6
f 2219/2/6 2220/2/6 2223/2/6
f 2223/2/6 2220/2/6 2224/2/6
f 2225/2/6 2226/2/6 2229/2/6
f 2229/2/6 2226/2/6 2230/2/6
f 2227/2/6 2228/2/6 2231/2/6
f 2231/2/6 2228/2/6 2232/2/6
f 2233/2/6 2234/2/6 2237/2/6
f 2237/2/6 2234/2/6 2238/2/6
f 2235/2/6 2236/2/6 2239/2/6
f 2239/2/6 2236/2/6 2240/2/6
f 2241/2/6 2242/2/6 2245/2/6
f 2245/2/6 2242/2/6 2246/2/6
f 2243/2/6 2244/2/6 2247/2/6
f 2247/2/6 2244/2/6 2248/2/6
f 2249/2/6 2250/2/6 2253/2/6
f 2253/2/6 2250/2/6 2254/2/6
f 2251/2/6 2252/2/6 2255/2/6
f 2255/2/6 2252/2/6 2256/2/6
f 2257/1/6 2258/1/6 2259/1/6
f 2259/1/6 2260/1/6 2261/1/6
f 2263/4/6 2264/4/6 2265/4/6
f 2265/4/6 2264/4/6 2266/4/6
f 2257/1/6 2259/1/6 2269/1/6
f 2259/1/6 2261/1/6 2269/1/6
f 2261/1/6 2262/1/6 2269/1/6
f 2269/1/6 2262/1/6 2270/1/6
f 2270/1/6 2262/1/6 2271/1/6
f 2271/1/6 2262/1/6 2272/1/6
f 2267/3/6 2268/3/6 2273/3/6
f 2273/3/6 2268/3/6 2274/3/6
f 2270/1/6 2271/1/6 2277/1/6
f 2277/1/6 2271/1/6 2278/1/6
f 2275/2/6 2276/2/6 2281/2/6
f 2281/2/6 2276/2/6 2282/2/6
f 2279/2/6 2280/2/6 2283/2/6
f 2283/2/6 2280/2/6 2284/2/6
f 2285/4/6 2286/4/6 2287/4/6
f 2287/4/6 2286/4/6 2288/4/6
f 2289/1/6 2290/1/6 2291/1/6
f 2291/1/6 2290/1/6 2292/1/6
f 2293/4/6 2294/4/6 2295/4/6
f 2295/4/6 2294/4/6 2296/4/6
f 2297/4/6 2298/4/6 2299/4/6
f 2299/4/6 2298/4/6 2300/4/6
f 2301/4/6 2302/4/6 2303/4/6
f 2303/4/6 2302/4/6 2304/4/6
f 2305/4/6 2306/4/6 2307/4/6
f 2307/4/6 2306/4/6 2308/4/6
f 2309/2/6 2310/2/6 2314/2/6
f 2314/2/6 2310/2/6 2315/2/6
f 2311/2/6 2312/2/6 2316/2/6
f 2316/2/6 2312/2/6 2317/2/6
f 2313/4/6 2314/4/6 2318/4/6
f 2318/4/6 2314/4/6 2319/4/6
f 2320/5/6 2321/5/6 2322/5/6
f 2322/5/6 2321/5/6 2323/5/6
f 2324/4/6 2325/4/6 2326/4/6
f 2326/4/6 2325/4/6 2327/4/6
f 2328/4/6 2329/4/6 2330/4/6
f 2330/4/6 2329/4/6 2331/4/6
f 2332/5/6 2333/5/6 2337/5/6
f 2333/2/6 2334/2/6 2338/2/6
f 2337/5/6 2333/5/6 2338/5/6
f 2338/2/6 2334/2/6 2339/2/6
f 2335/2/6 2336/2/6 2340/2/6
f 2340/2/6 2336/2/6 2341/2/6
f 2342/5/6 2343/5/6 2344/5/6
f 2344/5/6 2343/5/6 2345/5/6
f 2346/5/6 2347/5/6 2348/5/6
f 2348/5/6 2347/5/6 2349/5/6
f 2348/4/6 2349/4/6 2350/4/6
f 2350/4/6 2349/4/6 2351/4/6
f 2352/5/6 2353/5/6 2354/5/6
f 2354/5/6 2353/5/6 2355/5/6
f 2356/4/6 2357/4/6 2358/4/6
f 2358/4/6 2357/4/6 2359/4/6
f 2360/4/6 2361/4/6 2362/4/6
f 2362/4/6 2361/4/6 2363/4/6
f 2364/5/6 2365/5/6 2366/5/6
f 2366/5/6 2365/5/6 2367/5/6
f 2366/4/6 2367/4/6 2368/4/6
f 2368/4/6 2367/4/6 2369/4/6
f 2370/2/6 2371/2/6 2374/2/6
f 2374/2/6 2371/2/6 2375/2/6
f 2372/2/6 2373/2/6 2376/2/6
f 2376/2/6 2373/2/6 2377/2/6
f 2378/5/6 2379/5/6 2380/5/6
f 2380/5/6 2379/5/6 2381/5/6
f 2382/5/6 2383/5/6 2384/5/6
f 2384/5/6 2383/5/6 2385/5/6
f 2386/2/6 2387/2/6 2390/2/6
f 2390/2/6 2387/2/6 2391/2/6
f 2388/2/6 2389/2/6 2392/2/6
f 2392/2/6 2389/2/6 2393/2/6
f 2394/1/6 2395/1/6 2396/1/6
f 2396/1/6 2395/1/6 2397/1/6
f 2398/1/6 2399/1/6 2402/1/6
f 2402/1/6 2399/1/6 2403/1/6
f 2400/1/6 2401/1/6 2404/1/6
f 2404/1/6 2401/1/6 2405/1/6
f 2406/1/6 2407/1/6 2409/1/6
f 2409/1/6 2407/1/6 2410/1/6
f 2408/1/6 2409/1/6 2412/1/6
f 2410/1/6 2411/1/6 2412/1/6
f 2409/1/6 2410/1/6 2412/1/6
f 2412/1/6 2411/1/6 2413/1/6
f 2408/1/6 2412/1/6 2414/1/6
f 2414/1/6 2412/1/6 2415/1/6
f 2413/1/6 2411/1/6 2416/1/6
f 2416/1/6 2411/1/6 2417/1/6
f 2415/1/6 2412/1/6 2419/1/6
f 2413/1/6 2416/1/6 2420/1/6
f 2422/2/6 2423/2/6 2426/2/6
f 2426/2/6 2423/2/6 2427/2/6
f 2424/2/6 2425/2/6 2428/2/6
f 2428/2/6 2425/2/6 2429/2/6
f 2413/1/6 2420/1/6 2431/1/6
f 2420/1/6 2421/1/6 2431/1/6
f 2418/1/6 2419/1/6 2432/1/6
f 2419/1/6 2412/1/6 2433/1/6
f 2432/1/6 2419/1/6 2433/1/6
f 2430/1/6 2431/1/6 2434/1/6
f 2431/1/6 2421/1/6 2434/1/6
f 2434/1/6 2421/1/6 2435/1/6
f 2433/1/6 2412/1/6 2436/1/6
f 2436/1/6 2412/1/6 2437/1/6
f 2430/1/6 2434/1/6 2439/1/6
f 2437/1/6 2438/1/6 2441/1/6
f 2436/1/6 2437/1/6 2441/1/6
f 2441/1/6 2438/1/6 2442/1/6
f 2442/1/6 2438/1/6 2443/1/6
f 2439/1/6 2440/1/6 2444/1/6
f 2430/1/6 2439/1/6 2444/1/6
f 2444/1/6 2440/1/6 2445/1/6
f 2445/1/6 2440/1/6 2446/1/6
f 2442/1/6 2443/1/6 2447/1/6
f 2444/1/6 2445/1/6 2447/1/6
f 2443/1/6 2444/1/6 2447/1/6
f 2447/1/6 2445/1/6 2448/1/6
f 2442/1/6 2447/1/6 2449/1/6
f 2449/1/6 2447/1/6 2450/1/6
f 2450/1/6 2447/1/6 2451/1/6
f 2451/1/6 2447/1/6 2452/1/6
f 2450/1/6 2451/1/6 2453/1/6
f 2453/1/6 2451/1/6 2454/1/6
f 2455/2/6 2456/2/6 2459/2/6
f 2459/2/6 2456/2/6 2460/2/6
f 2457/2/6 2458/2/6 2461/2/6
f 2461/2/6 2458/2/6 2462/2/6
f 2463/2/6 2464/2/6 2467/2/6
f 2467/2/6 2464/2/6 2468/2/6
f 2465/2/6 2466/2/6 2469/2/6
f 2469/2/6 2466/2/6 2470/2/6
f 2471/2/6 2472/2/6 2475/2/6
f 2475/2/6 2472/2/6 2476/2/6
f 2473/2/6 2474/2/6 2477/2/6
f 2477/2/6 2474/2/6 2478/2/6
f 2479/6/6 2480/6/6 2483/6/6
f 2483/6/6 2480/6/6 2484/6/6
f 2481/6/6 2482/6/6 2485/6/6
f 2485/6/6 2482/6/6 2486/6/6
f 2487/6/6 2488/6/6 2491/6/6
f 2491/6/6 2488/6/6 2492/6/6
f 2489/6/6 2490/6/6 2493/6/6
f 2493/6/6 2490/6/6 2494/6/6
f 2495/2/6 2496/2/6 2499/2/6
f 2499/2/6 2496/2/6 2500/2/6
f 2497/2/6 2498/2/6 2501/2/6
f 2501/2/6 2498/2/6 2502/2/6
f 2503/2/6 2504/2/6 2507/2/6
f 2507/2/6 2504/2/6 2508/2/6
f 2505/2/6 2506/2/6 2509/2/6
f 2509/2/6 2506/2/6 2510/2/6
f 2511/6/6 2512/6/6 2515/6/6
f 2515/6/6 2512/6/6 2516/6/6
f 2513/6/6 2514/6/6 2517/6/6
f 2517/6/6 2514/6/6 2518/6/6
f 2519/6/6 2520/6/6 2523/6/6
f 2523/6/6 2520/6/6 2524/6/6
f 2521/6/6 2522/6/6 2525/6/6
f 2525/6/6 2522/6/6 2526/6/6
f 2527/6/6 2528/6/6 2531/6/6
f 2531/6/6 2528/6/6 2532/6/6
f 2529/6/6 2530/6/6 2533/6/6
f 2533/6/6 2530/6/6 2534/6/6
f 2535/2/6 2536/2/6 2539/2/6
f 2539/2/6 2536/2/6 2540/2/6
f 2537/2/6 2538/2/6 2541/2/6
f 2541/2/6 2538/2/6 2542/2/6
f 2543/2/6 2544/2/6 2547/2/6
f 2547/2/6 2544/2/6 2548/2/6
f 2545/2/6 2546/2/6 2549/2/6
f 2549/2/6 2546/2/6 2550/2/6
f 2551/6/6 2552/6/6 2555/6/6
f 2555/6/6 2552/6/6 2556/6/6
f 2553/6/6 2554/6/6 2557/6/6
f 2557/6/6 2554/6/6 2558/6/6
f 2559/6/6 2560/6/6 2563/6/6
f 2563/6/6 2560/6/6 2564/6/6
f 2561/6/6 2562/6/6 2565/6/6
f 2565/6/6 2562/6/6 2566/6/6
f 2567/2/6 2568/2/6 2571/2/6
f 2571/2/6 2568/2/6 2572/2/6
f 2569/2/6 2570/2/6 2573/2/6
f 2573/2/6 2570/2/6 2574/2/6
f 2575/2/6 2576/2/6 2579/2/6
f 2579/2/6 2576/2/6 2580/2/6
f 2577/2/6 2578/2/6 2581/2/6
f 2581/2/6 2578/2/6 2582/2/6
f 2583/6/6 2584/6/6 2587/6/6
f 2587/6/6 2584/6/6 2588/6/6
f 2585/6/6 2586/6/6 2589/6/6
f 2589/6/6 2586/6/6 2590/6/6
f 2591/6/6 2592/6/6 2596/6/6
f 2596/6/6 2592/6/6 2597/6/6
f 2593/6/6 2594/6/6 2598/6/6
f 2598/6/6 2594/6/6 2599/6/6
f 2596/2/6 2597/2/6 2601/2/6
f 2599/2/6 2600/2/6 2601/2/6
f 2598/2/6 2599/2/6 2601/2/6
f 2597/2/6 2598/2/6 2601/2/6
f 2595/2/6 2596/2/6 2601/2/6
f 2601/2/6 2600/2/6 2602/2/6
f 2603/2/6 2604/2/6 2605/2/6
f 2605/2/6 2604/2/6 2606/2/6
f 2606/2/6 2604/2/6 2607/2/6
f 2607/2/6 2604/2/6 2608/2/6
f 2608/2/6 2604/2/6 2609/2/6
f 2609/2/6 2604/2/6 2610/2/6
f 2606/6/6 2607/6/6 2611/6/6
f 2611/6/6 2607/6/6 2612/6/6
f 2608/6/6 2609/6/6 2613/6/6
f 2613/6/6 2609/6/6 2614/6/6
f 2615/2/6 2616/2/6 2617/2/6
f 2617/2/6 2616/2/6 2618/2/6
f 2619/2/6 2620/2/6 2621/2/6
f 2621/2/6 2620/2/6 2622/2/6
f 2623/2/6 2624/2/6 2625/2/6
f 2625/2/6 2624/2/6 2626/2/6
