# MagicaVoxel @ Ephtracy

# group
o 

# material
mtllib yataired.mtl
usemtl palette

# normals
vn -1 0 0
vn 1 0 0
vn 0 0 1
vn 0 0 -1
vn 0 -1 0
vn 0 1 0

# texcoords
vt 0.845703 0.5
vt 0.958984 0.5
vt 0.982422 0.5

# verts
v -1.6 0 1.3
v -1.6 0 -1.2
v -1.6 1 1.3
v -1.6 1 -1.2
v -1.5 1 1.2
v -1.5 1 0.9
v -1.5 1 -0.8
v -1.5 1 -1.1
v -1.5 2.2 0.9
v -1.5 2.2 -0.8
v -1.5 2.3 1.2
v -1.5 2.3 0.9
v -1.5 2.3 -0.8
v -1.5 2.3 -1.1
v -1.5 2.4 1.2
v -1.5 2.4 1.1
v -1.5 2.4 -1
v -1.5 2.4 -1.1
v -1.5 2.5 1.1
v -1.5 2.5 1
v -1.5 2.5 -0.9
v -1.5 2.5 -1
v -1.5 2.6 1
v -1.5 2.6 0.9
v -1.5 2.6 -0.8
v -1.5 2.6 -0.9
v -1.5 2.7 0.9
v -1.5 2.7 0.8
v -1.5 2.7 -0.7
v -1.5 2.7 -0.8
v -1.5 2.8 0.8
v -1.5 2.8 0.7
v -1.5 2.8 -0.6
v -1.5 2.8 -0.7
v -1.5 2.9 0.7
v -1.5 2.9 0.6
v -1.5 2.9 -0.5
v -1.5 2.9 -0.6
v -1.5 3.1 0.6
v -1.5 3.1 0.5
v -1.5 3.1 -0.4
v -1.5 3.1 -0.5
v -1.5 3.2 0.5
v -1.5 3.2 0.4
v -1.5 3.2 -0.3
v -1.5 3.2 -0.4
v -1.5 3.3 0.4
v -1.5 3.3 0.2
v -1.5 3.3 -0.0999999
v -1.5 3.3 -0.3
v -1.5 3.4 0.2
v -1.5 3.4 0.1
v -1.5 3.4 1.19209e-07
v -1.5 3.4 -0.0999999
v -1.5 3.5 0.1
v -1.5 3.5 1.19209e-07
v 0.7 1 1.2
v 0.7 1 0.9
v 0.7 1 -0.8
v 0.7 1 -1.1
v 0.7 2.2 1.2
v 0.7 2.2 1.1
v 0.7 2.2 0.9
v 0.7 2.2 -0.8
v 0.7 2.2 -1
v 0.7 2.2 -1.1
v -1.3 1 1.2
v -1.3 1 0.9
v -1.3 1 -0.8
v -1.3 1 -1.1
v -1.3 2.2 1.2
v -1.3 2.2 0.9
v -1.3 2.2 -0.8
v -1.3 2.2 -1.1
v 0.9 1 1.2
v 0.9 1 0.9
v 0.9 1 -0.8
v 0.9 1 -1.1
v 0.9 2.2 0.9
v 0.9 2.2 -0.8
v 0.9 2.3 1.2
v 0.9 2.3 0.9
v 0.9 2.3 -0.8
v 0.9 2.3 -1.1
v 0.9 2.4 1.2
v 0.9 2.4 1.1
v 0.9 2.4 -1
v 0.9 2.4 -1.1
v 0.9 2.5 1.1
v 0.9 2.5 1
v 0.9 2.5 -0.9
v 0.9 2.5 -1
v 0.9 2.6 1
v 0.9 2.6 0.9
v 0.9 2.6 -0.8
v 0.9 2.6 -0.9
v 0.9 2.7 0.9
v 0.9 2.7 0.8
v 0.9 2.7 -0.7
v 0.9 2.7 -0.8
v 0.9 2.8 0.8
v 0.9 2.8 0.7
v 0.9 2.8 -0.6
v 0.9 2.8 -0.7
v 0.9 2.9 0.7
v 0.9 2.9 0.6
v 0.9 2.9 -0.5
v 0.9 2.9 -0.6
v 0.9 3.1 0.6
v 0.9 3.1 0.5
v 0.9 3.1 -0.4
v 0.9 3.1 -0.5
v 0.9 3.2 0.5
v 0.9 3.2 0.4
v 0.9 3.2 -0.3
v 0.9 3.2 -0.4
v 0.9 3.3 0.4
v 0.9 3.3 0.2
v 0.9 3.3 -0.0999999
v 0.9 3.3 -0.3
v 0.9 3.4 0.2
v 0.9 3.4 0.1
v 0.9 3.4 1.19209e-07
v 0.9 3.4 -0.0999999
v 0.9 3.5 0.1
v 0.9 3.5 1.19209e-07
v 1 0 1.3
v 1 0 -1.2
v 1 1 1.3
v 1 1 -1.2
v -1.6 0 1.3
v -1.6 1 1.3
v 1 0 1.3
v 1 1 1.3
v -1.5 1 1.2
v -1.5 2.3 1.2
v -1.5 2.4 1.2
v -1.3 1 1.2
v -1.3 2.2 1.2
v -1.3 2.3 1.2
v -1.2 2.2 1.2
v -1.2 2.4 1.2
v -0.9 2.2 1.2
v -0.9 2.4 1.2
v -0.6 2.2 1.2
v -0.6 2.4 1.2
v -0.3 2.2 1.2
v -0.3 2.4 1.2
v 0 2.2 1.2
v 0 2.4 1.2
v 0.3 2.2 1.2
v 0.3 2.4 1.2
v 0.6 2.2 1.2
v 0.6 2.4 1.2
v 0.7 1 1.2
v 0.7 2.2 1.2
v 0.7 2.3 1.2
v 0.8 2.3 1.2
v 0.8 2.4 1.2
v 0.9 1 1.2
v 0.9 2.3 1.2
v 0.9 2.4 1.2
v -1.5 2.4 1.1
v -1.5 2.5 1.1
v -1.2 2.4 1.1
v -1.2 2.5 1.1
v -0.9 2.4 1.1
v -0.9 2.5 1.1
v -0.6 2.4 1.1
v -0.6 2.5 1.1
v -0.3 2.4 1.1
v -0.3 2.5 1.1
v 0 2.4 1.1
v 0 2.5 1.1
v 0.3 2.4 1.1
v 0.3 2.5 1.1
v 0.6 2.4 1.1
v 0.6 2.5 1.1
v 0.8 2.4 1.1
v 0.8 2.5 1.1
v 0.9 2.4 1.1
v 0.9 2.5 1.1
v -1.5 2.5 1
v -1.5 2.6 1
v -1.2 2.5 1
v -1.2 2.6 1
v -0.9 2.5 1
v -0.9 2.6 1
v -0.6 2.5 1
v -0.6 2.6 1
v -0.3 2.5 1
v -0.3 2.6 1
v 0 2.5 1
v 0 2.6 1
v 0.3 2.5 1
v 0.3 2.6 1
v 0.6 2.5 1
v 0.6 2.6 1
v 0.8 2.5 1
v 0.8 2.6 1
v 0.9 2.5 1
v 0.9 2.6 1
v -1.5 2.6 0.9
v -1.5 2.7 0.9
v -1.2 2.6 0.9
v -1.2 2.7 0.9
v -0.9 2.6 0.9
v -0.9 2.7 0.9
v -0.6 2.6 0.9
v -0.6 2.7 0.9
v -0.3 2.6 0.9
v -0.3 2.7 0.9
v 0 2.6 0.9
v 0 2.7 0.9
v 0.3 2.6 0.9
v 0.3 2.7 0.9
v 0.6 2.6 0.9
v 0.6 2.7 0.9
v 0.8 2.6 0.9
v 0.8 2.7 0.9
v 0.9 2.6 0.9
v 0.9 2.7 0.9
v -1.5 2.7 0.8
v -1.5 2.8 0.8
v -1.2 2.7 0.8
v -1.2 2.8 0.8
v -0.9 2.7 0.8
v -0.9 2.8 0.8
v -0.6 2.7 0.8
v -0.6 2.8 0.8
v -0.3 2.7 0.8
v -0.3 2.8 0.8
v 0 2.7 0.8
v 0 2.8 0.8
v 0.3 2.7 0.8
v 0.3 2.8 0.8
v 0.6 2.7 0.8
v 0.6 2.8 0.8
v 0.8 2.7 0.8
v 0.8 2.8 0.8
v 0.9 2.7 0.8
v 0.9 2.8 0.8
v -1.5 2.8 0.7
v -1.5 2.9 0.7
v -1.2 2.8 0.7
v -1.2 2.9 0.7
v -0.9 2.8 0.7
v -0.9 2.9 0.7
v -0.6 2.8 0.7
v -0.6 2.9 0.7
v -0.3 2.8 0.7
v -0.3 2.9 0.7
v 0 2.8 0.7
v 0 2.9 0.7
v 0.3 2.8 0.7
v 0.3 2.9 0.7
v 0.6 2.8 0.7
v 0.6 2.9 0.7
v 0.8 2.8 0.7
v 0.8 2.9 0.7
v 0.9 2.8 0.7
v 0.9 2.9 0.7
v -1.5 2.9 0.6
v -1.5 3.1 0.6
v -1.2 2.9 0.6
v -1.2 3.1 0.6
v -0.9 2.9 0.6
v -0.9 3.1 0.6
v -0.6 2.9 0.6
v -0.6 3.1 0.6
v -0.3 2.9 0.6
v -0.3 3.1 0.6
v 0 2.9 0.6
v 0 3.1 0.6
v 0.3 2.9 0.6
v 0.3 3.1 0.6
v 0.6 2.9 0.6
v 0.6 3.1 0.6
v 0.8 2.9 0.6
v 0.8 3.1 0.6
v 0.9 2.9 0.6
v 0.9 3.1 0.6
v -1.5 3.1 0.5
v -1.5 3.2 0.5
v -1.2 3.1 0.5
v -1.2 3.2 0.5
v -0.9 3.1 0.5
v -0.9 3.2 0.5
v -0.6 3.1 0.5
v -0.6 3.2 0.5
v -0.3 3.1 0.5
v -0.3 3.2 0.5
v 0 3.1 0.5
v 0 3.2 0.5
v 0.3 3.1 0.5
v 0.3 3.2 0.5
v 0.6 3.1 0.5
v 0.6 3.2 0.5
v 0.8 3.1 0.5
v 0.8 3.2 0.5
v 0.9 3.1 0.5
v 0.9 3.2 0.5
v -1.5 3.2 0.4
v -1.5 3.3 0.4
v -1.2 3.2 0.4
v -1.2 3.3 0.4
v -0.9 3.2 0.4
v -0.9 3.3 0.4
v -0.6 3.2 0.4
v -0.6 3.3 0.4
v -0.3 3.2 0.4
v -0.3 3.3 0.4
v 0 3.2 0.4
v 0 3.3 0.4
v 0.3 3.2 0.4
v 0.3 3.3 0.4
v 0.6 3.2 0.4
v 0.6 3.3 0.4
v 0.8 3.2 0.4
v 0.8 3.3 0.4
v 0.9 3.2 0.4
v 0.9 3.3 0.4
v -1.5 3.3 0.2
v -1.5 3.4 0.2
v -1.2 3.3 0.2
v -1.2 3.4 0.2
v -0.9 3.3 0.2
v -0.9 3.4 0.2
v -0.6 3.3 0.2
v -0.6 3.4 0.2
v -0.3 3.3 0.2
v -0.3 3.4 0.2
v 0 3.3 0.2
v 0 3.4 0.2
v 0.3 3.3 0.2
v 0.3 3.4 0.2
v 0.6 3.3 0.2
v 0.6 3.4 0.2
v 0.8 3.3 0.2
v 0.8 3.4 0.2
v 0.9 3.3 0.2
v 0.9 3.4 0.2
v -1.5 3.4 0.1
v -1.5 3.5 0.1
v -1.2 3.4 0.1
v -1.2 3.5 0.1
v -0.9 3.4 0.1
v -0.9 3.5 0.1
v -0.6 3.4 0.1
v -0.6 3.5 0.1
v -0.3 3.4 0.1
v -0.3 3.5 0.1
v 0 3.4 0.1
v 0 3.5 0.1
v 0.3 3.4 0.1
v 0.3 3.5 0.1
v 0.6 3.4 0.1
v 0.6 3.5 0.1
v 0.8 3.4 0.1
v 0.8 3.5 0.1
v 0.9 3.4 0.1
v 0.9 3.5 0.1
v -1.5 1 -0.8
v -1.5 2.2 -0.8
v -1.3 1 -0.8
v -1.3 2.2 -0.8
v 0.7 1 -0.8
v 0.7 2.2 -0.8
v 0.9 1 -0.8
v 0.9 2.2 -0.8
v -1.5 1 0.9
v -1.5 2.2 0.9
v -1.3 1 0.9
v -1.3 2.2 0.9
v 0.7 1 0.9
v 0.7 2.2 0.9
v 0.9 1 0.9
v 0.9 2.2 0.9
v -1.5 3.4 1.19209e-07
v -1.5 3.5 1.19209e-07
v -1.2 3.4 1.19209e-07
v -1.2 3.5 1.19209e-07
v -0.9 3.4 1.19209e-07
v -0.9 3.5 1.19209e-07
v -0.6 3.4 1.19209e-07
v -0.6 3.5 1.19209e-07
v -0.3 3.4 1.19209e-07
v -0.3 3.5 1.19209e-07
v 0 3.4 1.19209e-07
v 0 3.5 1.19209e-07
v 0.3 3.4 1.19209e-07
v 0.3 3.5 1.19209e-07
v 0.6 3.4 1.19209e-07
v 0.6 3.5 1.19209e-07
v 0.8 3.4 1.19209e-07
v 0.8 3.5 1.19209e-07
v 0.9 3.4 1.19209e-07
v 0.9 3.5 1.19209e-07
v -1.5 3.3 -0.0999999
v -1.5 3.4 -0.0999999
v -1.2 3.3 -0.0999999
v -1.2 3.4 -0.0999999
v -0.9 3.3 -0.0999999
v -0.9 3.4 -0.0999999
v -0.6 3.3 -0.0999999
v -0.6 3.4 -0.0999999
v -0.3 3.3 -0.0999999
v -0.3 3.4 -0.0999999
v 0 3.3 -0.0999999
v 0 3.4 -0.0999999
v 0.3 3.3 -0.0999999
v 0.3 3.4 -0.0999999
v 0.6 3.3 -0.0999999
v 0.6 3.4 -0.0999999
v 0.8 3.3 -0.0999999
v 0.8 3.4 -0.0999999
v 0.9 3.3 -0.0999999
v 0.9 3.4 -0.0999999
v -1.5 3.2 -0.3
v -1.5 3.3 -0.3
v -1.2 3.2 -0.3
v -1.2 3.3 -0.3
v -0.9 3.2 -0.3
v -0.9 3.3 -0.3
v -0.6 3.2 -0.3
v -0.6 3.3 -0.3
v -0.3 3.2 -0.3
v -0.3 3.3 -0.3
v 0 3.2 -0.3
v 0 3.3 -0.3
v 0.3 3.2 -0.3
v 0.3 3.3 -0.3
v 0.6 3.2 -0.3
v 0.6 3.3 -0.3
v 0.8 3.2 -0.3
v 0.8 3.3 -0.3
v 0.9 3.2 -0.3
v 0.9 3.3 -0.3
v -1.5 3.1 -0.4
v -1.5 3.2 -0.4
v -1.2 3.1 -0.4
v -1.2 3.2 -0.4
v -0.9 3.1 -0.4
v -0.9 3.2 -0.4
v -0.6 3.1 -0.4
v -0.6 3.2 -0.4
v -0.3 3.1 -0.4
v -0.3 3.2 -0.4
v 0 3.1 -0.4
v 0 3.2 -0.4
v 0.3 3.1 -0.4
v 0.3 3.2 -0.4
v 0.6 3.1 -0.4
v 0.6 3.2 -0.4
v 0.8 3.1 -0.4
v 0.8 3.2 -0.4
v 0.9 3.1 -0.4
v 0.9 3.2 -0.4
v -1.5 2.9 -0.5
v -1.5 3.1 -0.5
v -1.2 2.9 -0.5
v -1.2 3.1 -0.5
v -0.9 2.9 -0.5
v -0.9 3.1 -0.5
v -0.6 2.9 -0.5
v -0.6 3.1 -0.5
v -0.3 2.9 -0.5
v -0.3 3.1 -0.5
v 0 2.9 -0.5
v 0 3.1 -0.5
v 0.3 2.9 -0.5
v 0.3 3.1 -0.5
v 0.6 2.9 -0.5
v 0.6 3.1 -0.5
v 0.8 2.9 -0.5
v 0.8 3.1 -0.5
v 0.9 2.9 -0.5
v 0.9 3.1 -0.5
v -1.5 2.8 -0.6
v -1.5 2.9 -0.6
v -1.2 2.8 -0.6
v -1.2 2.9 -0.6
v -0.9 2.8 -0.6
v -0.9 2.9 -0.6
v -0.6 2.8 -0.6
v -0.6 2.9 -0.6
v -0.3 2.8 -0.6
v -0.3 2.9 -0.6
v 0 2.8 -0.6
v 0 2.9 -0.6
v 0.3 2.8 -0.6
v 0.3 2.9 -0.6
v 0.6 2.8 -0.6
v 0.6 2.9 -0.6
v 0.8 2.8 -0.6
v 0.8 2.9 -0.6
v 0.9 2.8 -0.6
v 0.9 2.9 -0.6
v -1.5 2.7 -0.7
v -1.5 2.8 -0.7
v -1.2 2.7 -0.7
v -1.2 2.8 -0.7
v -0.9 2.7 -0.7
v -0.9 2.8 -0.7
v -0.6 2.7 -0.7
v -0.6 2.8 -0.7
v -0.3 2.7 -0.7
v -0.3 2.8 -0.7
v 0 2.7 -0.7
v 0 2.8 -0.7
v 0.3 2.7 -0.7
v 0.3 2.8 -0.7
v 0.6 2.7 -0.7
v 0.6 2.8 -0.7
v 0.8 2.7 -0.7
v 0.8 2.8 -0.7
v 0.9 2.7 -0.7
v 0.9 2.8 -0.7
v -1.5 2.6 -0.8
v -1.5 2.7 -0.8
v -1.2 2.6 -0.8
v -1.2 2.7 -0.8
v -0.9 2.6 -0.8
v -0.9 2.7 -0.8
v -0.6 2.6 -0.8
v -0.6 2.7 -0.8
v -0.3 2.6 -0.8
v -0.3 2.7 -0.8
v 0 2.6 -0.8
v 0 2.7 -0.8
v 0.3 2.6 -0.8
v 0.3 2.7 -0.8
v 0.6 2.6 -0.8
v 0.6 2.7 -0.8
v 0.8 2.6 -0.8
v 0.8 2.7 -0.8
v 0.9 2.6 -0.8
v 0.9 2.7 -0.8
v -1.5 2.5 -0.9
v -1.5 2.6 -0.9
v -1.2 2.5 -0.9
v -1.2 2.6 -0.9
v -0.9 2.5 -0.9
v -0.9 2.6 -0.9
v -0.6 2.5 -0.9
v -0.6 2.6 -0.9
v -0.3 2.5 -0.9
v -0.3 2.6 -0.9
v 0 2.5 -0.9
v 0 2.6 -0.9
v 0.3 2.5 -0.9
v 0.3 2.6 -0.9
v 0.6 2.5 -0.9
v 0.6 2.6 -0.9
v 0.8 2.5 -0.9
v 0.8 2.6 -0.9
v 0.9 2.5 -0.9
v 0.9 2.6 -0.9
v -1.5 2.4 -1
v -1.5 2.5 -1
v -1.2 2.4 -1
v -1.2 2.5 -1
v -0.9 2.4 -1
v -0.9 2.5 -1
v -0.6 2.4 -1
v -0.6 2.5 -1
v -0.3 2.4 -1
v -0.3 2.5 -1
v 0 2.4 -1
v 0 2.5 -1
v 0.3 2.4 -1
v 0.3 2.5 -1
v 0.6 2.4 -1
v 0.6 2.5 -1
v 0.8 2.4 -1
v 0.8 2.5 -1
v 0.9 2.4 -1
v 0.9 2.5 -1
v -1.5 1 -1.1
v -1.5 2.3 -1.1
v -1.5 2.4 -1.1
v -1.3 1 -1.1
v -1.3 2.2 -1.1
v -1.3 2.3 -1.1
v -1.2 2.2 -1.1
v -1.2 2.4 -1.1
v -0.9 2.2 -1.1
v -0.9 2.4 -1.1
v -0.6 2.2 -1.1
v -0.6 2.4 -1.1
v -0.3 2.2 -1.1
v -0.3 2.4 -1.1
v 0 2.2 -1.1
v 0 2.4 -1.1
v 0.3 2.2 -1.1
v 0.3 2.4 -1.1
v 0.6 2.2 -1.1
v 0.6 2.4 -1.1
v 0.7 1 -1.1
v 0.7 2.2 -1.1
v 0.7 2.3 -1.1
v 0.8 2.3 -1.1
v 0.8 2.4 -1.1
v 0.9 1 -1.1
v 0.9 2.3 -1.1
v 0.9 2.4 -1.1
v -1.6 0 -1.2
v -1.6 1 -1.2
v 1 0 -1.2
v 1 1 -1.2
v -1.6 0 1.3
v 1 0 1.3
v -1.6 0 -1.2
v 1 0 -1.2
v -1.3 2.2 1.2
v -1.2 2.2 1.2
v -0.9 2.2 1.2
v -0.6 2.2 1.2
v -0.3 2.2 1.2
v 0 2.2 1.2
v 0.3 2.2 1.2
v 0.6 2.2 1.2
v 0.7 2.2 1.2
v -1.2 2.2 1.1
v -1.1 2.2 1.1
v -0.9 2.2 1.1
v -0.6 2.2 1.1
v -0.3 2.2 1.1
v -0.2 2.2 1.1
v 0 2.2 1.1
v 0.6 2.2 1.1
v 0.7 2.2 1.1
v -1.5 2.2 0.9
v -1.3 2.2 0.9
v 0.7 2.2 0.9
v 0.9 2.2 0.9
v -1.2 2.2 0.2
v -1.1 2.2 0.2
v 0.3 2.2 -0.7
v 0.4 2.2 -0.7
v -1.5 2.2 -0.8
v -1.3 2.2 -0.8
v 0.7 2.2 -0.8
v 0.9 2.2 -0.8
v -0.9 2.2 -1
v -0.6 2.2 -1
v -0.3 2.2 -1
v -0.2 2.2 -1
v 0 2.2 -1
v 0.3 2.2 -1
v 0.4 2.2 -1
v 0.6 2.2 -1
v 0.7 2.2 -1
v -1.3 2.2 -1.1
v -1.2 2.2 -1.1
v -0.9 2.2 -1.1
v -0.6 2.2 -1.1
v -0.3 2.2 -1.1
v 0 2.2 -1.1
v 0.3 2.2 -1.1
v 0.6 2.2 -1.1
v 0.7 2.2 -1.1
v -1.6 1 1.3
v 1 1 1.3
v -1.5 1 1.2
v -1.3 1 1.2
v 0.7 1 1.2
v 0.9 1 1.2
v -1.5 1 0.9
v -1.3 1 0.9
v 0.7 1 0.9
v 0.9 1 0.9
v -1.5 1 -0.8
v -1.3 1 -0.8
v 0.7 1 -0.8
v 0.9 1 -0.8
v -1.5 1 -1.1
v -1.3 1 -1.1
v 0.7 1 -1.1
v 0.9 1 -1.1
v -1.6 1 -1.2
v 1 1 -1.2
v -1.5 2.4 1.2
v -1.2 2.4 1.2
v -0.9 2.4 1.2
v -0.6 2.4 1.2
v -0.3 2.4 1.2
v 0 2.4 1.2
v 0.3 2.4 1.2
v 0.6 2.4 1.2
v 0.8 2.4 1.2
v 0.9 2.4 1.2
v -1.5 2.4 1.1
v -1.2 2.4 1.1
v -0.9 2.4 1.1
v -0.6 2.4 1.1
v -0.3 2.4 1.1
v 0 2.4 1.1
v 0.3 2.4 1.1
v 0.6 2.4 1.1
v 0.8 2.4 1.1
v 0.9 2.4 1.1
v -1.5 2.4 -1
v -1.2 2.4 -1
v -0.9 2.4 -1
v -0.6 2.4 -1
v -0.3 2.4 -1
v 0 2.4 -1
v 0.3 2.4 -1
v 0.6 2.4 -1
v 0.8 2.4 -1
v 0.9 2.4 -1
v -1.5 2.4 -1.1
v -1.2 2.4 -1.1
v -0.9 2.4 -1.1
v -0.6 2.4 -1.1
v -0.3 2.4 -1.1
v 0 2.4 -1.1
v 0.3 2.4 -1.1
v 0.6 2.4 -1.1
v 0.8 2.4 -1.1
v 0.9 2.4 -1.1
v -1.5 2.5 1.1
v -1.2 2.5 1.1
v -0.9 2.5 1.1
v -0.6 2.5 1.1
v -0.3 2.5 1.1
v 0 2.5 1.1
v 0.3 2.5 1.1
v 0.6 2.5 1.1
v 0.8 2.5 1.1
v 0.9 2.5 1.1
v -1.5 2.5 1
v -1.2 2.5 1
v -0.9 2.5 1
v -0.6 2.5 1
v -0.3 2.5 1
v 0 2.5 1
v 0.3 2.5 1
v 0.6 2.5 1
v 0.8 2.5 1
v 0.9 2.5 1
v -1.5 2.5 -0.9
v -1.2 2.5 -0.9
v -0.9 2.5 -0.9
v -0.6 2.5 -0.9
v -0.3 2.5 -0.9
v 0 2.5 -0.9
v 0.3 2.5 -0.9
v 0.6 2.5 -0.9
v 0.8 2.5 -0.9
v 0.9 2.5 -0.9
v -1.5 2.5 -1
v -1.2 2.5 -1
v -0.9 2.5 -1
v -0.6 2.5 -1
v -0.3 2.5 -1
v 0 2.5 -1
v 0.3 2.5 -1
v 0.6 2.5 -1
v 0.8 2.5 -1
v 0.9 2.5 -1
v -1.5 2.6 1
v -1.2 2.6 1
v -0.9 2.6 1
v -0.6 2.6 1
v -0.3 2.6 1
v 0 2.6 1
v 0.3 2.6 1
v 0.6 2.6 1
v 0.8 2.6 1
v 0.9 2.6 1
v -1.5 2.6 0.9
v -1.2 2.6 0.9
v -0.9 2.6 0.9
v -0.6 2.6 0.9
v -0.3 2.6 0.9
v 0 2.6 0.9
v 0.3 2.6 0.9
v 0.6 2.6 0.9
v 0.8 2.6 0.9
v 0.9 2.6 0.9
v -1.5 2.6 -0.8
v -1.2 2.6 -0.8
v -0.9 2.6 -0.8
v -0.6 2.6 -0.8
v -0.3 2.6 -0.8
v 0 2.6 -0.8
v 0.3 2.6 -0.8
v 0.6 2.6 -0.8
v 0.8 2.6 -0.8
v 0.9 2.6 -0.8
v -1.5 2.6 -0.9
v -1.2 2.6 -0.9
v -0.9 2.6 -0.9
v -0.6 2.6 -0.9
v -0.3 2.6 -0.9
v 0 2.6 -0.9
v 0.3 2.6 -0.9
v 0.6 2.6 -0.9
v 0.8 2.6 -0.9
v 0.9 2.6 -0.9
v -1.5 2.7 0.9
v -1.2 2.7 0.9
v -0.9 2.7 0.9
v -0.6 2.7 0.9
v -0.3 2.7 0.9
v 0 2.7 0.9
v 0.3 2.7 0.9
v 0.6 2.7 0.9
v 0.8 2.7 0.9
v 0.9 2.7 0.9
v -1.5 2.7 0.8
v -1.2 2.7 0.8
v -0.9 2.7 0.8
v -0.6 2.7 0.8
v -0.3 2.7 0.8
v 0 2.7 0.8
v 0.3 2.7 0.8
v 0.6 2.7 0.8
v 0.8 2.7 0.8
v 0.9 2.7 0.8
v -1.5 2.7 -0.7
v -1.2 2.7 -0.7
v -0.9 2.7 -0.7
v -0.6 2.7 -0.7
v -0.3 2.7 -0.7
v 0 2.7 -0.7
v 0.3 2.7 -0.7
v 0.6 2.7 -0.7
v 0.8 2.7 -0.7
v 0.9 2.7 -0.7
v -1.5 2.7 -0.8
v -1.2 2.7 -0.8
v -0.9 2.7 -0.8
v -0.6 2.7 -0.8
v -0.3 2.7 -0.8
v 0 2.7 -0.8
v 0.3 2.7 -0.8
v 0.6 2.7 -0.8
v 0.8 2.7 -0.8
v 0.9 2.7 -0.8
v -1.5 2.8 0.8
v -1.2 2.8 0.8
v -0.9 2.8 0.8
v -0.6 2.8 0.8
v -0.3 2.8 0.8
v 0 2.8 0.8
v 0.3 2.8 0.8
v 0.6 2.8 0.8
v 0.8 2.8 0.8
v 0.9 2.8 0.8
v -1.5 2.8 0.7
v -1.2 2.8 0.7
v -0.9 2.8 0.7
v -0.6 2.8 0.7
v -0.3 2.8 0.7
v 0 2.8 0.7
v 0.3 2.8 0.7
v 0.6 2.8 0.7
v 0.8 2.8 0.7
v 0.9 2.8 0.7
v -1.5 2.8 -0.6
v -1.2 2.8 -0.6
v -0.9 2.8 -0.6
v -0.6 2.8 -0.6
v -0.3 2.8 -0.6
v 0 2.8 -0.6
v 0.3 2.8 -0.6
v 0.6 2.8 -0.6
v 0.8 2.8 -0.6
v 0.9 2.8 -0.6
v -1.5 2.8 -0.7
v -1.2 2.8 -0.7
v -0.9 2.8 -0.7
v -0.6 2.8 -0.7
v -0.3 2.8 -0.7
v 0 2.8 -0.7
v 0.3 2.8 -0.7
v 0.6 2.8 -0.7
v 0.8 2.8 -0.7
v 0.9 2.8 -0.7
v -1.5 2.9 0.7
v -1.2 2.9 0.7
v -0.9 2.9 0.7
v -0.6 2.9 0.7
v -0.3 2.9 0.7
v 0 2.9 0.7
v 0.3 2.9 0.7
v 0.6 2.9 0.7
v 0.8 2.9 0.7
v 0.9 2.9 0.7
v -1.5 2.9 0.6
v -1.2 2.9 0.6
v -0.9 2.9 0.6
v -0.6 2.9 0.6
v -0.3 2.9 0.6
v 0 2.9 0.6
v 0.3 2.9 0.6
v 0.6 2.9 0.6
v 0.8 2.9 0.6
v 0.9 2.9 0.6
v -1.5 2.9 -0.5
v -1.2 2.9 -0.5
v -0.9 2.9 -0.5
v -0.6 2.9 -0.5
v -0.3 2.9 -0.5
v 0 2.9 -0.5
v 0.3 2.9 -0.5
v 0.6 2.9 -0.5
v 0.8 2.9 -0.5
v 0.9 2.9 -0.5
v -1.5 2.9 -0.6
v -1.2 2.9 -0.6
v -0.9 2.9 -0.6
v -0.6 2.9 -0.6
v -0.3 2.9 -0.6
v 0 2.9 -0.6
v 0.3 2.9 -0.6
v 0.6 2.9 -0.6
v 0.8 2.9 -0.6
v 0.9 2.9 -0.6
v -1.5 3.1 0.6
v -1.2 3.1 0.6
v -0.9 3.1 0.6
v -0.6 3.1 0.6
v -0.3 3.1 0.6
v 0 3.1 0.6
v 0.3 3.1 0.6
v 0.6 3.1 0.6
v 0.8 3.1 0.6
v 0.9 3.1 0.6
v -1.5 3.1 0.5
v -1.2 3.1 0.5
v -0.9 3.1 0.5
v -0.6 3.1 0.5
v -0.3 3.1 0.5
v 0 3.1 0.5
v 0.3 3.1 0.5
v 0.6 3.1 0.5
v 0.8 3.1 0.5
v 0.9 3.1 0.5
v -1.5 3.1 -0.4
v -1.2 3.1 -0.4
v -0.9 3.1 -0.4
v -0.6 3.1 -0.4
v -0.3 3.1 -0.4
v 0 3.1 -0.4
v 0.3 3.1 -0.4
v 0.6 3.1 -0.4
v 0.8 3.1 -0.4
v 0.9 3.1 -0.4
v -1.5 3.1 -0.5
v -1.2 3.1 -0.5
v -0.9 3.1 -0.5
v -0.6 3.1 -0.5
v -0.3 3.1 -0.5
v 0 3.1 -0.5
v 0.3 3.1 -0.5
v 0.6 3.1 -0.5
v 0.8 3.1 -0.5
v 0.9 3.1 -0.5
v -1.5 3.2 0.5
v -1.2 3.2 0.5
v -0.9 3.2 0.5
v -0.6 3.2 0.5
v -0.3 3.2 0.5
v 0 3.2 0.5
v 0.3 3.2 0.5
v 0.6 3.2 0.5
v 0.8 3.2 0.5
v 0.9 3.2 0.5
v -1.5 3.2 0.4
v -1.2 3.2 0.4
v -0.9 3.2 0.4
v -0.6 3.2 0.4
v -0.3 3.2 0.4
v 0 3.2 0.4
v 0.3 3.2 0.4
v 0.6 3.2 0.4
v 0.8 3.2 0.4
v 0.9 3.2 0.4
v -1.5 3.2 -0.3
v -1.2 3.2 -0.3
v -0.9 3.2 -0.3
v -0.6 3.2 -0.3
v -0.3 3.2 -0.3
v 0 3.2 -0.3
v 0.3 3.2 -0.3
v 0.6 3.2 -0.3
v 0.8 3.2 -0.3
v 0.9 3.2 -0.3
v -1.5 3.2 -0.4
v -1.2 3.2 -0.4
v -0.9 3.2 -0.4
v -0.6 3.2 -0.4
v -0.3 3.2 -0.4
v 0 3.2 -0.4
v 0.3 3.2 -0.4
v 0.6 3.2 -0.4
v 0.8 3.2 -0.4
v 0.9 3.2 -0.4
v -1.5 3.3 0.4
v -1.2 3.3 0.4
v -0.9 3.3 0.4
v -0.6 3.3 0.4
v -0.3 3.3 0.4
v 0 3.3 0.4
v 0.3 3.3 0.4
v 0.6 3.3 0.4
v 0.8 3.3 0.4
v 0.9 3.3 0.4
v -1.5 3.3 0.2
v -1.2 3.3 0.2
v -0.9 3.3 0.2
v -0.6 3.3 0.2
v -0.3 3.3 0.2
v 0 3.3 0.2
v 0.3 3.3 0.2
v 0.6 3.3 0.2
v 0.8 3.3 0.2
v 0.9 3.3 0.2
v -1.5 3.3 -0.0999999
v -1.2 3.3 -0.0999999
v -0.9 3.3 -0.0999999
v -0.6 3.3 -0.0999999
v -0.3 3.3 -0.0999999
v 0 3.3 -0.0999999
v 0.3 3.3 -0.0999999
v 0.6 3.3 -0.0999999
v 0.8 3.3 -0.0999999
v 0.9 3.3 -0.0999999
v -1.5 3.3 -0.3
v -1.2 3.3 -0.3
v -0.9 3.3 -0.3
v -0.6 3.3 -0.3
v -0.3 3.3 -0.3
v 0 3.3 -0.3
v 0.3 3.3 -0.3
v 0.6 3.3 -0.3
v 0.8 3.3 -0.3
v 0.9 3.3 -0.3
v -1.5 3.4 0.2
v -1.2 3.4 0.2
v -0.9 3.4 0.2
v -0.6 3.4 0.2
v -0.3 3.4 0.2
v 0 3.4 0.2
v 0.3 3.4 0.2
v 0.6 3.4 0.2
v 0.8 3.4 0.2
v 0.9 3.4 0.2
v -1.5 3.4 0.1
v -1.2 3.4 0.1
v -0.9 3.4 0.1
v -0.6 3.4 0.1
v -0.3 3.4 0.1
v 0 3.4 0.1
v 0.3 3.4 0.1
v 0.6 3.4 0.1
v 0.8 3.4 0.1
v 0.9 3.4 0.1
v -1.5 3.4 1.19209e-07
v -1.2 3.4 1.19209e-07
v -0.9 3.4 1.19209e-07
v -0.6 3.4 1.19209e-07
v -0.3 3.4 1.19209e-07
v 0 3.4 1.19209e-07
v 0.3 3.4 1.19209e-07
v 0.6 3.4 1.19209e-07
v 0.8 3.4 1.19209e-07
v 0.9 3.4 1.19209e-07
v -1.5 3.4 -0.0999999
v -1.2 3.4 -0.0999999
v -0.9 3.4 -0.0999999
v -0.6 3.4 -0.0999999
v -0.3 3.4 -0.0999999
v 0 3.4 -0.0999999
v 0.3 3.4 -0.0999999
v 0.6 3.4 -0.0999999
v 0.8 3.4 -0.0999999
v 0.9 3.4 -0.0999999
v -1.5 3.5 0.1
v -1.2 3.5 0.1
v -0.9 3.5 0.1
v -0.6 3.5 0.1
v -0.3 3.5 0.1
v 0 3.5 0.1
v 0.3 3.5 0.1
v 0.6 3.5 0.1
v 0.8 3.5 0.1
v 0.9 3.5 0.1
v -1.5 3.5 1.19209e-07
v -1.2 3.5 1.19209e-07
v -0.9 3.5 1.19209e-07
v -0.6 3.5 1.19209e-07
v -0.3 3.5 1.19209e-07
v 0 3.5 1.19209e-07
v 0.3 3.5 1.19209e-07
v 0.6 3.5 1.19209e-07
v 0.8 3.5 1.19209e-07
v 0.9 3.5 1.19209e-07

# faces
f 3/1/1 2/1/1 1/1/1
f 4/1/1 2/1/1 3/1/1
f 9/3/1 6/3/1 5/3/1
f 10/3/1 8/3/1 7/3/1
f 11/3/1 9/3/1 5/3/1
f 12/1/1 10/1/1 9/1/1
f 12/3/1 9/3/1 11/3/1
f 13/3/1 8/3/1 10/3/1
f 13/1/1 10/1/1 12/1/1
f 14/3/1 8/3/1 13/3/1
f 15/1/1 12/1/1 11/1/1
f 15/1/1 13/1/1 12/1/1
f 15/1/1 14/1/1 13/1/1
f 16/1/1 14/1/1 15/1/1
f 17/1/1 14/1/1 16/1/1
f 18/1/1 14/1/1 17/1/1
f 19/1/1 17/1/1 16/1/1
f 20/1/1 17/1/1 19/1/1
f 21/1/1 17/1/1 20/1/1
f 22/1/1 17/1/1 21/1/1
f 23/1/1 21/1/1 20/1/1
f 24/1/1 21/1/1 23/1/1
f 25/1/1 21/1/1 24/1/1
f 26/1/1 21/1/1 25/1/1
f 27/1/1 25/1/1 24/1/1
f 28/1/1 25/1/1 27/1/1
f 29/1/1 25/1/1 28/1/1
f 30/1/1 25/1/1 29/1/1
f 31/1/1 29/1/1 28/1/1
f 32/1/1 29/1/1 31/1/1
f 33/1/1 29/1/1 32/1/1
f 34/1/1 29/1/1 33/1/1
f 35/1/1 33/1/1 32/1/1
f 36/1/1 33/1/1 35/1/1
f 37/1/1 33/1/1 36/1/1
f 38/1/1 33/1/1 37/1/1
f 39/1/1 37/1/1 36/1/1
f 40/1/1 37/1/1 39/1/1
f 41/1/1 37/1/1 40/1/1
f 42/1/1 37/1/1 41/1/1
f 43/1/1 41/1/1 40/1/1
f 44/1/1 41/1/1 43/1/1
f 45/1/1 41/1/1 44/1/1
f 46/1/1 41/1/1 45/1/1
f 47/1/1 45/1/1 44/1/1
f 48/1/1 45/1/1 47/1/1
f 49/1/1 45/1/1 48/1/1
f 50/1/1 45/1/1 49/1/1
f 51/1/1 49/1/1 48/1/1
f 52/1/1 49/1/1 51/1/1
f 53/1/1 49/1/1 52/1/1
f 54/1/1 49/1/1 53/1/1
f 55/1/1 53/1/1 52/1/1
f 56/1/1 53/1/1 55/1/1
f 61/3/1 58/3/1 57/3/1
f 62/3/1 58/3/1 61/3/1
f 63/3/1 58/3/1 62/3/1
f 64/3/1 60/3/1 59/3/1
f 65/3/1 60/3/1 64/3/1
f 66/3/1 60/3/1 65/3/1
f 67/3/2 68/3/2 71/3/2
f 71/3/2 68/3/2 72/3/2
f 69/3/2 70/3/2 73/3/2
f 73/3/2 70/3/2 74/3/2
f 75/3/2 76/3/2 79/3/2
f 77/3/2 78/3/2 80/3/2
f 75/3/2 79/3/2 81/3/2
f 79/1/2 80/1/2 82/1/2
f 81/3/2 79/3/2 82/3/2
f 80/3/2 78/3/2 83/3/2
f 82/1/2 80/1/2 83/1/2
f 83/3/2 78/3/2 84/3/2
f 81/1/2 82/1/2 85/1/2
f 82/1/2 83/1/2 85/1/2
f 83/1/2 84/1/2 85/1/2
f 85/1/2 84/1/2 86/1/2
f 86/1/2 84/1/2 87/1/2
f 87/1/2 84/1/2 88/1/2
f 86/1/2 87/1/2 89/1/2
f 89/1/2 87/1/2 90/1/2
f 90/1/2 87/1/2 91/1/2
f 91/1/2 87/1/2 92/1/2
f 90/1/2 91/1/2 93/1/2
f 93/1/2 91/1/2 94/1/2
f 94/1/2 91/1/2 95/1/2
f 95/1/2 91/1/2 96/1/2
f 94/1/2 95/1/2 97/1/2
f 97/1/2 95/1/2 98/1/2
f 98/1/2 95/1/2 99/1/2
f 99/1/2 95/1/2 100/1/2
f 98/1/2 99/1/2 101/1/2
f 101/1/2 99/1/2 102/1/2
f 102/1/2 99/1/2 103/1/2
f 103/1/2 99/1/2 104/1/2
f 102/1/2 103/1/2 105/1/2
f 105/1/2 103/1/2 106/1/2
f 106/1/2 103/1/2 107/1/2
f 107/1/2 103/1/2 108/1/2
f 106/1/2 107/1/2 109/1/2
f 109/1/2 107/1/2 110/1/2
f 110/1/2 107/1/2 111/1/2
f 111/1/2 107/1/2 112/1/2
f 110/1/2 111/1/2 113/1/2
f 113/1/2 111/1/2 114/1/2
f 114/1/2 111/1/2 115/1/2
f 115/1/2 111/1/2 116/1/2
f 114/1/2 115/1/2 117/1/2
f 117/1/2 115/1/2 118/1/2
f 118/1/2 115/1/2 119/1/2
f 119/1/2 115/1/2 120/1/2
f 118/1/2 119/1/2 121/1/2
f 121/1/2 119/1/2 122/1/2
f 122/1/2 119/1/2 123/1/2
f 123/1/2 119/1/2 124/1/2
f 122/1/2 123/1/2 125/1/2
f 125/1/2 123/1/2 126/1/2
f 127/1/2 128/1/2 129/1/2
f 129/1/2 128/1/2 130/1/2
f 133/1/3 132/1/3 131/1/3
f 134/1/3 132/1/3 133/1/3
f 138/3/3 136/3/3 135/3/3
f 139/3/3 136/3/3 138/3/3
f 140/1/3 137/1/3 136/1/3
f 140/3/3 136/3/3 139/3/3
f 141/1/3 140/1/3 139/1/3
f 142/1/3 137/1/3 140/1/3
f 142/1/3 140/1/3 141/1/3
f 143/2/3 142/2/3 141/2/3
f 144/2/3 142/2/3 143/2/3
f 145/1/3 144/1/3 143/1/3
f 146/1/3 144/1/3 145/1/3
f 147/2/3 146/2/3 145/2/3
f 148/2/3 146/2/3 147/2/3
f 149/1/3 148/1/3 147/1/3
f 150/1/3 148/1/3 149/1/3
f 151/2/3 150/2/3 149/2/3
f 152/2/3 150/2/3 151/2/3
f 153/1/3 152/1/3 151/1/3
f 154/1/3 152/1/3 153/1/3
f 156/2/3 154/2/3 153/2/3
f 157/2/3 154/2/3 156/2/3
f 158/3/3 156/3/3 155/3/3
f 158/2/3 154/2/3 157/2/3
f 158/3/3 157/3/3 156/3/3
f 159/2/3 154/2/3 158/2/3
f 160/3/3 158/3/3 155/3/3
f 161/1/3 159/1/3 158/1/3
f 161/3/3 158/3/3 160/3/3
f 162/1/3 159/1/3 161/1/3
f 165/1/3 164/1/3 163/1/3
f 166/1/3 164/1/3 165/1/3
f 167/2/3 166/2/3 165/2/3
f 168/2/3 166/2/3 167/2/3
f 169/1/3 168/1/3 167/1/3
f 170/1/3 168/1/3 169/1/3
f 171/2/3 170/2/3 169/2/3
f 172/2/3 170/2/3 171/2/3
f 173/1/3 172/1/3 171/1/3
f 174/1/3 172/1/3 173/1/3
f 175/2/3 174/2/3 173/2/3
f 176/2/3 174/2/3 175/2/3
f 177/1/3 176/1/3 175/1/3
f 178/1/3 176/1/3 177/1/3
f 179/2/3 178/2/3 177/2/3
f 180/2/3 178/2/3 179/2/3
f 181/1/3 180/1/3 179/1/3
f 182/1/3 180/1/3 181/1/3
f 185/1/3 184/1/3 183/1/3
f 186/1/3 184/1/3 185/1/3
f 187/2/3 186/2/3 185/2/3
f 188/2/3 186/2/3 187/2/3
f 189/1/3 188/1/3 187/1/3
f 190/1/3 188/1/3 189/1/3
f 191/2/3 190/2/3 189/2/3
f 192/2/3 190/2/3 191/2/3
f 193/1/3 192/1/3 191/1/3
f 194/1/3 192/1/3 193/1/3
f 195/2/3 194/2/3 193/2/3
f 196/2/3 194/2/3 195/2/3
f 197/1/3 196/1/3 195/1/3
f 198/1/3 196/1/3 197/1/3
f 199/2/3 198/2/3 197/2/3
f 200/2/3 198/2/3 199/2/3
f 201/1/3 200/1/3 199/1/3
f 202/1/3 200/1/3 201/1/3
f 205/1/3 204/1/3 203/1/3
f 206/1/3 204/1/3 205/1/3
f 207/2/3 206/2/3 205/2/3
f 208/2/3 206/2/3 207/2/3
f 209/1/3 208/1/3 207/1/3
f 210/1/3 208/1/3 209/1/3
f 211/2/3 210/2/3 209/2/3
f 212/2/3 210/2/3 211/2/3
f 213/1/3 212/1/3 211/1/3
f 214/1/3 212/1/3 213/1/3
f 215/2/3 214/2/3 213/2/3
f 216/2/3 214/2/3 215/2/3
f 217/1/3 216/1/3 215/1/3
f 218/1/3 216/1/3 217/1/3
f 219/2/3 218/2/3 217/2/3
f 220/2/3 218/2/3 219/2/3
f 221/1/3 220/1/3 219/1/3
f 222/1/3 220/1/3 221/1/3
f 225/1/3 224/1/3 223/1/3
f 226/1/3 224/1/3 225/1/3
f 227/2/3 226/2/3 225/2/3
f 228/2/3 226/2/3 227/2/3
f 229/1/3 228/1/3 227/1/3
f 230/1/3 228/1/3 229/1/3
f 231/2/3 230/2/3 229/2/3
f 232/2/3 230/2/3 231/2/3
f 233/1/3 232/1/3 231/1/3
f 234/1/3 232/1/3 233/1/3
f 235/2/3 234/2/3 233/2/3
f 236/2/3 234/2/3 235/2/3
f 237/1/3 236/1/3 235/1/3
f 238/1/3 236/1/3 237/1/3
f 239/2/3 238/2/3 237/2/3
f 240/2/3 238/2/3 239/2/3
f 241/1/3 240/1/3 239/1/3
f 242/1/3 240/1/3 241/1/3
f 245/1/3 244/1/3 243/1/3
f 246/1/3 244/1/3 245/1/3
f 247/2/3 246/2/3 245/2/3
f 248/2/3 246/2/3 247/2/3
f 249/1/3 248/1/3 247/1/3
f 250/1/3 248/1/3 249/1/3
f 251/2/3 250/2/3 249/2/3
f 252/2/3 250/2/3 251/2/3
f 253/1/3 252/1/3 251/1/3
f 254/1/3 252/1/3 253/1/3
f 255/2/3 254/2/3 253/2/3
f 256/2/3 254/2/3 255/2/3
f 257/1/3 256/1/3 255/1/3
f 258/1/3 256/1/3 257/1/3
f 259/2/3 258/2/3 257/2/3
f 260/2/3 258/2/3 259/2/3
f 261/1/3 260/1/3 259/1/3
f 262/1/3 260/1/3 261/1/3
f 265/1/3 264/1/3 263/1/3
f 266/1/3 264/1/3 265/1/3
f 267/2/3 266/2/3 265/2/3
f 268/2/3 266/2/3 267/2/3
f 269/1/3 268/1/3 267/1/3
f 270/1/3 268/1/3 269/1/3
f 271/2/3 270/2/3 269/2/3
f 272/2/3 270/2/3 271/2/3
f 273/1/3 272/1/3 271/1/3
f 274/1/3 272/1/3 273/1/3
f 275/2/3 274/2/3 273/2/3
f 276/2/3 274/2/3 275/2/3
f 277/1/3 276/1/3 275/1/3
f 278/1/3 276/1/3 277/1/3
f 279/2/3 278/2/3 277/2/3
f 280/2/3 278/2/3 279/2/3
f 281/1/3 280/1/3 279/1/3
f 282/1/3 280/1/3 281/1/3
f 285/1/3 284/1/3 283/1/3
f 286/1/3 284/1/3 285/1/3
f 287/2/3 286/2/3 285/2/3
f 288/2/3 286/2/3 287/2/3
f 289/1/3 288/1/3 287/1/3
f 290/1/3 288/1/3 289/1/3
f 291/2/3 290/2/3 289/2/3
f 292/2/3 290/2/3 291/2/3
f 293/1/3 292/1/3 291/1/3
f 294/1/3 292/1/3 293/1/3
f 295/2/3 294/2/3 293/2/3
f 296/2/3 294/2/3 295/2/3
f 297/1/3 296/1/3 295/1/3
f 298/1/3 296/1/3 297/1/3
f 299/2/3 298/2/3 297/2/3
f 300/2/3 298/2/3 299/2/3
f 301/1/3 300/1/3 299/1/3
f 302/1/3 300/1/3 301/1/3
f 305/1/3 304/1/3 303/1/3
f 306/1/3 304/1/3 305/1/3
f 307/2/3 306/2/3 305/2/3
f 308/2/3 306/2/3 307/2/3
f 309/1/3 308/1/3 307/1/3
f 310/1/3 308/1/3 309/1/3
f 311/2/3 310/2/3 309/2/3
f 312/2/3 310/2/3 311/2/3
f 313/1/3 312/1/3 311/1/3
f 314/1/3 312/1/3 313/1/3
f 315/2/3 314/2/3 313/2/3
f 316/2/3 314/2/3 315/2/3
f 317/1/3 316/1/3 315/1/3
f 318/1/3 316/1/3 317/1/3
f 319/2/3 318/2/3 317/2/3
f 320/2/3 318/2/3 319/2/3
f 321/1/3 320/1/3 319/1/3
f 322/1/3 320/1/3 321/1/3
f 325/1/3 324/1/3 323/1/3
f 326/1/3 324/1/3 325/1/3
f 327/2/3 326/2/3 325/2/3
f 328/2/3 326/2/3 327/2/3
f 329/1/3 328/1/3 327/1/3
f 330/1/3 328/1/3 329/1/3
f 331/2/3 330/2/3 329/2/3
f 332/2/3 330/2/3 331/2/3
f 333/1/3 332/1/3 331/1/3
f 334/1/3 332/1/3 333/1/3
f 335/2/3 334/2/3 333/2/3
f 336/2/3 334/2/3 335/2/3
f 337/1/3 336/1/3 335/1/3
f 338/1/3 336/1/3 337/1/3
f 339/2/3 338/2/3 337/2/3
f 340/2/3 338/2/3 339/2/3
f 341/1/3 340/1/3 339/1/3
f 342/1/3 340/1/3 341/1/3
f 345/1/3 344/1/3 343/1/3
f 346/1/3 344/1/3 345/1/3
f 347/2/3 346/2/3 345/2/3
f 348/2/3 346/2/3 347/2/3
f 349/1/3 348/1/3 347/1/3
f 350/1/3 348/1/3 349/1/3
f 351/2/3 350/2/3 349/2/3
f 352/2/3 350/2/3 351/2/3
f 353/1/3 352/1/3 351/1/3
f 354/1/3 352/1/3 353/1/3
f 355/2/3 354/2/3 353/2/3
f 356/2/3 354/2/3 355/2/3
f 357/1/3 356/1/3 355/1/3
f 358/1/3 356/1/3 357/1/3
f 359/2/3 358/2/3 357/2/3
f 360/2/3 358/2/3 359/2/3
f 361/1/3 360/1/3 359/1/3
f 362/1/3 360/1/3 361/1/3
f 365/3/3 364/3/3 363/3/3
f 366/3/3 364/3/3 365/3/3
f 369/3/3 368/3/3 367/3/3
f 370/3/3 368/3/3 369/3/3
f 371/3/4 372/3/4 373/3/4
f 373/3/4 372/3/4 374/3/4
f 375/3/4 376/3/4 377/3/4
f 377/3/4 376/3/4 378/3/4
f 379/1/4 380/1/4 381/1/4
f 381/1/4 380/1/4 382/1/4
f 381/2/4 382/2/4 383/2/4
f 383/2/4 382/2/4 384/2/4
f 383/1/4 384/1/4 385/1/4
f 385/1/4 384/1/4 386/1/4
f 385/2/4 386/2/4 387/2/4
f 387/2/4 386/2/4 388/2/4
f 387/1/4 388/1/4 389/1/4
f 389/1/4 388/1/4 390/1/4
f 389/2/4 390/2/4 391/2/4
f 391/2/4 390/2/4 392/2/4
f 391/1/4 392/1/4 393/1/4
f 393/1/4 392/1/4 394/1/4
f 393/2/4 394/2/4 395/2/4
f 395/2/4 394/2/4 396/2/4
f 395/1/4 396/1/4 397/1/4
f 397/1/4 396/1/4 398/1/4
f 399/1/4 400/1/4 401/1/4
f 401/1/4 400/1/4 402/1/4
f 401/2/4 402/2/4 403/2/4
f 403/2/4 402/2/4 404/2/4
f 403/1/4 404/1/4 405/1/4
f 405/1/4 404/1/4 406/1/4
f 405/2/4 406/2/4 407/2/4
f 407/2/4 406/2/4 408/2/4
f 407/1/4 408/1/4 409/1/4
f 409/1/4 408/1/4 410/1/4
f 409/2/4 410/2/4 411/2/4
f 411/2/4 410/2/4 412/2/4
f 411/1/4 412/1/4 413/1/4
f 413/1/4 412/1/4 414/1/4
f 413/2/4 414/2/4 415/2/4
f 415/2/4 414/2/4 416/2/4
f 415/1/4 416/1/4 417/1/4
f 417/1/4 416/1/4 418/1/4
f 419/1/4 420/1/4 421/1/4
f 421/1/4 420/1/4 422/1/4
f 421/2/4 422/2/4 423/2/4
f 423/2/4 422/2/4 424/2/4
f 423/1/4 424/1/4 425/1/4
f 425/1/4 424/1/4 426/1/4
f 425/2/4 426/2/4 427/2/4
f 427/2/4 426/2/4 428/2/4
f 427/1/4 428/1/4 429/1/4
f 429/1/4 428/1/4 430/1/4
f 429/2/4 430/2/4 431/2/4
f 431/2/4 430/2/4 432/2/4
f 431/1/4 432/1/4 433/1/4
f 433/1/4 432/1/4 434/1/4
f 433/2/4 434/2/4 435/2/4
f 435/2/4 434/2/4 436/2/4
f 435/1/4 436/1/4 437/1/4
f 437/1/4 436/1/4 438/1/4
f 439/1/4 440/1/4 441/1/4
f 441/1/4 440/1/4 442/1/4
f 441/2/4 442/2/4 443/2/4
f 443/2/4 442/2/4 444/2/4
f 443/1/4 444/1/4 445/1/4
f 445/1/4 444/1/4 446/1/4
f 445/2/4 446/2/4 447/2/4
f 447/2/4 446/2/4 448/2/4
f 447/1/4 448/1/4 449/1/4
f 449/1/4 448/1/4 450/1/4
f 449/2/4 450/2/4 451/2/4
f 451/2/4 450/2/4 452/2/4
f 451/1/4 452/1/4 453/1/4
f 453/1/4 452/1/4 454/1/4
f 453/2/4 454/2/4 455/2/4
f 455/2/4 454/2/4 456/2/4
f 455/1/4 456/1/4 457/1/4
f 457/1/4 456/1/4 458/1/4
f 459/1/4 460/1/4 461/1/4
f 461/1/4 460/1/4 462/1/4
f 461/2/4 462/2/4 463/2/4
f 463/2/4 462/2/4 464/2/4
f 463/1/4 464/1/4 465/1/4
f 465/1/4 464/1/4 466/1/4
f 465/2/4 466/2/4 467/2/4
f 467/2/4 466/2/4 468/2/4
f 467/1/4 468/1/4 469/1/4
f 469/1/4 468/1/4 470/1/4
f 469/2/4 470/2/4 471/2/4
f 471/2/4 470/2/4 472/2/4
f 471/1/4 472/1/4 473/1/4
f 473/1/4 472/1/4 474/1/4
f 473/2/4 474/2/4 475/2/4
f 475/2/4 474/2/4 476/2/4
f 475/1/4 476/1/4 477/1/4
f 477/1/4 476/1/4 478/1/4
f 479/1/4 480/1/4 481/1/4
f 481/1/4 480/1/4 482/1/4
f 481/2/4 482/2/4 483/2/4
f 483/2/4 482/2/4 484/2/4
f 483/1/4 484/1/4 485/1/4
f 485/1/4 484/1/4 486/1/4
f 485/2/4 486/2/4 487/2/4
f 487/2/4 486/2/4 488/2/4
f 487/1/4 488/1/4 489/1/4
f 489/1/4 488/1/4 490/1/4
f 489/2/4 490/2/4 491/2/4
f 491/2/4 490/2/4 492/2/4
f 491/1/4 492/1/4 493/1/4
f 493/1/4 492/1/4 494/1/4
f 493/2/4 494/2/4 495/2/4
f 495/2/4 494/2/4 496/2/4
f 495/1/4 496/1/4 497/1/4
f 497/1/4 496/1/4 498/1/4
f 499/1/4 500/1/4 501/1/4
f 501/1/4 500/1/4 502/1/4
f 501/2/4 502/2/4 503/2/4
f 503/2/4 502/2/4 504/2/4
f 503/1/4 504/1/4 505/1/4
f 505/1/4 504/1/4 506/1/4
f 505/2/4 506/2/4 507/2/4
f 507/2/4 506/2/4 508/2/4
f 507/1/4 508/1/4 509/1/4
f 509/1/4 508/1/4 510/1/4
f 509/2/4 510/2/4 511/2/4
f 511/2/4 510/2/4 512/2/4
f 511/1/4 512/1/4 513/1/4
f 513/1/4 512/1/4 514/1/4
f 513/2/4 514/2/4 515/2/4
f 515/2/4 514/2/4 516/2/4
f 515/1/4 516/1/4 517/1/4
f 517/1/4 516/1/4 518/1/4
f 519/1/4 520/1/4 521/1/4
f 521/1/4 520/1/4 522/1/4
f 521/2/4 522/2/4 523/2/4
f 523/2/4 522/2/4 524/2/4
f 523/1/4 524/1/4 525/1/4
f 525/1/4 524/1/4 526/1/4
f 525/2/4 526/2/4 527/2/4
f 527/2/4 526/2/4 528/2/4
f 527/1/4 528/1/4 529/1/4
f 529/1/4 528/1/4 530/1/4
f 529/2/4 530/2/4 531/2/4
f 531/2/4 530/2/4 532/2/4
f 531/1/4 532/1/4 533/1/4
f 533/1/4 532/1/4 534/1/4
f 533/2/4 534/2/4 535/2/4
f 535/2/4 534/2/4 536/2/4
f 535/1/4 536/1/4 537/1/4
f 537/1/4 536/1/4 538/1/4
f 539/1/4 540/1/4 541/1/4
f 541/1/4 540/1/4 542/1/4
f 541/2/4 542/2/4 543/2/4
f 543/2/4 542/2/4 544/2/4
f 543/1/4 544/1/4 545/1/4
f 545/1/4 544/1/4 546/1/4
f 545/2/4 546/2/4 547/2/4
f 547/2/4 546/2/4 548/2/4
f 547/1/4 548/1/4 549/1/4
f 549/1/4 548/1/4 550/1/4
f 549/2/4 550/2/4 551/2/4
f 551/2/4 550/2/4 552/2/4
f 551/1/4 552/1/4 553/1/4
f 553/1/4 552/1/4 554/1/4
f 553/2/4 554/2/4 555/2/4
f 555/2/4 554/2/4 556/2/4
f 555/1/4 556/1/4 557/1/4
f 557/1/4 556/1/4 558/1/4
f 559/1/4 560/1/4 561/1/4
f 561/1/4 560/1/4 562/1/4
f 561/2/4 562/2/4 563/2/4
f 563/2/4 562/2/4 564/2/4
f 563/1/4 564/1/4 565/1/4
f 565/1/4 564/1/4 566/1/4
f 565/2/4 566/2/4 567/2/4
f 567/2/4 566/2/4 568/2/4
f 567/1/4 568/1/4 569/1/4
f 569/1/4 568/1/4 570/1/4
f 569/2/4 570/2/4 571/2/4
f 571/2/4 570/2/4 572/2/4
f 571/1/4 572/1/4 573/1/4
f 573/1/4 572/1/4 574/1/4
f 573/2/4 574/2/4 575/2/4
f 575/2/4 574/2/4 576/2/4
f 575/1/4 576/1/4 577/1/4
f 577/1/4 576/1/4 578/1/4
f 579/3/4 580/3/4 582/3/4
f 582/3/4 580/3/4 583/3/4
f 580/1/4 581/1/4 584/1/4
f 583/3/4 580/3/4 584/3/4
f 583/1/4 584/1/4 585/1/4
f 584/1/4 581/1/4 586/1/4
f 585/1/4 584/1/4 586/1/4
f 585/2/4 586/2/4 587/2/4
f 587/2/4 586/2/4 588/2/4
f 587/1/4 588/1/4 589/1/4
f 589/1/4 588/1/4 590/1/4
f 589/2/4 590/2/4 591/2/4
f 591/2/4 590/2/4 592/2/4
f 591/1/4 592/1/4 593/1/4
f 593/1/4 592/1/4 594/1/4
f 593/2/4 594/2/4 595/2/4
f 595/2/4 594/2/4 596/2/4
f 595/1/4 596/1/4 597/1/4
f 597/1/4 596/1/4 598/1/4
f 597/2/4 598/2/4 600/2/4
f 600/2/4 598/2/4 601/2/4
f 599/3/4 600/3/4 602/3/4
f 601/2/4 598/2/4 602/2/4
f 600/3/4 601/3/4 602/3/4
f 602/2/4 598/2/4 603/2/4
f 599/3/4 602/3/4 604/3/4
f 602/1/4 603/1/4 605/1/4
f 604/3/4 602/3/4 605/3/4
f 605/1/4 603/1/4 606/1/4
f 607/1/4 608/1/4 609/1/4
f 609/1/4 608/1/4 610/1/4
f 613/1/5 612/1/5 611/1/5
f 614/1/5 612/1/5 613/1/5
f 624/1/5 616/1/5 615/1/5
f 624/2/5 617/2/5 616/2/5
f 625/2/5 617/2/5 624/2/5
f 626/1/5 618/1/5 617/1/5
f 626/2/5 617/2/5 625/2/5
f 627/2/5 619/2/5 618/2/5
f 627/1/5 618/1/5 626/1/5
f 628/1/5 620/1/5 619/1/5
f 628/2/5 619/2/5 627/2/5
f 629/1/5 620/1/5 628/1/5
f 630/2/5 621/2/5 620/2/5
f 630/1/5 620/1/5 629/1/5
f 631/2/5 623/2/5 622/2/5
f 631/1/5 622/1/5 621/1/5
f 632/2/5 623/2/5 631/2/5
f 634/1/5 625/1/5 624/1/5
f 634/1/5 624/1/5 615/1/5
f 635/1/5 632/1/5 631/1/5
f 637/1/5 634/1/5 633/1/5
f 637/1/5 625/1/5 634/1/5
f 638/2/5 626/2/5 625/2/5
f 638/1/5 625/1/5 637/1/5
f 638/2/5 627/2/5 626/2/5
f 639/2/5 621/2/5 630/2/5
f 639/2/5 630/2/5 629/2/5
f 639/1/5 635/1/5 631/1/5
f 639/1/5 631/1/5 621/1/5
f 639/1/5 636/1/5 635/1/5
f 640/1/5 636/1/5 639/1/5
f 641/1/5 637/1/5 633/1/5
f 642/1/5 637/1/5 641/1/5
f 643/1/5 636/1/5 640/1/5
f 644/1/5 636/1/5 643/1/5
f 645/2/5 627/2/5 638/2/5
f 645/2/5 638/2/5 637/2/5
f 646/1/5 628/1/5 627/1/5
f 646/2/5 627/2/5 645/2/5
f 646/1/5 629/1/5 628/1/5
f 647/1/5 629/1/5 646/1/5
f 648/2/5 639/2/5 629/2/5
f 648/1/5 629/1/5 647/1/5
f 648/2/5 640/2/5 639/2/5
f 649/2/5 640/2/5 648/2/5
f 650/2/5 640/2/5 649/2/5
f 651/1/5 643/1/5 640/1/5
f 651/2/5 640/2/5 650/2/5
f 652/1/5 643/1/5 651/1/5
f 653/1/5 643/1/5 652/1/5
f 654/1/5 637/1/5 642/1/5
f 655/2/5 645/2/5 637/2/5
f 655/1/5 637/1/5 654/1/5
f 656/1/5 646/1/5 645/1/5
f 656/2/5 645/2/5 655/2/5
f 657/2/5 647/2/5 646/2/5
f 657/1/5 646/1/5 656/1/5
f 658/1/5 648/1/5 647/1/5
f 658/2/5 647/2/5 657/2/5
f 658/1/5 649/1/5 648/1/5
f 659/2/5 650/2/5 649/2/5
f 659/1/5 649/1/5 658/1/5
f 660/1/5 651/1/5 650/1/5
f 660/2/5 650/2/5 659/2/5
f 660/1/5 652/1/5 651/1/5
f 661/2/5 653/2/5 652/2/5
f 661/1/5 652/1/5 660/1/5
f 662/2/5 653/2/5 661/2/5
f 663/1/6 664/1/6 665/1/6
f 665/1/6 664/1/6 666/1/6
f 666/1/6 664/1/6 667/1/6
f 667/1/6 664/1/6 668/1/6
f 663/1/6 665/1/6 669/1/6
f 666/1/6 667/1/6 670/1/6
f 670/1/6 667/1/6 671/1/6
f 668/1/6 664/1/6 672/1/6
f 670/1/6 671/1/6 673/1/6
f 671/1/6 672/1/6 673/1/6
f 663/1/6 669/1/6 673/1/6
f 669/1/6 670/1/6 673/1/6
f 673/1/6 672/1/6 674/1/6
f 674/1/6 672/1/6 675/1/6
f 672/1/6 664/1/6 676/1/6
f 675/1/6 672/1/6 676/1/6
f 663/1/6 673/1/6 677/1/6
f 674/1/6 675/1/6 678/1/6
f 678/1/6 675/1/6 679/1/6
f 676/1/6 664/1/6 680/1/6
f 663/1/6 677/1/6 681/1/6
f 679/1/6 680/1/6 681/1/6
f 678/1/6 679/1/6 681/1/6
f 677/1/6 678/1/6 681/1/6
f 680/1/6 664/1/6 682/1/6
f 681/1/6 680/1/6 682/1/6
f 683/1/6 684/1/6 693/1/6
f 684/2/6 685/2/6 694/2/6
f 693/1/6 684/1/6 694/1/6
f 685/1/6 686/1/6 695/1/6
f 694/2/6 685/2/6 695/2/6
f 686/2/6 687/2/6 696/2/6
f 695/1/6 686/1/6 696/1/6
f 687/1/6 688/1/6 697/1/6
f 696/2/6 687/2/6 697/2/6
f 688/2/6 689/2/6 698/2/6
f 697/1/6 688/1/6 698/1/6
f 689/1/6 690/1/6 699/1/6
f 698/2/6 689/2/6 699/2/6
f 690/2/6 691/2/6 700/2/6
f 699/1/6 690/1/6 700/1/6
f 691/1/6 692/1/6 701/1/6
f 700/2/6 691/2/6 701/2/6
f 701/1/6 692/1/6 702/1/6
f 703/1/6 704/1/6 713/1/6
f 704/2/6 705/2/6 714/2/6
f 713/1/6 704/1/6 714/1/6
f 705/1/6 706/1/6 715/1/6
f 714/2/6 705/2/6 715/2/6
f 706/2/6 707/2/6 716/2/6
f 715/1/6 706/1/6 716/1/6
f 707/1/6 708/1/6 717/1/6
f 716/2/6 707/2/6 717/2/6
f 708/2/6 709/2/6 718/2/6
f 717/1/6 708/1/6 718/1/6
f 709/1/6 710/1/6 719/1/6
f 718/2/6 709/2/6 719/2/6
f 710/2/6 711/2/6 720/2/6
f 719/1/6 710/1/6 720/1/6
f 711/1/6 712/1/6 721/1/6
f 720/2/6 711/2/6 721/2/6
f 721/1/6 712/1/6 722/1/6
f 723/1/6 724/1/6 733/1/6
f 724/2/6 725/2/6 734/2/6
f 733/1/6 724/1/6 734/1/6
f 725/1/6 726/1/6 735/1/6
f 734/2/6 725/2/6 735/2/6
f 726/2/6 727/2/6 736/2/6
f 735/1/6 726/1/6 736/1/6
f 727/1/6 728/1/6 737/1/6
f 736/2/6 727/2/6 737/2/6
f 728/2/6 729/2/6 738/2/6
f 737/1/6 728/1/6 738/1/6
f 729/1/6 730/1/6 739/1/6
f 738/2/6 729/2/6 739/2/6
f 730/2/6 731/2/6 740/2/6
f 739/1/6 730/1/6 740/1/6
f 731/1/6 732/1/6 741/1/6
f 740/2/6 731/2/6 741/2/6
f 741/1/6 732/1/6 742/1/6
f 743/1/6 744/1/6 753/1/6
f 744/2/6 745/2/6 754/2/6
f 753/1/6 744/1/6 754/1/6
f 745/1/6 746/1/6 755/1/6
f 754/2/6 745/2/6 755/2/6
f 746/2/6 747/2/6 756/2/6
f 755/1/6 746/1/6 756/1/6
f 747/1/6 748/1/6 757/1/6
f 756/2/6 747/2/6 757/2/6
f 748/2/6 749/2/6 758/2/6
f 757/1/6 748/1/6 758/1/6
f 749/1/6 750/1/6 759/1/6
f 758/2/6 749/2/6 759/2/6
f 750/2/6 751/2/6 760/2/6
f 759/1/6 750/1/6 760/1/6
f 751/1/6 752/1/6 761/1/6
f 760/2/6 751/2/6 761/2/6
f 761/1/6 752/1/6 762/1/6
f 763/1/6 764/1/6 773/1/6
f 764/2/6 765/2/6 774/2/6
f 773/1/6 764/1/6 774/1/6
f 765/1/6 766/1/6 775/1/6
f 774/2/6 765/2/6 775/2/6
f 766/2/6 767/2/6 776/2/6
f 775/1/6 766/1/6 776/1/6
f 767/1/6 768/1/6 777/1/6
f 776/2/6 767/2/6 777/2/6
f 768/2/6 769/2/6 778/2/6
f 777/1/6 768/1/6 778/1/6
f 769/1/6 770/1/6 779/1/6
f 778/2/6 769/2/6 779/2/6
f 770/2/6 771/2/6 780/2/6
f 779/1/6 770/1/6 780/1/6
f 771/1/6 772/1/6 781/1/6
f 780/2/6 771/2/6 781/2/6
f 781/1/6 772/1/6 782/1/6
f 783/1/6 784/1/6 793/1/6
f 784/2/6 785/2/6 794/2/6
f 793/1/6 784/1/6 794/1/6
f 785/1/6 786/1/6 795/1/6
f 794/2/6 785/2/6 795/2/6
f 786/2/6 787/2/6 796/2/6
f 795/1/6 786/1/6 796/1/6
f 787/1/6 788/1/6 797/1/6
f 796/2/6 787/2/6 797/2/6
f 788/2/6 789/2/6 798/2/6
f 797/1/6 788/1/6 798/1/6
f 789/1/6 790/1/6 799/1/6
f 798/2/6 789/2/6 799/2/6
f 790/2/6 791/2/6 800/2/6
f 799/1/6 790/1/6 800/1/6
f 791/1/6 792/1/6 801/1/6
f 800/2/6 791/2/6 801/2/6
f 801/1/6 792/1/6 802/1/6
f 803/1/6 804/1/6 813/1/6
f 804/2/6 805/2/6 814/2/6
f 813/1/6 804/1/6 814/1/6
f 805/1/6 806/1/6 815/1/6
f 814/2/6 805/2/6 815/2/6
f 806/2/6 807/2/6 816/2/6
f 815/1/6 806/1/6 816/1/6
f 807/1/6 808/1/6 817/1/6
f 816/2/6 807/2/6 817/2/6
f 808/2/6 809/2/6 818/2/6
f 817/1/6 808/1/6 818/1/6
f 809/1/6 810/1/6 819/1/6
f 818/2/6 809/2/6 819/2/6
f 810/2/6 811/2/6 820/2/6
f 819/1/6 810/1/6 820/1/6
f 811/1/6 812/1/6 821/1/6
f 820/2/6 811/2/6 821/2/6
f 821/1/6 812/1/6 822/1/6
f 823/1/6 824/1/6 833/1/6
f 824/2/6 825/2/6 834/2/6
f 833/1/6 824/1/6 834/1/6
f 825/1/6 826/1/6 835/1/6
f 834/2/6 825/2/6 835/2/6
f 826/2/6 827/2/6 836/2/6
f 835/1/6 826/1/6 836/1/6
f 827/1/6 828/1/6 837/1/6
f 836/2/6 827/2/6 837/2/6
f 828/2/6 829/2/6 838/2/6
f 837/1/6 828/1/6 838/1/6
f 829/1/6 830/1/6 839/1/6
f 838/2/6 829/2/6 839/2/6
f 830/2/6 831/2/6 840/2/6
f 839/1/6 830/1/6 840/1/6
f 831/1/6 832/1/6 841/1/6
f 840/2/6 831/2/6 841/2/6
f 841/1/6 832/1/6 842/1/6
f 843/1/6 844/1/6 853/1/6
f 844/2/6 845/2/6 854/2/6
f 853/1/6 844/1/6 854/1/6
f 845/1/6 846/1/6 855/1/6
f 854/2/6 845/2/6 855/2/6
f 846/2/6 847/2/6 856/2/6
f 855/1/6 846/1/6 856/1/6
f 847/1/6 848/1/6 857/1/6
f 856/2/6 847/2/6 857/2/6
f 848/2/6 849/2/6 858/2/6
f 857/1/6 848/1/6 858/1/6
f 849/1/6 850/1/6 859/1/6
f 858/2/6 849/2/6 859/2/6
f 850/2/6 851/2/6 860/2/6
f 859/1/6 850/1/6 860/1/6
f 851/1/6 852/1/6 861/1/6
f 860/2/6 851/2/6 861/2/6
f 861/1/6 852/1/6 862/1/6
f 863/1/6 864/1/6 873/1/6
f 864/2/6 865/2/6 874/2/6
f 873/1/6 864/1/6 874/1/6
f 865/1/6 866/1/6 875/1/6
f 874/2/6 865/2/6 875/2/6
f 866/2/6 867/2/6 876/2/6
f 875/1/6 866/1/6 876/1/6
f 867/1/6 868/1/6 877/1/6
f 876/2/6 867/2/6 877/2/6
f 868/2/6 869/2/6 878/2/6
f 877/1/6 868/1/6 878/1/6
f 869/1/6 870/1/6 879/1/6
f 878/2/6 869/2/6 879/2/6
f 870/2/6 871/2/6 880/2/6
f 879/1/6 870/1/6 880/1/6
f 871/1/6 872/1/6 881/1/6
f 880/2/6 871/2/6 881/2/6
f 881/1/6 872/1/6 882/1/6
f 883/1/6 884/1/6 893/1/6
f 884/2/6 885/2/6 894/2/6
f 893/1/6 884/1/6 894/1/6
f 885/1/6 886/1/6 895/1/6
f 894/2/6 885/2/6 895/2/6
f 886/2/6 887/2/6 896/2/6
f 895/1/6 886/1/6 896/1/6
f 887/1/6 888/1/6 897/1/6
f 896/2/6 887/2/6 897/2/6
f 888/2/6 889/2/6 898/2/6
f 897/1/6 888/1/6 898/1/6
f 889/1/6 890/1/6 899/1/6
f 898/2/6 889/2/6 899/2/6
f 890/2/6 891/2/6 900/2/6
f 899/1/6 890/1/6 900/1/6
f 891/1/6 892/1/6 901/1/6
f 900/2/6 891/2/6 901/2/6
f 901/1/6 892/1/6 902/1/6
f 903/1/6 904/1/6 913/1/6
f 904/2/6 905/2/6 914/2/6
f 913/1/6 904/1/6 914/1/6
f 905/1/6 906/1/6 915/1/6
f 914/2/6 905/2/6 915/2/6
f 906/2/6 907/2/6 916/2/6
f 915/1/6 906/1/6 916/1/6
f 907/1/6 908/1/6 917/1/6
f 916/2/6 907/2/6 917/2/6
f 908/2/6 909/2/6 918/2/6
f 917/1/6 908/1/6 918/1/6
f 909/1/6 910/1/6 919/1/6
f 918/2/6 909/2/6 919/2/6
f 910/2/6 911/2/6 920/2/6
f 919/1/6 910/1/6 920/1/6
f 911/1/6 912/1/6 921/1/6
f 920/2/6 911/2/6 921/2/6
f 921/1/6 912/1/6 922/1/6
f 923/1/6 924/1/6 933/1/6
f 924/2/6 925/2/6 934/2/6
f 933/1/6 924/1/6 934/1/6
f 925/1/6 926/1/6 935/1/6
f 934/2/6 925/2/6 935/2/6
f 926/2/6 927/2/6 936/2/6
f 935/1/6 926/1/6 936/1/6
f 927/1/6 928/1/6 937/1/6
f 936/2/6 927/2/6 937/2/6
f 928/2/6 929/2/6 938/2/6
f 937/1/6 928/1/6 938/1/6
f 929/1/6 930/1/6 939/1/6
f 938/2/6 929/2/6 939/2/6
f 930/2/6 931/2/6 940/2/6
f 939/1/6 930/1/6 940/1/6
f 931/1/6 932/1/6 941/1/6
f 940/2/6 931/2/6 941/2/6
f 941/1/6 932/1/6 942/1/6
f 943/1/6 944/1/6 953/1/6
f 944/2/6 945/2/6 954/2/6
f 953/1/6 944/1/6 954/1/6
f 945/1/6 946/1/6 955/1/6
f 954/2/6 945/2/6 955/2/6
f 946/2/6 947/2/6 956/2/6
f 955/1/6 946/1/6 956/1/6
f 947/1/6 948/1/6 957/1/6
f 956/2/6 947/2/6 957/2/6
f 948/2/6 949/2/6 958/2/6
f 957/1/6 948/1/6 958/1/6
f 949/1/6 950/1/6 959/1/6
f 958/2/6 949/2/6 959/2/6
f 950/2/6 951/2/6 960/2/6
f 959/1/6 950/1/6 960/1/6
f 951/1/6 952/1/6 961/1/6
f 960/2/6 951/2/6 961/2/6
f 961/1/6 952/1/6 962/1/6
f 963/1/6 964/1/6 973/1/6
f 964/2/6 965/2/6 974/2/6
f 973/1/6 964/1/6 974/1/6
f 965/1/6 966/1/6 975/1/6
f 974/2/6 965/2/6 975/2/6
f 966/2/6 967/2/6 976/2/6
f 975/1/6 966/1/6 976/1/6
f 967/1/6 968/1/6 977/1/6
f 976/2/6 967/2/6 977/2/6
f 968/2/6 969/2/6 978/2/6
f 977/1/6 968/1/6 978/1/6
f 969/1/6 970/1/6 979/1/6
f 978/2/6 969/2/6 979/2/6
f 970/2/6 971/2/6 980/2/6
f 979/1/6 970/1/6 980/1/6
f 971/1/6 972/1/6 981/1/6
f 980/2/6 971/2/6 981/2/6
f 981/1/6 972/1/6 982/1/6
f 983/1/6 984/1/6 993/1/6
f 984/2/6 985/2/6 994/2/6
f 993/1/6 984/1/6 994/1/6
f 985/1/6 986/1/6 995/1/6
f 994/2/6 985/2/6 995/2/6
f 986/2/6 987/2/6 996/2/6
f 995/1/6 986/1/6 996/1/6
f 987/1/6 988/1/6 997/1/6
f 996/2/6 987/2/6 997/2/6
f 988/2/6 989/2/6 998/2/6
f 997/1/6 988/1/6 998/1/6
f 989/1/6 990/1/6 999/1/6
f 998/2/6 989/2/6 999/2/6
f 990/2/6 991/2/6 1000/2/6
f 999/1/6 990/1/6 1000/1/6
f 991/1/6 992/1/6 1001/1/6
f 1000/2/6 991/2/6 1001/2/6
f 1001/1/6 992/1/6 1002/1/6
f 1003/1/6 1004/1/6 1013/1/6
f 1004/2/6 1005/2/6 1014/2/6
f 1013/1/6 1004/1/6 1014/1/6
f 1005/1/6 1006/1/6 1015/1/6
f 1014/2/6 1005/2/6 1015/2/6
f 1006/2/6 1007/2/6 1016/2/6
f 1015/1/6 1006/1/6 1016/1/6
f 1007/1/6 1008/1/6 1017/1/6
f 1016/2/6 1007/2/6 1017/2/6
f 1008/2/6 1009/2/6 1018/2/6
f 1017/1/6 1008/1/6 1018/1/6
f 1009/1/6 1010/1/6 1019/1/6
f 1018/2/6 1009/2/6 1019/2/6
f 1010/2/6 1011/2/6 1020/2/6
f 1019/1/6 1010/1/6 1020/1/6
f 1011/1/6 1012/1/6 1021/1/6
f 1020/2/6 1011/2/6 1021/2/6
f 1021/1/6 1012/1/6 1022/1/6
f 1023/1/6 1024/1/6 1033/1/6
f 1024/2/6 1025/2/6 1034/2/6
f 1033/1/6 1024/1/6 1034/1/6
f 1025/1/6 1026/1/6 1035/1/6
f 1034/2/6 1025/2/6 1035/2/6
f 1026/2/6 1027/2/6 1036/2/6
f 1035/1/6 1026/1/6 1036/1/6
f 1027/1/6 1028/1/6 1037/1/6
f 1036/2/6 1027/2/6 1037/2/6
f 1028/2/6 1029/2/6 1038/2/6
f 1037/1/6 1028/1/6 1038/1/6
f 1029/1/6 1030/1/6 1039/1/6
f 1038/2/6 1029/2/6 1039/2/6
f 1030/2/6 1031/2/6 1040/2/6
f 1039/1/6 1030/1/6 1040/1/6
f 1031/1/6 1032/1/6 1041/1/6
f 1040/2/6 1031/2/6 1041/2/6
f 1041/1/6 1032/1/6 1042/1/6
f 1043/1/6 1044/1/6 1053/1/6
f 1044/2/6 1045/2/6 1054/2/6
f 1053/1/6 1044/1/6 1054/1/6
f 1045/1/6 1046/1/6 1055/1/6
f 1054/2/6 1045/2/6 1055/2/6
f 1046/2/6 1047/2/6 1056/2/6
f 1055/1/6 1046/1/6 1056/1/6
f 1047/1/6 1048/1/6 1057/1/6
f 1056/2/6 1047/2/6 1057/2/6
f 1048/2/6 1049/2/6 1058/2/6
f 1057/1/6 1048/1/6 1058/1/6
f 1049/1/6 1050/1/6 1059/1/6
f 1058/2/6 1049/2/6 1059/2/6
f 1050/2/6 1051/2/6 1060/2/6
f 1059/1/6 1050/1/6 1060/1/6
f 1051/1/6 1052/1/6 1061/1/6
f 1060/2/6 1051/2/6 1061/2/6
f 1061/1/6 1052/1/6 1062/1/6
f 1063/1/6 1064/1/6 1073/1/6
f 1064/2/6 1065/2/6 1074/2/6
f 1073/1/6 1064/1/6 1074/1/6
f 1065/1/6 1066/1/6 1075/1/6
f 1074/2/6 1065/2/6 1075/2/6
f 1066/2/6 1067/2/6 1076/2/6
f 1075/1/6 1066/1/6 1076/1/6
f 1067/1/6 1068/1/6 1077/1/6
f 1076/2/6 1067/2/6 1077/2/6
f 1068/2/6 1069/2/6 1078/2/6
f 1077/1/6 1068/1/6 1078/1/6
f 1069/1/6 1070/1/6 1079/1/6
f 1078/2/6 1069/2/6 1079/2/6
f 1070/2/6 1071/2/6 1080/2/6
f 1079/1/6 1070/1/6 1080/1/6
f 1071/1/6 1072/1/6 1081/1/6
f 1080/2/6 1071/2/6 1081/2/6
f 1081/1/6 1072/1/6 1082/1/6
f 1083/1/6 1084/1/6 1093/1/6
f 1084/2/6 1085/2/6 1094/2/6
f 1093/1/6 1084/1/6 1094/1/6
f 1085/1/6 1086/1/6 1095/1/6
f 1094/2/6 1085/2/6 1095/2/6
f 1086/2/6 1087/2/6 1096/2/6
f 1095/1/6 1086/1/6 1096/1/6
f 1087/1/6 1088/1/6 1097/1/6
f 1096/2/6 1087/2/6 1097/2/6
f 1088/2/6 1089/2/6 1098/2/6
f 1097/1/6 1088/1/6 1098/1/6
f 1089/1/6 1090/1/6 1099/1/6
f 1098/2/6 1089/2/6 1099/2/6
f 1090/2/6 1091/2/6 1100/2/6
f 1099/1/6 1090/1/6 1100/1/6
f 1091/1/6 1092/1/6 1101/1/6
f 1100/2/6 1091/2/6 1101/2/6
f 1101/1/6 1092/1/6 1102/1/6
