# MagicaVoxel @ Ephtracy

# group
o 

# material
mtllib car.mtl
usemtl palette

# normals
vn -1 0 0
vn 1 0 0
vn 0 0 1
vn 0 0 -1
vn 0 -1 0
vn 0 1 0

# texcoords
vt 0.587891 0.5
vt 0.705078 0.5
vt 0.958984 0.5
vt 0.974609 0.5
vt 0.994141 0.5

# verts
v -0.4 0 0.7
v -0.4 0 -0.6
v -0.4 0.7 0.7
v -0.4 0.7 -0.6
v 0.4 0 0.7
v 0.4 0 -0.6
v 0.4 0.7 0.7
v 0.4 0.7 -0.6
v -0.4 0 0.7
v -0.4 0.7 0.7
v 0.4 0 0.7
v 0.4 0.7 0.7
v -0.4 0 -0.6
v -0.4 0.7 -0.6
v 0.4 0 -0.6
v 0.4 0.7 -0.6
v -0.4 0 0.7
v 0.4 0 0.7
v -0.3 0 0.6
v -0.2 0 0.6
v 0.2 0 0.6
v 0.3 0 0.6
v -0.3 0 0.3
v -0.2 0 0.3
v 0.2 0 0.3
v 0.3 0 0.3
v -0.3 0 -0.2
v -0.2 0 -0.2
v 0.2 0 -0.2
v 0.3 0 -0.2
v -0.3 0 -0.5
v -0.2 0 -0.5
v 0.2 0 -0.5
v 0.3 0 -0.5
v -0.4 0 -0.6
v 0.4 0 -0.6
v -0.4 0.7 0.7
v 0.4 0.7 0.7
v -0.4 0.7 -0.6
v 0.4 0.7 -0.6

# faces
f 3/3/1 2/3/1 1/3/1
f 4/3/1 2/3/1 3/3/1
f 5/3/2 6/3/2 7/3/2
f 7/3/2 6/3/2 8/3/2
f 11/3/3 10/3/3 9/3/3
f 12/3/3 10/3/3 11/3/3
f 13/3/4 14/3/4 15/3/4
f 15/3/4 14/3/4 16/3/4
f 19/3/5 18/3/5 17/3/5
f 20/3/5 18/3/5 19/3/5
f 21/3/5 18/3/5 20/3/5
f 22/3/5 18/3/5 21/3/5
f 23/3/5 19/3/5 17/3/5
f 23/5/5 20/5/5 19/5/5
f 24/3/5 21/3/5 20/3/5
f 24/5/5 20/5/5 23/5/5
f 25/5/5 22/5/5 21/5/5
f 25/3/5 21/3/5 24/3/5
f 26/3/5 18/3/5 22/3/5
f 26/5/5 22/5/5 25/5/5
f 27/3/5 25/3/5 24/3/5
f 27/3/5 24/3/5 23/3/5
f 27/3/5 26/3/5 25/3/5
f 27/3/5 23/3/5 17/3/5
f 28/3/5 26/3/5 27/3/5
f 29/3/5 26/3/5 28/3/5
f 30/3/5 18/3/5 26/3/5
f 30/3/5 26/3/5 29/3/5
f 31/3/5 27/3/5 17/3/5
f 31/5/5 28/5/5 27/5/5
f 32/3/5 29/3/5 28/3/5
f 32/5/5 28/5/5 31/5/5
f 33/5/5 30/5/5 29/5/5
f 33/3/5 29/3/5 32/3/5
f 34/3/5 18/3/5 30/3/5
f 34/5/5 30/5/5 33/5/5
f 35/3/5 31/3/5 17/3/5
f 35/3/5 33/3/5 32/3/5
f 35/3/5 34/3/5 33/3/5
f 35/3/5 32/3/5 31/3/5
f 36/3/5 18/3/5 34/3/5
f 36/3/5 34/3/5 35/3/5
f 37/3/6 38/3/6 39/3/6
f 39/3/6 38/3/6 40/3/6
